<svg width="1678" height="830" viewBox="0 0 1678 830" fill="none" xmlns="http://www.w3.org/2000/svg">
<path d="M160.766 547.843V628H133.766V423.25H209.281C231.688 423.25 249.219 428.968 261.875 440.406C274.625 451.843 281 466.984 281 485.828C281 505.703 274.766 521.031 262.297 531.812C249.922 542.5 232.156 547.843 209 547.843H160.766ZM160.766 525.765H209.281C223.719 525.765 234.781 522.39 242.469 515.64C250.156 508.796 254 498.953 254 486.109C254 473.921 250.156 464.171 242.469 456.859C234.781 449.546 224.234 445.75 210.828 445.468H160.766V525.765ZM372.547 630.812C351.922 630.812 335.141 624.062 322.203 610.562C309.266 596.968 302.797 578.828 302.797 556.14V551.359C302.797 536.265 305.656 522.812 311.375 511C317.188 499.093 325.25 489.812 335.562 483.156C345.969 476.406 357.219 473.031 369.312 473.031C389.094 473.031 404.469 479.546 415.438 492.578C426.406 505.609 431.891 524.265 431.891 548.546V559.375H328.812C329.188 574.375 333.547 586.515 341.891 595.796C350.328 604.984 361.016 609.578 373.953 609.578C383.141 609.578 390.922 607.703 397.297 603.953C403.672 600.203 409.25 595.234 414.031 589.046L429.922 601.421C417.172 621.015 398.047 630.812 372.547 630.812ZM369.312 494.406C358.812 494.406 350 498.25 342.875 505.937C335.75 513.531 331.344 524.218 329.656 538H405.875V536.031C405.125 522.812 401.562 512.593 395.188 505.375C388.812 498.062 380.188 494.406 369.312 494.406ZM725.234 630.812C704.609 630.812 687.828 624.062 674.891 610.562C661.953 596.968 655.484 578.828 655.484 556.14V551.359C655.484 536.265 658.344 522.812 664.062 511C669.875 499.093 677.938 489.812 688.25 483.156C698.656 476.406 709.906 473.031 722 473.031C741.781 473.031 757.156 479.546 768.125 492.578C779.094 505.609 784.578 524.265 784.578 548.546V559.375H681.5C681.875 574.375 686.234 586.515 694.578 595.796C703.016 604.984 713.703 609.578 726.641 609.578C735.828 609.578 743.609 607.703 749.984 603.953C756.359 600.203 761.938 595.234 766.719 589.046L782.609 601.421C769.859 621.015 750.734 630.812 725.234 630.812ZM722 494.406C711.5 494.406 702.688 498.25 695.562 505.937C688.438 513.531 684.031 524.218 682.344 538H758.562V536.031C757.812 522.812 754.25 512.593 747.875 505.375C741.5 498.062 732.875 494.406 722 494.406ZM875.844 609.578C885.125 609.578 893.234 606.765 900.172 601.14C907.109 595.515 910.953 588.484 911.703 580.046H936.312C935.844 588.765 932.844 597.062 927.312 604.937C921.781 612.812 914.375 619.093 905.094 623.781C895.906 628.468 886.156 630.812 875.844 630.812C855.125 630.812 838.625 623.921 826.344 610.14C814.156 596.265 808.062 577.328 808.062 553.328V548.968C808.062 534.156 810.781 520.984 816.219 509.453C821.656 497.921 829.438 488.968 839.562 482.593C849.781 476.218 861.828 473.031 875.703 473.031C892.766 473.031 906.922 478.14 918.172 488.359C929.516 498.578 935.562 511.843 936.312 528.156H911.703C910.953 518.312 907.203 510.25 900.453 503.968C893.797 497.593 885.547 494.406 875.703 494.406C862.484 494.406 852.219 499.187 844.906 508.75C837.688 518.218 834.078 531.953 834.078 549.953V554.875C834.078 572.406 837.688 585.906 844.906 595.375C852.125 604.843 862.438 609.578 875.844 609.578ZM1000.86 439V475.843H1029.27V495.953H1000.86V590.312C1000.86 596.406 1002.12 601 1004.66 604.093C1007.19 607.093 1011.5 608.593 1017.59 608.593C1020.59 608.593 1024.72 608.031 1029.97 606.906V628C1023.12 629.875 1016.47 630.812 1010 630.812C998.375 630.812 989.609 627.296 983.703 620.265C977.797 613.234 974.844 603.25 974.844 590.312V495.953H947.141V475.843H974.844V439H1000.86ZM1179.59 533.359H1090.86V605.921H1193.94V628H1063.86V423.25H1192.53V445.468H1090.86V511.281H1179.59V533.359ZM1214.33 550.656C1214.33 527.312 1219.86 508.562 1230.92 494.406C1241.98 480.156 1256.47 473.031 1274.38 473.031C1292.19 473.031 1306.3 479.125 1316.7 491.312V412H1342.72V628H1318.81L1317.55 611.687C1307.14 624.437 1292.66 630.812 1274.09 630.812C1256.47 630.812 1242.08 623.593 1230.92 609.156C1219.86 594.718 1214.33 575.875 1214.33 552.625V550.656ZM1240.34 553.609C1240.34 570.859 1243.91 584.359 1251.03 594.109C1258.16 603.859 1268 608.734 1280.56 608.734C1297.06 608.734 1309.11 601.328 1316.7 586.515V516.625C1308.92 502.281 1296.97 495.109 1280.84 495.109C1268.09 495.109 1258.16 500.031 1251.03 509.875C1243.91 519.718 1240.34 534.296 1240.34 553.609ZM1377.03 550.656C1377.03 526.937 1382.52 508.093 1393.48 494.125C1404.45 480.062 1418.98 473.031 1437.08 473.031C1455.64 473.031 1470.12 479.593 1480.53 492.718L1481.8 475.843H1505.56V624.343C1505.56 644.031 1499.7 659.546 1487.98 670.89C1476.36 682.234 1460.7 687.906 1441.02 687.906C1430.05 687.906 1419.31 685.562 1408.81 680.875C1398.31 676.187 1390.3 669.765 1384.77 661.609L1398.27 646C1409.42 659.781 1423.06 666.671 1439.19 666.671C1451.84 666.671 1461.69 663.109 1468.72 655.984C1475.84 648.859 1479.41 638.828 1479.41 625.89V612.812C1469 624.812 1454.8 630.812 1436.8 630.812C1418.98 630.812 1404.55 623.64 1393.48 609.296C1382.52 594.953 1377.03 575.406 1377.03 550.656ZM1403.19 553.609C1403.19 570.765 1406.7 584.265 1413.73 594.109C1420.77 603.859 1430.61 608.734 1443.27 608.734C1459.67 608.734 1471.72 601.281 1479.41 586.375V516.906C1471.44 502.375 1459.48 495.109 1443.55 495.109C1430.89 495.109 1421 500.031 1413.88 509.875C1406.75 519.718 1403.19 534.296 1403.19 553.609ZM1608.08 630.812C1587.45 630.812 1570.67 624.062 1557.73 610.562C1544.8 596.968 1538.33 578.828 1538.33 556.14V551.359C1538.33 536.265 1541.19 522.812 1546.91 511C1552.72 499.093 1560.78 489.812 1571.09 483.156C1581.5 476.406 1592.75 473.031 1604.84 473.031C1624.62 473.031 1640 479.546 1650.97 492.578C1661.94 505.609 1667.42 524.265 1667.42 548.546V559.375H1564.34C1564.72 574.375 1569.08 586.515 1577.42 595.796C1585.86 604.984 1596.55 609.578 1609.48 609.578C1618.67 609.578 1626.45 607.703 1632.83 603.953C1639.2 600.203 1644.78 595.234 1649.56 589.046L1665.45 601.421C1652.7 621.015 1633.58 630.812 1608.08 630.812ZM1604.84 494.406C1594.34 494.406 1585.53 498.25 1578.41 505.937C1571.28 513.531 1566.88 524.218 1565.19 538H1641.41V536.031C1640.66 522.812 1637.09 512.593 1630.72 505.375C1624.34 498.062 1615.72 494.406 1604.84 494.406Z" fill="#DCDCDC"/>
<path d="M535.672 499.187C531.734 498.531 527.469 498.203 522.875 498.203C505.812 498.203 494.234 505.468 488.141 520V628H462.125V475.843H487.438L487.859 493.421C496.391 479.828 508.484 473.031 524.141 473.031C529.203 473.031 533.047 473.687 535.672 475V499.187ZM574.766 628V495.953H550.719V475.843H574.766V460.234C574.766 443.921 579.125 431.312 587.844 422.406C596.562 413.5 608.891 409.046 624.828 409.046C630.828 409.046 636.781 409.843 642.688 411.437L641.281 432.531C636.875 431.687 632.188 431.265 627.219 431.265C618.781 431.265 612.266 433.75 607.672 438.718C603.078 443.593 600.781 450.625 600.781 459.812V475.843H633.266V495.953H600.781V628H574.766Z" fill="#BB0000"/>
<path d="M147.3 655.6L133.876 627.85H160.723L147.3 655.6Z" fill="#DCDCDC"/>
<path d="M148 123C134.193 123 123 134.193 123 148V373C123 386.807 134.193 398 148 398C161.807 398 173 386.807 173 373L173 173L373 173C386.807 173 398 161.807 398 148C398 134.193 386.807 123 373 123H148ZM716.678 681.322L165.678 130.322L130.322 165.678L681.322 716.678L716.678 681.322Z" fill="black"/>
</svg>
