<svg width="377" height="814" viewBox="0 0 377 814" fill="none" xmlns="http://www.w3.org/2000/svg">
<g clip-path="url(#clip0_7_694)">
<rect x="1" y="1" width="375" height="812" fill="white"/>
<rect opacity="0.5" x="1" y="45" width="375" height="768" fill="black"/>
<path d="M39.7539 194.938V212H36.8359V194.938H39.7539ZM45.1094 194.938V197.281H31.5273V194.938H45.1094ZM49.0703 201.734V212H46.2461V199.32H48.9414L49.0703 201.734ZM52.9492 199.238L52.9258 201.863C52.7539 201.832 52.5664 201.809 52.3633 201.793C52.168 201.777 51.9727 201.77 51.7773 201.77C51.293 201.77 50.8672 201.84 50.5 201.98C50.1328 202.113 49.8242 202.309 49.5742 202.566C49.332 202.816 49.1445 203.121 49.0117 203.48C48.8789 203.84 48.8008 204.242 48.7773 204.688L48.1328 204.734C48.1328 203.938 48.2109 203.199 48.3672 202.52C48.5234 201.84 48.7578 201.242 49.0703 200.727C49.3906 200.211 49.7891 199.809 50.2656 199.52C50.75 199.23 51.3086 199.086 51.9414 199.086C52.1133 199.086 52.2969 199.102 52.4922 199.133C52.6953 199.164 52.8477 199.199 52.9492 199.238ZM60.0742 212.234C59.1367 212.234 58.2891 212.082 57.5312 211.777C56.7812 211.465 56.1406 211.031 55.6094 210.477C55.0859 209.922 54.6836 209.27 54.4023 208.52C54.1211 207.77 53.9805 206.961 53.9805 206.094V205.625C53.9805 204.633 54.125 203.734 54.4141 202.93C54.7031 202.125 55.1055 201.438 55.6211 200.867C56.1367 200.289 56.7461 199.848 57.4492 199.543C58.1523 199.238 58.9141 199.086 59.7344 199.086C60.6406 199.086 61.4336 199.238 62.1133 199.543C62.793 199.848 63.3555 200.277 63.8008 200.832C64.2539 201.379 64.5898 202.031 64.8086 202.789C65.0352 203.547 65.1484 204.383 65.1484 205.297V206.504H55.3516V204.477H62.3594V204.254C62.3438 203.746 62.2422 203.27 62.0547 202.824C61.875 202.379 61.5977 202.02 61.2227 201.746C60.8477 201.473 60.3477 201.336 59.7227 201.336C59.2539 201.336 58.8359 201.438 58.4688 201.641C58.1094 201.836 57.8086 202.121 57.5664 202.496C57.3242 202.871 57.1367 203.324 57.0039 203.855C56.8789 204.379 56.8164 204.969 56.8164 205.625V206.094C56.8164 206.648 56.8906 207.164 57.0391 207.641C57.1953 208.109 57.4219 208.52 57.7188 208.871C58.0156 209.223 58.375 209.5 58.7969 209.703C59.2188 209.898 59.6992 209.996 60.2383 209.996C60.918 209.996 61.5234 209.859 62.0547 209.586C62.5859 209.312 63.0469 208.926 63.4375 208.426L64.9258 209.867C64.6523 210.266 64.2969 210.648 63.8594 211.016C63.4219 211.375 62.8867 211.668 62.2539 211.895C61.6289 212.121 60.9023 212.234 60.0742 212.234ZM70.1523 202.027V212H67.3281V199.32H69.9883L70.1523 202.027ZM69.6484 205.191L68.7344 205.18C68.7422 204.281 68.8672 203.457 69.1094 202.707C69.3594 201.957 69.7031 201.312 70.1406 200.773C70.5859 200.234 71.1172 199.82 71.7344 199.531C72.3516 199.234 73.0391 199.086 73.7969 199.086C74.4062 199.086 74.957 199.172 75.4492 199.344C75.9492 199.508 76.375 199.777 76.7266 200.152C77.0859 200.527 77.3594 201.016 77.5469 201.617C77.7344 202.211 77.8281 202.941 77.8281 203.809V212H74.9922V203.797C74.9922 203.188 74.9023 202.707 74.7227 202.355C74.5508 201.996 74.2969 201.742 73.9609 201.594C73.6328 201.438 73.2227 201.359 72.7305 201.359C72.2461 201.359 71.8125 201.461 71.4297 201.664C71.0469 201.867 70.7227 202.145 70.457 202.496C70.1992 202.848 70 203.254 69.8594 203.715C69.7188 204.176 69.6484 204.668 69.6484 205.191ZM88.4453 209.375V194H91.2812V212H88.7148L88.4453 209.375ZM80.1953 205.801V205.555C80.1953 204.594 80.3086 203.719 80.5352 202.93C80.7617 202.133 81.0898 201.449 81.5195 200.879C81.9492 200.301 82.4727 199.859 83.0898 199.555C83.707 199.242 84.4023 199.086 85.1758 199.086C85.9414 199.086 86.6133 199.234 87.1914 199.531C87.7695 199.828 88.2617 200.254 88.668 200.809C89.0742 201.355 89.3984 202.012 89.6406 202.777C89.8828 203.535 90.0547 204.379 90.1562 205.309V206.094C90.0547 207 89.8828 207.828 89.6406 208.578C89.3984 209.328 89.0742 209.977 88.668 210.523C88.2617 211.07 87.7656 211.492 87.1797 211.789C86.6016 212.086 85.9258 212.234 85.1523 212.234C84.3867 212.234 83.6953 212.074 83.0781 211.754C82.4688 211.434 81.9492 210.984 81.5195 210.406C81.0898 209.828 80.7617 209.148 80.5352 208.367C80.3086 207.578 80.1953 206.723 80.1953 205.801ZM83.0195 205.555V205.801C83.0195 206.379 83.0703 206.918 83.1719 207.418C83.2812 207.918 83.4492 208.359 83.6758 208.742C83.9023 209.117 84.1953 209.414 84.5547 209.633C84.9219 209.844 85.3594 209.949 85.8672 209.949C86.5078 209.949 87.0352 209.809 87.4492 209.527C87.8633 209.246 88.1875 208.867 88.4219 208.391C88.6641 207.906 88.8281 207.367 88.9141 206.773V204.652C88.8672 204.191 88.7695 203.762 88.6211 203.363C88.4805 202.965 88.2891 202.617 88.0469 202.32C87.8047 202.016 87.5039 201.781 87.1445 201.617C86.793 201.445 86.375 201.359 85.8906 201.359C85.375 201.359 84.9375 201.469 84.5781 201.688C84.2188 201.906 83.9219 202.207 83.6875 202.59C83.4609 202.973 83.293 203.418 83.1836 203.926C83.0742 204.434 83.0195 204.977 83.0195 205.555ZM97.2578 199.32V212H94.4219V199.32H97.2578ZM94.2344 195.992C94.2344 195.562 94.375 195.207 94.6562 194.926C94.9453 194.637 95.3438 194.492 95.8516 194.492C96.3516 194.492 96.7461 194.637 97.0352 194.926C97.3242 195.207 97.4688 195.562 97.4688 195.992C97.4688 196.414 97.3242 196.766 97.0352 197.047C96.7461 197.328 96.3516 197.469 95.8516 197.469C95.3438 197.469 94.9453 197.328 94.6562 197.047C94.375 196.766 94.2344 196.414 94.2344 195.992ZM103.152 202.027V212H100.328V199.32H102.988L103.152 202.027ZM102.648 205.191L101.734 205.18C101.742 204.281 101.867 203.457 102.109 202.707C102.359 201.957 102.703 201.312 103.141 200.773C103.586 200.234 104.117 199.82 104.734 199.531C105.352 199.234 106.039 199.086 106.797 199.086C107.406 199.086 107.957 199.172 108.449 199.344C108.949 199.508 109.375 199.777 109.727 200.152C110.086 200.527 110.359 201.016 110.547 201.617C110.734 202.211 110.828 202.941 110.828 203.809V212H107.992V203.797C107.992 203.188 107.902 202.707 107.723 202.355C107.551 201.996 107.297 201.742 106.961 201.594C106.633 201.438 106.223 201.359 105.73 201.359C105.246 201.359 104.812 201.461 104.43 201.664C104.047 201.867 103.723 202.145 103.457 202.496C103.199 202.848 103 203.254 102.859 203.715C102.719 204.176 102.648 204.668 102.648 205.191ZM121.832 199.32H124.398V211.648C124.398 212.789 124.156 213.758 123.672 214.555C123.188 215.352 122.512 215.957 121.645 216.371C120.777 216.793 119.773 217.004 118.633 217.004C118.148 217.004 117.609 216.934 117.016 216.793C116.43 216.652 115.859 216.426 115.305 216.113C114.758 215.809 114.301 215.406 113.934 214.906L115.258 213.242C115.711 213.781 116.211 214.176 116.758 214.426C117.305 214.676 117.879 214.801 118.48 214.801C119.129 214.801 119.68 214.68 120.133 214.438C120.594 214.203 120.949 213.855 121.199 213.395C121.449 212.934 121.574 212.371 121.574 211.707V202.191L121.832 199.32ZM113.219 205.801V205.555C113.219 204.594 113.336 203.719 113.57 202.93C113.805 202.133 114.141 201.449 114.578 200.879C115.016 200.301 115.547 199.859 116.172 199.555C116.797 199.242 117.504 199.086 118.293 199.086C119.113 199.086 119.812 199.234 120.391 199.531C120.977 199.828 121.465 200.254 121.855 200.809C122.246 201.355 122.551 202.012 122.77 202.777C122.996 203.535 123.164 204.379 123.273 205.309V206.094C123.172 207 123 207.828 122.758 208.578C122.516 209.328 122.195 209.977 121.797 210.523C121.398 211.07 120.906 211.492 120.32 211.789C119.742 212.086 119.059 212.234 118.27 212.234C117.496 212.234 116.797 212.074 116.172 211.754C115.555 211.434 115.023 210.984 114.578 210.406C114.141 209.828 113.805 209.148 113.57 208.367C113.336 207.578 113.219 206.723 113.219 205.801ZM116.043 205.555V205.801C116.043 206.379 116.098 206.918 116.207 207.418C116.324 207.918 116.5 208.359 116.734 208.742C116.977 209.117 117.281 209.414 117.648 209.633C118.023 209.844 118.465 209.949 118.973 209.949C119.637 209.949 120.18 209.809 120.602 209.527C121.031 209.246 121.359 208.867 121.586 208.391C121.82 207.906 121.984 207.367 122.078 206.773V204.652C122.031 204.191 121.934 203.762 121.785 203.363C121.645 202.965 121.453 202.617 121.211 202.32C120.969 202.016 120.664 201.781 120.297 201.617C119.93 201.445 119.496 201.359 118.996 201.359C118.488 201.359 118.047 201.469 117.672 201.688C117.297 201.906 116.988 202.207 116.746 202.59C116.512 202.973 116.336 203.418 116.219 203.926C116.102 204.434 116.043 204.977 116.043 205.555ZM142.562 207.605C142.562 207.254 142.508 206.941 142.398 206.668C142.297 206.395 142.113 206.145 141.848 205.918C141.582 205.691 141.207 205.473 140.723 205.262C140.246 205.043 139.637 204.82 138.895 204.594C138.082 204.344 137.332 204.066 136.645 203.762C135.965 203.449 135.371 203.09 134.863 202.684C134.355 202.27 133.961 201.797 133.68 201.266C133.398 200.727 133.258 200.105 133.258 199.402C133.258 198.707 133.402 198.074 133.691 197.504C133.988 196.934 134.406 196.441 134.945 196.027C135.492 195.605 136.137 195.281 136.879 195.055C137.621 194.82 138.441 194.703 139.34 194.703C140.605 194.703 141.695 194.938 142.609 195.406C143.531 195.875 144.238 196.504 144.73 197.293C145.23 198.082 145.48 198.953 145.48 199.906H142.562C142.562 199.344 142.441 198.848 142.199 198.418C141.965 197.98 141.605 197.637 141.121 197.387C140.645 197.137 140.039 197.012 139.305 197.012C138.609 197.012 138.031 197.117 137.57 197.328C137.109 197.539 136.766 197.824 136.539 198.184C136.312 198.543 136.199 198.949 136.199 199.402C136.199 199.723 136.273 200.016 136.422 200.281C136.57 200.539 136.797 200.781 137.102 201.008C137.406 201.227 137.789 201.434 138.25 201.629C138.711 201.824 139.254 202.012 139.879 202.191C140.824 202.473 141.648 202.785 142.352 203.129C143.055 203.465 143.641 203.848 144.109 204.277C144.578 204.707 144.93 205.195 145.164 205.742C145.398 206.281 145.516 206.895 145.516 207.582C145.516 208.301 145.371 208.949 145.082 209.527C144.793 210.098 144.379 210.586 143.84 210.992C143.309 211.391 142.668 211.699 141.918 211.918C141.176 212.129 140.348 212.234 139.434 212.234C138.613 212.234 137.805 212.125 137.008 211.906C136.219 211.688 135.5 211.355 134.852 210.91C134.203 210.457 133.688 209.895 133.305 209.223C132.922 208.543 132.73 207.75 132.73 206.844H135.672C135.672 207.398 135.766 207.871 135.953 208.262C136.148 208.652 136.418 208.973 136.762 209.223C137.105 209.465 137.504 209.645 137.957 209.762C138.418 209.879 138.91 209.938 139.434 209.938C140.121 209.938 140.695 209.84 141.156 209.645C141.625 209.449 141.977 209.176 142.211 208.824C142.445 208.473 142.562 208.066 142.562 207.605ZM153.426 212.234C152.488 212.234 151.641 212.082 150.883 211.777C150.133 211.465 149.492 211.031 148.961 210.477C148.438 209.922 148.035 209.27 147.754 208.52C147.473 207.77 147.332 206.961 147.332 206.094V205.625C147.332 204.633 147.477 203.734 147.766 202.93C148.055 202.125 148.457 201.438 148.973 200.867C149.488 200.289 150.098 199.848 150.801 199.543C151.504 199.238 152.266 199.086 153.086 199.086C153.992 199.086 154.785 199.238 155.465 199.543C156.145 199.848 156.707 200.277 157.152 200.832C157.605 201.379 157.941 202.031 158.16 202.789C158.387 203.547 158.5 204.383 158.5 205.297V206.504H148.703V204.477H155.711V204.254C155.695 203.746 155.594 203.27 155.406 202.824C155.227 202.379 154.949 202.02 154.574 201.746C154.199 201.473 153.699 201.336 153.074 201.336C152.605 201.336 152.188 201.438 151.82 201.641C151.461 201.836 151.16 202.121 150.918 202.496C150.676 202.871 150.488 203.324 150.355 203.855C150.23 204.379 150.168 204.969 150.168 205.625V206.094C150.168 206.648 150.242 207.164 150.391 207.641C150.547 208.109 150.773 208.52 151.07 208.871C151.367 209.223 151.727 209.5 152.148 209.703C152.57 209.898 153.051 209.996 153.59 209.996C154.27 209.996 154.875 209.859 155.406 209.586C155.938 209.312 156.398 208.926 156.789 208.426L158.277 209.867C158.004 210.266 157.648 210.648 157.211 211.016C156.773 211.375 156.238 211.668 155.605 211.895C154.98 212.121 154.254 212.234 153.426 212.234ZM167.852 209.457V203.41C167.852 202.957 167.77 202.566 167.605 202.238C167.441 201.91 167.191 201.656 166.855 201.477C166.527 201.297 166.113 201.207 165.613 201.207C165.152 201.207 164.754 201.285 164.418 201.441C164.082 201.598 163.82 201.809 163.633 202.074C163.445 202.34 163.352 202.641 163.352 202.977H160.539C160.539 202.477 160.66 201.992 160.902 201.523C161.145 201.055 161.496 200.637 161.957 200.27C162.418 199.902 162.969 199.613 163.609 199.402C164.25 199.191 164.969 199.086 165.766 199.086C166.719 199.086 167.562 199.246 168.297 199.566C169.039 199.887 169.621 200.371 170.043 201.02C170.473 201.66 170.688 202.465 170.688 203.434V209.07C170.688 209.648 170.727 210.168 170.805 210.629C170.891 211.082 171.012 211.477 171.168 211.812V212H168.273C168.141 211.695 168.035 211.309 167.957 210.84C167.887 210.363 167.852 209.902 167.852 209.457ZM168.262 204.289L168.285 206.035H166.258C165.734 206.035 165.273 206.086 164.875 206.188C164.477 206.281 164.145 206.422 163.879 206.609C163.613 206.797 163.414 207.023 163.281 207.289C163.148 207.555 163.082 207.855 163.082 208.191C163.082 208.527 163.16 208.836 163.316 209.117C163.473 209.391 163.699 209.605 163.996 209.762C164.301 209.918 164.668 209.996 165.098 209.996C165.676 209.996 166.18 209.879 166.609 209.645C167.047 209.402 167.391 209.109 167.641 208.766C167.891 208.414 168.023 208.082 168.039 207.77L168.953 209.023C168.859 209.344 168.699 209.688 168.473 210.055C168.246 210.422 167.949 210.773 167.582 211.109C167.223 211.438 166.789 211.707 166.281 211.918C165.781 212.129 165.203 212.234 164.547 212.234C163.719 212.234 162.98 212.07 162.332 211.742C161.684 211.406 161.176 210.957 160.809 210.395C160.441 209.824 160.258 209.18 160.258 208.461C160.258 207.789 160.383 207.195 160.633 206.68C160.891 206.156 161.266 205.719 161.758 205.367C162.258 205.016 162.867 204.75 163.586 204.57C164.305 204.383 165.125 204.289 166.047 204.289H168.262ZM176.477 201.734V212H173.652V199.32H176.348L176.477 201.734ZM180.355 199.238L180.332 201.863C180.16 201.832 179.973 201.809 179.77 201.793C179.574 201.777 179.379 201.77 179.184 201.77C178.699 201.77 178.273 201.84 177.906 201.98C177.539 202.113 177.23 202.309 176.98 202.566C176.738 202.816 176.551 203.121 176.418 203.48C176.285 203.84 176.207 204.242 176.184 204.688L175.539 204.734C175.539 203.938 175.617 203.199 175.773 202.52C175.93 201.84 176.164 201.242 176.477 200.727C176.797 200.211 177.195 199.809 177.672 199.52C178.156 199.23 178.715 199.086 179.348 199.086C179.52 199.086 179.703 199.102 179.898 199.133C180.102 199.164 180.254 199.199 180.355 199.238ZM187.07 209.984C187.531 209.984 187.945 209.895 188.312 209.715C188.688 209.527 188.988 209.27 189.215 208.941C189.449 208.613 189.578 208.234 189.602 207.805H192.262C192.246 208.625 192.004 209.371 191.535 210.043C191.066 210.715 190.445 211.25 189.672 211.648C188.898 212.039 188.043 212.234 187.105 212.234C186.137 212.234 185.293 212.07 184.574 211.742C183.855 211.406 183.258 210.945 182.781 210.359C182.305 209.773 181.945 209.098 181.703 208.332C181.469 207.566 181.352 206.746 181.352 205.871V205.461C181.352 204.586 181.469 203.766 181.703 203C181.945 202.227 182.305 201.547 182.781 200.961C183.258 200.375 183.855 199.918 184.574 199.59C185.293 199.254 186.133 199.086 187.094 199.086C188.109 199.086 189 199.289 189.766 199.695C190.531 200.094 191.133 200.652 191.57 201.371C192.016 202.082 192.246 202.91 192.262 203.855H189.602C189.578 203.387 189.461 202.965 189.25 202.59C189.047 202.207 188.758 201.902 188.383 201.676C188.016 201.449 187.574 201.336 187.059 201.336C186.488 201.336 186.016 201.453 185.641 201.688C185.266 201.914 184.973 202.227 184.762 202.625C184.551 203.016 184.398 203.457 184.305 203.949C184.219 204.434 184.176 204.938 184.176 205.461V205.871C184.176 206.395 184.219 206.902 184.305 207.395C184.391 207.887 184.539 208.328 184.75 208.719C184.969 209.102 185.266 209.41 185.641 209.645C186.016 209.871 186.492 209.984 187.07 209.984ZM197.219 194V212H194.406V194H197.219ZM196.727 205.191L195.812 205.18C195.82 204.305 195.941 203.496 196.176 202.754C196.418 202.012 196.754 201.367 197.184 200.82C197.621 200.266 198.145 199.84 198.754 199.543C199.363 199.238 200.039 199.086 200.781 199.086C201.406 199.086 201.969 199.172 202.469 199.344C202.977 199.516 203.414 199.793 203.781 200.176C204.148 200.551 204.426 201.043 204.613 201.652C204.809 202.254 204.906 202.988 204.906 203.855V212H202.07V203.832C202.07 203.223 201.98 202.738 201.801 202.379C201.629 202.02 201.375 201.762 201.039 201.605C200.703 201.441 200.293 201.359 199.809 201.359C199.301 201.359 198.852 201.461 198.461 201.664C198.078 201.867 197.758 202.145 197.5 202.496C197.242 202.848 197.047 203.254 196.914 203.715C196.789 204.176 196.727 204.668 196.727 205.191ZM213.355 212.234C212.418 212.234 211.57 212.082 210.812 211.777C210.062 211.465 209.422 211.031 208.891 210.477C208.367 209.922 207.965 209.27 207.684 208.52C207.402 207.77 207.262 206.961 207.262 206.094V205.625C207.262 204.633 207.406 203.734 207.695 202.93C207.984 202.125 208.387 201.438 208.902 200.867C209.418 200.289 210.027 199.848 210.73 199.543C211.434 199.238 212.195 199.086 213.016 199.086C213.922 199.086 214.715 199.238 215.395 199.543C216.074 199.848 216.637 200.277 217.082 200.832C217.535 201.379 217.871 202.031 218.09 202.789C218.316 203.547 218.43 204.383 218.43 205.297V206.504H208.633V204.477H215.641V204.254C215.625 203.746 215.523 203.27 215.336 202.824C215.156 202.379 214.879 202.02 214.504 201.746C214.129 201.473 213.629 201.336 213.004 201.336C212.535 201.336 212.117 201.438 211.75 201.641C211.391 201.836 211.09 202.121 210.848 202.496C210.605 202.871 210.418 203.324 210.285 203.855C210.16 204.379 210.098 204.969 210.098 205.625V206.094C210.098 206.648 210.172 207.164 210.32 207.641C210.477 208.109 210.703 208.52 211 208.871C211.297 209.223 211.656 209.5 212.078 209.703C212.5 209.898 212.98 209.996 213.52 209.996C214.199 209.996 214.805 209.859 215.336 209.586C215.867 209.312 216.328 208.926 216.719 208.426L218.207 209.867C217.934 210.266 217.578 210.648 217.141 211.016C216.703 211.375 216.168 211.668 215.535 211.895C214.91 212.121 214.184 212.234 213.355 212.234ZM227.746 208.566C227.746 208.285 227.676 208.031 227.535 207.805C227.395 207.57 227.125 207.359 226.727 207.172C226.336 206.984 225.758 206.812 224.992 206.656C224.32 206.508 223.703 206.332 223.141 206.129C222.586 205.918 222.109 205.664 221.711 205.367C221.312 205.07 221.004 204.719 220.785 204.312C220.566 203.906 220.457 203.438 220.457 202.906C220.457 202.391 220.57 201.902 220.797 201.441C221.023 200.98 221.348 200.574 221.77 200.223C222.191 199.871 222.703 199.594 223.305 199.391C223.914 199.188 224.594 199.086 225.344 199.086C226.406 199.086 227.316 199.266 228.074 199.625C228.84 199.977 229.426 200.457 229.832 201.066C230.238 201.668 230.441 202.348 230.441 203.105H227.617C227.617 202.77 227.531 202.457 227.359 202.168C227.195 201.871 226.945 201.633 226.609 201.453C226.273 201.266 225.852 201.172 225.344 201.172C224.859 201.172 224.457 201.25 224.137 201.406C223.824 201.555 223.59 201.75 223.434 201.992C223.285 202.234 223.211 202.5 223.211 202.789C223.211 203 223.25 203.191 223.328 203.363C223.414 203.527 223.555 203.68 223.75 203.82C223.945 203.953 224.211 204.078 224.547 204.195C224.891 204.312 225.32 204.426 225.836 204.535C226.805 204.738 227.637 205 228.332 205.32C229.035 205.633 229.574 206.039 229.949 206.539C230.324 207.031 230.512 207.656 230.512 208.414C230.512 208.977 230.391 209.492 230.148 209.961C229.914 210.422 229.57 210.824 229.117 211.168C228.664 211.504 228.121 211.766 227.488 211.953C226.863 212.141 226.16 212.234 225.379 212.234C224.23 212.234 223.258 212.031 222.461 211.625C221.664 211.211 221.059 210.684 220.645 210.043C220.238 209.395 220.035 208.723 220.035 208.027H222.766C222.797 208.551 222.941 208.969 223.199 209.281C223.465 209.586 223.793 209.809 224.184 209.949C224.582 210.082 224.992 210.148 225.414 210.148C225.922 210.148 226.348 210.082 226.691 209.949C227.035 209.809 227.297 209.621 227.477 209.387C227.656 209.145 227.746 208.871 227.746 208.566Z" fill="black"/>
<rect x="31" y="117" width="242" height="50" fill="#C4C4C4"/>
<path d="M56.3057 144.766C56.3057 144.467 56.2588 144.203 56.165 143.975C56.0771 143.74 55.9189 143.529 55.6904 143.342C55.4678 143.154 55.1572 142.976 54.7588 142.806C54.3662 142.636 53.8682 142.463 53.2646 142.287C52.6318 142.1 52.0605 141.892 51.5508 141.663C51.041 141.429 50.6045 141.162 50.2412 140.863C49.8779 140.564 49.5996 140.222 49.4062 139.835C49.2129 139.448 49.1162 139.006 49.1162 138.508C49.1162 138.01 49.2188 137.55 49.4238 137.128C49.6289 136.706 49.9219 136.34 50.3027 136.029C50.6895 135.713 51.1494 135.467 51.6826 135.291C52.2158 135.115 52.8105 135.027 53.4668 135.027C54.4277 135.027 55.2422 135.212 55.9102 135.581C56.584 135.944 57.0967 136.422 57.4482 137.014C57.7998 137.6 57.9756 138.227 57.9756 138.895H56.2881C56.2881 138.414 56.1855 137.989 55.9805 137.62C55.7754 137.245 55.4648 136.952 55.0488 136.741C54.6328 136.524 54.1055 136.416 53.4668 136.416C52.8633 136.416 52.3652 136.507 51.9727 136.688C51.5801 136.87 51.2871 137.116 51.0938 137.427C50.9062 137.737 50.8125 138.092 50.8125 138.49C50.8125 138.76 50.8682 139.006 50.9795 139.229C51.0967 139.445 51.2754 139.647 51.5156 139.835C51.7617 140.022 52.0723 140.195 52.4473 140.354C52.8281 140.512 53.2822 140.664 53.8096 140.811C54.5361 141.016 55.1631 141.244 55.6904 141.496C56.2178 141.748 56.6514 142.032 56.9912 142.349C57.3369 142.659 57.5918 143.014 57.7559 143.412C57.9258 143.805 58.0107 144.25 58.0107 144.748C58.0107 145.27 57.9053 145.741 57.6943 146.163C57.4834 146.585 57.1816 146.945 56.7891 147.244C56.3965 147.543 55.9248 147.774 55.374 147.938C54.8291 148.097 54.2197 148.176 53.5459 148.176C52.9541 148.176 52.3711 148.094 51.7969 147.93C51.2285 147.766 50.71 147.52 50.2412 147.191C49.7783 146.863 49.4062 146.459 49.125 145.979C48.8496 145.492 48.7119 144.93 48.7119 144.291H50.3994C50.3994 144.73 50.4844 145.108 50.6543 145.425C50.8242 145.735 51.0557 145.993 51.3486 146.198C51.6475 146.403 51.9844 146.556 52.3594 146.655C52.7402 146.749 53.1357 146.796 53.5459 146.796C54.1377 146.796 54.6387 146.714 55.0488 146.55C55.459 146.386 55.7695 146.151 55.9805 145.847C56.1973 145.542 56.3057 145.182 56.3057 144.766ZM63.873 148.176C63.2109 148.176 62.6104 148.064 62.0713 147.842C61.5381 147.613 61.0781 147.294 60.6914 146.884C60.3105 146.474 60.0176 145.987 59.8125 145.425C59.6074 144.862 59.5049 144.247 59.5049 143.579V143.21C59.5049 142.437 59.6191 141.748 59.8477 141.145C60.0762 140.535 60.3867 140.02 60.7793 139.598C61.1719 139.176 61.6172 138.856 62.1152 138.64C62.6133 138.423 63.1289 138.314 63.6621 138.314C64.3418 138.314 64.9277 138.432 65.4199 138.666C65.918 138.9 66.3252 139.229 66.6416 139.65C66.958 140.066 67.1924 140.559 67.3447 141.127C67.4971 141.689 67.5732 142.305 67.5732 142.973V143.702H60.4717V142.375H65.9473V142.252C65.9238 141.83 65.8359 141.42 65.6836 141.021C65.5371 140.623 65.3027 140.295 64.9805 140.037C64.6582 139.779 64.2188 139.65 63.6621 139.65C63.293 139.65 62.9531 139.729 62.6426 139.888C62.332 140.04 62.0654 140.269 61.8428 140.573C61.6201 140.878 61.4473 141.25 61.3242 141.689C61.2012 142.129 61.1396 142.636 61.1396 143.21V143.579C61.1396 144.03 61.2012 144.455 61.3242 144.854C61.4531 145.246 61.6377 145.592 61.8779 145.891C62.124 146.189 62.4199 146.424 62.7656 146.594C63.1172 146.764 63.5156 146.849 63.9609 146.849C64.5352 146.849 65.0215 146.731 65.4199 146.497C65.8184 146.263 66.167 145.949 66.4658 145.557L67.4502 146.339C67.2451 146.649 66.9844 146.945 66.668 147.227C66.3516 147.508 65.9619 147.736 65.499 147.912C65.042 148.088 64.5 148.176 63.873 148.176ZM75.0791 146.374V141.479C75.0791 141.104 75.0029 140.778 74.8506 140.503C74.7041 140.222 74.4814 140.005 74.1826 139.853C73.8838 139.7 73.5146 139.624 73.0752 139.624C72.665 139.624 72.3047 139.694 71.9941 139.835C71.6895 139.976 71.4492 140.16 71.2734 140.389C71.1035 140.617 71.0186 140.863 71.0186 141.127H69.3926C69.3926 140.787 69.4805 140.45 69.6562 140.116C69.832 139.782 70.084 139.48 70.4121 139.211C70.7461 138.936 71.1445 138.719 71.6074 138.561C72.0762 138.396 72.5977 138.314 73.1719 138.314C73.8633 138.314 74.4727 138.432 75 138.666C75.5332 138.9 75.9492 139.255 76.248 139.729C76.5527 140.198 76.7051 140.787 76.7051 141.496V145.926C76.7051 146.242 76.7314 146.579 76.7842 146.937C76.8428 147.294 76.9277 147.602 77.0391 147.859V148H75.3428C75.2607 147.812 75.1963 147.563 75.1494 147.253C75.1025 146.937 75.0791 146.644 75.0791 146.374ZM75.3604 142.234L75.3779 143.377H73.7344C73.2715 143.377 72.8584 143.415 72.4951 143.491C72.1318 143.562 71.8271 143.67 71.5811 143.816C71.335 143.963 71.1475 144.147 71.0186 144.37C70.8896 144.587 70.8252 144.842 70.8252 145.135C70.8252 145.434 70.8926 145.706 71.0273 145.952C71.1621 146.198 71.3643 146.395 71.6338 146.541C71.9092 146.682 72.2461 146.752 72.6445 146.752C73.1426 146.752 73.582 146.646 73.9629 146.436C74.3438 146.225 74.6455 145.967 74.8682 145.662C75.0967 145.357 75.2197 145.062 75.2373 144.774L75.9316 145.557C75.8906 145.803 75.7793 146.075 75.5977 146.374C75.416 146.673 75.1729 146.96 74.8682 147.235C74.5693 147.505 74.2119 147.73 73.7959 147.912C73.3857 148.088 72.9229 148.176 72.4072 148.176C71.7627 148.176 71.1973 148.05 70.7109 147.798C70.2305 147.546 69.8555 147.209 69.5859 146.787C69.3223 146.359 69.1904 145.882 69.1904 145.354C69.1904 144.845 69.29 144.396 69.4893 144.01C69.6885 143.617 69.9756 143.292 70.3506 143.034C70.7256 142.771 71.1768 142.571 71.7041 142.437C72.2314 142.302 72.8203 142.234 73.4707 142.234H75.3604ZM80.8887 139.984V148H79.2627V138.49H80.8447L80.8887 139.984ZM83.8594 138.438L83.8506 139.949C83.7158 139.92 83.5869 139.902 83.4639 139.896C83.3467 139.885 83.2119 139.879 83.0596 139.879C82.6846 139.879 82.3535 139.938 82.0664 140.055C81.7793 140.172 81.5361 140.336 81.3369 140.547C81.1377 140.758 80.9795 141.01 80.8623 141.303C80.751 141.59 80.6777 141.906 80.6426 142.252L80.1855 142.516C80.1855 141.941 80.2412 141.402 80.3525 140.898C80.4697 140.395 80.6484 139.949 80.8887 139.562C81.1289 139.17 81.4336 138.865 81.8027 138.648C82.1777 138.426 82.623 138.314 83.1387 138.314C83.2559 138.314 83.3906 138.329 83.543 138.358C83.6953 138.382 83.8008 138.408 83.8594 138.438ZM88.9922 146.84C89.3789 146.84 89.7363 146.761 90.0645 146.603C90.3926 146.444 90.6621 146.228 90.873 145.952C91.084 145.671 91.2041 145.352 91.2334 144.994H92.7803C92.751 145.557 92.5605 146.081 92.209 146.567C91.8633 147.048 91.4092 147.438 90.8467 147.736C90.2842 148.029 89.666 148.176 88.9922 148.176C88.2773 148.176 87.6533 148.05 87.1201 147.798C86.5928 147.546 86.1533 147.2 85.8018 146.761C85.4561 146.321 85.1953 145.817 85.0195 145.249C84.8496 144.675 84.7646 144.068 84.7646 143.43V143.061C84.7646 142.422 84.8496 141.818 85.0195 141.25C85.1953 140.676 85.4561 140.169 85.8018 139.729C86.1533 139.29 86.5928 138.944 87.1201 138.692C87.6533 138.44 88.2773 138.314 88.9922 138.314C89.7363 138.314 90.3867 138.467 90.9434 138.771C91.5 139.07 91.9365 139.48 92.2529 140.002C92.5752 140.518 92.751 141.104 92.7803 141.76H91.2334C91.2041 141.367 91.0928 141.013 90.8994 140.696C90.7119 140.38 90.4541 140.128 90.126 139.94C89.8037 139.747 89.4258 139.65 88.9922 139.65C88.4941 139.65 88.0752 139.75 87.7354 139.949C87.4014 140.143 87.1348 140.406 86.9355 140.74C86.7422 141.068 86.6016 141.435 86.5137 141.839C86.4316 142.237 86.3906 142.645 86.3906 143.061V143.43C86.3906 143.846 86.4316 144.256 86.5137 144.66C86.5957 145.064 86.7334 145.431 86.9268 145.759C87.126 146.087 87.3926 146.351 87.7266 146.55C88.0664 146.743 88.4883 146.84 88.9922 146.84ZM96.2344 134.5V148H94.6084V134.5H96.2344ZM95.8477 142.885L95.1709 142.858C95.1768 142.208 95.2734 141.607 95.4609 141.057C95.6484 140.5 95.9121 140.017 96.252 139.606C96.5918 139.196 96.9961 138.88 97.4648 138.657C97.9395 138.429 98.4639 138.314 99.0381 138.314C99.5068 138.314 99.9287 138.379 100.304 138.508C100.679 138.631 100.998 138.83 101.262 139.105C101.531 139.381 101.736 139.738 101.877 140.178C102.018 140.611 102.088 141.142 102.088 141.769V148H100.453V141.751C100.453 141.253 100.38 140.854 100.233 140.556C100.087 140.251 99.873 140.031 99.5918 139.896C99.3105 139.756 98.9648 139.686 98.5547 139.686C98.1504 139.686 97.7812 139.771 97.4473 139.94C97.1191 140.11 96.835 140.345 96.5947 140.644C96.3604 140.942 96.1758 141.285 96.041 141.672C95.9121 142.053 95.8477 142.457 95.8477 142.885Z" fill="black"/>
<path d="M298.211 143.931H299.898C299.811 144.739 299.579 145.463 299.204 146.102C298.829 146.74 298.299 147.247 297.613 147.622C296.928 147.991 296.072 148.176 295.047 148.176C294.297 148.176 293.614 148.035 292.999 147.754C292.39 147.473 291.865 147.074 291.426 146.559C290.986 146.037 290.646 145.413 290.406 144.687C290.172 143.954 290.055 143.14 290.055 142.243V140.969C290.055 140.072 290.172 139.261 290.406 138.534C290.646 137.802 290.989 137.175 291.435 136.653C291.886 136.132 292.428 135.73 293.061 135.449C293.693 135.168 294.405 135.027 295.196 135.027C296.163 135.027 296.98 135.209 297.648 135.572C298.316 135.936 298.835 136.439 299.204 137.084C299.579 137.723 299.811 138.464 299.898 139.308H298.211C298.129 138.71 297.977 138.197 297.754 137.77C297.531 137.336 297.215 137.002 296.805 136.768C296.395 136.533 295.858 136.416 295.196 136.416C294.628 136.416 294.127 136.524 293.693 136.741C293.266 136.958 292.905 137.266 292.612 137.664C292.325 138.062 292.108 138.54 291.962 139.097C291.815 139.653 291.742 140.271 291.742 140.951V142.243C291.742 142.87 291.807 143.459 291.936 144.01C292.07 144.561 292.272 145.044 292.542 145.46C292.812 145.876 293.154 146.204 293.57 146.444C293.986 146.679 294.479 146.796 295.047 146.796C295.768 146.796 296.342 146.682 296.77 146.453C297.197 146.225 297.52 145.896 297.736 145.469C297.959 145.041 298.117 144.528 298.211 143.931ZM307.571 146.374V141.479C307.571 141.104 307.495 140.778 307.343 140.503C307.196 140.222 306.974 140.005 306.675 139.853C306.376 139.7 306.007 139.624 305.567 139.624C305.157 139.624 304.797 139.694 304.486 139.835C304.182 139.976 303.941 140.16 303.766 140.389C303.596 140.617 303.511 140.863 303.511 141.127H301.885C301.885 140.787 301.973 140.45 302.148 140.116C302.324 139.782 302.576 139.48 302.904 139.211C303.238 138.936 303.637 138.719 304.1 138.561C304.568 138.396 305.09 138.314 305.664 138.314C306.355 138.314 306.965 138.432 307.492 138.666C308.025 138.9 308.441 139.255 308.74 139.729C309.045 140.198 309.197 140.787 309.197 141.496V145.926C309.197 146.242 309.224 146.579 309.276 146.937C309.335 147.294 309.42 147.602 309.531 147.859V148H307.835C307.753 147.812 307.688 147.563 307.642 147.253C307.595 146.937 307.571 146.644 307.571 146.374ZM307.853 142.234L307.87 143.377H306.227C305.764 143.377 305.351 143.415 304.987 143.491C304.624 143.562 304.319 143.67 304.073 143.816C303.827 143.963 303.64 144.147 303.511 144.37C303.382 144.587 303.317 144.842 303.317 145.135C303.317 145.434 303.385 145.706 303.52 145.952C303.654 146.198 303.856 146.395 304.126 146.541C304.401 146.682 304.738 146.752 305.137 146.752C305.635 146.752 306.074 146.646 306.455 146.436C306.836 146.225 307.138 145.967 307.36 145.662C307.589 145.357 307.712 145.062 307.729 144.774L308.424 145.557C308.383 145.803 308.271 146.075 308.09 146.374C307.908 146.673 307.665 146.96 307.36 147.235C307.062 147.505 306.704 147.73 306.288 147.912C305.878 148.088 305.415 148.176 304.899 148.176C304.255 148.176 303.689 148.05 303.203 147.798C302.723 147.546 302.348 147.209 302.078 146.787C301.814 146.359 301.683 145.882 301.683 145.354C301.683 144.845 301.782 144.396 301.981 144.01C302.181 143.617 302.468 143.292 302.843 143.034C303.218 142.771 303.669 142.571 304.196 142.437C304.724 142.302 305.312 142.234 305.963 142.234H307.853ZM313.381 140.521V148H311.755V138.49H313.293L313.381 140.521ZM312.994 142.885L312.317 142.858C312.323 142.208 312.42 141.607 312.607 141.057C312.795 140.5 313.059 140.017 313.398 139.606C313.738 139.196 314.143 138.88 314.611 138.657C315.086 138.429 315.61 138.314 316.185 138.314C316.653 138.314 317.075 138.379 317.45 138.508C317.825 138.631 318.145 138.83 318.408 139.105C318.678 139.381 318.883 139.738 319.023 140.178C319.164 140.611 319.234 141.142 319.234 141.769V148H317.6V141.751C317.6 141.253 317.526 140.854 317.38 140.556C317.233 140.251 317.02 140.031 316.738 139.896C316.457 139.756 316.111 139.686 315.701 139.686C315.297 139.686 314.928 139.771 314.594 139.94C314.266 140.11 313.981 140.345 313.741 140.644C313.507 140.942 313.322 141.285 313.188 141.672C313.059 142.053 312.994 142.457 312.994 142.885ZM325.51 146.84C325.896 146.84 326.254 146.761 326.582 146.603C326.91 146.444 327.18 146.228 327.391 145.952C327.602 145.671 327.722 145.352 327.751 144.994H329.298C329.269 145.557 329.078 146.081 328.727 146.567C328.381 147.048 327.927 147.438 327.364 147.736C326.802 148.029 326.184 148.176 325.51 148.176C324.795 148.176 324.171 148.05 323.638 147.798C323.11 147.546 322.671 147.2 322.319 146.761C321.974 146.321 321.713 145.817 321.537 145.249C321.367 144.675 321.282 144.068 321.282 143.43V143.061C321.282 142.422 321.367 141.818 321.537 141.25C321.713 140.676 321.974 140.169 322.319 139.729C322.671 139.29 323.11 138.944 323.638 138.692C324.171 138.44 324.795 138.314 325.51 138.314C326.254 138.314 326.904 138.467 327.461 138.771C328.018 139.07 328.454 139.48 328.771 140.002C329.093 140.518 329.269 141.104 329.298 141.76H327.751C327.722 141.367 327.61 141.013 327.417 140.696C327.229 140.38 326.972 140.128 326.644 139.94C326.321 139.747 325.943 139.65 325.51 139.65C325.012 139.65 324.593 139.75 324.253 139.949C323.919 140.143 323.652 140.406 323.453 140.74C323.26 141.068 323.119 141.435 323.031 141.839C322.949 142.237 322.908 142.645 322.908 143.061V143.43C322.908 143.846 322.949 144.256 323.031 144.66C323.113 145.064 323.251 145.431 323.444 145.759C323.644 146.087 323.91 146.351 324.244 146.55C324.584 146.743 325.006 146.84 325.51 146.84ZM335.072 148.176C334.41 148.176 333.81 148.064 333.271 147.842C332.737 147.613 332.277 147.294 331.891 146.884C331.51 146.474 331.217 145.987 331.012 145.425C330.807 144.862 330.704 144.247 330.704 143.579V143.21C330.704 142.437 330.818 141.748 331.047 141.145C331.275 140.535 331.586 140.02 331.979 139.598C332.371 139.176 332.816 138.856 333.314 138.64C333.812 138.423 334.328 138.314 334.861 138.314C335.541 138.314 336.127 138.432 336.619 138.666C337.117 138.9 337.524 139.229 337.841 139.65C338.157 140.066 338.392 140.559 338.544 141.127C338.696 141.689 338.772 142.305 338.772 142.973V143.702H331.671V142.375H337.146V142.252C337.123 141.83 337.035 141.42 336.883 141.021C336.736 140.623 336.502 140.295 336.18 140.037C335.857 139.779 335.418 139.65 334.861 139.65C334.492 139.65 334.152 139.729 333.842 139.888C333.531 140.04 333.265 140.269 333.042 140.573C332.819 140.878 332.646 141.25 332.523 141.689C332.4 142.129 332.339 142.636 332.339 143.21V143.579C332.339 144.03 332.4 144.455 332.523 144.854C332.652 145.246 332.837 145.592 333.077 145.891C333.323 146.189 333.619 146.424 333.965 146.594C334.316 146.764 334.715 146.849 335.16 146.849C335.734 146.849 336.221 146.731 336.619 146.497C337.018 146.263 337.366 145.949 337.665 145.557L338.649 146.339C338.444 146.649 338.184 146.945 337.867 147.227C337.551 147.508 337.161 147.736 336.698 147.912C336.241 148.088 335.699 148.176 335.072 148.176ZM342.438 134.5V148H340.803V134.5H342.438Z" fill="black"/>
<rect x="31" y="231" width="320" height="70" fill="#C4C4C4"/>
<rect x="43" y="241" width="90" height="50" fill="#7B7B7B"/>
<path d="M158.047 266.015H154.804L154.786 264.652H157.73C158.217 264.652 158.642 264.57 159.005 264.406C159.368 264.242 159.649 264.008 159.849 263.703C160.054 263.393 160.156 263.023 160.156 262.596C160.156 262.127 160.065 261.746 159.884 261.453C159.708 261.154 159.436 260.938 159.066 260.803C158.703 260.662 158.24 260.592 157.678 260.592H155.182V272H153.485V259.203H157.678C158.334 259.203 158.92 259.271 159.436 259.405C159.951 259.534 160.388 259.739 160.745 260.021C161.108 260.296 161.384 260.647 161.571 261.075C161.759 261.503 161.853 262.016 161.853 262.613C161.853 263.141 161.718 263.618 161.448 264.046C161.179 264.468 160.804 264.813 160.323 265.083C159.849 265.353 159.292 265.525 158.653 265.602L158.047 266.015ZM157.968 272H154.136L155.094 270.62H157.968C158.507 270.62 158.964 270.526 159.339 270.339C159.72 270.151 160.01 269.888 160.209 269.548C160.408 269.202 160.508 268.795 160.508 268.326C160.508 267.852 160.423 267.441 160.253 267.096C160.083 266.75 159.816 266.483 159.453 266.296C159.09 266.108 158.621 266.015 158.047 266.015H155.63L155.647 264.652H158.952L159.312 265.145C159.928 265.197 160.449 265.373 160.877 265.672C161.305 265.965 161.63 266.34 161.853 266.797C162.081 267.254 162.195 267.758 162.195 268.309C162.195 269.105 162.02 269.779 161.668 270.33C161.322 270.875 160.833 271.291 160.2 271.578C159.567 271.859 158.823 272 157.968 272ZM166.08 263.984V272H164.454V262.49H166.036L166.08 263.984ZM169.051 262.438L169.042 263.949C168.907 263.92 168.778 263.902 168.655 263.896C168.538 263.885 168.403 263.879 168.251 263.879C167.876 263.879 167.545 263.938 167.258 264.055C166.971 264.172 166.728 264.336 166.528 264.547C166.329 264.758 166.171 265.01 166.054 265.303C165.942 265.59 165.869 265.906 165.834 266.252L165.377 266.516C165.377 265.941 165.433 265.402 165.544 264.898C165.661 264.395 165.84 263.949 166.08 263.562C166.32 263.17 166.625 262.865 166.994 262.648C167.369 262.426 167.814 262.314 168.33 262.314C168.447 262.314 168.582 262.329 168.734 262.358C168.887 262.382 168.992 262.408 169.051 262.438ZM172.32 262.49V272H170.686V262.49H172.32ZM170.562 259.968C170.562 259.704 170.642 259.481 170.8 259.3C170.964 259.118 171.204 259.027 171.521 259.027C171.831 259.027 172.068 259.118 172.232 259.3C172.402 259.481 172.487 259.704 172.487 259.968C172.487 260.22 172.402 260.437 172.232 260.618C172.068 260.794 171.831 260.882 171.521 260.882C171.204 260.882 170.964 260.794 170.8 260.618C170.642 260.437 170.562 260.22 170.562 259.968ZM180.925 270.154V258.5H182.56V272H181.065L180.925 270.154ZM174.526 267.351V267.166C174.526 266.439 174.614 265.78 174.79 265.188C174.972 264.591 175.227 264.078 175.555 263.65C175.889 263.223 176.284 262.895 176.741 262.666C177.204 262.432 177.72 262.314 178.288 262.314C178.886 262.314 179.407 262.42 179.853 262.631C180.304 262.836 180.685 263.138 180.995 263.536C181.312 263.929 181.561 264.403 181.742 264.96C181.924 265.517 182.05 266.146 182.12 266.85V267.658C182.056 268.355 181.93 268.982 181.742 269.539C181.561 270.096 181.312 270.57 180.995 270.963C180.685 271.355 180.304 271.657 179.853 271.868C179.401 272.073 178.874 272.176 178.271 272.176C177.714 272.176 177.204 272.056 176.741 271.815C176.284 271.575 175.889 271.238 175.555 270.805C175.227 270.371 174.972 269.861 174.79 269.275C174.614 268.684 174.526 268.042 174.526 267.351ZM176.161 267.166V267.351C176.161 267.825 176.208 268.271 176.302 268.687C176.401 269.103 176.554 269.469 176.759 269.785C176.964 270.102 177.225 270.351 177.541 270.532C177.857 270.708 178.235 270.796 178.675 270.796C179.214 270.796 179.656 270.682 180.002 270.453C180.354 270.225 180.635 269.923 180.846 269.548C181.057 269.173 181.221 268.766 181.338 268.326V266.208C181.268 265.886 181.165 265.575 181.03 265.276C180.901 264.972 180.731 264.702 180.521 264.468C180.315 264.228 180.061 264.037 179.756 263.896C179.457 263.756 179.103 263.686 178.692 263.686C178.247 263.686 177.863 263.779 177.541 263.967C177.225 264.148 176.964 264.4 176.759 264.723C176.554 265.039 176.401 265.408 176.302 265.83C176.208 266.246 176.161 266.691 176.161 267.166ZM191.252 262.49H192.729V271.798C192.729 272.636 192.559 273.351 192.219 273.942C191.879 274.534 191.404 274.982 190.795 275.287C190.191 275.598 189.494 275.753 188.703 275.753C188.375 275.753 187.988 275.7 187.543 275.595C187.104 275.495 186.67 275.322 186.242 275.076C185.82 274.836 185.466 274.511 185.179 274.101L186.031 273.134C186.43 273.614 186.846 273.948 187.279 274.136C187.719 274.323 188.152 274.417 188.58 274.417C189.096 274.417 189.541 274.32 189.916 274.127C190.291 273.934 190.581 273.646 190.786 273.266C190.997 272.891 191.103 272.428 191.103 271.877V264.582L191.252 262.49ZM184.704 267.351V267.166C184.704 266.439 184.789 265.78 184.959 265.188C185.135 264.591 185.384 264.078 185.706 263.65C186.034 263.223 186.43 262.895 186.893 262.666C187.355 262.432 187.877 262.314 188.457 262.314C189.055 262.314 189.576 262.42 190.021 262.631C190.473 262.836 190.854 263.138 191.164 263.536C191.48 263.929 191.729 264.403 191.911 264.96C192.093 265.517 192.219 266.146 192.289 266.85V267.658C192.225 268.355 192.099 268.982 191.911 269.539C191.729 270.096 191.48 270.57 191.164 270.963C190.854 271.355 190.473 271.657 190.021 271.868C189.57 272.073 189.043 272.176 188.439 272.176C187.871 272.176 187.355 272.056 186.893 271.815C186.436 271.575 186.043 271.238 185.715 270.805C185.387 270.371 185.135 269.861 184.959 269.275C184.789 268.684 184.704 268.042 184.704 267.351ZM186.33 267.166V267.351C186.33 267.825 186.377 268.271 186.471 268.687C186.57 269.103 186.72 269.469 186.919 269.785C187.124 270.102 187.385 270.351 187.701 270.532C188.018 270.708 188.396 270.796 188.835 270.796C189.374 270.796 189.819 270.682 190.171 270.453C190.522 270.225 190.801 269.923 191.006 269.548C191.217 269.173 191.381 268.766 191.498 268.326V266.208C191.434 265.886 191.334 265.575 191.199 265.276C191.07 264.972 190.9 264.702 190.689 264.468C190.484 264.228 190.229 264.037 189.925 263.896C189.62 263.756 189.263 263.686 188.853 263.686C188.407 263.686 188.023 263.779 187.701 263.967C187.385 264.148 187.124 264.4 186.919 264.723C186.72 265.039 186.57 265.408 186.471 265.83C186.377 266.246 186.33 266.691 186.33 267.166ZM199.145 272.176C198.482 272.176 197.882 272.064 197.343 271.842C196.81 271.613 196.35 271.294 195.963 270.884C195.582 270.474 195.289 269.987 195.084 269.425C194.879 268.862 194.776 268.247 194.776 267.579V267.21C194.776 266.437 194.891 265.748 195.119 265.145C195.348 264.535 195.658 264.02 196.051 263.598C196.443 263.176 196.889 262.856 197.387 262.64C197.885 262.423 198.4 262.314 198.934 262.314C199.613 262.314 200.199 262.432 200.691 262.666C201.189 262.9 201.597 263.229 201.913 263.65C202.229 264.066 202.464 264.559 202.616 265.127C202.769 265.689 202.845 266.305 202.845 266.973V267.702H195.743V266.375H201.219V266.252C201.195 265.83 201.107 265.42 200.955 265.021C200.809 264.623 200.574 264.295 200.252 264.037C199.93 263.779 199.49 263.65 198.934 263.65C198.564 263.65 198.225 263.729 197.914 263.888C197.604 264.04 197.337 264.269 197.114 264.573C196.892 264.878 196.719 265.25 196.596 265.689C196.473 266.129 196.411 266.636 196.411 267.21V267.579C196.411 268.03 196.473 268.455 196.596 268.854C196.725 269.246 196.909 269.592 197.149 269.891C197.396 270.189 197.691 270.424 198.037 270.594C198.389 270.764 198.787 270.849 199.232 270.849C199.807 270.849 200.293 270.731 200.691 270.497C201.09 270.263 201.438 269.949 201.737 269.557L202.722 270.339C202.517 270.649 202.256 270.945 201.939 271.227C201.623 271.508 201.233 271.736 200.771 271.912C200.313 272.088 199.771 272.176 199.145 272.176ZM206.369 263.984V272H204.743V262.49H206.325L206.369 263.984ZM209.34 262.438L209.331 263.949C209.196 263.92 209.067 263.902 208.944 263.896C208.827 263.885 208.692 263.879 208.54 263.879C208.165 263.879 207.834 263.938 207.547 264.055C207.26 264.172 207.017 264.336 206.817 264.547C206.618 264.758 206.46 265.01 206.343 265.303C206.231 265.59 206.158 265.906 206.123 266.252L205.666 266.516C205.666 265.941 205.722 265.402 205.833 264.898C205.95 264.395 206.129 263.949 206.369 263.562C206.609 263.17 206.914 262.865 207.283 262.648C207.658 262.426 208.104 262.314 208.619 262.314C208.736 262.314 208.871 262.329 209.023 262.358C209.176 262.382 209.281 262.408 209.34 262.438ZM215.264 262.49V263.738H210.122V262.49H215.264ZM211.862 260.179H213.488V269.645C213.488 269.967 213.538 270.21 213.638 270.374C213.737 270.538 213.866 270.646 214.024 270.699C214.183 270.752 214.353 270.778 214.534 270.778C214.669 270.778 214.81 270.767 214.956 270.743C215.108 270.714 215.223 270.69 215.299 270.673L215.308 272C215.179 272.041 215.009 272.079 214.798 272.114C214.593 272.155 214.344 272.176 214.051 272.176C213.652 272.176 213.286 272.097 212.952 271.938C212.618 271.78 212.352 271.517 212.152 271.147C211.959 270.772 211.862 270.269 211.862 269.636V260.179ZM216.564 267.351V267.148C216.564 266.463 216.664 265.827 216.863 265.241C217.062 264.649 217.35 264.137 217.725 263.703C218.1 263.264 218.554 262.924 219.087 262.684C219.62 262.438 220.218 262.314 220.88 262.314C221.548 262.314 222.148 262.438 222.682 262.684C223.221 262.924 223.678 263.264 224.053 263.703C224.434 264.137 224.724 264.649 224.923 265.241C225.122 265.827 225.222 266.463 225.222 267.148V267.351C225.222 268.036 225.122 268.672 224.923 269.258C224.724 269.844 224.434 270.356 224.053 270.796C223.678 271.229 223.224 271.569 222.69 271.815C222.163 272.056 221.565 272.176 220.897 272.176C220.229 272.176 219.629 272.056 219.096 271.815C218.562 271.569 218.105 271.229 217.725 270.796C217.35 270.356 217.062 269.844 216.863 269.258C216.664 268.672 216.564 268.036 216.564 267.351ZM218.19 267.148V267.351C218.19 267.825 218.246 268.273 218.357 268.695C218.469 269.111 218.636 269.48 218.858 269.803C219.087 270.125 219.371 270.38 219.711 270.567C220.051 270.749 220.446 270.84 220.897 270.84C221.343 270.84 221.732 270.749 222.066 270.567C222.406 270.38 222.688 270.125 222.91 269.803C223.133 269.48 223.3 269.111 223.411 268.695C223.528 268.273 223.587 267.825 223.587 267.351V267.148C223.587 266.68 223.528 266.237 223.411 265.821C223.3 265.399 223.13 265.027 222.901 264.705C222.679 264.377 222.397 264.119 222.058 263.932C221.724 263.744 221.331 263.65 220.88 263.65C220.435 263.65 220.042 263.744 219.702 263.932C219.368 264.119 219.087 264.377 218.858 264.705C218.636 265.027 218.469 265.399 218.357 265.821C218.246 266.237 218.19 266.68 218.19 267.148ZM228.887 264.521V272H227.261V262.49H228.799L228.887 264.521ZM228.5 266.885L227.823 266.858C227.829 266.208 227.926 265.607 228.113 265.057C228.301 264.5 228.564 264.017 228.904 263.606C229.244 263.196 229.648 262.88 230.117 262.657C230.592 262.429 231.116 262.314 231.69 262.314C232.159 262.314 232.581 262.379 232.956 262.508C233.331 262.631 233.65 262.83 233.914 263.105C234.184 263.381 234.389 263.738 234.529 264.178C234.67 264.611 234.74 265.142 234.74 265.769V272H233.105V265.751C233.105 265.253 233.032 264.854 232.886 264.556C232.739 264.251 232.525 264.031 232.244 263.896C231.963 263.756 231.617 263.686 231.207 263.686C230.803 263.686 230.434 263.771 230.1 263.94C229.771 264.11 229.487 264.345 229.247 264.644C229.013 264.942 228.828 265.285 228.693 265.672C228.564 266.053 228.5 266.457 228.5 266.885Z" fill="black"/>
<rect x="31" y="321" width="320" height="70" fill="#C4C4C4"/>
<rect x="43" y="331" width="90" height="50" fill="#7B7B7B"/>
<path d="M158.214 349.203V362H156.544V349.203H158.214ZM162.327 349.203V350.592H152.439V349.203H162.327ZM165.605 348.5V362H163.979V348.5H165.605ZM165.219 356.885L164.542 356.858C164.548 356.208 164.645 355.607 164.832 355.057C165.02 354.5 165.283 354.017 165.623 353.606C165.963 353.196 166.367 352.88 166.836 352.657C167.311 352.429 167.835 352.314 168.409 352.314C168.878 352.314 169.3 352.379 169.675 352.508C170.05 352.631 170.369 352.83 170.633 353.105C170.902 353.381 171.107 353.738 171.248 354.178C171.389 354.611 171.459 355.142 171.459 355.769V362H169.824V355.751C169.824 355.253 169.751 354.854 169.604 354.556C169.458 354.251 169.244 354.031 168.963 353.896C168.682 353.756 168.336 353.686 167.926 353.686C167.521 353.686 167.152 353.771 166.818 353.94C166.49 354.11 166.206 354.345 165.966 354.644C165.731 354.942 165.547 355.285 165.412 355.672C165.283 356.053 165.219 356.457 165.219 356.885ZM177.84 362.176C177.178 362.176 176.577 362.064 176.038 361.842C175.505 361.613 175.045 361.294 174.658 360.884C174.277 360.474 173.984 359.987 173.779 359.425C173.574 358.862 173.472 358.247 173.472 357.579V357.21C173.472 356.437 173.586 355.748 173.814 355.145C174.043 354.535 174.354 354.02 174.746 353.598C175.139 353.176 175.584 352.856 176.082 352.64C176.58 352.423 177.096 352.314 177.629 352.314C178.309 352.314 178.895 352.432 179.387 352.666C179.885 352.9 180.292 353.229 180.608 353.65C180.925 354.066 181.159 354.559 181.312 355.127C181.464 355.689 181.54 356.305 181.54 356.973V357.702H174.438V356.375H179.914V356.252C179.891 355.83 179.803 355.42 179.65 355.021C179.504 354.623 179.27 354.295 178.947 354.037C178.625 353.779 178.186 353.65 177.629 353.65C177.26 353.65 176.92 353.729 176.609 353.888C176.299 354.04 176.032 354.269 175.81 354.573C175.587 354.878 175.414 355.25 175.291 355.689C175.168 356.129 175.106 356.636 175.106 357.21V357.579C175.106 358.03 175.168 358.455 175.291 358.854C175.42 359.246 175.604 359.592 175.845 359.891C176.091 360.189 176.387 360.424 176.732 360.594C177.084 360.764 177.482 360.849 177.928 360.849C178.502 360.849 178.988 360.731 179.387 360.497C179.785 360.263 180.134 359.949 180.433 359.557L181.417 360.339C181.212 360.649 180.951 360.945 180.635 361.227C180.318 361.508 179.929 361.736 179.466 361.912C179.009 362.088 178.467 362.176 177.84 362.176ZM194.715 360.532L197.967 363.107L196.824 364.162L193.625 361.622L194.715 360.532ZM197.923 355.197V356.006C197.923 356.967 197.803 357.828 197.562 358.59C197.322 359.352 196.977 359.999 196.525 360.532C196.074 361.065 195.532 361.473 194.899 361.754C194.272 362.035 193.569 362.176 192.79 362.176C192.034 362.176 191.34 362.035 190.707 361.754C190.08 361.473 189.535 361.065 189.072 360.532C188.615 359.999 188.261 359.352 188.009 358.59C187.757 357.828 187.631 356.967 187.631 356.006V355.197C187.631 354.236 187.754 353.378 188 352.622C188.252 351.86 188.606 351.213 189.063 350.68C189.521 350.141 190.062 349.73 190.689 349.449C191.322 349.168 192.017 349.027 192.772 349.027C193.552 349.027 194.258 349.168 194.891 349.449C195.523 349.73 196.065 350.141 196.517 350.68C196.968 351.213 197.313 351.86 197.554 352.622C197.8 353.378 197.923 354.236 197.923 355.197ZM196.244 356.006V355.18C196.244 354.418 196.165 353.744 196.007 353.158C195.854 352.572 195.629 352.08 195.33 351.682C195.031 351.283 194.668 350.981 194.24 350.776C193.812 350.571 193.323 350.469 192.772 350.469C192.251 350.469 191.776 350.571 191.349 350.776C190.927 350.981 190.563 351.283 190.259 351.682C189.954 352.08 189.72 352.572 189.556 353.158C189.392 353.744 189.31 354.418 189.31 355.18V356.006C189.31 356.773 189.392 357.453 189.556 358.045C189.72 358.631 189.954 359.126 190.259 359.53C190.569 359.929 190.938 360.23 191.366 360.436C191.794 360.641 192.269 360.743 192.79 360.743C193.341 360.743 193.83 360.641 194.258 360.436C194.686 360.23 195.046 359.929 195.339 359.53C195.638 359.126 195.863 358.631 196.016 358.045C196.168 357.453 196.244 356.773 196.244 356.006ZM206.114 359.803V352.49H207.749V362H206.193L206.114 359.803ZM206.422 357.799L207.099 357.781C207.099 358.414 207.031 359 206.896 359.539C206.768 360.072 206.557 360.535 206.264 360.928C205.971 361.32 205.587 361.628 205.112 361.851C204.638 362.067 204.061 362.176 203.381 362.176C202.918 362.176 202.493 362.108 202.106 361.974C201.726 361.839 201.397 361.631 201.122 361.35C200.847 361.068 200.633 360.702 200.48 360.251C200.334 359.8 200.261 359.258 200.261 358.625V352.49H201.887V358.643C201.887 359.07 201.934 359.425 202.027 359.706C202.127 359.981 202.259 360.201 202.423 360.365C202.593 360.523 202.78 360.635 202.985 360.699C203.196 360.764 203.413 360.796 203.636 360.796C204.327 360.796 204.875 360.664 205.279 360.4C205.684 360.131 205.974 359.771 206.149 359.319C206.331 358.862 206.422 358.355 206.422 357.799ZM214.174 362.176C213.512 362.176 212.911 362.064 212.372 361.842C211.839 361.613 211.379 361.294 210.992 360.884C210.611 360.474 210.318 359.987 210.113 359.425C209.908 358.862 209.806 358.247 209.806 357.579V357.21C209.806 356.437 209.92 355.748 210.148 355.145C210.377 354.535 210.688 354.02 211.08 353.598C211.473 353.176 211.918 352.856 212.416 352.64C212.914 352.423 213.43 352.314 213.963 352.314C214.643 352.314 215.229 352.432 215.721 352.666C216.219 352.9 216.626 353.229 216.942 353.65C217.259 354.066 217.493 354.559 217.646 355.127C217.798 355.689 217.874 356.305 217.874 356.973V357.702H210.772V356.375H216.248V356.252C216.225 355.83 216.137 355.42 215.984 355.021C215.838 354.623 215.604 354.295 215.281 354.037C214.959 353.779 214.52 353.65 213.963 353.65C213.594 353.65 213.254 353.729 212.943 353.888C212.633 354.04 212.366 354.269 212.144 354.573C211.921 354.878 211.748 355.25 211.625 355.689C211.502 356.129 211.44 356.636 211.44 357.21V357.579C211.44 358.03 211.502 358.455 211.625 358.854C211.754 359.246 211.938 359.592 212.179 359.891C212.425 360.189 212.721 360.424 213.066 360.594C213.418 360.764 213.816 360.849 214.262 360.849C214.836 360.849 215.322 360.731 215.721 360.497C216.119 360.263 216.468 359.949 216.767 359.557L217.751 360.339C217.546 360.649 217.285 360.945 216.969 361.227C216.652 361.508 216.263 361.736 215.8 361.912C215.343 362.088 214.801 362.176 214.174 362.176ZM223.719 362.176C223.057 362.176 222.456 362.064 221.917 361.842C221.384 361.613 220.924 361.294 220.537 360.884C220.156 360.474 219.863 359.987 219.658 359.425C219.453 358.862 219.351 358.247 219.351 357.579V357.21C219.351 356.437 219.465 355.748 219.693 355.145C219.922 354.535 220.232 354.02 220.625 353.598C221.018 353.176 221.463 352.856 221.961 352.64C222.459 352.423 222.975 352.314 223.508 352.314C224.188 352.314 224.773 352.432 225.266 352.666C225.764 352.9 226.171 353.229 226.487 353.65C226.804 354.066 227.038 354.559 227.19 355.127C227.343 355.689 227.419 356.305 227.419 356.973V357.702H220.317V356.375H225.793V356.252C225.77 355.83 225.682 355.42 225.529 355.021C225.383 354.623 225.148 354.295 224.826 354.037C224.504 353.779 224.064 353.65 223.508 353.65C223.139 353.65 222.799 353.729 222.488 353.888C222.178 354.04 221.911 354.269 221.688 354.573C221.466 354.878 221.293 355.25 221.17 355.689C221.047 356.129 220.985 356.636 220.985 357.21V357.579C220.985 358.03 221.047 358.455 221.17 358.854C221.299 359.246 221.483 359.592 221.724 359.891C221.97 360.189 222.266 360.424 222.611 360.594C222.963 360.764 223.361 360.849 223.807 360.849C224.381 360.849 224.867 360.731 225.266 360.497C225.664 360.263 226.013 359.949 226.312 359.557L227.296 360.339C227.091 360.649 226.83 360.945 226.514 361.227C226.197 361.508 225.808 361.736 225.345 361.912C224.888 362.088 224.346 362.176 223.719 362.176ZM230.943 354.521V362H229.317V352.49H230.855L230.943 354.521ZM230.557 356.885L229.88 356.858C229.886 356.208 229.982 355.607 230.17 355.057C230.357 354.5 230.621 354.017 230.961 353.606C231.301 353.196 231.705 352.88 232.174 352.657C232.648 352.429 233.173 352.314 233.747 352.314C234.216 352.314 234.638 352.379 235.013 352.508C235.388 352.631 235.707 352.83 235.971 353.105C236.24 353.381 236.445 353.738 236.586 354.178C236.727 354.611 236.797 355.142 236.797 355.769V362H235.162V355.751C235.162 355.253 235.089 354.854 234.942 354.556C234.796 354.251 234.582 354.031 234.301 353.896C234.02 353.756 233.674 353.686 233.264 353.686C232.859 353.686 232.49 353.771 232.156 353.94C231.828 354.11 231.544 354.345 231.304 354.644C231.069 354.942 230.885 355.285 230.75 355.672C230.621 356.053 230.557 356.457 230.557 356.885ZM240.207 348.5V349.625C240.207 349.977 240.146 350.349 240.022 350.741C239.905 351.128 239.732 351.503 239.504 351.866C239.275 352.224 239 352.537 238.678 352.807L237.746 352.165C238.021 351.778 238.229 351.383 238.37 350.979C238.517 350.568 238.59 350.126 238.59 349.651V348.5H240.207ZM246.72 359.478C246.72 359.243 246.667 359.026 246.562 358.827C246.462 358.622 246.254 358.438 245.938 358.273C245.627 358.104 245.158 357.957 244.531 357.834C244.004 357.723 243.526 357.591 243.099 357.438C242.677 357.286 242.316 357.102 242.018 356.885C241.725 356.668 241.499 356.413 241.341 356.12C241.183 355.827 241.104 355.484 241.104 355.092C241.104 354.717 241.186 354.362 241.35 354.028C241.52 353.694 241.757 353.398 242.062 353.141C242.372 352.883 242.744 352.681 243.178 352.534C243.611 352.388 244.095 352.314 244.628 352.314C245.39 352.314 246.04 352.449 246.579 352.719C247.118 352.988 247.531 353.349 247.818 353.8C248.105 354.245 248.249 354.74 248.249 355.285H246.623C246.623 355.021 246.544 354.767 246.386 354.521C246.233 354.269 246.008 354.061 245.709 353.896C245.416 353.732 245.056 353.65 244.628 353.65C244.177 353.65 243.811 353.721 243.529 353.861C243.254 353.996 243.052 354.169 242.923 354.38C242.8 354.591 242.738 354.813 242.738 355.048C242.738 355.224 242.768 355.382 242.826 355.522C242.891 355.657 243.002 355.783 243.16 355.9C243.318 356.012 243.541 356.117 243.828 356.217C244.115 356.316 244.481 356.416 244.927 356.516C245.706 356.691 246.348 356.902 246.852 357.148C247.355 357.395 247.73 357.696 247.977 358.054C248.223 358.411 248.346 358.845 248.346 359.354C248.346 359.771 248.258 360.151 248.082 360.497C247.912 360.843 247.663 361.142 247.335 361.394C247.013 361.64 246.626 361.833 246.175 361.974C245.729 362.108 245.229 362.176 244.672 362.176C243.834 362.176 243.125 362.026 242.545 361.728C241.965 361.429 241.525 361.042 241.227 360.567C240.928 360.093 240.778 359.592 240.778 359.064H242.413C242.437 359.51 242.565 359.864 242.8 360.128C243.034 360.386 243.321 360.57 243.661 360.682C244.001 360.787 244.338 360.84 244.672 360.84C245.117 360.84 245.489 360.781 245.788 360.664C246.093 360.547 246.324 360.386 246.482 360.181C246.641 359.976 246.72 359.741 246.72 359.478ZM264.649 355.628V360.312C264.491 360.547 264.239 360.811 263.894 361.104C263.548 361.391 263.07 361.643 262.461 361.859C261.857 362.07 261.078 362.176 260.123 362.176C259.344 362.176 258.626 362.041 257.97 361.771C257.319 361.496 256.754 361.098 256.273 360.576C255.799 360.049 255.43 359.41 255.166 358.66C254.908 357.904 254.779 357.049 254.779 356.094V355.101C254.779 354.146 254.891 353.293 255.113 352.543C255.342 351.793 255.676 351.157 256.115 350.636C256.555 350.108 257.094 349.71 257.732 349.44C258.371 349.165 259.104 349.027 259.93 349.027C260.908 349.027 261.726 349.197 262.382 349.537C263.044 349.871 263.56 350.334 263.929 350.926C264.304 351.518 264.544 352.191 264.649 352.947H262.953C262.877 352.484 262.725 352.062 262.496 351.682C262.273 351.301 261.954 350.996 261.538 350.768C261.122 350.533 260.586 350.416 259.93 350.416C259.338 350.416 258.825 350.524 258.392 350.741C257.958 350.958 257.601 351.269 257.319 351.673C257.038 352.077 256.827 352.566 256.687 353.141C256.552 353.715 256.484 354.362 256.484 355.083V356.094C256.484 356.832 256.569 357.491 256.739 358.071C256.915 358.651 257.164 359.146 257.486 359.557C257.809 359.961 258.192 360.269 258.638 360.479C259.089 360.69 259.587 360.796 260.132 360.796C260.735 360.796 261.225 360.746 261.6 360.646C261.975 360.541 262.268 360.418 262.479 360.277C262.689 360.131 262.851 359.993 262.962 359.864V356.999H260V355.628H264.649ZM272.823 360.374V355.479C272.823 355.104 272.747 354.778 272.595 354.503C272.448 354.222 272.226 354.005 271.927 353.853C271.628 353.7 271.259 353.624 270.819 353.624C270.409 353.624 270.049 353.694 269.738 353.835C269.434 353.976 269.193 354.16 269.018 354.389C268.848 354.617 268.763 354.863 268.763 355.127H267.137C267.137 354.787 267.225 354.45 267.4 354.116C267.576 353.782 267.828 353.48 268.156 353.211C268.49 352.936 268.889 352.719 269.352 352.561C269.82 352.396 270.342 352.314 270.916 352.314C271.607 352.314 272.217 352.432 272.744 352.666C273.277 352.9 273.693 353.255 273.992 353.729C274.297 354.198 274.449 354.787 274.449 355.496V359.926C274.449 360.242 274.476 360.579 274.528 360.937C274.587 361.294 274.672 361.602 274.783 361.859V362H273.087C273.005 361.812 272.94 361.563 272.894 361.253C272.847 360.937 272.823 360.644 272.823 360.374ZM273.104 356.234L273.122 357.377H271.479C271.016 357.377 270.603 357.415 270.239 357.491C269.876 357.562 269.571 357.67 269.325 357.816C269.079 357.963 268.892 358.147 268.763 358.37C268.634 358.587 268.569 358.842 268.569 359.135C268.569 359.434 268.637 359.706 268.771 359.952C268.906 360.198 269.108 360.395 269.378 360.541C269.653 360.682 269.99 360.752 270.389 360.752C270.887 360.752 271.326 360.646 271.707 360.436C272.088 360.225 272.39 359.967 272.612 359.662C272.841 359.357 272.964 359.062 272.981 358.774L273.676 359.557C273.635 359.803 273.523 360.075 273.342 360.374C273.16 360.673 272.917 360.96 272.612 361.235C272.313 361.505 271.956 361.73 271.54 361.912C271.13 362.088 270.667 362.176 270.151 362.176C269.507 362.176 268.941 362.05 268.455 361.798C267.975 361.546 267.6 361.209 267.33 360.787C267.066 360.359 266.935 359.882 266.935 359.354C266.935 358.845 267.034 358.396 267.233 358.01C267.433 357.617 267.72 357.292 268.095 357.034C268.47 356.771 268.921 356.571 269.448 356.437C269.976 356.302 270.564 356.234 271.215 356.234H273.104ZM278.624 354.38V362H276.989V352.49H278.536L278.624 354.38ZM278.29 356.885L277.534 356.858C277.54 356.208 277.625 355.607 277.789 355.057C277.953 354.5 278.196 354.017 278.519 353.606C278.841 353.196 279.242 352.88 279.723 352.657C280.203 352.429 280.76 352.314 281.393 352.314C281.838 352.314 282.248 352.379 282.623 352.508C282.998 352.631 283.323 352.827 283.599 353.097C283.874 353.366 284.088 353.712 284.24 354.134C284.393 354.556 284.469 355.065 284.469 355.663V362H282.843V355.742C282.843 355.244 282.758 354.846 282.588 354.547C282.424 354.248 282.189 354.031 281.885 353.896C281.58 353.756 281.223 353.686 280.812 353.686C280.332 353.686 279.931 353.771 279.608 353.94C279.286 354.11 279.028 354.345 278.835 354.644C278.642 354.942 278.501 355.285 278.413 355.672C278.331 356.053 278.29 356.457 278.29 356.885ZM284.451 355.988L283.361 356.322C283.367 355.801 283.452 355.3 283.616 354.819C283.786 354.339 284.029 353.911 284.346 353.536C284.668 353.161 285.063 352.865 285.532 352.648C286.001 352.426 286.537 352.314 287.141 352.314C287.65 352.314 288.102 352.382 288.494 352.517C288.893 352.651 289.227 352.859 289.496 353.141C289.771 353.416 289.979 353.771 290.12 354.204C290.261 354.638 290.331 355.153 290.331 355.751V362H288.696V355.733C288.696 355.2 288.611 354.787 288.441 354.494C288.277 354.195 288.043 353.987 287.738 353.87C287.439 353.747 287.082 353.686 286.666 353.686C286.309 353.686 285.992 353.747 285.717 353.87C285.441 353.993 285.21 354.163 285.022 354.38C284.835 354.591 284.691 354.834 284.592 355.109C284.498 355.385 284.451 355.678 284.451 355.988ZM292.783 348.5H294.418V360.154L294.277 362H292.783V348.5ZM300.843 357.166V357.351C300.843 358.042 300.761 358.684 300.597 359.275C300.433 359.861 300.192 360.371 299.876 360.805C299.56 361.238 299.173 361.575 298.716 361.815C298.259 362.056 297.734 362.176 297.143 362.176C296.539 362.176 296.009 362.073 295.552 361.868C295.101 361.657 294.72 361.355 294.409 360.963C294.099 360.57 293.85 360.096 293.662 359.539C293.48 358.982 293.354 358.355 293.284 357.658V356.85C293.354 356.146 293.48 355.517 293.662 354.96C293.85 354.403 294.099 353.929 294.409 353.536C294.72 353.138 295.101 352.836 295.552 352.631C296.003 352.42 296.527 352.314 297.125 352.314C297.723 352.314 298.253 352.432 298.716 352.666C299.179 352.895 299.565 353.223 299.876 353.65C300.192 354.078 300.433 354.591 300.597 355.188C300.761 355.78 300.843 356.439 300.843 357.166ZM299.208 357.351V357.166C299.208 356.691 299.164 356.246 299.076 355.83C298.988 355.408 298.848 355.039 298.654 354.723C298.461 354.4 298.206 354.148 297.89 353.967C297.573 353.779 297.184 353.686 296.721 353.686C296.311 353.686 295.953 353.756 295.648 353.896C295.35 354.037 295.095 354.228 294.884 354.468C294.673 354.702 294.5 354.972 294.365 355.276C294.236 355.575 294.14 355.886 294.075 356.208V358.326C294.169 358.736 294.321 359.132 294.532 359.513C294.749 359.888 295.036 360.195 295.394 360.436C295.757 360.676 296.205 360.796 296.738 360.796C297.178 360.796 297.553 360.708 297.863 360.532C298.18 360.351 298.435 360.102 298.628 359.785C298.827 359.469 298.974 359.103 299.067 358.687C299.161 358.271 299.208 357.825 299.208 357.351ZM304.666 352.49V362H303.031V352.49H304.666ZM302.908 349.968C302.908 349.704 302.987 349.481 303.146 349.3C303.31 349.118 303.55 349.027 303.866 349.027C304.177 349.027 304.414 349.118 304.578 349.3C304.748 349.481 304.833 349.704 304.833 349.968C304.833 350.22 304.748 350.437 304.578 350.618C304.414 350.794 304.177 350.882 303.866 350.882C303.55 350.882 303.31 350.794 303.146 350.618C302.987 350.437 302.908 350.22 302.908 349.968ZM311.258 352.49V353.738H306.116V352.49H311.258ZM307.856 350.179H309.482V359.645C309.482 359.967 309.532 360.21 309.632 360.374C309.731 360.538 309.86 360.646 310.019 360.699C310.177 360.752 310.347 360.778 310.528 360.778C310.663 360.778 310.804 360.767 310.95 360.743C311.103 360.714 311.217 360.69 311.293 360.673L311.302 362C311.173 362.041 311.003 362.079 310.792 362.114C310.587 362.155 310.338 362.176 310.045 362.176C309.646 362.176 309.28 362.097 308.946 361.938C308.612 361.78 308.346 361.517 308.146 361.147C307.953 360.772 307.856 360.269 307.856 359.636V350.179Z" fill="black"/>
<rect x="31" y="411" width="320" height="70" fill="#C4C4C4"/>
<rect x="43" y="421" width="90" height="50" fill="#7B7B7B"/>
<path d="M155.182 450.62H161.246V452H153.485V439.203H155.182V450.62ZM168.4 451.06C167.768 451.804 166.839 452.176 165.614 452.176C164.601 452.176 163.827 451.883 163.294 451.297C162.767 450.705 162.5 449.832 162.494 448.678V442.49H164.12V448.634C164.12 450.075 164.706 450.796 165.878 450.796C167.12 450.796 167.946 450.333 168.356 449.407V442.49H169.982V452H168.436L168.4 451.06ZM180.494 447.351C180.494 448.798 180.163 449.964 179.501 450.849C178.839 451.733 177.942 452.176 176.812 452.176C175.657 452.176 174.749 451.81 174.087 451.077V455.656H172.461V442.49H173.946L174.025 443.545C174.688 442.725 175.607 442.314 176.785 442.314C177.928 442.314 178.83 442.745 179.492 443.606C180.16 444.468 180.494 445.666 180.494 447.201V447.351ZM178.868 447.166C178.868 446.094 178.64 445.247 178.183 444.626C177.726 444.005 177.099 443.694 176.302 443.694C175.317 443.694 174.579 444.131 174.087 445.004V449.548C174.573 450.415 175.317 450.849 176.319 450.849C177.099 450.849 177.717 450.541 178.174 449.926C178.637 449.305 178.868 448.385 178.868 447.166ZM184.335 452H182.709V442.49H184.335V452ZM182.577 439.968C182.577 439.704 182.656 439.481 182.814 439.3C182.979 439.118 183.219 439.027 183.535 439.027C183.852 439.027 184.092 439.118 184.256 439.3C184.42 439.481 184.502 439.704 184.502 439.968C184.502 440.231 184.42 440.451 184.256 440.627C184.092 440.803 183.852 440.891 183.535 440.891C183.219 440.891 182.979 440.803 182.814 440.627C182.656 440.451 182.577 440.231 182.577 439.968ZM188.483 442.49L188.536 443.686C189.263 442.771 190.212 442.314 191.384 442.314C193.394 442.314 194.407 443.448 194.425 445.716V452H192.799V445.707C192.793 445.021 192.635 444.515 192.324 444.187C192.02 443.858 191.542 443.694 190.892 443.694C190.364 443.694 189.901 443.835 189.503 444.116C189.104 444.397 188.794 444.767 188.571 445.224V452H186.945V442.49H188.483Z" fill="black"/>
<rect x="31" y="501" width="320" height="70" fill="#C4C4C4"/>
<rect x="43" y="511" width="90" height="50" fill="#7B7B7B"/>
<path d="M157.256 536.296C155.809 535.88 154.754 535.37 154.092 534.767C153.436 534.157 153.107 533.407 153.107 532.517C153.107 531.509 153.509 530.677 154.312 530.021C155.12 529.358 156.169 529.027 157.458 529.027C158.337 529.027 159.119 529.197 159.805 529.537C160.496 529.877 161.029 530.346 161.404 530.943C161.785 531.541 161.976 532.194 161.976 532.903H160.279C160.279 532.13 160.033 531.523 159.541 531.084C159.049 530.639 158.354 530.416 157.458 530.416C156.626 530.416 155.976 530.601 155.507 530.97C155.044 531.333 154.812 531.84 154.812 532.49C154.812 533.012 155.032 533.454 155.472 533.817C155.917 534.175 156.67 534.503 157.73 534.802C158.797 535.101 159.629 535.432 160.227 535.795C160.83 536.152 161.275 536.571 161.562 537.052C161.855 537.532 162.002 538.098 162.002 538.748C162.002 539.785 161.598 540.617 160.789 541.244C159.98 541.865 158.899 542.176 157.546 542.176C156.667 542.176 155.847 542.009 155.085 541.675C154.323 541.335 153.734 540.872 153.318 540.286C152.908 539.7 152.703 539.035 152.703 538.291H154.399C154.399 539.064 154.684 539.677 155.252 540.128C155.826 540.573 156.591 540.796 157.546 540.796C158.437 540.796 159.119 540.614 159.594 540.251C160.068 539.888 160.306 539.393 160.306 538.766C160.306 538.139 160.086 537.655 159.646 537.315C159.207 536.97 158.41 536.63 157.256 536.296ZM167.732 540.849C168.312 540.849 168.819 540.673 169.253 540.321C169.687 539.97 169.927 539.53 169.974 539.003H171.512C171.482 539.548 171.295 540.066 170.949 540.559C170.604 541.051 170.141 541.443 169.561 541.736C168.986 542.029 168.377 542.176 167.732 542.176C166.438 542.176 165.406 541.745 164.639 540.884C163.877 540.017 163.496 538.833 163.496 537.333V537.061C163.496 536.135 163.666 535.312 164.006 534.591C164.346 533.87 164.832 533.311 165.465 532.912C166.104 532.514 166.856 532.314 167.724 532.314C168.79 532.314 169.675 532.634 170.378 533.272C171.087 533.911 171.465 534.74 171.512 535.76H169.974C169.927 535.145 169.692 534.641 169.271 534.248C168.854 533.85 168.339 533.65 167.724 533.65C166.897 533.65 166.256 533.949 165.799 534.547C165.348 535.139 165.122 535.997 165.122 537.122V537.43C165.122 538.525 165.348 539.369 165.799 539.961C166.25 540.553 166.895 540.849 167.732 540.849ZM174.966 533.642C175.687 532.757 176.624 532.314 177.778 532.314C179.788 532.314 180.802 533.448 180.819 535.716V542H179.193V535.707C179.188 535.021 179.029 534.515 178.719 534.187C178.414 533.858 177.937 533.694 177.286 533.694C176.759 533.694 176.296 533.835 175.897 534.116C175.499 534.397 175.188 534.767 174.966 535.224V542H173.34V528.5H174.966V533.642ZM185.021 542H183.395V532.49H185.021V542ZM183.263 529.968C183.263 529.704 183.342 529.481 183.5 529.3C183.664 529.118 183.904 529.027 184.221 529.027C184.537 529.027 184.777 529.118 184.941 529.3C185.105 529.481 185.188 529.704 185.188 529.968C185.188 530.231 185.105 530.451 184.941 530.627C184.777 530.803 184.537 530.891 184.221 530.891C183.904 530.891 183.664 530.803 183.5 530.627C183.342 530.451 183.263 530.231 183.263 529.968ZM189.837 530.188V532.49H191.612V533.747H189.837V539.645C189.837 540.025 189.916 540.312 190.074 540.506C190.232 540.693 190.502 540.787 190.883 540.787C191.07 540.787 191.328 540.752 191.656 540.682V542C191.229 542.117 190.812 542.176 190.408 542.176C189.682 542.176 189.134 541.956 188.765 541.517C188.396 541.077 188.211 540.453 188.211 539.645V533.747H186.479V532.49H188.211V530.188H189.837ZM195.726 530.188V532.49H197.501V533.747H195.726V539.645C195.726 540.025 195.805 540.312 195.963 540.506C196.121 540.693 196.391 540.787 196.771 540.787C196.959 540.787 197.217 540.752 197.545 540.682V542C197.117 542.117 196.701 542.176 196.297 542.176C195.57 542.176 195.022 541.956 194.653 541.517C194.284 541.077 194.1 540.453 194.1 539.645V533.747H192.368V532.49H194.1V530.188H195.726ZM199.522 532.807L198.6 532.174C199.145 531.412 199.426 530.609 199.443 529.766V528.5H201.052V529.643C201.046 530.229 200.899 530.814 200.612 531.4C200.331 531.98 199.968 532.449 199.522 532.807ZM207.564 539.478C207.564 539.038 207.397 538.698 207.063 538.458C206.735 538.212 206.158 538.001 205.332 537.825C204.512 537.649 203.858 537.438 203.372 537.192C202.892 536.946 202.534 536.653 202.3 536.313C202.071 535.974 201.957 535.569 201.957 535.101C201.957 534.321 202.285 533.662 202.941 533.123C203.604 532.584 204.447 532.314 205.473 532.314C206.551 532.314 207.424 532.593 208.092 533.149C208.766 533.706 209.103 534.418 209.103 535.285H207.468C207.468 534.84 207.277 534.456 206.896 534.134C206.521 533.812 206.047 533.65 205.473 533.65C204.881 533.65 204.418 533.779 204.084 534.037C203.75 534.295 203.583 534.632 203.583 535.048C203.583 535.44 203.738 535.736 204.049 535.936C204.359 536.135 204.919 536.325 205.728 536.507C206.542 536.688 207.201 536.905 207.705 537.157C208.209 537.409 208.581 537.714 208.821 538.071C209.067 538.423 209.19 538.854 209.19 539.363C209.19 540.213 208.851 540.896 208.171 541.411C207.491 541.921 206.609 542.176 205.525 542.176C204.764 542.176 204.09 542.041 203.504 541.771C202.918 541.502 202.458 541.127 202.124 540.646C201.796 540.16 201.632 539.636 201.632 539.073H203.258C203.287 539.618 203.504 540.052 203.908 540.374C204.318 540.69 204.857 540.849 205.525 540.849C206.141 540.849 206.633 540.726 207.002 540.479C207.377 540.228 207.564 539.894 207.564 539.478ZM225.441 537.939C225.283 539.293 224.782 540.339 223.938 541.077C223.101 541.81 221.984 542.176 220.59 542.176C219.078 542.176 217.865 541.634 216.951 540.55C216.043 539.466 215.589 538.016 215.589 536.199V534.969C215.589 533.779 215.8 532.733 216.222 531.831C216.649 530.929 217.253 530.237 218.032 529.757C218.812 529.271 219.714 529.027 220.739 529.027C222.099 529.027 223.188 529.408 224.009 530.17C224.829 530.926 225.307 531.975 225.441 533.316H223.745C223.599 532.297 223.279 531.559 222.787 531.102C222.301 530.645 221.618 530.416 220.739 530.416C219.661 530.416 218.814 530.814 218.199 531.611C217.59 532.408 217.285 533.542 217.285 535.013V536.252C217.285 537.641 217.575 538.745 218.155 539.565C218.735 540.386 219.547 540.796 220.59 540.796C221.527 540.796 222.245 540.585 222.743 540.163C223.247 539.735 223.581 538.994 223.745 537.939H225.441ZM232.095 533.949C231.849 533.908 231.582 533.888 231.295 533.888C230.229 533.888 229.505 534.342 229.124 535.25V542H227.498V532.49H229.08L229.106 533.589C229.64 532.739 230.396 532.314 231.374 532.314C231.69 532.314 231.931 532.355 232.095 532.438V533.949ZM237.368 542.176C236.079 542.176 235.03 541.754 234.222 540.91C233.413 540.061 233.009 538.927 233.009 537.509V537.21C233.009 536.267 233.188 535.426 233.545 534.688C233.908 533.943 234.412 533.363 235.057 532.947C235.707 532.525 236.41 532.314 237.166 532.314C238.402 532.314 239.363 532.722 240.049 533.536C240.734 534.351 241.077 535.517 241.077 537.034V537.711H234.635C234.658 538.648 234.931 539.407 235.452 539.987C235.979 540.562 236.647 540.849 237.456 540.849C238.03 540.849 238.517 540.731 238.915 540.497C239.313 540.263 239.662 539.952 239.961 539.565L240.954 540.339C240.157 541.563 238.962 542.176 237.368 542.176ZM237.166 533.65C236.51 533.65 235.959 533.891 235.514 534.371C235.068 534.846 234.793 535.514 234.688 536.375H239.451V536.252C239.404 535.426 239.182 534.787 238.783 534.336C238.385 533.879 237.846 533.65 237.166 533.65ZM246.913 542.176C245.624 542.176 244.575 541.754 243.767 540.91C242.958 540.061 242.554 538.927 242.554 537.509V537.21C242.554 536.267 242.732 535.426 243.09 534.688C243.453 533.943 243.957 533.363 244.602 532.947C245.252 532.525 245.955 532.314 246.711 532.314C247.947 532.314 248.908 532.722 249.594 533.536C250.279 534.351 250.622 535.517 250.622 537.034V537.711H244.18C244.203 538.648 244.476 539.407 244.997 539.987C245.524 540.562 246.192 540.849 247.001 540.849C247.575 540.849 248.062 540.731 248.46 540.497C248.858 540.263 249.207 539.952 249.506 539.565L250.499 540.339C249.702 541.563 248.507 542.176 246.913 542.176ZM246.711 533.65C246.055 533.65 245.504 533.891 245.059 534.371C244.613 534.846 244.338 535.514 244.232 536.375H248.996V536.252C248.949 535.426 248.727 534.787 248.328 534.336C247.93 533.879 247.391 533.65 246.711 533.65ZM255.166 537.597L254.146 538.66V542H252.521V528.5H254.146V536.665L255.017 535.619L257.979 532.49H259.956L256.256 536.463L260.387 542H258.479L255.166 537.597Z" fill="black"/>
<rect x="31" y="591" width="320" height="70" fill="#C4C4C4"/>
<rect x="43" y="601" width="90" height="50" fill="#7B7B7B"/>
<path d="M155.182 630.62H161.246V632H153.485V619.203H155.182V630.62ZM168.4 631.06C167.768 631.804 166.839 632.176 165.614 632.176C164.601 632.176 163.827 631.883 163.294 631.297C162.767 630.705 162.5 629.832 162.494 628.678V622.49H164.12V628.634C164.12 630.075 164.706 630.796 165.878 630.796C167.12 630.796 167.946 630.333 168.356 629.407V622.49H169.982V632H168.436L168.4 631.06ZM180.494 627.351C180.494 628.798 180.163 629.964 179.501 630.849C178.839 631.733 177.942 632.176 176.812 632.176C175.657 632.176 174.749 631.81 174.087 631.077V635.656H172.461V622.49H173.946L174.025 623.545C174.688 622.725 175.607 622.314 176.785 622.314C177.928 622.314 178.83 622.745 179.492 623.606C180.16 624.468 180.494 625.666 180.494 627.201V627.351ZM178.868 627.166C178.868 626.094 178.64 625.247 178.183 624.626C177.726 624.005 177.099 623.694 176.302 623.694C175.317 623.694 174.579 624.131 174.087 625.004V629.548C174.573 630.415 175.317 630.849 176.319 630.849C177.099 630.849 177.717 630.541 178.174 629.926C178.637 629.305 178.868 628.385 178.868 627.166ZM184.335 632H182.709V622.49H184.335V632ZM182.577 619.968C182.577 619.704 182.656 619.481 182.814 619.3C182.979 619.118 183.219 619.027 183.535 619.027C183.852 619.027 184.092 619.118 184.256 619.3C184.42 619.481 184.502 619.704 184.502 619.968C184.502 620.231 184.42 620.451 184.256 620.627C184.092 620.803 183.852 620.891 183.535 620.891C183.219 620.891 182.979 620.803 182.814 620.627C182.656 620.451 182.577 620.231 182.577 619.968ZM188.483 622.49L188.536 623.686C189.263 622.771 190.212 622.314 191.384 622.314C193.394 622.314 194.407 623.448 194.425 625.716V632H192.799V625.707C192.793 625.021 192.635 624.515 192.324 624.187C192.02 623.858 191.542 623.694 190.892 623.694C190.364 623.694 189.901 623.835 189.503 624.116C189.104 624.397 188.794 624.767 188.571 625.224V632H186.945V622.49H188.483Z" fill="black"/>
<rect x="1" y="45" width="375" height="40" fill="#C4C4C4"/>
<path d="M170.493 71.0087V72.8485H161.962V71.0087H170.493ZM162.407 55.786V72.8485H160.145V55.786H162.407ZM185.146 63.7782V64.8563C185.146 66.1376 184.986 67.286 184.666 68.3016C184.345 69.3173 183.884 70.1805 183.283 70.8915C182.681 71.6024 181.959 72.1454 181.115 72.5204C180.279 72.8954 179.341 73.0829 178.302 73.0829C177.295 73.0829 176.369 72.8954 175.525 72.5204C174.689 72.1454 173.962 71.6024 173.345 70.8915C172.736 70.1805 172.263 69.3173 171.927 68.3016C171.591 67.286 171.423 66.1376 171.423 64.8563V63.7782C171.423 62.4969 171.587 61.3524 171.916 60.3446C172.252 59.329 172.724 58.4657 173.334 57.7548C173.943 57.036 174.666 56.4891 175.502 56.1141C176.345 55.7391 177.271 55.5516 178.279 55.5516C179.318 55.5516 180.255 55.7391 181.091 56.1141C181.935 56.4891 182.658 57.036 183.259 57.7548C183.869 58.4657 184.334 59.329 184.654 60.3446C184.982 61.3524 185.146 62.4969 185.146 63.7782ZM182.908 64.8563V63.7548C182.908 62.7391 182.802 61.8407 182.591 61.0594C182.388 60.2782 182.087 59.6219 181.689 59.0907C181.291 58.5594 180.802 58.1571 180.224 57.8837C179.654 57.6102 179.005 57.4735 178.279 57.4735C177.576 57.4735 176.939 57.6102 176.369 57.8837C175.806 58.1571 175.322 58.5594 174.916 59.0907C174.517 59.6219 174.209 60.2782 173.99 61.0594C173.771 61.8407 173.662 62.7391 173.662 63.7548V64.8563C173.662 65.8798 173.771 66.786 173.99 67.5751C174.209 68.3563 174.521 69.0165 174.927 69.5555C175.341 70.0868 175.83 70.4891 176.392 70.7626C176.962 71.036 177.599 71.1727 178.302 71.1727C179.037 71.1727 179.689 71.036 180.259 70.7626C180.83 70.4891 181.31 70.0868 181.701 69.5555C182.099 69.0165 182.4 68.3563 182.603 67.5751C182.806 66.786 182.908 65.8798 182.908 64.8563ZM200.842 64.3524V70.5985C200.631 70.911 200.295 71.2626 199.834 71.6532C199.373 72.036 198.737 72.3719 197.924 72.661C197.12 72.9423 196.08 73.0829 194.807 73.0829C193.768 73.0829 192.811 72.9032 191.936 72.5438C191.069 72.1766 190.315 71.6454 189.674 70.9501C189.041 70.2469 188.549 69.3954 188.198 68.3954C187.854 67.3876 187.682 66.2469 187.682 64.9735V63.6493C187.682 62.3759 187.83 61.2391 188.127 60.2391C188.432 59.2391 188.877 58.3915 189.463 57.6962C190.049 56.993 190.768 56.4618 191.62 56.1024C192.471 55.7352 193.448 55.5516 194.549 55.5516C195.854 55.5516 196.944 55.7782 197.819 56.2313C198.702 56.6766 199.389 57.2938 199.881 58.0829C200.381 58.8719 200.702 59.7704 200.842 60.7782H198.58C198.479 60.161 198.276 59.5985 197.971 59.0907C197.674 58.5829 197.248 58.1766 196.694 57.8719C196.139 57.5594 195.424 57.4032 194.549 57.4032C193.76 57.4032 193.077 57.5477 192.498 57.8368C191.92 58.1259 191.444 58.5399 191.069 59.079C190.694 59.618 190.412 60.2704 190.225 61.036C190.045 61.8016 189.955 62.6649 189.955 63.6259V64.9735C189.955 65.9579 190.069 66.8368 190.295 67.6102C190.53 68.3837 190.862 69.0438 191.291 69.5907C191.721 70.1298 192.233 70.5399 192.827 70.8212C193.428 71.1024 194.092 71.243 194.819 71.243C195.623 71.243 196.276 71.1766 196.776 71.0438C197.276 70.9032 197.666 70.7391 197.948 70.5516C198.229 70.3563 198.444 70.1727 198.592 70.0009V66.1805H194.643V64.3524H200.842ZM217.429 63.7782V64.8563C217.429 66.1376 217.269 67.286 216.948 68.3016C216.628 69.3173 216.167 70.1805 215.566 70.8915C214.964 71.6024 214.241 72.1454 213.398 72.5204C212.562 72.8954 211.624 73.0829 210.585 73.0829C209.577 73.0829 208.652 72.8954 207.808 72.5204C206.972 72.1454 206.245 71.6024 205.628 70.8915C205.019 70.1805 204.546 69.3173 204.21 68.3016C203.874 67.286 203.706 66.1376 203.706 64.8563V63.7782C203.706 62.4969 203.87 61.3524 204.198 60.3446C204.534 59.329 205.007 58.4657 205.616 57.7548C206.226 57.036 206.948 56.4891 207.784 56.1141C208.628 55.7391 209.554 55.5516 210.562 55.5516C211.601 55.5516 212.538 55.7391 213.374 56.1141C214.218 56.4891 214.941 57.036 215.542 57.7548C216.152 58.4657 216.616 59.329 216.937 60.3446C217.265 61.3524 217.429 62.4969 217.429 63.7782ZM215.191 64.8563V63.7548C215.191 62.7391 215.085 61.8407 214.874 61.0594C214.671 60.2782 214.37 59.6219 213.972 59.0907C213.573 58.5594 213.085 58.1571 212.507 57.8837C211.937 57.6102 211.288 57.4735 210.562 57.4735C209.859 57.4735 209.222 57.6102 208.652 57.8837C208.089 58.1571 207.605 58.5594 207.198 59.0907C206.8 59.6219 206.491 60.2782 206.273 61.0594C206.054 61.8407 205.945 62.7391 205.945 63.7548V64.8563C205.945 65.8798 206.054 66.786 206.273 67.5751C206.491 68.3563 206.804 69.0165 207.21 69.5555C207.624 70.0868 208.112 70.4891 208.675 70.7626C209.245 71.036 209.882 71.1727 210.585 71.1727C211.32 71.1727 211.972 71.036 212.542 70.7626C213.112 70.4891 213.593 70.0868 213.984 69.5555C214.382 69.0165 214.683 68.3563 214.886 67.5751C215.089 66.786 215.191 65.8798 215.191 64.8563Z" fill="black"/>
<path d="M38.2146 18.1675C35.9222 18.1675 34.2889 19.7349 34.2889 21.8809V21.8955C34.2889 23.9023 35.7098 25.3818 37.7386 25.3818C39.1888 25.3818 40.1116 24.6421 40.4998 23.8071H40.6463C40.6463 23.8877 40.639 23.9683 40.639 24.0488C40.5584 26.0703 39.8479 27.7109 38.1707 27.7109C37.2405 27.7109 36.5887 27.2275 36.3104 26.4878L36.2884 26.4146H34.428L34.4427 26.4951C34.7796 28.1138 36.2298 29.2637 38.1707 29.2637C40.8294 29.2637 42.4334 27.1543 42.4334 23.5947V23.5801C42.4334 19.7715 40.4705 18.1675 38.2146 18.1675ZM38.2073 23.9316C37.0062 23.9316 36.1346 23.0527 36.1346 21.8296V21.8149C36.1346 20.6357 37.0647 19.7056 38.2293 19.7056C39.4012 19.7056 40.3167 20.6504 40.3167 21.8589V21.8735C40.3167 23.0674 39.4012 23.9316 38.2073 23.9316ZM45.4586 22.1519C46.1324 22.1519 46.6231 21.6392 46.6231 20.9946C46.6231 20.3428 46.1324 19.8374 45.4586 19.8374C44.7921 19.8374 44.294 20.3428 44.294 20.9946C44.294 21.6392 44.7921 22.1519 45.4586 22.1519ZM45.4586 27.5864C46.1324 27.5864 46.6231 27.0811 46.6231 26.4292C46.6231 25.7773 46.1324 25.272 45.4586 25.272C44.7921 25.272 44.294 25.7773 44.294 26.4292C44.294 27.0811 44.7921 27.5864 45.4586 27.5864ZM53.6107 29H55.4198V26.9712H56.8407V25.4111H55.4198V18.4312H52.7465C51.3109 20.6138 49.8095 23.0454 48.4398 25.4258V26.9712H53.6107V29ZM50.1977 25.4551V25.3452C51.223 23.5508 52.4462 21.5952 53.5302 19.9399H53.64V25.4551H50.1977ZM60.9206 29H62.8103V18.4312H60.9279L58.1667 20.3721V22.1519L60.7961 20.2915H60.9206V29Z" fill="black"/>
<rect opacity="0.35" x="337.833" y="18.8334" width="21" height="10.3333" rx="2.16667" stroke="black"/>
<path opacity="0.4" d="M360.333 22.0001V26.0001C361.138 25.6613 361.661 24.8732 361.661 24.0001C361.661 23.1269 361.138 22.3388 360.333 22.0001Z" fill="black"/>
<rect x="339.333" y="20.3334" width="18" height="7.33333" rx="1.33333" fill="black"/>
<path fill-rule="evenodd" clip-rule="evenodd" d="M324.667 20.6152C326.892 20.6153 329.031 21.4694 330.644 23.001C330.765 23.1192 330.959 23.1177 331.079 22.9976L332.239 21.8273C332.3 21.7664 332.334 21.6839 332.333 21.598C332.333 21.5122 332.298 21.4301 332.237 21.3699C328.005 17.3176 321.329 17.3176 317.097 21.3699C317.035 21.43 317.001 21.5121 317 21.598C316.999 21.6838 317.033 21.7663 317.094 21.8273L318.255 22.9976C318.374 23.1179 318.568 23.1194 318.69 23.001C320.302 21.4693 322.442 20.6152 324.667 20.6152ZM324.667 24.4227C325.889 24.4227 327.068 24.8766 327.974 25.6964C328.097 25.8127 328.29 25.8102 328.409 25.6907L329.569 24.5204C329.63 24.459 329.663 24.3757 329.663 24.2892C329.662 24.2027 329.626 24.1201 329.564 24.0599C326.805 21.4955 322.532 21.4955 319.773 24.0599C319.71 24.1201 319.675 24.2027 319.674 24.2893C319.673 24.3758 319.707 24.4591 319.768 24.5204L320.927 25.6907C321.047 25.8102 321.24 25.8127 321.362 25.6964C322.268 24.8772 323.446 24.4233 324.667 24.4227ZM326.989 26.9846C326.991 27.0714 326.957 27.155 326.895 27.2158L324.89 29.2378C324.831 29.2972 324.751 29.3307 324.667 29.3307C324.583 29.3307 324.503 29.2972 324.445 29.2378L322.439 27.2158C322.377 27.155 322.343 27.0713 322.345 26.9845C322.347 26.8977 322.384 26.8156 322.449 26.7574C323.729 25.6751 325.605 25.6751 326.886 26.7574C326.95 26.8156 326.988 26.8978 326.989 26.9846Z" fill="black"/>
<path fill-rule="evenodd" clip-rule="evenodd" d="M311 18.6666H310C309.448 18.6666 309 19.1143 309 19.6666V28.3333C309 28.8856 309.448 29.3333 310 29.3333H311C311.552 29.3333 312 28.8856 312 28.3333V19.6666C312 19.1143 311.552 18.6666 311 18.6666ZM305.333 21H306.333C306.886 21 307.333 21.4477 307.333 22V28.3333C307.333 28.8856 306.886 29.3333 306.333 29.3333H305.333C304.781 29.3333 304.333 28.8856 304.333 28.3333V22C304.333 21.4477 304.781 21 305.333 21ZM301.667 23.3333H300.667C300.114 23.3333 299.667 23.781 299.667 24.3333V28.3333C299.667 28.8856 300.114 29.3333 300.667 29.3333H301.667C302.219 29.3333 302.667 28.8856 302.667 28.3333V24.3333C302.667 23.781 302.219 23.3333 301.667 23.3333ZM297 25.3333H296C295.448 25.3333 295 25.781 295 26.3333V28.3333C295 28.8856 295.448 29.3333 296 29.3333H297C297.552 29.3333 298 28.8856 298 28.3333V26.3333C298 25.781 297.552 25.3333 297 25.3333Z" fill="black"/>
</g>
<rect x="0.5" y="0.5" width="376" height="813" stroke="black"/>
<defs>
<clipPath id="clip0_7_694">
<rect x="1" y="1" width="375" height="812" fill="white"/>
</clipPath>
</defs>
</svg>
