<svg width="377" height="814" viewBox="0 0 377 814" fill="none" xmlns="http://www.w3.org/2000/svg">
<g clip-path="url(#clip0_7_808)">
<rect x="1" y="1" width="375" height="812" fill="white"/>
<path d="M65.2146 18.1675C62.9222 18.1675 61.2889 19.7349 61.2889 21.8809V21.8955C61.2889 23.9023 62.7098 25.3818 64.7386 25.3818C66.1888 25.3818 67.1116 24.6421 67.4998 23.8071H67.6463C67.6463 23.8877 67.639 23.9683 67.639 24.0488C67.5584 26.0703 66.8479 27.7109 65.1707 27.7109C64.2405 27.7109 63.5887 27.2275 63.3104 26.4878L63.2884 26.4146H61.428L61.4427 26.4951C61.7796 28.1138 63.2298 29.2637 65.1707 29.2637C67.8294 29.2637 69.4334 27.1543 69.4334 23.5947V23.5801C69.4334 19.7715 67.4705 18.1675 65.2146 18.1675ZM65.2073 23.9316C64.0062 23.9316 63.1346 23.0527 63.1346 21.8296V21.8149C63.1346 20.6357 64.0647 19.7056 65.2293 19.7056C66.4012 19.7056 67.3167 20.6504 67.3167 21.8589V21.8735C67.3167 23.0674 66.4012 23.9316 65.2073 23.9316ZM72.4586 22.1519C73.1324 22.1519 73.6231 21.6392 73.6231 20.9946C73.6231 20.3428 73.1324 19.8374 72.4586 19.8374C71.7921 19.8374 71.294 20.3428 71.294 20.9946C71.294 21.6392 71.7921 22.1519 72.4586 22.1519ZM72.4586 27.5864C73.1324 27.5864 73.6231 27.0811 73.6231 26.4292C73.6231 25.7773 73.1324 25.272 72.4586 25.272C71.7921 25.272 71.294 25.7773 71.294 26.4292C71.294 27.0811 71.7921 27.5864 72.4586 27.5864ZM80.6107 29H82.4198V26.9712H83.8407V25.4111H82.4198V18.4312H79.7465C78.3109 20.6138 76.8095 23.0454 75.4398 25.4258V26.9712H80.6107V29ZM77.1977 25.4551V25.3452C78.223 23.5508 79.4462 21.5952 80.5302 19.9399H80.64V25.4551H77.1977ZM87.9206 29H89.8103V18.4312H87.9279L85.1667 20.3721V22.1519L87.7961 20.2915H87.9206V29Z" fill="black"/>
<rect opacity="0.35" x="337.833" y="18.8333" width="21" height="10.3333" rx="2.16667" stroke="black"/>
<path opacity="0.4" d="M360.333 22V26C361.138 25.6612 361.661 24.8731 361.661 24C361.661 23.1269 361.138 22.3388 360.333 22Z" fill="black"/>
<rect x="339.333" y="20.3333" width="18" height="7.33333" rx="1.33333" fill="black"/>
<path fill-rule="evenodd" clip-rule="evenodd" d="M324.667 20.615C326.892 20.6151 329.031 21.4693 330.644 23.0008C330.765 23.1191 330.959 23.1176 331.079 22.9975L332.239 21.8272C332.3 21.7663 332.334 21.6837 332.333 21.5979C332.333 21.5121 332.298 21.4299 332.237 21.3697C328.005 17.3175 321.329 17.3175 317.097 21.3697C317.035 21.4299 317.001 21.512 317 21.5978C316.999 21.6837 317.033 21.7662 317.094 21.8272L318.255 22.9975C318.374 23.1178 318.568 23.1193 318.69 23.0008C320.302 21.4692 322.442 20.615 324.667 20.615ZM324.667 24.4226C325.889 24.4226 327.068 24.8765 327.974 25.6963C328.097 25.8126 328.29 25.8101 328.409 25.6906L329.569 24.5203C329.63 24.4589 329.663 24.3756 329.663 24.2891C329.662 24.2025 329.626 24.12 329.564 24.0598C326.805 21.4954 322.532 21.4954 319.773 24.0598C319.71 24.12 319.675 24.2026 319.674 24.2891C319.673 24.3757 319.707 24.459 319.768 24.5203L320.927 25.6906C321.047 25.8101 321.24 25.8126 321.362 25.6963C322.268 24.877 323.446 24.4231 324.667 24.4226ZM326.989 26.9845C326.991 27.0712 326.957 27.1549 326.895 27.2157L324.89 29.2377C324.831 29.2971 324.751 29.3306 324.667 29.3306C324.583 29.3306 324.503 29.2971 324.445 29.2377L322.439 27.2157C322.377 27.1549 322.343 27.0712 322.345 26.9844C322.347 26.8976 322.384 26.8154 322.449 26.7573C323.729 25.675 325.605 25.675 326.886 26.7573C326.95 26.8155 326.988 26.8977 326.989 26.9845Z" fill="black"/>
<path fill-rule="evenodd" clip-rule="evenodd" d="M311 18.6667H310C309.448 18.6667 309 19.1145 309 19.6667V28.3334C309 28.8857 309.448 29.3334 310 29.3334H311C311.552 29.3334 312 28.8857 312 28.3334V19.6667C312 19.1145 311.552 18.6667 311 18.6667ZM305.333 21.0001H306.333C306.886 21.0001 307.333 21.4478 307.333 22.0001V28.3334C307.333 28.8857 306.886 29.3334 306.333 29.3334H305.333C304.781 29.3334 304.333 28.8857 304.333 28.3334V22.0001C304.333 21.4478 304.781 21.0001 305.333 21.0001ZM301.667 23.3334H300.667C300.114 23.3334 299.667 23.7811 299.667 24.3334V28.3334C299.667 28.8857 300.114 29.3334 300.667 29.3334H301.667C302.219 29.3334 302.667 28.8857 302.667 28.3334V24.3334C302.667 23.7811 302.219 23.3334 301.667 23.3334ZM297 25.3334H296C295.448 25.3334 295 25.7811 295 26.3334V28.3334C295 28.8857 295.448 29.3334 296 29.3334H297C297.552 29.3334 298 28.8857 298 28.3334V26.3334C298 25.7811 297.552 25.3334 297 25.3334Z" fill="black"/>
<path d="M20 326C20 317.716 26.7157 311 35 311H342C350.284 311 357 317.716 357 326V489C357 497.284 350.284 504 342 504H35C26.7157 504 20 497.284 20 489V326Z" fill="#C4C4C4"/>
<path d="M20.5 429.089H188V503.5H35C26.9919 503.5 20.5 497.008 20.5 489V429.089Z" fill="#C4C4C4" stroke="#7D7D7D"/>
<path d="M90.4406 474.589H93.4523V467.921L99.382 457.679H96.0773L92.0461 464.933H91.8469L87.8156 457.679H84.5109L90.4406 467.921V474.589ZM105.012 474.847C108.492 474.847 110.203 472.843 110.613 471.191L110.648 471.085H107.871L107.836 471.167C107.555 471.753 106.652 472.55 105.07 472.55C103.09 472.55 101.848 471.214 101.812 468.917H110.766V467.957C110.766 464.089 108.516 461.535 104.871 461.535C101.227 461.535 98.8945 464.171 98.8945 468.203V468.214C98.8945 472.292 101.203 474.847 105.012 474.847ZM104.906 463.82C106.535 463.82 107.719 464.863 107.918 466.96H101.836C102.059 464.921 103.277 463.82 104.906 463.82ZM118.223 474.847C121.376 474.847 123.661 473.218 123.661 470.781V470.757C123.661 468.894 122.477 467.828 119.97 467.265L117.895 466.808C116.512 466.492 115.973 466.035 115.973 465.285V465.273C115.973 464.312 116.911 463.679 118.212 463.679C119.583 463.679 120.427 464.335 120.637 465.144L120.649 465.179H123.391V465.156C123.204 463.082 121.341 461.535 118.223 461.535C115.2 461.535 113.091 463.128 113.091 465.437V465.449C113.091 467.335 114.251 468.484 116.688 469.023L118.762 469.492C120.169 469.808 120.731 470.3 120.731 471.05V471.074C120.731 472.035 119.723 472.691 118.27 472.691C116.817 472.691 115.962 472.07 115.657 471.179L115.645 471.156H112.751V471.179C112.997 473.347 114.966 474.847 118.223 474.847Z" fill="black"/>
<path d="M189 429.089H356.5V489C356.5 497.008 350.008 503.5 342 503.5H189V429.089Z" fill="#C4C4C4" stroke="#7D7D7D"/>
<path d="M258.568 474.589H261.486V462.941H261.673L269.982 474.589H272.595V457.679H269.689V469.328H269.502L261.193 457.679H258.568V474.589ZM281.705 474.847C285.538 474.847 287.87 472.339 287.87 468.191V468.167C287.87 464.042 285.526 461.535 281.705 461.535C277.897 461.535 275.541 464.054 275.541 468.167V468.191C275.541 472.339 277.862 474.847 281.705 474.847ZM281.705 472.48C279.678 472.48 278.518 470.898 278.518 468.203V468.179C278.518 465.484 279.678 463.89 281.705 463.89C283.721 463.89 284.881 465.484 284.881 468.179V468.203C284.881 470.898 283.733 472.48 281.705 472.48Z" fill="black"/>
<path d="M65.3625 355.395C63.4328 354.84 62.0266 354.16 61.1438 353.355C60.2688 352.543 59.8313 351.543 59.8313 350.355C59.8313 349.012 60.3664 347.902 61.4367 347.027C62.5148 346.145 63.9133 345.703 65.632 345.703C66.8039 345.703 67.8469 345.93 68.7609 346.383C69.6828 346.836 70.3938 347.461 70.8938 348.258C71.4016 349.055 71.6555 349.926 71.6555 350.871H69.3938C69.3938 349.84 69.0656 349.031 68.4094 348.445C67.7531 347.852 66.8273 347.555 65.632 347.555C64.5227 347.555 63.6555 347.801 63.0305 348.293C62.4133 348.777 62.1047 349.453 62.1047 350.32C62.1047 351.016 62.3977 351.605 62.9836 352.09C63.5773 352.566 64.5813 353.004 65.9953 353.402C67.4172 353.801 68.5266 354.242 69.3234 354.727C70.1281 355.203 70.7219 355.762 71.1047 356.402C71.4953 357.043 71.6906 357.797 71.6906 358.664C71.6906 360.047 71.1516 361.156 70.0734 361.992C68.9953 362.82 67.5539 363.234 65.7492 363.234C64.5773 363.234 63.4836 363.012 62.468 362.566C61.4523 362.113 60.6672 361.496 60.1125 360.715C59.5656 359.934 59.2922 359.047 59.2922 358.055H61.5539C61.5539 359.086 61.9328 359.902 62.6906 360.504C63.4563 361.098 64.4758 361.395 65.7492 361.395C66.9367 361.395 67.8469 361.152 68.4797 360.668C69.1125 360.184 69.4289 359.523 69.4289 358.688C69.4289 357.852 69.1359 357.207 68.55 356.754C67.9641 356.293 66.9016 355.84 65.3625 355.395ZM76.8867 347.25V350.32H79.2539V351.996H76.8867V359.859C76.8867 360.367 76.9922 360.75 77.2031 361.008C77.4141 361.258 77.7734 361.383 78.2813 361.383C78.5313 361.383 78.875 361.336 79.3125 361.242V363C78.7422 363.156 78.1875 363.234 77.6484 363.234C76.6797 363.234 75.9492 362.941 75.457 362.355C74.9648 361.77 74.7188 360.938 74.7188 359.859V351.996H72.4102V350.32H74.7188V347.25H76.8867ZM87.6258 352.266C87.2977 352.211 86.9422 352.184 86.5594 352.184C85.1375 352.184 84.1727 352.789 83.6648 354V363H81.4969V350.32H83.6063L83.6414 351.785C84.3523 350.652 85.3602 350.086 86.6648 350.086C87.0867 350.086 87.407 350.141 87.6258 350.25V352.266ZM94.357 363.234C92.6383 363.234 91.2398 362.672 90.1617 361.547C89.0836 360.414 88.5445 358.902 88.5445 357.012V356.613C88.5445 355.355 88.7828 354.234 89.2594 353.25C89.7438 352.258 90.4156 351.484 91.275 350.93C92.1422 350.367 93.0797 350.086 94.0875 350.086C95.7359 350.086 97.0172 350.629 97.9313 351.715C98.8453 352.801 99.3023 354.355 99.3023 356.379V357.281H90.7125C90.7438 358.531 91.107 359.543 91.8023 360.316C92.5055 361.082 93.3961 361.465 94.4742 361.465C95.2398 361.465 95.8883 361.309 96.4195 360.996C96.9508 360.684 97.4156 360.27 97.8141 359.754L99.1383 360.785C98.0758 362.418 96.482 363.234 94.357 363.234ZM94.0875 351.867C93.2125 351.867 92.4781 352.188 91.8844 352.828C91.2906 353.461 90.9234 354.352 90.7828 355.5H97.1344V355.336C97.0719 354.234 96.775 353.383 96.2438 352.781C95.7125 352.172 94.9938 351.867 94.0875 351.867ZM109.35 363C109.225 362.75 109.123 362.305 109.045 361.664C108.038 362.711 106.834 363.234 105.436 363.234C104.186 363.234 103.159 362.883 102.354 362.18C101.557 361.469 101.159 360.57 101.159 359.484C101.159 358.164 101.659 357.141 102.659 356.414C103.666 355.68 105.08 355.312 106.901 355.312H109.01V354.316C109.01 353.559 108.784 352.957 108.33 352.512C107.877 352.059 107.209 351.832 106.327 351.832C105.553 351.832 104.905 352.027 104.381 352.418C103.858 352.809 103.596 353.281 103.596 353.836H101.416C101.416 353.203 101.639 352.594 102.084 352.008C102.538 351.414 103.147 350.945 103.913 350.602C104.686 350.258 105.534 350.086 106.455 350.086C107.916 350.086 109.061 350.453 109.889 351.188C110.717 351.914 111.147 352.918 111.178 354.199V360.035C111.178 361.199 111.327 362.125 111.623 362.812V363H109.35ZM105.752 361.348C106.432 361.348 107.077 361.172 107.686 360.82C108.295 360.469 108.737 360.012 109.01 359.449V356.848H107.311C104.655 356.848 103.327 357.625 103.327 359.18C103.327 359.859 103.553 360.391 104.006 360.773C104.459 361.156 105.041 361.348 105.752 361.348ZM116.316 350.32L116.374 351.727C117.304 350.633 118.558 350.086 120.136 350.086C121.909 350.086 123.116 350.766 123.757 352.125C124.179 351.516 124.726 351.023 125.398 350.648C126.077 350.273 126.878 350.086 127.8 350.086C130.581 350.086 131.995 351.559 132.042 354.504V363H129.874V354.633C129.874 353.727 129.667 353.051 129.253 352.605C128.839 352.152 128.144 351.926 127.167 351.926C126.363 351.926 125.695 352.168 125.163 352.652C124.632 353.129 124.323 353.773 124.238 354.586V363H122.058V354.691C122.058 352.848 121.155 351.926 119.351 351.926C117.929 351.926 116.956 352.531 116.433 353.742V363H114.265V350.32H116.316ZM141.012 360.012L145.887 345.938H148.348L142.02 363H140.027L133.711 345.938H136.16L141.012 360.012ZM157.505 361.746C156.661 362.738 155.423 363.234 153.79 363.234C152.438 363.234 151.407 362.844 150.696 362.062C149.993 361.273 149.638 360.109 149.63 358.57V350.32H151.798V358.512C151.798 360.434 152.579 361.395 154.141 361.395C155.798 361.395 156.899 360.777 157.446 359.543V350.32H159.614V363H157.552L157.505 361.746ZM179.498 360.012L181.936 350.32H184.104L180.413 363H178.655L175.573 353.391L172.573 363H170.815L167.135 350.32H169.291L171.788 359.812L174.741 350.32H176.487L179.498 360.012ZM193.847 363C193.722 362.75 193.62 362.305 193.542 361.664C192.534 362.711 191.331 363.234 189.933 363.234C188.683 363.234 187.655 362.883 186.851 362.18C186.054 361.469 185.655 360.57 185.655 359.484C185.655 358.164 186.155 357.141 187.155 356.414C188.163 355.68 189.577 355.312 191.398 355.312H193.507V354.316C193.507 353.559 193.28 352.957 192.827 352.512C192.374 352.059 191.706 351.832 190.823 351.832C190.05 351.832 189.402 352.027 188.878 352.418C188.355 352.809 188.093 353.281 188.093 353.836H185.913C185.913 353.203 186.136 352.594 186.581 352.008C187.034 351.414 187.644 350.945 188.409 350.602C189.183 350.258 190.03 350.086 190.952 350.086C192.413 350.086 193.558 350.453 194.386 351.188C195.214 351.914 195.644 352.918 195.675 354.199V360.035C195.675 361.199 195.823 362.125 196.12 362.812V363H193.847ZM190.249 361.348C190.929 361.348 191.573 361.172 192.183 360.82C192.792 360.469 193.234 360.012 193.507 359.449V356.848H191.808C189.152 356.848 187.823 357.625 187.823 359.18C187.823 359.859 188.05 360.391 188.503 360.773C188.956 361.156 189.538 361.348 190.249 361.348ZM200.824 350.32L200.895 351.914C201.863 350.695 203.129 350.086 204.691 350.086C207.371 350.086 208.723 351.598 208.746 354.621V363H206.578V354.609C206.57 353.695 206.359 353.02 205.945 352.582C205.539 352.145 204.902 351.926 204.035 351.926C203.332 351.926 202.715 352.113 202.184 352.488C201.652 352.863 201.238 353.355 200.941 353.965V363H198.773V350.32H200.824ZM214.657 347.25V350.32H217.024V351.996H214.657V359.859C214.657 360.367 214.762 360.75 214.973 361.008C215.184 361.258 215.544 361.383 216.052 361.383C216.302 361.383 216.645 361.336 217.083 361.242V363C216.512 363.156 215.958 363.234 215.419 363.234C214.45 363.234 213.72 362.941 213.227 362.355C212.735 361.77 212.489 360.938 212.489 359.859V351.996H210.18V350.32H212.489V347.25H214.657ZM226.65 359.637C226.65 359.051 226.427 358.598 225.982 358.277C225.545 357.949 224.775 357.668 223.673 357.434C222.58 357.199 221.709 356.918 221.06 356.59C220.42 356.262 219.943 355.871 219.63 355.418C219.326 354.965 219.173 354.426 219.173 353.801C219.173 352.762 219.611 351.883 220.486 351.164C221.369 350.445 222.494 350.086 223.861 350.086C225.298 350.086 226.463 350.457 227.353 351.199C228.252 351.941 228.701 352.891 228.701 354.047H226.521C226.521 353.453 226.267 352.941 225.759 352.512C225.259 352.082 224.627 351.867 223.861 351.867C223.072 351.867 222.455 352.039 222.009 352.383C221.564 352.727 221.341 353.176 221.341 353.73C221.341 354.254 221.548 354.648 221.963 354.914C222.377 355.18 223.123 355.434 224.201 355.676C225.287 355.918 226.166 356.207 226.838 356.543C227.509 356.879 228.005 357.285 228.326 357.762C228.654 358.23 228.818 358.805 228.818 359.484C228.818 360.617 228.365 361.527 227.459 362.215C226.552 362.895 225.377 363.234 223.931 363.234C222.916 363.234 222.017 363.055 221.236 362.695C220.455 362.336 219.841 361.836 219.396 361.195C218.959 360.547 218.74 359.848 218.74 359.098H220.908C220.947 359.824 221.236 360.402 221.775 360.832C222.322 361.254 223.041 361.465 223.931 361.465C224.752 361.465 225.408 361.301 225.9 360.973C226.4 360.637 226.65 360.191 226.65 359.637ZM239.937 347.25V350.32H242.304V351.996H239.937V359.859C239.937 360.367 240.042 360.75 240.253 361.008C240.464 361.258 240.823 361.383 241.331 361.383C241.581 361.383 241.925 361.336 242.363 361.242V363C241.792 363.156 241.238 363.234 240.698 363.234C239.73 363.234 238.999 362.941 238.507 362.355C238.015 361.77 237.769 360.938 237.769 359.859V351.996H235.46V350.32H237.769V347.25H239.937ZM243.738 356.543C243.738 355.301 243.98 354.184 244.465 353.191C244.957 352.199 245.637 351.434 246.504 350.895C247.379 350.355 248.375 350.086 249.492 350.086C251.219 350.086 252.613 350.684 253.676 351.879C254.746 353.074 255.281 354.664 255.281 356.648V356.801C255.281 358.035 255.043 359.145 254.566 360.129C254.098 361.105 253.422 361.867 252.539 362.414C251.664 362.961 250.656 363.234 249.516 363.234C247.797 363.234 246.402 362.637 245.332 361.441C244.27 360.246 243.738 358.664 243.738 356.695V356.543ZM245.918 356.801C245.918 358.207 246.242 359.336 246.891 360.188C247.547 361.039 248.422 361.465 249.516 361.465C250.617 361.465 251.492 361.035 252.141 360.176C252.789 359.309 253.113 358.098 253.113 356.543C253.113 355.152 252.781 354.027 252.117 353.168C251.461 352.301 250.586 351.867 249.492 351.867C248.422 351.867 247.559 352.293 246.902 353.145C246.246 353.996 245.918 355.215 245.918 356.801ZM262.779 356.543C262.779 355.301 263.021 354.184 263.505 353.191C263.998 352.199 264.677 351.434 265.545 350.895C266.42 350.355 267.416 350.086 268.533 350.086C270.259 350.086 271.654 350.684 272.716 351.879C273.787 353.074 274.322 354.664 274.322 356.648V356.801C274.322 358.035 274.084 359.145 273.607 360.129C273.138 361.105 272.463 361.867 271.58 362.414C270.705 362.961 269.697 363.234 268.556 363.234C266.838 363.234 265.443 362.637 264.373 361.441C263.31 360.246 262.779 358.664 262.779 356.695V356.543ZM264.959 356.801C264.959 358.207 265.283 359.336 265.931 360.188C266.588 361.039 267.463 361.465 268.556 361.465C269.658 361.465 270.533 361.035 271.181 360.176C271.83 359.309 272.154 358.098 272.154 356.543C272.154 355.152 271.822 354.027 271.158 353.168C270.502 352.301 269.627 351.867 268.533 351.867C267.463 351.867 266.599 352.293 265.943 353.145C265.287 353.996 264.959 355.215 264.959 356.801ZM287.452 356.801C287.452 358.73 287.01 360.285 286.127 361.465C285.245 362.645 284.049 363.234 282.541 363.234C281.002 363.234 279.791 362.746 278.909 361.77V367.875H276.741V350.32H278.721L278.827 351.727C279.709 350.633 280.936 350.086 282.506 350.086C284.03 350.086 285.233 350.66 286.116 351.809C287.006 352.957 287.452 354.555 287.452 356.602V356.801ZM285.284 356.555C285.284 355.125 284.979 353.996 284.37 353.168C283.76 352.34 282.924 351.926 281.862 351.926C280.549 351.926 279.565 352.508 278.909 353.672V359.73C279.557 360.887 280.549 361.465 281.885 361.465C282.924 361.465 283.748 361.055 284.358 360.234C284.975 359.406 285.284 358.18 285.284 356.555ZM295.179 363.234C293.46 363.234 292.062 362.672 290.984 361.547C289.905 360.414 289.366 358.902 289.366 357.012V356.613C289.366 355.355 289.605 354.234 290.081 353.25C290.566 352.258 291.237 351.484 292.097 350.93C292.964 350.367 293.902 350.086 294.909 350.086C296.558 350.086 297.839 350.629 298.753 351.715C299.667 352.801 300.124 354.355 300.124 356.379V357.281H291.534C291.566 358.531 291.929 359.543 292.624 360.316C293.327 361.082 294.218 361.465 295.296 361.465C296.062 361.465 296.71 361.309 297.241 360.996C297.773 360.684 298.237 360.27 298.636 359.754L299.96 360.785C298.898 362.418 297.304 363.234 295.179 363.234ZM294.909 351.867C294.034 351.867 293.3 352.188 292.706 352.828C292.112 353.461 291.745 354.352 291.605 355.5H297.956V355.336C297.894 354.234 297.597 353.383 297.066 352.781C296.534 352.172 295.816 351.867 294.909 351.867ZM304.395 350.32L304.465 351.914C305.434 350.695 306.699 350.086 308.262 350.086C310.941 350.086 312.293 351.598 312.316 354.621V363H310.148V354.609C310.141 353.695 309.93 353.02 309.516 352.582C309.109 352.145 308.473 351.926 307.605 351.926C306.902 351.926 306.285 352.113 305.754 352.488C305.223 352.863 304.809 353.355 304.512 353.965V363H302.344V350.32H304.395ZM76.7742 391H74.5125L65.9227 377.852V391H63.6609V373.938H65.9227L74.5359 387.145V373.938H76.7742V391ZM85.3922 391.234C83.6734 391.234 82.275 390.672 81.1969 389.547C80.1187 388.414 79.5797 386.902 79.5797 385.012V384.613C79.5797 383.355 79.818 382.234 80.2945 381.25C80.7789 380.258 81.4508 379.484 82.3102 378.93C83.1773 378.367 84.1148 378.086 85.1227 378.086C86.7711 378.086 88.0523 378.629 88.9664 379.715C89.8805 380.801 90.3375 382.355 90.3375 384.379V385.281H81.7477C81.7789 386.531 82.1422 387.543 82.8375 388.316C83.5406 389.082 84.4312 389.465 85.5094 389.465C86.275 389.465 86.9234 389.309 87.4547 388.996C87.9859 388.684 88.4508 388.27 88.8492 387.754L90.1734 388.785C89.1109 390.418 87.5172 391.234 85.3922 391.234ZM85.1227 379.867C84.2477 379.867 83.5133 380.188 82.9195 380.828C82.3258 381.461 81.9586 382.352 81.818 383.5H88.1695V383.336C88.107 382.234 87.8102 381.383 87.2789 380.781C86.7477 380.172 86.0289 379.867 85.1227 379.867ZM95.4984 375.25V378.32H97.8656V379.996H95.4984V387.859C95.4984 388.367 95.6039 388.75 95.8148 389.008C96.0258 389.258 96.3852 389.383 96.893 389.383C97.143 389.383 97.4867 389.336 97.9242 389.242V391C97.3539 391.156 96.7992 391.234 96.2602 391.234C95.2914 391.234 94.5609 390.941 94.0687 390.355C93.5766 389.77 93.3305 388.938 93.3305 387.859V379.996H91.0219V378.32H93.3305V375.25H95.4984ZM101.175 391V379.996H99.1711V378.32H101.175V377.02C101.175 375.66 101.538 374.609 102.265 373.867C102.991 373.125 104.019 372.754 105.347 372.754C105.847 372.754 106.343 372.82 106.835 372.953L106.718 374.711C106.351 374.641 105.96 374.605 105.546 374.605C104.843 374.605 104.3 374.812 103.917 375.227C103.534 375.633 103.343 376.219 103.343 376.984V378.32H106.05V379.996H103.343V391H101.175ZM110.508 391H108.34V373H110.508V391ZM116.044 391H113.876V378.32H116.044V391ZM113.7 374.957C113.7 374.605 113.805 374.309 114.016 374.066C114.235 373.824 114.555 373.703 114.977 373.703C115.399 373.703 115.72 373.824 115.938 374.066C116.157 374.309 116.266 374.605 116.266 374.957C116.266 375.309 116.157 375.602 115.938 375.836C115.72 376.07 115.399 376.188 114.977 376.188C114.555 376.188 114.235 376.07 114.016 375.836C113.805 375.602 113.7 375.309 113.7 374.957ZM123.478 382.949L126.291 378.32H128.822L124.673 384.59L128.951 391H126.443L123.513 386.254L120.584 391H118.064L122.341 384.59L118.193 378.32H120.701L123.478 382.949ZM130.877 389.863C130.877 389.488 130.987 389.176 131.205 388.926C131.432 388.676 131.768 388.551 132.213 388.551C132.659 388.551 132.995 388.676 133.221 388.926C133.455 389.176 133.573 389.488 133.573 389.863C133.573 390.223 133.455 390.523 133.221 390.766C132.995 391.008 132.659 391.129 132.213 391.129C131.768 391.129 131.432 391.008 131.205 390.766C130.987 390.523 130.877 390.223 130.877 389.863ZM142.852 391V373.938H147.668C149.152 373.938 150.465 374.266 151.605 374.922C152.746 375.578 153.625 376.512 154.242 377.723C154.867 378.934 155.184 380.324 155.191 381.895V382.984C155.191 384.594 154.879 386.004 154.254 387.215C153.637 388.426 152.75 389.355 151.594 390.004C150.445 390.652 149.105 390.984 147.574 391H142.852ZM145.102 375.789V389.16H147.469C149.203 389.16 150.551 388.621 151.512 387.543C152.48 386.465 152.965 384.93 152.965 382.938V381.941C152.965 380.004 152.508 378.5 151.594 377.43C150.688 376.352 149.398 375.805 147.727 375.789H145.102ZM157.387 384.543C157.387 383.301 157.63 382.184 158.114 381.191C158.606 380.199 159.286 379.434 160.153 378.895C161.028 378.355 162.024 378.086 163.141 378.086C164.868 378.086 166.262 378.684 167.325 379.879C168.395 381.074 168.93 382.664 168.93 384.648V384.801C168.93 386.035 168.692 387.145 168.216 388.129C167.747 389.105 167.071 389.867 166.188 390.414C165.313 390.961 164.305 391.234 163.165 391.234C161.446 391.234 160.052 390.637 158.981 389.441C157.919 388.246 157.387 386.664 157.387 384.695V384.543ZM159.567 384.801C159.567 386.207 159.891 387.336 160.54 388.188C161.196 389.039 162.071 389.465 163.165 389.465C164.266 389.465 165.141 389.035 165.79 388.176C166.438 387.309 166.762 386.098 166.762 384.543C166.762 383.152 166.43 382.027 165.766 381.168C165.11 380.301 164.235 379.867 163.141 379.867C162.071 379.867 161.208 380.293 160.552 381.145C159.895 381.996 159.567 383.215 159.567 384.801ZM181.151 387.824L184.104 378.32H186.424L181.327 392.957C180.538 395.066 179.284 396.121 177.565 396.121L177.155 396.086L176.346 395.934V394.176L176.932 394.223C177.666 394.223 178.237 394.074 178.643 393.777C179.057 393.48 179.397 392.938 179.663 392.148L180.143 390.859L175.62 378.32H177.987L181.151 387.824ZM187.308 384.543C187.308 383.301 187.55 382.184 188.034 381.191C188.527 380.199 189.206 379.434 190.073 378.895C190.948 378.355 191.945 378.086 193.062 378.086C194.788 378.086 196.183 378.684 197.245 379.879C198.316 381.074 198.851 382.664 198.851 384.648V384.801C198.851 386.035 198.612 387.145 198.136 388.129C197.667 389.105 196.991 389.867 196.109 390.414C195.234 390.961 194.226 391.234 193.085 391.234C191.366 391.234 189.972 390.637 188.902 389.441C187.839 388.246 187.308 386.664 187.308 384.695V384.543ZM189.487 384.801C189.487 386.207 189.812 387.336 190.46 388.188C191.116 389.039 191.991 389.465 193.085 389.465C194.187 389.465 195.062 389.035 195.71 388.176C196.359 387.309 196.683 386.098 196.683 384.543C196.683 383.152 196.351 382.027 195.687 381.168C195.03 380.301 194.155 379.867 193.062 379.867C191.991 379.867 191.128 380.293 190.472 381.145C189.816 381.996 189.487 383.215 189.487 384.801ZM209.098 389.746C208.254 390.738 207.016 391.234 205.383 391.234C204.031 391.234 203 390.844 202.289 390.062C201.586 389.273 201.23 388.109 201.223 386.57V378.32H203.391V386.512C203.391 388.434 204.172 389.395 205.734 389.395C207.391 389.395 208.492 388.777 209.039 387.543V378.32H211.207V391H209.145L209.098 389.746ZM224.951 389.465C225.724 389.465 226.4 389.23 226.978 388.762C227.556 388.293 227.877 387.707 227.939 387.004H229.99C229.951 387.73 229.701 388.422 229.24 389.078C228.779 389.734 228.162 390.258 227.388 390.648C226.623 391.039 225.81 391.234 224.951 391.234C223.224 391.234 221.849 390.66 220.826 389.512C219.81 388.355 219.302 386.777 219.302 384.777V384.414C219.302 383.18 219.529 382.082 219.982 381.121C220.435 380.16 221.084 379.414 221.927 378.883C222.779 378.352 223.783 378.086 224.939 378.086C226.361 378.086 227.541 378.512 228.478 379.363C229.423 380.215 229.927 381.32 229.99 382.68H227.939C227.877 381.859 227.564 381.188 227.002 380.664C226.447 380.133 225.759 379.867 224.939 379.867C223.837 379.867 222.982 380.266 222.373 381.062C221.771 381.852 221.47 382.996 221.47 384.496V384.906C221.47 386.367 221.771 387.492 222.373 388.281C222.974 389.07 223.834 389.465 224.951 389.465ZM231.553 384.543C231.553 383.301 231.795 382.184 232.28 381.191C232.772 380.199 233.452 379.434 234.319 378.895C235.194 378.355 236.19 378.086 237.307 378.086C239.034 378.086 240.428 378.684 241.491 379.879C242.561 381.074 243.096 382.664 243.096 384.648V384.801C243.096 386.035 242.858 387.145 242.381 388.129C241.912 389.105 241.237 389.867 240.354 390.414C239.479 390.961 238.471 391.234 237.33 391.234C235.612 391.234 234.217 390.637 233.147 389.441C232.084 388.246 231.553 386.664 231.553 384.695V384.543ZM233.733 384.801C233.733 386.207 234.057 387.336 234.705 388.188C235.362 389.039 236.237 389.465 237.33 389.465C238.432 389.465 239.307 389.035 239.955 388.176C240.604 387.309 240.928 386.098 240.928 384.543C240.928 383.152 240.596 382.027 239.932 381.168C239.276 380.301 238.401 379.867 237.307 379.867C236.237 379.867 235.373 380.293 234.717 381.145C234.061 381.996 233.733 383.215 233.733 384.801ZM247.566 378.32L247.636 379.914C248.605 378.695 249.87 378.086 251.433 378.086C254.113 378.086 255.464 379.598 255.488 382.621V391H253.32V382.609C253.312 381.695 253.101 381.02 252.687 380.582C252.28 380.145 251.644 379.926 250.777 379.926C250.073 379.926 249.456 380.113 248.925 380.488C248.394 380.863 247.98 381.355 247.683 381.965V391H245.515V378.32H247.566ZM259.523 391V379.996H257.52V378.32H259.523V377.02C259.523 375.66 259.887 374.609 260.613 373.867C261.34 373.125 262.367 372.754 263.695 372.754C264.195 372.754 264.691 372.82 265.184 372.953L265.066 374.711C264.699 374.641 264.309 374.605 263.895 374.605C263.191 374.605 262.648 374.812 262.266 375.227C261.883 375.633 261.691 376.219 261.691 376.984V378.32H264.398V379.996H261.691V391H259.523ZM268.856 391H266.688V378.32H268.856V391ZM266.512 374.957C266.512 374.605 266.618 374.309 266.829 374.066C267.048 373.824 267.368 373.703 267.79 373.703C268.212 373.703 268.532 373.824 268.751 374.066C268.97 374.309 269.079 374.605 269.079 374.957C269.079 375.309 268.97 375.602 268.751 375.836C268.532 376.07 268.212 376.188 267.79 376.188C267.368 376.188 267.048 376.07 266.829 375.836C266.618 375.602 266.512 375.309 266.512 374.957ZM278.166 380.266C277.837 380.211 277.482 380.184 277.099 380.184C275.677 380.184 274.712 380.789 274.205 382V391H272.037V378.32H274.146L274.181 379.785C274.892 378.652 275.9 378.086 277.205 378.086C277.627 378.086 277.947 378.141 278.166 378.25V380.266ZM281.909 378.32L281.967 379.727C282.897 378.633 284.151 378.086 285.729 378.086C287.502 378.086 288.709 378.766 289.35 380.125C289.772 379.516 290.319 379.023 290.991 378.648C291.67 378.273 292.471 378.086 293.393 378.086C296.174 378.086 297.588 379.559 297.635 382.504V391H295.467V382.633C295.467 381.727 295.26 381.051 294.846 380.605C294.432 380.152 293.737 379.926 292.76 379.926C291.955 379.926 291.287 380.168 290.756 380.652C290.225 381.129 289.916 381.773 289.83 382.586V391H287.651V382.691C287.651 380.848 286.748 379.926 284.944 379.926C283.522 379.926 282.549 380.531 282.026 381.742V391H279.858V378.32H281.909ZM303.159 386.195C303.175 385.266 303.28 384.531 303.476 383.992C303.671 383.453 304.07 382.855 304.671 382.199L306.206 380.617C306.862 379.875 307.191 379.078 307.191 378.227C307.191 377.406 306.976 376.766 306.546 376.305C306.116 375.836 305.491 375.602 304.671 375.602C303.874 375.602 303.234 375.812 302.749 376.234C302.265 376.656 302.023 377.223 302.023 377.934H299.855C299.87 376.668 300.32 375.648 301.202 374.875C302.093 374.094 303.249 373.703 304.671 373.703C306.148 373.703 307.296 374.102 308.116 374.898C308.945 375.688 309.359 376.773 309.359 378.156C309.359 379.523 308.726 380.871 307.46 382.199L306.183 383.465C305.612 384.098 305.327 385.008 305.327 386.195H303.159ZM303.066 389.91C303.066 389.559 303.171 389.266 303.382 389.031C303.601 388.789 303.921 388.668 304.343 388.668C304.765 388.668 305.085 388.789 305.304 389.031C305.523 389.266 305.632 389.559 305.632 389.91C305.632 390.262 305.523 390.555 305.304 390.789C305.085 391.016 304.765 391.129 304.343 391.129C303.921 391.129 303.601 391.016 303.382 390.789C303.171 390.555 303.066 390.262 303.066 389.91Z" fill="black"/>
<rect x="89" y="45" width="200" height="40" fill="#C4C4C4"/>
<path d="M162.942 71.0088H171.028V72.8486H160.681V55.7861H162.942V71.0088ZM185.646 64.8682C185.646 66.54 185.365 68.001 184.802 69.251C184.24 70.4932 183.443 71.4424 182.412 72.0986C181.381 72.7549 180.177 73.083 178.802 73.083C177.459 73.083 176.267 72.7549 175.228 72.0986C174.189 71.4346 173.381 70.4932 172.802 69.2744C172.232 68.0479 171.939 66.6299 171.923 65.0205V63.79C171.923 62.1494 172.209 60.7002 172.779 59.4424C173.349 58.1846 174.154 57.2236 175.193 56.5596C176.24 55.8877 177.435 55.5518 178.779 55.5518C180.146 55.5518 181.349 55.8838 182.388 56.5479C183.435 57.2041 184.24 58.1611 184.802 59.4189C185.365 60.6689 185.646 62.126 185.646 63.79V64.8682ZM183.408 63.7666C183.408 61.7432 183.002 60.1924 182.189 59.1143C181.377 58.0283 180.24 57.4854 178.779 57.4854C177.357 57.4854 176.236 58.0283 175.416 59.1143C174.603 60.1924 174.185 61.6924 174.162 63.6143V64.8682C174.162 66.8291 174.572 68.3721 175.392 69.4971C176.22 70.6143 177.357 71.1729 178.802 71.1729C180.256 71.1729 181.381 70.6455 182.177 69.5908C182.974 68.5283 183.384 67.0088 183.408 65.0322V63.7666ZM201.319 70.6104C200.741 71.4385 199.932 72.0596 198.893 72.4736C197.862 72.8799 196.659 73.083 195.284 73.083C193.893 73.083 192.659 72.7588 191.581 72.1104C190.502 71.4541 189.666 70.5244 189.073 69.3213C188.487 68.1182 188.186 66.7236 188.17 65.1377V63.6494C188.17 61.0791 188.768 59.0869 189.963 57.6729C191.166 56.2588 192.854 55.5518 195.026 55.5518C196.807 55.5518 198.241 56.0088 199.327 56.9229C200.413 57.8291 201.077 59.1182 201.319 60.79H199.069C198.647 58.5322 197.303 57.4033 195.038 57.4033C193.53 57.4033 192.385 57.9346 191.604 58.9971C190.831 60.0518 190.44 61.583 190.432 63.5908V64.9854C190.432 66.8994 190.87 68.4229 191.745 69.5557C192.62 70.6807 193.803 71.2432 195.295 71.2432C196.139 71.2432 196.877 71.1494 197.51 70.9619C198.143 70.7744 198.666 70.458 199.081 70.0127V66.1807H195.131V64.3525H201.319V70.6104ZM217.906 64.8682C217.906 66.54 217.624 68.001 217.062 69.251C216.499 70.4932 215.702 71.4424 214.671 72.0986C213.64 72.7549 212.437 73.083 211.062 73.083C209.718 73.083 208.527 72.7549 207.488 72.0986C206.448 71.4346 205.64 70.4932 205.062 69.2744C204.491 68.0479 204.198 66.6299 204.183 65.0205V63.79C204.183 62.1494 204.468 60.7002 205.038 59.4424C205.609 58.1846 206.413 57.2236 207.452 56.5596C208.499 55.8877 209.695 55.5518 211.038 55.5518C212.406 55.5518 213.609 55.8838 214.648 56.5479C215.695 57.2041 216.499 58.1611 217.062 59.4189C217.624 60.6689 217.906 62.126 217.906 63.79V64.8682ZM215.667 63.7666C215.667 61.7432 215.261 60.1924 214.448 59.1143C213.636 58.0283 212.499 57.4854 211.038 57.4854C209.616 57.4854 208.495 58.0283 207.675 59.1143C206.863 60.1924 206.445 61.6924 206.421 63.6143V64.8682C206.421 66.8291 206.831 68.3721 207.652 69.4971C208.48 70.6143 209.616 71.1729 211.062 71.1729C212.515 71.1729 213.64 70.6455 214.437 69.5908C215.234 68.5283 215.644 67.0088 215.667 65.0322V63.7666Z" fill="black"/>
<path d="M44 85L31 98.5L44 112" stroke="black" stroke-width="5" stroke-linecap="round" stroke-linejoin="round"/>
<rect x="122" y="800" width="134" height="5" rx="2.5" fill="black"/>
<rect x="1" y="714" width="375" height="65" fill="#C4C4C4"/>
<path d="M173.461 768.484C173.461 768.252 173.424 768.047 173.352 767.869C173.283 767.687 173.16 767.523 172.982 767.377C172.809 767.231 172.568 767.092 172.258 766.96C171.952 766.828 171.565 766.693 171.096 766.557C170.604 766.411 170.159 766.249 169.763 766.071C169.366 765.889 169.027 765.682 168.744 765.449C168.462 765.217 168.245 764.95 168.095 764.649C167.944 764.349 167.869 764.005 167.869 763.617C167.869 763.23 167.949 762.872 168.108 762.544C168.268 762.216 168.496 761.931 168.792 761.689C169.093 761.443 169.451 761.252 169.865 761.115C170.28 760.979 170.743 760.91 171.253 760.91C172 760.91 172.634 761.054 173.153 761.341C173.677 761.623 174.076 761.995 174.35 762.455C174.623 762.911 174.76 763.398 174.76 763.918H173.447C173.447 763.544 173.368 763.214 173.208 762.927C173.049 762.635 172.807 762.407 172.483 762.243C172.16 762.075 171.75 761.99 171.253 761.99C170.784 761.99 170.396 762.061 170.091 762.202C169.785 762.343 169.558 762.535 169.407 762.776C169.261 763.018 169.188 763.294 169.188 763.604C169.188 763.813 169.232 764.005 169.318 764.178C169.41 764.346 169.549 764.504 169.735 764.649C169.927 764.795 170.168 764.93 170.46 765.053C170.756 765.176 171.109 765.294 171.52 765.408C172.085 765.568 172.572 765.745 172.982 765.941C173.393 766.137 173.73 766.358 173.994 766.604C174.263 766.846 174.461 767.122 174.589 767.432C174.721 767.737 174.787 768.083 174.787 768.471C174.787 768.876 174.705 769.243 174.541 769.571C174.377 769.899 174.142 770.18 173.837 770.412C173.532 770.645 173.165 770.825 172.736 770.952C172.312 771.075 171.839 771.137 171.314 771.137C170.854 771.137 170.401 771.073 169.954 770.945C169.512 770.818 169.109 770.626 168.744 770.371C168.384 770.116 168.095 769.801 167.876 769.428C167.662 769.049 167.555 768.612 167.555 768.115H168.867C168.867 768.457 168.933 768.751 169.065 768.997C169.198 769.239 169.378 769.439 169.605 769.599C169.838 769.758 170.1 769.877 170.392 769.954C170.688 770.027 170.995 770.063 171.314 770.063C171.775 770.063 172.164 770 172.483 769.872C172.802 769.744 173.044 769.562 173.208 769.325C173.377 769.088 173.461 768.808 173.461 768.484ZM179.347 771.137C178.832 771.137 178.365 771.05 177.945 770.877C177.531 770.699 177.173 770.451 176.872 770.132C176.576 769.813 176.348 769.435 176.188 768.997C176.029 768.56 175.949 768.081 175.949 767.562V767.274C175.949 766.673 176.038 766.137 176.216 765.668C176.394 765.194 176.635 764.793 176.94 764.465C177.246 764.137 177.592 763.888 177.979 763.72C178.367 763.551 178.768 763.467 179.183 763.467C179.711 763.467 180.167 763.558 180.55 763.74C180.937 763.923 181.254 764.178 181.5 764.506C181.746 764.829 181.928 765.212 182.047 765.654C182.165 766.092 182.225 766.57 182.225 767.09V767.657H176.701V766.625H180.96V766.529C180.942 766.201 180.873 765.882 180.755 765.572C180.641 765.262 180.459 765.007 180.208 764.807C179.957 764.606 179.616 764.506 179.183 764.506C178.896 764.506 178.631 764.567 178.39 764.69C178.148 764.809 177.941 764.987 177.768 765.224C177.594 765.461 177.46 765.75 177.364 766.092C177.269 766.434 177.221 766.828 177.221 767.274V767.562C177.221 767.912 177.269 768.243 177.364 768.553C177.465 768.858 177.608 769.127 177.795 769.359C177.986 769.592 178.216 769.774 178.485 769.906C178.759 770.038 179.069 770.104 179.415 770.104C179.862 770.104 180.24 770.013 180.55 769.831C180.86 769.649 181.131 769.405 181.363 769.1L182.129 769.708C181.969 769.95 181.767 770.18 181.521 770.398C181.274 770.617 180.971 770.795 180.611 770.932C180.256 771.068 179.834 771.137 179.347 771.137ZM188.062 769.735V765.928C188.062 765.636 188.003 765.383 187.885 765.169C187.771 764.95 187.598 764.782 187.365 764.663C187.133 764.545 186.846 764.485 186.504 764.485C186.185 764.485 185.905 764.54 185.663 764.649C185.426 764.759 185.239 764.902 185.103 765.08C184.97 765.258 184.904 765.449 184.904 765.654H183.64C183.64 765.39 183.708 765.128 183.845 764.868C183.981 764.608 184.177 764.374 184.433 764.164C184.692 763.95 185.002 763.781 185.362 763.658C185.727 763.531 186.132 763.467 186.579 763.467C187.117 763.467 187.591 763.558 188.001 763.74C188.416 763.923 188.739 764.198 188.972 764.567C189.209 764.932 189.327 765.39 189.327 765.941V769.387C189.327 769.633 189.348 769.895 189.389 770.173C189.434 770.451 189.5 770.69 189.587 770.891V771H188.268C188.204 770.854 188.154 770.66 188.117 770.419C188.081 770.173 188.062 769.945 188.062 769.735ZM188.281 766.516L188.295 767.404H187.017C186.657 767.404 186.335 767.434 186.053 767.493C185.77 767.548 185.533 767.632 185.342 767.746C185.15 767.86 185.005 768.004 184.904 768.177C184.804 768.345 184.754 768.544 184.754 768.771C184.754 769.004 184.806 769.216 184.911 769.407C185.016 769.599 185.173 769.751 185.383 769.865C185.597 769.975 185.859 770.029 186.169 770.029C186.556 770.029 186.898 769.947 187.194 769.783C187.491 769.619 187.725 769.419 187.898 769.182C188.076 768.945 188.172 768.715 188.186 768.491L188.726 769.1C188.694 769.291 188.607 769.503 188.466 769.735C188.325 769.968 188.135 770.191 187.898 770.405C187.666 770.615 187.388 770.79 187.064 770.932C186.745 771.068 186.385 771.137 185.984 771.137C185.483 771.137 185.043 771.039 184.665 770.843C184.291 770.647 184 770.385 183.79 770.057C183.585 769.724 183.482 769.353 183.482 768.942C183.482 768.546 183.56 768.197 183.715 767.896C183.87 767.591 184.093 767.338 184.385 767.138C184.676 766.933 185.027 766.778 185.438 766.673C185.848 766.568 186.306 766.516 186.812 766.516H188.281ZM192.581 764.766V771H191.316V763.604H192.547L192.581 764.766ZM194.892 763.562L194.885 764.738C194.78 764.715 194.68 764.702 194.584 764.697C194.493 764.688 194.388 764.684 194.27 764.684C193.978 764.684 193.72 764.729 193.497 764.82C193.274 764.911 193.085 765.039 192.93 765.203C192.775 765.367 192.652 765.563 192.561 765.791C192.474 766.014 192.417 766.26 192.39 766.529L192.034 766.734C192.034 766.288 192.077 765.868 192.164 765.477C192.255 765.085 192.394 764.738 192.581 764.438C192.768 764.132 193.005 763.895 193.292 763.727C193.584 763.553 193.93 763.467 194.331 763.467C194.422 763.467 194.527 763.478 194.646 763.501C194.764 763.519 194.846 763.54 194.892 763.562ZM198.884 770.098C199.185 770.098 199.463 770.036 199.718 769.913C199.973 769.79 200.183 769.621 200.347 769.407C200.511 769.188 200.604 768.94 200.627 768.662H201.83C201.807 769.1 201.659 769.507 201.386 769.886C201.117 770.259 200.764 770.562 200.326 770.795C199.889 771.023 199.408 771.137 198.884 771.137C198.328 771.137 197.842 771.039 197.428 770.843C197.018 770.647 196.676 770.378 196.402 770.036C196.133 769.694 195.931 769.302 195.794 768.86C195.662 768.414 195.596 767.942 195.596 767.445V767.158C195.596 766.661 195.662 766.192 195.794 765.75C195.931 765.303 196.133 764.909 196.402 764.567C196.676 764.226 197.018 763.957 197.428 763.761C197.842 763.565 198.328 763.467 198.884 763.467C199.463 763.467 199.968 763.585 200.401 763.822C200.834 764.055 201.174 764.374 201.42 764.779C201.671 765.18 201.807 765.636 201.83 766.146H200.627C200.604 765.841 200.518 765.565 200.367 765.319C200.221 765.073 200.021 764.877 199.766 764.731C199.515 764.581 199.221 764.506 198.884 764.506C198.496 764.506 198.171 764.583 197.906 764.738C197.646 764.889 197.439 765.094 197.284 765.354C197.134 765.609 197.024 765.894 196.956 766.208C196.892 766.518 196.86 766.835 196.86 767.158V767.445C196.86 767.769 196.892 768.088 196.956 768.402C197.02 768.717 197.127 769.002 197.277 769.257C197.432 769.512 197.64 769.717 197.899 769.872C198.164 770.022 198.492 770.098 198.884 770.098ZM204.517 760.5V771H203.252V760.5H204.517ZM204.216 767.021L203.689 767.001C203.694 766.495 203.769 766.028 203.915 765.6C204.061 765.167 204.266 764.791 204.53 764.472C204.795 764.153 205.109 763.907 205.474 763.733C205.843 763.556 206.251 763.467 206.697 763.467C207.062 763.467 207.39 763.517 207.682 763.617C207.973 763.713 208.222 763.868 208.427 764.082C208.636 764.296 208.796 764.574 208.905 764.916C209.015 765.253 209.069 765.666 209.069 766.153V771H207.798V766.14C207.798 765.752 207.741 765.442 207.627 765.21C207.513 764.973 207.347 764.802 207.128 764.697C206.909 764.588 206.64 764.533 206.321 764.533C206.007 764.533 205.72 764.599 205.46 764.731C205.205 764.864 204.984 765.046 204.797 765.278C204.615 765.511 204.471 765.777 204.366 766.078C204.266 766.374 204.216 766.689 204.216 767.021Z" fill="black"/>
<path d="M186.185 747.092C188.746 747.091 191.234 746.234 193.252 744.656L199.596 751L201.637 748.959L195.293 742.615C196.872 740.597 197.73 738.108 197.73 735.546C197.73 729.18 192.551 724 186.185 724C179.818 724 174.639 729.18 174.639 735.546C174.639 741.912 179.818 747.092 186.185 747.092ZM186.185 726.886C190.96 726.886 194.844 730.77 194.844 735.546C194.844 740.322 190.96 744.205 186.185 744.205C181.409 744.205 177.525 740.322 177.525 735.546C177.525 730.77 181.409 726.886 186.185 726.886Z" fill="black"/>
<path d="M188.222 733.505C188.769 734.054 189.071 734.778 189.071 735.546H191.957C191.959 734.787 191.81 734.036 191.519 733.336C191.228 732.635 190.801 731.999 190.263 731.465C188.078 729.282 184.29 729.282 182.106 731.465L184.144 733.508C185.241 732.414 187.131 732.417 188.222 733.505Z" fill="black"/>
<path d="M65.8164 765.326V766.399H60.4297V765.326H65.8164ZM60.6348 761.047V771H59.3154V761.047H60.6348ZM66.9648 761.047V771H65.6523V761.047H66.9648ZM68.7832 767.384V767.227C68.7832 766.693 68.8607 766.199 69.0156 765.743C69.1706 765.283 69.3939 764.884 69.6855 764.547C69.9772 764.205 70.3304 763.941 70.7451 763.754C71.1598 763.562 71.6247 763.467 72.1396 763.467C72.6592 763.467 73.1263 763.562 73.541 763.754C73.9603 763.941 74.3158 764.205 74.6074 764.547C74.9036 764.884 75.1292 765.283 75.2842 765.743C75.4391 766.199 75.5166 766.693 75.5166 767.227V767.384C75.5166 767.917 75.4391 768.411 75.2842 768.867C75.1292 769.323 74.9036 769.722 74.6074 770.063C74.3158 770.401 73.9626 770.665 73.5479 770.856C73.1377 771.043 72.6729 771.137 72.1533 771.137C71.6338 771.137 71.1667 771.043 70.752 770.856C70.3372 770.665 69.9818 770.401 69.6855 770.063C69.3939 769.722 69.1706 769.323 69.0156 768.867C68.8607 768.411 68.7832 767.917 68.7832 767.384ZM70.0479 767.227V767.384C70.0479 767.753 70.0911 768.102 70.1777 768.43C70.2643 768.753 70.3942 769.04 70.5674 769.291C70.7451 769.542 70.9661 769.74 71.2305 769.886C71.4948 770.027 71.8024 770.098 72.1533 770.098C72.4997 770.098 72.8027 770.027 73.0625 769.886C73.3268 769.74 73.5456 769.542 73.7188 769.291C73.8919 769.04 74.0218 768.753 74.1084 768.43C74.1995 768.102 74.2451 767.753 74.2451 767.384V767.227C74.2451 766.862 74.1995 766.518 74.1084 766.194C74.0218 765.866 73.8896 765.577 73.7119 765.326C73.5387 765.071 73.32 764.87 73.0557 764.725C72.7959 764.579 72.4906 764.506 72.1396 764.506C71.7933 764.506 71.488 764.579 71.2236 764.725C70.9639 764.87 70.7451 765.071 70.5674 765.326C70.3942 765.577 70.2643 765.866 70.1777 766.194C70.0911 766.518 70.0479 766.862 70.0479 767.227ZM78.3604 765.073V771H77.0889V763.604H78.292L78.3604 765.073ZM78.1006 767.021L77.5127 767.001C77.5173 766.495 77.5833 766.028 77.7109 765.6C77.8385 765.167 78.0277 764.791 78.2783 764.472C78.529 764.153 78.8411 763.907 79.2148 763.733C79.5885 763.556 80.0215 763.467 80.5137 763.467C80.86 763.467 81.179 763.517 81.4707 763.617C81.7624 763.713 82.0153 763.866 82.2295 764.075C82.4437 764.285 82.61 764.554 82.7285 764.882C82.847 765.21 82.9062 765.606 82.9062 766.071V771H81.6416V766.133C81.6416 765.745 81.5755 765.436 81.4434 765.203C81.3158 764.971 81.1335 764.802 80.8965 764.697C80.6595 764.588 80.3815 764.533 80.0625 764.533C79.6888 764.533 79.3766 764.599 79.126 764.731C78.8753 764.864 78.6748 765.046 78.5244 765.278C78.374 765.511 78.2646 765.777 78.1963 766.078C78.1325 766.374 78.1006 766.689 78.1006 767.021ZM82.8926 766.324L82.0449 766.584C82.0495 766.178 82.1156 765.789 82.2432 765.415C82.3753 765.041 82.5645 764.709 82.8105 764.417C83.0612 764.125 83.3688 763.895 83.7334 763.727C84.098 763.553 84.515 763.467 84.9844 763.467C85.3809 763.467 85.7318 763.519 86.0371 763.624C86.347 763.729 86.6068 763.891 86.8164 764.109C87.0306 764.324 87.1924 764.599 87.3018 764.937C87.4111 765.274 87.4658 765.675 87.4658 766.14V771H86.1943V766.126C86.1943 765.711 86.1283 765.39 85.9961 765.162C85.8685 764.93 85.6862 764.768 85.4492 764.677C85.2168 764.581 84.9388 764.533 84.6152 764.533C84.3372 764.533 84.0911 764.581 83.877 764.677C83.6628 764.772 83.4827 764.905 83.3369 765.073C83.1911 765.237 83.0794 765.426 83.002 765.641C82.929 765.855 82.8926 766.083 82.8926 766.324ZM92.4492 771.137C91.9342 771.137 91.4671 771.05 91.0479 770.877C90.6331 770.699 90.2754 770.451 89.9746 770.132C89.6784 769.813 89.4505 769.435 89.291 768.997C89.1315 768.56 89.0518 768.081 89.0518 767.562V767.274C89.0518 766.673 89.1406 766.137 89.3184 765.668C89.4961 765.194 89.7376 764.793 90.043 764.465C90.3483 764.137 90.6947 763.888 91.082 763.72C91.4694 763.551 91.8704 763.467 92.2852 763.467C92.8138 763.467 93.2695 763.558 93.6523 763.74C94.0397 763.923 94.3564 764.178 94.6025 764.506C94.8486 764.829 95.0309 765.212 95.1494 765.654C95.2679 766.092 95.3271 766.57 95.3271 767.09V767.657H89.8037V766.625H94.0625V766.529C94.0443 766.201 93.9759 765.882 93.8574 765.572C93.7435 765.262 93.5612 765.007 93.3105 764.807C93.0599 764.606 92.7181 764.506 92.2852 764.506C91.998 764.506 91.7337 764.567 91.4922 764.69C91.2507 764.809 91.0433 764.987 90.8701 765.224C90.6969 765.461 90.5625 765.75 90.4668 766.092C90.3711 766.434 90.3232 766.828 90.3232 767.274V767.562C90.3232 767.912 90.3711 768.243 90.4668 768.553C90.5671 768.858 90.7106 769.127 90.8975 769.359C91.0889 769.592 91.319 769.774 91.5879 769.906C91.8613 770.038 92.1712 770.104 92.5176 770.104C92.9642 770.104 93.3424 770.013 93.6523 769.831C93.9622 769.649 94.2334 769.405 94.4658 769.1L95.2314 769.708C95.0719 769.95 94.8691 770.18 94.623 770.398C94.377 770.617 94.0739 770.795 93.7139 770.932C93.3584 771.068 92.9368 771.137 92.4492 771.137Z" fill="black"/>
<path d="M91.5781 737.155L78.7062 724.293C78.6135 724.2 78.5035 724.126 78.3823 724.076C78.2611 724.026 78.1312 724 78 724C77.8688 724 77.7389 724.026 77.6177 724.076C77.4965 724.126 77.3864 724.2 77.2937 724.293L64.4219 737.155C64.0469 737.53 63.8344 738.04 63.8344 738.571C63.8344 739.674 64.7312 740.571 65.8344 740.571H67.1906V749.749C67.1906 750.302 67.6375 750.749 68.1906 750.749H76V743.749H79.5V750.749H87.8094C88.3625 750.749 88.8094 750.302 88.8094 749.749V740.571H90.1656C90.6968 740.571 91.2062 740.362 91.5812 739.984C92.3594 739.202 92.3594 737.937 91.5781 737.155Z" fill="black"/>
<path d="M274.9 761.047H276.179L279.439 769.161L282.693 761.047H283.979L279.932 771H278.934L274.9 761.047ZM274.483 761.047H275.611L275.796 767.117V771H274.483V761.047ZM283.261 761.047H284.389V771H283.076V767.117L283.261 761.047ZM288.593 770.234L290.65 763.604H292.004L289.037 772.142C288.969 772.324 288.878 772.52 288.764 772.729C288.654 772.944 288.513 773.146 288.34 773.338C288.167 773.529 287.957 773.684 287.711 773.803C287.469 773.926 287.18 773.987 286.843 773.987C286.743 773.987 286.615 773.974 286.46 773.946C286.305 773.919 286.196 773.896 286.132 773.878L286.125 772.853C286.161 772.857 286.218 772.862 286.296 772.866C286.378 772.875 286.435 772.88 286.467 772.88C286.754 772.88 286.998 772.841 287.198 772.764C287.399 772.691 287.567 772.565 287.704 772.388C287.845 772.215 287.966 771.975 288.066 771.67L288.593 770.234ZM287.082 763.604L289.003 769.346L289.331 770.679L288.422 771.144L285.701 763.604H287.082ZM300.48 767.097H297.821V766.023H300.48C300.995 766.023 301.412 765.941 301.731 765.777C302.05 765.613 302.283 765.385 302.429 765.094C302.579 764.802 302.654 764.469 302.654 764.096C302.654 763.754 302.579 763.433 302.429 763.132C302.283 762.831 302.05 762.59 301.731 762.407C301.412 762.22 300.995 762.127 300.48 762.127H298.129V771H296.81V761.047H300.48C301.232 761.047 301.868 761.177 302.388 761.437C302.907 761.696 303.301 762.056 303.57 762.517C303.839 762.972 303.974 763.494 303.974 764.082C303.974 764.72 303.839 765.265 303.57 765.716C303.301 766.167 302.907 766.511 302.388 766.748C301.868 766.98 301.232 767.097 300.48 767.097ZM306.715 764.766V771H305.45V763.604H306.681L306.715 764.766ZM309.025 763.562L309.019 764.738C308.914 764.715 308.813 764.702 308.718 764.697C308.627 764.688 308.522 764.684 308.403 764.684C308.112 764.684 307.854 764.729 307.631 764.82C307.408 764.911 307.218 765.039 307.063 765.203C306.909 765.367 306.785 765.563 306.694 765.791C306.608 766.014 306.551 766.26 306.523 766.529L306.168 766.734C306.168 766.288 306.211 765.868 306.298 765.477C306.389 765.085 306.528 764.738 306.715 764.438C306.902 764.132 307.139 763.895 307.426 763.727C307.717 763.553 308.064 763.467 308.465 763.467C308.556 763.467 308.661 763.478 308.779 763.501C308.898 763.519 308.98 763.54 309.025 763.562ZM309.723 767.384V767.227C309.723 766.693 309.8 766.199 309.955 765.743C310.11 765.283 310.333 764.884 310.625 764.547C310.917 764.205 311.27 763.941 311.685 763.754C312.099 763.562 312.564 763.467 313.079 763.467C313.599 763.467 314.066 763.562 314.48 763.754C314.9 763.941 315.255 764.205 315.547 764.547C315.843 764.884 316.069 765.283 316.224 765.743C316.379 766.199 316.456 766.693 316.456 767.227V767.384C316.456 767.917 316.379 768.411 316.224 768.867C316.069 769.323 315.843 769.722 315.547 770.063C315.255 770.401 314.902 770.665 314.487 770.856C314.077 771.043 313.612 771.137 313.093 771.137C312.573 771.137 312.106 771.043 311.691 770.856C311.277 770.665 310.921 770.401 310.625 770.063C310.333 769.722 310.11 769.323 309.955 768.867C309.8 768.411 309.723 767.917 309.723 767.384ZM310.987 767.227V767.384C310.987 767.753 311.031 768.102 311.117 768.43C311.204 768.753 311.334 769.04 311.507 769.291C311.685 769.542 311.906 769.74 312.17 769.886C312.434 770.027 312.742 770.098 313.093 770.098C313.439 770.098 313.742 770.027 314.002 769.886C314.266 769.74 314.485 769.542 314.658 769.291C314.831 769.04 314.961 768.753 315.048 768.43C315.139 768.102 315.185 767.753 315.185 767.384V767.227C315.185 766.862 315.139 766.518 315.048 766.194C314.961 765.866 314.829 765.577 314.651 765.326C314.478 765.071 314.259 764.87 313.995 764.725C313.735 764.579 313.43 764.506 313.079 764.506C312.733 764.506 312.427 764.579 312.163 764.725C311.903 764.87 311.685 765.071 311.507 765.326C311.334 765.577 311.204 765.866 311.117 766.194C311.031 766.518 310.987 766.862 310.987 767.227ZM319.73 771H318.466V762.961C318.466 762.4 318.575 761.926 318.794 761.539C319.013 761.152 319.325 760.858 319.73 760.657C320.136 760.457 320.617 760.356 321.173 760.356C321.501 760.356 321.822 760.397 322.137 760.479C322.451 760.557 322.775 760.655 323.107 760.773L322.896 761.84C322.686 761.758 322.442 761.68 322.164 761.607C321.891 761.53 321.59 761.491 321.262 761.491C320.719 761.491 320.327 761.614 320.086 761.86C319.849 762.102 319.73 762.469 319.73 762.961V771ZM321.241 763.604V764.574H317.297V763.604H321.241ZM323.729 763.604V771H322.465V763.604H323.729ZM327.182 760.5V771H325.91V760.5H327.182ZM332.281 771.137C331.766 771.137 331.299 771.05 330.88 770.877C330.465 770.699 330.107 770.451 329.807 770.132C329.51 769.813 329.283 769.435 329.123 768.997C328.964 768.56 328.884 768.081 328.884 767.562V767.274C328.884 766.673 328.973 766.137 329.15 765.668C329.328 765.194 329.57 764.793 329.875 764.465C330.18 764.137 330.527 763.888 330.914 763.72C331.301 763.551 331.702 763.467 332.117 763.467C332.646 763.467 333.102 763.558 333.484 763.74C333.872 763.923 334.188 764.178 334.435 764.506C334.681 764.829 334.863 765.212 334.981 765.654C335.1 766.092 335.159 766.57 335.159 767.09V767.657H329.636V766.625H333.895V766.529C333.876 766.201 333.808 765.882 333.689 765.572C333.576 765.262 333.393 765.007 333.143 764.807C332.892 764.606 332.55 764.506 332.117 764.506C331.83 764.506 331.566 764.567 331.324 764.69C331.083 764.809 330.875 764.987 330.702 765.224C330.529 765.461 330.395 765.75 330.299 766.092C330.203 766.434 330.155 766.828 330.155 767.274V767.562C330.155 767.912 330.203 768.243 330.299 768.553C330.399 768.858 330.543 769.127 330.729 769.359C330.921 769.592 331.151 769.774 331.42 769.906C331.693 770.038 332.003 770.104 332.35 770.104C332.796 770.104 333.174 770.013 333.484 769.831C333.794 769.649 334.065 769.405 334.298 769.1L335.063 769.708C334.904 769.95 334.701 770.18 334.455 770.398C334.209 770.617 333.906 770.795 333.546 770.932C333.19 771.068 332.769 771.137 332.281 771.137Z" fill="black"/>
<path d="M299.688 725.938C300.646 725.938 301.582 726.222 302.379 726.754C303.175 727.286 303.796 728.043 304.163 728.928C304.529 729.813 304.625 730.787 304.438 731.726C304.251 732.666 303.79 733.529 303.113 734.206C302.435 734.884 301.572 735.345 300.632 735.532C299.693 735.719 298.719 735.623 297.834 735.256C296.949 734.89 296.192 734.269 295.66 733.472C295.128 732.676 294.844 731.739 294.844 730.781C294.844 729.497 295.354 728.265 296.262 727.356C297.171 726.448 298.403 725.938 299.688 725.938ZM299.688 724C298.346 724 297.035 724.398 295.92 725.143C294.805 725.888 293.936 726.947 293.422 728.186C292.909 729.425 292.775 730.789 293.037 732.104C293.298 733.42 293.944 734.628 294.892 735.576C295.841 736.525 297.049 737.171 298.365 737.432C299.68 737.694 301.043 737.56 302.283 737.046C303.522 736.533 304.581 735.664 305.326 734.549C306.071 733.434 306.469 732.122 306.469 730.781C306.469 728.983 305.754 727.258 304.483 725.986C303.211 724.714 301.486 724 299.688 724Z" fill="black"/>
<path d="M309.375 751.125H307.438V746.281C307.438 744.997 306.927 743.765 306.019 742.856C305.11 741.948 303.878 741.438 302.594 741.438H296.781C295.497 741.438 294.265 741.948 293.356 742.856C292.448 743.765 291.938 744.997 291.938 746.281V751.125H290V746.281C290 744.483 290.714 742.758 291.986 741.486C293.258 740.214 294.983 739.5 296.781 739.5H302.594C304.392 739.5 306.117 740.214 307.389 741.486C308.661 742.758 309.375 744.483 309.375 746.281V751.125Z" fill="black"/>
<path d="M309.375 725.938H319.062V727.875H309.375V725.938Z" fill="black"/>
<path d="M309.375 730.781H319.062V732.719H309.375V730.781Z" fill="black"/>
<path d="M309.375 735.625H316.156V737.562H309.375V735.625Z" fill="black"/>
</g>
<rect x="0.5" y="0.5" width="376" height="813" stroke="black"/>
<defs>
<clipPath id="clip0_7_808">
<rect x="1" y="1" width="375" height="812" fill="white"/>
</clipPath>
</defs>
</svg>
