<svg width="377" height="814" viewBox="0 0 377 814" fill="none" xmlns="http://www.w3.org/2000/svg">
<g clip-path="url(#clip0_7_839)">
<rect x="1" y="1" width="375" height="812" fill="white"/>
<rect x="1" y="45" width="375" height="733" fill="black"/>
<path d="M38.2146 18.1675C35.9222 18.1675 34.2889 19.7349 34.2889 21.8809V21.8955C34.2889 23.9023 35.7098 25.3818 37.7386 25.3818C39.1888 25.3818 40.1116 24.6421 40.4998 23.8071H40.6463C40.6463 23.8877 40.639 23.9683 40.639 24.0488C40.5584 26.0703 39.8479 27.7109 38.1707 27.7109C37.2405 27.7109 36.5887 27.2275 36.3104 26.4878L36.2884 26.4146H34.428L34.4427 26.4951C34.7796 28.1138 36.2298 29.2637 38.1707 29.2637C40.8294 29.2637 42.4334 27.1543 42.4334 23.5947V23.5801C42.4334 19.7715 40.4705 18.1675 38.2146 18.1675ZM38.2073 23.9316C37.0062 23.9316 36.1346 23.0527 36.1346 21.8296V21.8149C36.1346 20.6357 37.0647 19.7056 38.2293 19.7056C39.4012 19.7056 40.3167 20.6504 40.3167 21.8589V21.8735C40.3167 23.0674 39.4012 23.9316 38.2073 23.9316ZM45.4586 22.1519C46.1324 22.1519 46.6231 21.6392 46.6231 20.9946C46.6231 20.3428 46.1324 19.8374 45.4586 19.8374C44.7921 19.8374 44.294 20.3428 44.294 20.9946C44.294 21.6392 44.7921 22.1519 45.4586 22.1519ZM45.4586 27.5864C46.1324 27.5864 46.6231 27.0811 46.6231 26.4292C46.6231 25.7773 46.1324 25.272 45.4586 25.272C44.7921 25.272 44.294 25.7773 44.294 26.4292C44.294 27.0811 44.7921 27.5864 45.4586 27.5864ZM53.6107 29H55.4198V26.9712H56.8407V25.4111H55.4198V18.4312H52.7465C51.3109 20.6138 49.8095 23.0454 48.4398 25.4258V26.9712H53.6107V29ZM50.1977 25.4551V25.3452C51.223 23.5508 52.4462 21.5952 53.5302 19.9399H53.64V25.4551H50.1977ZM60.9206 29H62.8103V18.4312H60.9279L58.1667 20.3721V22.1519L60.7961 20.2915H60.9206V29Z" fill="black"/>
<rect opacity="0.35" x="337.833" y="18.8335" width="21" height="10.3333" rx="2.16667" stroke="black"/>
<path opacity="0.4" d="M360.333 22V26C361.138 25.6612 361.661 24.8731 361.661 24C361.661 23.1269 361.138 22.3388 360.333 22Z" fill="black"/>
<rect x="339.333" y="20.3335" width="18" height="7.33333" rx="1.33333" fill="black"/>
<path fill-rule="evenodd" clip-rule="evenodd" d="M324.667 20.615C326.892 20.6151 329.031 21.4693 330.644 23.0008C330.765 23.1191 330.959 23.1176 331.079 22.9975L332.239 21.8272C332.3 21.7663 332.334 21.6837 332.333 21.5979C332.333 21.5121 332.298 21.4299 332.237 21.3697C328.005 17.3175 321.329 17.3175 317.097 21.3697C317.035 21.4299 317.001 21.512 317 21.5978C316.999 21.6837 317.033 21.7662 317.094 21.8272L318.255 22.9975C318.374 23.1178 318.568 23.1193 318.69 23.0008C320.302 21.4692 322.442 20.615 324.667 20.615ZM324.667 24.4226C325.889 24.4226 327.068 24.8765 327.974 25.6963C328.097 25.8126 328.29 25.8101 328.409 25.6906L329.569 24.5203C329.63 24.4589 329.663 24.3756 329.663 24.2891C329.662 24.2025 329.626 24.12 329.564 24.0598C326.805 21.4954 322.532 21.4954 319.773 24.0598C319.71 24.12 319.675 24.2026 319.674 24.2891C319.673 24.3757 319.707 24.459 319.768 24.5203L320.927 25.6906C321.047 25.8101 321.24 25.8126 321.362 25.6963C322.268 24.877 323.446 24.4231 324.667 24.4226ZM326.989 26.9845C326.991 27.0712 326.957 27.1549 326.895 27.2157L324.89 29.2377C324.831 29.2971 324.751 29.3306 324.667 29.3306C324.583 29.3306 324.503 29.2971 324.445 29.2377L322.439 27.2157C322.377 27.1549 322.343 27.0712 322.345 26.9844C322.347 26.8976 322.384 26.8154 322.449 26.7573C323.729 25.675 325.605 25.675 326.886 26.7573C326.95 26.8155 326.988 26.8977 326.989 26.9845Z" fill="black"/>
<path fill-rule="evenodd" clip-rule="evenodd" d="M311 18.6665H310C309.448 18.6665 309 19.1142 309 19.6665V28.3332C309 28.8855 309.448 29.3332 310 29.3332H311C311.552 29.3332 312 28.8855 312 28.3332V19.6665C312 19.1142 311.552 18.6665 311 18.6665ZM305.333 20.9998H306.333C306.886 20.9998 307.333 21.4476 307.333 21.9998V28.3332C307.333 28.8855 306.886 29.3332 306.333 29.3332H305.333C304.781 29.3332 304.333 28.8855 304.333 28.3332V21.9998C304.333 21.4476 304.781 20.9998 305.333 20.9998ZM301.667 23.3332H300.667C300.114 23.3332 299.667 23.7809 299.667 24.3332V28.3332C299.667 28.8855 300.114 29.3332 300.667 29.3332H301.667C302.219 29.3332 302.667 28.8855 302.667 28.3332V24.3332C302.667 23.7809 302.219 23.3332 301.667 23.3332ZM297 25.3332H296C295.448 25.3332 295 25.7809 295 26.3332V28.3332C295 28.8855 295.448 29.3332 296 29.3332H297C297.552 29.3332 298 28.8855 298 28.3332V26.3332C298 25.7809 297.552 25.3332 297 25.3332Z" fill="black"/>
<rect x="1" y="778" width="375" height="35" fill="white"/>
<rect x="122" y="799" width="134" height="5" rx="2.5" fill="black"/>
<path d="M60.3687 432H68.15V400.938H68.65L90.8062 432H97.775V386.906H90.025V417.969H89.525L67.3687 386.906H60.3687V432ZM108.631 432H137.819V425.219H116.694V412.312H136.662V405.906H116.694V393.688H137.819V386.906H108.631V432ZM158.737 432H166.8V393.688H180.706V386.906H144.862V393.688H158.737V432ZM188.844 432H196.906V413.594H215.812V407.031H196.906V393.688H217.594V386.906H188.844V432ZM226.231 432H254.981V425.219H234.294V386.906H226.231V432ZM263.369 432H271.431V386.906H263.369V432ZM279.444 432H288.256L298.912 415.406H299.194L309.85 432H319.162L304.319 409.5V409.406L319.412 386.906H310.35L299.912 403.875H299.569L289.1 386.906H279.569L294.162 409.188V409.281L279.444 432Z" fill="white"/>
<path d="M44 65L36 73.5L44 82" stroke="white" stroke-width="3" stroke-linecap="round" stroke-linejoin="round"/>
<path d="M59.46 76.4844C59.46 76.252 59.4235 76.0469 59.3506 75.8691C59.2822 75.6868 59.1592 75.5228 58.9814 75.377C58.8083 75.2311 58.5667 75.0921 58.2568 74.96C57.9515 74.8278 57.5641 74.6934 57.0947 74.5566C56.6025 74.4108 56.1582 74.249 55.7617 74.0713C55.3652 73.889 55.0257 73.6816 54.7432 73.4492C54.4606 73.2168 54.2441 72.9502 54.0938 72.6494C53.9434 72.3486 53.8682 72.0046 53.8682 71.6172C53.8682 71.2298 53.9479 70.8721 54.1074 70.5439C54.2669 70.2158 54.4948 69.931 54.791 69.6895C55.0918 69.4434 55.4495 69.252 55.8643 69.1152C56.279 68.9785 56.7415 68.9102 57.252 68.9102C57.9993 68.9102 58.6328 69.0537 59.1523 69.3408C59.6764 69.6234 60.0752 69.9948 60.3486 70.4551C60.6221 70.9108 60.7588 71.3984 60.7588 71.918H59.4463C59.4463 71.5443 59.3665 71.2139 59.207 70.9268C59.0475 70.6351 58.806 70.4072 58.4824 70.2432C58.1589 70.0745 57.7487 69.9902 57.252 69.9902C56.7826 69.9902 56.3952 70.0609 56.0898 70.2021C55.7845 70.3434 55.5566 70.5348 55.4062 70.7764C55.2604 71.0179 55.1875 71.2936 55.1875 71.6035C55.1875 71.8132 55.2308 72.0046 55.3174 72.1777C55.4085 72.3464 55.5475 72.5036 55.7344 72.6494C55.9258 72.7952 56.1673 72.9297 56.459 73.0527C56.7552 73.1758 57.1084 73.2943 57.5186 73.4082C58.0837 73.5677 58.5713 73.7454 58.9814 73.9414C59.3916 74.1374 59.7288 74.3584 59.9932 74.6045C60.262 74.846 60.4603 75.1217 60.5879 75.4316C60.7201 75.737 60.7861 76.0833 60.7861 76.4707C60.7861 76.8763 60.7041 77.2432 60.54 77.5713C60.376 77.8994 60.1413 78.1797 59.8359 78.4121C59.5306 78.6445 59.1637 78.8245 58.7354 78.9521C58.3115 79.0752 57.8376 79.1367 57.3135 79.1367C56.8532 79.1367 56.3997 79.0729 55.9531 78.9453C55.5111 78.8177 55.1077 78.6263 54.7432 78.3711C54.3831 78.1159 54.0938 77.8014 53.875 77.4277C53.6608 77.0495 53.5537 76.612 53.5537 76.1152H54.8662C54.8662 76.457 54.9323 76.751 55.0645 76.9971C55.1966 77.2386 55.3766 77.4391 55.6045 77.5986C55.8369 77.7581 56.099 77.8766 56.3906 77.9541C56.6868 78.027 56.9945 78.0635 57.3135 78.0635C57.7738 78.0635 58.1634 77.9997 58.4824 77.8721C58.8014 77.7445 59.043 77.5622 59.207 77.3252C59.3757 77.0882 59.46 76.8079 59.46 76.4844ZM65.373 71.6035V72.5742H61.374V71.6035H65.373ZM62.7275 69.8057H63.9922V77.168C63.9922 77.4186 64.0309 77.6077 64.1084 77.7354C64.1859 77.863 64.2861 77.9473 64.4092 77.9883C64.5322 78.0293 64.6644 78.0498 64.8057 78.0498C64.9105 78.0498 65.0199 78.0407 65.1338 78.0225C65.2523 77.9997 65.3411 77.9814 65.4004 77.9678L65.4072 79C65.307 79.0319 65.1748 79.0615 65.0107 79.0889C64.8512 79.1208 64.6576 79.1367 64.4297 79.1367C64.1198 79.1367 63.835 79.0752 63.5752 78.9521C63.3154 78.8291 63.1081 78.624 62.9531 78.3369C62.8027 78.0452 62.7275 77.6533 62.7275 77.1611V69.8057ZM68.1211 72.7656V79H66.8564V71.6035H68.0869L68.1211 72.7656ZM70.4316 71.5625L70.4248 72.7383C70.32 72.7155 70.2197 72.7018 70.124 72.6973C70.0329 72.6882 69.9281 72.6836 69.8096 72.6836C69.5179 72.6836 69.2604 72.7292 69.0371 72.8203C68.8138 72.9115 68.6247 73.0391 68.4697 73.2031C68.3148 73.3672 68.1917 73.5632 68.1006 73.791C68.014 74.0143 67.957 74.2604 67.9297 74.5293L67.5742 74.7344C67.5742 74.2878 67.6175 73.8685 67.7041 73.4766C67.7952 73.0846 67.9342 72.7383 68.1211 72.4375C68.3079 72.1322 68.5449 71.8952 68.832 71.7266C69.1237 71.5534 69.4701 71.4668 69.8711 71.4668C69.9622 71.4668 70.0671 71.4782 70.1855 71.501C70.304 71.5192 70.3861 71.5397 70.4316 71.5625ZM74.5332 79.1367C74.0182 79.1367 73.5511 79.0501 73.1318 78.877C72.7171 78.6992 72.3594 78.4508 72.0586 78.1318C71.7624 77.8128 71.5345 77.4346 71.375 76.9971C71.2155 76.5596 71.1357 76.0811 71.1357 75.5615V75.2744C71.1357 74.6729 71.2246 74.1374 71.4023 73.668C71.5801 73.194 71.8216 72.793 72.127 72.4648C72.4323 72.1367 72.7786 71.8883 73.166 71.7197C73.5534 71.5511 73.9544 71.4668 74.3691 71.4668C74.8978 71.4668 75.3535 71.5579 75.7363 71.7402C76.1237 71.9225 76.4404 72.1777 76.6865 72.5059C76.9326 72.8294 77.1149 73.2122 77.2334 73.6543C77.3519 74.0918 77.4111 74.5703 77.4111 75.0898V75.6572H71.8877V74.625H76.1465V74.5293C76.1283 74.2012 76.0599 73.8822 75.9414 73.5723C75.8275 73.2624 75.6452 73.0072 75.3945 72.8066C75.1439 72.6061 74.8021 72.5059 74.3691 72.5059C74.082 72.5059 73.8177 72.5674 73.5762 72.6904C73.3346 72.8089 73.1273 72.9867 72.9541 73.2236C72.7809 73.4606 72.6465 73.75 72.5508 74.0918C72.4551 74.4336 72.4072 74.8278 72.4072 75.2744V75.5615C72.4072 75.9124 72.4551 76.2428 72.5508 76.5527C72.651 76.8581 72.7946 77.127 72.9814 77.3594C73.1729 77.5918 73.403 77.7741 73.6719 77.9062C73.9453 78.0384 74.2552 78.1045 74.6016 78.1045C75.0482 78.1045 75.4264 78.0133 75.7363 77.8311C76.0462 77.6488 76.3174 77.4049 76.5498 77.0996L77.3154 77.708C77.1559 77.9495 76.9531 78.1797 76.707 78.3984C76.4609 78.6172 76.1579 78.7949 75.7979 78.9316C75.4424 79.0684 75.0208 79.1367 74.5332 79.1367ZM83.249 77.7354V73.9277C83.249 73.6361 83.1898 73.3831 83.0713 73.1689C82.9574 72.9502 82.7842 72.7816 82.5518 72.6631C82.3193 72.5446 82.0322 72.4854 81.6904 72.4854C81.3714 72.4854 81.0911 72.54 80.8496 72.6494C80.6126 72.7588 80.4258 72.9023 80.2891 73.0801C80.1569 73.2578 80.0908 73.4492 80.0908 73.6543H78.8262C78.8262 73.39 78.8945 73.1279 79.0312 72.8682C79.168 72.6084 79.3639 72.3737 79.6191 72.1641C79.8789 71.9499 80.1888 71.7812 80.5488 71.6582C80.9134 71.5306 81.319 71.4668 81.7656 71.4668C82.3034 71.4668 82.7773 71.5579 83.1875 71.7402C83.6022 71.9225 83.9258 72.1982 84.1582 72.5674C84.3952 72.932 84.5137 73.39 84.5137 73.9414V77.3867C84.5137 77.6328 84.5342 77.8949 84.5752 78.1729C84.6208 78.4508 84.6868 78.6901 84.7734 78.8906V79H83.4541C83.3903 78.8542 83.3402 78.6605 83.3037 78.4189C83.2673 78.1729 83.249 77.945 83.249 77.7354ZM83.4678 74.5156L83.4814 75.4043H82.2031C81.8431 75.4043 81.5218 75.4339 81.2393 75.4932C80.9567 75.5479 80.7197 75.6322 80.5283 75.7461C80.3369 75.86 80.1911 76.0036 80.0908 76.1768C79.9906 76.3454 79.9404 76.5436 79.9404 76.7715C79.9404 77.0039 79.9928 77.2158 80.0977 77.4072C80.2025 77.5986 80.3597 77.7513 80.5693 77.8652C80.7835 77.9746 81.0456 78.0293 81.3555 78.0293C81.7428 78.0293 82.0846 77.9473 82.3809 77.7832C82.6771 77.6191 82.9118 77.4186 83.085 77.1816C83.2627 76.9447 83.3584 76.7145 83.3721 76.4912L83.9121 77.0996C83.8802 77.291 83.7936 77.5029 83.6523 77.7354C83.5111 77.9678 83.3219 78.1911 83.085 78.4053C82.8525 78.6149 82.5745 78.7904 82.251 78.9316C81.932 79.0684 81.5719 79.1367 81.1709 79.1367C80.6696 79.1367 80.2298 79.0387 79.8516 78.8428C79.4779 78.6468 79.1862 78.3848 78.9766 78.0566C78.7715 77.724 78.6689 77.3525 78.6689 76.9424C78.6689 76.5459 78.7464 76.1973 78.9014 75.8965C79.0563 75.5911 79.2796 75.3382 79.5713 75.1377C79.863 74.9326 80.2139 74.7777 80.624 74.6729C81.0342 74.568 81.4922 74.5156 81.998 74.5156H83.4678ZM87.7607 73.0732V79H86.4893V71.6035H87.6924L87.7607 73.0732ZM87.501 75.0215L86.9131 75.001C86.9176 74.4951 86.9837 74.028 87.1113 73.5996C87.2389 73.1667 87.4281 72.7907 87.6787 72.4717C87.9294 72.1527 88.2415 71.9066 88.6152 71.7334C88.9889 71.5557 89.4219 71.4668 89.9141 71.4668C90.2604 71.4668 90.5794 71.5169 90.8711 71.6172C91.1628 71.7129 91.4157 71.8656 91.6299 72.0752C91.8441 72.2848 92.0104 72.5537 92.1289 72.8818C92.2474 73.21 92.3066 73.6064 92.3066 74.0713V79H91.042V74.1328C91.042 73.7454 90.9759 73.4355 90.8438 73.2031C90.7161 72.9707 90.5339 72.8021 90.2969 72.6973C90.0599 72.5879 89.7819 72.5332 89.4629 72.5332C89.0892 72.5332 88.777 72.5993 88.5264 72.7314C88.2757 72.8636 88.0752 73.0459 87.9248 73.2783C87.7744 73.5107 87.665 73.7773 87.5967 74.0781C87.5329 74.3743 87.501 74.6888 87.501 75.0215ZM92.293 74.3242L91.4453 74.584C91.4499 74.1784 91.516 73.7887 91.6436 73.415C91.7757 73.0413 91.9648 72.7087 92.2109 72.417C92.4616 72.1253 92.7692 71.8952 93.1338 71.7266C93.4984 71.5534 93.9154 71.4668 94.3848 71.4668C94.7812 71.4668 95.1322 71.5192 95.4375 71.624C95.7474 71.7288 96.0072 71.8906 96.2168 72.1094C96.431 72.3236 96.5928 72.5993 96.7021 72.9365C96.8115 73.2738 96.8662 73.6748 96.8662 74.1396V79H95.5947V74.126C95.5947 73.7113 95.5286 73.39 95.3965 73.1621C95.2689 72.9297 95.0866 72.7679 94.8496 72.6768C94.6172 72.5811 94.3392 72.5332 94.0156 72.5332C93.7376 72.5332 93.4915 72.5811 93.2773 72.6768C93.0632 72.7725 92.8831 72.9046 92.7373 73.0732C92.5915 73.2373 92.4798 73.4264 92.4023 73.6406C92.3294 73.8548 92.293 74.0827 92.293 74.3242ZM102.185 77.4893L105.117 69.0469H106.546L102.861 79H101.843L102.185 77.4893ZM99.4434 69.0469L102.349 77.4893L102.711 79H101.692L98.0146 69.0469H99.4434ZM112.028 77.291V71.6035H113.3V79H112.09L112.028 77.291ZM112.268 75.7324L112.794 75.7188C112.794 76.2109 112.742 76.6667 112.637 77.0859C112.536 77.5007 112.372 77.8607 112.145 78.166C111.917 78.4714 111.618 78.7106 111.249 78.8838C110.88 79.0524 110.431 79.1367 109.902 79.1367C109.542 79.1367 109.212 79.0843 108.911 78.9795C108.615 78.8747 108.36 78.7129 108.146 78.4941C107.931 78.2754 107.765 77.9906 107.646 77.6396C107.533 77.2887 107.476 76.8672 107.476 76.375V71.6035H108.74V76.3887C108.74 76.7214 108.777 76.9971 108.85 77.2158C108.927 77.43 109.03 77.6009 109.157 77.7285C109.289 77.8516 109.435 77.9382 109.595 77.9883C109.759 78.0384 109.927 78.0635 110.101 78.0635C110.638 78.0635 111.064 77.9609 111.379 77.7559C111.693 77.5462 111.919 77.266 112.056 76.915C112.197 76.5596 112.268 76.1654 112.268 75.7324Z" fill="white"/>
</g>
<rect x="0.5" y="0.5" width="376" height="813" stroke="black"/>
<defs>
<clipPath id="clip0_7_839">
<rect x="1" y="1" width="375" height="812" fill="white"/>
</clipPath>
</defs>
</svg>
