<svg width="377" height="814" viewBox="0 0 377 814" fill="none" xmlns="http://www.w3.org/2000/svg">
<g clip-path="url(#clip0_1_89)">
<rect x="1" y="1" width="375" height="812" fill="white"/>
<rect x="1" y="1" width="375" height="121" fill="#C4C4C4"/>
<rect x="99" y="33.697" width="180" height="43.2121" fill="#E5E5E5"/>
<path d="M162.242 62.3116H170.328V64.1515H159.98V47.089H162.242V62.3116ZM185.246 56.171C185.246 57.8429 184.965 59.3038 184.402 60.5538C183.84 61.796 183.043 62.7452 182.012 63.4015C180.98 64.0577 179.777 64.3859 178.402 64.3859C177.059 64.3859 175.867 64.0577 174.828 63.4015C173.789 62.7374 172.98 61.796 172.402 60.5773C171.832 59.3507 171.539 57.9327 171.523 56.3234V55.0929C171.523 53.4523 171.809 52.0031 172.379 50.7452C172.949 49.4874 173.754 48.5265 174.793 47.8624C175.84 47.1906 177.035 46.8546 178.379 46.8546C179.746 46.8546 180.949 47.1866 181.988 47.8507C183.035 48.507 183.84 49.464 184.402 50.7218C184.965 51.9718 185.246 53.4288 185.246 55.0929V56.171ZM183.008 55.0695C183.008 53.046 182.602 51.4952 181.789 50.4171C180.977 49.3312 179.84 48.7882 178.379 48.7882C176.957 48.7882 175.836 49.3312 175.016 50.4171C174.203 51.4952 173.785 52.9952 173.762 54.9171V56.171C173.762 58.132 174.172 59.6749 174.992 60.7999C175.82 61.9171 176.957 62.4757 178.402 62.4757C179.855 62.4757 180.98 61.9484 181.777 60.8937C182.574 59.8312 182.984 58.3116 183.008 56.3351V55.0695ZM201.219 61.9132C200.641 62.7413 199.832 63.3624 198.793 63.7765C197.762 64.1827 196.559 64.3859 195.184 64.3859C193.793 64.3859 192.559 64.0616 191.48 63.4132C190.402 62.757 189.566 61.8273 188.973 60.6241C188.387 59.421 188.086 58.0265 188.07 56.4406V54.9523C188.07 52.382 188.668 50.3898 189.863 48.9757C191.066 47.5616 192.754 46.8546 194.926 46.8546C196.707 46.8546 198.141 47.3116 199.227 48.2257C200.312 49.132 200.977 50.421 201.219 52.0929H198.969C198.547 49.8351 197.203 48.7062 194.938 48.7062C193.43 48.7062 192.285 49.2374 191.504 50.2999C190.73 51.3546 190.34 52.8859 190.332 54.8937V56.2882C190.332 58.2023 190.77 59.7257 191.645 60.8585C192.52 61.9835 193.703 62.546 195.195 62.546C196.039 62.546 196.777 62.4523 197.41 62.2648C198.043 62.0773 198.566 61.7609 198.98 61.3156V57.4835H195.031V55.6554H201.219V61.9132ZM218.105 56.171C218.105 57.8429 217.824 59.3038 217.262 60.5538C216.699 61.796 215.902 62.7452 214.871 63.4015C213.84 64.0577 212.637 64.3859 211.262 64.3859C209.918 64.3859 208.727 64.0577 207.688 63.4015C206.648 62.7374 205.84 61.796 205.262 60.5773C204.691 59.3507 204.398 57.9327 204.383 56.3234V55.0929C204.383 53.4523 204.668 52.0031 205.238 50.7452C205.809 49.4874 206.613 48.5265 207.652 47.8624C208.699 47.1906 209.895 46.8546 211.238 46.8546C212.605 46.8546 213.809 47.1866 214.848 47.8507C215.895 48.507 216.699 49.464 217.262 50.7218C217.824 51.9718 218.105 53.4288 218.105 55.0929V56.171ZM215.867 55.0695C215.867 53.046 215.461 51.4952 214.648 50.4171C213.836 49.3312 212.699 48.7882 211.238 48.7882C209.816 48.7882 208.695 49.3312 207.875 50.4171C207.062 51.4952 206.645 52.9952 206.621 54.9171V56.171C206.621 58.132 207.031 59.6749 207.852 60.7999C208.68 61.9171 209.816 62.4757 211.262 62.4757C212.715 62.4757 213.84 61.9484 214.637 60.8937C215.434 59.8312 215.844 58.3116 215.867 56.3351V55.0695Z" fill="black"/>
<path d="M113.441 100.396H106.878V107.303H104.815V91.6624H114.505V93.3596H106.878V98.7092H113.441V100.396ZM121.251 107.518C119.675 107.518 118.394 107.002 117.405 105.971C116.417 104.933 115.923 103.547 115.923 101.814V101.448C115.923 100.295 116.141 99.2678 116.578 98.3655C117.022 97.456 117.638 96.747 118.426 96.2385C119.221 95.7229 120.08 95.4651 121.004 95.4651C122.515 95.4651 123.689 95.9628 124.527 96.9583C125.365 97.9537 125.784 99.3788 125.784 101.234V102.061H117.91C117.939 103.207 118.272 104.134 118.909 104.843C119.554 105.545 120.37 105.896 121.358 105.896C122.06 105.896 122.655 105.753 123.142 105.466C123.629 105.18 124.055 104.8 124.42 104.327L125.634 105.273C124.66 106.769 123.199 107.518 121.251 107.518ZM121.004 97.0979C120.202 97.0979 119.529 97.3915 118.984 97.9788C118.44 98.5588 118.104 99.3752 117.975 100.428H123.797V100.278C123.74 99.2678 123.467 98.4872 122.98 97.9358C122.493 97.3772 121.835 97.0979 121.004 97.0979ZM135.27 107.303C135.155 107.074 135.062 106.666 134.99 106.078C134.066 107.038 132.964 107.518 131.682 107.518C130.536 107.518 129.594 107.196 128.856 106.551C128.126 105.899 127.761 105.076 127.761 104.08C127.761 102.87 128.219 101.932 129.136 101.266C130.06 100.593 131.356 100.256 133.024 100.256H134.958V99.343C134.958 98.6484 134.75 98.0969 134.335 97.6887C133.92 97.2734 133.307 97.0657 132.498 97.0657C131.789 97.0657 131.195 97.2447 130.715 97.6028C130.235 97.9609 129.995 98.3941 129.995 98.9026H127.997C127.997 98.3225 128.201 97.7639 128.609 97.2268C129.025 96.6825 129.583 96.2528 130.285 95.9377C130.994 95.6226 131.771 95.4651 132.616 95.4651C133.955 95.4651 135.005 95.8017 135.764 96.4749C136.523 97.1409 136.917 98.0611 136.945 99.2356V104.585C136.945 105.652 137.081 106.501 137.354 107.131V107.303H135.27ZM131.972 105.788C132.595 105.788 133.186 105.627 133.744 105.305C134.303 104.983 134.707 104.564 134.958 104.048V101.663H133.4C130.965 101.663 129.748 102.376 129.748 103.801C129.748 104.424 129.956 104.911 130.371 105.262C130.786 105.613 131.32 105.788 131.972 105.788ZM142.757 92.8655V95.6799H144.927V97.2161H142.757V104.424C142.757 104.89 142.854 105.24 143.047 105.477C143.24 105.706 143.57 105.821 144.035 105.821C144.264 105.821 144.579 105.778 144.98 105.692V107.303C144.458 107.446 143.949 107.518 143.455 107.518C142.567 107.518 141.897 107.249 141.446 106.712C140.995 106.175 140.77 105.412 140.77 104.424V97.2161H138.653V95.6799H140.77V92.8655H142.757ZM154.434 106.154C153.66 107.063 152.525 107.518 151.028 107.518C149.789 107.518 148.844 107.16 148.192 106.444C147.548 105.72 147.222 104.653 147.215 103.242V95.6799H149.202V103.189C149.202 104.95 149.918 105.831 151.351 105.831C152.869 105.831 153.879 105.266 154.38 104.134V95.6799H156.367V107.303H154.477L154.434 106.154ZM165.015 97.4631C164.714 97.413 164.388 97.3879 164.037 97.3879C162.734 97.3879 161.849 97.943 161.384 99.053V107.303H159.396V95.6799H161.33L161.362 97.0227C162.014 95.9843 162.938 95.4651 164.134 95.4651C164.521 95.4651 164.814 95.5152 165.015 95.6155V97.4631ZM171.46 107.518C169.884 107.518 168.603 107.002 167.614 105.971C166.626 104.933 166.132 103.547 166.132 101.814V101.448C166.132 100.295 166.35 99.2678 166.787 98.3655C167.231 97.456 167.847 96.747 168.635 96.2385C169.43 95.7229 170.289 95.4651 171.213 95.4651C172.724 95.4651 173.898 95.9628 174.736 96.9583C175.574 97.9537 175.993 99.3788 175.993 101.234V102.061H168.119C168.148 103.207 168.481 104.134 169.118 104.843C169.763 105.545 170.579 105.896 171.567 105.896C172.269 105.896 172.864 105.753 173.351 105.466C173.838 105.18 174.264 104.8 174.629 104.327L175.843 105.273C174.869 106.769 173.408 107.518 171.46 107.518ZM171.213 97.0979C170.411 97.0979 169.738 97.3915 169.193 97.9788C168.649 98.5588 168.312 99.3752 168.184 100.428H174.006V100.278C173.949 99.2678 173.676 98.4872 173.189 97.9358C172.702 97.3772 172.044 97.0979 171.213 97.0979ZM177.819 101.395C177.819 99.6116 178.242 98.1793 179.087 97.0979C179.932 96.0094 181.038 95.4651 182.406 95.4651C183.767 95.4651 184.845 95.9306 185.64 96.8616V90.803H187.627V107.303H185.801L185.704 106.057C184.909 107.031 183.803 107.518 182.385 107.518C181.038 107.518 179.939 106.966 179.087 105.864C178.242 104.761 177.819 103.321 177.819 101.545V101.395ZM179.807 101.62C179.807 102.938 180.079 103.969 180.623 104.714C181.167 105.459 181.919 105.831 182.879 105.831C184.139 105.831 185.06 105.266 185.64 104.134V98.7952C185.045 97.6995 184.132 97.1516 182.9 97.1516C181.926 97.1516 181.167 97.5276 180.623 98.2795C180.079 99.0315 179.807 100.145 179.807 101.62ZM196.489 107.303V91.6624H201.603C203.3 91.6624 204.575 92.0133 205.427 92.7151C206.286 93.4169 206.716 94.4553 206.716 95.8303C206.716 96.5608 206.508 97.2089 206.093 97.7747C205.677 98.3333 205.112 98.7665 204.396 99.0745C205.241 99.3108 205.907 99.762 206.394 100.428C206.888 101.087 207.135 101.875 207.135 102.791C207.135 104.195 206.68 105.298 205.771 106.1C204.861 106.902 203.576 107.303 201.914 107.303H196.489ZM198.552 99.9875V105.616H201.957C202.917 105.616 203.672 105.369 204.224 104.875C204.782 104.374 205.062 103.686 205.062 102.813C205.062 100.929 204.037 99.9875 201.989 99.9875H198.552ZM198.552 98.3333H201.667C202.569 98.3333 203.289 98.1077 203.826 97.6565C204.37 97.2053 204.643 96.593 204.643 95.8196C204.643 94.9602 204.392 94.3372 203.891 93.9504C203.389 93.5566 202.627 93.3596 201.603 93.3596H198.552V98.3333ZM217.061 106.154C216.287 107.063 215.152 107.518 213.655 107.518C212.416 107.518 211.471 107.16 210.819 106.444C210.175 105.72 209.849 104.653 209.842 103.242V95.6799H211.829V103.189C211.829 104.95 212.545 105.831 213.978 105.831C215.496 105.831 216.506 105.266 217.007 104.134V95.6799H218.994V107.303H217.104L217.061 106.154ZM223.903 95.6799L223.968 97.1409C224.856 96.0237 226.016 95.4651 227.448 95.4651C229.905 95.4651 231.144 96.8508 231.165 99.6223V107.303H229.178V99.6116C229.171 98.7737 228.977 98.1542 228.598 97.7532C228.225 97.3521 227.642 97.1516 226.847 97.1516C226.202 97.1516 225.636 97.3235 225.149 97.6672C224.662 98.011 224.283 98.4622 224.011 99.0208V107.303H222.023V95.6799H223.903ZM233.679 101.395C233.679 99.6116 234.101 98.1793 234.946 97.0979C235.791 96.0094 236.898 95.4651 238.266 95.4651C239.626 95.4651 240.704 95.9306 241.499 96.8616V90.803H243.486V107.303H241.66L241.563 106.057C240.769 107.031 239.662 107.518 238.244 107.518C236.898 107.518 235.799 106.966 234.946 105.864C234.101 104.761 233.679 103.321 233.679 101.545V101.395ZM235.666 101.62C235.666 102.938 235.938 103.969 236.482 104.714C237.027 105.459 237.779 105.831 238.738 105.831C239.999 105.831 240.919 105.266 241.499 104.134V98.7952C240.905 97.6995 239.992 97.1516 238.76 97.1516C237.786 97.1516 237.027 97.5276 236.482 98.2795C235.938 99.0315 235.666 100.145 235.666 101.62ZM248.739 107.303H246.752V90.803H248.739V107.303ZM256.753 107.518C255.177 107.518 253.896 107.002 252.907 105.971C251.919 104.933 251.425 103.547 251.425 101.814V101.448C251.425 100.295 251.643 99.2678 252.08 98.3655C252.524 97.456 253.14 96.747 253.928 96.2385C254.723 95.7229 255.582 95.4651 256.506 95.4651C258.017 95.4651 259.191 95.9628 260.029 96.9583C260.867 97.9537 261.286 99.3788 261.286 101.234V102.061H253.412C253.441 103.207 253.774 104.134 254.411 104.843C255.056 105.545 255.872 105.896 256.86 105.896C257.562 105.896 258.157 105.753 258.644 105.466C259.131 105.18 259.557 104.8 259.922 104.327L261.136 105.273C260.162 106.769 258.701 107.518 256.753 107.518ZM256.506 97.0979C255.704 97.0979 255.031 97.3915 254.486 97.9788C253.942 98.5588 253.605 99.3752 253.477 100.428H259.299V100.278C259.242 99.2678 258.969 98.4872 258.482 97.9358C257.995 97.3772 257.337 97.0979 256.506 97.0979ZM270.363 104.22C270.363 103.683 270.159 103.267 269.751 102.974C269.35 102.673 268.645 102.415 267.635 102.2C266.632 101.986 265.834 101.728 265.239 101.427C264.652 101.126 264.215 100.768 263.929 100.353C263.649 99.9374 263.51 99.4433 263.51 98.8704C263.51 97.9179 263.911 97.1122 264.713 96.4534C265.522 95.7945 266.553 95.4651 267.807 95.4651C269.124 95.4651 270.191 95.8053 271.008 96.4856C271.831 97.1659 272.243 98.0361 272.243 99.0959H270.245C270.245 98.5517 270.012 98.0826 269.547 97.6887C269.089 97.2948 268.508 97.0979 267.807 97.0979C267.083 97.0979 266.518 97.2555 266.109 97.5706C265.701 97.8857 265.497 98.2974 265.497 98.8059C265.497 99.2857 265.687 99.6474 266.066 99.8909C266.446 100.134 267.13 100.367 268.118 100.589C269.114 100.811 269.919 101.076 270.535 101.384C271.151 101.692 271.606 102.064 271.899 102.501C272.2 102.931 272.351 103.457 272.351 104.08C272.351 105.119 271.935 105.953 271.104 106.583C270.274 107.206 269.196 107.518 267.871 107.518C266.94 107.518 266.117 107.353 265.4 107.024C264.684 106.694 264.122 106.236 263.714 105.649C263.313 105.054 263.112 104.413 263.112 103.726H265.1C265.135 104.392 265.4 104.922 265.895 105.316C266.396 105.702 267.055 105.896 267.871 105.896C268.623 105.896 269.225 105.745 269.676 105.445C270.134 105.137 270.363 104.728 270.363 104.22Z" fill="black"/>
<line x1="17.3536" y1="58.0312" x2="35.0313" y2="40.3535" stroke="black"/>
<line x1="17.3537" y1="57.3241" x2="35.0313" y2="75.0017" stroke="black"/>
<rect x="1.5" y="191.5" width="374" height="101" stroke="black"/>
<path d="M18.5 212.5H77.5V271.5H18.5V212.5Z" fill="#C4C4C4" stroke="black"/>
<line x1="17.6464" y1="271.646" x2="77.6464" y2="211.646" stroke="black"/>
<line x1="18.3536" y1="211.646" x2="78.3536" y2="271.646" stroke="black"/>
<path d="M127.622 236.057H122.595V250H120.543V236.057H115.526V234.359H127.622V236.057ZM131.618 239.784C132.499 238.703 133.645 238.162 135.056 238.162C137.512 238.162 138.751 239.548 138.772 242.319V250H136.785V242.309C136.778 241.471 136.585 240.851 136.205 240.45C135.833 240.049 135.249 239.849 134.454 239.849C133.81 239.849 133.244 240.021 132.757 240.364C132.27 240.708 131.89 241.159 131.618 241.718V250H129.631V233.5H131.618V239.784ZM148.924 250C148.809 249.771 148.716 249.363 148.645 248.775C147.721 249.735 146.618 250.215 145.336 250.215C144.19 250.215 143.248 249.893 142.511 249.248C141.78 248.596 141.415 247.773 141.415 246.777C141.415 245.567 141.873 244.629 142.79 243.963C143.714 243.29 145.01 242.953 146.679 242.953H148.612V242.04C148.612 241.345 148.405 240.794 147.989 240.386C147.574 239.97 146.962 239.763 146.152 239.763C145.443 239.763 144.849 239.942 144.369 240.3C143.889 240.658 143.649 241.091 143.649 241.6H141.651C141.651 241.02 141.855 240.461 142.264 239.924C142.679 239.38 143.238 238.95 143.939 238.635C144.648 238.32 145.425 238.162 146.271 238.162C147.61 238.162 148.659 238.499 149.418 239.172C150.177 239.838 150.571 240.758 150.6 241.933V247.282C150.6 248.349 150.736 249.198 151.008 249.828V250H148.924ZM145.626 248.485C146.249 248.485 146.84 248.324 147.398 248.002C147.957 247.68 148.362 247.261 148.612 246.745V244.36H147.055C144.62 244.36 143.402 245.073 143.402 246.498C143.402 247.121 143.61 247.608 144.025 247.959C144.441 248.31 144.974 248.485 145.626 248.485ZM155.595 238.377L155.659 239.838C156.547 238.721 157.707 238.162 159.14 238.162C161.596 238.162 162.835 239.548 162.856 242.319V250H160.869V242.309C160.862 241.471 160.669 240.851 160.289 240.45C159.917 240.049 159.333 239.849 158.538 239.849C157.894 239.849 157.328 240.021 156.841 240.364C156.354 240.708 155.974 241.159 155.702 241.718V250H153.715V238.377H155.595ZM169.098 244.618L167.852 245.918V250H165.864V233.5H167.852V243.479L168.915 242.201L172.535 238.377H174.952L170.43 243.232L175.479 250H173.147L169.098 244.618ZM183.771 246.917C183.771 246.38 183.567 245.965 183.159 245.671C182.758 245.37 182.053 245.112 181.043 244.897C180.04 244.683 179.242 244.425 178.647 244.124C178.06 243.823 177.623 243.465 177.337 243.05C177.058 242.634 176.918 242.14 176.918 241.567C176.918 240.615 177.319 239.809 178.121 239.15C178.93 238.492 179.962 238.162 181.215 238.162C182.533 238.162 183.6 238.502 184.416 239.183C185.24 239.863 185.651 240.733 185.651 241.793H183.653C183.653 241.249 183.421 240.78 182.955 240.386C182.497 239.992 181.917 239.795 181.215 239.795C180.492 239.795 179.926 239.952 179.518 240.268C179.109 240.583 178.905 240.994 178.905 241.503C178.905 241.983 179.095 242.344 179.475 242.588C179.854 242.831 180.538 243.064 181.526 243.286C182.522 243.508 183.327 243.773 183.943 244.081C184.559 244.389 185.014 244.761 185.308 245.198C185.608 245.628 185.759 246.154 185.759 246.777C185.759 247.816 185.343 248.65 184.513 249.28C183.682 249.903 182.604 250.215 181.279 250.215C180.348 250.215 179.525 250.05 178.809 249.721C178.092 249.391 177.53 248.933 177.122 248.346C176.721 247.751 176.521 247.11 176.521 246.423H178.508C178.544 247.089 178.809 247.619 179.303 248.013C179.804 248.399 180.463 248.593 181.279 248.593C182.031 248.593 182.633 248.442 183.084 248.142C183.542 247.834 183.771 247.425 183.771 246.917ZM187.875 244.092C187.875 242.28 188.294 240.84 189.132 239.773C189.97 238.699 191.08 238.162 192.462 238.162C193.88 238.162 194.986 238.663 195.781 239.666L195.878 238.377H197.693V249.721C197.693 251.225 197.246 252.41 196.351 253.276C195.463 254.143 194.267 254.576 192.763 254.576C191.925 254.576 191.105 254.397 190.303 254.039C189.501 253.681 188.888 253.19 188.466 252.567L189.497 251.375C190.349 252.428 191.391 252.954 192.623 252.954C193.59 252.954 194.342 252.682 194.879 252.138C195.423 251.593 195.695 250.827 195.695 249.839V248.84C194.9 249.757 193.815 250.215 192.44 250.215C191.08 250.215 189.977 249.667 189.132 248.571C188.294 247.476 187.875 245.982 187.875 244.092ZM189.873 244.317C189.873 245.628 190.142 246.659 190.679 247.411C191.216 248.156 191.968 248.528 192.935 248.528C194.188 248.528 195.108 247.959 195.695 246.82V241.514C195.087 240.404 194.174 239.849 192.956 239.849C191.989 239.849 191.234 240.225 190.689 240.977C190.145 241.729 189.873 242.842 189.873 244.317ZM202.86 250H200.873V238.377H202.86V250ZM200.712 235.294C200.712 234.972 200.809 234.7 201.002 234.478C201.202 234.256 201.496 234.145 201.883 234.145C202.27 234.145 202.563 234.256 202.764 234.478C202.964 234.7 203.064 234.972 203.064 235.294C203.064 235.616 202.964 235.885 202.764 236.1C202.563 236.314 202.27 236.422 201.883 236.422C201.496 236.422 201.202 236.314 201.002 236.1C200.809 235.885 200.712 235.616 200.712 235.294ZM209.886 247.304L212.765 238.377H214.795L210.627 250H209.112L204.901 238.377H206.932L209.886 247.304ZM218.866 250H216.879V238.377H218.866V250ZM216.718 235.294C216.718 234.972 216.814 234.7 217.008 234.478C217.208 234.256 217.502 234.145 217.889 234.145C218.275 234.145 218.569 234.256 218.77 234.478C218.97 234.7 219.07 234.972 219.07 235.294C219.07 235.616 218.97 235.885 218.77 236.1C218.569 236.314 218.275 236.422 217.889 236.422C217.502 236.422 217.208 236.314 217.008 236.1C216.814 235.885 216.718 235.616 216.718 235.294ZM223.937 238.377L224.001 239.838C224.889 238.721 226.049 238.162 227.481 238.162C229.938 238.162 231.177 239.548 231.198 242.319V250H229.211V242.309C229.204 241.471 229.01 240.851 228.631 240.45C228.258 240.049 227.675 239.849 226.88 239.849C226.235 239.849 225.67 240.021 225.183 240.364C224.696 240.708 224.316 241.159 224.044 241.718V250H222.057V238.377H223.937ZM233.723 244.092C233.723 242.28 234.142 240.84 234.979 239.773C235.817 238.699 236.927 238.162 238.31 238.162C239.728 238.162 240.834 238.663 241.629 239.666L241.726 238.377H243.541V249.721C243.541 251.225 243.093 252.41 242.198 253.276C241.31 254.143 240.114 254.576 238.61 254.576C237.772 254.576 236.952 254.397 236.15 254.039C235.348 253.681 234.736 253.19 234.313 252.567L235.345 251.375C236.197 252.428 237.239 252.954 238.471 252.954C239.438 252.954 240.189 252.682 240.727 252.138C241.271 251.593 241.543 250.827 241.543 249.839V248.84C240.748 249.757 239.663 250.215 238.288 250.215C236.927 250.215 235.825 249.667 234.979 248.571C234.142 247.476 233.723 245.982 233.723 244.092ZM235.721 244.317C235.721 245.628 235.989 246.659 236.526 247.411C237.063 248.156 237.815 248.528 238.782 248.528C240.035 248.528 240.956 247.959 241.543 246.82V241.514C240.934 240.404 240.021 239.849 238.804 239.849C237.837 239.849 237.081 240.225 236.537 240.977C235.993 241.729 235.721 242.842 235.721 244.317Z" fill="black"/>
<line x1="350.002" y1="241.324" x2="332.324" y2="259.002" stroke="black"/>
<line x1="350.002" y1="242.031" x2="332.324" y2="224.354" stroke="black"/>
<rect x="1.5" y="542.5" width="374" height="101" stroke="black"/>
<path d="M18.5 563.5H77.5V622.5H18.5V563.5Z" fill="#C4C4C4" stroke="black"/>
<line x1="17.6464" y1="622.646" x2="77.6464" y2="562.646" stroke="black"/>
<line x1="18.3536" y1="562.646" x2="78.3536" y2="622.646" stroke="black"/>
<path d="M121.424 594.028C119.655 593.52 118.366 592.897 117.557 592.159C116.755 591.414 116.354 590.498 116.354 589.409C116.354 588.177 116.844 587.16 117.825 586.358C118.813 585.549 120.095 585.145 121.671 585.145C122.745 585.145 123.701 585.352 124.539 585.768C125.384 586.183 126.036 586.756 126.494 587.486C126.96 588.217 127.192 589.015 127.192 589.882H125.119C125.119 588.937 124.818 588.195 124.217 587.658C123.615 587.114 122.767 586.842 121.671 586.842C120.654 586.842 119.859 587.067 119.286 587.519C118.72 587.963 118.438 588.582 118.438 589.377C118.438 590.014 118.706 590.555 119.243 590.999C119.787 591.436 120.708 591.837 122.004 592.202C123.307 592.567 124.324 592.972 125.055 593.416C125.792 593.853 126.337 594.365 126.688 594.952C127.046 595.539 127.225 596.23 127.225 597.025C127.225 598.293 126.73 599.31 125.742 600.076C124.754 600.835 123.433 601.215 121.778 601.215C120.704 601.215 119.701 601.011 118.771 600.603C117.84 600.187 117.12 599.621 116.611 598.905C116.11 598.189 115.859 597.376 115.859 596.467H117.933C117.933 597.412 118.28 598.16 118.975 598.712C119.676 599.256 120.611 599.528 121.778 599.528C122.867 599.528 123.701 599.306 124.281 598.862C124.861 598.418 125.151 597.813 125.151 597.047C125.151 596.281 124.883 595.69 124.346 595.274C123.809 594.852 122.835 594.437 121.424 594.028ZM132.263 586.562V589.377H134.433V590.913H132.263V598.121C132.263 598.587 132.359 598.938 132.553 599.174C132.746 599.403 133.076 599.518 133.541 599.518C133.77 599.518 134.085 599.475 134.486 599.389V601C133.964 601.143 133.455 601.215 132.961 601.215C132.073 601.215 131.403 600.946 130.952 600.409C130.501 599.872 130.275 599.109 130.275 598.121V590.913H128.159V589.377H130.275V586.562H132.263ZM136.807 599.958C136.807 599.614 136.907 599.328 137.107 599.099C137.315 598.869 137.623 598.755 138.031 598.755C138.439 598.755 138.747 598.869 138.955 599.099C139.17 599.328 139.277 599.614 139.277 599.958C139.277 600.287 139.17 600.563 138.955 600.785C138.747 601.007 138.439 601.118 138.031 601.118C137.623 601.118 137.315 601.007 137.107 600.785C136.907 600.563 136.807 600.287 136.807 599.958ZM150.396 594.877V601H148.333V585.359H154.102C155.813 585.359 157.152 585.796 158.119 586.67C159.093 587.544 159.58 588.7 159.58 590.14C159.58 591.658 159.104 592.829 158.151 593.652C157.206 594.469 155.849 594.877 154.08 594.877H150.396ZM150.396 593.19H154.102C155.204 593.19 156.049 592.933 156.637 592.417C157.224 591.894 157.518 591.142 157.518 590.161C157.518 589.23 157.224 588.485 156.637 587.927C156.049 587.368 155.244 587.078 154.22 587.057H150.396V593.19ZM168.947 601C168.833 600.771 168.74 600.363 168.668 599.775C167.744 600.735 166.641 601.215 165.359 601.215C164.214 601.215 163.272 600.893 162.534 600.248C161.804 599.596 161.438 598.773 161.438 597.777C161.438 596.567 161.897 595.629 162.813 594.963C163.737 594.29 165.034 593.953 166.702 593.953H168.636V593.04C168.636 592.345 168.428 591.794 168.013 591.386C167.597 590.97 166.985 590.763 166.176 590.763C165.467 590.763 164.872 590.942 164.393 591.3C163.913 591.658 163.673 592.091 163.673 592.6H161.675C161.675 592.02 161.879 591.461 162.287 590.924C162.702 590.38 163.261 589.95 163.963 589.635C164.672 589.32 165.449 589.162 166.294 589.162C167.633 589.162 168.682 589.499 169.441 590.172C170.201 590.838 170.594 591.758 170.623 592.933V598.282C170.623 599.349 170.759 600.198 171.031 600.828V601H168.947ZM165.649 599.485C166.272 599.485 166.863 599.324 167.422 599.002C167.98 598.68 168.385 598.261 168.636 597.745V595.36H167.078C164.643 595.36 163.426 596.073 163.426 597.498C163.426 598.121 163.633 598.608 164.049 598.959C164.464 599.31 164.998 599.485 165.649 599.485ZM176.435 586.562V589.377H178.604V590.913H176.435V598.121C176.435 598.587 176.531 598.938 176.725 599.174C176.918 599.403 177.247 599.518 177.713 599.518C177.942 599.518 178.257 599.475 178.658 599.389V601C178.135 601.143 177.627 601.215 177.133 601.215C176.245 601.215 175.575 600.946 175.124 600.409C174.673 599.872 174.447 599.109 174.447 598.121V590.913H172.331V589.377H174.447V586.562H176.435ZM186.554 591.16C186.253 591.11 185.927 591.085 185.576 591.085C184.273 591.085 183.388 591.64 182.923 592.75V601H180.936V589.377H182.869L182.901 590.72C183.553 589.681 184.477 589.162 185.673 589.162C186.06 589.162 186.353 589.212 186.554 589.312V591.16ZM190.55 601H188.562V589.377H190.55V601ZM188.401 586.294C188.401 585.972 188.498 585.7 188.691 585.478C188.892 585.256 189.186 585.145 189.572 585.145C189.959 585.145 190.253 585.256 190.453 585.478C190.654 585.7 190.754 585.972 190.754 586.294C190.754 586.616 190.654 586.885 190.453 587.1C190.253 587.314 189.959 587.422 189.572 587.422C189.186 587.422 188.892 587.314 188.691 587.1C188.498 586.885 188.401 586.616 188.401 586.294ZM198.402 599.593C199.111 599.593 199.731 599.378 200.261 598.948C200.791 598.519 201.084 597.981 201.142 597.337H203.021C202.986 598.003 202.757 598.637 202.334 599.238C201.911 599.84 201.346 600.32 200.637 600.678C199.935 601.036 199.19 601.215 198.402 601.215C196.82 601.215 195.559 600.688 194.621 599.636C193.69 598.576 193.225 597.129 193.225 595.296V594.963C193.225 593.831 193.432 592.825 193.848 591.944C194.263 591.063 194.857 590.38 195.631 589.893C196.411 589.406 197.332 589.162 198.392 589.162C199.695 589.162 200.776 589.552 201.636 590.333C202.502 591.114 202.964 592.127 203.021 593.373H201.142C201.084 592.621 200.798 592.005 200.282 591.525C199.774 591.038 199.144 590.795 198.392 590.795C197.382 590.795 196.598 591.16 196.039 591.891C195.488 592.614 195.212 593.663 195.212 595.038V595.414C195.212 596.753 195.488 597.785 196.039 598.508C196.59 599.231 197.378 599.593 198.402 599.593ZM208.5 595.618L207.254 596.918V601H205.267V584.5H207.254V594.479L208.317 593.201L211.938 589.377H214.354L209.832 594.232L214.881 601H212.55L208.5 595.618ZM223.174 597.917C223.174 597.38 222.97 596.965 222.562 596.671C222.16 596.37 221.455 596.112 220.445 595.897C219.443 595.683 218.644 595.425 218.05 595.124C217.463 594.823 217.026 594.465 216.739 594.05C216.46 593.634 216.32 593.14 216.32 592.567C216.32 591.615 216.721 590.809 217.523 590.15C218.333 589.492 219.364 589.162 220.617 589.162C221.935 589.162 223.002 589.502 223.818 590.183C224.642 590.863 225.054 591.733 225.054 592.793H223.056C223.056 592.249 222.823 591.78 222.357 591.386C221.899 590.992 221.319 590.795 220.617 590.795C219.894 590.795 219.328 590.952 218.92 591.268C218.512 591.583 218.308 591.994 218.308 592.503C218.308 592.983 218.497 593.344 218.877 593.588C219.257 593.831 219.94 594.064 220.929 594.286C221.924 594.508 222.73 594.773 223.346 595.081C223.962 595.389 224.416 595.761 224.71 596.198C225.011 596.628 225.161 597.154 225.161 597.777C225.161 598.816 224.746 599.65 223.915 600.28C223.084 600.903 222.007 601.215 220.682 601.215C219.751 601.215 218.927 601.05 218.211 600.721C217.495 600.391 216.933 599.933 216.524 599.346C216.123 598.751 215.923 598.11 215.923 597.423H217.91C217.946 598.089 218.211 598.619 218.705 599.013C219.206 599.399 219.865 599.593 220.682 599.593C221.434 599.593 222.035 599.442 222.486 599.142C222.945 598.834 223.174 598.425 223.174 597.917ZM233.519 601V585.359H237.934C239.294 585.359 240.497 585.66 241.543 586.262C242.589 586.863 243.394 587.719 243.96 588.829C244.533 589.939 244.823 591.214 244.83 592.653V593.652C244.83 595.128 244.544 596.42 243.971 597.53C243.405 598.64 242.592 599.493 241.532 600.087C240.479 600.681 239.251 600.986 237.848 601H233.519ZM235.581 587.057V599.313H237.751C239.341 599.313 240.576 598.819 241.457 597.831C242.345 596.843 242.789 595.436 242.789 593.609V592.696C242.789 590.92 242.37 589.542 241.532 588.561C240.701 587.572 239.52 587.071 237.987 587.057H235.581ZM254.82 601C254.706 600.771 254.613 600.363 254.541 599.775C253.617 600.735 252.514 601.215 251.232 601.215C250.087 601.215 249.145 600.893 248.407 600.248C247.677 599.596 247.312 598.773 247.312 597.777C247.312 596.567 247.77 595.629 248.687 594.963C249.61 594.29 250.907 593.953 252.575 593.953H254.509V593.04C254.509 592.345 254.301 591.794 253.886 591.386C253.47 590.97 252.858 590.763 252.049 590.763C251.34 590.763 250.745 590.942 250.266 591.3C249.786 591.658 249.546 592.091 249.546 592.6H247.548C247.548 592.02 247.752 591.461 248.16 590.924C248.576 590.38 249.134 589.95 249.836 589.635C250.545 589.32 251.322 589.162 252.167 589.162C253.506 589.162 254.555 589.499 255.314 590.172C256.074 590.838 256.467 591.758 256.496 592.933V598.282C256.496 599.349 256.632 600.198 256.904 600.828V601H254.82ZM251.522 599.485C252.146 599.485 252.736 599.324 253.295 599.002C253.854 598.68 254.258 598.261 254.509 597.745V595.36H252.951C250.516 595.36 249.299 596.073 249.299 597.498C249.299 598.121 249.507 598.608 249.922 598.959C250.337 599.31 250.871 599.485 251.522 599.485ZM263.242 598.089L265.949 589.377H268.076L263.403 602.794C262.68 604.728 261.531 605.694 259.955 605.694L259.579 605.662L258.838 605.522V603.911L259.375 603.954C260.048 603.954 260.571 603.818 260.943 603.546C261.323 603.274 261.634 602.776 261.878 602.053L262.318 600.871L258.172 589.377H260.342L263.242 598.089Z" fill="black"/>
<line x1="350.002" y1="592.324" x2="332.324" y2="610.002" stroke="black"/>
<line x1="350.002" y1="593.031" x2="332.324" y2="575.354" stroke="black"/>
<rect x="1.5" y="419.5" width="374" height="101" stroke="black"/>
<path d="M18.5 440.5H77.5V499.5H18.5V440.5Z" fill="#C4C4C4" stroke="black"/>
<line x1="17.6464" y1="499.646" x2="77.6464" y2="439.646" stroke="black"/>
<line x1="18.3536" y1="439.646" x2="78.3536" y2="499.646" stroke="black"/>
<path d="M128.836 478H126.763L118.889 465.947V478H116.815V462.359H118.889L126.784 474.466V462.359H128.836V478ZM137.011 478.215C135.435 478.215 134.153 477.699 133.165 476.668C132.177 475.63 131.683 474.244 131.683 472.511V472.146C131.683 470.993 131.901 469.965 132.338 469.062C132.782 468.153 133.398 467.444 134.186 466.936C134.98 466.42 135.84 466.162 136.764 466.162C138.275 466.162 139.449 466.66 140.287 467.655C141.125 468.651 141.544 470.076 141.544 471.931V472.758H133.67C133.699 473.904 134.032 474.831 134.669 475.54C135.313 476.242 136.13 476.593 137.118 476.593C137.82 476.593 138.414 476.45 138.901 476.163C139.388 475.877 139.814 475.497 140.18 475.024L141.394 475.97C140.42 477.466 138.959 478.215 137.011 478.215ZM136.764 467.795C135.962 467.795 135.288 468.089 134.744 468.676C134.2 469.256 133.863 470.072 133.734 471.125H139.557V470.975C139.499 469.965 139.227 469.184 138.74 468.633C138.253 468.074 137.594 467.795 136.764 467.795ZM154.145 475.261L156.379 466.377H158.366L154.982 478H153.371L150.546 469.191L147.796 478H146.185L142.812 466.377H144.788L147.076 475.078L149.783 466.377H151.384L154.145 475.261ZM170.935 470.212L175.017 462.359H177.358L171.966 472.167V478H169.903V472.167L164.511 462.359H166.874L170.935 470.212ZM183.181 478.215C181.605 478.215 180.323 477.699 179.335 476.668C178.347 475.63 177.853 474.244 177.853 472.511V472.146C177.853 470.993 178.071 469.965 178.508 469.062C178.952 468.153 179.568 467.444 180.355 466.936C181.15 466.42 182.01 466.162 182.934 466.162C184.445 466.162 185.619 466.66 186.457 467.655C187.295 468.651 187.714 470.076 187.714 471.931V472.758H179.84C179.868 473.904 180.201 474.831 180.839 475.54C181.483 476.242 182.3 476.593 183.288 476.593C183.99 476.593 184.584 476.45 185.071 476.163C185.558 475.877 185.984 475.497 186.35 475.024L187.563 475.97C186.59 477.466 185.129 478.215 183.181 478.215ZM182.934 467.795C182.132 467.795 181.458 468.089 180.914 468.676C180.37 469.256 180.033 470.072 179.904 471.125H185.727V470.975C185.669 469.965 185.397 469.184 184.91 468.633C184.423 468.074 183.764 467.795 182.934 467.795ZM197.199 478C197.085 477.771 196.992 477.363 196.92 476.775C195.996 477.735 194.893 478.215 193.611 478.215C192.465 478.215 191.524 477.893 190.786 477.248C190.056 476.596 189.69 475.773 189.69 474.777C189.69 473.567 190.149 472.629 191.065 471.963C191.989 471.29 193.285 470.953 194.954 470.953H196.888V470.04C196.888 469.345 196.68 468.794 196.265 468.386C195.849 467.97 195.237 467.763 194.428 467.763C193.719 467.763 193.124 467.942 192.645 468.3C192.165 468.658 191.925 469.091 191.925 469.6H189.927C189.927 469.02 190.131 468.461 190.539 467.924C190.954 467.38 191.513 466.95 192.215 466.635C192.924 466.32 193.701 466.162 194.546 466.162C195.885 466.162 196.934 466.499 197.693 467.172C198.452 467.838 198.846 468.758 198.875 469.933V475.282C198.875 476.349 199.011 477.198 199.283 477.828V478H197.199ZM193.901 476.485C194.524 476.485 195.115 476.324 195.674 476.002C196.232 475.68 196.637 475.261 196.888 474.745V472.36H195.33C192.895 472.36 191.678 473.073 191.678 474.498C191.678 475.121 191.885 475.608 192.301 475.959C192.716 476.31 193.25 476.485 193.901 476.485ZM207.608 468.16C207.308 468.11 206.982 468.085 206.631 468.085C205.327 468.085 204.443 468.64 203.978 469.75V478H201.99V466.377H203.924L203.956 467.72C204.608 466.681 205.532 466.162 206.728 466.162C207.114 466.162 207.408 466.212 207.608 466.312V468.16ZM216.213 474.917C216.213 474.38 216.009 473.965 215.601 473.671C215.2 473.37 214.494 473.112 213.484 472.897C212.482 472.683 211.683 472.425 211.089 472.124C210.502 471.823 210.065 471.465 209.778 471.05C209.499 470.634 209.359 470.14 209.359 469.567C209.359 468.615 209.76 467.809 210.562 467.15C211.372 466.492 212.403 466.162 213.656 466.162C214.974 466.162 216.041 466.502 216.857 467.183C217.681 467.863 218.093 468.733 218.093 469.793H216.095C216.095 469.249 215.862 468.78 215.396 468.386C214.938 467.992 214.358 467.795 213.656 467.795C212.933 467.795 212.367 467.952 211.959 468.268C211.551 468.583 211.347 468.994 211.347 469.503C211.347 469.983 211.536 470.344 211.916 470.588C212.296 470.831 212.979 471.064 213.968 471.286C214.963 471.508 215.769 471.773 216.385 472.081C217.001 472.389 217.455 472.761 217.749 473.198C218.05 473.628 218.2 474.154 218.2 474.777C218.2 475.816 217.785 476.65 216.954 477.28C216.123 477.903 215.046 478.215 213.721 478.215C212.79 478.215 211.966 478.05 211.25 477.721C210.534 477.391 209.972 476.933 209.563 476.346C209.162 475.751 208.962 475.11 208.962 474.423H210.949C210.985 475.089 211.25 475.619 211.744 476.013C212.245 476.399 212.904 476.593 213.721 476.593C214.473 476.593 215.074 476.442 215.525 476.142C215.984 475.834 216.213 475.425 216.213 474.917Z" fill="black"/>
<line x1="350.002" y1="469.324" x2="332.324" y2="487.002" stroke="black"/>
<line x1="350.002" y1="470.031" x2="332.324" y2="452.354" stroke="black"/>
<rect x="1.5" y="305.5" width="374" height="101" stroke="black"/>
<path d="M18.5 326.5H77.5V385.5H18.5V326.5Z" fill="#C4C4C4" stroke="black"/>
<line x1="17.6464" y1="385.646" x2="77.6464" y2="325.646" stroke="black"/>
<line x1="18.3536" y1="325.646" x2="78.3536" y2="385.646" stroke="black"/>
<path d="M128.32 359.037C128.127 360.691 127.515 361.97 126.483 362.872C125.459 363.767 124.095 364.215 122.391 364.215C120.543 364.215 119.061 363.552 117.943 362.228C116.833 360.903 116.278 359.13 116.278 356.91V355.406C116.278 353.952 116.536 352.674 117.052 351.571C117.575 350.468 118.312 349.623 119.265 349.036C120.217 348.442 121.32 348.145 122.573 348.145C124.235 348.145 125.567 348.61 126.569 349.541C127.572 350.465 128.156 351.747 128.32 353.387H126.247C126.068 352.141 125.678 351.238 125.076 350.68C124.482 350.121 123.647 349.842 122.573 349.842C121.256 349.842 120.221 350.329 119.469 351.303C118.724 352.277 118.352 353.662 118.352 355.46V356.975C118.352 358.672 118.706 360.022 119.415 361.024C120.124 362.027 121.116 362.528 122.391 362.528C123.536 362.528 124.414 362.271 125.022 361.755C125.638 361.232 126.047 360.326 126.247 359.037H128.32ZM132.821 353.784C133.702 352.703 134.848 352.162 136.259 352.162C138.715 352.162 139.954 353.548 139.976 356.319V364H137.988V356.309C137.981 355.471 137.788 354.851 137.408 354.45C137.036 354.049 136.452 353.849 135.657 353.849C135.013 353.849 134.447 354.021 133.96 354.364C133.473 354.708 133.093 355.159 132.821 355.718V364H130.834V347.5H132.821V353.784ZM148.569 354.16C148.269 354.11 147.943 354.085 147.592 354.085C146.288 354.085 145.404 354.64 144.938 355.75V364H142.951V352.377H144.885L144.917 353.72C145.569 352.681 146.493 352.162 147.688 352.162C148.075 352.162 148.369 352.212 148.569 352.312V354.16ZM152.565 364H150.578V352.377H152.565V364ZM150.417 349.294C150.417 348.972 150.514 348.7 150.707 348.478C150.908 348.256 151.201 348.145 151.588 348.145C151.975 348.145 152.268 348.256 152.469 348.478C152.669 348.7 152.77 348.972 152.77 349.294C152.77 349.616 152.669 349.885 152.469 350.1C152.268 350.314 151.975 350.422 151.588 350.422C151.201 350.422 150.908 350.314 150.707 350.1C150.514 349.885 150.417 349.616 150.417 349.294ZM162.523 360.917C162.523 360.38 162.319 359.965 161.911 359.671C161.51 359.37 160.805 359.112 159.795 358.897C158.792 358.683 157.994 358.425 157.399 358.124C156.812 357.823 156.375 357.465 156.089 357.05C155.81 356.634 155.67 356.14 155.67 355.567C155.67 354.615 156.071 353.809 156.873 353.15C157.682 352.492 158.714 352.162 159.967 352.162C161.285 352.162 162.352 352.502 163.168 353.183C163.992 353.863 164.403 354.733 164.403 355.793H162.405C162.405 355.249 162.173 354.78 161.707 354.386C161.249 353.992 160.669 353.795 159.967 353.795C159.243 353.795 158.678 353.952 158.27 354.268C157.861 354.583 157.657 354.994 157.657 355.503C157.657 355.983 157.847 356.344 158.227 356.588C158.606 356.831 159.29 357.064 160.278 357.286C161.274 357.508 162.079 357.773 162.695 358.081C163.311 358.389 163.766 358.761 164.06 359.198C164.36 359.628 164.511 360.154 164.511 360.777C164.511 361.816 164.095 362.65 163.265 363.28C162.434 363.903 161.356 364.215 160.031 364.215C159.1 364.215 158.277 364.05 157.561 363.721C156.844 363.391 156.282 362.933 155.874 362.346C155.473 361.751 155.272 361.11 155.272 360.423H157.26C157.296 361.089 157.561 361.619 158.055 362.013C158.556 362.399 159.215 362.593 160.031 362.593C160.783 362.593 161.385 362.442 161.836 362.142C162.294 361.834 162.523 361.425 162.523 360.917ZM169.796 349.562V352.377H171.966V353.913H169.796V361.121C169.796 361.587 169.893 361.938 170.086 362.174C170.279 362.403 170.609 362.518 171.074 362.518C171.303 362.518 171.618 362.475 172.02 362.389V364C171.497 364.143 170.988 364.215 170.494 364.215C169.606 364.215 168.937 363.946 168.485 363.409C168.034 362.872 167.809 362.109 167.809 361.121V353.913H165.692V352.377H167.809V349.562H169.796ZM176.166 352.377L176.22 353.666C177.072 352.663 178.221 352.162 179.668 352.162C181.294 352.162 182.4 352.785 182.987 354.031C183.374 353.473 183.875 353.021 184.491 352.678C185.114 352.334 185.848 352.162 186.693 352.162C189.243 352.162 190.539 353.512 190.582 356.212V364H188.595V356.33C188.595 355.499 188.405 354.88 188.025 354.472C187.646 354.056 187.008 353.849 186.113 353.849C185.376 353.849 184.763 354.071 184.276 354.515C183.789 354.951 183.507 355.542 183.428 356.287V364H181.43V356.384C181.43 354.694 180.603 353.849 178.948 353.849C177.645 353.849 176.753 354.404 176.273 355.514V364H174.286V352.377H176.166ZM200.766 364C200.651 363.771 200.558 363.363 200.486 362.775C199.562 363.735 198.46 364.215 197.178 364.215C196.032 364.215 195.09 363.893 194.353 363.248C193.622 362.596 193.257 361.773 193.257 360.777C193.257 359.567 193.715 358.629 194.632 357.963C195.556 357.29 196.852 356.953 198.521 356.953H200.454V356.04C200.454 355.345 200.246 354.794 199.831 354.386C199.416 353.97 198.803 353.763 197.994 353.763C197.285 353.763 196.691 353.942 196.211 354.3C195.731 354.658 195.491 355.091 195.491 355.6H193.493C193.493 355.02 193.697 354.461 194.105 353.924C194.521 353.38 195.079 352.95 195.781 352.635C196.49 352.32 197.267 352.162 198.112 352.162C199.451 352.162 200.501 352.499 201.26 353.172C202.019 353.838 202.413 354.758 202.441 355.933V361.282C202.441 362.349 202.577 363.198 202.85 363.828V364H200.766ZM197.468 362.485C198.091 362.485 198.682 362.324 199.24 362.002C199.799 361.68 200.203 361.261 200.454 360.745V358.36H198.896C196.462 358.36 195.244 359.073 195.244 360.498C195.244 361.121 195.452 361.608 195.867 361.959C196.283 362.31 196.816 362.485 197.468 362.485ZM212.324 360.917C212.324 360.38 212.12 359.965 211.712 359.671C211.311 359.37 210.605 359.112 209.596 358.897C208.593 358.683 207.795 358.425 207.2 358.124C206.613 357.823 206.176 357.465 205.89 357.05C205.61 356.634 205.471 356.14 205.471 355.567C205.471 354.615 205.872 353.809 206.674 353.15C207.483 352.492 208.514 352.162 209.768 352.162C211.085 352.162 212.152 352.502 212.969 353.183C213.792 353.863 214.204 354.733 214.204 355.793H212.206C212.206 355.249 211.973 354.78 211.508 354.386C211.049 353.992 210.469 353.795 209.768 353.795C209.044 353.795 208.479 353.952 208.07 354.268C207.662 354.583 207.458 354.994 207.458 355.503C207.458 355.983 207.648 356.344 208.027 356.588C208.407 356.831 209.091 357.064 210.079 357.286C211.075 357.508 211.88 357.773 212.496 358.081C213.112 358.389 213.567 358.761 213.86 359.198C214.161 359.628 214.312 360.154 214.312 360.777C214.312 361.816 213.896 362.65 213.065 363.28C212.235 363.903 211.157 364.215 209.832 364.215C208.901 364.215 208.077 364.05 207.361 363.721C206.645 363.391 206.083 362.933 205.675 362.346C205.274 361.751 205.073 361.11 205.073 360.423H207.061C207.096 361.089 207.361 361.619 207.855 362.013C208.357 362.399 209.016 362.593 209.832 362.593C210.584 362.593 211.186 362.442 211.637 362.142C212.095 361.834 212.324 361.425 212.324 360.917Z" fill="black"/>
<line x1="350.002" y1="355.324" x2="332.324" y2="373.002" stroke="black"/>
<line x1="350.002" y1="356.031" x2="332.324" y2="338.354" stroke="black"/>
<rect x="1" y="753" width="375" height="60" fill="#C4C4C4"/>
<line x1="80.5" y1="808" x2="80.5" y2="758" stroke="black"/>
<line x1="295.5" y1="808" x2="295.5" y2="758" stroke="black"/>
<path d="M320.751 804.435H317.772L317.104 806.29H316.137L318.852 799.181H319.672L322.392 806.29H321.43L320.751 804.435ZM318.056 803.663H320.473L319.262 800.338L318.056 803.663ZM325.326 805.651C325.648 805.651 325.93 805.553 326.171 805.358C326.412 805.162 326.545 804.918 326.571 804.625H327.426C327.41 804.928 327.305 805.216 327.113 805.49C326.921 805.763 326.664 805.981 326.342 806.144C326.023 806.307 325.684 806.388 325.326 806.388C324.607 806.388 324.034 806.149 323.607 805.67C323.184 805.188 322.973 804.531 322.973 803.698V803.546C322.973 803.032 323.067 802.574 323.256 802.174C323.445 801.774 323.715 801.463 324.066 801.241C324.421 801.02 324.84 800.909 325.321 800.909C325.914 800.909 326.405 801.087 326.796 801.442C327.19 801.796 327.4 802.257 327.426 802.824H326.571C326.545 802.482 326.415 802.202 326.181 801.984C325.95 801.762 325.663 801.652 325.321 801.652C324.862 801.652 324.506 801.818 324.252 802.15C324.001 802.478 323.876 802.955 323.876 803.58V803.751C323.876 804.36 324.001 804.829 324.252 805.158C324.503 805.486 324.861 805.651 325.326 805.651ZM330.561 805.651C330.883 805.651 331.164 805.553 331.405 805.358C331.646 805.162 331.78 804.918 331.806 804.625H332.66C332.644 804.928 332.54 805.216 332.348 805.49C332.156 805.763 331.898 805.981 331.576 806.144C331.257 806.307 330.919 806.388 330.561 806.388C329.841 806.388 329.268 806.149 328.842 805.67C328.419 805.188 328.207 804.531 328.207 803.698V803.546C328.207 803.032 328.301 802.574 328.49 802.174C328.679 801.774 328.949 801.463 329.301 801.241C329.656 801.02 330.074 800.909 330.556 800.909C331.148 800.909 331.64 801.087 332.03 801.442C332.424 801.796 332.634 802.257 332.66 802.824H331.806C331.78 802.482 331.649 802.202 331.415 801.984C331.184 801.762 330.897 801.652 330.556 801.652C330.097 801.652 329.74 801.818 329.486 802.15C329.236 802.478 329.11 802.955 329.11 803.58V803.751C329.11 804.36 329.236 804.829 329.486 805.158C329.737 805.486 330.095 805.651 330.561 805.651ZM333.437 803.6C333.437 803.082 333.537 802.617 333.739 802.203C333.944 801.79 334.228 801.471 334.589 801.246C334.953 801.022 335.368 800.909 335.834 800.909C336.553 800.909 337.134 801.158 337.577 801.657C338.023 802.155 338.246 802.817 338.246 803.644V803.707C338.246 804.222 338.147 804.684 337.948 805.094C337.753 805.501 337.471 805.818 337.104 806.046C336.739 806.274 336.319 806.388 335.844 806.388C335.128 806.388 334.547 806.139 334.101 805.641C333.658 805.143 333.437 804.484 333.437 803.663V803.6ZM334.345 803.707C334.345 804.293 334.48 804.764 334.75 805.118C335.023 805.473 335.388 805.651 335.844 805.651C336.303 805.651 336.667 805.472 336.938 805.114C337.208 804.752 337.343 804.248 337.343 803.6C337.343 803.02 337.204 802.552 336.928 802.194C336.654 801.832 336.29 801.652 335.834 801.652C335.388 801.652 335.028 801.829 334.755 802.184C334.481 802.539 334.345 803.046 334.345 803.707ZM342.641 805.768C342.289 806.181 341.773 806.388 341.093 806.388C340.53 806.388 340.1 806.225 339.804 805.9C339.511 805.571 339.363 805.086 339.359 804.445V801.007H340.263V804.42C340.263 805.221 340.588 805.621 341.239 805.621C341.929 805.621 342.388 805.364 342.616 804.85V801.007H343.52V806.29H342.66L342.641 805.768ZM345.751 801.007L345.78 801.671C346.184 801.163 346.711 800.909 347.362 800.909C348.479 800.909 349.042 801.539 349.052 802.799V806.29H348.148V802.794C348.145 802.413 348.057 802.132 347.885 801.949C347.715 801.767 347.45 801.676 347.089 801.676C346.796 801.676 346.539 801.754 346.317 801.91C346.096 802.067 345.924 802.272 345.8 802.526V806.29H344.896V801.007H345.751ZM351.64 799.728V801.007H352.626V801.705H351.64V804.982C351.64 805.193 351.684 805.353 351.771 805.46C351.859 805.564 352.009 805.616 352.221 805.616C352.325 805.616 352.468 805.597 352.65 805.558V806.29C352.413 806.355 352.182 806.388 351.957 806.388C351.553 806.388 351.249 806.266 351.044 806.022C350.839 805.778 350.736 805.431 350.736 804.982V801.705H349.774V801.007H350.736V799.728H351.64Z" fill="black"/>
<path d="M336 764.387C331.726 764.387 328.258 767.855 328.258 772.129C328.258 776.403 331.726 779.871 336 779.871C340.274 779.871 343.742 776.403 343.742 772.129C343.742 767.855 340.274 764.387 336 764.387ZM336 776C333.863 776 332.129 774.266 332.129 772.129C332.129 769.992 333.863 768.258 336 768.258C338.137 768.258 339.871 769.992 339.871 772.129C339.871 774.266 338.137 776 336 776ZM336 756.645C324.952 756.645 316 765.597 316 776.645C316 787.694 324.952 796.645 336 796.645C347.048 796.645 356 787.694 356 776.645C356 765.597 347.048 756.645 336 756.645ZM336 792.774C331.992 792.774 328.331 791.298 325.508 788.871C326.71 787.016 328.766 785.758 331.121 785.685C332.798 786.202 334.395 786.46 336 786.46C337.605 786.46 339.202 786.21 340.879 785.685C343.234 785.766 345.29 787.016 346.492 788.871C343.669 791.298 340.008 792.774 336 792.774ZM349.121 785.992C347.153 783.46 344.113 781.806 340.645 781.806C339.823 781.806 338.548 782.581 336 782.581C333.46 782.581 332.177 781.806 331.355 781.806C327.895 781.806 324.855 783.46 322.879 785.992C320.992 783.355 319.871 780.129 319.871 776.645C319.871 767.75 327.105 760.516 336 760.516C344.895 760.516 352.129 767.75 352.129 776.645C352.129 780.129 351.008 783.355 349.121 785.992Z" fill="black"/>
<g clip-path="url(#clip1_1_89)">
<path d="M271.675 785.925L274.958 771.48C275.195 770.438 274.402 769.444 273.333 769.444H246.056L245.42 766.333C245.261 765.557 244.578 765 243.787 765H236.667C235.746 765 235 765.746 235 766.667V767.778C235 768.698 235.746 769.444 236.667 769.444H241.52L246.398 793.294C245.231 793.965 244.444 795.224 244.444 796.667C244.444 798.814 246.186 800.556 248.333 800.556C250.481 800.556 252.222 798.814 252.222 796.667C252.222 795.578 251.775 794.595 251.054 793.889H265.613C264.892 794.595 264.444 795.578 264.444 796.667C264.444 798.814 266.186 800.556 268.333 800.556C270.481 800.556 272.222 798.814 272.222 796.667C272.222 795.127 271.327 793.796 270.029 793.166L270.412 791.48C270.649 790.438 269.857 789.444 268.787 789.444H250.147L249.693 787.222H270.05C270.828 787.222 271.503 786.684 271.675 785.925Z" fill="black"/>
</g>
<g clip-path="url(#clip2_1_89)">
<path d="M60.4531 797.586L52.6641 789.797C52.3125 789.445 51.8359 789.25 51.3359 789.25H50.0625C52.2187 786.492 53.5 783.023 53.5 779.25C53.5 770.273 46.2266 763 37.25 763C28.2734 763 21 770.273 21 779.25C21 788.227 28.2734 795.5 37.25 795.5C41.0234 795.5 44.4922 794.219 47.25 792.062V793.336C47.25 793.836 47.4453 794.312 47.7969 794.664L55.5859 802.453C56.3203 803.188 57.5078 803.188 58.2344 802.453L60.4453 800.242C61.1797 799.508 61.1797 798.32 60.4531 797.586ZM37.25 789.25C31.7266 789.25 27.25 784.781 27.25 779.25C27.25 773.727 31.7187 769.25 37.25 769.25C42.7734 769.25 47.25 773.719 47.25 779.25C47.25 784.773 42.7812 789.25 37.25 789.25Z" fill="black"/>
</g>
<path d="M102.429 766.786H139.571C140.36 766.786 141 766.146 141 765.357V761.786C141 760.997 140.36 760.357 139.571 760.357H102.429C101.64 760.357 101 760.997 101 761.786V765.357C101 766.146 101.64 766.786 102.429 766.786ZM102.429 781.071H139.571C140.36 781.071 141 780.432 141 779.643V776.071C141 775.282 140.36 774.643 139.571 774.643H102.429C101.64 774.643 101 775.282 101 776.071V779.643C101 780.432 101.64 781.071 102.429 781.071ZM102.429 795.357H139.571C140.36 795.357 141 794.718 141 793.929V790.357C141 789.568 140.36 788.929 139.571 788.929H102.429C101.64 788.929 101 789.568 101 790.357V793.929C101 794.718 101.64 795.357 102.429 795.357Z" fill="black"/>
<path d="M102.055 807.458C101.967 808.21 101.688 808.791 101.22 809.202C100.754 809.609 100.134 809.812 99.3594 809.812C98.5195 809.812 97.8457 809.511 97.3379 808.909C96.8333 808.306 96.5811 807.501 96.5811 806.492V805.808C96.5811 805.147 96.6982 804.566 96.9326 804.065C97.1702 803.564 97.5055 803.179 97.9385 802.913C98.3714 802.642 98.8727 802.507 99.4424 802.507C100.198 802.507 100.803 802.719 101.259 803.142C101.715 803.562 101.98 804.145 102.055 804.89H101.112C101.031 804.324 100.854 803.914 100.58 803.66C100.31 803.406 99.9307 803.279 99.4424 803.279C98.8434 803.279 98.373 803.5 98.0312 803.943C97.6927 804.386 97.5234 805.015 97.5234 805.832V806.521C97.5234 807.292 97.6846 807.906 98.0068 808.362C98.3291 808.817 98.7799 809.045 99.3594 809.045C99.8802 809.045 100.279 808.928 100.556 808.694C100.836 808.456 101.021 808.044 101.112 807.458H102.055ZM106.459 809.714C106.407 809.61 106.365 809.425 106.332 809.158C105.912 809.594 105.411 809.812 104.828 809.812C104.307 809.812 103.879 809.665 103.544 809.372C103.212 809.076 103.046 808.702 103.046 808.249C103.046 807.699 103.254 807.273 103.671 806.97C104.091 806.664 104.68 806.511 105.438 806.511H106.317V806.096C106.317 805.78 106.223 805.53 106.034 805.344C105.845 805.155 105.567 805.061 105.199 805.061C104.877 805.061 104.607 805.142 104.389 805.305C104.171 805.468 104.062 805.665 104.062 805.896H103.153C103.153 805.632 103.246 805.378 103.432 805.134C103.62 804.887 103.874 804.692 104.193 804.548C104.516 804.405 104.869 804.333 105.253 804.333C105.862 804.333 106.339 804.486 106.684 804.792C107.029 805.095 107.208 805.513 107.221 806.047V808.479C107.221 808.964 107.283 809.35 107.406 809.636V809.714H106.459ZM104.96 809.026C105.243 809.026 105.512 808.953 105.766 808.806C106.02 808.66 106.203 808.469 106.317 808.235V807.151H105.609C104.503 807.151 103.949 807.475 103.949 808.122C103.949 808.406 104.044 808.627 104.232 808.787C104.421 808.946 104.664 809.026 104.96 809.026ZM109.862 803.152V804.431H110.849V805.129H109.862V808.406C109.862 808.617 109.906 808.777 109.994 808.884C110.082 808.988 110.232 809.04 110.443 809.04C110.548 809.04 110.691 809.021 110.873 808.982V809.714C110.635 809.779 110.404 809.812 110.18 809.812C109.776 809.812 109.472 809.69 109.267 809.446C109.062 809.202 108.959 808.855 108.959 808.406V805.129H107.997V804.431H108.959V803.152H109.862ZM114.101 809.812C113.384 809.812 112.802 809.578 112.353 809.109C111.903 808.637 111.679 808.007 111.679 807.219V807.053C111.679 806.529 111.778 806.062 111.977 805.652C112.178 805.238 112.458 804.916 112.816 804.685C113.178 804.451 113.568 804.333 113.988 804.333C114.675 804.333 115.209 804.56 115.59 805.012C115.971 805.465 116.161 806.112 116.161 806.956V807.331H112.582C112.595 807.852 112.746 808.274 113.036 808.596C113.329 808.915 113.7 809.075 114.149 809.075C114.468 809.075 114.739 809.01 114.96 808.879C115.181 808.749 115.375 808.577 115.541 808.362L116.093 808.791C115.65 809.472 114.986 809.812 114.101 809.812ZM113.988 805.076C113.624 805.076 113.318 805.209 113.07 805.476C112.823 805.74 112.67 806.111 112.611 806.589H115.258V806.521C115.232 806.062 115.108 805.707 114.887 805.456C114.665 805.203 114.366 805.076 113.988 805.076ZM116.996 807.029C116.996 806.205 117.187 805.551 117.567 805.066C117.948 804.578 118.453 804.333 119.081 804.333C119.726 804.333 120.229 804.561 120.59 805.017L120.634 804.431H121.459V809.587C121.459 810.271 121.256 810.81 120.849 811.204C120.445 811.597 119.901 811.794 119.218 811.794C118.837 811.794 118.464 811.713 118.1 811.55C117.735 811.387 117.457 811.164 117.265 810.881L117.733 810.339C118.121 810.818 118.594 811.057 119.154 811.057C119.594 811.057 119.936 810.933 120.18 810.686C120.427 810.439 120.551 810.09 120.551 809.641V809.187C120.189 809.604 119.696 809.812 119.071 809.812C118.453 809.812 117.951 809.563 117.567 809.065C117.187 808.567 116.996 807.888 116.996 807.029ZM117.904 807.131C117.904 807.727 118.026 808.196 118.271 808.538C118.515 808.876 118.856 809.045 119.296 809.045C119.866 809.045 120.284 808.787 120.551 808.269V805.857C120.274 805.352 119.859 805.1 119.306 805.1C118.866 805.1 118.523 805.271 118.275 805.613C118.028 805.955 117.904 806.461 117.904 807.131ZM122.587 807.024C122.587 806.506 122.688 806.041 122.89 805.627C123.095 805.214 123.378 804.895 123.739 804.67C124.104 804.446 124.519 804.333 124.984 804.333C125.704 804.333 126.285 804.582 126.728 805.081C127.174 805.579 127.396 806.241 127.396 807.068V807.131C127.396 807.646 127.297 808.108 127.099 808.518C126.903 808.925 126.622 809.242 126.254 809.47C125.889 809.698 125.469 809.812 124.994 809.812C124.278 809.812 123.697 809.563 123.251 809.065C122.808 808.567 122.587 807.908 122.587 807.087V807.024ZM123.495 807.131C123.495 807.717 123.63 808.188 123.9 808.542C124.174 808.897 124.538 809.075 124.994 809.075C125.453 809.075 125.818 808.896 126.088 808.538C126.358 808.176 126.493 807.672 126.493 807.024C126.493 806.444 126.355 805.976 126.078 805.618C125.805 805.256 125.44 805.076 124.984 805.076C124.538 805.076 124.179 805.253 123.905 805.608C123.632 805.963 123.495 806.47 123.495 807.131ZM131.083 805.242C130.946 805.219 130.798 805.207 130.639 805.207C130.046 805.207 129.644 805.46 129.433 805.964V809.714H128.529V804.431H129.408L129.423 805.041C129.719 804.569 130.139 804.333 130.683 804.333C130.858 804.333 130.992 804.356 131.083 804.402V805.242ZM132.899 809.714H131.996V804.431H132.899V809.714ZM131.923 803.03C131.923 802.883 131.967 802.76 132.055 802.659C132.146 802.558 132.279 802.507 132.455 802.507C132.631 802.507 132.764 802.558 132.855 802.659C132.947 802.76 132.992 802.883 132.992 803.03C132.992 803.176 132.947 803.298 132.855 803.396C132.764 803.494 132.631 803.542 132.455 803.542C132.279 803.542 132.146 803.494 132.055 803.396C131.967 803.298 131.923 803.176 131.923 803.03ZM136.542 809.812C135.826 809.812 135.243 809.578 134.794 809.109C134.345 808.637 134.12 808.007 134.12 807.219V807.053C134.12 806.529 134.219 806.062 134.418 805.652C134.62 805.238 134.9 804.916 135.258 804.685C135.619 804.451 136.01 804.333 136.43 804.333C137.117 804.333 137.65 804.56 138.031 805.012C138.412 805.465 138.603 806.112 138.603 806.956V807.331H135.023C135.036 807.852 135.188 808.274 135.478 808.596C135.771 808.915 136.142 809.075 136.591 809.075C136.91 809.075 137.18 809.01 137.401 808.879C137.623 808.749 137.816 808.577 137.982 808.362L138.534 808.791C138.091 809.472 137.427 809.812 136.542 809.812ZM136.43 805.076C136.065 805.076 135.759 805.209 135.512 805.476C135.264 805.74 135.111 806.111 135.053 806.589H137.699V806.521C137.673 806.062 137.549 805.707 137.328 805.456C137.107 805.203 136.807 805.076 136.43 805.076ZM142.729 808.313C142.729 808.069 142.636 807.88 142.45 807.747C142.268 807.61 141.947 807.493 141.488 807.395C141.033 807.297 140.67 807.18 140.399 807.043C140.132 806.907 139.934 806.744 139.804 806.555C139.677 806.366 139.613 806.142 139.613 805.881C139.613 805.448 139.796 805.082 140.16 804.783C140.528 804.483 140.997 804.333 141.566 804.333C142.165 804.333 142.65 804.488 143.021 804.797C143.396 805.107 143.583 805.502 143.583 805.984H142.675C142.675 805.736 142.569 805.523 142.357 805.344C142.149 805.165 141.885 805.076 141.566 805.076C141.238 805.076 140.98 805.147 140.795 805.29C140.609 805.434 140.517 805.621 140.517 805.852C140.517 806.07 140.603 806.234 140.775 806.345C140.948 806.456 141.259 806.562 141.708 806.663C142.16 806.763 142.527 806.884 142.807 807.024C143.087 807.164 143.293 807.333 143.427 807.532C143.563 807.727 143.632 807.966 143.632 808.249C143.632 808.721 143.443 809.101 143.065 809.387C142.688 809.67 142.198 809.812 141.596 809.812C141.173 809.812 140.798 809.737 140.473 809.587C140.147 809.438 139.892 809.229 139.706 808.962C139.524 808.692 139.433 808.401 139.433 808.088H140.336C140.352 808.391 140.473 808.632 140.697 808.811C140.925 808.987 141.225 809.075 141.596 809.075C141.938 809.075 142.211 809.006 142.416 808.87C142.624 808.73 142.729 808.544 142.729 808.313Z" fill="black"/>
<circle cx="188.5" cy="759.5" r="37" fill="#C4C4C4" stroke="black"/>
<g clip-path="url(#clip3_1_89)">
<path d="M187.904 751.583L173.5 763.446V776.25C173.5 776.582 173.632 776.899 173.866 777.134C174.1 777.368 174.418 777.5 174.75 777.5L183.505 777.477C183.835 777.476 184.151 777.343 184.384 777.109C184.618 776.875 184.748 776.558 184.748 776.227V768.75C184.748 768.418 184.88 768.101 185.114 767.866C185.349 767.632 185.667 767.5 185.998 767.5H190.998C191.33 767.5 191.648 767.632 191.882 767.866C192.117 768.101 192.248 768.418 192.248 768.75V776.222C192.248 776.386 192.28 776.549 192.342 776.701C192.405 776.854 192.497 776.992 192.613 777.108C192.729 777.225 192.867 777.317 193.019 777.38C193.171 777.443 193.334 777.476 193.498 777.476L202.25 777.5C202.581 777.5 202.899 777.368 203.134 777.134C203.368 776.899 203.5 776.582 203.5 776.25V763.438L189.099 751.583C188.93 751.446 188.719 751.372 188.501 751.372C188.284 751.372 188.073 751.446 187.904 751.583ZM210.656 759.646L204.125 754.263V743.441C204.125 743.193 204.026 742.954 203.85 742.778C203.675 742.603 203.436 742.504 203.187 742.504H198.812C198.564 742.504 198.325 742.603 198.15 742.778C197.974 742.954 197.875 743.193 197.875 743.441V749.114L190.88 743.359C190.209 742.807 189.367 742.505 188.498 742.505C187.628 742.505 186.786 742.807 186.115 743.359L166.339 759.646C166.244 759.725 166.166 759.821 166.108 759.93C166.05 760.039 166.015 760.158 166.003 760.28C165.991 760.403 166.004 760.527 166.04 760.644C166.076 760.762 166.135 760.872 166.214 760.966L168.206 763.388C168.285 763.484 168.381 763.562 168.49 763.62C168.598 763.678 168.718 763.714 168.84 763.726C168.963 763.738 169.087 763.725 169.205 763.689C169.323 763.653 169.432 763.594 169.527 763.516L187.904 748.38C188.073 748.243 188.284 748.169 188.501 748.169C188.719 748.169 188.93 748.243 189.099 748.38L207.476 763.516C207.571 763.594 207.681 763.653 207.799 763.689C207.916 763.726 208.04 763.738 208.163 763.727C208.285 763.715 208.404 763.679 208.513 763.622C208.622 763.564 208.718 763.486 208.797 763.391L210.789 760.969C210.867 760.873 210.926 760.763 210.962 760.645C210.998 760.527 211.01 760.403 210.998 760.28C210.985 760.157 210.949 760.038 210.89 759.929C210.832 759.82 210.752 759.724 210.656 759.646Z" fill="black"/>
</g>
</g>
<rect x="0.5" y="0.5" width="376" height="813" stroke="black"/>
<defs>
<clipPath id="clip0_1_89">
<rect x="1" y="1" width="375" height="812" fill="white"/>
</clipPath>
<clipPath id="clip1_1_89">
<rect width="40" height="35.5556" fill="white" transform="translate(235 765)"/>
</clipPath>
<clipPath id="clip2_1_89">
<rect width="40" height="40" fill="white" transform="translate(21 763)"/>
</clipPath>
<clipPath id="clip3_1_89">
<rect width="45" height="40" fill="white" transform="translate(166 740)"/>
</clipPath>
</defs>
</svg>
