<svg width="377" height="836" viewBox="0 0 377 836" fill="none" xmlns="http://www.w3.org/2000/svg">
<g clip-path="url(#clip0_1_387)">
<rect x="1" y="1" width="375" height="834" fill="white"/>
<rect x="1" y="1" width="375" height="99" fill="#C4C4C4"/>
<rect x="99" y="27" width="180" height="46" fill="#E5E5E5"/>
<path d="M162.242 56.1602H170.328V58H159.98V40.9375H162.242V56.1602ZM185.246 50.0195C185.246 51.6914 184.965 53.1523 184.402 54.4023C183.84 55.6445 183.043 56.5938 182.012 57.25C180.98 57.9062 179.777 58.2344 178.402 58.2344C177.059 58.2344 175.867 57.9062 174.828 57.25C173.789 56.5859 172.98 55.6445 172.402 54.4258C171.832 53.1992 171.539 51.7812 171.523 50.1719V48.9414C171.523 47.3008 171.809 45.8516 172.379 44.5938C172.949 43.3359 173.754 42.375 174.793 41.7109C175.84 41.0391 177.035 40.7031 178.379 40.7031C179.746 40.7031 180.949 41.0352 181.988 41.6992C183.035 42.3555 183.84 43.3125 184.402 44.5703C184.965 45.8203 185.246 47.2773 185.246 48.9414V50.0195ZM183.008 48.918C183.008 46.8945 182.602 45.3438 181.789 44.2656C180.977 43.1797 179.84 42.6367 178.379 42.6367C176.957 42.6367 175.836 43.1797 175.016 44.2656C174.203 45.3438 173.785 46.8438 173.762 48.7656V50.0195C173.762 51.9805 174.172 53.5234 174.992 54.6484C175.82 55.7656 176.957 56.3242 178.402 56.3242C179.855 56.3242 180.98 55.7969 181.777 54.7422C182.574 53.6797 182.984 52.1602 183.008 50.1836V48.918ZM201.219 55.7617C200.641 56.5898 199.832 57.2109 198.793 57.625C197.762 58.0312 196.559 58.2344 195.184 58.2344C193.793 58.2344 192.559 57.9102 191.48 57.2617C190.402 56.6055 189.566 55.6758 188.973 54.4727C188.387 53.2695 188.086 51.875 188.07 50.2891V48.8008C188.07 46.2305 188.668 44.2383 189.863 42.8242C191.066 41.4102 192.754 40.7031 194.926 40.7031C196.707 40.7031 198.141 41.1602 199.227 42.0742C200.312 42.9805 200.977 44.2695 201.219 45.9414H198.969C198.547 43.6836 197.203 42.5547 194.938 42.5547C193.43 42.5547 192.285 43.0859 191.504 44.1484C190.73 45.2031 190.34 46.7344 190.332 48.7422V50.1367C190.332 52.0508 190.77 53.5742 191.645 54.707C192.52 55.832 193.703 56.3945 195.195 56.3945C196.039 56.3945 196.777 56.3008 197.41 56.1133C198.043 55.9258 198.566 55.6094 198.98 55.1641V51.332H195.031V49.5039H201.219V55.7617ZM218.105 50.0195C218.105 51.6914 217.824 53.1523 217.262 54.4023C216.699 55.6445 215.902 56.5938 214.871 57.25C213.84 57.9062 212.637 58.2344 211.262 58.2344C209.918 58.2344 208.727 57.9062 207.688 57.25C206.648 56.5859 205.84 55.6445 205.262 54.4258C204.691 53.1992 204.398 51.7812 204.383 50.1719V48.9414C204.383 47.3008 204.668 45.8516 205.238 44.5938C205.809 43.3359 206.613 42.375 207.652 41.7109C208.699 41.0391 209.895 40.7031 211.238 40.7031C212.605 40.7031 213.809 41.0352 214.848 41.6992C215.895 42.3555 216.699 43.3125 217.262 44.5703C217.824 45.8203 218.105 47.2773 218.105 48.9414V50.0195ZM215.867 48.918C215.867 46.8945 215.461 45.3438 214.648 44.2656C213.836 43.1797 212.699 42.6367 211.238 42.6367C209.816 42.6367 208.695 43.1797 207.875 44.2656C207.062 45.3438 206.645 46.8438 206.621 48.7656V50.0195C206.621 51.9805 207.031 53.5234 207.852 54.6484C208.68 55.7656 209.816 56.3242 211.262 56.3242C212.715 56.3242 213.84 55.7969 214.637 54.7422C215.434 53.6797 215.844 52.1602 215.867 50.1836V48.918Z" fill="black"/>
<path d="M120.219 151.977C119.867 154.984 118.754 157.309 116.879 158.949C115.017 160.577 112.536 161.391 109.438 161.391C106.078 161.391 103.383 160.186 101.352 157.777C99.3333 155.368 98.3242 152.146 98.3242 148.109V145.375C98.3242 142.732 98.793 140.408 99.7305 138.402C100.681 136.397 102.022 134.861 103.754 133.793C105.486 132.712 107.491 132.172 109.77 132.172C112.79 132.172 115.212 133.018 117.035 134.711C118.858 136.391 119.919 138.721 120.219 141.703H116.449C116.124 139.438 115.414 137.797 114.32 136.781C113.24 135.766 111.723 135.258 109.77 135.258C107.374 135.258 105.492 136.143 104.125 137.914C102.771 139.685 102.094 142.204 102.094 145.473V148.227C102.094 151.312 102.738 153.767 104.027 155.59C105.316 157.413 107.12 158.324 109.438 158.324C111.521 158.324 113.116 157.855 114.223 156.918C115.342 155.967 116.085 154.32 116.449 151.977H120.219ZM128.402 142.426C130.004 140.46 132.087 139.477 134.652 139.477C139.118 139.477 141.371 141.996 141.41 147.035V161H137.797V147.016C137.784 145.492 137.432 144.366 136.742 143.637C136.065 142.908 135.004 142.543 133.559 142.543C132.387 142.543 131.358 142.855 130.473 143.48C129.587 144.105 128.897 144.926 128.402 145.941V161H124.789V131H128.402V142.426ZM155.59 161.391C152.725 161.391 150.395 160.453 148.598 158.578C146.801 156.69 145.902 154.171 145.902 151.02V150.355C145.902 148.259 146.299 146.391 147.094 144.75C147.901 143.096 149.021 141.807 150.453 140.883C151.898 139.945 153.461 139.477 155.141 139.477C157.888 139.477 160.023 140.382 161.547 142.191C163.07 144.001 163.832 146.592 163.832 149.965V151.469H149.516C149.568 153.552 150.173 155.238 151.332 156.527C152.504 157.803 153.988 158.441 155.785 158.441C157.061 158.441 158.142 158.181 159.027 157.66C159.913 157.139 160.688 156.449 161.352 155.59L163.559 157.309C161.788 160.03 159.132 161.391 155.59 161.391ZM155.141 142.445C153.682 142.445 152.458 142.979 151.469 144.047C150.479 145.102 149.867 146.586 149.633 148.5H160.219V148.227C160.115 146.391 159.62 144.971 158.734 143.969C157.849 142.953 156.651 142.445 155.141 142.445ZM176.508 158.441C177.797 158.441 178.923 158.051 179.887 157.27C180.85 156.488 181.384 155.512 181.488 154.34H184.906C184.841 155.551 184.424 156.703 183.656 157.797C182.888 158.891 181.859 159.763 180.57 160.414C179.294 161.065 177.94 161.391 176.508 161.391C173.63 161.391 171.339 160.434 169.633 158.52C167.94 156.592 167.094 153.962 167.094 150.629V150.023C167.094 147.966 167.471 146.137 168.227 144.535C168.982 142.934 170.062 141.69 171.469 140.805C172.888 139.919 174.561 139.477 176.488 139.477C178.858 139.477 180.824 140.186 182.387 141.605C183.962 143.025 184.802 144.867 184.906 147.133H181.488C181.384 145.766 180.863 144.646 179.926 143.773C179.001 142.888 177.855 142.445 176.488 142.445C174.652 142.445 173.227 143.109 172.211 144.438C171.208 145.753 170.707 147.66 170.707 150.16V150.844C170.707 153.279 171.208 155.154 172.211 156.469C173.214 157.784 174.646 158.441 176.508 158.441ZM194.867 151.215L192.602 153.578V161H188.988V131H192.602V149.145L194.535 146.82L201.117 139.867H205.512L197.289 148.695L206.469 161H202.23L194.867 151.215ZM241.605 147.699C241.605 150.486 241.137 152.921 240.199 155.004C239.262 157.074 237.934 158.656 236.215 159.75C234.496 160.844 232.491 161.391 230.199 161.391C227.96 161.391 225.974 160.844 224.242 159.75C222.51 158.643 221.163 157.074 220.199 155.043C219.249 152.999 218.76 150.635 218.734 147.953V145.902C218.734 143.168 219.21 140.753 220.16 138.656C221.111 136.56 222.452 134.958 224.184 133.852C225.928 132.732 227.921 132.172 230.16 132.172C232.439 132.172 234.444 132.725 236.176 133.832C237.921 134.926 239.262 136.521 240.199 138.617C241.137 140.701 241.605 143.129 241.605 145.902V147.699ZM237.875 145.863C237.875 142.491 237.198 139.906 235.844 138.109C234.49 136.299 232.595 135.395 230.16 135.395C227.79 135.395 225.922 136.299 224.555 138.109C223.201 139.906 222.504 142.406 222.465 145.609V147.699C222.465 150.967 223.148 153.539 224.516 155.414C225.896 157.276 227.79 158.207 230.199 158.207C232.621 158.207 234.496 157.328 235.824 155.57C237.152 153.799 237.836 151.267 237.875 147.973V145.863ZM259.711 158.91C258.305 160.564 256.241 161.391 253.52 161.391C251.267 161.391 249.548 160.74 248.363 159.438C247.191 158.122 246.599 156.182 246.586 153.617V139.867H250.199V153.52C250.199 156.723 251.501 158.324 254.105 158.324C256.866 158.324 258.702 157.296 259.613 155.238V139.867H263.227V161H259.789L259.711 158.91ZM273.637 134.75V139.867H277.582V142.66H273.637V155.766C273.637 156.612 273.812 157.25 274.164 157.68C274.516 158.096 275.115 158.305 275.961 158.305C276.378 158.305 276.951 158.227 277.68 158.07V161C276.729 161.26 275.805 161.391 274.906 161.391C273.292 161.391 272.074 160.902 271.254 159.926C270.434 158.949 270.023 157.562 270.023 155.766V142.66H266.176V139.867H270.023V134.75H273.637Z" fill="black"/>
<rect x="1" y="775" width="375" height="60" fill="#C4C4C4"/>
<line x1="80.5" y1="830" x2="80.5" y2="780" stroke="black"/>
<line x1="295.5" y1="830" x2="295.5" y2="780" stroke="black"/>
<path d="M320.751 826.435H317.772L317.104 828.29H316.137L318.852 821.181H319.672L322.392 828.29H321.43L320.751 826.435ZM318.056 825.663H320.473L319.262 822.338L318.056 825.663ZM325.326 827.651C325.648 827.651 325.93 827.553 326.171 827.358C326.412 827.162 326.545 826.918 326.571 826.625H327.426C327.41 826.928 327.305 827.216 327.113 827.49C326.921 827.763 326.664 827.981 326.342 828.144C326.023 828.307 325.684 828.388 325.326 828.388C324.607 828.388 324.034 828.149 323.607 827.67C323.184 827.188 322.973 826.531 322.973 825.698V825.546C322.973 825.032 323.067 824.574 323.256 824.174C323.445 823.774 323.715 823.463 324.066 823.241C324.421 823.02 324.84 822.909 325.321 822.909C325.914 822.909 326.405 823.087 326.796 823.442C327.19 823.796 327.4 824.257 327.426 824.824H326.571C326.545 824.482 326.415 824.202 326.181 823.984C325.95 823.762 325.663 823.652 325.321 823.652C324.862 823.652 324.506 823.818 324.252 824.15C324.001 824.478 323.876 824.955 323.876 825.58V825.751C323.876 826.36 324.001 826.829 324.252 827.158C324.503 827.486 324.861 827.651 325.326 827.651ZM330.561 827.651C330.883 827.651 331.164 827.553 331.405 827.358C331.646 827.162 331.78 826.918 331.806 826.625H332.66C332.644 826.928 332.54 827.216 332.348 827.49C332.156 827.763 331.898 827.981 331.576 828.144C331.257 828.307 330.919 828.388 330.561 828.388C329.841 828.388 329.268 828.149 328.842 827.67C328.419 827.188 328.207 826.531 328.207 825.698V825.546C328.207 825.032 328.301 824.574 328.49 824.174C328.679 823.774 328.949 823.463 329.301 823.241C329.656 823.02 330.074 822.909 330.556 822.909C331.148 822.909 331.64 823.087 332.03 823.442C332.424 823.796 332.634 824.257 332.66 824.824H331.806C331.78 824.482 331.649 824.202 331.415 823.984C331.184 823.762 330.897 823.652 330.556 823.652C330.097 823.652 329.74 823.818 329.486 824.15C329.236 824.478 329.11 824.955 329.11 825.58V825.751C329.11 826.36 329.236 826.829 329.486 827.158C329.737 827.486 330.095 827.651 330.561 827.651ZM333.437 825.6C333.437 825.082 333.537 824.617 333.739 824.203C333.944 823.79 334.228 823.471 334.589 823.246C334.953 823.022 335.368 822.909 335.834 822.909C336.553 822.909 337.134 823.158 337.577 823.657C338.023 824.155 338.246 824.817 338.246 825.644V825.707C338.246 826.222 338.147 826.684 337.948 827.094C337.753 827.501 337.471 827.818 337.104 828.046C336.739 828.274 336.319 828.388 335.844 828.388C335.128 828.388 334.547 828.139 334.101 827.641C333.658 827.143 333.437 826.484 333.437 825.663V825.6ZM334.345 825.707C334.345 826.293 334.48 826.764 334.75 827.118C335.023 827.473 335.388 827.651 335.844 827.651C336.303 827.651 336.667 827.472 336.938 827.114C337.208 826.752 337.343 826.248 337.343 825.6C337.343 825.02 337.204 824.552 336.928 824.194C336.654 823.832 336.29 823.652 335.834 823.652C335.388 823.652 335.028 823.829 334.755 824.184C334.481 824.539 334.345 825.046 334.345 825.707ZM342.641 827.768C342.289 828.181 341.773 828.388 341.093 828.388C340.53 828.388 340.1 828.225 339.804 827.9C339.511 827.571 339.363 827.086 339.359 826.445V823.007H340.263V826.42C340.263 827.221 340.588 827.621 341.239 827.621C341.929 827.621 342.388 827.364 342.616 826.85V823.007H343.52V828.29H342.66L342.641 827.768ZM345.751 823.007L345.78 823.671C346.184 823.163 346.711 822.909 347.362 822.909C348.479 822.909 349.042 823.539 349.052 824.799V828.29H348.148V824.794C348.145 824.413 348.057 824.132 347.885 823.949C347.715 823.767 347.45 823.676 347.089 823.676C346.796 823.676 346.539 823.754 346.317 823.91C346.096 824.067 345.924 824.272 345.8 824.526V828.29H344.896V823.007H345.751ZM351.64 821.728V823.007H352.626V823.705H351.64V826.982C351.64 827.193 351.684 827.353 351.771 827.46C351.859 827.564 352.009 827.616 352.221 827.616C352.325 827.616 352.468 827.597 352.65 827.558V828.29C352.413 828.355 352.182 828.388 351.957 828.388C351.553 828.388 351.249 828.266 351.044 828.022C350.839 827.778 350.736 827.431 350.736 826.982V823.705H349.774V823.007H350.736V821.728H351.64Z" fill="black"/>
<path d="M336 786.387C331.726 786.387 328.258 789.855 328.258 794.129C328.258 798.403 331.726 801.871 336 801.871C340.274 801.871 343.742 798.403 343.742 794.129C343.742 789.855 340.274 786.387 336 786.387ZM336 798C333.863 798 332.129 796.266 332.129 794.129C332.129 791.992 333.863 790.258 336 790.258C338.137 790.258 339.871 791.992 339.871 794.129C339.871 796.266 338.137 798 336 798ZM336 778.645C324.952 778.645 316 787.597 316 798.645C316 809.694 324.952 818.645 336 818.645C347.048 818.645 356 809.694 356 798.645C356 787.597 347.048 778.645 336 778.645ZM336 814.774C331.992 814.774 328.331 813.298 325.508 810.871C326.71 809.016 328.766 807.758 331.121 807.685C332.798 808.202 334.395 808.46 336 808.46C337.605 808.46 339.202 808.21 340.879 807.685C343.234 807.766 345.29 809.016 346.492 810.871C343.669 813.298 340.008 814.774 336 814.774ZM349.121 807.992C347.153 805.46 344.113 803.806 340.645 803.806C339.823 803.806 338.548 804.581 336 804.581C333.46 804.581 332.177 803.806 331.355 803.806C327.895 803.806 324.855 805.46 322.879 807.992C320.992 805.355 319.871 802.129 319.871 798.645C319.871 789.75 327.105 782.516 336 782.516C344.895 782.516 352.129 789.75 352.129 798.645C352.129 802.129 351.008 805.355 349.121 807.992Z" fill="black"/>
<g clip-path="url(#clip1_1_387)">
<path d="M271.675 807.925L274.958 793.48C275.195 792.438 274.402 791.444 273.333 791.444H246.056L245.42 788.333C245.261 787.557 244.578 787 243.787 787H236.667C235.746 787 235 787.746 235 788.667V789.778C235 790.698 235.746 791.444 236.667 791.444H241.52L246.398 815.294C245.231 815.965 244.444 817.224 244.444 818.667C244.444 820.814 246.186 822.556 248.333 822.556C250.481 822.556 252.222 820.814 252.222 818.667C252.222 817.578 251.775 816.595 251.054 815.889H265.613C264.892 816.595 264.444 817.578 264.444 818.667C264.444 820.814 266.186 822.556 268.333 822.556C270.481 822.556 272.222 820.814 272.222 818.667C272.222 817.127 271.327 815.796 270.029 815.166L270.412 813.48C270.649 812.438 269.857 811.444 268.787 811.444H250.147L249.693 809.222H270.05C270.828 809.222 271.503 808.684 271.675 807.925Z" fill="black"/>
</g>
<g clip-path="url(#clip2_1_387)">
<path d="M60.4531 819.586L52.6641 811.797C52.3125 811.445 51.8359 811.25 51.3359 811.25H50.0625C52.2187 808.492 53.5 805.023 53.5 801.25C53.5 792.273 46.2266 785 37.25 785C28.2734 785 21 792.273 21 801.25C21 810.227 28.2734 817.5 37.25 817.5C41.0234 817.5 44.4922 816.219 47.25 814.062V815.336C47.25 815.836 47.4453 816.312 47.7969 816.664L55.5859 824.453C56.3203 825.188 57.5078 825.188 58.2344 824.453L60.4453 822.242C61.1797 821.508 61.1797 820.32 60.4531 819.586ZM37.25 811.25C31.7266 811.25 27.25 806.781 27.25 801.25C27.25 795.727 31.7187 791.25 37.25 791.25C42.7734 791.25 47.25 795.719 47.25 801.25C47.25 806.773 42.7812 811.25 37.25 811.25Z" fill="black"/>
</g>
<path d="M102.429 788.786H139.571C140.36 788.786 141 788.146 141 787.357V783.786C141 782.997 140.36 782.357 139.571 782.357H102.429C101.64 782.357 101 782.997 101 783.786V787.357C101 788.146 101.64 788.786 102.429 788.786ZM102.429 803.071H139.571C140.36 803.071 141 802.432 141 801.643V798.071C141 797.282 140.36 796.643 139.571 796.643H102.429C101.64 796.643 101 797.282 101 798.071V801.643C101 802.432 101.64 803.071 102.429 803.071ZM102.429 817.357H139.571C140.36 817.357 141 816.718 141 815.929V812.357C141 811.568 140.36 810.929 139.571 810.929H102.429C101.64 810.929 101 811.568 101 812.357V815.929C101 816.718 101.64 817.357 102.429 817.357Z" fill="black"/>
<path d="M102.055 829.458C101.967 830.21 101.688 830.791 101.22 831.202C100.754 831.609 100.134 831.812 99.3594 831.812C98.5195 831.812 97.8457 831.511 97.3379 830.909C96.8333 830.306 96.5811 829.501 96.5811 828.492V827.808C96.5811 827.147 96.6982 826.566 96.9326 826.065C97.1702 825.564 97.5055 825.179 97.9385 824.913C98.3714 824.642 98.8727 824.507 99.4424 824.507C100.198 824.507 100.803 824.719 101.259 825.142C101.715 825.562 101.98 826.145 102.055 826.89H101.112C101.031 826.324 100.854 825.914 100.58 825.66C100.31 825.406 99.9307 825.279 99.4424 825.279C98.8434 825.279 98.373 825.5 98.0312 825.943C97.6927 826.386 97.5234 827.015 97.5234 827.832V828.521C97.5234 829.292 97.6846 829.906 98.0068 830.362C98.3291 830.817 98.7799 831.045 99.3594 831.045C99.8802 831.045 100.279 830.928 100.556 830.694C100.836 830.456 101.021 830.044 101.112 829.458H102.055ZM106.459 831.714C106.407 831.61 106.365 831.425 106.332 831.158C105.912 831.594 105.411 831.812 104.828 831.812C104.307 831.812 103.879 831.665 103.544 831.372C103.212 831.076 103.046 830.702 103.046 830.249C103.046 829.699 103.254 829.273 103.671 828.97C104.091 828.664 104.68 828.511 105.438 828.511H106.317V828.096C106.317 827.78 106.223 827.53 106.034 827.344C105.845 827.155 105.567 827.061 105.199 827.061C104.877 827.061 104.607 827.142 104.389 827.305C104.171 827.468 104.062 827.665 104.062 827.896H103.153C103.153 827.632 103.246 827.378 103.432 827.134C103.62 826.887 103.874 826.692 104.193 826.548C104.516 826.405 104.869 826.333 105.253 826.333C105.862 826.333 106.339 826.486 106.684 826.792C107.029 827.095 107.208 827.513 107.221 828.047V830.479C107.221 830.964 107.283 831.35 107.406 831.636V831.714H106.459ZM104.96 831.026C105.243 831.026 105.512 830.953 105.766 830.806C106.02 830.66 106.203 830.469 106.317 830.235V829.151H105.609C104.503 829.151 103.949 829.475 103.949 830.122C103.949 830.406 104.044 830.627 104.232 830.787C104.421 830.946 104.664 831.026 104.96 831.026ZM109.862 825.152V826.431H110.849V827.129H109.862V830.406C109.862 830.617 109.906 830.777 109.994 830.884C110.082 830.988 110.232 831.04 110.443 831.04C110.548 831.04 110.691 831.021 110.873 830.982V831.714C110.635 831.779 110.404 831.812 110.18 831.812C109.776 831.812 109.472 831.69 109.267 831.446C109.062 831.202 108.959 830.855 108.959 830.406V827.129H107.997V826.431H108.959V825.152H109.862ZM114.101 831.812C113.384 831.812 112.802 831.578 112.353 831.109C111.903 830.637 111.679 830.007 111.679 829.219V829.053C111.679 828.529 111.778 828.062 111.977 827.652C112.178 827.238 112.458 826.916 112.816 826.685C113.178 826.451 113.568 826.333 113.988 826.333C114.675 826.333 115.209 826.56 115.59 827.012C115.971 827.465 116.161 828.112 116.161 828.956V829.331H112.582C112.595 829.852 112.746 830.274 113.036 830.596C113.329 830.915 113.7 831.075 114.149 831.075C114.468 831.075 114.739 831.01 114.96 830.879C115.181 830.749 115.375 830.577 115.541 830.362L116.093 830.791C115.65 831.472 114.986 831.812 114.101 831.812ZM113.988 827.076C113.624 827.076 113.318 827.209 113.07 827.476C112.823 827.74 112.67 828.111 112.611 828.589H115.258V828.521C115.232 828.062 115.108 827.707 114.887 827.456C114.665 827.203 114.366 827.076 113.988 827.076ZM116.996 829.029C116.996 828.205 117.187 827.551 117.567 827.066C117.948 826.578 118.453 826.333 119.081 826.333C119.726 826.333 120.229 826.561 120.59 827.017L120.634 826.431H121.459V831.587C121.459 832.271 121.256 832.81 120.849 833.204C120.445 833.597 119.901 833.794 119.218 833.794C118.837 833.794 118.464 833.713 118.1 833.55C117.735 833.387 117.457 833.164 117.265 832.881L117.733 832.339C118.121 832.818 118.594 833.057 119.154 833.057C119.594 833.057 119.936 832.933 120.18 832.686C120.427 832.439 120.551 832.09 120.551 831.641V831.187C120.189 831.604 119.696 831.812 119.071 831.812C118.453 831.812 117.951 831.563 117.567 831.065C117.187 830.567 116.996 829.888 116.996 829.029ZM117.904 829.131C117.904 829.727 118.026 830.196 118.271 830.538C118.515 830.876 118.856 831.045 119.296 831.045C119.866 831.045 120.284 830.787 120.551 830.269V827.857C120.274 827.352 119.859 827.1 119.306 827.1C118.866 827.1 118.523 827.271 118.275 827.613C118.028 827.955 117.904 828.461 117.904 829.131ZM122.587 829.024C122.587 828.506 122.688 828.041 122.89 827.627C123.095 827.214 123.378 826.895 123.739 826.67C124.104 826.446 124.519 826.333 124.984 826.333C125.704 826.333 126.285 826.582 126.728 827.081C127.174 827.579 127.396 828.241 127.396 829.068V829.131C127.396 829.646 127.297 830.108 127.099 830.518C126.903 830.925 126.622 831.242 126.254 831.47C125.889 831.698 125.469 831.812 124.994 831.812C124.278 831.812 123.697 831.563 123.251 831.065C122.808 830.567 122.587 829.908 122.587 829.087V829.024ZM123.495 829.131C123.495 829.717 123.63 830.188 123.9 830.542C124.174 830.897 124.538 831.075 124.994 831.075C125.453 831.075 125.818 830.896 126.088 830.538C126.358 830.176 126.493 829.672 126.493 829.024C126.493 828.444 126.355 827.976 126.078 827.618C125.805 827.256 125.44 827.076 124.984 827.076C124.538 827.076 124.179 827.253 123.905 827.608C123.632 827.963 123.495 828.47 123.495 829.131ZM131.083 827.242C130.946 827.219 130.798 827.207 130.639 827.207C130.046 827.207 129.644 827.46 129.433 827.964V831.714H128.529V826.431H129.408L129.423 827.041C129.719 826.569 130.139 826.333 130.683 826.333C130.858 826.333 130.992 826.356 131.083 826.402V827.242ZM132.899 831.714H131.996V826.431H132.899V831.714ZM131.923 825.03C131.923 824.883 131.967 824.76 132.055 824.659C132.146 824.558 132.279 824.507 132.455 824.507C132.631 824.507 132.764 824.558 132.855 824.659C132.947 824.76 132.992 824.883 132.992 825.03C132.992 825.176 132.947 825.298 132.855 825.396C132.764 825.494 132.631 825.542 132.455 825.542C132.279 825.542 132.146 825.494 132.055 825.396C131.967 825.298 131.923 825.176 131.923 825.03ZM136.542 831.812C135.826 831.812 135.243 831.578 134.794 831.109C134.345 830.637 134.12 830.007 134.12 829.219V829.053C134.12 828.529 134.219 828.062 134.418 827.652C134.62 827.238 134.9 826.916 135.258 826.685C135.619 826.451 136.01 826.333 136.43 826.333C137.117 826.333 137.65 826.56 138.031 827.012C138.412 827.465 138.603 828.112 138.603 828.956V829.331H135.023C135.036 829.852 135.188 830.274 135.478 830.596C135.771 830.915 136.142 831.075 136.591 831.075C136.91 831.075 137.18 831.01 137.401 830.879C137.623 830.749 137.816 830.577 137.982 830.362L138.534 830.791C138.091 831.472 137.427 831.812 136.542 831.812ZM136.43 827.076C136.065 827.076 135.759 827.209 135.512 827.476C135.264 827.74 135.111 828.111 135.053 828.589H137.699V828.521C137.673 828.062 137.549 827.707 137.328 827.456C137.107 827.203 136.807 827.076 136.43 827.076ZM142.729 830.313C142.729 830.069 142.636 829.88 142.45 829.747C142.268 829.61 141.947 829.493 141.488 829.395C141.033 829.297 140.67 829.18 140.399 829.043C140.132 828.907 139.934 828.744 139.804 828.555C139.677 828.366 139.613 828.142 139.613 827.881C139.613 827.448 139.796 827.082 140.16 826.783C140.528 826.483 140.997 826.333 141.566 826.333C142.165 826.333 142.65 826.488 143.021 826.797C143.396 827.107 143.583 827.502 143.583 827.984H142.675C142.675 827.736 142.569 827.523 142.357 827.344C142.149 827.165 141.885 827.076 141.566 827.076C141.238 827.076 140.98 827.147 140.795 827.29C140.609 827.434 140.517 827.621 140.517 827.852C140.517 828.07 140.603 828.234 140.775 828.345C140.948 828.456 141.259 828.562 141.708 828.663C142.16 828.763 142.527 828.884 142.807 829.024C143.087 829.164 143.293 829.333 143.427 829.532C143.563 829.727 143.632 829.966 143.632 830.249C143.632 830.721 143.443 831.101 143.065 831.387C142.688 831.67 142.198 831.812 141.596 831.812C141.173 831.812 140.798 831.737 140.473 831.587C140.147 831.438 139.892 831.229 139.706 830.962C139.524 830.692 139.433 830.401 139.433 830.088H140.336C140.352 830.391 140.473 830.632 140.697 830.811C140.925 830.987 141.225 831.075 141.596 831.075C141.938 831.075 142.211 831.006 142.416 830.87C142.624 830.73 142.729 830.544 142.729 830.313Z" fill="black"/>
<circle cx="188.5" cy="781.5" r="37" fill="#C4C4C4" stroke="black"/>
<g clip-path="url(#clip3_1_387)">
<path d="M187.904 773.583L173.5 785.446V798.25C173.5 798.582 173.632 798.899 173.866 799.134C174.1 799.368 174.418 799.5 174.75 799.5L183.505 799.477C183.835 799.476 184.151 799.343 184.384 799.109C184.618 798.875 184.748 798.558 184.748 798.227V790.75C184.748 790.418 184.88 790.101 185.114 789.866C185.349 789.632 185.667 789.5 185.998 789.5H190.998C191.33 789.5 191.648 789.632 191.882 789.866C192.117 790.101 192.248 790.418 192.248 790.75V798.222C192.248 798.386 192.28 798.549 192.342 798.701C192.405 798.854 192.497 798.992 192.613 799.108C192.729 799.225 192.867 799.317 193.019 799.38C193.171 799.443 193.334 799.476 193.498 799.476L202.25 799.5C202.581 799.5 202.899 799.368 203.134 799.134C203.368 798.899 203.5 798.582 203.5 798.25V785.438L189.099 773.583C188.93 773.446 188.719 773.372 188.501 773.372C188.284 773.372 188.073 773.446 187.904 773.583ZM210.656 781.646L204.125 776.263V765.441C204.125 765.193 204.026 764.954 203.85 764.778C203.675 764.603 203.436 764.504 203.187 764.504H198.812C198.564 764.504 198.325 764.603 198.15 764.778C197.974 764.954 197.875 765.193 197.875 765.441V771.114L190.88 765.359C190.209 764.807 189.367 764.505 188.498 764.505C187.628 764.505 186.786 764.807 186.115 765.359L166.339 781.646C166.244 781.725 166.166 781.821 166.108 781.93C166.05 782.039 166.015 782.158 166.003 782.28C165.991 782.403 166.004 782.527 166.04 782.644C166.076 782.762 166.135 782.872 166.214 782.966L168.206 785.388C168.285 785.484 168.381 785.562 168.49 785.62C168.598 785.678 168.718 785.714 168.84 785.726C168.963 785.738 169.087 785.725 169.205 785.689C169.323 785.653 169.432 785.594 169.527 785.516L187.904 770.38C188.073 770.243 188.284 770.169 188.501 770.169C188.719 770.169 188.93 770.243 189.099 770.38L207.476 785.516C207.571 785.594 207.681 785.653 207.799 785.689C207.916 785.726 208.04 785.738 208.163 785.727C208.285 785.715 208.404 785.679 208.513 785.622C208.622 785.564 208.718 785.486 208.797 785.391L210.789 782.969C210.867 782.873 210.926 782.763 210.962 782.645C210.998 782.527 211.01 782.403 210.998 782.28C210.985 782.157 210.949 782.038 210.89 781.929C210.832 781.82 210.752 781.724 210.656 781.646Z" fill="black"/>
</g>
<rect x="39.5" y="425.5" width="298" height="36" stroke="black"/>
<path d="M59.4766 445.842C59.3535 446.895 58.9639 447.708 58.3076 448.282C57.6559 448.852 56.7878 449.137 55.7031 449.137C54.5273 449.137 53.584 448.715 52.873 447.872C52.1667 447.029 51.8135 445.901 51.8135 444.488V443.531C51.8135 442.606 51.9775 441.793 52.3057 441.091C52.6383 440.389 53.1077 439.851 53.7139 439.478C54.32 439.099 55.0218 438.91 55.8193 438.91C56.8766 438.91 57.7243 439.206 58.3623 439.799C59.0003 440.387 59.3717 441.202 59.4766 442.246H58.1572C58.0433 441.453 57.7949 440.879 57.4121 440.523C57.0339 440.168 56.5029 439.99 55.8193 439.99C54.9808 439.99 54.3223 440.3 53.8438 440.92C53.3698 441.54 53.1328 442.422 53.1328 443.565V444.529C53.1328 445.609 53.3584 446.468 53.8096 447.106C54.2607 447.744 54.8919 448.063 55.7031 448.063C56.4323 448.063 56.9906 447.899 57.3779 447.571C57.7699 447.239 58.0296 446.662 58.1572 445.842H59.4766ZM64.5693 447.257L67.4131 439.047H68.8486L65.1572 449H63.9951L60.3105 439.047H61.7393L64.5693 447.257ZM73.4834 447.257L76.3271 439.047H77.7627L74.0713 449H72.9092L69.2246 439.047H70.6533L73.4834 447.257Z" fill="black"/>
<rect x="39.5" y="262.5" width="298" height="36" stroke="black"/>
<path d="M59.8047 286H58.4854L53.4746 278.33V286H52.1553V276.047H53.4746L58.499 283.751V276.047H59.8047V286ZM66.5039 286C66.431 285.854 66.3717 285.594 66.3262 285.221C65.7383 285.831 65.0365 286.137 64.2207 286.137C63.4915 286.137 62.8923 285.932 62.4229 285.521C61.958 285.107 61.7256 284.583 61.7256 283.949C61.7256 283.179 62.0173 282.582 62.6006 282.158C63.1885 281.73 64.0133 281.516 65.0752 281.516H66.3057V280.935C66.3057 280.493 66.1735 280.142 65.9092 279.882C65.6449 279.618 65.2552 279.485 64.7402 279.485C64.2891 279.485 63.9108 279.599 63.6055 279.827C63.3001 280.055 63.1475 280.331 63.1475 280.654H61.876C61.876 280.285 62.0059 279.93 62.2656 279.588C62.5299 279.242 62.8854 278.968 63.332 278.768C63.7832 278.567 64.2777 278.467 64.8154 278.467C65.6676 278.467 66.3353 278.681 66.8184 279.109C67.3014 279.533 67.5521 280.119 67.5703 280.866V284.271C67.5703 284.95 67.6569 285.49 67.8301 285.891V286H66.5039ZM64.4053 285.036C64.8018 285.036 65.1777 284.934 65.5332 284.729C65.8887 284.523 66.1462 284.257 66.3057 283.929V282.411H65.3145C63.765 282.411 62.9902 282.865 62.9902 283.771C62.9902 284.168 63.1224 284.478 63.3867 284.701C63.651 284.924 63.9906 285.036 64.4053 285.036ZM70.7422 278.604L70.7764 279.424C71.3187 278.786 72.0501 278.467 72.9707 278.467C74.0052 278.467 74.7093 278.863 75.083 279.656C75.3291 279.301 75.6481 279.014 76.04 278.795C76.4365 278.576 76.9036 278.467 77.4414 278.467C79.0638 278.467 79.8887 279.326 79.916 281.044V286H78.6514V281.119C78.6514 280.59 78.5306 280.196 78.2891 279.937C78.0475 279.672 77.6419 279.54 77.0723 279.54C76.6029 279.54 76.2132 279.681 75.9033 279.964C75.5934 280.242 75.4134 280.618 75.3633 281.092V286H74.0918V281.153C74.0918 280.078 73.5654 279.54 72.5127 279.54C71.6833 279.54 71.1159 279.893 70.8105 280.6V286H69.5459V278.604H70.7422ZM84.8994 286.137C83.8968 286.137 83.0811 285.809 82.4521 285.152C81.8232 284.492 81.5088 283.61 81.5088 282.507V282.274C81.5088 281.541 81.6478 280.887 81.9258 280.312C82.2083 279.734 82.6003 279.283 83.1016 278.959C83.6074 278.631 84.1543 278.467 84.7422 278.467C85.7038 278.467 86.4512 278.784 86.9844 279.417C87.5176 280.05 87.7842 280.957 87.7842 282.138V282.664H82.7734C82.7917 283.393 83.0036 283.983 83.4092 284.435C83.8193 284.881 84.3389 285.104 84.9678 285.104C85.4144 285.104 85.7926 285.013 86.1025 284.831C86.4124 284.649 86.6836 284.407 86.916 284.106L87.6885 284.708C87.0687 285.66 86.139 286.137 84.8994 286.137ZM84.7422 279.506C84.2318 279.506 83.8034 279.693 83.457 280.066C83.1107 280.436 82.8965 280.955 82.8145 281.625H86.5195V281.529C86.4831 280.887 86.3099 280.39 86 280.039C85.6901 279.684 85.2708 279.506 84.7422 279.506ZM92.3916 282.233C92.3916 281.509 92.5329 280.857 92.8154 280.278C93.1025 279.7 93.499 279.253 94.0049 278.938C94.5153 278.624 95.0964 278.467 95.748 278.467C96.7552 278.467 97.5687 278.815 98.1885 279.513C98.8128 280.21 99.125 281.137 99.125 282.295V282.384C99.125 283.104 98.986 283.751 98.708 284.325C98.4346 284.895 98.0404 285.339 97.5254 285.658C97.015 285.977 96.4271 286.137 95.7617 286.137C94.7591 286.137 93.9456 285.788 93.3213 285.091C92.7015 284.394 92.3916 283.471 92.3916 282.322V282.233ZM93.6631 282.384C93.6631 283.204 93.8522 283.863 94.2305 284.359C94.6133 284.856 95.1237 285.104 95.7617 285.104C96.4043 285.104 96.9147 284.854 97.293 284.353C97.6712 283.847 97.8604 283.14 97.8604 282.233C97.8604 281.422 97.6667 280.766 97.2793 280.265C96.8965 279.759 96.3861 279.506 95.748 279.506C95.1237 279.506 94.6201 279.754 94.2373 280.251C93.8545 280.748 93.6631 281.459 93.6631 282.384ZM101.907 278.604L101.948 279.533C102.513 278.822 103.252 278.467 104.163 278.467C105.726 278.467 106.515 279.349 106.528 281.112V286H105.264V281.105C105.259 280.572 105.136 280.178 104.895 279.923C104.658 279.668 104.286 279.54 103.78 279.54C103.37 279.54 103.01 279.649 102.7 279.868C102.39 280.087 102.149 280.374 101.976 280.729V286H100.711V278.604H101.907ZM119.428 282.842C119.305 283.895 118.915 284.708 118.259 285.282C117.607 285.852 116.739 286.137 115.654 286.137C114.479 286.137 113.535 285.715 112.824 284.872C112.118 284.029 111.765 282.901 111.765 281.488V280.531C111.765 279.606 111.929 278.793 112.257 278.091C112.59 277.389 113.059 276.851 113.665 276.478C114.271 276.099 114.973 275.91 115.771 275.91C116.828 275.91 117.675 276.206 118.313 276.799C118.951 277.387 119.323 278.202 119.428 279.246H118.108C117.994 278.453 117.746 277.879 117.363 277.523C116.985 277.168 116.454 276.99 115.771 276.99C114.932 276.99 114.273 277.3 113.795 277.92C113.321 278.54 113.084 279.422 113.084 280.565V281.529C113.084 282.609 113.31 283.468 113.761 284.106C114.212 284.744 114.843 285.063 115.654 285.063C116.383 285.063 116.942 284.899 117.329 284.571C117.721 284.239 117.981 283.662 118.108 282.842H119.428ZM125.594 286C125.521 285.854 125.462 285.594 125.416 285.221C124.828 285.831 124.126 286.137 123.311 286.137C122.581 286.137 121.982 285.932 121.513 285.521C121.048 285.107 120.815 284.583 120.815 283.949C120.815 283.179 121.107 282.582 121.69 282.158C122.278 281.73 123.103 281.516 124.165 281.516H125.396V280.935C125.396 280.493 125.263 280.142 124.999 279.882C124.735 279.618 124.345 279.485 123.83 279.485C123.379 279.485 123.001 279.599 122.695 279.827C122.39 280.055 122.237 280.331 122.237 280.654H120.966C120.966 280.285 121.096 279.93 121.355 279.588C121.62 279.242 121.975 278.968 122.422 278.768C122.873 278.567 123.368 278.467 123.905 278.467C124.757 278.467 125.425 278.681 125.908 279.109C126.391 279.533 126.642 280.119 126.66 280.866V284.271C126.66 284.95 126.747 285.49 126.92 285.891V286H125.594ZM123.495 285.036C123.892 285.036 124.268 284.934 124.623 284.729C124.979 284.523 125.236 284.257 125.396 283.929V282.411H124.404C122.855 282.411 122.08 282.865 122.08 283.771C122.08 284.168 122.212 284.478 122.477 284.701C122.741 284.924 123.08 285.036 123.495 285.036ZM132.218 279.738C132.026 279.706 131.819 279.69 131.596 279.69C130.766 279.69 130.203 280.044 129.907 280.75V286H128.643V278.604H129.873L129.894 279.458C130.308 278.797 130.896 278.467 131.657 278.467C131.903 278.467 132.09 278.499 132.218 278.562V279.738ZM132.942 282.24C132.942 281.105 133.211 280.194 133.749 279.506C134.287 278.813 134.991 278.467 135.861 278.467C136.727 278.467 137.413 278.763 137.919 279.355V275.5H139.184V286H138.021L137.96 285.207C137.454 285.827 136.75 286.137 135.848 286.137C134.991 286.137 134.291 285.786 133.749 285.084C133.211 284.382 132.942 283.466 132.942 282.336V282.24ZM134.207 282.384C134.207 283.222 134.38 283.879 134.727 284.353C135.073 284.826 135.551 285.063 136.162 285.063C136.964 285.063 137.55 284.703 137.919 283.983V280.586C137.541 279.889 136.96 279.54 136.176 279.54C135.556 279.54 135.073 279.779 134.727 280.258C134.38 280.736 134.207 281.445 134.207 282.384Z" fill="black"/>
<rect x="39.5" y="319.5" width="298" height="36" stroke="black"/>
<path d="M59.4766 339.842C59.3535 340.895 58.9639 341.708 58.3076 342.282C57.6559 342.852 56.7878 343.137 55.7031 343.137C54.5273 343.137 53.584 342.715 52.873 341.872C52.1667 341.029 51.8135 339.901 51.8135 338.488V337.531C51.8135 336.606 51.9775 335.793 52.3057 335.091C52.6383 334.389 53.1077 333.851 53.7139 333.478C54.32 333.099 55.0218 332.91 55.8193 332.91C56.8766 332.91 57.7243 333.206 58.3623 333.799C59.0003 334.387 59.3717 335.202 59.4766 336.246H58.1572C58.0433 335.453 57.7949 334.879 57.4121 334.523C57.0339 334.168 56.5029 333.99 55.8193 333.99C54.9808 333.99 54.3223 334.3 53.8438 334.92C53.3698 335.54 53.1328 336.422 53.1328 337.565V338.529C53.1328 339.609 53.3584 340.468 53.8096 341.106C54.2607 341.744 54.8919 342.063 55.7031 342.063C56.4323 342.063 56.9906 341.899 57.3779 341.571C57.7699 341.239 58.0296 340.662 58.1572 339.842H59.4766ZM64.6514 336.738C64.46 336.706 64.2526 336.69 64.0293 336.69C63.1999 336.69 62.637 337.044 62.3408 337.75V343H61.0762V335.604H62.3066L62.3271 336.458C62.7419 335.797 63.3298 335.467 64.0908 335.467C64.3369 335.467 64.5238 335.499 64.6514 335.562V336.738ZM68.7529 343.137C67.7503 343.137 66.9346 342.809 66.3057 342.152C65.6768 341.492 65.3623 340.61 65.3623 339.507V339.274C65.3623 338.541 65.5013 337.887 65.7793 337.312C66.0618 336.734 66.4538 336.283 66.9551 335.959C67.4609 335.631 68.0078 335.467 68.5957 335.467C69.5573 335.467 70.3047 335.784 70.8379 336.417C71.3711 337.05 71.6377 337.957 71.6377 339.138V339.664H66.627C66.6452 340.393 66.8571 340.983 67.2627 341.435C67.6729 341.881 68.1924 342.104 68.8213 342.104C69.2679 342.104 69.6462 342.013 69.9561 341.831C70.266 341.649 70.5371 341.407 70.7695 341.106L71.542 341.708C70.9222 342.66 69.9925 343.137 68.7529 343.137ZM68.5957 336.506C68.0853 336.506 67.6569 336.693 67.3105 337.066C66.9642 337.436 66.75 337.955 66.668 338.625H70.373V338.529C70.3366 337.887 70.1634 337.39 69.8535 337.039C69.5436 336.684 69.1243 336.506 68.5957 336.506ZM72.7998 339.24C72.7998 338.105 73.0687 337.194 73.6064 336.506C74.1442 335.813 74.8483 335.467 75.7188 335.467C76.5846 335.467 77.2705 335.763 77.7764 336.355V332.5H79.041V343H77.8789L77.8174 342.207C77.3115 342.827 76.6074 343.137 75.7051 343.137C74.8483 343.137 74.1488 342.786 73.6064 342.084C73.0687 341.382 72.7998 340.466 72.7998 339.336V339.24ZM74.0645 339.384C74.0645 340.222 74.2376 340.879 74.584 341.353C74.9303 341.826 75.4089 342.063 76.0195 342.063C76.8216 342.063 77.4072 341.703 77.7764 340.983V337.586C77.3981 336.889 76.8171 336.54 76.0332 336.54C75.4134 336.54 74.9303 336.779 74.584 337.258C74.2376 337.736 74.0645 338.445 74.0645 339.384ZM82.3838 343H81.1191V335.604H82.3838V343ZM81.0166 333.642C81.0166 333.437 81.0781 333.263 81.2012 333.122C81.3288 332.981 81.5156 332.91 81.7617 332.91C82.0078 332.91 82.1947 332.981 82.3223 333.122C82.4499 333.263 82.5137 333.437 82.5137 333.642C82.5137 333.847 82.4499 334.018 82.3223 334.154C82.1947 334.291 82.0078 334.359 81.7617 334.359C81.5156 334.359 81.3288 334.291 81.2012 334.154C81.0781 334.018 81.0166 333.847 81.0166 333.642ZM86.1299 333.812V335.604H87.5107V336.581H86.1299V341.168C86.1299 341.464 86.1914 341.688 86.3145 341.838C86.4375 341.984 86.6471 342.057 86.9434 342.057C87.0892 342.057 87.2897 342.029 87.5449 341.975V343C87.2122 343.091 86.8887 343.137 86.5742 343.137C86.0091 343.137 85.583 342.966 85.2959 342.624C85.0088 342.282 84.8652 341.797 84.8652 341.168V336.581H83.5186V335.604H84.8652V333.812H86.1299ZM99.9863 339.842C99.8633 340.895 99.4736 341.708 98.8174 342.282C98.1657 342.852 97.2975 343.137 96.2129 343.137C95.0371 343.137 94.0938 342.715 93.3828 341.872C92.6764 341.029 92.3232 339.901 92.3232 338.488V337.531C92.3232 336.606 92.4873 335.793 92.8154 335.091C93.1481 334.389 93.6175 333.851 94.2236 333.478C94.8298 333.099 95.5316 332.91 96.3291 332.91C97.3864 332.91 98.234 333.206 98.8721 333.799C99.5101 334.387 99.8815 335.202 99.9863 336.246H98.667C98.5531 335.453 98.3047 334.879 97.9219 334.523C97.5436 334.168 97.0127 333.99 96.3291 333.99C95.4906 333.99 94.832 334.3 94.3535 334.92C93.8796 335.54 93.6426 336.422 93.6426 337.565V338.529C93.6426 339.609 93.8682 340.468 94.3193 341.106C94.7705 341.744 95.4017 342.063 96.2129 342.063C96.9421 342.063 97.5003 341.899 97.8877 341.571C98.2796 341.239 98.5394 340.662 98.667 339.842H99.9863ZM106.152 343C106.079 342.854 106.02 342.594 105.975 342.221C105.387 342.831 104.685 343.137 103.869 343.137C103.14 343.137 102.541 342.932 102.071 342.521C101.606 342.107 101.374 341.583 101.374 340.949C101.374 340.179 101.666 339.582 102.249 339.158C102.837 338.73 103.662 338.516 104.724 338.516H105.954V337.935C105.954 337.493 105.822 337.142 105.558 336.882C105.293 336.618 104.904 336.485 104.389 336.485C103.938 336.485 103.559 336.599 103.254 336.827C102.949 337.055 102.796 337.331 102.796 337.654H101.524C101.524 337.285 101.654 336.93 101.914 336.588C102.178 336.242 102.534 335.968 102.98 335.768C103.432 335.567 103.926 335.467 104.464 335.467C105.316 335.467 105.984 335.681 106.467 336.109C106.95 336.533 107.201 337.119 107.219 337.866V341.271C107.219 341.95 107.305 342.49 107.479 342.891V343H106.152ZM104.054 342.036C104.45 342.036 104.826 341.934 105.182 341.729C105.537 341.523 105.795 341.257 105.954 340.929V339.411H104.963C103.413 339.411 102.639 339.865 102.639 340.771C102.639 341.168 102.771 341.478 103.035 341.701C103.299 341.924 103.639 342.036 104.054 342.036ZM112.776 336.738C112.585 336.706 112.378 336.69 112.154 336.69C111.325 336.69 110.762 337.044 110.466 337.75V343H109.201V335.604H110.432L110.452 336.458C110.867 335.797 111.455 335.467 112.216 335.467C112.462 335.467 112.649 335.499 112.776 335.562V336.738ZM113.501 339.24C113.501 338.105 113.77 337.194 114.308 336.506C114.845 335.813 115.549 335.467 116.42 335.467C117.286 335.467 117.972 335.763 118.478 336.355V332.5H119.742V343H118.58L118.519 342.207C118.013 342.827 117.309 343.137 116.406 343.137C115.549 343.137 114.85 342.786 114.308 342.084C113.77 341.382 113.501 340.466 113.501 339.336V339.24ZM114.766 339.384C114.766 340.222 114.939 340.879 115.285 341.353C115.632 341.826 116.11 342.063 116.721 342.063C117.523 342.063 118.108 341.703 118.478 340.983V337.586C118.099 336.889 117.518 336.54 116.734 336.54C116.115 336.54 115.632 336.779 115.285 337.258C114.939 337.736 114.766 338.445 114.766 339.384ZM126.38 335.604L126.421 336.533C126.986 335.822 127.724 335.467 128.636 335.467C130.199 335.467 130.987 336.349 131.001 338.112V343H129.736V338.105C129.732 337.572 129.609 337.178 129.367 336.923C129.13 336.668 128.759 336.54 128.253 336.54C127.843 336.54 127.483 336.649 127.173 336.868C126.863 337.087 126.621 337.374 126.448 337.729V343H125.184V335.604H126.38ZM137.475 342.269C136.982 342.847 136.26 343.137 135.308 343.137C134.519 343.137 133.918 342.909 133.503 342.453C133.093 341.993 132.885 341.314 132.881 340.416V335.604H134.146V340.382C134.146 341.503 134.601 342.063 135.513 342.063C136.479 342.063 137.121 341.703 137.44 340.983V335.604H138.705V343H137.502L137.475 342.269ZM141.822 335.604L141.856 336.424C142.399 335.786 143.13 335.467 144.051 335.467C145.085 335.467 145.789 335.863 146.163 336.656C146.409 336.301 146.728 336.014 147.12 335.795C147.517 335.576 147.984 335.467 148.521 335.467C150.144 335.467 150.969 336.326 150.996 338.044V343H149.731V338.119C149.731 337.59 149.611 337.196 149.369 336.937C149.128 336.672 148.722 336.54 148.152 336.54C147.683 336.54 147.293 336.681 146.983 336.964C146.674 337.242 146.493 337.618 146.443 338.092V343H145.172V338.153C145.172 337.078 144.646 336.54 143.593 336.54C142.763 336.54 142.196 336.893 141.891 337.6V343H140.626V335.604H141.822ZM159.172 339.384C159.172 340.514 158.912 341.423 158.393 342.111C157.873 342.795 157.176 343.137 156.301 343.137C155.367 343.137 154.644 342.806 154.134 342.146L154.072 343H152.91V332.5H154.175V336.417C154.685 335.784 155.389 335.467 156.287 335.467C157.185 335.467 157.889 335.806 158.399 336.485C158.914 337.164 159.172 338.094 159.172 339.274V339.384ZM157.907 339.24C157.907 338.379 157.741 337.714 157.408 337.244C157.076 336.775 156.597 336.54 155.973 336.54C155.139 336.54 154.539 336.927 154.175 337.702V340.901C154.562 341.676 155.166 342.063 155.986 342.063C156.592 342.063 157.064 341.829 157.401 341.359C157.739 340.89 157.907 340.184 157.907 339.24ZM163.841 343.137C162.838 343.137 162.022 342.809 161.394 342.152C160.765 341.492 160.45 340.61 160.45 339.507V339.274C160.45 338.541 160.589 337.887 160.867 337.312C161.15 336.734 161.542 336.283 162.043 335.959C162.549 335.631 163.096 335.467 163.684 335.467C164.645 335.467 165.393 335.784 165.926 336.417C166.459 337.05 166.726 337.957 166.726 339.138V339.664H161.715C161.733 340.393 161.945 340.983 162.351 341.435C162.761 341.881 163.28 342.104 163.909 342.104C164.356 342.104 164.734 342.013 165.044 341.831C165.354 341.649 165.625 341.407 165.857 341.106L166.63 341.708C166.01 342.66 165.08 343.137 163.841 343.137ZM163.684 336.506C163.173 336.506 162.745 336.693 162.398 337.066C162.052 337.436 161.838 337.955 161.756 338.625H165.461V338.529C165.424 337.887 165.251 337.39 164.941 337.039C164.632 336.684 164.212 336.506 163.684 336.506ZM171.771 336.738C171.579 336.706 171.372 336.69 171.148 336.69C170.319 336.69 169.756 337.044 169.46 337.75V343H168.195V335.604H169.426L169.446 336.458C169.861 335.797 170.449 335.467 171.21 335.467C171.456 335.467 171.643 335.499 171.771 335.562V336.738Z" fill="black"/>
<path d="M32.3203 198V186.625H36.0391C37.2734 186.625 38.2005 186.88 38.8203 187.391C39.4453 187.901 39.7578 188.656 39.7578 189.656C39.7578 190.188 39.6068 190.659 39.3047 191.07C39.0026 191.477 38.5911 191.792 38.0703 192.016C38.6849 192.188 39.1693 192.516 39.5234 193C39.8828 193.479 40.0625 194.052 40.0625 194.719C40.0625 195.74 39.7318 196.542 39.0703 197.125C38.4089 197.708 37.474 198 36.2656 198H32.3203ZM33.8203 192.68V196.773H36.2969C36.9948 196.773 37.5443 196.594 37.9453 196.234C38.3516 195.87 38.5547 195.37 38.5547 194.734C38.5547 193.365 37.8099 192.68 36.3203 192.68H33.8203ZM33.8203 191.477H36.0859C36.7422 191.477 37.2656 191.312 37.6562 190.984C38.0521 190.656 38.25 190.211 38.25 189.648C38.25 189.023 38.0677 188.57 37.7031 188.289C37.3385 188.003 36.7839 187.859 36.0391 187.859H33.8203V191.477ZM43.6328 198H42.1875V189.547H43.6328V198ZM42.0703 187.305C42.0703 187.07 42.1406 186.872 42.2812 186.711C42.4271 186.549 42.6406 186.469 42.9219 186.469C43.2031 186.469 43.4167 186.549 43.5625 186.711C43.7083 186.872 43.7812 187.07 43.7812 187.305C43.7812 187.539 43.7083 187.734 43.5625 187.891C43.4167 188.047 43.2031 188.125 42.9219 188.125C42.6406 188.125 42.4271 188.047 42.2812 187.891C42.1406 187.734 42.0703 187.539 42.0703 187.305ZM47.5234 198H46.0781V186H47.5234V198ZM51.4141 198H49.9688V186H51.4141V198ZM55.3047 198H53.8594V189.547H55.3047V198ZM53.7422 187.305C53.7422 187.07 53.8125 186.872 53.9531 186.711C54.099 186.549 54.3125 186.469 54.5938 186.469C54.875 186.469 55.0885 186.549 55.2344 186.711C55.3802 186.872 55.4531 187.07 55.4531 187.305C55.4531 187.539 55.3802 187.734 55.2344 187.891C55.0885 188.047 54.875 188.125 54.5938 188.125C54.3125 188.125 54.099 188.047 53.9531 187.891C53.8125 187.734 53.7422 187.539 53.7422 187.305ZM58.9922 189.547L59.0391 190.609C59.6849 189.797 60.5286 189.391 61.5703 189.391C63.3568 189.391 64.2578 190.398 64.2734 192.414V198H62.8281V192.406C62.8229 191.797 62.6823 191.346 62.4062 191.055C62.1354 190.763 61.7109 190.617 61.1328 190.617C60.6641 190.617 60.2526 190.742 59.8984 190.992C59.5443 191.242 59.2682 191.57 59.0703 191.977V198H57.625V189.547H58.9922ZM66.1094 193.703C66.1094 192.385 66.4141 191.339 67.0234 190.562C67.6328 189.781 68.4401 189.391 69.4453 189.391C70.4766 189.391 71.2812 189.755 71.8594 190.484L71.9297 189.547H73.25V197.797C73.25 198.891 72.9245 199.753 72.2734 200.383C71.6276 201.013 70.7578 201.328 69.6641 201.328C69.0547 201.328 68.4583 201.198 67.875 200.938C67.2917 200.677 66.8464 200.32 66.5391 199.867L67.2891 199C67.9089 199.766 68.6667 200.148 69.5625 200.148C70.2656 200.148 70.8125 199.951 71.2031 199.555C71.599 199.159 71.7969 198.602 71.7969 197.883V197.156C71.2188 197.823 70.4297 198.156 69.4297 198.156C68.4401 198.156 67.638 197.758 67.0234 196.961C66.4141 196.164 66.1094 195.078 66.1094 193.703ZM67.5625 193.867C67.5625 194.82 67.7578 195.57 68.1484 196.117C68.5391 196.659 69.0859 196.93 69.7891 196.93C70.7005 196.93 71.3698 196.516 71.7969 195.688V191.828C71.3542 191.021 70.6901 190.617 69.8047 190.617C69.1016 190.617 68.5521 190.891 68.1562 191.438C67.7604 191.984 67.5625 192.794 67.5625 193.867ZM81.2422 198H79.7422V186.625H81.2422V198ZM85.1328 189.547L85.1797 190.609C85.8255 189.797 86.6693 189.391 87.7109 189.391C89.4974 189.391 90.3984 190.398 90.4141 192.414V198H88.9688V192.406C88.9635 191.797 88.8229 191.346 88.5469 191.055C88.276 190.763 87.8516 190.617 87.2734 190.617C86.8047 190.617 86.3932 190.742 86.0391 190.992C85.6849 191.242 85.4089 191.57 85.2109 191.977V198H83.7656V189.547H85.1328ZM93.3047 198V190.664H91.9688V189.547H93.3047V188.68C93.3047 187.773 93.5469 187.073 94.0312 186.578C94.5156 186.083 95.2005 185.836 96.0859 185.836C96.4193 185.836 96.75 185.88 97.0781 185.969L97 187.141C96.7552 187.094 96.4948 187.07 96.2188 187.07C95.75 187.07 95.388 187.208 95.1328 187.484C94.8776 187.755 94.75 188.146 94.75 188.656V189.547H96.5547V190.664H94.75V198H93.3047ZM97.7734 193.695C97.7734 192.867 97.9349 192.122 98.2578 191.461C98.5859 190.799 99.0391 190.289 99.6172 189.93C100.201 189.57 100.865 189.391 101.609 189.391C102.76 189.391 103.69 189.789 104.398 190.586C105.112 191.383 105.469 192.443 105.469 193.766V193.867C105.469 194.69 105.31 195.43 104.992 196.086C104.68 196.737 104.229 197.245 103.641 197.609C103.057 197.974 102.385 198.156 101.625 198.156C100.479 198.156 99.5495 197.758 98.8359 196.961C98.1276 196.164 97.7734 195.109 97.7734 193.797V193.695ZM99.2266 193.867C99.2266 194.805 99.4427 195.557 99.875 196.125C100.312 196.693 100.896 196.977 101.625 196.977C102.359 196.977 102.943 196.69 103.375 196.117C103.807 195.539 104.023 194.732 104.023 193.695C104.023 192.768 103.802 192.018 103.359 191.445C102.922 190.867 102.339 190.578 101.609 190.578C100.896 190.578 100.32 190.862 99.8828 191.43C99.4453 191.997 99.2266 192.81 99.2266 193.867ZM111.367 190.844C111.148 190.807 110.911 190.789 110.656 190.789C109.708 190.789 109.065 191.193 108.727 192V198H107.281V189.547H108.688L108.711 190.523C109.185 189.768 109.857 189.391 110.727 189.391C111.008 189.391 111.221 189.427 111.367 189.5V190.844ZM114.062 189.547L114.102 190.484C114.721 189.755 115.557 189.391 116.609 189.391C117.792 189.391 118.596 189.844 119.023 190.75C119.305 190.344 119.669 190.016 120.117 189.766C120.57 189.516 121.104 189.391 121.719 189.391C123.573 189.391 124.516 190.372 124.547 192.336V198H123.102V192.422C123.102 191.818 122.964 191.367 122.688 191.07C122.411 190.768 121.948 190.617 121.297 190.617C120.76 190.617 120.315 190.779 119.961 191.102C119.607 191.419 119.401 191.849 119.344 192.391V198H117.891V192.461C117.891 191.232 117.289 190.617 116.086 190.617C115.138 190.617 114.49 191.021 114.141 191.828V198H112.695V189.547H114.062ZM131.953 198C131.87 197.833 131.802 197.536 131.75 197.109C131.078 197.807 130.276 198.156 129.344 198.156C128.51 198.156 127.826 197.922 127.289 197.453C126.758 196.979 126.492 196.38 126.492 195.656C126.492 194.776 126.826 194.094 127.492 193.609C128.164 193.12 129.107 192.875 130.32 192.875H131.727V192.211C131.727 191.706 131.576 191.305 131.273 191.008C130.971 190.706 130.526 190.555 129.938 190.555C129.422 190.555 128.99 190.685 128.641 190.945C128.292 191.206 128.117 191.521 128.117 191.891H126.664C126.664 191.469 126.812 191.062 127.109 190.672C127.411 190.276 127.818 189.964 128.328 189.734C128.844 189.505 129.409 189.391 130.023 189.391C130.997 189.391 131.76 189.635 132.312 190.125C132.865 190.609 133.151 191.279 133.172 192.133V196.023C133.172 196.799 133.271 197.417 133.469 197.875V198H131.953ZM129.555 196.898C130.008 196.898 130.438 196.781 130.844 196.547C131.25 196.312 131.544 196.008 131.727 195.633V193.898H130.594C128.823 193.898 127.938 194.417 127.938 195.453C127.938 195.906 128.089 196.26 128.391 196.516C128.693 196.771 129.081 196.898 129.555 196.898ZM137.398 187.5V189.547H138.977V190.664H137.398V195.906C137.398 196.245 137.469 196.5 137.609 196.672C137.75 196.839 137.99 196.922 138.328 196.922C138.495 196.922 138.724 196.891 139.016 196.828V198C138.635 198.104 138.266 198.156 137.906 198.156C137.26 198.156 136.773 197.961 136.445 197.57C136.117 197.18 135.953 196.625 135.953 195.906V190.664H134.414V189.547H135.953V187.5H137.398ZM142.242 198H140.797V189.547H142.242V198ZM140.68 187.305C140.68 187.07 140.75 186.872 140.891 186.711C141.036 186.549 141.25 186.469 141.531 186.469C141.812 186.469 142.026 186.549 142.172 186.711C142.318 186.872 142.391 187.07 142.391 187.305C142.391 187.539 142.318 187.734 142.172 187.891C142.026 188.047 141.812 188.125 141.531 188.125C141.25 188.125 141.036 188.047 140.891 187.891C140.75 187.734 140.68 187.539 140.68 187.305ZM144.18 193.695C144.18 192.867 144.341 192.122 144.664 191.461C144.992 190.799 145.445 190.289 146.023 189.93C146.607 189.57 147.271 189.391 148.016 189.391C149.167 189.391 150.096 189.789 150.805 190.586C151.518 191.383 151.875 192.443 151.875 193.766V193.867C151.875 194.69 151.716 195.43 151.398 196.086C151.086 196.737 150.635 197.245 150.047 197.609C149.464 197.974 148.792 198.156 148.031 198.156C146.885 198.156 145.956 197.758 145.242 196.961C144.534 196.164 144.18 195.109 144.18 193.797V193.695ZM145.633 193.867C145.633 194.805 145.849 195.557 146.281 196.125C146.719 196.693 147.302 196.977 148.031 196.977C148.766 196.977 149.349 196.69 149.781 196.117C150.214 195.539 150.43 194.732 150.43 193.695C150.43 192.768 150.208 192.018 149.766 191.445C149.328 190.867 148.745 190.578 148.016 190.578C147.302 190.578 146.727 190.862 146.289 191.43C145.852 191.997 145.633 192.81 145.633 193.867ZM155.055 189.547L155.102 190.609C155.747 189.797 156.591 189.391 157.633 189.391C159.419 189.391 160.32 190.398 160.336 192.414V198H158.891V192.406C158.885 191.797 158.745 191.346 158.469 191.055C158.198 190.763 157.773 190.617 157.195 190.617C156.727 190.617 156.315 190.742 155.961 190.992C155.607 191.242 155.331 191.57 155.133 191.977V198H153.688V189.547H155.055Z" fill="black"/>
<rect x="83.5" y="553.5" width="210" height="47" fill="#C4C4C4" stroke="black"/>
<path d="M131.424 578.028C129.655 577.52 128.366 576.897 127.557 576.159C126.755 575.414 126.354 574.498 126.354 573.409C126.354 572.177 126.844 571.16 127.825 570.358C128.813 569.549 130.095 569.145 131.671 569.145C132.745 569.145 133.701 569.352 134.539 569.768C135.384 570.183 136.036 570.756 136.494 571.486C136.96 572.217 137.192 573.015 137.192 573.882H135.119C135.119 572.937 134.818 572.195 134.217 571.658C133.615 571.114 132.767 570.842 131.671 570.842C130.654 570.842 129.859 571.067 129.286 571.519C128.72 571.963 128.438 572.582 128.438 573.377C128.438 574.014 128.706 574.555 129.243 574.999C129.787 575.436 130.708 575.837 132.004 576.202C133.307 576.567 134.324 576.972 135.055 577.416C135.792 577.853 136.337 578.365 136.688 578.952C137.046 579.539 137.225 580.23 137.225 581.025C137.225 582.293 136.73 583.31 135.742 584.076C134.754 584.835 133.433 585.215 131.778 585.215C130.704 585.215 129.701 585.011 128.771 584.603C127.84 584.187 127.12 583.621 126.611 582.905C126.11 582.189 125.859 581.376 125.859 580.467H127.933C127.933 581.412 128.28 582.16 128.975 582.712C129.676 583.256 130.611 583.528 131.778 583.528C132.867 583.528 133.701 583.306 134.281 582.862C134.861 582.418 135.151 581.813 135.151 581.047C135.151 580.281 134.883 579.69 134.346 579.274C133.809 578.852 132.835 578.437 131.424 578.028ZM146.742 583.851C145.969 584.76 144.834 585.215 143.337 585.215C142.098 585.215 141.153 584.857 140.501 584.141C139.856 583.417 139.531 582.35 139.523 580.939V573.377H141.511V580.886C141.511 582.647 142.227 583.528 143.659 583.528C145.177 583.528 146.187 582.963 146.688 581.831V573.377H148.676V585H146.785L146.742 583.851ZM161.545 579.317C161.545 581.093 161.137 582.522 160.32 583.604C159.504 584.678 158.408 585.215 157.033 585.215C155.565 585.215 154.43 584.696 153.628 583.657L153.531 585H151.705V568.5H153.692V574.655C154.494 573.66 155.601 573.162 157.012 573.162C158.423 573.162 159.529 573.696 160.331 574.763C161.14 575.83 161.545 577.291 161.545 579.146V579.317ZM159.558 579.092C159.558 577.738 159.296 576.693 158.773 575.955C158.251 575.217 157.499 574.849 156.518 574.849C155.207 574.849 154.265 575.457 153.692 576.675V581.702C154.301 582.92 155.25 583.528 156.539 583.528C157.492 583.528 158.233 583.16 158.763 582.422C159.293 581.684 159.558 580.574 159.558 579.092ZM165.928 573.377L165.981 574.666C166.834 573.663 167.983 573.162 169.43 573.162C171.055 573.162 172.162 573.785 172.749 575.031C173.136 574.473 173.637 574.021 174.253 573.678C174.876 573.334 175.61 573.162 176.455 573.162C179.005 573.162 180.301 574.512 180.344 577.212V585H178.356V577.33C178.356 576.499 178.167 575.88 177.787 575.472C177.408 575.056 176.77 574.849 175.875 574.849C175.137 574.849 174.525 575.071 174.038 575.515C173.551 575.951 173.268 576.542 173.189 577.287V585H171.191V577.384C171.191 575.694 170.364 574.849 168.71 574.849C167.407 574.849 166.515 575.404 166.035 576.514V585H164.048V573.377H165.928ZM185.511 585H183.523V573.377H185.511V585ZM183.362 570.294C183.362 569.972 183.459 569.7 183.652 569.478C183.853 569.256 184.146 569.145 184.533 569.145C184.92 569.145 185.214 569.256 185.414 569.478C185.615 569.7 185.715 569.972 185.715 570.294C185.715 570.616 185.615 570.885 185.414 571.1C185.214 571.314 184.92 571.422 184.533 571.422C184.146 571.422 183.853 571.314 183.652 571.1C183.459 570.885 183.362 570.616 183.362 570.294ZM191.397 570.562V573.377H193.567V574.913H191.397V582.121C191.397 582.587 191.494 582.938 191.688 583.174C191.881 583.403 192.21 583.518 192.676 583.518C192.905 583.518 193.22 583.475 193.621 583.389V585C193.098 585.143 192.59 585.215 192.096 585.215C191.208 585.215 190.538 584.946 190.087 584.409C189.636 583.872 189.41 583.109 189.41 582.121V574.913H187.294V573.377H189.41V570.562H191.397ZM213.698 577.685C213.698 579.217 213.44 580.556 212.925 581.702C212.409 582.841 211.679 583.711 210.733 584.312C209.788 584.914 208.685 585.215 207.425 585.215C206.193 585.215 205.101 584.914 204.148 584.312C203.196 583.704 202.455 582.841 201.925 581.724C201.402 580.599 201.133 579.299 201.119 577.824V576.696C201.119 575.192 201.381 573.864 201.903 572.711C202.426 571.558 203.164 570.677 204.116 570.068C205.076 569.452 206.172 569.145 207.403 569.145C208.657 569.145 209.759 569.449 210.712 570.058C211.672 570.659 212.409 571.536 212.925 572.689C213.44 573.835 213.698 575.171 213.698 576.696V577.685ZM211.646 576.675C211.646 574.82 211.274 573.398 210.529 572.41C209.785 571.415 208.743 570.917 207.403 570.917C206.1 570.917 205.072 571.415 204.32 572.41C203.576 573.398 203.192 574.773 203.171 576.535V577.685C203.171 579.482 203.547 580.896 204.299 581.928C205.058 582.952 206.1 583.464 207.425 583.464C208.757 583.464 209.788 582.98 210.519 582.014C211.249 581.04 211.625 579.647 211.646 577.835V576.675ZM222.099 575.16C221.798 575.11 221.472 575.085 221.121 575.085C219.818 575.085 218.933 575.64 218.468 576.75V585H216.48V573.377H218.414L218.446 574.72C219.098 573.681 220.022 573.162 221.218 573.162C221.604 573.162 221.898 573.212 222.099 573.312V575.16ZM223.237 579.092C223.237 577.309 223.66 575.876 224.505 574.795C225.35 573.706 226.456 573.162 227.824 573.162C229.185 573.162 230.263 573.628 231.058 574.559V568.5H233.045V585H231.219L231.122 583.754C230.327 584.728 229.221 585.215 227.803 585.215C226.456 585.215 225.357 584.663 224.505 583.561C223.66 582.458 223.237 581.018 223.237 579.242V579.092ZM225.225 579.317C225.225 580.635 225.497 581.666 226.041 582.411C226.585 583.156 227.337 583.528 228.297 583.528C229.557 583.528 230.478 582.963 231.058 581.831V576.492C230.463 575.396 229.55 574.849 228.318 574.849C227.344 574.849 226.585 575.225 226.041 575.977C225.497 576.729 225.225 577.842 225.225 579.317ZM240.962 585.215C239.386 585.215 238.104 584.699 237.116 583.668C236.128 582.63 235.634 581.244 235.634 579.511V579.146C235.634 577.993 235.852 576.965 236.289 576.062C236.733 575.153 237.349 574.444 238.137 573.936C238.932 573.42 239.791 573.162 240.715 573.162C242.226 573.162 243.4 573.66 244.238 574.655C245.076 575.651 245.495 577.076 245.495 578.931V579.758H237.621C237.65 580.904 237.983 581.831 238.62 582.54C239.265 583.242 240.081 583.593 241.069 583.593C241.771 583.593 242.366 583.45 242.853 583.163C243.34 582.877 243.766 582.497 244.131 582.024L245.345 582.97C244.371 584.466 242.91 585.215 240.962 585.215ZM240.715 574.795C239.913 574.795 239.24 575.089 238.695 575.676C238.151 576.256 237.814 577.072 237.686 578.125H243.508V577.975C243.451 576.965 243.178 576.184 242.691 575.633C242.204 575.074 241.546 574.795 240.715 574.795ZM253.423 575.16C253.122 575.11 252.796 575.085 252.445 575.085C251.142 575.085 250.257 575.64 249.792 576.75V585H247.805V573.377H249.738L249.771 574.72C250.422 573.681 251.346 573.162 252.542 573.162C252.929 573.162 253.222 573.212 253.423 573.312V575.16Z" fill="black"/>
<path d="M166.535 396.493C166.535 396.965 166.215 397.306 165.757 397.306C165.285 397.306 164.979 396.944 164.979 396.493C164.979 396.042 165.285 395.681 165.757 395.681C166.215 395.681 166.535 396.042 166.535 396.493ZM144.951 395.681C144.458 395.681 144.174 396.042 144.174 396.493C144.174 396.944 144.458 397.306 144.951 397.306C145.403 397.306 145.708 396.965 145.708 396.493C145.701 396.042 145.403 395.681 144.951 395.681ZM153.111 395.66C152.736 395.66 152.507 395.903 152.451 396.264H153.778C153.715 395.868 153.472 395.66 153.111 395.66ZM160.597 395.681C160.125 395.681 159.84 396.042 159.84 396.493C159.84 396.944 160.125 397.306 160.597 397.306C161.069 397.306 161.375 396.965 161.375 396.493C161.375 396.042 161.069 395.681 160.597 395.681ZM167.951 397.493C167.951 397.514 167.972 397.528 167.972 397.569C167.972 397.59 167.951 397.604 167.951 397.646C167.931 397.667 167.931 397.681 167.917 397.701C167.896 397.722 167.882 397.736 167.84 397.736C167.819 397.757 167.806 397.757 167.764 397.757C167.743 397.757 167.729 397.757 167.688 397.736C167.667 397.736 167.653 397.715 167.632 397.701C167.611 397.681 167.597 397.667 167.597 397.646C167.576 397.611 167.576 397.59 167.576 397.569C167.576 397.535 167.576 397.514 167.597 397.493C167.597 397.458 167.618 397.438 167.632 397.417C167.653 397.396 167.667 397.396 167.688 397.382C167.722 397.361 167.743 397.361 167.764 397.361C167.799 397.361 167.819 397.361 167.84 397.382C167.875 397.403 167.896 397.403 167.917 397.417C167.938 397.431 167.931 397.458 167.951 397.493ZM167.799 397.59C167.833 397.59 167.833 397.569 167.854 397.569C167.875 397.549 167.875 397.535 167.875 397.514C167.875 397.493 167.875 397.479 167.854 397.458C167.833 397.458 167.819 397.438 167.778 397.438H167.667V397.681H167.722V397.583H167.743L167.819 397.681H167.875L167.799 397.59ZM173 373.625V398.069C173 399.91 171.507 401.403 169.667 401.403H136.333C134.493 401.403 133 399.91 133 398.069V373.625C133 371.785 134.493 370.292 136.333 370.292H169.667C171.507 370.292 173 371.785 173 373.625ZM137.444 383.319C137.444 388.632 141.757 392.938 147.063 392.938C148.951 392.938 150.806 392.368 152.375 391.333C147.313 387.215 147.347 379.444 152.375 375.326C150.806 374.285 148.951 373.722 147.063 373.722C141.757 373.715 137.444 378.028 137.444 383.319ZM153 390.875C157.896 387.056 157.875 379.611 153 375.771C148.125 379.611 148.104 387.063 153 390.875ZM143.118 396.174C143.118 395.569 142.722 395.174 142.097 395.153C141.778 395.153 141.438 395.25 141.208 395.604C141.042 395.319 140.757 395.153 140.361 395.153C140.097 395.153 139.833 395.25 139.625 395.528V395.222H139.056V397.771H139.625C139.625 396.458 139.451 395.674 140.25 395.674C140.958 395.674 140.819 396.382 140.819 397.771H141.368C141.368 396.5 141.194 395.674 141.993 395.674C142.701 395.674 142.562 396.368 142.562 397.771H143.132V396.174H143.118ZM146.236 395.222H145.688V395.528C145.5 395.299 145.236 395.153 144.875 395.153C144.16 395.153 143.611 395.722 143.611 396.493C143.611 397.271 144.16 397.833 144.875 397.833C145.236 397.833 145.5 397.701 145.688 397.458V397.778H146.236V395.222ZM149.049 397C149.049 395.958 147.458 396.431 147.458 395.944C147.458 395.549 148.285 395.611 148.743 395.868L148.972 395.417C148.319 394.993 146.875 395 146.875 395.986C146.875 396.979 148.465 396.563 148.465 397.028C148.465 397.465 147.528 397.431 147.028 397.083L146.785 397.521C147.563 398.049 149.049 397.938 149.049 397ZM151.507 397.646L151.354 397.174C151.09 397.319 150.507 397.479 150.507 396.889V395.736H151.417V395.222H150.507V394.444H149.938V395.222H149.41V395.729H149.938V396.889C149.938 398.111 151.139 397.889 151.507 397.646ZM152.431 396.715H154.34C154.34 395.59 153.826 395.146 153.132 395.146C152.396 395.146 151.868 395.694 151.868 396.486C151.868 397.91 153.438 398.146 154.215 397.472L153.951 397.056C153.41 397.5 152.59 397.458 152.431 396.715ZM156.535 395.222C156.215 395.083 155.729 395.097 155.479 395.528V395.222H154.91V397.771H155.479V396.333C155.479 395.528 156.139 395.632 156.368 395.75L156.535 395.222ZM157.271 396.493C157.271 395.701 158.076 395.444 158.708 395.91L158.972 395.458C158.167 394.826 156.701 395.174 156.701 396.5C156.701 397.875 158.257 398.153 158.972 397.542L158.708 397.09C158.069 397.542 157.271 397.271 157.271 396.493ZM161.903 395.222H161.333V395.528C160.757 394.764 159.257 395.194 159.257 396.493C159.257 397.826 160.813 398.208 161.333 397.458V397.778H161.903V395.222ZM164.243 395.222C164.076 395.139 163.479 395.021 163.188 395.528V395.222H162.639V397.771H163.188V396.333C163.188 395.569 163.813 395.618 164.076 395.75L164.243 395.222ZM167.042 394.188H166.493V395.528C165.924 394.771 164.417 395.174 164.417 396.493C164.417 397.84 165.979 398.201 166.493 397.458V397.778H167.042V394.188ZM167.569 388.972V389.292H167.625V388.972H167.757V388.917H167.438V388.972H167.569ZM168.028 397.569C168.028 397.535 168.028 397.493 168.007 397.458C167.986 397.438 167.972 397.403 167.951 397.382C167.931 397.361 167.896 397.347 167.875 397.326C167.84 397.326 167.799 397.306 167.764 397.306C167.743 397.306 167.708 397.326 167.667 397.326C167.632 397.347 167.611 397.361 167.59 397.382C167.556 397.403 167.535 397.438 167.535 397.458C167.514 397.493 167.514 397.535 167.514 397.569C167.514 397.59 167.514 397.625 167.535 397.667C167.535 397.688 167.556 397.722 167.59 397.743C167.611 397.764 167.625 397.778 167.667 397.799C167.701 397.819 167.743 397.819 167.764 397.819C167.799 397.819 167.84 397.819 167.875 397.799C167.896 397.778 167.931 397.764 167.951 397.743C167.972 397.722 167.986 397.688 168.007 397.667C168.028 397.625 168.028 397.59 168.028 397.569ZM168.25 388.91H168.153L168.042 389.153L167.931 388.91H167.833V389.285H167.889V389L168 389.243H168.076L168.174 389V389.285H168.25V388.91ZM168.556 383.319C168.556 378.028 164.243 373.715 158.938 373.715C157.049 373.715 155.194 374.285 153.625 375.319C158.632 379.438 158.708 387.229 153.625 391.326C155.194 392.368 157.063 392.931 158.938 392.931C164.243 392.938 168.556 388.632 168.556 383.319Z" fill="black"/>
<path d="M108.986 383.014C108.986 384.208 108.257 384.896 106.972 384.896H105.285V381.132H106.979C108.257 381.132 108.986 381.812 108.986 383.014ZM112.285 387.361C112.285 387.937 112.785 388.312 113.569 388.312C114.569 388.312 115.319 387.681 115.319 386.792V386.257L113.688 386.361C112.764 386.424 112.285 386.764 112.285 387.361ZM128 373.333V397.778C128 399.618 126.507 401.111 124.667 401.111H91.3333C89.4931 401.111 88 399.618 88 397.778V373.333C88 371.493 89.4931 370 91.3333 370H124.667C126.507 370 128 371.493 128 373.333ZM96.875 381.542C97.4583 381.59 98.0417 381.25 98.4097 380.819C98.7708 380.375 99.0069 379.778 98.9444 379.174C98.4306 379.194 97.7917 379.514 97.4236 379.958C97.0903 380.34 96.8056 380.958 96.875 381.542ZM101.083 386.715C101.069 386.701 99.7222 386.187 99.7083 384.632C99.6944 383.333 100.771 382.708 100.819 382.674C100.208 381.771 99.2639 381.674 98.9375 381.653C98.0903 381.604 97.3681 382.132 96.9653 382.132C96.5556 382.132 95.9444 381.674 95.2778 381.687C94.4097 381.701 93.5972 382.194 93.1597 382.979C92.25 384.549 92.9236 386.868 93.8056 388.146C94.2361 388.778 94.7569 389.472 95.4375 389.444C96.0833 389.417 96.3403 389.028 97.1181 389.028C97.9028 389.028 98.125 389.444 98.8056 389.437C99.5139 389.424 99.9514 388.806 100.389 388.174C100.868 387.451 101.069 386.757 101.083 386.715ZM110.486 383.007C110.486 381.16 109.201 379.896 107.368 379.896H103.813V389.368H105.285V386.132H107.319C109.181 386.132 110.486 384.854 110.486 383.007ZM116.736 384.653C116.736 383.285 115.639 382.403 113.958 382.403C112.396 382.403 111.243 383.299 111.201 384.521H112.528C112.639 383.938 113.181 383.556 113.917 383.556C114.819 383.556 115.319 383.972 115.319 384.75V385.271L113.486 385.382C111.778 385.486 110.854 386.188 110.854 387.403C110.854 388.632 111.806 389.444 113.174 389.444C114.097 389.444 114.951 388.979 115.34 388.236H115.368V389.375H116.729V384.653H116.736ZM123.833 382.493H122.34L120.611 388.09H120.583L118.854 382.493H117.306L119.799 389.389L119.667 389.806C119.444 390.514 119.076 390.792 118.424 390.792C118.306 390.792 118.083 390.778 117.993 390.771V391.91C118.076 391.937 118.444 391.944 118.556 391.944C119.993 391.944 120.667 391.396 121.257 389.736L123.833 382.493Z" fill="black"/>
<path d="M75.6458 384.063C75.6458 384.063 76.1736 386.646 76.2917 387.188H73.9722C74.2014 386.569 75.0833 384.167 75.0833 384.167C75.0694 384.188 75.3125 383.535 75.4514 383.132L75.6458 384.063ZM83 373.556V398C83 399.84 81.5069 401.333 79.6667 401.333H46.3333C44.4931 401.333 43 399.84 43 398V373.556C43 371.715 44.4931 370.222 46.3333 370.222H79.6667C81.5069 370.222 83 371.715 83 373.556ZM53.5903 391L57.9792 380.222H55.0278L52.2986 387.583L52 386.09L51.0278 381.132C50.8681 380.444 50.375 380.25 49.7639 380.222H45.2708L45.2222 380.438C46.3194 380.715 47.2986 381.118 48.1528 381.625L50.6389 391H53.5903ZM60.1458 391.014L61.8958 380.222H59.1042L57.3611 391.014H60.1458ZM69.8611 387.486C69.875 386.257 69.125 385.319 67.5208 384.549C66.5417 384.056 65.9444 383.722 65.9444 383.215C65.9583 382.757 66.4514 382.285 67.5486 382.285C68.4583 382.264 69.125 382.479 69.625 382.694L69.875 382.813L70.2569 380.479C69.7083 380.264 68.8333 380.021 67.7569 380.021C65 380.021 63.0625 381.493 63.0486 383.59C63.0278 385.139 64.4375 386 65.4931 386.521C66.5694 387.049 66.9375 387.396 66.9375 387.861C66.9236 388.583 66.0625 388.917 65.2639 388.917C64.1528 388.917 63.5556 388.743 62.6458 388.34L62.2778 388.167L61.8889 390.59C62.5417 390.889 63.75 391.153 65 391.167C67.9306 391.174 69.8403 389.722 69.8611 387.486ZM79.6667 391.014L77.4167 380.222H75.2569C74.5903 380.222 74.0833 380.417 73.7986 381.118L69.6528 391.014H72.5833C72.5833 391.014 73.0625 389.681 73.1667 389.396H76.75C76.8333 389.778 77.0833 391.014 77.0833 391.014H79.6667Z" fill="black"/>
<line x1="17.3536" y1="29.0312" x2="35.0313" y2="11.3535" stroke="black"/>
<line x1="17.3537" y1="28.3241" x2="35.0313" y2="46.0017" stroke="black"/>
<path d="M93.7217 496.759L97.3779 486.203H99.2236L94.4775 499H92.9834L88.2461 486.203H90.083L93.7217 496.759ZM102.458 499H100.832V489.49H102.458V499ZM100.7 486.968C100.7 486.704 100.779 486.481 100.938 486.3C101.102 486.118 101.342 486.027 101.658 486.027C101.975 486.027 102.215 486.118 102.379 486.3C102.543 486.481 102.625 486.704 102.625 486.968C102.625 487.231 102.543 487.451 102.379 487.627C102.215 487.803 101.975 487.891 101.658 487.891C101.342 487.891 101.102 487.803 100.938 487.627C100.779 487.451 100.7 487.231 100.7 486.968ZM109.015 499.176C107.726 499.176 106.677 498.754 105.868 497.91C105.06 497.061 104.655 495.927 104.655 494.509V494.21C104.655 493.267 104.834 492.426 105.191 491.688C105.555 490.943 106.059 490.363 106.703 489.947C107.354 489.525 108.057 489.314 108.812 489.314C110.049 489.314 111.01 489.722 111.695 490.536C112.381 491.351 112.724 492.517 112.724 494.034V494.711H106.281C106.305 495.648 106.577 496.407 107.099 496.987C107.626 497.562 108.294 497.849 109.103 497.849C109.677 497.849 110.163 497.731 110.562 497.497C110.96 497.263 111.309 496.952 111.607 496.565L112.601 497.339C111.804 498.563 110.608 499.176 109.015 499.176ZM108.812 490.65C108.156 490.65 107.605 490.891 107.16 491.371C106.715 491.846 106.439 492.514 106.334 493.375H111.098V493.252C111.051 492.426 110.828 491.787 110.43 491.336C110.031 490.879 109.492 490.65 108.812 490.65ZM123.033 496.759L124.861 489.49H126.487L123.719 499H122.4L120.089 491.793L117.839 499H116.521L113.761 489.49H115.378L117.25 496.609L119.465 489.49H120.774L123.033 496.759ZM132.183 494.157C132.183 493.226 132.364 492.388 132.728 491.644C133.097 490.899 133.606 490.325 134.257 489.921C134.913 489.517 135.66 489.314 136.498 489.314C137.793 489.314 138.839 489.763 139.636 490.659C140.438 491.556 140.84 492.748 140.84 494.236V494.351C140.84 495.276 140.661 496.108 140.304 496.847C139.952 497.579 139.445 498.15 138.783 498.561C138.127 498.971 137.371 499.176 136.516 499.176C135.227 499.176 134.181 498.728 133.378 497.831C132.581 496.935 132.183 495.748 132.183 494.271V494.157ZM133.817 494.351C133.817 495.405 134.061 496.252 134.547 496.891C135.039 497.529 135.695 497.849 136.516 497.849C137.342 497.849 137.998 497.526 138.484 496.882C138.971 496.231 139.214 495.323 139.214 494.157C139.214 493.114 138.965 492.271 138.467 491.626C137.975 490.976 137.318 490.65 136.498 490.65C135.695 490.65 135.048 490.97 134.556 491.608C134.063 492.247 133.817 493.161 133.817 494.351ZM148.75 498.06C148.117 498.804 147.188 499.176 145.964 499.176C144.95 499.176 144.177 498.883 143.644 498.297C143.116 497.705 142.85 496.832 142.844 495.678V489.49H144.47V495.634C144.47 497.075 145.056 497.796 146.228 497.796C147.47 497.796 148.296 497.333 148.706 496.407V489.49H150.332V499H148.785L148.75 498.06ZM157.407 490.949C157.161 490.908 156.895 490.888 156.607 490.888C155.541 490.888 154.817 491.342 154.437 492.25V499H152.811V489.49H154.393L154.419 490.589C154.952 489.739 155.708 489.314 156.687 489.314C157.003 489.314 157.243 489.355 157.407 489.438V490.949ZM165.317 493.99V499H163.63V486.203H168.35C169.75 486.203 170.846 486.561 171.637 487.275C172.434 487.99 172.832 488.937 172.832 490.114C172.832 491.356 172.442 492.314 171.663 492.988C170.89 493.656 169.779 493.99 168.332 493.99H165.317ZM165.317 492.61H168.35C169.252 492.61 169.943 492.399 170.424 491.978C170.904 491.55 171.145 490.935 171.145 490.132C171.145 489.37 170.904 488.761 170.424 488.304C169.943 487.847 169.284 487.609 168.446 487.592H165.317V492.61ZM179.327 490.949C179.081 490.908 178.814 490.888 178.527 490.888C177.461 490.888 176.737 491.342 176.356 492.25V499H174.73V489.49H176.312L176.339 490.589C176.872 489.739 177.628 489.314 178.606 489.314C178.923 489.314 179.163 489.355 179.327 489.438V490.949ZM182.597 499H180.971V489.49H182.597V499ZM180.839 486.968C180.839 486.704 180.918 486.481 181.076 486.3C181.24 486.118 181.48 486.027 181.797 486.027C182.113 486.027 182.354 486.118 182.518 486.3C182.682 486.481 182.764 486.704 182.764 486.968C182.764 487.231 182.682 487.451 182.518 487.627C182.354 487.803 182.113 487.891 181.797 487.891C181.48 487.891 181.24 487.803 181.076 487.627C180.918 487.451 180.839 487.231 180.839 486.968ZM188.345 496.794L190.7 489.49H192.361L188.951 499H187.712L184.267 489.49H185.928L188.345 496.794ZM199.656 499C199.562 498.812 199.486 498.479 199.428 497.998C198.672 498.783 197.77 499.176 196.721 499.176C195.783 499.176 195.013 498.912 194.409 498.385C193.812 497.852 193.513 497.178 193.513 496.363C193.513 495.373 193.888 494.605 194.638 494.061C195.394 493.51 196.454 493.234 197.819 493.234H199.401V492.487C199.401 491.919 199.231 491.468 198.892 491.134C198.552 490.794 198.051 490.624 197.389 490.624C196.809 490.624 196.322 490.771 195.93 491.063C195.537 491.356 195.341 491.711 195.341 492.127H193.706C193.706 491.652 193.873 491.195 194.207 490.756C194.547 490.311 195.004 489.959 195.578 489.701C196.158 489.443 196.794 489.314 197.485 489.314C198.581 489.314 199.439 489.59 200.061 490.141C200.682 490.686 201.004 491.438 201.027 492.399V496.776C201.027 497.649 201.139 498.344 201.361 498.859V499H199.656ZM196.958 497.761C197.468 497.761 197.951 497.629 198.408 497.365C198.865 497.102 199.196 496.759 199.401 496.337V494.386H198.127C196.135 494.386 195.139 494.969 195.139 496.135C195.139 496.645 195.309 497.043 195.648 497.33C195.988 497.617 196.425 497.761 196.958 497.761ZM207.391 497.849C207.971 497.849 208.478 497.673 208.911 497.321C209.345 496.97 209.585 496.53 209.632 496.003H211.17C211.141 496.548 210.953 497.066 210.607 497.559C210.262 498.051 209.799 498.443 209.219 498.736C208.645 499.029 208.035 499.176 207.391 499.176C206.096 499.176 205.064 498.745 204.297 497.884C203.535 497.017 203.154 495.833 203.154 494.333V494.061C203.154 493.135 203.324 492.312 203.664 491.591C204.004 490.87 204.49 490.311 205.123 489.912C205.762 489.514 206.515 489.314 207.382 489.314C208.448 489.314 209.333 489.634 210.036 490.272C210.745 490.911 211.123 491.74 211.17 492.76H209.632C209.585 492.145 209.351 491.641 208.929 491.248C208.513 490.85 207.997 490.65 207.382 490.65C206.556 490.65 205.914 490.949 205.457 491.547C205.006 492.139 204.78 492.997 204.78 494.122V494.43C204.78 495.525 205.006 496.369 205.457 496.961C205.908 497.553 206.553 497.849 207.391 497.849ZM216.109 496.618L218.324 489.49H220.064L216.241 500.468C215.649 502.05 214.709 502.841 213.42 502.841L213.112 502.814L212.506 502.7V501.382L212.945 501.417C213.496 501.417 213.924 501.306 214.229 501.083C214.539 500.86 214.794 500.453 214.993 499.861L215.354 498.895L211.961 489.49H213.736L216.109 496.618ZM227.931 493.99V499H226.243V486.203H230.963C232.363 486.203 233.459 486.561 234.25 487.275C235.047 487.99 235.445 488.937 235.445 490.114C235.445 491.356 235.056 492.314 234.276 492.988C233.503 493.656 232.393 493.99 230.945 493.99H227.931ZM227.931 492.61H230.963C231.865 492.61 232.557 492.399 233.037 491.978C233.518 491.55 233.758 490.935 233.758 490.132C233.758 489.37 233.518 488.761 233.037 488.304C232.557 487.847 231.897 487.609 231.06 487.592H227.931V492.61ZM236.79 494.157C236.79 493.226 236.972 492.388 237.335 491.644C237.704 490.899 238.214 490.325 238.864 489.921C239.521 489.517 240.268 489.314 241.105 489.314C242.4 489.314 243.446 489.763 244.243 490.659C245.046 491.556 245.447 492.748 245.447 494.236V494.351C245.447 495.276 245.269 496.108 244.911 496.847C244.56 497.579 244.053 498.15 243.391 498.561C242.734 498.971 241.979 499.176 241.123 499.176C239.834 499.176 238.788 498.728 237.985 497.831C237.188 496.935 236.79 495.748 236.79 494.271V494.157ZM238.425 494.351C238.425 495.405 238.668 496.252 239.154 496.891C239.646 497.529 240.303 497.849 241.123 497.849C241.949 497.849 242.605 497.526 243.092 496.882C243.578 496.231 243.821 495.323 243.821 494.157C243.821 493.114 243.572 492.271 243.074 491.626C242.582 490.976 241.926 490.65 241.105 490.65C240.303 490.65 239.655 490.97 239.163 491.608C238.671 492.247 238.425 493.161 238.425 494.351ZM249.253 499H247.627V485.5H249.253V499ZM253.63 499H252.004V489.49H253.63V499ZM251.872 486.968C251.872 486.704 251.951 486.481 252.109 486.3C252.273 486.118 252.514 486.027 252.83 486.027C253.146 486.027 253.387 486.118 253.551 486.3C253.715 486.481 253.797 486.704 253.797 486.968C253.797 487.231 253.715 487.451 253.551 487.627C253.387 487.803 253.146 487.891 252.83 487.891C252.514 487.891 252.273 487.803 252.109 487.627C251.951 487.451 251.872 487.231 251.872 486.968ZM260.055 497.849C260.635 497.849 261.142 497.673 261.575 497.321C262.009 496.97 262.249 496.53 262.296 496.003H263.834C263.805 496.548 263.617 497.066 263.271 497.559C262.926 498.051 262.463 498.443 261.883 498.736C261.309 499.029 260.699 499.176 260.055 499.176C258.76 499.176 257.729 498.745 256.961 497.884C256.199 497.017 255.818 495.833 255.818 494.333V494.061C255.818 493.135 255.988 492.312 256.328 491.591C256.668 490.87 257.154 490.311 257.787 489.912C258.426 489.514 259.179 489.314 260.046 489.314C261.112 489.314 261.997 489.634 262.7 490.272C263.409 490.911 263.787 491.74 263.834 492.76H262.296C262.249 492.145 262.015 491.641 261.593 491.248C261.177 490.85 260.661 490.65 260.046 490.65C259.22 490.65 258.578 490.949 258.121 491.547C257.67 492.139 257.444 492.997 257.444 494.122V494.43C257.444 495.525 257.67 496.369 258.121 496.961C258.572 497.553 259.217 497.849 260.055 497.849ZM268.773 496.618L270.988 489.49H272.729L268.905 500.468C268.313 502.05 267.373 502.841 266.084 502.841L265.776 502.814L265.17 502.7V501.382L265.609 501.417C266.16 501.417 266.588 501.306 266.893 501.083C267.203 500.86 267.458 500.453 267.657 499.861L268.018 498.895L264.625 489.49H266.4L268.773 496.618Z" fill="black"/>
<path d="M162.145 500.758H272.948V501.637H162.145V500.758Z" fill="black"/>
</g>
<rect x="0.5" y="0.5" width="376" height="835" stroke="black"/>
<defs>
<clipPath id="clip0_1_387">
<rect x="1" y="1" width="375" height="834" fill="white"/>
</clipPath>
<clipPath id="clip1_1_387">
<rect width="40" height="35.5556" fill="white" transform="translate(235 787)"/>
</clipPath>
<clipPath id="clip2_1_387">
<rect width="40" height="40" fill="white" transform="translate(21 785)"/>
</clipPath>
<clipPath id="clip3_1_387">
<rect width="45" height="40" fill="white" transform="translate(166 762)"/>
</clipPath>
</defs>
</svg>
