<svg width="377" height="814" viewBox="0 0 377 814" fill="none" xmlns="http://www.w3.org/2000/svg">
<rect x="0.5" y="0.5" width="376" height="813" fill="white"/>
<rect x="27" y="80" width="322" height="654" fill="#C4C4C4"/>
<path d="M81.9688 431.641H114.312V439H72.9219V370.75H81.9688V431.641ZM173.984 407.078C173.984 413.766 172.859 419.609 170.609 424.609C168.359 429.578 165.172 433.375 161.047 436C156.922 438.625 152.109 439.938 146.609 439.938C141.234 439.938 136.469 438.625 132.312 436C128.156 433.344 124.922 429.578 122.609 424.703C120.328 419.797 119.156 414.125 119.094 407.688V402.766C119.094 396.203 120.234 390.406 122.516 385.375C124.797 380.344 128.016 376.5 132.172 373.844C136.359 371.156 141.141 369.812 146.516 369.812C151.984 369.812 156.797 371.141 160.953 373.797C165.141 376.422 168.359 380.25 170.609 385.281C172.859 390.281 173.984 396.109 173.984 402.766V407.078ZM165.031 402.672C165.031 394.578 163.406 388.375 160.156 384.062C156.906 379.719 152.359 377.547 146.516 377.547C140.828 377.547 136.344 379.719 133.062 384.062C129.812 388.375 128.141 394.375 128.047 402.062V407.078C128.047 414.922 129.688 421.094 132.969 425.594C136.281 430.062 140.828 432.297 146.609 432.297C152.422 432.297 156.922 430.188 160.109 425.969C163.297 421.719 164.938 415.641 165.031 407.734V402.672ZM237.875 430.047C235.562 433.359 232.328 435.844 228.172 437.5C224.047 439.125 219.234 439.938 213.734 439.938C208.172 439.938 203.234 438.641 198.922 436.047C194.609 433.422 191.266 429.703 188.891 424.891C186.547 420.078 185.344 414.5 185.281 408.156V402.203C185.281 391.922 187.672 383.953 192.453 378.297C197.266 372.641 204.016 369.812 212.703 369.812C219.828 369.812 225.562 371.641 229.906 375.297C234.25 378.922 236.906 384.078 237.875 390.766H228.875C227.188 381.734 221.812 377.219 212.75 377.219C206.719 377.219 202.141 379.344 199.016 383.594C195.922 387.812 194.359 393.938 194.328 401.969V407.547C194.328 415.203 196.078 421.297 199.578 425.828C203.078 430.328 207.812 432.578 213.781 432.578C217.156 432.578 220.109 432.203 222.641 431.453C225.172 430.703 227.266 429.438 228.922 427.656V412.328H213.125V405.016H237.875V430.047ZM305.422 407.078C305.422 413.766 304.297 419.609 302.047 424.609C299.797 429.578 296.609 433.375 292.484 436C288.359 438.625 283.547 439.938 278.047 439.938C272.672 439.938 267.906 438.625 263.75 436C259.594 433.344 256.359 429.578 254.047 424.703C251.766 419.797 250.594 414.125 250.531 407.688V402.766C250.531 396.203 251.672 390.406 253.953 385.375C256.234 380.344 259.453 376.5 263.609 373.844C267.797 371.156 272.578 369.812 277.953 369.812C283.422 369.812 288.234 371.141 292.391 373.797C296.578 376.422 299.797 380.25 302.047 385.281C304.297 390.281 305.422 396.109 305.422 402.766V407.078ZM296.469 402.672C296.469 394.578 294.844 388.375 291.594 384.062C288.344 379.719 283.797 377.547 277.953 377.547C272.266 377.547 267.781 379.719 264.5 384.062C261.25 388.375 259.578 394.375 259.484 402.062V407.078C259.484 414.922 261.125 421.094 264.406 425.594C267.719 430.062 272.266 432.297 278.047 432.297C283.859 432.297 288.359 430.188 291.547 425.969C294.734 421.719 296.375 415.641 296.469 407.734V402.672Z" fill="black"/>
<rect x="88.5" y="518.5" width="196" height="48" fill="white" stroke="black"/>
<path d="M144.121 546.08H148.164V547H142.99V538.469H144.121V546.08ZM151.908 547.117C151.049 547.117 150.35 546.836 149.811 546.273C149.271 545.707 149.002 544.951 149.002 544.006V543.807C149.002 543.178 149.121 542.617 149.359 542.125C149.602 541.629 149.938 541.242 150.367 540.965C150.801 540.684 151.27 540.543 151.773 540.543C152.598 540.543 153.238 540.814 153.695 541.357C154.152 541.9 154.381 542.678 154.381 543.689V544.141H150.086C150.102 544.766 150.283 545.271 150.631 545.658C150.982 546.041 151.428 546.232 151.967 546.232C152.35 546.232 152.674 546.154 152.939 545.998C153.205 545.842 153.438 545.635 153.637 545.377L154.299 545.893C153.768 546.709 152.971 547.117 151.908 547.117ZM151.773 541.434C151.336 541.434 150.969 541.594 150.672 541.914C150.375 542.23 150.191 542.676 150.121 543.25H153.297V543.168C153.266 542.617 153.117 542.191 152.852 541.891C152.586 541.586 152.227 541.434 151.773 541.434ZM157.111 539.125V540.66H158.295V541.498H157.111V545.43C157.111 545.684 157.164 545.875 157.27 546.004C157.375 546.129 157.555 546.191 157.809 546.191C157.934 546.191 158.105 546.168 158.324 546.121V547C158.039 547.078 157.762 547.117 157.492 547.117C157.008 547.117 156.643 546.971 156.396 546.678C156.15 546.385 156.027 545.969 156.027 545.43V541.498H154.873V540.66H156.027V539.125H157.111ZM159.643 540.871L159.027 540.449C159.391 539.941 159.578 539.406 159.59 538.844V538H160.662V538.762C160.658 539.152 160.561 539.543 160.369 539.934C160.182 540.32 159.939 540.633 159.643 540.871ZM165.004 545.318C165.004 545.025 164.893 544.799 164.67 544.639C164.451 544.475 164.066 544.334 163.516 544.217C162.969 544.1 162.533 543.959 162.209 543.795C161.889 543.631 161.65 543.436 161.494 543.209C161.342 542.982 161.266 542.713 161.266 542.4C161.266 541.881 161.484 541.441 161.922 541.082C162.363 540.723 162.926 540.543 163.609 540.543C164.328 540.543 164.91 540.729 165.355 541.1C165.805 541.471 166.029 541.945 166.029 542.523H164.939C164.939 542.227 164.812 541.971 164.559 541.756C164.309 541.541 163.992 541.434 163.609 541.434C163.215 541.434 162.906 541.52 162.684 541.691C162.461 541.863 162.35 542.088 162.35 542.365C162.35 542.627 162.453 542.824 162.66 542.957C162.867 543.09 163.24 543.217 163.779 543.338C164.322 543.459 164.762 543.604 165.098 543.771C165.434 543.939 165.682 544.143 165.842 544.381C166.006 544.615 166.088 544.902 166.088 545.242C166.088 545.809 165.861 546.264 165.408 546.607C164.955 546.947 164.367 547.117 163.645 547.117C163.137 547.117 162.688 547.027 162.297 546.848C161.906 546.668 161.6 546.418 161.377 546.098C161.158 545.773 161.049 545.424 161.049 545.049H162.133C162.152 545.412 162.297 545.701 162.566 545.916C162.84 546.127 163.199 546.232 163.645 546.232C164.055 546.232 164.383 546.15 164.629 545.986C164.879 545.818 165.004 545.596 165.004 545.318ZM176.945 545.881C176.656 546.295 176.252 546.605 175.732 546.812C175.217 547.016 174.615 547.117 173.928 547.117C173.232 547.117 172.615 546.955 172.076 546.631C171.537 546.303 171.119 545.838 170.822 545.236C170.529 544.635 170.379 543.938 170.371 543.145V542.4C170.371 541.115 170.67 540.119 171.268 539.412C171.869 538.705 172.713 538.352 173.799 538.352C174.689 538.352 175.406 538.58 175.949 539.037C176.492 539.49 176.824 540.135 176.945 540.971H175.82C175.609 539.842 174.938 539.277 173.805 539.277C173.051 539.277 172.479 539.543 172.088 540.074C171.701 540.602 171.506 541.367 171.502 542.371V543.068C171.502 544.025 171.721 544.787 172.158 545.354C172.596 545.916 173.188 546.197 173.934 546.197C174.355 546.197 174.725 546.15 175.041 546.057C175.357 545.963 175.619 545.805 175.826 545.582V543.666H173.852V542.752H176.945V545.881ZM181.287 547.117C180.428 547.117 179.729 546.836 179.189 546.273C178.65 545.707 178.381 544.951 178.381 544.006V543.807C178.381 543.178 178.5 542.617 178.738 542.125C178.98 541.629 179.316 541.242 179.746 540.965C180.18 540.684 180.648 540.543 181.152 540.543C181.977 540.543 182.617 540.814 183.074 541.357C183.531 541.9 183.76 542.678 183.76 543.689V544.141H179.465C179.48 544.766 179.662 545.271 180.01 545.658C180.361 546.041 180.807 546.232 181.346 546.232C181.729 546.232 182.053 546.154 182.318 545.998C182.584 545.842 182.816 545.635 183.016 545.377L183.678 545.893C183.146 546.709 182.35 547.117 181.287 547.117ZM181.152 541.434C180.715 541.434 180.348 541.594 180.051 541.914C179.754 542.23 179.57 542.676 179.5 543.25H182.676V543.168C182.645 542.617 182.496 542.191 182.23 541.891C181.965 541.586 181.605 541.434 181.152 541.434ZM186.49 539.125V540.66H187.674V541.498H186.49V545.43C186.49 545.684 186.543 545.875 186.648 546.004C186.754 546.129 186.934 546.191 187.188 546.191C187.312 546.191 187.484 546.168 187.703 546.121V547C187.418 547.078 187.141 547.117 186.871 547.117C186.387 547.117 186.021 546.971 185.775 546.678C185.529 546.385 185.406 545.969 185.406 545.43V541.498H184.252V540.66H185.406V539.125H186.49ZM194.605 543.197C193.641 542.92 192.938 542.58 192.496 542.178C192.059 541.771 191.84 541.271 191.84 540.678C191.84 540.006 192.107 539.451 192.643 539.014C193.182 538.572 193.881 538.352 194.74 538.352C195.326 538.352 195.848 538.465 196.305 538.691C196.766 538.918 197.121 539.23 197.371 539.629C197.625 540.027 197.752 540.463 197.752 540.936H196.621C196.621 540.42 196.457 540.016 196.129 539.723C195.801 539.426 195.338 539.277 194.74 539.277C194.186 539.277 193.752 539.4 193.439 539.646C193.131 539.889 192.977 540.227 192.977 540.66C192.977 541.008 193.123 541.303 193.416 541.545C193.713 541.783 194.215 542.002 194.922 542.201C195.633 542.4 196.188 542.621 196.586 542.863C196.988 543.102 197.285 543.381 197.477 543.701C197.672 544.021 197.77 544.398 197.77 544.832C197.77 545.523 197.5 546.078 196.961 546.496C196.422 546.91 195.701 547.117 194.799 547.117C194.213 547.117 193.666 547.006 193.158 546.783C192.65 546.557 192.258 546.248 191.98 545.857C191.707 545.467 191.57 545.023 191.57 544.527H192.701C192.701 545.043 192.891 545.451 193.27 545.752C193.652 546.049 194.162 546.197 194.799 546.197C195.393 546.197 195.848 546.076 196.164 545.834C196.48 545.592 196.639 545.262 196.639 544.844C196.639 544.426 196.492 544.104 196.199 543.877C195.906 543.646 195.375 543.42 194.605 543.197ZM200.518 539.125V540.66H201.701V541.498H200.518V545.43C200.518 545.684 200.57 545.875 200.676 546.004C200.781 546.129 200.961 546.191 201.215 546.191C201.34 546.191 201.512 546.168 201.73 546.121V547C201.445 547.078 201.168 547.117 200.898 547.117C200.414 547.117 200.049 546.971 199.803 546.678C199.557 546.385 199.434 545.969 199.434 545.43V541.498H198.279V540.66H199.434V539.125H200.518ZM206.887 547C206.824 546.875 206.773 546.652 206.734 546.332C206.23 546.855 205.629 547.117 204.93 547.117C204.305 547.117 203.791 546.941 203.389 546.59C202.99 546.234 202.791 545.785 202.791 545.242C202.791 544.582 203.041 544.07 203.541 543.707C204.045 543.34 204.752 543.156 205.662 543.156H206.717V542.658C206.717 542.279 206.604 541.979 206.377 541.756C206.15 541.529 205.816 541.416 205.375 541.416C204.988 541.416 204.664 541.514 204.402 541.709C204.141 541.904 204.01 542.141 204.01 542.418H202.92C202.92 542.102 203.031 541.797 203.254 541.504C203.48 541.207 203.785 540.973 204.168 540.801C204.555 540.629 204.979 540.543 205.439 540.543C206.17 540.543 206.742 540.727 207.156 541.094C207.57 541.457 207.785 541.959 207.801 542.6V545.518C207.801 546.1 207.875 546.562 208.023 546.906V547H206.887ZM205.088 546.174C205.428 546.174 205.75 546.086 206.055 545.91C206.359 545.734 206.58 545.506 206.717 545.225V543.924H205.867C204.539 543.924 203.875 544.312 203.875 545.09C203.875 545.43 203.988 545.695 204.215 545.887C204.441 546.078 204.732 546.174 205.088 546.174ZM212.564 541.633C212.4 541.605 212.223 541.592 212.031 541.592C211.32 541.592 210.838 541.895 210.584 542.5V547H209.5V540.66H210.555L210.572 541.393C210.928 540.826 211.432 540.543 212.084 540.543C212.295 540.543 212.455 540.57 212.564 540.625V541.633ZM215.33 539.125V540.66H216.514V541.498H215.33V545.43C215.33 545.684 215.383 545.875 215.488 546.004C215.594 546.129 215.773 546.191 216.027 546.191C216.152 546.191 216.324 546.168 216.543 546.121V547C216.258 547.078 215.98 547.117 215.711 547.117C215.227 547.117 214.861 546.971 214.615 546.678C214.369 546.385 214.246 545.969 214.246 545.43V541.498H213.092V540.66H214.246V539.125H215.33ZM220.416 547.117C219.557 547.117 218.857 546.836 218.318 546.273C217.779 545.707 217.51 544.951 217.51 544.006V543.807C217.51 543.178 217.629 542.617 217.867 542.125C218.109 541.629 218.445 541.242 218.875 540.965C219.309 540.684 219.777 540.543 220.281 540.543C221.105 540.543 221.746 540.814 222.203 541.357C222.66 541.9 222.889 542.678 222.889 543.689V544.141H218.594C218.609 544.766 218.791 545.271 219.139 545.658C219.49 546.041 219.936 546.232 220.475 546.232C220.857 546.232 221.182 546.154 221.447 545.998C221.713 545.842 221.945 545.635 222.145 545.377L222.807 545.893C222.275 546.709 221.479 547.117 220.416 547.117ZM220.281 541.434C219.844 541.434 219.477 541.594 219.18 541.914C218.883 542.23 218.699 542.676 218.629 543.25H221.805V543.168C221.773 542.617 221.625 542.191 221.359 541.891C221.094 541.586 220.734 541.434 220.281 541.434ZM223.885 543.777C223.885 542.805 224.115 542.023 224.576 541.434C225.037 540.84 225.641 540.543 226.387 540.543C227.129 540.543 227.717 540.797 228.15 541.305V538H229.234V547H228.238L228.186 546.32C227.752 546.852 227.148 547.117 226.375 547.117C225.641 547.117 225.041 546.816 224.576 546.215C224.115 545.613 223.885 544.828 223.885 543.859V543.777ZM224.969 543.9C224.969 544.619 225.117 545.182 225.414 545.588C225.711 545.994 226.121 546.197 226.645 546.197C227.332 546.197 227.834 545.889 228.15 545.271V542.359C227.826 541.762 227.328 541.463 226.656 541.463C226.125 541.463 225.711 541.668 225.414 542.078C225.117 542.488 224.969 543.096 224.969 543.9Z" fill="black"/>
<rect x="0.5" y="0.5" width="376" height="813" stroke="black"/>
</svg>
