<svg width="377" height="836" viewBox="0 0 377 836" fill="none" xmlns="http://www.w3.org/2000/svg">
<g clip-path="url(#clip0_1_436)">
<rect x="1" y="1" width="375" height="834" fill="white"/>
<rect x="1" y="1" width="375" height="99" fill="#C4C4C4"/>
<rect x="99" y="27" width="180" height="46" fill="#E5E5E5"/>
<path d="M162.242 56.1602H170.328V58H159.98V40.9375H162.242V56.1602ZM185.246 50.0195C185.246 51.6914 184.965 53.1523 184.402 54.4023C183.84 55.6445 183.043 56.5938 182.012 57.25C180.98 57.9062 179.777 58.2344 178.402 58.2344C177.059 58.2344 175.867 57.9062 174.828 57.25C173.789 56.5859 172.98 55.6445 172.402 54.4258C171.832 53.1992 171.539 51.7812 171.523 50.1719V48.9414C171.523 47.3008 171.809 45.8516 172.379 44.5938C172.949 43.3359 173.754 42.375 174.793 41.7109C175.84 41.0391 177.035 40.7031 178.379 40.7031C179.746 40.7031 180.949 41.0352 181.988 41.6992C183.035 42.3555 183.84 43.3125 184.402 44.5703C184.965 45.8203 185.246 47.2773 185.246 48.9414V50.0195ZM183.008 48.918C183.008 46.8945 182.602 45.3438 181.789 44.2656C180.977 43.1797 179.84 42.6367 178.379 42.6367C176.957 42.6367 175.836 43.1797 175.016 44.2656C174.203 45.3438 173.785 46.8438 173.762 48.7656V50.0195C173.762 51.9805 174.172 53.5234 174.992 54.6484C175.82 55.7656 176.957 56.3242 178.402 56.3242C179.855 56.3242 180.98 55.7969 181.777 54.7422C182.574 53.6797 182.984 52.1602 183.008 50.1836V48.918ZM201.219 55.7617C200.641 56.5898 199.832 57.2109 198.793 57.625C197.762 58.0312 196.559 58.2344 195.184 58.2344C193.793 58.2344 192.559 57.9102 191.48 57.2617C190.402 56.6055 189.566 55.6758 188.973 54.4727C188.387 53.2695 188.086 51.875 188.07 50.2891V48.8008C188.07 46.2305 188.668 44.2383 189.863 42.8242C191.066 41.4102 192.754 40.7031 194.926 40.7031C196.707 40.7031 198.141 41.1602 199.227 42.0742C200.312 42.9805 200.977 44.2695 201.219 45.9414H198.969C198.547 43.6836 197.203 42.5547 194.938 42.5547C193.43 42.5547 192.285 43.0859 191.504 44.1484C190.73 45.2031 190.34 46.7344 190.332 48.7422V50.1367C190.332 52.0508 190.77 53.5742 191.645 54.707C192.52 55.832 193.703 56.3945 195.195 56.3945C196.039 56.3945 196.777 56.3008 197.41 56.1133C198.043 55.9258 198.566 55.6094 198.98 55.1641V51.332H195.031V49.5039H201.219V55.7617ZM218.105 50.0195C218.105 51.6914 217.824 53.1523 217.262 54.4023C216.699 55.6445 215.902 56.5938 214.871 57.25C213.84 57.9062 212.637 58.2344 211.262 58.2344C209.918 58.2344 208.727 57.9062 207.688 57.25C206.648 56.5859 205.84 55.6445 205.262 54.4258C204.691 53.1992 204.398 51.7812 204.383 50.1719V48.9414C204.383 47.3008 204.668 45.8516 205.238 44.5938C205.809 43.3359 206.613 42.375 207.652 41.7109C208.699 41.0391 209.895 40.7031 211.238 40.7031C212.605 40.7031 213.809 41.0352 214.848 41.6992C215.895 42.3555 216.699 43.3125 217.262 44.5703C217.824 45.8203 218.105 47.2773 218.105 48.9414V50.0195ZM215.867 48.918C215.867 46.8945 215.461 45.3438 214.648 44.2656C213.836 43.1797 212.699 42.6367 211.238 42.6367C209.816 42.6367 208.695 43.1797 207.875 44.2656C207.062 45.3438 206.645 46.8438 206.621 48.7656V50.0195C206.621 51.9805 207.031 53.5234 207.852 54.6484C208.68 55.7656 209.816 56.3242 211.262 56.3242C212.715 56.3242 213.84 55.7969 214.637 54.7422C215.434 53.6797 215.844 52.1602 215.867 50.1836V48.918Z" fill="black"/>
<path d="M120.219 151.977C119.867 154.984 118.754 157.309 116.879 158.949C115.017 160.577 112.536 161.391 109.438 161.391C106.078 161.391 103.383 160.186 101.352 157.777C99.3333 155.368 98.3242 152.146 98.3242 148.109V145.375C98.3242 142.732 98.793 140.408 99.7305 138.402C100.681 136.397 102.022 134.861 103.754 133.793C105.486 132.712 107.491 132.172 109.77 132.172C112.79 132.172 115.212 133.018 117.035 134.711C118.858 136.391 119.919 138.721 120.219 141.703H116.449C116.124 139.438 115.414 137.797 114.32 136.781C113.24 135.766 111.723 135.258 109.77 135.258C107.374 135.258 105.492 136.143 104.125 137.914C102.771 139.685 102.094 142.204 102.094 145.473V148.227C102.094 151.312 102.738 153.767 104.027 155.59C105.316 157.413 107.12 158.324 109.438 158.324C111.521 158.324 113.116 157.855 114.223 156.918C115.342 155.967 116.085 154.32 116.449 151.977H120.219ZM128.402 142.426C130.004 140.46 132.087 139.477 134.652 139.477C139.118 139.477 141.371 141.996 141.41 147.035V161H137.797V147.016C137.784 145.492 137.432 144.366 136.742 143.637C136.065 142.908 135.004 142.543 133.559 142.543C132.387 142.543 131.358 142.855 130.473 143.48C129.587 144.105 128.897 144.926 128.402 145.941V161H124.789V131H128.402V142.426ZM155.59 161.391C152.725 161.391 150.395 160.453 148.598 158.578C146.801 156.69 145.902 154.171 145.902 151.02V150.355C145.902 148.259 146.299 146.391 147.094 144.75C147.901 143.096 149.021 141.807 150.453 140.883C151.898 139.945 153.461 139.477 155.141 139.477C157.888 139.477 160.023 140.382 161.547 142.191C163.07 144.001 163.832 146.592 163.832 149.965V151.469H149.516C149.568 153.552 150.173 155.238 151.332 156.527C152.504 157.803 153.988 158.441 155.785 158.441C157.061 158.441 158.142 158.181 159.027 157.66C159.913 157.139 160.688 156.449 161.352 155.59L163.559 157.309C161.788 160.03 159.132 161.391 155.59 161.391ZM155.141 142.445C153.682 142.445 152.458 142.979 151.469 144.047C150.479 145.102 149.867 146.586 149.633 148.5H160.219V148.227C160.115 146.391 159.62 144.971 158.734 143.969C157.849 142.953 156.651 142.445 155.141 142.445ZM176.508 158.441C177.797 158.441 178.923 158.051 179.887 157.27C180.85 156.488 181.384 155.512 181.488 154.34H184.906C184.841 155.551 184.424 156.703 183.656 157.797C182.888 158.891 181.859 159.763 180.57 160.414C179.294 161.065 177.94 161.391 176.508 161.391C173.63 161.391 171.339 160.434 169.633 158.52C167.94 156.592 167.094 153.962 167.094 150.629V150.023C167.094 147.966 167.471 146.137 168.227 144.535C168.982 142.934 170.062 141.69 171.469 140.805C172.888 139.919 174.561 139.477 176.488 139.477C178.858 139.477 180.824 140.186 182.387 141.605C183.962 143.025 184.802 144.867 184.906 147.133H181.488C181.384 145.766 180.863 144.646 179.926 143.773C179.001 142.888 177.855 142.445 176.488 142.445C174.652 142.445 173.227 143.109 172.211 144.438C171.208 145.753 170.707 147.66 170.707 150.16V150.844C170.707 153.279 171.208 155.154 172.211 156.469C173.214 157.784 174.646 158.441 176.508 158.441ZM194.867 151.215L192.602 153.578V161H188.988V131H192.602V149.145L194.535 146.82L201.117 139.867H205.512L197.289 148.695L206.469 161H202.23L194.867 151.215ZM241.605 147.699C241.605 150.486 241.137 152.921 240.199 155.004C239.262 157.074 237.934 158.656 236.215 159.75C234.496 160.844 232.491 161.391 230.199 161.391C227.96 161.391 225.974 160.844 224.242 159.75C222.51 158.643 221.163 157.074 220.199 155.043C219.249 152.999 218.76 150.635 218.734 147.953V145.902C218.734 143.168 219.21 140.753 220.16 138.656C221.111 136.56 222.452 134.958 224.184 133.852C225.928 132.732 227.921 132.172 230.16 132.172C232.439 132.172 234.444 132.725 236.176 133.832C237.921 134.926 239.262 136.521 240.199 138.617C241.137 140.701 241.605 143.129 241.605 145.902V147.699ZM237.875 145.863C237.875 142.491 237.198 139.906 235.844 138.109C234.49 136.299 232.595 135.395 230.16 135.395C227.79 135.395 225.922 136.299 224.555 138.109C223.201 139.906 222.504 142.406 222.465 145.609V147.699C222.465 150.967 223.148 153.539 224.516 155.414C225.896 157.276 227.79 158.207 230.199 158.207C232.621 158.207 234.496 157.328 235.824 155.57C237.152 153.799 237.836 151.267 237.875 147.973V145.863ZM259.711 158.91C258.305 160.564 256.241 161.391 253.52 161.391C251.267 161.391 249.548 160.74 248.363 159.438C247.191 158.122 246.599 156.182 246.586 153.617V139.867H250.199V153.52C250.199 156.723 251.501 158.324 254.105 158.324C256.866 158.324 258.702 157.296 259.613 155.238V139.867H263.227V161H259.789L259.711 158.91ZM273.637 134.75V139.867H277.582V142.66H273.637V155.766C273.637 156.612 273.812 157.25 274.164 157.68C274.516 158.096 275.115 158.305 275.961 158.305C276.378 158.305 276.951 158.227 277.68 158.07V161C276.729 161.26 275.805 161.391 274.906 161.391C273.292 161.391 272.074 160.902 271.254 159.926C270.434 158.949 270.023 157.562 270.023 155.766V142.66H266.176V139.867H270.023V134.75H273.637Z" fill="black"/>
<rect x="1" y="775" width="375" height="60" fill="#C4C4C4"/>
<line x1="80.5" y1="830" x2="80.5" y2="780" stroke="black"/>
<line x1="295.5" y1="830" x2="295.5" y2="780" stroke="black"/>
<path d="M320.751 826.435H317.772L317.104 828.29H316.137L318.852 821.181H319.672L322.392 828.29H321.43L320.751 826.435ZM318.056 825.663H320.473L319.262 822.338L318.056 825.663ZM325.326 827.651C325.648 827.651 325.93 827.553 326.171 827.358C326.412 827.162 326.545 826.918 326.571 826.625H327.426C327.41 826.928 327.305 827.216 327.113 827.49C326.921 827.763 326.664 827.981 326.342 828.144C326.023 828.307 325.684 828.388 325.326 828.388C324.607 828.388 324.034 828.149 323.607 827.67C323.184 827.188 322.973 826.531 322.973 825.698V825.546C322.973 825.032 323.067 824.574 323.256 824.174C323.445 823.774 323.715 823.463 324.066 823.241C324.421 823.02 324.84 822.909 325.321 822.909C325.914 822.909 326.405 823.087 326.796 823.442C327.19 823.796 327.4 824.257 327.426 824.824H326.571C326.545 824.482 326.415 824.202 326.181 823.984C325.95 823.762 325.663 823.652 325.321 823.652C324.862 823.652 324.506 823.818 324.252 824.15C324.001 824.478 323.876 824.955 323.876 825.58V825.751C323.876 826.36 324.001 826.829 324.252 827.158C324.503 827.486 324.861 827.651 325.326 827.651ZM330.561 827.651C330.883 827.651 331.164 827.553 331.405 827.358C331.646 827.162 331.78 826.918 331.806 826.625H332.66C332.644 826.928 332.54 827.216 332.348 827.49C332.156 827.763 331.898 827.981 331.576 828.144C331.257 828.307 330.919 828.388 330.561 828.388C329.841 828.388 329.268 828.149 328.842 827.67C328.419 827.188 328.207 826.531 328.207 825.698V825.546C328.207 825.032 328.301 824.574 328.49 824.174C328.679 823.774 328.949 823.463 329.301 823.241C329.656 823.02 330.074 822.909 330.556 822.909C331.148 822.909 331.64 823.087 332.03 823.442C332.424 823.796 332.634 824.257 332.66 824.824H331.806C331.78 824.482 331.649 824.202 331.415 823.984C331.184 823.762 330.897 823.652 330.556 823.652C330.097 823.652 329.74 823.818 329.486 824.15C329.236 824.478 329.11 824.955 329.11 825.58V825.751C329.11 826.36 329.236 826.829 329.486 827.158C329.737 827.486 330.095 827.651 330.561 827.651ZM333.437 825.6C333.437 825.082 333.537 824.617 333.739 824.203C333.944 823.79 334.228 823.471 334.589 823.246C334.953 823.022 335.368 822.909 335.834 822.909C336.553 822.909 337.134 823.158 337.577 823.657C338.023 824.155 338.246 824.817 338.246 825.644V825.707C338.246 826.222 338.147 826.684 337.948 827.094C337.753 827.501 337.471 827.818 337.104 828.046C336.739 828.274 336.319 828.388 335.844 828.388C335.128 828.388 334.547 828.139 334.101 827.641C333.658 827.143 333.437 826.484 333.437 825.663V825.6ZM334.345 825.707C334.345 826.293 334.48 826.764 334.75 827.118C335.023 827.473 335.388 827.651 335.844 827.651C336.303 827.651 336.667 827.472 336.938 827.114C337.208 826.752 337.343 826.248 337.343 825.6C337.343 825.02 337.204 824.552 336.928 824.194C336.654 823.832 336.29 823.652 335.834 823.652C335.388 823.652 335.028 823.829 334.755 824.184C334.481 824.539 334.345 825.046 334.345 825.707ZM342.641 827.768C342.289 828.181 341.773 828.388 341.093 828.388C340.53 828.388 340.1 828.225 339.804 827.9C339.511 827.571 339.363 827.086 339.359 826.445V823.007H340.263V826.42C340.263 827.221 340.588 827.621 341.239 827.621C341.929 827.621 342.388 827.364 342.616 826.85V823.007H343.52V828.29H342.66L342.641 827.768ZM345.751 823.007L345.78 823.671C346.184 823.163 346.711 822.909 347.362 822.909C348.479 822.909 349.042 823.539 349.052 824.799V828.29H348.148V824.794C348.145 824.413 348.057 824.132 347.885 823.949C347.715 823.767 347.45 823.676 347.089 823.676C346.796 823.676 346.539 823.754 346.317 823.91C346.096 824.067 345.924 824.272 345.8 824.526V828.29H344.896V823.007H345.751ZM351.64 821.728V823.007H352.626V823.705H351.64V826.982C351.64 827.193 351.684 827.353 351.771 827.46C351.859 827.564 352.009 827.616 352.221 827.616C352.325 827.616 352.468 827.597 352.65 827.558V828.29C352.413 828.355 352.182 828.388 351.957 828.388C351.553 828.388 351.249 828.266 351.044 828.022C350.839 827.778 350.736 827.431 350.736 826.982V823.705H349.774V823.007H350.736V821.728H351.64Z" fill="black"/>
<path d="M336 786.387C331.726 786.387 328.258 789.855 328.258 794.129C328.258 798.403 331.726 801.871 336 801.871C340.274 801.871 343.742 798.403 343.742 794.129C343.742 789.855 340.274 786.387 336 786.387ZM336 798C333.863 798 332.129 796.266 332.129 794.129C332.129 791.992 333.863 790.258 336 790.258C338.137 790.258 339.871 791.992 339.871 794.129C339.871 796.266 338.137 798 336 798ZM336 778.645C324.952 778.645 316 787.597 316 798.645C316 809.694 324.952 818.645 336 818.645C347.048 818.645 356 809.694 356 798.645C356 787.597 347.048 778.645 336 778.645ZM336 814.774C331.992 814.774 328.331 813.298 325.508 810.871C326.71 809.016 328.766 807.758 331.121 807.685C332.798 808.202 334.395 808.46 336 808.46C337.605 808.46 339.202 808.21 340.879 807.685C343.234 807.766 345.29 809.016 346.492 810.871C343.669 813.298 340.008 814.774 336 814.774ZM349.121 807.992C347.153 805.46 344.113 803.806 340.645 803.806C339.823 803.806 338.548 804.581 336 804.581C333.46 804.581 332.177 803.806 331.355 803.806C327.895 803.806 324.855 805.46 322.879 807.992C320.992 805.355 319.871 802.129 319.871 798.645C319.871 789.75 327.105 782.516 336 782.516C344.895 782.516 352.129 789.75 352.129 798.645C352.129 802.129 351.008 805.355 349.121 807.992Z" fill="black"/>
<g clip-path="url(#clip1_1_436)">
<path d="M271.675 807.925L274.958 793.48C275.195 792.438 274.402 791.444 273.333 791.444H246.056L245.42 788.333C245.261 787.557 244.578 787 243.787 787H236.667C235.746 787 235 787.746 235 788.667V789.778C235 790.698 235.746 791.444 236.667 791.444H241.52L246.398 815.294C245.231 815.965 244.444 817.224 244.444 818.667C244.444 820.814 246.186 822.556 248.333 822.556C250.481 822.556 252.222 820.814 252.222 818.667C252.222 817.578 251.775 816.595 251.054 815.889H265.613C264.892 816.595 264.444 817.578 264.444 818.667C264.444 820.814 266.186 822.556 268.333 822.556C270.481 822.556 272.222 820.814 272.222 818.667C272.222 817.127 271.327 815.796 270.029 815.166L270.412 813.48C270.649 812.438 269.857 811.444 268.787 811.444H250.147L249.693 809.222H270.05C270.828 809.222 271.503 808.684 271.675 807.925Z" fill="black"/>
</g>
<g clip-path="url(#clip2_1_436)">
<path d="M60.4531 819.586L52.6641 811.797C52.3125 811.445 51.8359 811.25 51.3359 811.25H50.0625C52.2187 808.492 53.5 805.023 53.5 801.25C53.5 792.273 46.2266 785 37.25 785C28.2734 785 21 792.273 21 801.25C21 810.227 28.2734 817.5 37.25 817.5C41.0234 817.5 44.4922 816.219 47.25 814.062V815.336C47.25 815.836 47.4453 816.312 47.7969 816.664L55.5859 824.453C56.3203 825.188 57.5078 825.188 58.2344 824.453L60.4453 822.242C61.1797 821.508 61.1797 820.32 60.4531 819.586ZM37.25 811.25C31.7266 811.25 27.25 806.781 27.25 801.25C27.25 795.727 31.7187 791.25 37.25 791.25C42.7734 791.25 47.25 795.719 47.25 801.25C47.25 806.773 42.7812 811.25 37.25 811.25Z" fill="black"/>
</g>
<path d="M102.429 788.786H139.571C140.36 788.786 141 788.146 141 787.357V783.786C141 782.997 140.36 782.357 139.571 782.357H102.429C101.64 782.357 101 782.997 101 783.786V787.357C101 788.146 101.64 788.786 102.429 788.786ZM102.429 803.071H139.571C140.36 803.071 141 802.432 141 801.643V798.071C141 797.282 140.36 796.643 139.571 796.643H102.429C101.64 796.643 101 797.282 101 798.071V801.643C101 802.432 101.64 803.071 102.429 803.071ZM102.429 817.357H139.571C140.36 817.357 141 816.718 141 815.929V812.357C141 811.568 140.36 810.929 139.571 810.929H102.429C101.64 810.929 101 811.568 101 812.357V815.929C101 816.718 101.64 817.357 102.429 817.357Z" fill="black"/>
<path d="M102.055 829.458C101.967 830.21 101.688 830.791 101.22 831.202C100.754 831.609 100.134 831.812 99.3594 831.812C98.5195 831.812 97.8457 831.511 97.3379 830.909C96.8333 830.306 96.5811 829.501 96.5811 828.492V827.808C96.5811 827.147 96.6982 826.566 96.9326 826.065C97.1702 825.564 97.5055 825.179 97.9385 824.913C98.3714 824.642 98.8727 824.507 99.4424 824.507C100.198 824.507 100.803 824.719 101.259 825.142C101.715 825.562 101.98 826.145 102.055 826.89H101.112C101.031 826.324 100.854 825.914 100.58 825.66C100.31 825.406 99.9307 825.279 99.4424 825.279C98.8434 825.279 98.373 825.5 98.0312 825.943C97.6927 826.386 97.5234 827.015 97.5234 827.832V828.521C97.5234 829.292 97.6846 829.906 98.0068 830.362C98.3291 830.817 98.7799 831.045 99.3594 831.045C99.8802 831.045 100.279 830.928 100.556 830.694C100.836 830.456 101.021 830.044 101.112 829.458H102.055ZM106.459 831.714C106.407 831.61 106.365 831.425 106.332 831.158C105.912 831.594 105.411 831.812 104.828 831.812C104.307 831.812 103.879 831.665 103.544 831.372C103.212 831.076 103.046 830.702 103.046 830.249C103.046 829.699 103.254 829.273 103.671 828.97C104.091 828.664 104.68 828.511 105.438 828.511H106.317V828.096C106.317 827.78 106.223 827.53 106.034 827.344C105.845 827.155 105.567 827.061 105.199 827.061C104.877 827.061 104.607 827.142 104.389 827.305C104.171 827.468 104.062 827.665 104.062 827.896H103.153C103.153 827.632 103.246 827.378 103.432 827.134C103.62 826.887 103.874 826.692 104.193 826.548C104.516 826.405 104.869 826.333 105.253 826.333C105.862 826.333 106.339 826.486 106.684 826.792C107.029 827.095 107.208 827.513 107.221 828.047V830.479C107.221 830.964 107.283 831.35 107.406 831.636V831.714H106.459ZM104.96 831.026C105.243 831.026 105.512 830.953 105.766 830.806C106.02 830.66 106.203 830.469 106.317 830.235V829.151H105.609C104.503 829.151 103.949 829.475 103.949 830.122C103.949 830.406 104.044 830.627 104.232 830.787C104.421 830.946 104.664 831.026 104.96 831.026ZM109.862 825.152V826.431H110.849V827.129H109.862V830.406C109.862 830.617 109.906 830.777 109.994 830.884C110.082 830.988 110.232 831.04 110.443 831.04C110.548 831.04 110.691 831.021 110.873 830.982V831.714C110.635 831.779 110.404 831.812 110.18 831.812C109.776 831.812 109.472 831.69 109.267 831.446C109.062 831.202 108.959 830.855 108.959 830.406V827.129H107.997V826.431H108.959V825.152H109.862ZM114.101 831.812C113.384 831.812 112.802 831.578 112.353 831.109C111.903 830.637 111.679 830.007 111.679 829.219V829.053C111.679 828.529 111.778 828.062 111.977 827.652C112.178 827.238 112.458 826.916 112.816 826.685C113.178 826.451 113.568 826.333 113.988 826.333C114.675 826.333 115.209 826.56 115.59 827.012C115.971 827.465 116.161 828.112 116.161 828.956V829.331H112.582C112.595 829.852 112.746 830.274 113.036 830.596C113.329 830.915 113.7 831.075 114.149 831.075C114.468 831.075 114.739 831.01 114.96 830.879C115.181 830.749 115.375 830.577 115.541 830.362L116.093 830.791C115.65 831.472 114.986 831.812 114.101 831.812ZM113.988 827.076C113.624 827.076 113.318 827.209 113.07 827.476C112.823 827.74 112.67 828.111 112.611 828.589H115.258V828.521C115.232 828.062 115.108 827.707 114.887 827.456C114.665 827.203 114.366 827.076 113.988 827.076ZM116.996 829.029C116.996 828.205 117.187 827.551 117.567 827.066C117.948 826.578 118.453 826.333 119.081 826.333C119.726 826.333 120.229 826.561 120.59 827.017L120.634 826.431H121.459V831.587C121.459 832.271 121.256 832.81 120.849 833.204C120.445 833.597 119.901 833.794 119.218 833.794C118.837 833.794 118.464 833.713 118.1 833.55C117.735 833.387 117.457 833.164 117.265 832.881L117.733 832.339C118.121 832.818 118.594 833.057 119.154 833.057C119.594 833.057 119.936 832.933 120.18 832.686C120.427 832.439 120.551 832.09 120.551 831.641V831.187C120.189 831.604 119.696 831.812 119.071 831.812C118.453 831.812 117.951 831.563 117.567 831.065C117.187 830.567 116.996 829.888 116.996 829.029ZM117.904 829.131C117.904 829.727 118.026 830.196 118.271 830.538C118.515 830.876 118.856 831.045 119.296 831.045C119.866 831.045 120.284 830.787 120.551 830.269V827.857C120.274 827.352 119.859 827.1 119.306 827.1C118.866 827.1 118.523 827.271 118.275 827.613C118.028 827.955 117.904 828.461 117.904 829.131ZM122.587 829.024C122.587 828.506 122.688 828.041 122.89 827.627C123.095 827.214 123.378 826.895 123.739 826.67C124.104 826.446 124.519 826.333 124.984 826.333C125.704 826.333 126.285 826.582 126.728 827.081C127.174 827.579 127.396 828.241 127.396 829.068V829.131C127.396 829.646 127.297 830.108 127.099 830.518C126.903 830.925 126.622 831.242 126.254 831.47C125.889 831.698 125.469 831.812 124.994 831.812C124.278 831.812 123.697 831.563 123.251 831.065C122.808 830.567 122.587 829.908 122.587 829.087V829.024ZM123.495 829.131C123.495 829.717 123.63 830.188 123.9 830.542C124.174 830.897 124.538 831.075 124.994 831.075C125.453 831.075 125.818 830.896 126.088 830.538C126.358 830.176 126.493 829.672 126.493 829.024C126.493 828.444 126.355 827.976 126.078 827.618C125.805 827.256 125.44 827.076 124.984 827.076C124.538 827.076 124.179 827.253 123.905 827.608C123.632 827.963 123.495 828.47 123.495 829.131ZM131.083 827.242C130.946 827.219 130.798 827.207 130.639 827.207C130.046 827.207 129.644 827.46 129.433 827.964V831.714H128.529V826.431H129.408L129.423 827.041C129.719 826.569 130.139 826.333 130.683 826.333C130.858 826.333 130.992 826.356 131.083 826.402V827.242ZM132.899 831.714H131.996V826.431H132.899V831.714ZM131.923 825.03C131.923 824.883 131.967 824.76 132.055 824.659C132.146 824.558 132.279 824.507 132.455 824.507C132.631 824.507 132.764 824.558 132.855 824.659C132.947 824.76 132.992 824.883 132.992 825.03C132.992 825.176 132.947 825.298 132.855 825.396C132.764 825.494 132.631 825.542 132.455 825.542C132.279 825.542 132.146 825.494 132.055 825.396C131.967 825.298 131.923 825.176 131.923 825.03ZM136.542 831.812C135.826 831.812 135.243 831.578 134.794 831.109C134.345 830.637 134.12 830.007 134.12 829.219V829.053C134.12 828.529 134.219 828.062 134.418 827.652C134.62 827.238 134.9 826.916 135.258 826.685C135.619 826.451 136.01 826.333 136.43 826.333C137.117 826.333 137.65 826.56 138.031 827.012C138.412 827.465 138.603 828.112 138.603 828.956V829.331H135.023C135.036 829.852 135.188 830.274 135.478 830.596C135.771 830.915 136.142 831.075 136.591 831.075C136.91 831.075 137.18 831.01 137.401 830.879C137.623 830.749 137.816 830.577 137.982 830.362L138.534 830.791C138.091 831.472 137.427 831.812 136.542 831.812ZM136.43 827.076C136.065 827.076 135.759 827.209 135.512 827.476C135.264 827.74 135.111 828.111 135.053 828.589H137.699V828.521C137.673 828.062 137.549 827.707 137.328 827.456C137.107 827.203 136.807 827.076 136.43 827.076ZM142.729 830.313C142.729 830.069 142.636 829.88 142.45 829.747C142.268 829.61 141.947 829.493 141.488 829.395C141.033 829.297 140.67 829.18 140.399 829.043C140.132 828.907 139.934 828.744 139.804 828.555C139.677 828.366 139.613 828.142 139.613 827.881C139.613 827.448 139.796 827.082 140.16 826.783C140.528 826.483 140.997 826.333 141.566 826.333C142.165 826.333 142.65 826.488 143.021 826.797C143.396 827.107 143.583 827.502 143.583 827.984H142.675C142.675 827.736 142.569 827.523 142.357 827.344C142.149 827.165 141.885 827.076 141.566 827.076C141.238 827.076 140.98 827.147 140.795 827.29C140.609 827.434 140.517 827.621 140.517 827.852C140.517 828.07 140.603 828.234 140.775 828.345C140.948 828.456 141.259 828.562 141.708 828.663C142.16 828.763 142.527 828.884 142.807 829.024C143.087 829.164 143.293 829.333 143.427 829.532C143.563 829.727 143.632 829.966 143.632 830.249C143.632 830.721 143.443 831.101 143.065 831.387C142.688 831.67 142.198 831.812 141.596 831.812C141.173 831.812 140.798 831.737 140.473 831.587C140.147 831.438 139.892 831.229 139.706 830.962C139.524 830.692 139.433 830.401 139.433 830.088H140.336C140.352 830.391 140.473 830.632 140.697 830.811C140.925 830.987 141.225 831.075 141.596 831.075C141.938 831.075 142.211 831.006 142.416 830.87C142.624 830.73 142.729 830.544 142.729 830.313Z" fill="black"/>
<circle cx="188.5" cy="781.5" r="37" fill="#C4C4C4" stroke="black"/>
<g clip-path="url(#clip3_1_436)">
<path d="M187.904 773.583L173.5 785.446V798.25C173.5 798.582 173.632 798.899 173.866 799.134C174.1 799.368 174.418 799.5 174.75 799.5L183.505 799.477C183.835 799.476 184.151 799.343 184.384 799.109C184.618 798.875 184.748 798.558 184.748 798.227V790.75C184.748 790.418 184.88 790.101 185.114 789.866C185.349 789.632 185.667 789.5 185.998 789.5H190.998C191.33 789.5 191.648 789.632 191.882 789.866C192.117 790.101 192.248 790.418 192.248 790.75V798.222C192.248 798.386 192.28 798.549 192.342 798.701C192.405 798.854 192.497 798.992 192.613 799.108C192.729 799.225 192.867 799.317 193.019 799.38C193.171 799.443 193.334 799.476 193.498 799.476L202.25 799.5C202.581 799.5 202.899 799.368 203.134 799.134C203.368 798.899 203.5 798.582 203.5 798.25V785.438L189.099 773.583C188.93 773.446 188.719 773.372 188.501 773.372C188.284 773.372 188.073 773.446 187.904 773.583ZM210.656 781.646L204.125 776.263V765.441C204.125 765.193 204.026 764.954 203.85 764.778C203.675 764.603 203.436 764.504 203.187 764.504H198.812C198.564 764.504 198.325 764.603 198.15 764.778C197.974 764.954 197.875 765.193 197.875 765.441V771.114L190.88 765.359C190.209 764.807 189.367 764.505 188.498 764.505C187.628 764.505 186.786 764.807 186.115 765.359L166.339 781.646C166.244 781.725 166.166 781.821 166.108 781.93C166.05 782.039 166.015 782.158 166.003 782.28C165.991 782.403 166.004 782.527 166.04 782.644C166.076 782.762 166.135 782.872 166.214 782.966L168.206 785.388C168.285 785.484 168.381 785.562 168.49 785.62C168.598 785.678 168.718 785.714 168.84 785.726C168.963 785.738 169.087 785.725 169.205 785.689C169.323 785.653 169.432 785.594 169.527 785.516L187.904 770.38C188.073 770.243 188.284 770.169 188.501 770.169C188.719 770.169 188.93 770.243 189.099 770.38L207.476 785.516C207.571 785.594 207.681 785.653 207.799 785.689C207.916 785.726 208.04 785.738 208.163 785.727C208.285 785.715 208.404 785.679 208.513 785.622C208.622 785.564 208.718 785.486 208.797 785.391L210.789 782.969C210.867 782.873 210.926 782.763 210.962 782.645C210.998 782.527 211.01 782.403 210.998 782.28C210.985 782.157 210.949 782.038 210.89 781.929C210.832 781.82 210.752 781.724 210.656 781.646Z" fill="black"/>
</g>
<rect x="39.5" y="425.5" width="298" height="36" stroke="black"/>
<path d="M55.9834 449H54.7119V440.571L52.1621 441.508V440.359L55.7852 438.999H55.9834V449ZM66.21 449H59.6885V448.091L63.1338 444.263C63.6442 443.684 63.9951 443.215 64.1865 442.854C64.3825 442.49 64.4805 442.114 64.4805 441.727C64.4805 441.207 64.3232 440.781 64.0088 440.448C63.6943 440.116 63.2751 439.949 62.751 439.949C62.1221 439.949 61.6322 440.129 61.2812 440.489C60.9349 440.845 60.7617 441.341 60.7617 441.979H59.4971C59.4971 441.063 59.791 440.323 60.3789 439.758C60.9714 439.193 61.762 438.91 62.751 438.91C63.6761 438.91 64.4076 439.154 64.9453 439.642C65.4831 440.125 65.752 440.77 65.752 441.576C65.752 442.556 65.1276 443.723 63.8789 445.076L61.2129 447.968H66.21V449ZM69.3887 443.408H70.3389C70.9359 443.399 71.4053 443.242 71.7471 442.937C72.0889 442.631 72.2598 442.219 72.2598 441.699C72.2598 440.533 71.6787 439.949 70.5166 439.949C69.9697 439.949 69.5322 440.106 69.2041 440.421C68.8805 440.731 68.7188 441.143 68.7188 441.658H67.4541C67.4541 440.87 67.7412 440.216 68.3154 439.696C68.8942 439.172 69.6279 438.91 70.5166 438.91C71.4554 438.91 72.1914 439.159 72.7246 439.655C73.2578 440.152 73.5244 440.842 73.5244 441.727C73.5244 442.16 73.3831 442.579 73.1006 442.984C72.8226 443.39 72.4421 443.693 71.959 443.894C72.5059 444.067 72.9274 444.354 73.2236 444.755C73.5244 445.156 73.6748 445.646 73.6748 446.225C73.6748 447.118 73.3831 447.826 72.7998 448.351C72.2165 448.875 71.4577 449.137 70.5234 449.137C69.5892 449.137 68.8281 448.884 68.2402 448.378C67.6569 447.872 67.3652 447.204 67.3652 446.375H68.6367C68.6367 446.899 68.8076 447.318 69.1494 447.633C69.4912 447.947 69.9492 448.104 70.5234 448.104C71.1341 448.104 71.6012 447.945 71.9248 447.626C72.2484 447.307 72.4102 446.849 72.4102 446.252C72.4102 445.673 72.2324 445.229 71.877 444.919C71.5215 444.609 71.0088 444.45 70.3389 444.44H69.3887V443.408Z" fill="black"/>
<rect x="39.5" y="262.5" width="298" height="36" stroke="black"/>
<path d="M53.8506 276.047L57.1045 284.168L60.3584 276.047H62.0605V286H60.748V282.124L60.8711 277.94L57.6035 286H56.5986L53.3379 277.961L53.4678 282.124V286H52.1553V276.047H53.8506ZM65.5537 286H64.2891V278.604H65.5537V286ZM64.1865 276.642C64.1865 276.437 64.248 276.263 64.3711 276.122C64.4987 275.981 64.6855 275.91 64.9316 275.91C65.1777 275.91 65.3646 275.981 65.4922 276.122C65.6198 276.263 65.6836 276.437 65.6836 276.642C65.6836 276.847 65.6198 277.018 65.4922 277.154C65.3646 277.291 65.1777 277.359 64.9316 277.359C64.6855 277.359 64.4987 277.291 64.3711 277.154C64.248 277.018 64.1865 276.847 64.1865 276.642ZM69.6484 282.575L68.8555 283.402V286H67.5908V275.5H68.8555V281.851L69.5322 281.037L71.8359 278.604H73.374L70.4961 281.693L73.709 286H72.2256L69.6484 282.575ZM77.6123 286.137C76.6097 286.137 75.7939 285.809 75.165 285.152C74.5361 284.492 74.2217 283.61 74.2217 282.507V282.274C74.2217 281.541 74.3607 280.887 74.6387 280.312C74.9212 279.734 75.3132 279.283 75.8145 278.959C76.3203 278.631 76.8672 278.467 77.4551 278.467C78.4167 278.467 79.1641 278.784 79.6973 279.417C80.2305 280.05 80.4971 280.957 80.4971 282.138V282.664H75.4863C75.5046 283.393 75.7165 283.983 76.1221 284.435C76.5322 284.881 77.0518 285.104 77.6807 285.104C78.1273 285.104 78.5055 285.013 78.8154 284.831C79.1253 284.649 79.3965 284.407 79.6289 284.106L80.4014 284.708C79.7816 285.66 78.8519 286.137 77.6123 286.137ZM77.4551 279.506C76.9447 279.506 76.5163 279.693 76.1699 280.066C75.8236 280.436 75.6094 280.955 75.5273 281.625H79.2324V281.529C79.196 280.887 79.0228 280.39 78.7129 280.039C78.403 279.684 77.9837 279.506 77.4551 279.506ZM91.1338 283.402H86.9639L86.0273 286H84.6738L88.4746 276.047H89.623L93.4307 286H92.084L91.1338 283.402ZM87.3604 282.322H90.7441L89.0488 277.667L87.3604 282.322ZM95.7686 278.604L95.8096 279.533C96.3747 278.822 97.113 278.467 98.0244 278.467C99.5876 278.467 100.376 279.349 100.39 281.112V286H99.125V281.105C99.1204 280.572 98.9974 280.178 98.7559 279.923C98.5189 279.668 98.1475 279.54 97.6416 279.54C97.2314 279.54 96.8714 279.649 96.5615 279.868C96.2516 280.087 96.0101 280.374 95.8369 280.729V286H94.5723V278.604H95.7686ZM101.989 282.24C101.989 281.105 102.258 280.194 102.796 279.506C103.334 278.813 104.038 278.467 104.908 278.467C105.774 278.467 106.46 278.763 106.966 279.355V275.5H108.23V286H107.068L107.007 285.207C106.501 285.827 105.797 286.137 104.895 286.137C104.038 286.137 103.338 285.786 102.796 285.084C102.258 284.382 101.989 283.466 101.989 282.336V282.24ZM103.254 282.384C103.254 283.222 103.427 283.879 103.773 284.353C104.12 284.826 104.598 285.063 105.209 285.063C106.011 285.063 106.597 284.703 106.966 283.983V280.586C106.588 279.889 106.007 279.54 105.223 279.54C104.603 279.54 104.12 279.779 103.773 280.258C103.427 280.736 103.254 281.445 103.254 282.384ZM113.269 286.137C112.266 286.137 111.45 285.809 110.821 285.152C110.192 284.492 109.878 283.61 109.878 282.507V282.274C109.878 281.541 110.017 280.887 110.295 280.312C110.577 279.734 110.969 279.283 111.471 278.959C111.977 278.631 112.523 278.467 113.111 278.467C114.073 278.467 114.82 278.784 115.354 279.417C115.887 280.05 116.153 280.957 116.153 282.138V282.664H111.143C111.161 283.393 111.373 283.983 111.778 284.435C112.188 284.881 112.708 285.104 113.337 285.104C113.784 285.104 114.162 285.013 114.472 284.831C114.782 284.649 115.053 284.407 115.285 284.106L116.058 284.708C115.438 285.66 114.508 286.137 113.269 286.137ZM113.111 279.506C112.601 279.506 112.173 279.693 111.826 280.066C111.48 280.436 111.266 280.955 111.184 281.625H114.889V281.529C114.852 280.887 114.679 280.39 114.369 280.039C114.059 279.684 113.64 279.506 113.111 279.506ZM121.198 279.738C121.007 279.706 120.799 279.69 120.576 279.69C119.747 279.69 119.184 280.044 118.888 280.75V286H117.623V278.604H118.854L118.874 279.458C119.289 278.797 119.877 278.467 120.638 278.467C120.884 278.467 121.071 278.499 121.198 278.562V279.738ZM126.674 284.038C126.674 283.696 126.544 283.432 126.284 283.245C126.029 283.054 125.58 282.89 124.938 282.753C124.299 282.616 123.791 282.452 123.413 282.261C123.039 282.069 122.761 281.841 122.579 281.577C122.401 281.313 122.312 280.998 122.312 280.634C122.312 280.028 122.568 279.515 123.078 279.096C123.593 278.676 124.249 278.467 125.047 278.467C125.885 278.467 126.564 278.683 127.084 279.116C127.608 279.549 127.87 280.103 127.87 280.777H126.599C126.599 280.431 126.451 280.132 126.154 279.882C125.863 279.631 125.493 279.506 125.047 279.506C124.587 279.506 124.227 279.606 123.967 279.807C123.707 280.007 123.577 280.269 123.577 280.593C123.577 280.898 123.698 281.128 123.939 281.283C124.181 281.438 124.616 281.586 125.245 281.728C125.879 281.869 126.391 282.037 126.783 282.233C127.175 282.429 127.465 282.666 127.651 282.944C127.843 283.218 127.938 283.553 127.938 283.949C127.938 284.61 127.674 285.141 127.146 285.542C126.617 285.938 125.931 286.137 125.088 286.137C124.495 286.137 123.971 286.032 123.516 285.822C123.06 285.613 122.702 285.321 122.442 284.947C122.187 284.569 122.06 284.161 122.06 283.724H123.324C123.347 284.147 123.516 284.485 123.83 284.735C124.149 284.981 124.568 285.104 125.088 285.104C125.566 285.104 125.949 285.009 126.236 284.817C126.528 284.621 126.674 284.362 126.674 284.038ZM129.251 282.233C129.251 281.509 129.392 280.857 129.675 280.278C129.962 279.7 130.358 279.253 130.864 278.938C131.375 278.624 131.956 278.467 132.607 278.467C133.615 278.467 134.428 278.815 135.048 279.513C135.672 280.21 135.984 281.137 135.984 282.295V282.384C135.984 283.104 135.845 283.751 135.567 284.325C135.294 284.895 134.9 285.339 134.385 285.658C133.874 285.977 133.286 286.137 132.621 286.137C131.618 286.137 130.805 285.788 130.181 285.091C129.561 284.394 129.251 283.471 129.251 282.322V282.233ZM130.522 282.384C130.522 283.204 130.712 283.863 131.09 284.359C131.473 284.856 131.983 285.104 132.621 285.104C133.264 285.104 133.774 284.854 134.152 284.353C134.531 283.847 134.72 283.14 134.72 282.233C134.72 281.422 134.526 280.766 134.139 280.265C133.756 279.759 133.245 279.506 132.607 279.506C131.983 279.506 131.479 279.754 131.097 280.251C130.714 280.748 130.522 281.459 130.522 282.384ZM138.767 278.604L138.808 279.533C139.373 278.822 140.111 278.467 141.022 278.467C142.586 278.467 143.374 279.349 143.388 281.112V286H142.123V281.105C142.118 280.572 141.995 280.178 141.754 279.923C141.517 279.668 141.146 279.54 140.64 279.54C140.229 279.54 139.869 279.649 139.56 279.868C139.25 280.087 139.008 280.374 138.835 280.729V286H137.57V278.604H138.767Z" fill="black"/>
<rect x="39.5" y="319.5" width="298" height="36" stroke="black"/>
<path d="M55.9834 343H54.7119V334.571L52.1621 335.508V334.359L55.7852 332.999H55.9834V343ZM66.21 343H59.6885V342.091L63.1338 338.263C63.6442 337.684 63.9951 337.215 64.1865 336.854C64.3825 336.49 64.4805 336.114 64.4805 335.727C64.4805 335.207 64.3232 334.781 64.0088 334.448C63.6943 334.116 63.2751 333.949 62.751 333.949C62.1221 333.949 61.6322 334.129 61.2812 334.489C60.9349 334.845 60.7617 335.341 60.7617 335.979H59.4971C59.4971 335.063 59.791 334.323 60.3789 333.758C60.9714 333.193 61.762 332.91 62.751 332.91C63.6761 332.91 64.4076 333.154 64.9453 333.642C65.4831 334.125 65.752 334.77 65.752 335.576C65.752 336.556 65.1276 337.723 63.8789 339.076L61.2129 341.968H66.21V343ZM69.3887 337.408H70.3389C70.9359 337.399 71.4053 337.242 71.7471 336.937C72.0889 336.631 72.2598 336.219 72.2598 335.699C72.2598 334.533 71.6787 333.949 70.5166 333.949C69.9697 333.949 69.5322 334.106 69.2041 334.421C68.8805 334.731 68.7188 335.143 68.7188 335.658H67.4541C67.4541 334.87 67.7412 334.216 68.3154 333.696C68.8942 333.172 69.6279 332.91 70.5166 332.91C71.4554 332.91 72.1914 333.159 72.7246 333.655C73.2578 334.152 73.5244 334.842 73.5244 335.727C73.5244 336.16 73.3831 336.579 73.1006 336.984C72.8226 337.39 72.4421 337.693 71.959 337.894C72.5059 338.067 72.9274 338.354 73.2236 338.755C73.5244 339.156 73.6748 339.646 73.6748 340.225C73.6748 341.118 73.3831 341.826 72.7998 342.351C72.2165 342.875 71.4577 343.137 70.5234 343.137C69.5892 343.137 68.8281 342.884 68.2402 342.378C67.6569 341.872 67.3652 341.204 67.3652 340.375H68.6367C68.6367 340.899 68.8076 341.318 69.1494 341.633C69.4912 341.947 69.9492 342.104 70.5234 342.104C71.1341 342.104 71.6012 341.945 71.9248 341.626C72.2484 341.307 72.4102 340.849 72.4102 340.252C72.4102 339.673 72.2324 339.229 71.877 338.919C71.5215 338.609 71.0088 338.45 70.3389 338.44H69.3887V337.408ZM80.75 339.657H82.1309V340.689H80.75V343H79.4785V340.689H74.9463V339.944L79.4033 333.047H80.75V339.657ZM76.3818 339.657H79.4785V334.776L79.3281 335.05L76.3818 339.657ZM87.3262 338.01L87.832 333.047H92.9316V334.216H88.9053L88.6045 336.93C89.0921 336.643 89.6458 336.499 90.2656 336.499C91.1725 336.499 91.8926 336.8 92.4258 337.401C92.959 337.998 93.2256 338.807 93.2256 339.828C93.2256 340.854 92.9476 341.662 92.3916 342.255C91.8402 342.843 91.0677 343.137 90.0742 343.137C89.1947 343.137 88.4769 342.893 87.9209 342.405C87.3649 341.918 87.0482 341.243 86.9707 340.382H88.167C88.2445 340.951 88.4473 341.382 88.7754 341.674C89.1035 341.961 89.5365 342.104 90.0742 342.104C90.6621 342.104 91.1224 341.904 91.4551 341.503C91.7923 341.102 91.9609 340.548 91.9609 339.842C91.9609 339.176 91.7786 338.643 91.4141 338.242C91.054 337.837 90.5732 337.634 89.9717 337.634C89.4202 337.634 88.9873 337.755 88.6729 337.996L88.3379 338.27L87.3262 338.01ZM99.5693 333.04V334.113H99.3369C98.3525 334.132 97.5687 334.423 96.9854 334.988C96.402 335.553 96.0648 336.349 95.9736 337.374C96.4977 336.772 97.2132 336.472 98.1201 336.472C98.986 336.472 99.6764 336.777 100.191 337.388C100.711 337.998 100.971 338.787 100.971 339.753C100.971 340.778 100.69 341.599 100.13 342.214C99.5739 342.829 98.8265 343.137 97.8877 343.137C96.9352 343.137 96.1628 342.772 95.5703 342.043C94.9779 341.309 94.6816 340.366 94.6816 339.213V338.728C94.6816 336.896 95.0713 335.496 95.8506 334.53C96.6344 333.56 97.7988 333.063 99.3438 333.04H99.5693ZM97.9082 337.524C97.4753 337.524 97.0765 337.654 96.7119 337.914C96.3473 338.174 96.0944 338.5 95.9531 338.892V339.356C95.9531 340.177 96.1377 340.838 96.5068 341.339C96.876 341.84 97.3363 342.091 97.8877 342.091C98.4574 342.091 98.904 341.881 99.2275 341.462C99.5557 341.043 99.7197 340.493 99.7197 339.814C99.7197 339.131 99.5534 338.579 99.2207 338.16C98.8926 337.736 98.4551 337.524 97.9082 337.524ZM108.894 333.758L104.771 343H103.445L107.554 334.086H102.167V333.047H108.894V333.758ZM116.365 335.645C116.365 336.141 116.233 336.583 115.969 336.971C115.709 337.358 115.356 337.661 114.909 337.88C115.429 338.103 115.839 338.429 116.14 338.857C116.445 339.286 116.598 339.771 116.598 340.313C116.598 341.175 116.306 341.861 115.723 342.371C115.144 342.882 114.381 343.137 113.433 343.137C112.476 343.137 111.708 342.882 111.129 342.371C110.555 341.856 110.268 341.17 110.268 340.313C110.268 339.776 110.413 339.29 110.705 338.857C111.001 338.424 111.409 338.096 111.929 337.873C111.487 337.654 111.138 337.351 110.883 336.964C110.628 336.576 110.5 336.137 110.5 335.645C110.5 334.806 110.769 334.141 111.307 333.648C111.844 333.156 112.553 332.91 113.433 332.91C114.308 332.91 115.014 333.156 115.552 333.648C116.094 334.141 116.365 334.806 116.365 335.645ZM115.333 340.286C115.333 339.73 115.155 339.277 114.8 338.926C114.449 338.575 113.989 338.399 113.419 338.399C112.849 338.399 112.391 338.573 112.045 338.919C111.703 339.265 111.532 339.721 111.532 340.286C111.532 340.851 111.699 341.296 112.031 341.619C112.368 341.943 112.836 342.104 113.433 342.104C114.025 342.104 114.49 341.943 114.827 341.619C115.164 341.291 115.333 340.847 115.333 340.286ZM113.433 333.949C112.936 333.949 112.533 334.104 112.223 334.414C111.917 334.719 111.765 335.136 111.765 335.665C111.765 336.171 111.915 336.581 112.216 336.896C112.521 337.205 112.927 337.36 113.433 337.36C113.938 337.36 114.342 337.205 114.643 336.896C114.948 336.581 115.101 336.171 115.101 335.665C115.101 335.159 114.943 334.747 114.629 334.428C114.314 334.109 113.916 333.949 113.433 333.949ZM126.51 338.625C126.245 338.939 125.929 339.192 125.56 339.384C125.195 339.575 124.794 339.671 124.356 339.671C123.782 339.671 123.281 339.53 122.853 339.247C122.429 338.965 122.101 338.568 121.868 338.058C121.636 337.543 121.52 336.975 121.52 336.355C121.52 335.69 121.645 335.091 121.896 334.558C122.151 334.024 122.511 333.617 122.976 333.334C123.44 333.051 123.983 332.91 124.603 332.91C125.587 332.91 126.362 333.279 126.927 334.018C127.496 334.751 127.781 335.754 127.781 337.025V337.395C127.781 339.331 127.398 340.746 126.633 341.64C125.867 342.528 124.712 342.984 123.167 343.007H122.921V341.94H123.188C124.231 341.922 125.033 341.651 125.594 341.127C126.154 340.598 126.46 339.764 126.51 338.625ZM124.562 338.625C124.985 338.625 125.375 338.495 125.73 338.235C126.09 337.976 126.353 337.654 126.517 337.271V336.766C126.517 335.936 126.337 335.262 125.977 334.742C125.617 334.223 125.161 333.963 124.609 333.963C124.053 333.963 123.607 334.177 123.27 334.605C122.932 335.029 122.764 335.59 122.764 336.287C122.764 336.966 122.925 337.527 123.249 337.969C123.577 338.406 124.015 338.625 124.562 338.625ZM135.766 338.755C135.766 340.236 135.513 341.337 135.007 342.057C134.501 342.777 133.71 343.137 132.635 343.137C131.573 343.137 130.787 342.786 130.276 342.084C129.766 341.378 129.502 340.325 129.483 338.926V337.237C129.483 335.774 129.736 334.688 130.242 333.977C130.748 333.266 131.541 332.91 132.621 332.91C133.692 332.91 134.48 333.254 134.986 333.942C135.492 334.626 135.752 335.683 135.766 337.114V338.755ZM134.501 337.025C134.501 335.954 134.351 335.175 134.05 334.688C133.749 334.195 133.273 333.949 132.621 333.949C131.974 333.949 131.502 334.193 131.206 334.681C130.91 335.168 130.757 335.918 130.748 336.93V338.953C130.748 340.029 130.903 340.824 131.213 341.339C131.527 341.849 132.001 342.104 132.635 342.104C133.259 342.104 133.722 341.863 134.022 341.38C134.328 340.897 134.487 340.136 134.501 339.097V337.025ZM141.542 343H140.271V334.571L137.721 335.508V334.359L141.344 332.999H141.542V343ZM151.769 343H145.247V342.091L148.692 338.263C149.203 337.684 149.554 337.215 149.745 336.854C149.941 336.49 150.039 336.114 150.039 335.727C150.039 335.207 149.882 334.781 149.567 334.448C149.253 334.116 148.834 333.949 148.31 333.949C147.681 333.949 147.191 334.129 146.84 334.489C146.493 334.845 146.32 335.341 146.32 335.979H145.056C145.056 335.063 145.35 334.323 145.938 333.758C146.53 333.193 147.321 332.91 148.31 332.91C149.235 332.91 149.966 333.154 150.504 333.642C151.042 334.125 151.311 334.77 151.311 335.576C151.311 336.556 150.686 337.723 149.438 339.076L146.771 341.968H151.769V343ZM158.42 337.408H159.37C159.967 337.399 160.437 337.242 160.778 336.937C161.12 336.631 161.291 336.219 161.291 335.699C161.291 334.533 160.71 333.949 159.548 333.949C159.001 333.949 158.563 334.106 158.235 334.421C157.912 334.731 157.75 335.143 157.75 335.658H156.485C156.485 334.87 156.772 334.216 157.347 333.696C157.925 333.172 158.659 332.91 159.548 332.91C160.487 332.91 161.223 333.159 161.756 333.655C162.289 334.152 162.556 334.842 162.556 335.727C162.556 336.16 162.414 336.579 162.132 336.984C161.854 337.39 161.473 337.693 160.99 337.894C161.537 338.067 161.959 338.354 162.255 338.755C162.556 339.156 162.706 339.646 162.706 340.225C162.706 341.118 162.414 341.826 161.831 342.351C161.248 342.875 160.489 343.137 159.555 343.137C158.62 343.137 157.859 342.884 157.271 342.378C156.688 341.872 156.396 341.204 156.396 340.375H157.668C157.668 340.899 157.839 341.318 158.181 341.633C158.522 341.947 158.98 342.104 159.555 342.104C160.165 342.104 160.632 341.945 160.956 341.626C161.28 341.307 161.441 340.849 161.441 340.252C161.441 339.673 161.264 339.229 160.908 338.919C160.553 338.609 160.04 338.45 159.37 338.44H158.42V337.408ZM169.781 339.657H171.162V340.689H169.781V343H168.51V340.689H163.978V339.944L168.435 333.047H169.781V339.657ZM165.413 339.657H168.51V334.776L168.359 335.05L165.413 339.657ZM172.885 338.01L173.391 333.047H178.49V334.216H174.464L174.163 336.93C174.651 336.643 175.204 336.499 175.824 336.499C176.731 336.499 177.451 336.8 177.984 337.401C178.518 337.998 178.784 338.807 178.784 339.828C178.784 340.854 178.506 341.662 177.95 342.255C177.399 342.843 176.626 343.137 175.633 343.137C174.753 343.137 174.035 342.893 173.479 342.405C172.924 341.918 172.607 341.243 172.529 340.382H173.726C173.803 340.951 174.006 341.382 174.334 341.674C174.662 341.961 175.095 342.104 175.633 342.104C176.221 342.104 176.681 341.904 177.014 341.503C177.351 341.102 177.52 340.548 177.52 339.842C177.52 339.176 177.337 338.643 176.973 338.242C176.613 337.837 176.132 337.634 175.53 337.634C174.979 337.634 174.546 337.755 174.231 337.996L173.896 338.27L172.885 338.01ZM185.128 333.04V334.113H184.896C183.911 334.132 183.127 334.423 182.544 334.988C181.961 335.553 181.623 336.349 181.532 337.374C182.056 336.772 182.772 336.472 183.679 336.472C184.545 336.472 185.235 336.777 185.75 337.388C186.27 337.998 186.529 338.787 186.529 339.753C186.529 340.778 186.249 341.599 185.688 342.214C185.132 342.829 184.385 343.137 183.446 343.137C182.494 343.137 181.721 342.772 181.129 342.043C180.536 341.309 180.24 340.366 180.24 339.213V338.728C180.24 336.896 180.63 335.496 181.409 334.53C182.193 333.56 183.357 333.063 184.902 333.04H185.128ZM183.467 337.524C183.034 337.524 182.635 337.654 182.271 337.914C181.906 338.174 181.653 338.5 181.512 338.892V339.356C181.512 340.177 181.696 340.838 182.065 341.339C182.435 341.84 182.895 342.091 183.446 342.091C184.016 342.091 184.463 341.881 184.786 341.462C185.114 341.043 185.278 340.493 185.278 339.814C185.278 339.131 185.112 338.579 184.779 338.16C184.451 337.736 184.014 337.524 183.467 337.524Z" fill="black"/>
<path d="M32.3203 198V186.625H36.0391C37.2734 186.625 38.2005 186.88 38.8203 187.391C39.4453 187.901 39.7578 188.656 39.7578 189.656C39.7578 190.188 39.6068 190.659 39.3047 191.07C39.0026 191.477 38.5911 191.792 38.0703 192.016C38.6849 192.188 39.1693 192.516 39.5234 193C39.8828 193.479 40.0625 194.052 40.0625 194.719C40.0625 195.74 39.7318 196.542 39.0703 197.125C38.4089 197.708 37.474 198 36.2656 198H32.3203ZM33.8203 192.68V196.773H36.2969C36.9948 196.773 37.5443 196.594 37.9453 196.234C38.3516 195.87 38.5547 195.37 38.5547 194.734C38.5547 193.365 37.8099 192.68 36.3203 192.68H33.8203ZM33.8203 191.477H36.0859C36.7422 191.477 37.2656 191.312 37.6562 190.984C38.0521 190.656 38.25 190.211 38.25 189.648C38.25 189.023 38.0677 188.57 37.7031 188.289C37.3385 188.003 36.7839 187.859 36.0391 187.859H33.8203V191.477ZM43.6328 198H42.1875V189.547H43.6328V198ZM42.0703 187.305C42.0703 187.07 42.1406 186.872 42.2812 186.711C42.4271 186.549 42.6406 186.469 42.9219 186.469C43.2031 186.469 43.4167 186.549 43.5625 186.711C43.7083 186.872 43.7812 187.07 43.7812 187.305C43.7812 187.539 43.7083 187.734 43.5625 187.891C43.4167 188.047 43.2031 188.125 42.9219 188.125C42.6406 188.125 42.4271 188.047 42.2812 187.891C42.1406 187.734 42.0703 187.539 42.0703 187.305ZM47.5234 198H46.0781V186H47.5234V198ZM51.4141 198H49.9688V186H51.4141V198ZM55.3047 198H53.8594V189.547H55.3047V198ZM53.7422 187.305C53.7422 187.07 53.8125 186.872 53.9531 186.711C54.099 186.549 54.3125 186.469 54.5938 186.469C54.875 186.469 55.0885 186.549 55.2344 186.711C55.3802 186.872 55.4531 187.07 55.4531 187.305C55.4531 187.539 55.3802 187.734 55.2344 187.891C55.0885 188.047 54.875 188.125 54.5938 188.125C54.3125 188.125 54.099 188.047 53.9531 187.891C53.8125 187.734 53.7422 187.539 53.7422 187.305ZM58.9922 189.547L59.0391 190.609C59.6849 189.797 60.5286 189.391 61.5703 189.391C63.3568 189.391 64.2578 190.398 64.2734 192.414V198H62.8281V192.406C62.8229 191.797 62.6823 191.346 62.4062 191.055C62.1354 190.763 61.7109 190.617 61.1328 190.617C60.6641 190.617 60.2526 190.742 59.8984 190.992C59.5443 191.242 59.2682 191.57 59.0703 191.977V198H57.625V189.547H58.9922ZM66.1094 193.703C66.1094 192.385 66.4141 191.339 67.0234 190.562C67.6328 189.781 68.4401 189.391 69.4453 189.391C70.4766 189.391 71.2812 189.755 71.8594 190.484L71.9297 189.547H73.25V197.797C73.25 198.891 72.9245 199.753 72.2734 200.383C71.6276 201.013 70.7578 201.328 69.6641 201.328C69.0547 201.328 68.4583 201.198 67.875 200.938C67.2917 200.677 66.8464 200.32 66.5391 199.867L67.2891 199C67.9089 199.766 68.6667 200.148 69.5625 200.148C70.2656 200.148 70.8125 199.951 71.2031 199.555C71.599 199.159 71.7969 198.602 71.7969 197.883V197.156C71.2188 197.823 70.4297 198.156 69.4297 198.156C68.4401 198.156 67.638 197.758 67.0234 196.961C66.4141 196.164 66.1094 195.078 66.1094 193.703ZM67.5625 193.867C67.5625 194.82 67.7578 195.57 68.1484 196.117C68.5391 196.659 69.0859 196.93 69.7891 196.93C70.7005 196.93 71.3698 196.516 71.7969 195.688V191.828C71.3542 191.021 70.6901 190.617 69.8047 190.617C69.1016 190.617 68.5521 190.891 68.1562 191.438C67.7604 191.984 67.5625 192.794 67.5625 193.867ZM81.2422 198H79.7422V186.625H81.2422V198ZM85.1328 189.547L85.1797 190.609C85.8255 189.797 86.6693 189.391 87.7109 189.391C89.4974 189.391 90.3984 190.398 90.4141 192.414V198H88.9688V192.406C88.9635 191.797 88.8229 191.346 88.5469 191.055C88.276 190.763 87.8516 190.617 87.2734 190.617C86.8047 190.617 86.3932 190.742 86.0391 190.992C85.6849 191.242 85.4089 191.57 85.2109 191.977V198H83.7656V189.547H85.1328ZM93.3047 198V190.664H91.9688V189.547H93.3047V188.68C93.3047 187.773 93.5469 187.073 94.0312 186.578C94.5156 186.083 95.2005 185.836 96.0859 185.836C96.4193 185.836 96.75 185.88 97.0781 185.969L97 187.141C96.7552 187.094 96.4948 187.07 96.2188 187.07C95.75 187.07 95.388 187.208 95.1328 187.484C94.8776 187.755 94.75 188.146 94.75 188.656V189.547H96.5547V190.664H94.75V198H93.3047ZM97.7734 193.695C97.7734 192.867 97.9349 192.122 98.2578 191.461C98.5859 190.799 99.0391 190.289 99.6172 189.93C100.201 189.57 100.865 189.391 101.609 189.391C102.76 189.391 103.69 189.789 104.398 190.586C105.112 191.383 105.469 192.443 105.469 193.766V193.867C105.469 194.69 105.31 195.43 104.992 196.086C104.68 196.737 104.229 197.245 103.641 197.609C103.057 197.974 102.385 198.156 101.625 198.156C100.479 198.156 99.5495 197.758 98.8359 196.961C98.1276 196.164 97.7734 195.109 97.7734 193.797V193.695ZM99.2266 193.867C99.2266 194.805 99.4427 195.557 99.875 196.125C100.312 196.693 100.896 196.977 101.625 196.977C102.359 196.977 102.943 196.69 103.375 196.117C103.807 195.539 104.023 194.732 104.023 193.695C104.023 192.768 103.802 192.018 103.359 191.445C102.922 190.867 102.339 190.578 101.609 190.578C100.896 190.578 100.32 190.862 99.8828 191.43C99.4453 191.997 99.2266 192.81 99.2266 193.867ZM111.367 190.844C111.148 190.807 110.911 190.789 110.656 190.789C109.708 190.789 109.065 191.193 108.727 192V198H107.281V189.547H108.688L108.711 190.523C109.185 189.768 109.857 189.391 110.727 189.391C111.008 189.391 111.221 189.427 111.367 189.5V190.844ZM114.062 189.547L114.102 190.484C114.721 189.755 115.557 189.391 116.609 189.391C117.792 189.391 118.596 189.844 119.023 190.75C119.305 190.344 119.669 190.016 120.117 189.766C120.57 189.516 121.104 189.391 121.719 189.391C123.573 189.391 124.516 190.372 124.547 192.336V198H123.102V192.422C123.102 191.818 122.964 191.367 122.688 191.07C122.411 190.768 121.948 190.617 121.297 190.617C120.76 190.617 120.315 190.779 119.961 191.102C119.607 191.419 119.401 191.849 119.344 192.391V198H117.891V192.461C117.891 191.232 117.289 190.617 116.086 190.617C115.138 190.617 114.49 191.021 114.141 191.828V198H112.695V189.547H114.062ZM131.953 198C131.87 197.833 131.802 197.536 131.75 197.109C131.078 197.807 130.276 198.156 129.344 198.156C128.51 198.156 127.826 197.922 127.289 197.453C126.758 196.979 126.492 196.38 126.492 195.656C126.492 194.776 126.826 194.094 127.492 193.609C128.164 193.12 129.107 192.875 130.32 192.875H131.727V192.211C131.727 191.706 131.576 191.305 131.273 191.008C130.971 190.706 130.526 190.555 129.938 190.555C129.422 190.555 128.99 190.685 128.641 190.945C128.292 191.206 128.117 191.521 128.117 191.891H126.664C126.664 191.469 126.812 191.062 127.109 190.672C127.411 190.276 127.818 189.964 128.328 189.734C128.844 189.505 129.409 189.391 130.023 189.391C130.997 189.391 131.76 189.635 132.312 190.125C132.865 190.609 133.151 191.279 133.172 192.133V196.023C133.172 196.799 133.271 197.417 133.469 197.875V198H131.953ZM129.555 196.898C130.008 196.898 130.438 196.781 130.844 196.547C131.25 196.312 131.544 196.008 131.727 195.633V193.898H130.594C128.823 193.898 127.938 194.417 127.938 195.453C127.938 195.906 128.089 196.26 128.391 196.516C128.693 196.771 129.081 196.898 129.555 196.898ZM137.398 187.5V189.547H138.977V190.664H137.398V195.906C137.398 196.245 137.469 196.5 137.609 196.672C137.75 196.839 137.99 196.922 138.328 196.922C138.495 196.922 138.724 196.891 139.016 196.828V198C138.635 198.104 138.266 198.156 137.906 198.156C137.26 198.156 136.773 197.961 136.445 197.57C136.117 197.18 135.953 196.625 135.953 195.906V190.664H134.414V189.547H135.953V187.5H137.398ZM142.242 198H140.797V189.547H142.242V198ZM140.68 187.305C140.68 187.07 140.75 186.872 140.891 186.711C141.036 186.549 141.25 186.469 141.531 186.469C141.812 186.469 142.026 186.549 142.172 186.711C142.318 186.872 142.391 187.07 142.391 187.305C142.391 187.539 142.318 187.734 142.172 187.891C142.026 188.047 141.812 188.125 141.531 188.125C141.25 188.125 141.036 188.047 140.891 187.891C140.75 187.734 140.68 187.539 140.68 187.305ZM144.18 193.695C144.18 192.867 144.341 192.122 144.664 191.461C144.992 190.799 145.445 190.289 146.023 189.93C146.607 189.57 147.271 189.391 148.016 189.391C149.167 189.391 150.096 189.789 150.805 190.586C151.518 191.383 151.875 192.443 151.875 193.766V193.867C151.875 194.69 151.716 195.43 151.398 196.086C151.086 196.737 150.635 197.245 150.047 197.609C149.464 197.974 148.792 198.156 148.031 198.156C146.885 198.156 145.956 197.758 145.242 196.961C144.534 196.164 144.18 195.109 144.18 193.797V193.695ZM145.633 193.867C145.633 194.805 145.849 195.557 146.281 196.125C146.719 196.693 147.302 196.977 148.031 196.977C148.766 196.977 149.349 196.69 149.781 196.117C150.214 195.539 150.43 194.732 150.43 193.695C150.43 192.768 150.208 192.018 149.766 191.445C149.328 190.867 148.745 190.578 148.016 190.578C147.302 190.578 146.727 190.862 146.289 191.43C145.852 191.997 145.633 192.81 145.633 193.867ZM155.055 189.547L155.102 190.609C155.747 189.797 156.591 189.391 157.633 189.391C159.419 189.391 160.32 190.398 160.336 192.414V198H158.891V192.406C158.885 191.797 158.745 191.346 158.469 191.055C158.198 190.763 157.773 190.617 157.195 190.617C156.727 190.617 156.315 190.742 155.961 190.992C155.607 191.242 155.331 191.57 155.133 191.977V198H153.688V189.547H155.055Z" fill="black"/>
<rect x="83.5" y="553.5" width="210" height="47" fill="#C4C4C4" stroke="black"/>
<path d="M131.424 578.028C129.655 577.52 128.366 576.897 127.557 576.159C126.755 575.414 126.354 574.498 126.354 573.409C126.354 572.177 126.844 571.16 127.825 570.358C128.813 569.549 130.095 569.145 131.671 569.145C132.745 569.145 133.701 569.352 134.539 569.768C135.384 570.183 136.036 570.756 136.494 571.486C136.96 572.217 137.192 573.015 137.192 573.882H135.119C135.119 572.937 134.818 572.195 134.217 571.658C133.615 571.114 132.767 570.842 131.671 570.842C130.654 570.842 129.859 571.067 129.286 571.519C128.72 571.963 128.438 572.582 128.438 573.377C128.438 574.014 128.706 574.555 129.243 574.999C129.787 575.436 130.708 575.837 132.004 576.202C133.307 576.567 134.324 576.972 135.055 577.416C135.792 577.853 136.337 578.365 136.688 578.952C137.046 579.539 137.225 580.23 137.225 581.025C137.225 582.293 136.73 583.31 135.742 584.076C134.754 584.835 133.433 585.215 131.778 585.215C130.704 585.215 129.701 585.011 128.771 584.603C127.84 584.187 127.12 583.621 126.611 582.905C126.11 582.189 125.859 581.376 125.859 580.467H127.933C127.933 581.412 128.28 582.16 128.975 582.712C129.676 583.256 130.611 583.528 131.778 583.528C132.867 583.528 133.701 583.306 134.281 582.862C134.861 582.418 135.151 581.813 135.151 581.047C135.151 580.281 134.883 579.69 134.346 579.274C133.809 578.852 132.835 578.437 131.424 578.028ZM146.742 583.851C145.969 584.76 144.834 585.215 143.337 585.215C142.098 585.215 141.153 584.857 140.501 584.141C139.856 583.417 139.531 582.35 139.523 580.939V573.377H141.511V580.886C141.511 582.647 142.227 583.528 143.659 583.528C145.177 583.528 146.187 582.963 146.688 581.831V573.377H148.676V585H146.785L146.742 583.851ZM161.545 579.317C161.545 581.093 161.137 582.522 160.32 583.604C159.504 584.678 158.408 585.215 157.033 585.215C155.565 585.215 154.43 584.696 153.628 583.657L153.531 585H151.705V568.5H153.692V574.655C154.494 573.66 155.601 573.162 157.012 573.162C158.423 573.162 159.529 573.696 160.331 574.763C161.14 575.83 161.545 577.291 161.545 579.146V579.317ZM159.558 579.092C159.558 577.738 159.296 576.693 158.773 575.955C158.251 575.217 157.499 574.849 156.518 574.849C155.207 574.849 154.265 575.457 153.692 576.675V581.702C154.301 582.92 155.25 583.528 156.539 583.528C157.492 583.528 158.233 583.16 158.763 582.422C159.293 581.684 159.558 580.574 159.558 579.092ZM165.928 573.377L165.981 574.666C166.834 573.663 167.983 573.162 169.43 573.162C171.055 573.162 172.162 573.785 172.749 575.031C173.136 574.473 173.637 574.021 174.253 573.678C174.876 573.334 175.61 573.162 176.455 573.162C179.005 573.162 180.301 574.512 180.344 577.212V585H178.356V577.33C178.356 576.499 178.167 575.88 177.787 575.472C177.408 575.056 176.77 574.849 175.875 574.849C175.137 574.849 174.525 575.071 174.038 575.515C173.551 575.951 173.268 576.542 173.189 577.287V585H171.191V577.384C171.191 575.694 170.364 574.849 168.71 574.849C167.407 574.849 166.515 575.404 166.035 576.514V585H164.048V573.377H165.928ZM185.511 585H183.523V573.377H185.511V585ZM183.362 570.294C183.362 569.972 183.459 569.7 183.652 569.478C183.853 569.256 184.146 569.145 184.533 569.145C184.92 569.145 185.214 569.256 185.414 569.478C185.615 569.7 185.715 569.972 185.715 570.294C185.715 570.616 185.615 570.885 185.414 571.1C185.214 571.314 184.92 571.422 184.533 571.422C184.146 571.422 183.853 571.314 183.652 571.1C183.459 570.885 183.362 570.616 183.362 570.294ZM191.397 570.562V573.377H193.567V574.913H191.397V582.121C191.397 582.587 191.494 582.938 191.688 583.174C191.881 583.403 192.21 583.518 192.676 583.518C192.905 583.518 193.22 583.475 193.621 583.389V585C193.098 585.143 192.59 585.215 192.096 585.215C191.208 585.215 190.538 584.946 190.087 584.409C189.636 583.872 189.41 583.109 189.41 582.121V574.913H187.294V573.377H189.41V570.562H191.397ZM213.698 577.685C213.698 579.217 213.44 580.556 212.925 581.702C212.409 582.841 211.679 583.711 210.733 584.312C209.788 584.914 208.685 585.215 207.425 585.215C206.193 585.215 205.101 584.914 204.148 584.312C203.196 583.704 202.455 582.841 201.925 581.724C201.402 580.599 201.133 579.299 201.119 577.824V576.696C201.119 575.192 201.381 573.864 201.903 572.711C202.426 571.558 203.164 570.677 204.116 570.068C205.076 569.452 206.172 569.145 207.403 569.145C208.657 569.145 209.759 569.449 210.712 570.058C211.672 570.659 212.409 571.536 212.925 572.689C213.44 573.835 213.698 575.171 213.698 576.696V577.685ZM211.646 576.675C211.646 574.82 211.274 573.398 210.529 572.41C209.785 571.415 208.743 570.917 207.403 570.917C206.1 570.917 205.072 571.415 204.32 572.41C203.576 573.398 203.192 574.773 203.171 576.535V577.685C203.171 579.482 203.547 580.896 204.299 581.928C205.058 582.952 206.1 583.464 207.425 583.464C208.757 583.464 209.788 582.98 210.519 582.014C211.249 581.04 211.625 579.647 211.646 577.835V576.675ZM222.099 575.16C221.798 575.11 221.472 575.085 221.121 575.085C219.818 575.085 218.933 575.64 218.468 576.75V585H216.48V573.377H218.414L218.446 574.72C219.098 573.681 220.022 573.162 221.218 573.162C221.604 573.162 221.898 573.212 222.099 573.312V575.16ZM223.237 579.092C223.237 577.309 223.66 575.876 224.505 574.795C225.35 573.706 226.456 573.162 227.824 573.162C229.185 573.162 230.263 573.628 231.058 574.559V568.5H233.045V585H231.219L231.122 583.754C230.327 584.728 229.221 585.215 227.803 585.215C226.456 585.215 225.357 584.663 224.505 583.561C223.66 582.458 223.237 581.018 223.237 579.242V579.092ZM225.225 579.317C225.225 580.635 225.497 581.666 226.041 582.411C226.585 583.156 227.337 583.528 228.297 583.528C229.557 583.528 230.478 582.963 231.058 581.831V576.492C230.463 575.396 229.55 574.849 228.318 574.849C227.344 574.849 226.585 575.225 226.041 575.977C225.497 576.729 225.225 577.842 225.225 579.317ZM240.962 585.215C239.386 585.215 238.104 584.699 237.116 583.668C236.128 582.63 235.634 581.244 235.634 579.511V579.146C235.634 577.993 235.852 576.965 236.289 576.062C236.733 575.153 237.349 574.444 238.137 573.936C238.932 573.42 239.791 573.162 240.715 573.162C242.226 573.162 243.4 573.66 244.238 574.655C245.076 575.651 245.495 577.076 245.495 578.931V579.758H237.621C237.65 580.904 237.983 581.831 238.62 582.54C239.265 583.242 240.081 583.593 241.069 583.593C241.771 583.593 242.366 583.45 242.853 583.163C243.34 582.877 243.766 582.497 244.131 582.024L245.345 582.97C244.371 584.466 242.91 585.215 240.962 585.215ZM240.715 574.795C239.913 574.795 239.24 575.089 238.695 575.676C238.151 576.256 237.814 577.072 237.686 578.125H243.508V577.975C243.451 576.965 243.178 576.184 242.691 575.633C242.204 575.074 241.546 574.795 240.715 574.795ZM253.423 575.16C253.122 575.11 252.796 575.085 252.445 575.085C251.142 575.085 250.257 575.64 249.792 576.75V585H247.805V573.377H249.738L249.771 574.72C250.422 573.681 251.346 573.162 252.542 573.162C252.929 573.162 253.222 573.212 253.423 573.312V575.16Z" fill="black"/>
<path d="M166.535 396.493C166.535 396.965 166.215 397.306 165.757 397.306C165.285 397.306 164.979 396.944 164.979 396.493C164.979 396.042 165.285 395.681 165.757 395.681C166.215 395.681 166.535 396.042 166.535 396.493ZM144.951 395.681C144.458 395.681 144.174 396.042 144.174 396.493C144.174 396.944 144.458 397.306 144.951 397.306C145.403 397.306 145.708 396.965 145.708 396.493C145.701 396.042 145.403 395.681 144.951 395.681ZM153.111 395.66C152.736 395.66 152.507 395.903 152.451 396.264H153.778C153.715 395.868 153.472 395.66 153.111 395.66ZM160.597 395.681C160.125 395.681 159.84 396.042 159.84 396.493C159.84 396.944 160.125 397.306 160.597 397.306C161.069 397.306 161.375 396.965 161.375 396.493C161.375 396.042 161.069 395.681 160.597 395.681ZM167.951 397.493C167.951 397.514 167.972 397.528 167.972 397.569C167.972 397.59 167.951 397.604 167.951 397.646C167.931 397.667 167.931 397.681 167.917 397.701C167.896 397.722 167.882 397.736 167.84 397.736C167.819 397.757 167.806 397.757 167.764 397.757C167.743 397.757 167.729 397.757 167.688 397.736C167.667 397.736 167.653 397.715 167.632 397.701C167.611 397.681 167.597 397.667 167.597 397.646C167.576 397.611 167.576 397.59 167.576 397.569C167.576 397.535 167.576 397.514 167.597 397.493C167.597 397.458 167.618 397.438 167.632 397.417C167.653 397.396 167.667 397.396 167.688 397.382C167.722 397.361 167.743 397.361 167.764 397.361C167.799 397.361 167.819 397.361 167.84 397.382C167.875 397.403 167.896 397.403 167.917 397.417C167.938 397.431 167.931 397.458 167.951 397.493ZM167.799 397.59C167.833 397.59 167.833 397.569 167.854 397.569C167.875 397.549 167.875 397.535 167.875 397.514C167.875 397.493 167.875 397.479 167.854 397.458C167.833 397.458 167.819 397.438 167.778 397.438H167.667V397.681H167.722V397.583H167.743L167.819 397.681H167.875L167.799 397.59ZM173 373.625V398.069C173 399.91 171.507 401.403 169.667 401.403H136.333C134.493 401.403 133 399.91 133 398.069V373.625C133 371.785 134.493 370.292 136.333 370.292H169.667C171.507 370.292 173 371.785 173 373.625ZM137.444 383.319C137.444 388.632 141.757 392.938 147.063 392.938C148.951 392.938 150.806 392.368 152.375 391.333C147.313 387.215 147.347 379.444 152.375 375.326C150.806 374.285 148.951 373.722 147.063 373.722C141.757 373.715 137.444 378.028 137.444 383.319ZM153 390.875C157.896 387.056 157.875 379.611 153 375.771C148.125 379.611 148.104 387.063 153 390.875ZM143.118 396.174C143.118 395.569 142.722 395.174 142.097 395.153C141.778 395.153 141.438 395.25 141.208 395.604C141.042 395.319 140.757 395.153 140.361 395.153C140.097 395.153 139.833 395.25 139.625 395.528V395.222H139.056V397.771H139.625C139.625 396.458 139.451 395.674 140.25 395.674C140.958 395.674 140.819 396.382 140.819 397.771H141.368C141.368 396.5 141.194 395.674 141.993 395.674C142.701 395.674 142.562 396.368 142.562 397.771H143.132V396.174H143.118ZM146.236 395.222H145.688V395.528C145.5 395.299 145.236 395.153 144.875 395.153C144.16 395.153 143.611 395.722 143.611 396.493C143.611 397.271 144.16 397.833 144.875 397.833C145.236 397.833 145.5 397.701 145.688 397.458V397.778H146.236V395.222ZM149.049 397C149.049 395.958 147.458 396.431 147.458 395.944C147.458 395.549 148.285 395.611 148.743 395.868L148.972 395.417C148.319 394.993 146.875 395 146.875 395.986C146.875 396.979 148.465 396.563 148.465 397.028C148.465 397.465 147.528 397.431 147.028 397.083L146.785 397.521C147.563 398.049 149.049 397.938 149.049 397ZM151.507 397.646L151.354 397.174C151.09 397.319 150.507 397.479 150.507 396.889V395.736H151.417V395.222H150.507V394.444H149.938V395.222H149.41V395.729H149.938V396.889C149.938 398.111 151.139 397.889 151.507 397.646ZM152.431 396.715H154.34C154.34 395.59 153.826 395.146 153.132 395.146C152.396 395.146 151.868 395.694 151.868 396.486C151.868 397.91 153.438 398.146 154.215 397.472L153.951 397.056C153.41 397.5 152.59 397.458 152.431 396.715ZM156.535 395.222C156.215 395.083 155.729 395.097 155.479 395.528V395.222H154.91V397.771H155.479V396.333C155.479 395.528 156.139 395.632 156.368 395.75L156.535 395.222ZM157.271 396.493C157.271 395.701 158.076 395.444 158.708 395.91L158.972 395.458C158.167 394.826 156.701 395.174 156.701 396.5C156.701 397.875 158.257 398.153 158.972 397.542L158.708 397.09C158.069 397.542 157.271 397.271 157.271 396.493ZM161.903 395.222H161.333V395.528C160.757 394.764 159.257 395.194 159.257 396.493C159.257 397.826 160.813 398.208 161.333 397.458V397.778H161.903V395.222ZM164.243 395.222C164.076 395.139 163.479 395.021 163.188 395.528V395.222H162.639V397.771H163.188V396.333C163.188 395.569 163.813 395.618 164.076 395.75L164.243 395.222ZM167.042 394.188H166.493V395.528C165.924 394.771 164.417 395.174 164.417 396.493C164.417 397.84 165.979 398.201 166.493 397.458V397.778H167.042V394.188ZM167.569 388.972V389.292H167.625V388.972H167.757V388.917H167.438V388.972H167.569ZM168.028 397.569C168.028 397.535 168.028 397.493 168.007 397.458C167.986 397.438 167.972 397.403 167.951 397.382C167.931 397.361 167.896 397.347 167.875 397.326C167.84 397.326 167.799 397.306 167.764 397.306C167.743 397.306 167.708 397.326 167.667 397.326C167.632 397.347 167.611 397.361 167.59 397.382C167.556 397.403 167.535 397.438 167.535 397.458C167.514 397.493 167.514 397.535 167.514 397.569C167.514 397.59 167.514 397.625 167.535 397.667C167.535 397.688 167.556 397.722 167.59 397.743C167.611 397.764 167.625 397.778 167.667 397.799C167.701 397.819 167.743 397.819 167.764 397.819C167.799 397.819 167.84 397.819 167.875 397.799C167.896 397.778 167.931 397.764 167.951 397.743C167.972 397.722 167.986 397.688 168.007 397.667C168.028 397.625 168.028 397.59 168.028 397.569ZM168.25 388.91H168.153L168.042 389.153L167.931 388.91H167.833V389.285H167.889V389L168 389.243H168.076L168.174 389V389.285H168.25V388.91ZM168.556 383.319C168.556 378.028 164.243 373.715 158.938 373.715C157.049 373.715 155.194 374.285 153.625 375.319C158.632 379.438 158.708 387.229 153.625 391.326C155.194 392.368 157.063 392.931 158.938 392.931C164.243 392.938 168.556 388.632 168.556 383.319Z" fill="black"/>
<path d="M108.986 383.014C108.986 384.208 108.257 384.896 106.972 384.896H105.285V381.132H106.979C108.257 381.132 108.986 381.812 108.986 383.014ZM112.285 387.361C112.285 387.937 112.785 388.312 113.569 388.312C114.569 388.312 115.319 387.681 115.319 386.792V386.257L113.688 386.361C112.764 386.424 112.285 386.764 112.285 387.361ZM128 373.333V397.778C128 399.618 126.507 401.111 124.667 401.111H91.3333C89.4931 401.111 88 399.618 88 397.778V373.333C88 371.493 89.4931 370 91.3333 370H124.667C126.507 370 128 371.493 128 373.333ZM96.875 381.542C97.4583 381.59 98.0417 381.25 98.4097 380.819C98.7708 380.375 99.0069 379.778 98.9444 379.174C98.4306 379.194 97.7917 379.514 97.4236 379.958C97.0903 380.34 96.8056 380.958 96.875 381.542ZM101.083 386.715C101.069 386.701 99.7222 386.187 99.7083 384.632C99.6944 383.333 100.771 382.708 100.819 382.674C100.208 381.771 99.2639 381.674 98.9375 381.653C98.0903 381.604 97.3681 382.132 96.9653 382.132C96.5556 382.132 95.9444 381.674 95.2778 381.687C94.4097 381.701 93.5972 382.194 93.1597 382.979C92.25 384.549 92.9236 386.868 93.8056 388.146C94.2361 388.778 94.7569 389.472 95.4375 389.444C96.0833 389.417 96.3403 389.028 97.1181 389.028C97.9028 389.028 98.125 389.444 98.8056 389.437C99.5139 389.424 99.9514 388.806 100.389 388.174C100.868 387.451 101.069 386.757 101.083 386.715ZM110.486 383.007C110.486 381.16 109.201 379.896 107.368 379.896H103.813V389.368H105.285V386.132H107.319C109.181 386.132 110.486 384.854 110.486 383.007ZM116.736 384.653C116.736 383.285 115.639 382.403 113.958 382.403C112.396 382.403 111.243 383.299 111.201 384.521H112.528C112.639 383.938 113.181 383.556 113.917 383.556C114.819 383.556 115.319 383.972 115.319 384.75V385.271L113.486 385.382C111.778 385.486 110.854 386.188 110.854 387.403C110.854 388.632 111.806 389.444 113.174 389.444C114.097 389.444 114.951 388.979 115.34 388.236H115.368V389.375H116.729V384.653H116.736ZM123.833 382.493H122.34L120.611 388.09H120.583L118.854 382.493H117.306L119.799 389.389L119.667 389.806C119.444 390.514 119.076 390.792 118.424 390.792C118.306 390.792 118.083 390.778 117.993 390.771V391.91C118.076 391.937 118.444 391.944 118.556 391.944C119.993 391.944 120.667 391.396 121.257 389.736L123.833 382.493Z" fill="black"/>
<path d="M75.6458 384.063C75.6458 384.063 76.1736 386.646 76.2917 387.188H73.9722C74.2014 386.569 75.0833 384.167 75.0833 384.167C75.0694 384.188 75.3125 383.535 75.4514 383.132L75.6458 384.063ZM83 373.556V398C83 399.84 81.5069 401.333 79.6667 401.333H46.3333C44.4931 401.333 43 399.84 43 398V373.556C43 371.715 44.4931 370.222 46.3333 370.222H79.6667C81.5069 370.222 83 371.715 83 373.556ZM53.5903 391L57.9792 380.222H55.0278L52.2986 387.583L52 386.09L51.0278 381.132C50.8681 380.444 50.375 380.25 49.7639 380.222H45.2708L45.2222 380.438C46.3194 380.715 47.2986 381.118 48.1528 381.625L50.6389 391H53.5903ZM60.1458 391.014L61.8958 380.222H59.1042L57.3611 391.014H60.1458ZM69.8611 387.486C69.875 386.257 69.125 385.319 67.5208 384.549C66.5417 384.056 65.9444 383.722 65.9444 383.215C65.9583 382.757 66.4514 382.285 67.5486 382.285C68.4583 382.264 69.125 382.479 69.625 382.694L69.875 382.813L70.2569 380.479C69.7083 380.264 68.8333 380.021 67.7569 380.021C65 380.021 63.0625 381.493 63.0486 383.59C63.0278 385.139 64.4375 386 65.4931 386.521C66.5694 387.049 66.9375 387.396 66.9375 387.861C66.9236 388.583 66.0625 388.917 65.2639 388.917C64.1528 388.917 63.5556 388.743 62.6458 388.34L62.2778 388.167L61.8889 390.59C62.5417 390.889 63.75 391.153 65 391.167C67.9306 391.174 69.8403 389.722 69.8611 387.486ZM79.6667 391.014L77.4167 380.222H75.2569C74.5903 380.222 74.0833 380.417 73.7986 381.118L69.6528 391.014H72.5833C72.5833 391.014 73.0625 389.681 73.1667 389.396H76.75C76.8333 389.778 77.0833 391.014 77.0833 391.014H79.6667Z" fill="black"/>
<line x1="17.3536" y1="29.0312" x2="35.0313" y2="11.3535" stroke="black"/>
<line x1="17.3537" y1="28.3241" x2="35.0313" y2="46.0017" stroke="black"/>
<path d="M101.722 496.759L105.378 486.203H107.224L102.478 499H100.983L96.2461 486.203H98.083L101.722 496.759ZM110.458 499H108.832V489.49H110.458V499ZM108.7 486.968C108.7 486.704 108.779 486.481 108.938 486.3C109.102 486.118 109.342 486.027 109.658 486.027C109.975 486.027 110.215 486.118 110.379 486.3C110.543 486.481 110.625 486.704 110.625 486.968C110.625 487.231 110.543 487.451 110.379 487.627C110.215 487.803 109.975 487.891 109.658 487.891C109.342 487.891 109.102 487.803 108.938 487.627C108.779 487.451 108.7 487.231 108.7 486.968ZM117.015 499.176C115.726 499.176 114.677 498.754 113.868 497.91C113.06 497.061 112.655 495.927 112.655 494.509V494.21C112.655 493.267 112.834 492.426 113.191 491.688C113.555 490.943 114.059 490.363 114.703 489.947C115.354 489.525 116.057 489.314 116.812 489.314C118.049 489.314 119.01 489.722 119.695 490.536C120.381 491.351 120.724 492.517 120.724 494.034V494.711H114.281C114.305 495.648 114.577 496.407 115.099 496.987C115.626 497.562 116.294 497.849 117.103 497.849C117.677 497.849 118.163 497.731 118.562 497.497C118.96 497.263 119.309 496.952 119.607 496.565L120.601 497.339C119.804 498.563 118.608 499.176 117.015 499.176ZM116.812 490.65C116.156 490.65 115.605 490.891 115.16 491.371C114.715 491.846 114.439 492.514 114.334 493.375H119.098V493.252C119.051 492.426 118.828 491.787 118.43 491.336C118.031 490.879 117.492 490.65 116.812 490.65ZM131.033 496.759L132.861 489.49H134.487L131.719 499H130.4L128.089 491.793L125.839 499H124.521L121.761 489.49H123.378L125.25 496.609L127.465 489.49H128.774L131.033 496.759ZM140.183 494.157C140.183 493.226 140.364 492.388 140.728 491.644C141.097 490.899 141.606 490.325 142.257 489.921C142.913 489.517 143.66 489.314 144.498 489.314C145.793 489.314 146.839 489.763 147.636 490.659C148.438 491.556 148.84 492.748 148.84 494.236V494.351C148.84 495.276 148.661 496.108 148.304 496.847C147.952 497.579 147.445 498.15 146.783 498.561C146.127 498.971 145.371 499.176 144.516 499.176C143.227 499.176 142.181 498.728 141.378 497.831C140.581 496.935 140.183 495.748 140.183 494.271V494.157ZM141.817 494.351C141.817 495.405 142.061 496.252 142.547 496.891C143.039 497.529 143.695 497.849 144.516 497.849C145.342 497.849 145.998 497.526 146.484 496.882C146.971 496.231 147.214 495.323 147.214 494.157C147.214 493.114 146.965 492.271 146.467 491.626C145.975 490.976 145.318 490.65 144.498 490.65C143.695 490.65 143.048 490.97 142.556 491.608C142.063 492.247 141.817 493.161 141.817 494.351ZM156.75 498.06C156.117 498.804 155.188 499.176 153.964 499.176C152.95 499.176 152.177 498.883 151.644 498.297C151.116 497.705 150.85 496.832 150.844 495.678V489.49H152.47V495.634C152.47 497.075 153.056 497.796 154.228 497.796C155.47 497.796 156.296 497.333 156.706 496.407V489.49H158.332V499H156.785L156.75 498.06ZM165.407 490.949C165.161 490.908 164.895 490.888 164.607 490.888C163.541 490.888 162.817 491.342 162.437 492.25V499H160.811V489.49H162.393L162.419 490.589C162.952 489.739 163.708 489.314 164.687 489.314C165.003 489.314 165.243 489.355 165.407 489.438V490.949ZM173.317 493.99V499H171.63V486.203H176.35C177.75 486.203 178.846 486.561 179.637 487.275C180.434 487.99 180.832 488.937 180.832 490.114C180.832 491.356 180.442 492.314 179.663 492.988C178.89 493.656 177.779 493.99 176.332 493.99H173.317ZM173.317 492.61H176.35C177.252 492.61 177.943 492.399 178.424 491.978C178.904 491.55 179.145 490.935 179.145 490.132C179.145 489.37 178.904 488.761 178.424 488.304C177.943 487.847 177.284 487.609 176.446 487.592H173.317V492.61ZM187.327 490.949C187.081 490.908 186.814 490.888 186.527 490.888C185.461 490.888 184.737 491.342 184.356 492.25V499H182.73V489.49H184.312L184.339 490.589C184.872 489.739 185.628 489.314 186.606 489.314C186.923 489.314 187.163 489.355 187.327 489.438V490.949ZM190.597 499H188.971V489.49H190.597V499ZM188.839 486.968C188.839 486.704 188.918 486.481 189.076 486.3C189.24 486.118 189.48 486.027 189.797 486.027C190.113 486.027 190.354 486.118 190.518 486.3C190.682 486.481 190.764 486.704 190.764 486.968C190.764 487.231 190.682 487.451 190.518 487.627C190.354 487.803 190.113 487.891 189.797 487.891C189.48 487.891 189.24 487.803 189.076 487.627C188.918 487.451 188.839 487.231 188.839 486.968ZM196.345 496.794L198.7 489.49H200.361L196.951 499H195.712L192.267 489.49H193.928L196.345 496.794ZM207.656 499C207.562 498.812 207.486 498.479 207.428 497.998C206.672 498.783 205.77 499.176 204.721 499.176C203.783 499.176 203.013 498.912 202.409 498.385C201.812 497.852 201.513 497.178 201.513 496.363C201.513 495.373 201.888 494.605 202.638 494.061C203.394 493.51 204.454 493.234 205.819 493.234H207.401V492.487C207.401 491.919 207.231 491.468 206.892 491.134C206.552 490.794 206.051 490.624 205.389 490.624C204.809 490.624 204.322 490.771 203.93 491.063C203.537 491.356 203.341 491.711 203.341 492.127H201.706C201.706 491.652 201.873 491.195 202.207 490.756C202.547 490.311 203.004 489.959 203.578 489.701C204.158 489.443 204.794 489.314 205.485 489.314C206.581 489.314 207.439 489.59 208.061 490.141C208.682 490.686 209.004 491.438 209.027 492.399V496.776C209.027 497.649 209.139 498.344 209.361 498.859V499H207.656ZM204.958 497.761C205.468 497.761 205.951 497.629 206.408 497.365C206.865 497.102 207.196 496.759 207.401 496.337V494.386H206.127C204.135 494.386 203.139 494.969 203.139 496.135C203.139 496.645 203.309 497.043 203.648 497.33C203.988 497.617 204.425 497.761 204.958 497.761ZM215.391 497.849C215.971 497.849 216.478 497.673 216.911 497.321C217.345 496.97 217.585 496.53 217.632 496.003H219.17C219.141 496.548 218.953 497.066 218.607 497.559C218.262 498.051 217.799 498.443 217.219 498.736C216.645 499.029 216.035 499.176 215.391 499.176C214.096 499.176 213.064 498.745 212.297 497.884C211.535 497.017 211.154 495.833 211.154 494.333V494.061C211.154 493.135 211.324 492.312 211.664 491.591C212.004 490.87 212.49 490.311 213.123 489.912C213.762 489.514 214.515 489.314 215.382 489.314C216.448 489.314 217.333 489.634 218.036 490.272C218.745 490.911 219.123 491.74 219.17 492.76H217.632C217.585 492.145 217.351 491.641 216.929 491.248C216.513 490.85 215.997 490.65 215.382 490.65C214.556 490.65 213.914 490.949 213.457 491.547C213.006 492.139 212.78 492.997 212.78 494.122V494.43C212.78 495.525 213.006 496.369 213.457 496.961C213.908 497.553 214.553 497.849 215.391 497.849ZM224.109 496.618L226.324 489.49H228.064L224.241 500.468C223.649 502.05 222.709 502.841 221.42 502.841L221.112 502.814L220.506 502.7V501.382L220.945 501.417C221.496 501.417 221.924 501.306 222.229 501.083C222.539 500.86 222.794 500.453 222.993 499.861L223.354 498.895L219.961 489.49H221.736L224.109 496.618ZM235.931 493.99V499H234.243V486.203H238.963C240.363 486.203 241.459 486.561 242.25 487.275C243.047 487.99 243.445 488.937 243.445 490.114C243.445 491.356 243.056 492.314 242.276 492.988C241.503 493.656 240.393 493.99 238.945 493.99H235.931ZM235.931 492.61H238.963C239.865 492.61 240.557 492.399 241.037 491.978C241.518 491.55 241.758 490.935 241.758 490.132C241.758 489.37 241.518 488.761 241.037 488.304C240.557 487.847 239.897 487.609 239.06 487.592H235.931V492.61ZM244.79 494.157C244.79 493.226 244.972 492.388 245.335 491.644C245.704 490.899 246.214 490.325 246.864 489.921C247.521 489.517 248.268 489.314 249.105 489.314C250.4 489.314 251.446 489.763 252.243 490.659C253.046 491.556 253.447 492.748 253.447 494.236V494.351C253.447 495.276 253.269 496.108 252.911 496.847C252.56 497.579 252.053 498.15 251.391 498.561C250.734 498.971 249.979 499.176 249.123 499.176C247.834 499.176 246.788 498.728 245.985 497.831C245.188 496.935 244.79 495.748 244.79 494.271V494.157ZM246.425 494.351C246.425 495.405 246.668 496.252 247.154 496.891C247.646 497.529 248.303 497.849 249.123 497.849C249.949 497.849 250.605 497.526 251.092 496.882C251.578 496.231 251.821 495.323 251.821 494.157C251.821 493.114 251.572 492.271 251.074 491.626C250.582 490.976 249.926 490.65 249.105 490.65C248.303 490.65 247.655 490.97 247.163 491.608C246.671 492.247 246.425 493.161 246.425 494.351ZM257.253 499H255.627V485.5H257.253V499ZM261.63 499H260.004V489.49H261.63V499ZM259.872 486.968C259.872 486.704 259.951 486.481 260.109 486.3C260.273 486.118 260.514 486.027 260.83 486.027C261.146 486.027 261.387 486.118 261.551 486.3C261.715 486.481 261.797 486.704 261.797 486.968C261.797 487.231 261.715 487.451 261.551 487.627C261.387 487.803 261.146 487.891 260.83 487.891C260.514 487.891 260.273 487.803 260.109 487.627C259.951 487.451 259.872 487.231 259.872 486.968ZM268.055 497.849C268.635 497.849 269.142 497.673 269.575 497.321C270.009 496.97 270.249 496.53 270.296 496.003H271.834C271.805 496.548 271.617 497.066 271.271 497.559C270.926 498.051 270.463 498.443 269.883 498.736C269.309 499.029 268.699 499.176 268.055 499.176C266.76 499.176 265.729 498.745 264.961 497.884C264.199 497.017 263.818 495.833 263.818 494.333V494.061C263.818 493.135 263.988 492.312 264.328 491.591C264.668 490.87 265.154 490.311 265.787 489.912C266.426 489.514 267.179 489.314 268.046 489.314C269.112 489.314 269.997 489.634 270.7 490.272C271.409 490.911 271.787 491.74 271.834 492.76H270.296C270.249 492.145 270.015 491.641 269.593 491.248C269.177 490.85 268.661 490.65 268.046 490.65C267.22 490.65 266.578 490.949 266.121 491.547C265.67 492.139 265.444 492.997 265.444 494.122V494.43C265.444 495.525 265.67 496.369 266.121 496.961C266.572 497.553 267.217 497.849 268.055 497.849ZM276.773 496.618L278.988 489.49H280.729L276.905 500.468C276.313 502.05 275.373 502.841 274.084 502.841L273.776 502.814L273.17 502.7V501.382L273.609 501.417C274.16 501.417 274.588 501.306 274.893 501.083C275.203 500.86 275.458 500.453 275.657 499.861L276.018 498.895L272.625 489.49H274.4L276.773 496.618Z" fill="black"/>
<path d="M170.145 500.758H280.948V501.637H170.145V500.758Z" fill="black"/>
</g>
<rect x="0.5" y="0.5" width="376" height="835" stroke="black"/>
<defs>
<clipPath id="clip0_1_436">
<rect x="1" y="1" width="375" height="834" fill="white"/>
</clipPath>
<clipPath id="clip1_1_436">
<rect width="40" height="35.5556" fill="white" transform="translate(235 787)"/>
</clipPath>
<clipPath id="clip2_1_436">
<rect width="40" height="40" fill="white" transform="translate(21 785)"/>
</clipPath>
<clipPath id="clip3_1_436">
<rect width="45" height="40" fill="white" transform="translate(166 762)"/>
</clipPath>
</defs>
</svg>
