<svg width="377" height="814" viewBox="0 0 377 814" fill="none" xmlns="http://www.w3.org/2000/svg">
<rect x="0.5" y="0.5" width="376" height="813" fill="white"/>
<rect x="1" y="1" width="375" height="124" fill="#C4C4C4"/>
<rect x="99" y="39" width="180" height="46" fill="#E5E5E5"/>
<path d="M162.242 68.1602H170.328V70H159.98V52.9375H162.242V68.1602ZM185.246 62.0195C185.246 63.6914 184.965 65.1523 184.402 66.4023C183.84 67.6445 183.043 68.5938 182.012 69.25C180.98 69.9062 179.777 70.2344 178.402 70.2344C177.059 70.2344 175.867 69.9062 174.828 69.25C173.789 68.5859 172.98 67.6445 172.402 66.4258C171.832 65.1992 171.539 63.7812 171.523 62.1719V60.9414C171.523 59.3008 171.809 57.8516 172.379 56.5938C172.949 55.3359 173.754 54.375 174.793 53.7109C175.84 53.0391 177.035 52.7031 178.379 52.7031C179.746 52.7031 180.949 53.0352 181.988 53.6992C183.035 54.3555 183.84 55.3125 184.402 56.5703C184.965 57.8203 185.246 59.2773 185.246 60.9414V62.0195ZM183.008 60.918C183.008 58.8945 182.602 57.3438 181.789 56.2656C180.977 55.1797 179.84 54.6367 178.379 54.6367C176.957 54.6367 175.836 55.1797 175.016 56.2656C174.203 57.3438 173.785 58.8438 173.762 60.7656V62.0195C173.762 63.9805 174.172 65.5234 174.992 66.6484C175.82 67.7656 176.957 68.3242 178.402 68.3242C179.855 68.3242 180.98 67.7969 181.777 66.7422C182.574 65.6797 182.984 64.1602 183.008 62.1836V60.918ZM201.219 67.7617C200.641 68.5898 199.832 69.2109 198.793 69.625C197.762 70.0312 196.559 70.2344 195.184 70.2344C193.793 70.2344 192.559 69.9102 191.48 69.2617C190.402 68.6055 189.566 67.6758 188.973 66.4727C188.387 65.2695 188.086 63.875 188.07 62.2891V60.8008C188.07 58.2305 188.668 56.2383 189.863 54.8242C191.066 53.4102 192.754 52.7031 194.926 52.7031C196.707 52.7031 198.141 53.1602 199.227 54.0742C200.312 54.9805 200.977 56.2695 201.219 57.9414H198.969C198.547 55.6836 197.203 54.5547 194.938 54.5547C193.43 54.5547 192.285 55.0859 191.504 56.1484C190.73 57.2031 190.34 58.7344 190.332 60.7422V62.1367C190.332 64.0508 190.77 65.5742 191.645 66.707C192.52 67.832 193.703 68.3945 195.195 68.3945C196.039 68.3945 196.777 68.3008 197.41 68.1133C198.043 67.9258 198.566 67.6094 198.98 67.1641V63.332H195.031V61.5039H201.219V67.7617ZM218.105 62.0195C218.105 63.6914 217.824 65.1523 217.262 66.4023C216.699 67.6445 215.902 68.5938 214.871 69.25C213.84 69.9062 212.637 70.2344 211.262 70.2344C209.918 70.2344 208.727 69.9062 207.688 69.25C206.648 68.5859 205.84 67.6445 205.262 66.4258C204.691 65.1992 204.398 63.7812 204.383 62.1719V60.9414C204.383 59.3008 204.668 57.8516 205.238 56.5938C205.809 55.3359 206.613 54.375 207.652 53.7109C208.699 53.0391 209.895 52.7031 211.238 52.7031C212.605 52.7031 213.809 53.0352 214.848 53.6992C215.895 54.3555 216.699 55.3125 217.262 56.5703C217.824 57.8203 218.105 59.2773 218.105 60.9414V62.0195ZM215.867 60.918C215.867 58.8945 215.461 57.3438 214.648 56.2656C213.836 55.1797 212.699 54.6367 211.238 54.6367C209.816 54.6367 208.695 55.1797 207.875 56.2656C207.062 57.3438 206.645 58.8438 206.621 60.7656V62.0195C206.621 63.9805 207.031 65.5234 207.852 66.6484C208.68 67.7656 209.816 68.3242 211.262 68.3242C212.715 68.3242 213.84 67.7969 214.637 66.7422C215.434 65.6797 215.844 64.1602 215.867 62.1836V60.918Z" fill="black"/>
<path d="M67.1885 108.069L67.4893 110.132L67.9297 108.273L71.0234 97.3594H72.7637L75.7822 108.273L76.2119 110.164L76.5449 108.059L78.9727 97.3594H81.0459L77.2539 113H75.374L72.1514 101.603L71.9043 100.41L71.6572 101.603L68.3164 113H66.4365L62.6553 97.3594H64.7178L67.1885 108.069ZM87.5127 113.215C85.9372 113.215 84.6553 112.699 83.667 111.668C82.6787 110.63 82.1846 109.244 82.1846 107.511V107.146C82.1846 105.993 82.403 104.965 82.8398 104.062C83.2839 103.153 83.8997 102.444 84.6875 101.936C85.4824 101.42 86.3418 101.162 87.2656 101.162C88.7767 101.162 89.9512 101.66 90.7891 102.655C91.627 103.651 92.0459 105.076 92.0459 106.931V107.758H84.1719C84.2005 108.904 84.5335 109.831 85.1709 110.54C85.8154 111.242 86.6318 111.593 87.6201 111.593C88.3219 111.593 88.9163 111.45 89.4033 111.163C89.8903 110.877 90.3164 110.497 90.6816 110.024L91.8955 110.97C90.9215 112.466 89.4606 113.215 87.5127 113.215ZM87.2656 102.795C86.4635 102.795 85.7904 103.089 85.2461 103.676C84.7018 104.256 84.3652 105.072 84.2363 106.125H90.0586V105.975C90.0013 104.965 89.7292 104.184 89.2422 103.633C88.7552 103.074 88.0964 102.795 87.2656 102.795ZM96.5146 113H94.5273V96.5H96.5146V113ZM104.367 111.593C105.076 111.593 105.696 111.378 106.226 110.948C106.756 110.519 107.049 109.981 107.106 109.337H108.986C108.951 110.003 108.721 110.637 108.299 111.238C107.876 111.84 107.311 112.32 106.602 112.678C105.9 113.036 105.155 113.215 104.367 113.215C102.785 113.215 101.524 112.688 100.586 111.636C99.6549 110.576 99.1895 109.129 99.1895 107.296V106.963C99.1895 105.831 99.3971 104.825 99.8125 103.944C100.228 103.063 100.822 102.38 101.596 101.893C102.376 101.406 103.297 101.162 104.356 101.162C105.66 101.162 106.741 101.552 107.601 102.333C108.467 103.114 108.929 104.127 108.986 105.373H107.106C107.049 104.621 106.763 104.005 106.247 103.525C105.739 103.038 105.108 102.795 104.356 102.795C103.347 102.795 102.562 103.16 102.004 103.891C101.452 104.614 101.177 105.663 101.177 107.038V107.414C101.177 108.753 101.452 109.785 102.004 110.508C102.555 111.231 103.343 111.593 104.367 111.593ZM110.694 107.081C110.694 105.942 110.916 104.918 111.36 104.009C111.812 103.099 112.435 102.397 113.229 101.903C114.032 101.409 114.945 101.162 115.969 101.162C117.551 101.162 118.83 101.71 119.804 102.806C120.785 103.901 121.275 105.359 121.275 107.178V107.317C121.275 108.449 121.057 109.466 120.62 110.368C120.19 111.263 119.571 111.962 118.762 112.463C117.96 112.964 117.036 113.215 115.99 113.215C114.415 113.215 113.136 112.667 112.155 111.571C111.181 110.476 110.694 109.025 110.694 107.221V107.081ZM112.692 107.317C112.692 108.606 112.99 109.641 113.584 110.422C114.186 111.202 114.988 111.593 115.99 111.593C117 111.593 117.802 111.199 118.396 110.411C118.991 109.616 119.288 108.506 119.288 107.081C119.288 105.806 118.984 104.775 118.375 103.987C117.773 103.192 116.971 102.795 115.969 102.795C114.988 102.795 114.196 103.185 113.595 103.966C112.993 104.746 112.692 105.864 112.692 107.317ZM125.637 101.377L125.69 102.666C126.543 101.663 127.692 101.162 129.139 101.162C130.764 101.162 131.871 101.785 132.458 103.031C132.845 102.473 133.346 102.021 133.962 101.678C134.585 101.334 135.319 101.162 136.164 101.162C138.714 101.162 140.01 102.512 140.053 105.212V113H138.065V105.33C138.065 104.499 137.876 103.88 137.496 103.472C137.117 103.056 136.479 102.849 135.584 102.849C134.846 102.849 134.234 103.071 133.747 103.515C133.26 103.951 132.977 104.542 132.898 105.287V113H130.9V105.384C130.9 103.694 130.073 102.849 128.419 102.849C127.116 102.849 126.224 103.404 125.744 104.514V113H123.757V101.377H125.637ZM147.884 113.215C146.308 113.215 145.026 112.699 144.038 111.668C143.05 110.63 142.556 109.244 142.556 107.511V107.146C142.556 105.993 142.774 104.965 143.211 104.062C143.655 103.153 144.271 102.444 145.059 101.936C145.854 101.42 146.713 101.162 147.637 101.162C149.148 101.162 150.322 101.66 151.16 102.655C151.998 103.651 152.417 105.076 152.417 106.931V107.758H144.543C144.572 108.904 144.905 109.831 145.542 110.54C146.187 111.242 147.003 111.593 147.991 111.593C148.693 111.593 149.287 111.45 149.774 111.163C150.261 110.877 150.688 110.497 151.053 110.024L152.267 110.97C151.293 112.466 149.832 113.215 147.884 113.215ZM147.637 102.795C146.835 102.795 146.161 103.089 145.617 103.676C145.073 104.256 144.736 105.072 144.607 106.125H150.43V105.975C150.372 104.965 150.1 104.184 149.613 103.633C149.126 103.074 148.467 102.795 147.637 102.795ZM162.88 98.5625V101.377H165.05V102.913H162.88V110.121C162.88 110.587 162.977 110.938 163.17 111.174C163.363 111.403 163.693 111.518 164.158 111.518C164.387 111.518 164.702 111.475 165.104 111.389V113C164.581 113.143 164.072 113.215 163.578 113.215C162.69 113.215 162.021 112.946 161.569 112.409C161.118 111.872 160.893 111.109 160.893 110.121V102.913H158.776V101.377H160.893V98.5625H162.88ZM166.64 107.081C166.64 105.942 166.862 104.918 167.306 104.009C167.757 103.099 168.38 102.397 169.175 101.903C169.977 101.409 170.89 101.162 171.914 101.162C173.497 101.162 174.775 101.71 175.749 102.806C176.73 103.901 177.221 105.359 177.221 107.178V107.317C177.221 108.449 177.002 109.466 176.565 110.368C176.136 111.263 175.516 111.962 174.707 112.463C173.905 112.964 172.981 113.215 171.936 113.215C170.36 113.215 169.082 112.667 168.101 111.571C167.127 110.476 166.64 109.025 166.64 107.221V107.081ZM168.638 107.317C168.638 108.606 168.935 109.641 169.529 110.422C170.131 111.202 170.933 111.593 171.936 111.593C172.945 111.593 173.747 111.199 174.342 110.411C174.936 109.616 175.233 108.506 175.233 107.081C175.233 105.806 174.929 104.775 174.32 103.987C173.719 103.192 172.917 102.795 171.914 102.795C170.933 102.795 170.142 103.185 169.54 103.966C168.938 104.746 168.638 105.864 168.638 107.317ZM187.544 106.877V113H185.481V97.3594H191.25C192.962 97.3594 194.301 97.7962 195.268 98.6699C196.242 99.5436 196.729 100.7 196.729 102.14C196.729 103.658 196.252 104.829 195.3 105.652C194.354 106.469 192.997 106.877 191.229 106.877H187.544ZM187.544 105.19H191.25C192.353 105.19 193.198 104.933 193.785 104.417C194.372 103.894 194.666 103.142 194.666 102.161C194.666 101.23 194.372 100.485 193.785 99.9268C193.198 99.3682 192.392 99.0781 191.368 99.0566H187.544V105.19ZM203.722 113.215C202.146 113.215 200.864 112.699 199.876 111.668C198.888 110.63 198.394 109.244 198.394 107.511V107.146C198.394 105.993 198.612 104.965 199.049 104.062C199.493 103.153 200.109 102.444 200.896 101.936C201.691 101.42 202.551 101.162 203.475 101.162C204.986 101.162 206.16 101.66 206.998 102.655C207.836 103.651 208.255 105.076 208.255 106.931V107.758H200.381C200.41 108.904 200.743 109.831 201.38 110.54C202.024 111.242 202.841 111.593 203.829 111.593C204.531 111.593 205.125 111.45 205.612 111.163C206.099 110.877 206.525 110.497 206.891 110.024L208.104 110.97C207.131 112.466 205.67 113.215 203.722 113.215ZM203.475 102.795C202.673 102.795 201.999 103.089 201.455 103.676C200.911 104.256 200.574 105.072 200.445 106.125H206.268V105.975C206.21 104.965 205.938 104.184 205.451 103.633C204.964 103.074 204.305 102.795 203.475 102.795ZM216.183 103.16C215.882 103.11 215.556 103.085 215.205 103.085C213.902 103.085 213.017 103.64 212.552 104.75V113H210.564V101.377H212.498L212.53 102.72C213.182 101.681 214.106 101.162 215.302 101.162C215.688 101.162 215.982 101.212 216.183 101.312V103.16ZM219.169 113V102.913H217.332V101.377H219.169V100.185C219.169 98.9385 219.502 97.9753 220.168 97.2949C220.834 96.6146 221.776 96.2744 222.993 96.2744C223.451 96.2744 223.906 96.3353 224.357 96.457L224.25 98.0684C223.913 98.0039 223.555 97.9717 223.176 97.9717C222.531 97.9717 222.034 98.1615 221.683 98.541C221.332 98.9134 221.156 99.4505 221.156 100.152V101.377H223.638V102.913H221.156V113H219.169ZM230.405 113.215C228.83 113.215 227.548 112.699 226.56 111.668C225.571 110.63 225.077 109.244 225.077 107.511V107.146C225.077 105.993 225.296 104.965 225.732 104.062C226.176 103.153 226.792 102.444 227.58 101.936C228.375 101.42 229.234 101.162 230.158 101.162C231.669 101.162 232.844 101.66 233.682 102.655C234.52 103.651 234.938 105.076 234.938 106.931V107.758H227.064C227.093 108.904 227.426 109.831 228.063 110.54C228.708 111.242 229.524 111.593 230.513 111.593C231.215 111.593 231.809 111.45 232.296 111.163C232.783 110.877 233.209 110.497 233.574 110.024L234.788 110.97C233.814 112.466 232.353 113.215 230.405 113.215ZM230.158 102.795C229.356 102.795 228.683 103.089 228.139 103.676C227.594 104.256 227.258 105.072 227.129 106.125H232.951V105.975C232.894 104.965 232.622 104.184 232.135 103.633C231.648 103.074 230.989 102.795 230.158 102.795ZM241.91 111.593C242.619 111.593 243.239 111.378 243.769 110.948C244.299 110.519 244.592 109.981 244.649 109.337H246.529C246.493 110.003 246.264 110.637 245.842 111.238C245.419 111.84 244.854 112.32 244.145 112.678C243.443 113.036 242.698 113.215 241.91 113.215C240.327 113.215 239.067 112.688 238.129 111.636C237.198 110.576 236.732 109.129 236.732 107.296V106.963C236.732 105.831 236.94 104.825 237.355 103.944C237.771 103.063 238.365 102.38 239.139 101.893C239.919 101.406 240.84 101.162 241.899 101.162C243.203 101.162 244.284 101.552 245.144 102.333C246.01 103.114 246.472 104.127 246.529 105.373H244.649C244.592 104.621 244.306 104.005 243.79 103.525C243.282 103.038 242.651 102.795 241.899 102.795C240.89 102.795 240.105 103.16 239.547 103.891C238.995 104.614 238.72 105.663 238.72 107.038V107.414C238.72 108.753 238.995 109.785 239.547 110.508C240.098 111.231 240.886 111.593 241.91 111.593ZM251.46 98.5625V101.377H253.63V102.913H251.46V110.121C251.46 110.587 251.557 110.938 251.75 111.174C251.943 111.403 252.273 111.518 252.738 111.518C252.967 111.518 253.283 111.475 253.684 111.389V113C253.161 113.143 252.652 113.215 252.158 113.215C251.27 113.215 250.601 112.946 250.149 112.409C249.698 111.872 249.473 111.109 249.473 110.121V102.913H247.356V101.377H249.473V98.5625H251.46ZM265.113 105.771H258.335V111.313H266.209V113H256.272V97.3594H266.102V99.0566H258.335V104.084H265.113V105.771ZM267.767 107.092C267.767 105.309 268.189 103.876 269.034 102.795C269.879 101.706 270.986 101.162 272.354 101.162C273.714 101.162 274.792 101.628 275.587 102.559V96.5H277.574V113H275.748L275.651 111.754C274.856 112.728 273.75 113.215 272.332 113.215C270.986 113.215 269.886 112.663 269.034 111.561C268.189 110.458 267.767 109.018 267.767 107.242V107.092ZM269.754 107.317C269.754 108.635 270.026 109.666 270.57 110.411C271.115 111.156 271.867 111.528 272.826 111.528C274.087 111.528 275.007 110.963 275.587 109.831V104.492C274.993 103.396 274.079 102.849 272.848 102.849C271.874 102.849 271.115 103.225 270.57 103.977C270.026 104.729 269.754 105.842 269.754 107.317ZM280.195 107.092C280.195 105.28 280.614 103.84 281.452 102.773C282.29 101.699 283.4 101.162 284.782 101.162C286.2 101.162 287.307 101.663 288.102 102.666L288.198 101.377H290.014V112.721C290.014 114.225 289.566 115.41 288.671 116.276C287.783 117.143 286.587 117.576 285.083 117.576C284.245 117.576 283.425 117.397 282.623 117.039C281.821 116.681 281.209 116.19 280.786 115.567L281.817 114.375C282.67 115.428 283.712 115.954 284.943 115.954C285.91 115.954 286.662 115.682 287.199 115.138C287.743 114.593 288.016 113.827 288.016 112.839V111.84C287.221 112.757 286.136 113.215 284.761 113.215C283.4 113.215 282.297 112.667 281.452 111.571C280.614 110.476 280.195 108.982 280.195 107.092ZM282.193 107.317C282.193 108.628 282.462 109.659 282.999 110.411C283.536 111.156 284.288 111.528 285.255 111.528C286.508 111.528 287.428 110.959 288.016 109.82V104.514C287.407 103.404 286.494 102.849 285.276 102.849C284.31 102.849 283.554 103.225 283.01 103.977C282.465 104.729 282.193 105.842 282.193 107.317ZM297.845 113.215C296.269 113.215 294.987 112.699 293.999 111.668C293.011 110.63 292.517 109.244 292.517 107.511V107.146C292.517 105.993 292.735 104.965 293.172 104.062C293.616 103.153 294.232 102.444 295.02 101.936C295.814 101.42 296.674 101.162 297.598 101.162C299.109 101.162 300.283 101.66 301.121 102.655C301.959 103.651 302.378 105.076 302.378 106.931V107.758H294.504C294.533 108.904 294.866 109.831 295.503 110.54C296.147 111.242 296.964 111.593 297.952 111.593C298.654 111.593 299.248 111.45 299.735 111.163C300.222 110.877 300.648 110.497 301.014 110.024L302.228 110.97C301.254 112.466 299.793 113.215 297.845 113.215ZM297.598 102.795C296.796 102.795 296.122 103.089 295.578 103.676C295.034 104.256 294.697 105.072 294.568 106.125H300.391V105.975C300.333 104.965 300.061 104.184 299.574 103.633C299.087 103.074 298.428 102.795 297.598 102.795ZM306.911 108.585H305.117L304.978 97.3594H307.062L306.911 108.585ZM304.902 112.001C304.902 111.679 304.999 111.41 305.192 111.195C305.393 110.973 305.687 110.862 306.073 110.862C306.46 110.862 306.754 110.973 306.954 111.195C307.155 111.41 307.255 111.679 307.255 112.001C307.255 112.323 307.155 112.592 306.954 112.807C306.754 113.014 306.46 113.118 306.073 113.118C305.687 113.118 305.393 113.014 305.192 112.807C304.999 112.592 304.902 112.323 304.902 112.001Z" fill="black"/>
<rect x="1.5" y="329.5" width="374" height="74" fill="white" stroke="black"/>
<path d="M21.5 336.5H80.5V395.5H21.5V336.5Z" fill="#C4C4C4" stroke="black"/>
<line x1="20.6464" y1="395.646" x2="80.6464" y2="335.646" stroke="black"/>
<line x1="21.3536" y1="335.646" x2="81.3536" y2="395.646" stroke="black"/>
<path d="M102.878 367.877V374H100.815V358.359H106.584C108.296 358.359 109.635 358.796 110.602 359.67C111.576 360.544 112.062 361.7 112.062 363.14C112.062 364.658 111.586 365.829 110.634 366.652C109.688 367.469 108.331 367.877 106.562 367.877H102.878ZM102.878 366.19H106.584C107.687 366.19 108.532 365.933 109.119 365.417C109.706 364.894 110 364.142 110 363.161C110 362.23 109.706 361.485 109.119 360.927C108.532 360.368 107.726 360.078 106.702 360.057H102.878V366.19ZM113.706 368.081C113.706 366.942 113.928 365.918 114.372 365.009C114.823 364.099 115.446 363.397 116.241 362.903C117.043 362.409 117.956 362.162 118.98 362.162C120.563 362.162 121.841 362.71 122.815 363.806C123.797 364.901 124.287 366.359 124.287 368.178V368.317C124.287 369.449 124.069 370.466 123.632 371.368C123.202 372.263 122.583 372.962 121.773 373.463C120.971 373.964 120.048 374.215 119.002 374.215C117.426 374.215 116.148 373.667 115.167 372.571C114.193 371.476 113.706 370.025 113.706 368.221V368.081ZM115.704 368.317C115.704 369.606 116.001 370.641 116.596 371.422C117.197 372.202 117.999 372.593 119.002 372.593C120.012 372.593 120.814 372.199 121.408 371.411C122.003 370.616 122.3 369.506 122.3 368.081C122.3 366.806 121.995 365.775 121.387 364.987C120.785 364.192 119.983 363.795 118.98 363.795C117.999 363.795 117.208 364.185 116.606 364.966C116.005 365.746 115.704 366.864 115.704 368.317ZM129.476 359.562V362.377H131.646V363.913H129.476V371.121C129.476 371.587 129.572 371.938 129.766 372.174C129.959 372.403 130.288 372.518 130.754 372.518C130.983 372.518 131.298 372.475 131.699 372.389V374C131.176 374.143 130.668 374.215 130.174 374.215C129.286 374.215 128.616 373.946 128.165 373.409C127.714 372.872 127.488 372.109 127.488 371.121V363.913H125.372V362.377H127.488V359.562H129.476ZM140.744 370.917C140.744 370.38 140.54 369.965 140.132 369.671C139.731 369.37 139.025 369.112 138.016 368.897C137.013 368.683 136.215 368.425 135.62 368.124C135.033 367.823 134.596 367.465 134.31 367.05C134.03 366.634 133.891 366.14 133.891 365.567C133.891 364.615 134.292 363.809 135.094 363.15C135.903 362.492 136.934 362.162 138.188 362.162C139.505 362.162 140.572 362.502 141.389 363.183C142.212 363.863 142.624 364.733 142.624 365.793H140.626C140.626 365.249 140.393 364.78 139.928 364.386C139.469 363.992 138.889 363.795 138.188 363.795C137.464 363.795 136.898 363.952 136.49 364.268C136.082 364.583 135.878 364.994 135.878 365.503C135.878 365.983 136.068 366.344 136.447 366.588C136.827 366.831 137.511 367.064 138.499 367.286C139.494 367.508 140.3 367.773 140.916 368.081C141.532 368.389 141.987 368.761 142.28 369.198C142.581 369.628 142.731 370.154 142.731 370.777C142.731 371.816 142.316 372.65 141.485 373.28C140.655 373.903 139.577 374.215 138.252 374.215C137.321 374.215 136.497 374.05 135.781 373.721C135.065 373.391 134.503 372.933 134.095 372.346C133.694 371.751 133.493 371.11 133.493 370.423H135.48C135.516 371.089 135.781 371.619 136.275 372.013C136.777 372.399 137.436 372.593 138.252 372.593C139.004 372.593 139.605 372.442 140.057 372.142C140.515 371.834 140.744 371.425 140.744 370.917ZM150.358 369.8C150.358 369.048 150.566 368.357 150.981 367.727C151.404 367.096 152.206 366.362 153.388 365.524C152.693 364.679 152.228 363.999 151.991 363.483C151.755 362.968 151.637 362.456 151.637 361.947C151.637 360.758 151.988 359.827 152.689 359.154C153.391 358.481 154.344 358.145 155.547 358.145C156.621 358.145 157.509 358.46 158.211 359.09C158.913 359.713 159.264 360.501 159.264 361.453C159.264 362.083 159.103 362.667 158.78 363.204C158.465 363.734 157.91 364.293 157.115 364.88L155.966 365.729L159.446 369.886C159.933 368.955 160.177 367.92 160.177 366.781H161.971C161.971 368.607 161.53 370.122 160.649 371.325L162.884 374H160.499L159.457 372.765C158.927 373.237 158.304 373.599 157.588 373.85C156.879 374.093 156.156 374.215 155.418 374.215C153.893 374.215 152.668 373.81 151.744 373.001C150.82 372.192 150.358 371.125 150.358 369.8ZM155.418 372.593C156.471 372.593 157.434 372.192 158.308 371.39L154.494 366.824L154.14 367.082C152.944 367.963 152.346 368.869 152.346 369.8C152.346 370.645 152.618 371.322 153.162 371.83C153.714 372.339 154.465 372.593 155.418 372.593ZM153.624 361.883C153.624 362.57 154.047 363.43 154.892 364.461L156.159 363.569C156.646 363.226 156.979 362.9 157.158 362.592C157.337 362.277 157.427 361.897 157.427 361.453C157.427 360.973 157.248 360.576 156.89 360.261C156.532 359.938 156.08 359.777 155.536 359.777C154.949 359.777 154.483 359.978 154.14 360.379C153.796 360.773 153.624 361.274 153.624 361.883ZM172.294 367.877V374H170.231V358.359H176C177.712 358.359 179.051 358.796 180.018 359.67C180.992 360.544 181.479 361.7 181.479 363.14C181.479 364.658 181.002 365.829 180.05 366.652C179.104 367.469 177.747 367.877 175.979 367.877H172.294ZM172.294 366.19H176C177.103 366.19 177.948 365.933 178.535 365.417C179.122 364.894 179.416 364.142 179.416 363.161C179.416 362.23 179.122 361.485 178.535 360.927C177.948 360.368 177.142 360.078 176.118 360.057H172.294V366.19ZM190.846 374C190.731 373.771 190.638 373.363 190.566 372.775C189.643 373.735 188.54 374.215 187.258 374.215C186.112 374.215 185.17 373.893 184.433 373.248C183.702 372.596 183.337 371.773 183.337 370.777C183.337 369.567 183.795 368.629 184.712 367.963C185.636 367.29 186.932 366.953 188.601 366.953H190.534V366.04C190.534 365.345 190.326 364.794 189.911 364.386C189.496 363.97 188.883 363.763 188.074 363.763C187.365 363.763 186.771 363.942 186.291 364.3C185.811 364.658 185.571 365.091 185.571 365.6H183.573C183.573 365.02 183.777 364.461 184.186 363.924C184.601 363.38 185.16 362.95 185.861 362.635C186.57 362.32 187.347 362.162 188.192 362.162C189.532 362.162 190.581 362.499 191.34 363.172C192.099 363.838 192.493 364.758 192.521 365.933V371.282C192.521 372.349 192.658 373.198 192.93 373.828V374H190.846ZM187.548 372.485C188.171 372.485 188.762 372.324 189.32 372.002C189.879 371.68 190.284 371.261 190.534 370.745V368.36H188.977C186.542 368.36 185.324 369.073 185.324 370.498C185.324 371.121 185.532 371.608 185.947 371.959C186.363 372.31 186.896 372.485 187.548 372.485ZM197.517 362.377L197.581 363.838C198.469 362.721 199.629 362.162 201.062 362.162C203.518 362.162 204.757 363.548 204.778 366.319V374H202.791V366.309C202.784 365.471 202.59 364.851 202.211 364.45C201.839 364.049 201.255 363.849 200.46 363.849C199.815 363.849 199.25 364.021 198.763 364.364C198.276 364.708 197.896 365.159 197.624 365.718V374H195.637V362.377H197.517ZM214.543 370.917C214.543 370.38 214.339 369.965 213.931 369.671C213.53 369.37 212.824 369.112 211.814 368.897C210.812 368.683 210.013 368.425 209.419 368.124C208.832 367.823 208.395 367.465 208.108 367.05C207.829 366.634 207.689 366.14 207.689 365.567C207.689 364.615 208.09 363.809 208.893 363.15C209.702 362.492 210.733 362.162 211.986 362.162C213.304 362.162 214.371 362.502 215.188 363.183C216.011 363.863 216.423 364.733 216.423 365.793H214.425C214.425 365.249 214.192 364.78 213.727 364.386C213.268 363.992 212.688 363.795 211.986 363.795C211.263 363.795 210.697 363.952 210.289 364.268C209.881 364.583 209.677 364.994 209.677 365.503C209.677 365.983 209.867 366.344 210.246 366.588C210.626 366.831 211.31 367.064 212.298 367.286C213.293 367.508 214.099 367.773 214.715 368.081C215.331 368.389 215.785 368.761 216.079 369.198C216.38 369.628 216.53 370.154 216.53 370.777C216.53 371.816 216.115 372.65 215.284 373.28C214.453 373.903 213.376 374.215 212.051 374.215C211.12 374.215 210.296 374.05 209.58 373.721C208.864 373.391 208.302 372.933 207.894 372.346C207.493 371.751 207.292 371.11 207.292 370.423H209.279C209.315 371.089 209.58 371.619 210.074 372.013C210.576 372.399 211.234 372.593 212.051 372.593C212.803 372.593 213.404 372.442 213.855 372.142C214.314 371.834 214.543 371.425 214.543 370.917Z" fill="black"/>
<rect x="1.5" y="422.5" width="374" height="74" fill="white" stroke="black"/>
<path d="M21.5 430.5H80.5V489.5H21.5V430.5Z" fill="#C4C4C4" stroke="black"/>
<line x1="20.6464" y1="489.646" x2="80.6464" y2="429.646" stroke="black"/>
<line x1="21.3536" y1="429.646" x2="81.3536" y2="489.646" stroke="black"/>
<path d="M100.815 468V452.359H105.23C106.591 452.359 107.794 452.66 108.84 453.262C109.885 453.863 110.691 454.719 111.257 455.829C111.83 456.939 112.12 458.214 112.127 459.653V460.652C112.127 462.128 111.84 463.42 111.268 464.53C110.702 465.64 109.889 466.493 108.829 467.087C107.776 467.681 106.548 467.986 105.145 468H100.815ZM102.878 454.057V466.313H105.048C106.638 466.313 107.873 465.819 108.754 464.831C109.642 463.843 110.086 462.436 110.086 460.609V459.696C110.086 457.92 109.667 456.542 108.829 455.561C107.998 454.572 106.817 454.071 105.284 454.057H102.878ZM117.101 468H115.113V456.377H117.101V468ZM114.952 453.294C114.952 452.972 115.049 452.7 115.242 452.478C115.443 452.256 115.736 452.145 116.123 452.145C116.51 452.145 116.803 452.256 117.004 452.478C117.204 452.7 117.305 452.972 117.305 453.294C117.305 453.616 117.204 453.885 117.004 454.1C116.803 454.314 116.51 454.422 116.123 454.422C115.736 454.422 115.443 454.314 115.242 454.1C115.049 453.885 114.952 453.616 114.952 453.294ZM127.059 464.917C127.059 464.38 126.854 463.965 126.446 463.671C126.045 463.37 125.34 463.112 124.33 462.897C123.327 462.683 122.529 462.425 121.935 462.124C121.347 461.823 120.91 461.465 120.624 461.05C120.345 460.634 120.205 460.14 120.205 459.567C120.205 458.615 120.606 457.809 121.408 457.15C122.217 456.492 123.249 456.162 124.502 456.162C125.82 456.162 126.887 456.502 127.703 457.183C128.527 457.863 128.938 458.733 128.938 459.793H126.94C126.94 459.249 126.708 458.78 126.242 458.386C125.784 457.992 125.204 457.795 124.502 457.795C123.779 457.795 123.213 457.952 122.805 458.268C122.396 458.583 122.192 458.994 122.192 459.503C122.192 459.983 122.382 460.344 122.762 460.588C123.141 460.831 123.825 461.064 124.813 461.286C125.809 461.508 126.615 461.773 127.23 462.081C127.846 462.389 128.301 462.761 128.595 463.198C128.896 463.628 129.046 464.154 129.046 464.777C129.046 465.816 128.631 466.65 127.8 467.28C126.969 467.903 125.891 468.215 124.566 468.215C123.635 468.215 122.812 468.05 122.096 467.721C121.38 467.391 120.817 466.933 120.409 466.346C120.008 465.751 119.808 465.11 119.808 464.423H121.795C121.831 465.089 122.096 465.619 122.59 466.013C123.091 466.399 123.75 466.593 124.566 466.593C125.318 466.593 125.92 466.442 126.371 466.142C126.829 465.834 127.059 465.425 127.059 464.917ZM133.622 457.784C134.503 456.703 135.649 456.162 137.06 456.162C139.516 456.162 140.755 457.548 140.776 460.319V468H138.789V460.309C138.782 459.471 138.589 458.851 138.209 458.45C137.837 458.049 137.253 457.849 136.458 457.849C135.813 457.849 135.248 458.021 134.761 458.364C134.274 458.708 133.894 459.159 133.622 459.718V468H131.635V451.5H133.622V457.784ZM148.575 468.215C147 468.215 145.718 467.699 144.729 466.668C143.741 465.63 143.247 464.244 143.247 462.511V462.146C143.247 460.993 143.465 459.965 143.902 459.062C144.346 458.153 144.962 457.444 145.75 456.936C146.545 456.42 147.404 456.162 148.328 456.162C149.839 456.162 151.014 456.66 151.852 457.655C152.689 458.651 153.108 460.076 153.108 461.931V462.758H145.234C145.263 463.904 145.596 464.831 146.233 465.54C146.878 466.242 147.694 466.593 148.683 466.593C149.384 466.593 149.979 466.45 150.466 466.163C150.953 465.877 151.379 465.497 151.744 465.024L152.958 465.97C151.984 467.466 150.523 468.215 148.575 468.215ZM148.328 457.795C147.526 457.795 146.853 458.089 146.309 458.676C145.764 459.256 145.428 460.072 145.299 461.125H151.121V460.975C151.064 459.965 150.792 459.184 150.305 458.633C149.818 458.074 149.159 457.795 148.328 457.795ZM162.186 464.917C162.186 464.38 161.981 463.965 161.573 463.671C161.172 463.37 160.467 463.112 159.457 462.897C158.454 462.683 157.656 462.425 157.062 462.124C156.474 461.823 156.037 461.465 155.751 461.05C155.472 460.634 155.332 460.14 155.332 459.567C155.332 458.615 155.733 457.809 156.535 457.15C157.344 456.492 158.376 456.162 159.629 456.162C160.947 456.162 162.014 456.502 162.83 457.183C163.654 457.863 164.065 458.733 164.065 459.793H162.067C162.067 459.249 161.835 458.78 161.369 458.386C160.911 457.992 160.331 457.795 159.629 457.795C158.906 457.795 158.34 457.952 157.932 458.268C157.523 458.583 157.319 458.994 157.319 459.503C157.319 459.983 157.509 460.344 157.889 460.588C158.268 460.831 158.952 461.064 159.94 461.286C160.936 461.508 161.742 461.773 162.357 462.081C162.973 462.389 163.428 462.761 163.722 463.198C164.022 463.628 164.173 464.154 164.173 464.777C164.173 465.816 163.757 466.65 162.927 467.28C162.096 467.903 161.018 468.215 159.693 468.215C158.762 468.215 157.939 468.05 157.223 467.721C156.507 467.391 155.944 466.933 155.536 466.346C155.135 465.751 154.935 465.11 154.935 464.423H156.922C156.958 465.089 157.223 465.619 157.717 466.013C158.218 466.399 158.877 466.593 159.693 466.593C160.445 466.593 161.047 466.442 161.498 466.142C161.956 465.834 162.186 465.425 162.186 464.917ZM171.8 463.8C171.8 463.048 172.007 462.357 172.423 461.727C172.845 461.096 173.647 460.362 174.829 459.524C174.134 458.679 173.669 457.999 173.433 457.483C173.196 456.968 173.078 456.456 173.078 455.947C173.078 454.758 173.429 453.827 174.131 453.154C174.833 452.481 175.785 452.145 176.988 452.145C178.062 452.145 178.951 452.46 179.652 453.09C180.354 453.713 180.705 454.501 180.705 455.453C180.705 456.083 180.544 456.667 180.222 457.204C179.907 457.734 179.352 458.293 178.557 458.88L177.407 459.729L180.888 463.886C181.375 462.955 181.618 461.92 181.618 460.781H183.412C183.412 462.607 182.972 464.122 182.091 465.325L184.325 468H181.94L180.898 466.765C180.368 467.237 179.745 467.599 179.029 467.85C178.32 468.093 177.597 468.215 176.859 468.215C175.334 468.215 174.109 467.81 173.186 467.001C172.262 466.192 171.8 465.125 171.8 463.8ZM176.859 466.593C177.912 466.593 178.875 466.192 179.749 465.39L175.936 460.824L175.581 461.082C174.385 461.963 173.787 462.869 173.787 463.8C173.787 464.645 174.059 465.322 174.604 465.83C175.155 466.339 175.907 466.593 176.859 466.593ZM175.065 455.883C175.065 456.57 175.488 457.43 176.333 458.461L177.601 457.569C178.088 457.226 178.421 456.9 178.6 456.592C178.779 456.277 178.868 455.897 178.868 455.453C178.868 454.973 178.689 454.576 178.331 454.261C177.973 453.938 177.522 453.777 176.978 453.777C176.39 453.777 175.925 453.978 175.581 454.379C175.237 454.773 175.065 455.274 175.065 455.883ZM196.281 461.028C194.512 460.52 193.223 459.897 192.414 459.159C191.612 458.414 191.211 457.498 191.211 456.409C191.211 455.177 191.701 454.16 192.683 453.358C193.671 452.549 194.953 452.145 196.528 452.145C197.603 452.145 198.559 452.352 199.396 452.768C200.242 453.183 200.893 453.756 201.352 454.486C201.817 455.217 202.05 456.015 202.05 456.882H199.977C199.977 455.937 199.676 455.195 199.074 454.658C198.473 454.114 197.624 453.842 196.528 453.842C195.511 453.842 194.716 454.067 194.144 454.519C193.578 454.963 193.295 455.582 193.295 456.377C193.295 457.014 193.563 457.555 194.101 457.999C194.645 458.436 195.565 458.837 196.861 459.202C198.165 459.567 199.182 459.972 199.912 460.416C200.65 460.853 201.194 461.365 201.545 461.952C201.903 462.539 202.082 463.23 202.082 464.025C202.082 465.293 201.588 466.31 200.6 467.076C199.611 467.835 198.29 468.215 196.636 468.215C195.562 468.215 194.559 468.011 193.628 467.603C192.697 467.187 191.977 466.621 191.469 465.905C190.967 465.189 190.717 464.376 190.717 463.467H192.79C192.79 464.412 193.137 465.16 193.832 465.712C194.534 466.256 195.468 466.528 196.636 466.528C197.724 466.528 198.559 466.306 199.139 465.862C199.719 465.418 200.009 464.813 200.009 464.047C200.009 463.281 199.74 462.69 199.203 462.274C198.666 461.852 197.692 461.437 196.281 461.028ZM206.583 468H204.596V456.377H206.583V468ZM204.435 453.294C204.435 452.972 204.531 452.7 204.725 452.478C204.925 452.256 205.219 452.145 205.605 452.145C205.992 452.145 206.286 452.256 206.486 452.478C206.687 452.7 206.787 452.972 206.787 453.294C206.787 453.616 206.687 453.885 206.486 454.1C206.286 454.314 205.992 454.422 205.605 454.422C205.219 454.422 204.925 454.314 204.725 454.1C204.531 453.885 204.435 453.616 204.435 453.294ZM211.933 468H209.945V451.5H211.933V468ZM218.958 465.304L221.837 456.377H223.867L219.699 468H218.185L213.974 456.377H216.004L218.958 465.304ZM230.452 468.215C228.877 468.215 227.595 467.699 226.606 466.668C225.618 465.63 225.124 464.244 225.124 462.511V462.146C225.124 460.993 225.342 459.965 225.779 459.062C226.223 458.153 226.839 457.444 227.627 456.936C228.422 456.42 229.281 456.162 230.205 456.162C231.716 456.162 232.891 456.66 233.729 457.655C234.566 458.651 234.985 460.076 234.985 461.931V462.758H227.111C227.14 463.904 227.473 464.831 228.11 465.54C228.755 466.242 229.571 466.593 230.56 466.593C231.261 466.593 231.856 466.45 232.343 466.163C232.83 465.877 233.256 465.497 233.621 465.024L234.835 465.97C233.861 467.466 232.4 468.215 230.452 468.215ZM230.205 457.795C229.403 457.795 228.73 458.089 228.186 458.676C227.641 459.256 227.305 460.072 227.176 461.125H232.998V460.975C232.941 459.965 232.669 459.184 232.182 458.633C231.695 458.074 231.036 457.795 230.205 457.795ZM242.913 458.16C242.612 458.11 242.286 458.085 241.936 458.085C240.632 458.085 239.748 458.64 239.282 459.75V468H237.295V456.377H239.229L239.261 457.72C239.912 456.681 240.836 456.162 242.032 456.162C242.419 456.162 242.713 456.212 242.913 456.312V458.16ZM255.234 465.261L257.469 456.377H259.456L256.072 468H254.461L251.636 459.191L248.886 468H247.274L243.901 456.377H245.878L248.166 465.078L250.873 456.377H252.474L255.234 465.261ZM268.662 468C268.548 467.771 268.454 467.363 268.383 466.775C267.459 467.735 266.356 468.215 265.074 468.215C263.928 468.215 262.987 467.893 262.249 467.248C261.519 466.596 261.153 465.773 261.153 464.777C261.153 463.567 261.612 462.629 262.528 461.963C263.452 461.29 264.748 460.953 266.417 460.953H268.351V460.04C268.351 459.345 268.143 458.794 267.728 458.386C267.312 457.97 266.7 457.763 265.891 457.763C265.182 457.763 264.587 457.942 264.107 458.3C263.628 458.658 263.388 459.091 263.388 459.6H261.39C261.39 459.02 261.594 458.461 262.002 457.924C262.417 457.38 262.976 456.95 263.678 456.635C264.387 456.32 265.164 456.162 266.009 456.162C267.348 456.162 268.397 456.499 269.156 457.172C269.915 457.838 270.309 458.758 270.338 459.933V465.282C270.338 466.349 270.474 467.198 270.746 467.828V468H268.662ZM265.364 466.485C265.987 466.485 266.578 466.324 267.137 466.002C267.695 465.68 268.1 465.261 268.351 464.745V462.36H266.793C264.358 462.36 263.141 463.073 263.141 464.498C263.141 465.121 263.348 465.608 263.764 465.959C264.179 466.31 264.713 466.485 265.364 466.485ZM279.071 458.16C278.771 458.11 278.445 458.085 278.094 458.085C276.79 458.085 275.906 458.64 275.44 459.75V468H273.453V456.377H275.387L275.419 457.72C276.071 456.681 276.994 456.162 278.19 456.162C278.577 456.162 278.871 456.212 279.071 456.312V458.16ZM285.517 468.215C283.941 468.215 282.659 467.699 281.671 466.668C280.683 465.63 280.188 464.244 280.188 462.511V462.146C280.188 460.993 280.407 459.965 280.844 459.062C281.288 458.153 281.904 457.444 282.691 456.936C283.486 456.42 284.346 456.162 285.27 456.162C286.781 456.162 287.955 456.66 288.793 457.655C289.631 458.651 290.05 460.076 290.05 461.931V462.758H282.176C282.204 463.904 282.537 464.831 283.175 465.54C283.819 466.242 284.636 466.593 285.624 466.593C286.326 466.593 286.92 466.45 287.407 466.163C287.894 465.877 288.32 465.497 288.686 465.024L289.899 465.97C288.925 467.466 287.465 468.215 285.517 468.215ZM285.27 457.795C284.467 457.795 283.794 458.089 283.25 458.676C282.706 459.256 282.369 460.072 282.24 461.125H288.062V460.975C288.005 459.965 287.733 459.184 287.246 458.633C286.759 458.074 286.1 457.795 285.27 457.795Z" fill="black"/>
<rect x="1.5" y="517.5" width="374" height="74" fill="white" stroke="black"/>
<path d="M21.5 525.5H80.5V584.5H21.5V525.5Z" fill="#C4C4C4" stroke="black"/>
<line x1="20.6464" y1="584.646" x2="80.6464" y2="524.646" stroke="black"/>
<line x1="21.3536" y1="524.646" x2="81.3536" y2="584.646" stroke="black"/>
<path d="M108.452 558.918H101.899L100.428 563H98.3008L104.273 547.359H106.078L112.062 563H109.945L108.452 558.918ZM102.522 557.221H107.84L105.176 549.905L102.522 557.221ZM123.674 557.317C123.674 559.086 123.269 560.511 122.46 561.593C121.651 562.674 120.555 563.215 119.173 563.215C117.762 563.215 116.652 562.767 115.843 561.872V567.469H113.855V551.377H115.671L115.768 552.666C116.577 551.663 117.701 551.162 119.141 551.162C120.537 551.162 121.64 551.688 122.449 552.741C123.266 553.794 123.674 555.258 123.674 557.135V557.317ZM121.687 557.092C121.687 555.781 121.407 554.746 120.849 553.987C120.29 553.228 119.524 552.849 118.55 552.849C117.347 552.849 116.444 553.382 115.843 554.449V560.003C116.437 561.063 117.347 561.593 118.571 561.593C119.524 561.593 120.279 561.217 120.838 560.465C121.404 559.706 121.687 558.581 121.687 557.092ZM136.027 557.317C136.027 559.086 135.623 560.511 134.813 561.593C134.004 562.674 132.909 563.215 131.526 563.215C130.116 563.215 129.006 562.767 128.196 561.872V567.469H126.209V551.377H128.024L128.121 552.666C128.93 551.663 130.055 551.162 131.494 551.162C132.891 551.162 133.993 551.688 134.803 552.741C135.619 553.794 136.027 555.258 136.027 557.135V557.317ZM134.04 557.092C134.04 555.781 133.761 554.746 133.202 553.987C132.644 553.228 131.877 552.849 130.903 552.849C129.7 552.849 128.798 553.382 128.196 554.449V560.003C128.791 561.063 129.7 561.593 130.925 561.593C131.877 561.593 132.633 561.217 133.191 560.465C133.757 559.706 134.04 558.581 134.04 557.092ZM140.722 563H138.734V546.5H140.722V563ZM146.071 563H144.084V551.377H146.071V563ZM143.923 548.294C143.923 547.972 144.02 547.7 144.213 547.478C144.413 547.256 144.707 547.145 145.094 547.145C145.48 547.145 145.774 547.256 145.975 547.478C146.175 547.7 146.275 547.972 146.275 548.294C146.275 548.616 146.175 548.885 145.975 549.1C145.774 549.314 145.48 549.422 145.094 549.422C144.707 549.422 144.413 549.314 144.213 549.1C144.02 548.885 143.923 548.616 143.923 548.294ZM156.438 563C156.323 562.771 156.23 562.363 156.158 561.775C155.234 562.735 154.132 563.215 152.85 563.215C151.704 563.215 150.762 562.893 150.024 562.248C149.294 561.596 148.929 560.773 148.929 559.777C148.929 558.567 149.387 557.629 150.304 556.963C151.228 556.29 152.524 555.953 154.192 555.953H156.126V555.04C156.126 554.345 155.918 553.794 155.503 553.386C155.088 552.97 154.475 552.763 153.666 552.763C152.957 552.763 152.363 552.942 151.883 553.3C151.403 553.658 151.163 554.091 151.163 554.6H149.165C149.165 554.02 149.369 553.461 149.777 552.924C150.193 552.38 150.751 551.95 151.453 551.635C152.162 551.32 152.939 551.162 153.784 551.162C155.123 551.162 156.173 551.499 156.932 552.172C157.691 552.838 158.085 553.758 158.113 554.933V560.282C158.113 561.349 158.249 562.198 158.521 562.828V563H156.438ZM153.14 561.485C153.763 561.485 154.354 561.324 154.912 561.002C155.471 560.68 155.875 560.261 156.126 559.745V557.36H154.568C152.133 557.36 150.916 558.073 150.916 559.498C150.916 560.121 151.124 560.608 151.539 560.959C151.954 561.31 152.488 561.485 153.14 561.485ZM163.108 551.377L163.173 552.838C164.061 551.721 165.221 551.162 166.653 551.162C169.11 551.162 170.349 552.548 170.37 555.319V563H168.383V555.309C168.376 554.471 168.182 553.851 167.803 553.45C167.43 553.049 166.847 552.849 166.052 552.849C165.407 552.849 164.841 553.021 164.354 553.364C163.868 553.708 163.488 554.159 163.216 554.718V563H161.229V551.377H163.108ZM178.029 561.593C178.738 561.593 179.358 561.378 179.888 560.948C180.418 560.519 180.711 559.981 180.769 559.337H182.648C182.613 560.003 182.383 560.637 181.961 561.238C181.538 561.84 180.973 562.32 180.264 562.678C179.562 563.036 178.817 563.215 178.029 563.215C176.447 563.215 175.186 562.688 174.248 561.636C173.317 560.576 172.852 559.129 172.852 557.296V556.963C172.852 555.831 173.059 554.825 173.475 553.944C173.89 553.063 174.484 552.38 175.258 551.893C176.038 551.406 176.959 551.162 178.019 551.162C179.322 551.162 180.403 551.552 181.263 552.333C182.129 553.114 182.591 554.127 182.648 555.373H180.769C180.711 554.621 180.425 554.005 179.909 553.525C179.401 553.038 178.771 552.795 178.019 552.795C177.009 552.795 176.225 553.16 175.666 553.891C175.115 554.614 174.839 555.663 174.839 557.038V557.414C174.839 558.753 175.115 559.785 175.666 560.508C176.217 561.231 177.005 561.593 178.029 561.593ZM189.706 563.215C188.131 563.215 186.849 562.699 185.86 561.668C184.872 560.63 184.378 559.244 184.378 557.511V557.146C184.378 555.993 184.596 554.965 185.033 554.062C185.477 553.153 186.093 552.444 186.881 551.936C187.676 551.42 188.535 551.162 189.459 551.162C190.97 551.162 192.145 551.66 192.982 552.655C193.82 553.651 194.239 555.076 194.239 556.931V557.758H186.365C186.394 558.904 186.727 559.831 187.364 560.54C188.009 561.242 188.825 561.593 189.813 561.593C190.515 561.593 191.11 561.45 191.597 561.163C192.084 560.877 192.51 560.497 192.875 560.024L194.089 560.97C193.115 562.466 191.654 563.215 189.706 563.215ZM189.459 552.795C188.657 552.795 187.984 553.089 187.439 553.676C186.895 554.256 186.559 555.072 186.43 556.125H192.252V555.975C192.195 554.965 191.923 554.184 191.436 553.633C190.949 553.074 190.29 552.795 189.459 552.795ZM203.316 559.917C203.316 559.38 203.112 558.965 202.704 558.671C202.303 558.37 201.598 558.112 200.588 557.897C199.585 557.683 198.787 557.425 198.192 557.124C197.605 556.823 197.168 556.465 196.882 556.05C196.603 555.634 196.463 555.14 196.463 554.567C196.463 553.615 196.864 552.809 197.666 552.15C198.475 551.492 199.507 551.162 200.76 551.162C202.077 551.162 203.145 551.502 203.961 552.183C204.785 552.863 205.196 553.733 205.196 554.793H203.198C203.198 554.249 202.965 553.78 202.5 553.386C202.042 552.992 201.462 552.795 200.76 552.795C200.036 552.795 199.471 552.952 199.062 553.268C198.654 553.583 198.45 553.994 198.45 554.503C198.45 554.983 198.64 555.344 199.02 555.588C199.399 555.831 200.083 556.064 201.071 556.286C202.067 556.508 202.872 556.773 203.488 557.081C204.104 557.389 204.559 557.761 204.853 558.198C205.153 558.628 205.304 559.154 205.304 559.777C205.304 560.816 204.888 561.65 204.058 562.28C203.227 562.903 202.149 563.215 200.824 563.215C199.893 563.215 199.07 563.05 198.354 562.721C197.637 562.391 197.075 561.933 196.667 561.346C196.266 560.751 196.065 560.11 196.065 559.423H198.053C198.089 560.089 198.354 560.619 198.848 561.013C199.349 561.399 200.008 561.593 200.824 561.593C201.576 561.593 202.178 561.442 202.629 561.142C203.087 560.834 203.316 560.425 203.316 559.917Z" fill="black"/>
<rect x="1.5" y="613.5" width="374" height="74" fill="white" stroke="black"/>
<path d="M21.5 621.5H80.5V680.5H21.5V621.5Z" fill="#C4C4C4" stroke="black"/>
<line x1="20.6464" y1="680.646" x2="80.6464" y2="620.646" stroke="black"/>
<line x1="21.3536" y1="620.646" x2="81.3536" y2="680.646" stroke="black"/>
<path d="M102.889 657.313H110.301V659H100.815V643.359H102.889V657.313ZM114.501 659H112.514V647.377H114.501V659ZM112.353 644.294C112.353 643.972 112.449 643.7 112.643 643.478C112.843 643.256 113.137 643.145 113.523 643.145C113.91 643.145 114.204 643.256 114.404 643.478C114.605 643.7 114.705 643.972 114.705 644.294C114.705 644.616 114.605 644.885 114.404 645.1C114.204 645.314 113.91 645.422 113.523 645.422C113.137 645.422 112.843 645.314 112.643 645.1C112.449 644.885 112.353 644.616 112.353 644.294ZM119.571 647.377L119.636 648.838C120.524 647.721 121.684 647.162 123.116 647.162C125.573 647.162 126.812 648.548 126.833 651.319V659H124.846V651.309C124.839 650.471 124.645 649.851 124.266 649.45C123.893 649.049 123.31 648.849 122.515 648.849C121.87 648.849 121.304 649.021 120.817 649.364C120.33 649.708 119.951 650.159 119.679 650.718V659H117.691V647.377H119.571ZM134.653 659.215C133.078 659.215 131.796 658.699 130.808 657.668C129.819 656.63 129.325 655.244 129.325 653.511V653.146C129.325 651.993 129.544 650.965 129.98 650.062C130.424 649.153 131.04 648.444 131.828 647.936C132.623 647.42 133.482 647.162 134.406 647.162C135.917 647.162 137.092 647.66 137.93 648.655C138.768 649.651 139.187 651.076 139.187 652.931V653.758H131.312C131.341 654.904 131.674 655.831 132.312 656.54C132.956 657.242 133.772 657.593 134.761 657.593C135.463 657.593 136.057 657.45 136.544 657.163C137.031 656.877 137.457 656.497 137.822 656.024L139.036 656.97C138.062 658.466 136.601 659.215 134.653 659.215ZM134.406 648.795C133.604 648.795 132.931 649.089 132.387 649.676C131.842 650.256 131.506 651.072 131.377 652.125H137.199V651.975C137.142 650.965 136.87 650.184 136.383 649.633C135.896 649.074 135.237 648.795 134.406 648.795ZM143.376 647.377L143.44 648.838C144.328 647.721 145.489 647.162 146.921 647.162C149.377 647.162 150.616 648.548 150.638 651.319V659H148.65V651.309C148.643 650.471 148.45 649.851 148.07 649.45C147.698 649.049 147.114 648.849 146.319 648.849C145.675 648.849 145.109 649.021 144.622 649.364C144.135 649.708 143.756 650.159 143.483 650.718V659H141.496V647.377H143.376ZM160.402 655.917C160.402 655.38 160.198 654.965 159.79 654.671C159.389 654.37 158.684 654.112 157.674 653.897C156.671 653.683 155.873 653.425 155.278 653.124C154.691 652.823 154.254 652.465 153.968 652.05C153.688 651.634 153.549 651.14 153.549 650.567C153.549 649.615 153.95 648.809 154.752 648.15C155.561 647.492 156.592 647.162 157.846 647.162C159.163 647.162 160.23 647.502 161.047 648.183C161.87 648.863 162.282 649.733 162.282 650.793H160.284C160.284 650.249 160.051 649.78 159.586 649.386C159.128 648.992 158.548 648.795 157.846 648.795C157.122 648.795 156.557 648.952 156.148 649.268C155.74 649.583 155.536 649.994 155.536 650.503C155.536 650.983 155.726 651.344 156.105 651.588C156.485 651.831 157.169 652.064 158.157 652.286C159.153 652.508 159.958 652.773 160.574 653.081C161.19 653.389 161.645 653.761 161.938 654.198C162.239 654.628 162.39 655.154 162.39 655.777C162.39 656.816 161.974 657.65 161.144 658.28C160.313 658.903 159.235 659.215 157.91 659.215C156.979 659.215 156.156 659.05 155.439 658.721C154.723 658.391 154.161 657.933 153.753 657.346C153.352 656.751 153.151 656.11 153.151 655.423H155.139C155.174 656.089 155.439 656.619 155.934 657.013C156.435 657.399 157.094 657.593 157.91 657.593C158.662 657.593 159.264 657.442 159.715 657.142C160.173 656.834 160.402 656.425 160.402 655.917ZM170.017 654.8C170.017 654.048 170.224 653.357 170.64 652.727C171.062 652.096 171.864 651.362 173.046 650.524C172.351 649.679 171.886 648.999 171.649 648.483C171.413 647.968 171.295 647.456 171.295 646.947C171.295 645.758 171.646 644.827 172.348 644.154C173.049 643.481 174.002 643.145 175.205 643.145C176.279 643.145 177.167 643.46 177.869 644.09C178.571 644.713 178.922 645.501 178.922 646.453C178.922 647.083 178.761 647.667 178.438 648.204C178.123 648.734 177.568 649.293 176.773 649.88L175.624 650.729L179.104 654.886C179.591 653.955 179.835 652.92 179.835 651.781H181.629C181.629 653.607 181.188 655.122 180.308 656.325L182.542 659H180.157L179.115 657.765C178.585 658.237 177.962 658.599 177.246 658.85C176.537 659.093 175.814 659.215 175.076 659.215C173.551 659.215 172.326 658.81 171.402 658.001C170.479 657.192 170.017 656.125 170.017 654.8ZM175.076 657.593C176.129 657.593 177.092 657.192 177.966 656.39L174.152 651.824L173.798 652.082C172.602 652.963 172.004 653.869 172.004 654.8C172.004 655.645 172.276 656.322 172.82 656.83C173.372 657.339 174.124 657.593 175.076 657.593ZM173.282 646.883C173.282 647.57 173.705 648.43 174.55 649.461L175.817 648.569C176.304 648.226 176.637 647.9 176.816 647.592C176.995 647.277 177.085 646.897 177.085 646.453C177.085 645.973 176.906 645.576 176.548 645.261C176.19 644.938 175.739 644.777 175.194 644.777C174.607 644.777 174.142 644.978 173.798 645.379C173.454 645.773 173.282 646.274 173.282 646.883ZM201.91 659H199.837L191.963 646.947V659H189.89V643.359H191.963L199.858 655.466V643.359H201.91V659ZM212.438 659C212.323 658.771 212.23 658.363 212.158 657.775C211.234 658.735 210.132 659.215 208.85 659.215C207.704 659.215 206.762 658.893 206.024 658.248C205.294 657.596 204.929 656.773 204.929 655.777C204.929 654.567 205.387 653.629 206.304 652.963C207.228 652.29 208.524 651.953 210.192 651.953H212.126V651.04C212.126 650.345 211.918 649.794 211.503 649.386C211.088 648.97 210.475 648.763 209.666 648.763C208.957 648.763 208.363 648.942 207.883 649.3C207.403 649.658 207.163 650.091 207.163 650.6H205.165C205.165 650.02 205.369 649.461 205.777 648.924C206.193 648.38 206.751 647.95 207.453 647.635C208.162 647.32 208.939 647.162 209.784 647.162C211.123 647.162 212.173 647.499 212.932 648.172C213.691 648.838 214.085 649.758 214.113 650.933V656.282C214.113 657.349 214.249 658.198 214.521 658.828V659H212.438ZM209.14 657.485C209.763 657.485 210.354 657.324 210.912 657.002C211.471 656.68 211.875 656.261 212.126 655.745V653.36H210.568C208.133 653.36 206.916 654.073 206.916 655.498C206.916 656.121 207.124 656.608 207.539 656.959C207.954 657.31 208.488 657.485 209.14 657.485ZM227.047 653.317C227.047 655.086 226.642 656.511 225.833 657.593C225.024 658.674 223.928 659.215 222.546 659.215C221.135 659.215 220.025 658.767 219.216 657.872V663.469H217.229V647.377H219.044L219.141 648.666C219.95 647.663 221.074 647.162 222.514 647.162C223.91 647.162 225.013 647.688 225.822 648.741C226.639 649.794 227.047 651.258 227.047 653.135V653.317ZM225.06 653.092C225.06 651.781 224.78 650.746 224.222 649.987C223.663 649.228 222.897 648.849 221.923 648.849C220.72 648.849 219.817 649.382 219.216 650.449V656.003C219.81 657.063 220.72 657.593 221.944 657.593C222.897 657.593 223.652 657.217 224.211 656.465C224.777 655.706 225.06 654.581 225.06 653.092ZM232.826 653.618L231.58 654.918V659H229.593V642.5H231.58V652.479L232.644 651.201L236.264 647.377H238.681L234.158 652.232L239.207 659H236.876L232.826 653.618ZM242.892 659H240.904V647.377H242.892V659ZM240.743 644.294C240.743 643.972 240.84 643.7 241.033 643.478C241.234 643.256 241.527 643.145 241.914 643.145C242.301 643.145 242.594 643.256 242.795 643.478C242.995 643.7 243.096 643.972 243.096 644.294C243.096 644.616 242.995 644.885 242.795 645.1C242.594 645.314 242.301 645.422 241.914 645.422C241.527 645.422 241.234 645.314 241.033 645.1C240.84 644.885 240.743 644.616 240.743 644.294ZM247.962 647.377L248.026 648.838C248.914 647.721 250.075 647.162 251.507 647.162C253.963 647.162 255.202 648.548 255.224 651.319V659H253.236V651.309C253.229 650.471 253.036 649.851 252.656 649.45C252.284 649.049 251.7 648.849 250.905 648.849C250.261 648.849 249.695 649.021 249.208 649.364C248.721 649.708 248.341 650.159 248.069 650.718V659H246.082V647.377H247.962ZM264.988 655.917C264.988 655.38 264.784 654.965 264.376 654.671C263.975 654.37 263.27 654.112 262.26 653.897C261.257 653.683 260.459 653.425 259.864 653.124C259.277 652.823 258.84 652.465 258.554 652.05C258.274 651.634 258.135 651.14 258.135 650.567C258.135 649.615 258.536 648.809 259.338 648.15C260.147 647.492 261.178 647.162 262.432 647.162C263.749 647.162 264.816 647.502 265.633 648.183C266.456 648.863 266.868 649.733 266.868 650.793H264.87C264.87 650.249 264.637 649.78 264.172 649.386C263.714 648.992 263.133 648.795 262.432 648.795C261.708 648.795 261.143 648.952 260.734 649.268C260.326 649.583 260.122 649.994 260.122 650.503C260.122 650.983 260.312 651.344 260.691 651.588C261.071 651.831 261.755 652.064 262.743 652.286C263.739 652.508 264.544 652.773 265.16 653.081C265.776 653.389 266.231 653.761 266.524 654.198C266.825 654.628 266.976 655.154 266.976 655.777C266.976 656.816 266.56 657.65 265.729 658.28C264.899 658.903 263.821 659.215 262.496 659.215C261.565 659.215 260.742 659.05 260.025 658.721C259.309 658.391 258.747 657.933 258.339 657.346C257.938 656.751 257.737 656.11 257.737 655.423H259.725C259.76 656.089 260.025 656.619 260.52 657.013C261.021 657.399 261.68 657.593 262.496 657.593C263.248 657.593 263.85 657.442 264.301 657.142C264.759 656.834 264.988 656.425 264.988 655.917Z" fill="black"/>
<rect x="1.5" y="200.5" width="374" height="74" fill="white" stroke="black"/>
<path d="M111.836 245H109.763V237.771H101.878V245H99.8154V229.359H101.878V236.084H109.763V229.359H111.836V245ZM114.661 239.081C114.661 237.942 114.883 236.918 115.327 236.009C115.778 235.099 116.401 234.397 117.196 233.903C117.998 233.409 118.911 233.162 119.936 233.162C121.518 233.162 122.797 233.71 123.771 234.806C124.752 235.901 125.242 237.359 125.242 239.178V239.317C125.242 240.449 125.024 241.466 124.587 242.368C124.157 243.263 123.538 243.962 122.729 244.463C121.926 244.964 121.003 245.215 119.957 245.215C118.382 245.215 117.103 244.667 116.122 243.571C115.148 242.476 114.661 241.025 114.661 239.221V239.081ZM116.659 239.317C116.659 240.606 116.956 241.641 117.551 242.422C118.152 243.202 118.954 243.593 119.957 243.593C120.967 243.593 121.769 243.199 122.363 242.411C122.958 241.616 123.255 240.506 123.255 239.081C123.255 237.806 122.951 236.775 122.342 235.987C121.74 235.192 120.938 234.795 119.936 234.795C118.954 234.795 118.163 235.185 117.562 235.966C116.96 236.746 116.659 237.864 116.659 239.317ZM129.894 245H127.906V228.5H129.894V245ZM135.243 245H133.256V233.377H135.243V245ZM133.095 230.294C133.095 229.972 133.191 229.7 133.385 229.478C133.585 229.256 133.879 229.145 134.266 229.145C134.652 229.145 134.946 229.256 135.146 229.478C135.347 229.7 135.447 229.972 135.447 230.294C135.447 230.616 135.347 230.885 135.146 231.1C134.946 231.314 134.652 231.422 134.266 231.422C133.879 231.422 133.585 231.314 133.385 231.1C133.191 230.885 133.095 230.616 133.095 230.294ZM137.95 239.092C137.95 237.309 138.373 235.876 139.218 234.795C140.063 233.706 141.169 233.162 142.537 233.162C143.898 233.162 144.976 233.628 145.771 234.559V228.5H147.758V245H145.932L145.835 243.754C145.04 244.728 143.934 245.215 142.516 245.215C141.169 245.215 140.07 244.663 139.218 243.561C138.373 242.458 137.95 241.018 137.95 239.242V239.092ZM139.938 239.317C139.938 240.635 140.21 241.666 140.754 242.411C141.298 243.156 142.05 243.528 143.01 243.528C144.27 243.528 145.19 242.963 145.771 241.831V236.492C145.176 235.396 144.263 234.849 143.031 234.849C142.057 234.849 141.298 235.225 140.754 235.977C140.21 236.729 139.938 237.842 139.938 239.317ZM158.027 245C157.913 244.771 157.82 244.363 157.748 243.775C156.824 244.735 155.721 245.215 154.439 245.215C153.294 245.215 152.352 244.893 151.614 244.248C150.884 243.596 150.519 242.773 150.519 241.777C150.519 240.567 150.977 239.629 151.894 238.963C152.817 238.29 154.114 237.953 155.782 237.953H157.716V237.04C157.716 236.345 157.508 235.794 157.093 235.386C156.677 234.97 156.065 234.763 155.256 234.763C154.547 234.763 153.952 234.942 153.473 235.3C152.993 235.658 152.753 236.091 152.753 236.6H150.755C150.755 236.02 150.959 235.461 151.367 234.924C151.783 234.38 152.341 233.95 153.043 233.635C153.752 233.32 154.529 233.162 155.374 233.162C156.713 233.162 157.762 233.499 158.521 234.172C159.281 234.838 159.674 235.758 159.703 236.933V242.282C159.703 243.349 159.839 244.198 160.111 244.828V245H158.027ZM154.729 243.485C155.353 243.485 155.943 243.324 156.502 243.002C157.061 242.68 157.465 242.261 157.716 241.745V239.36H156.158C153.723 239.36 152.506 240.073 152.506 241.498C152.506 242.121 152.714 242.608 153.129 242.959C153.544 243.31 154.078 243.485 154.729 243.485ZM166.449 242.089L169.156 233.377H171.283L166.61 246.794C165.887 248.728 164.738 249.694 163.162 249.694L162.786 249.662L162.045 249.522V247.911L162.582 247.954C163.255 247.954 163.778 247.818 164.15 247.546C164.53 247.274 164.841 246.776 165.085 246.053L165.525 244.871L161.379 233.377H163.549L166.449 242.089ZM178.835 245V229.359H183.948C185.646 229.359 186.92 229.71 187.772 230.412C188.632 231.114 189.062 232.152 189.062 233.527C189.062 234.258 188.854 234.906 188.438 235.472C188.023 236.03 187.457 236.464 186.741 236.771C187.586 237.008 188.252 237.459 188.739 238.125C189.233 238.784 189.48 239.572 189.48 240.488C189.48 241.892 189.026 242.995 188.116 243.797C187.207 244.599 185.921 245 184.26 245H178.835ZM180.897 237.685V243.313H184.303C185.262 243.313 186.018 243.066 186.569 242.572C187.128 242.071 187.407 241.383 187.407 240.51C187.407 238.626 186.383 237.685 184.335 237.685H180.897ZM180.897 236.03H184.013C184.915 236.03 185.635 235.805 186.172 235.354C186.716 234.902 186.988 234.29 186.988 233.517C186.988 232.657 186.738 232.034 186.236 231.647C185.735 231.254 184.972 231.057 183.948 231.057H180.897V236.03ZM199.406 243.851C198.633 244.76 197.498 245.215 196.001 245.215C194.762 245.215 193.817 244.857 193.165 244.141C192.521 243.417 192.195 242.35 192.188 240.939V233.377H194.175V240.886C194.175 242.647 194.891 243.528 196.323 243.528C197.841 243.528 198.851 242.963 199.353 241.831V233.377H201.34V245H199.449L199.406 243.851ZM206.249 233.377L206.313 234.838C207.201 233.721 208.362 233.162 209.794 233.162C212.25 233.162 213.489 234.548 213.511 237.319V245H211.523V237.309C211.516 236.471 211.323 235.851 210.943 235.45C210.571 235.049 209.987 234.849 209.192 234.849C208.548 234.849 207.982 235.021 207.495 235.364C207.008 235.708 206.629 236.159 206.356 236.718V245H204.369V233.377H206.249ZM216.024 239.092C216.024 237.309 216.447 235.876 217.292 234.795C218.137 233.706 219.243 233.162 220.611 233.162C221.972 233.162 223.05 233.628 223.845 234.559V228.5H225.832V245H224.006L223.909 243.754C223.114 244.728 222.008 245.215 220.59 245.215C219.243 245.215 218.144 244.663 217.292 243.561C216.447 242.458 216.024 241.018 216.024 239.242V239.092ZM218.012 239.317C218.012 240.635 218.284 241.666 218.828 242.411C219.372 243.156 220.124 243.528 221.084 243.528C222.344 243.528 223.265 242.963 223.845 241.831V236.492C223.25 235.396 222.337 234.849 221.105 234.849C220.132 234.849 219.372 235.225 218.828 235.977C218.284 236.729 218.012 237.842 218.012 239.317ZM231.085 245H229.098V228.5H231.085V245ZM239.099 245.215C237.523 245.215 236.241 244.699 235.253 243.668C234.265 242.63 233.771 241.244 233.771 239.511V239.146C233.771 237.993 233.989 236.965 234.426 236.062C234.87 235.153 235.486 234.444 236.273 233.936C237.068 233.42 237.928 233.162 238.852 233.162C240.363 233.162 241.537 233.66 242.375 234.655C243.213 235.651 243.632 237.076 243.632 238.931V239.758H235.758C235.786 240.904 236.119 241.831 236.757 242.54C237.401 243.242 238.218 243.593 239.206 243.593C239.908 243.593 240.502 243.45 240.989 243.163C241.476 242.877 241.902 242.497 242.268 242.024L243.481 242.97C242.507 244.466 241.047 245.215 239.099 245.215ZM238.852 234.795C238.049 234.795 237.376 235.089 236.832 235.676C236.288 236.256 235.951 237.072 235.822 238.125H241.645V237.975C241.587 236.965 241.315 236.184 240.828 235.633C240.341 235.074 239.682 234.795 238.852 234.795ZM252.709 241.917C252.709 241.38 252.505 240.965 252.097 240.671C251.696 240.37 250.99 240.112 249.98 239.897C248.978 239.683 248.179 239.425 247.585 239.124C246.998 238.823 246.561 238.465 246.274 238.05C245.995 237.634 245.855 237.14 245.855 236.567C245.855 235.615 246.257 234.809 247.059 234.15C247.868 233.492 248.899 233.162 250.152 233.162C251.47 233.162 252.537 233.502 253.354 234.183C254.177 234.863 254.589 235.733 254.589 236.793H252.591C252.591 236.249 252.358 235.78 251.893 235.386C251.434 234.992 250.854 234.795 250.152 234.795C249.429 234.795 248.863 234.952 248.455 235.268C248.047 235.583 247.843 235.994 247.843 236.503C247.843 236.983 248.033 237.344 248.412 237.588C248.792 237.831 249.476 238.064 250.464 238.286C251.459 238.508 252.265 238.773 252.881 239.081C253.497 239.389 253.951 239.761 254.245 240.198C254.546 240.628 254.696 241.154 254.696 241.777C254.696 242.816 254.281 243.65 253.45 244.28C252.619 244.903 251.542 245.215 250.217 245.215C249.286 245.215 248.462 245.05 247.746 244.721C247.03 244.391 246.468 243.933 246.06 243.346C245.659 242.751 245.458 242.11 245.458 241.423H247.445C247.481 242.089 247.746 242.619 248.24 243.013C248.742 243.399 249.4 243.593 250.217 243.593C250.969 243.593 251.57 243.442 252.021 243.142C252.48 242.834 252.709 242.425 252.709 241.917Z" fill="black"/>
<path d="M21.5 207.5H80.5V266.5H21.5V207.5Z" fill="#C4C4C4" stroke="black"/>
<line x1="20.6464" y1="266.646" x2="80.6464" y2="206.646" stroke="black"/>
<line x1="21.3536" y1="206.646" x2="81.3536" y2="266.646" stroke="black"/>
<rect x="1.5" y="125.5" width="374" height="74" fill="white" stroke="black"/>
<path d="M111.32 165.037C111.127 166.691 110.515 167.97 109.483 168.872C108.459 169.767 107.095 170.215 105.391 170.215C103.543 170.215 102.061 169.552 100.943 168.228C99.8333 166.903 99.2783 165.13 99.2783 162.91V161.406C99.2783 159.952 99.5361 158.674 100.052 157.571C100.575 156.468 101.312 155.623 102.265 155.036C103.217 154.442 104.32 154.145 105.573 154.145C107.235 154.145 108.567 154.61 109.569 155.541C110.572 156.465 111.156 157.747 111.32 159.387H109.247C109.068 158.141 108.678 157.238 108.076 156.68C107.482 156.121 106.647 155.842 105.573 155.842C104.256 155.842 103.221 156.329 102.469 157.303C101.724 158.277 101.352 159.662 101.352 161.46V162.975C101.352 164.672 101.706 166.022 102.415 167.024C103.124 168.027 104.116 168.528 105.391 168.528C106.536 168.528 107.414 168.271 108.022 167.755C108.638 167.232 109.047 166.326 109.247 165.037H111.32ZM119.452 160.16C119.151 160.11 118.826 160.085 118.475 160.085C117.171 160.085 116.287 160.64 115.821 161.75V170H113.834V158.377H115.768L115.8 159.72C116.451 158.681 117.375 158.162 118.571 158.162C118.958 158.162 119.252 158.212 119.452 158.312V160.16ZM125.897 170.215C124.322 170.215 123.04 169.699 122.052 168.668C121.063 167.63 120.569 166.244 120.569 164.511V164.146C120.569 162.993 120.788 161.965 121.225 161.062C121.669 160.153 122.285 159.444 123.072 158.936C123.867 158.42 124.727 158.162 125.65 158.162C127.161 158.162 128.336 158.66 129.174 159.655C130.012 160.651 130.431 162.076 130.431 163.931V164.758H122.557C122.585 165.904 122.918 166.831 123.556 167.54C124.2 168.242 125.017 168.593 126.005 168.593C126.707 168.593 127.301 168.45 127.788 168.163C128.275 167.877 128.701 167.497 129.066 167.024L130.28 167.97C129.306 169.466 127.845 170.215 125.897 170.215ZM125.65 159.795C124.848 159.795 124.175 160.089 123.631 160.676C123.087 161.256 122.75 162.072 122.621 163.125H128.443V162.975C128.386 161.965 128.114 161.184 127.627 160.633C127.14 160.074 126.481 159.795 125.65 159.795ZM139.916 170C139.801 169.771 139.708 169.363 139.637 168.775C138.713 169.735 137.61 170.215 136.328 170.215C135.182 170.215 134.241 169.893 133.503 169.248C132.772 168.596 132.407 167.773 132.407 166.777C132.407 165.567 132.866 164.629 133.782 163.963C134.706 163.29 136.002 162.953 137.671 162.953H139.604V162.04C139.604 161.345 139.397 160.794 138.981 160.386C138.566 159.97 137.954 159.763 137.145 159.763C136.436 159.763 135.841 159.942 135.361 160.3C134.882 160.658 134.642 161.091 134.642 161.6H132.644C132.644 161.02 132.848 160.461 133.256 159.924C133.671 159.38 134.23 158.95 134.932 158.635C135.641 158.32 136.418 158.162 137.263 158.162C138.602 158.162 139.651 158.499 140.41 159.172C141.169 159.838 141.563 160.758 141.592 161.933V167.282C141.592 168.349 141.728 169.198 142 169.828V170H139.916ZM136.618 168.485C137.241 168.485 137.832 168.324 138.391 168.002C138.949 167.68 139.354 167.261 139.604 166.745V164.36H138.047C135.612 164.36 134.395 165.073 134.395 166.498C134.395 167.121 134.602 167.608 135.018 167.959C135.433 168.31 135.966 168.485 136.618 168.485ZM147.403 155.562V158.377H149.573V159.913H147.403V167.121C147.403 167.587 147.5 167.938 147.693 168.174C147.887 168.403 148.216 168.518 148.682 168.518C148.911 168.518 149.226 168.475 149.627 168.389V170C149.104 170.143 148.596 170.215 148.102 170.215C147.214 170.215 146.544 169.946 146.093 169.409C145.642 168.872 145.416 168.109 145.416 167.121V159.913H143.3V158.377H145.416V155.562H147.403ZM156.728 170.215C155.152 170.215 153.87 169.699 152.882 168.668C151.894 167.63 151.399 166.244 151.399 164.511V164.146C151.399 162.993 151.618 161.965 152.055 161.062C152.499 160.153 153.115 159.444 153.902 158.936C154.697 158.42 155.557 158.162 156.48 158.162C157.992 158.162 159.166 158.66 160.004 159.655C160.842 160.651 161.261 162.076 161.261 163.931V164.758H153.387C153.415 165.904 153.748 166.831 154.386 167.54C155.03 168.242 155.847 168.593 156.835 168.593C157.537 168.593 158.131 168.45 158.618 168.163C159.105 167.877 159.531 167.497 159.896 167.024L161.11 167.97C160.136 169.466 158.675 170.215 156.728 170.215ZM156.48 159.795C155.678 159.795 155.005 160.089 154.461 160.676C153.917 161.256 153.58 162.072 153.451 163.125H159.273V162.975C159.216 161.965 158.944 161.184 158.457 160.633C157.97 160.074 157.311 159.795 156.48 159.795ZM174.108 162.212L178.19 154.359H180.532L175.14 164.167V170H173.077V164.167L167.685 154.359H170.048L174.108 162.212ZM181.005 164.081C181.005 162.942 181.227 161.918 181.671 161.009C182.122 160.099 182.745 159.397 183.54 158.903C184.342 158.409 185.255 158.162 186.279 158.162C187.862 158.162 189.14 158.71 190.114 159.806C191.095 160.901 191.586 162.359 191.586 164.178V164.317C191.586 165.449 191.368 166.466 190.931 167.368C190.501 168.263 189.882 168.962 189.072 169.463C188.27 169.964 187.346 170.215 186.301 170.215C184.725 170.215 183.447 169.667 182.466 168.571C181.492 167.476 181.005 166.025 181.005 164.221V164.081ZM183.003 164.317C183.003 165.606 183.3 166.641 183.895 167.422C184.496 168.202 185.298 168.593 186.301 168.593C187.311 168.593 188.113 168.199 188.707 167.411C189.301 166.616 189.599 165.506 189.599 164.081C189.599 162.806 189.294 161.775 188.686 160.987C188.084 160.192 187.282 159.795 186.279 159.795C185.298 159.795 184.507 160.185 183.905 160.966C183.304 161.746 183.003 162.864 183.003 164.317ZM201.254 168.851C200.48 169.76 199.345 170.215 197.849 170.215C196.61 170.215 195.664 169.857 195.013 169.141C194.368 168.417 194.042 167.35 194.035 165.939V158.377H196.022V165.886C196.022 167.647 196.739 168.528 198.171 168.528C199.689 168.528 200.699 167.963 201.2 166.831V158.377H203.188V170H201.297L201.254 168.851ZM211.835 160.16C211.534 160.11 211.208 160.085 210.857 160.085C209.554 160.085 208.67 160.64 208.204 161.75V170H206.217V158.377H208.15L208.183 159.72C208.834 158.681 209.758 158.162 210.954 158.162C211.341 158.162 211.634 158.212 211.835 158.312V160.16ZM231.472 162.685C231.472 164.217 231.214 165.556 230.698 166.702C230.183 167.841 229.452 168.711 228.507 169.312C227.562 169.914 226.459 170.215 225.198 170.215C223.966 170.215 222.874 169.914 221.922 169.312C220.969 168.704 220.228 167.841 219.698 166.724C219.175 165.599 218.907 164.299 218.893 162.824V161.696C218.893 160.192 219.154 158.864 219.677 157.711C220.2 156.558 220.937 155.677 221.89 155.068C222.849 154.452 223.945 154.145 225.177 154.145C226.43 154.145 227.533 154.449 228.485 155.058C229.445 155.659 230.183 156.536 230.698 157.689C231.214 158.835 231.472 160.171 231.472 161.696V162.685ZM229.42 161.675C229.42 159.82 229.048 158.398 228.303 157.41C227.558 156.415 226.516 155.917 225.177 155.917C223.873 155.917 222.846 156.415 222.094 157.41C221.349 158.398 220.966 159.773 220.944 161.535V162.685C220.944 164.482 221.32 165.896 222.072 166.928C222.831 167.952 223.873 168.464 225.198 168.464C226.53 168.464 227.562 167.98 228.292 167.014C229.022 166.04 229.398 164.647 229.42 162.835V161.675ZM244.545 167.261L246.779 158.377H248.767L245.383 170H243.771L240.946 161.191L238.196 170H236.585L233.212 158.377H235.188L237.477 167.078L240.184 158.377H241.784L244.545 167.261ZM252.677 158.377L252.741 159.838C253.629 158.721 254.789 158.162 256.222 158.162C258.678 158.162 259.917 159.548 259.938 162.319V170H257.951V162.309C257.944 161.471 257.751 160.851 257.371 160.45C256.999 160.049 256.415 159.849 255.62 159.849C254.976 159.849 254.41 160.021 253.923 160.364C253.436 160.708 253.056 161.159 252.784 161.718V170H250.797V158.377H252.677ZM268.704 170V154.359H273.817C275.515 154.359 276.789 154.71 277.642 155.412C278.501 156.114 278.931 157.152 278.931 158.527C278.931 159.258 278.723 159.906 278.308 160.472C277.892 161.03 277.326 161.464 276.61 161.771C277.455 162.008 278.121 162.459 278.608 163.125C279.103 163.784 279.35 164.572 279.35 165.488C279.35 166.892 278.895 167.995 277.985 168.797C277.076 169.599 275.79 170 274.129 170H268.704ZM270.767 162.685V168.313H274.172C275.132 168.313 275.887 168.066 276.438 167.572C276.997 167.071 277.276 166.383 277.276 165.51C277.276 163.626 276.252 162.685 274.204 162.685H270.767ZM270.767 161.03H273.882C274.784 161.03 275.504 160.805 276.041 160.354C276.585 159.902 276.857 159.29 276.857 158.517C276.857 157.657 276.607 157.034 276.105 156.647C275.604 156.254 274.841 156.057 273.817 156.057H270.767V161.03ZM289.275 168.851C288.502 169.76 287.367 170.215 285.87 170.215C284.631 170.215 283.686 169.857 283.034 169.141C282.39 168.417 282.064 167.35 282.057 165.939V158.377H284.044V165.886C284.044 167.647 284.76 168.528 286.192 168.528C287.711 168.528 288.72 167.963 289.222 166.831V158.377H291.209V170H289.318L289.275 168.851ZM296.118 158.377L296.183 159.838C297.071 158.721 298.231 158.162 299.663 158.162C302.119 158.162 303.358 159.548 303.38 162.319V170H301.393V162.309C301.385 161.471 301.192 160.851 300.812 160.45C300.44 160.049 299.856 159.849 299.062 159.849C298.417 159.849 297.851 160.021 297.364 160.364C296.877 160.708 296.498 161.159 296.226 161.718V170H294.238V158.377H296.118ZM305.894 164.092C305.894 162.309 306.316 160.876 307.161 159.795C308.006 158.706 309.113 158.162 310.48 158.162C311.841 158.162 312.919 158.628 313.714 159.559V153.5H315.701V170H313.875L313.778 168.754C312.983 169.728 311.877 170.215 310.459 170.215C309.113 170.215 308.013 169.663 307.161 168.561C306.316 167.458 305.894 166.018 305.894 164.242V164.092ZM307.881 164.317C307.881 165.635 308.153 166.666 308.697 167.411C309.242 168.156 309.993 168.528 310.953 168.528C312.214 168.528 313.134 167.963 313.714 166.831V161.492C313.119 160.396 312.206 159.849 310.975 159.849C310.001 159.849 309.242 160.225 308.697 160.977C308.153 161.729 307.881 162.842 307.881 164.317ZM320.954 170H318.967V153.5H320.954V170ZM328.968 170.215C327.392 170.215 326.11 169.699 325.122 168.668C324.134 167.63 323.64 166.244 323.64 164.511V164.146C323.64 162.993 323.858 161.965 324.295 161.062C324.739 160.153 325.355 159.444 326.143 158.936C326.938 158.42 327.797 158.162 328.721 158.162C330.232 158.162 331.406 158.66 332.244 159.655C333.082 160.651 333.501 162.076 333.501 163.931V164.758H325.627C325.656 165.904 325.989 166.831 326.626 167.54C327.271 168.242 328.087 168.593 329.075 168.593C329.777 168.593 330.371 168.45 330.858 168.163C331.345 167.877 331.771 167.497 332.137 167.024L333.351 167.97C332.377 169.466 330.916 170.215 328.968 170.215ZM328.721 159.795C327.919 159.795 327.245 160.089 326.701 160.676C326.157 161.256 325.82 162.072 325.691 163.125H331.514V162.975C331.456 161.965 331.184 161.184 330.697 160.633C330.21 160.074 329.551 159.795 328.721 159.795Z" fill="black"/>
<rect x="21.5" y="132.5" width="59" height="59" fill="#C4C4C4" stroke="black"/>
<line x1="20.6464" y1="191.646" x2="80.6464" y2="131.646" stroke="black"/>
<line x1="21.3536" y1="131.646" x2="81.3536" y2="191.646" stroke="black"/>
<line x1="363.824" y1="161.969" x2="346.146" y2="179.646" stroke="black"/>
<line x1="363.824" y1="162.676" x2="346.146" y2="144.998" stroke="black"/>
<line x1="358.002" y1="236.324" x2="340.324" y2="254.002" stroke="black"/>
<line x1="358.002" y1="237.031" x2="340.324" y2="219.354" stroke="black"/>
<line x1="355.002" y1="467.324" x2="337.324" y2="485.002" stroke="black"/>
<line x1="355.002" y1="468.031" x2="337.324" y2="450.354" stroke="black"/>
<line x1="354.002" y1="554.324" x2="336.324" y2="572.002" stroke="black"/>
<line x1="354.002" y1="555.031" x2="336.324" y2="537.354" stroke="black"/>
<line x1="347.002" y1="650.324" x2="329.324" y2="668.002" stroke="black"/>
<line x1="347.002" y1="651.031" x2="329.324" y2="633.354" stroke="black"/>
<line x1="355.002" y1="366.324" x2="337.324" y2="384.002" stroke="black"/>
<line x1="355.002" y1="367.031" x2="337.324" y2="349.354" stroke="black"/>
<rect x="1" y="753" width="375" height="60" fill="#C4C4C4"/>
<line x1="80.5" y1="808" x2="80.5" y2="758" stroke="black"/>
<line x1="295.5" y1="808" x2="295.5" y2="758" stroke="black"/>
<path d="M320.751 804.435H317.772L317.104 806.29H316.137L318.852 799.181H319.672L322.392 806.29H321.43L320.751 804.435ZM318.056 803.663H320.473L319.262 800.338L318.056 803.663ZM325.326 805.651C325.648 805.651 325.93 805.553 326.171 805.358C326.412 805.162 326.545 804.918 326.571 804.625H327.426C327.41 804.928 327.305 805.216 327.113 805.49C326.921 805.763 326.664 805.981 326.342 806.144C326.023 806.307 325.684 806.388 325.326 806.388C324.607 806.388 324.034 806.149 323.607 805.67C323.184 805.188 322.973 804.531 322.973 803.698V803.546C322.973 803.032 323.067 802.574 323.256 802.174C323.445 801.774 323.715 801.463 324.066 801.241C324.421 801.02 324.84 800.909 325.321 800.909C325.914 800.909 326.405 801.087 326.796 801.442C327.19 801.796 327.4 802.257 327.426 802.824H326.571C326.545 802.482 326.415 802.202 326.181 801.984C325.95 801.762 325.663 801.652 325.321 801.652C324.862 801.652 324.506 801.818 324.252 802.15C324.001 802.478 323.876 802.955 323.876 803.58V803.751C323.876 804.36 324.001 804.829 324.252 805.158C324.503 805.486 324.861 805.651 325.326 805.651ZM330.561 805.651C330.883 805.651 331.164 805.553 331.405 805.358C331.646 805.162 331.78 804.918 331.806 804.625H332.66C332.644 804.928 332.54 805.216 332.348 805.49C332.156 805.763 331.898 805.981 331.576 806.144C331.257 806.307 330.919 806.388 330.561 806.388C329.841 806.388 329.268 806.149 328.842 805.67C328.419 805.188 328.207 804.531 328.207 803.698V803.546C328.207 803.032 328.301 802.574 328.49 802.174C328.679 801.774 328.949 801.463 329.301 801.241C329.656 801.02 330.074 800.909 330.556 800.909C331.148 800.909 331.64 801.087 332.03 801.442C332.424 801.796 332.634 802.257 332.66 802.824H331.806C331.78 802.482 331.649 802.202 331.415 801.984C331.184 801.762 330.897 801.652 330.556 801.652C330.097 801.652 329.74 801.818 329.486 802.15C329.236 802.478 329.11 802.955 329.11 803.58V803.751C329.11 804.36 329.236 804.829 329.486 805.158C329.737 805.486 330.095 805.651 330.561 805.651ZM333.437 803.6C333.437 803.082 333.537 802.617 333.739 802.203C333.944 801.79 334.228 801.471 334.589 801.246C334.953 801.022 335.368 800.909 335.834 800.909C336.553 800.909 337.134 801.158 337.577 801.657C338.023 802.155 338.246 802.817 338.246 803.644V803.707C338.246 804.222 338.147 804.684 337.948 805.094C337.753 805.501 337.471 805.818 337.104 806.046C336.739 806.274 336.319 806.388 335.844 806.388C335.128 806.388 334.547 806.139 334.101 805.641C333.658 805.143 333.437 804.484 333.437 803.663V803.6ZM334.345 803.707C334.345 804.293 334.48 804.764 334.75 805.118C335.023 805.473 335.388 805.651 335.844 805.651C336.303 805.651 336.667 805.472 336.938 805.114C337.208 804.752 337.343 804.248 337.343 803.6C337.343 803.02 337.204 802.552 336.928 802.194C336.654 801.832 336.29 801.652 335.834 801.652C335.388 801.652 335.028 801.829 334.755 802.184C334.481 802.539 334.345 803.046 334.345 803.707ZM342.641 805.768C342.289 806.181 341.773 806.388 341.093 806.388C340.53 806.388 340.1 806.225 339.804 805.9C339.511 805.571 339.363 805.086 339.359 804.445V801.007H340.263V804.42C340.263 805.221 340.588 805.621 341.239 805.621C341.929 805.621 342.388 805.364 342.616 804.85V801.007H343.52V806.29H342.66L342.641 805.768ZM345.751 801.007L345.78 801.671C346.184 801.163 346.711 800.909 347.362 800.909C348.479 800.909 349.042 801.539 349.052 802.799V806.29H348.148V802.794C348.145 802.413 348.057 802.132 347.885 801.949C347.715 801.767 347.45 801.676 347.089 801.676C346.796 801.676 346.539 801.754 346.317 801.91C346.096 802.067 345.924 802.272 345.8 802.526V806.29H344.896V801.007H345.751ZM351.64 799.728V801.007H352.626V801.705H351.64V804.982C351.64 805.193 351.684 805.353 351.771 805.46C351.859 805.564 352.009 805.616 352.221 805.616C352.325 805.616 352.468 805.597 352.65 805.558V806.29C352.413 806.355 352.182 806.388 351.957 806.388C351.553 806.388 351.249 806.266 351.044 806.022C350.839 805.778 350.736 805.431 350.736 804.982V801.705H349.774V801.007H350.736V799.728H351.64Z" fill="black"/>
<path d="M336 764.387C331.726 764.387 328.258 767.855 328.258 772.129C328.258 776.403 331.726 779.871 336 779.871C340.274 779.871 343.742 776.403 343.742 772.129C343.742 767.855 340.274 764.387 336 764.387ZM336 776C333.863 776 332.129 774.266 332.129 772.129C332.129 769.992 333.863 768.258 336 768.258C338.137 768.258 339.871 769.992 339.871 772.129C339.871 774.266 338.137 776 336 776ZM336 756.645C324.952 756.645 316 765.597 316 776.645C316 787.694 324.952 796.645 336 796.645C347.048 796.645 356 787.694 356 776.645C356 765.597 347.048 756.645 336 756.645ZM336 792.774C331.992 792.774 328.331 791.298 325.508 788.871C326.71 787.016 328.766 785.758 331.121 785.685C332.798 786.202 334.395 786.46 336 786.46C337.605 786.46 339.202 786.21 340.879 785.685C343.234 785.766 345.29 787.016 346.492 788.871C343.669 791.298 340.008 792.774 336 792.774ZM349.121 785.992C347.153 783.46 344.113 781.806 340.645 781.806C339.823 781.806 338.548 782.581 336 782.581C333.46 782.581 332.177 781.806 331.355 781.806C327.895 781.806 324.855 783.46 322.879 785.992C320.992 783.355 319.871 780.129 319.871 776.645C319.871 767.75 327.105 760.516 336 760.516C344.895 760.516 352.129 767.75 352.129 776.645C352.129 780.129 351.008 783.355 349.121 785.992Z" fill="black"/>
<g clip-path="url(#clip0_1_8)">
<path d="M271.675 785.925L274.958 771.48C275.195 770.438 274.402 769.444 273.333 769.444H246.056L245.42 766.333C245.261 765.557 244.578 765 243.787 765H236.667C235.746 765 235 765.746 235 766.667V767.778C235 768.698 235.746 769.444 236.667 769.444H241.52L246.398 793.294C245.231 793.965 244.444 795.224 244.444 796.667C244.444 798.814 246.186 800.556 248.333 800.556C250.481 800.556 252.222 798.814 252.222 796.667C252.222 795.578 251.775 794.595 251.054 793.889H265.613C264.892 794.595 264.444 795.578 264.444 796.667C264.444 798.814 266.186 800.556 268.333 800.556C270.481 800.556 272.222 798.814 272.222 796.667C272.222 795.127 271.327 793.796 270.029 793.166L270.412 791.48C270.649 790.438 269.857 789.444 268.787 789.444H250.147L249.693 787.222H270.05C270.828 787.222 271.503 786.684 271.675 785.925Z" fill="black"/>
</g>
<g clip-path="url(#clip1_1_8)">
<path d="M60.4531 797.586L52.6641 789.797C52.3125 789.445 51.8359 789.25 51.3359 789.25H50.0625C52.2187 786.492 53.5 783.023 53.5 779.25C53.5 770.273 46.2266 763 37.25 763C28.2734 763 21 770.273 21 779.25C21 788.227 28.2734 795.5 37.25 795.5C41.0234 795.5 44.4922 794.219 47.25 792.062V793.336C47.25 793.836 47.4453 794.312 47.7969 794.664L55.5859 802.453C56.3203 803.188 57.5078 803.188 58.2344 802.453L60.4453 800.242C61.1797 799.508 61.1797 798.32 60.4531 797.586ZM37.25 789.25C31.7266 789.25 27.25 784.781 27.25 779.25C27.25 773.727 31.7187 769.25 37.25 769.25C42.7734 769.25 47.25 773.719 47.25 779.25C47.25 784.773 42.7812 789.25 37.25 789.25Z" fill="black"/>
</g>
<path d="M102.429 766.786H139.571C140.36 766.786 141 766.146 141 765.357V761.786C141 760.997 140.36 760.357 139.571 760.357H102.429C101.64 760.357 101 760.997 101 761.786V765.357C101 766.146 101.64 766.786 102.429 766.786ZM102.429 781.071H139.571C140.36 781.071 141 780.432 141 779.643V776.071C141 775.282 140.36 774.643 139.571 774.643H102.429C101.64 774.643 101 775.282 101 776.071V779.643C101 780.432 101.64 781.071 102.429 781.071ZM102.429 795.357H139.571C140.36 795.357 141 794.718 141 793.929V790.357C141 789.568 140.36 788.929 139.571 788.929H102.429C101.64 788.929 101 789.568 101 790.357V793.929C101 794.718 101.64 795.357 102.429 795.357Z" fill="black"/>
<path d="M102.055 807.458C101.967 808.21 101.688 808.791 101.22 809.202C100.754 809.609 100.134 809.812 99.3594 809.812C98.5195 809.812 97.8457 809.511 97.3379 808.909C96.8333 808.306 96.5811 807.501 96.5811 806.492V805.808C96.5811 805.147 96.6982 804.566 96.9326 804.065C97.1702 803.564 97.5055 803.179 97.9385 802.913C98.3714 802.642 98.8727 802.507 99.4424 802.507C100.198 802.507 100.803 802.719 101.259 803.142C101.715 803.562 101.98 804.145 102.055 804.89H101.112C101.031 804.324 100.854 803.914 100.58 803.66C100.31 803.406 99.9307 803.279 99.4424 803.279C98.8434 803.279 98.373 803.5 98.0312 803.943C97.6927 804.386 97.5234 805.015 97.5234 805.832V806.521C97.5234 807.292 97.6846 807.906 98.0068 808.362C98.3291 808.817 98.7799 809.045 99.3594 809.045C99.8802 809.045 100.279 808.928 100.556 808.694C100.836 808.456 101.021 808.044 101.112 807.458H102.055ZM106.459 809.714C106.407 809.61 106.365 809.425 106.332 809.158C105.912 809.594 105.411 809.812 104.828 809.812C104.307 809.812 103.879 809.665 103.544 809.372C103.212 809.076 103.046 808.702 103.046 808.249C103.046 807.699 103.254 807.273 103.671 806.97C104.091 806.664 104.68 806.511 105.438 806.511H106.317V806.096C106.317 805.78 106.223 805.53 106.034 805.344C105.845 805.155 105.567 805.061 105.199 805.061C104.877 805.061 104.607 805.142 104.389 805.305C104.171 805.468 104.062 805.665 104.062 805.896H103.153C103.153 805.632 103.246 805.378 103.432 805.134C103.62 804.887 103.874 804.692 104.193 804.548C104.516 804.405 104.869 804.333 105.253 804.333C105.862 804.333 106.339 804.486 106.684 804.792C107.029 805.095 107.208 805.513 107.221 806.047V808.479C107.221 808.964 107.283 809.35 107.406 809.636V809.714H106.459ZM104.96 809.026C105.243 809.026 105.512 808.953 105.766 808.806C106.02 808.66 106.203 808.469 106.317 808.235V807.151H105.609C104.503 807.151 103.949 807.475 103.949 808.122C103.949 808.406 104.044 808.627 104.232 808.787C104.421 808.946 104.664 809.026 104.96 809.026ZM109.862 803.152V804.431H110.849V805.129H109.862V808.406C109.862 808.617 109.906 808.777 109.994 808.884C110.082 808.988 110.232 809.04 110.443 809.04C110.548 809.04 110.691 809.021 110.873 808.982V809.714C110.635 809.779 110.404 809.812 110.18 809.812C109.776 809.812 109.472 809.69 109.267 809.446C109.062 809.202 108.959 808.855 108.959 808.406V805.129H107.997V804.431H108.959V803.152H109.862ZM114.101 809.812C113.384 809.812 112.802 809.578 112.353 809.109C111.903 808.637 111.679 808.007 111.679 807.219V807.053C111.679 806.529 111.778 806.062 111.977 805.652C112.178 805.238 112.458 804.916 112.816 804.685C113.178 804.451 113.568 804.333 113.988 804.333C114.675 804.333 115.209 804.56 115.59 805.012C115.971 805.465 116.161 806.112 116.161 806.956V807.331H112.582C112.595 807.852 112.746 808.274 113.036 808.596C113.329 808.915 113.7 809.075 114.149 809.075C114.468 809.075 114.739 809.01 114.96 808.879C115.181 808.749 115.375 808.577 115.541 808.362L116.093 808.791C115.65 809.472 114.986 809.812 114.101 809.812ZM113.988 805.076C113.624 805.076 113.318 805.209 113.07 805.476C112.823 805.74 112.67 806.111 112.611 806.589H115.258V806.521C115.232 806.062 115.108 805.707 114.887 805.456C114.665 805.203 114.366 805.076 113.988 805.076ZM116.996 807.029C116.996 806.205 117.187 805.551 117.567 805.066C117.948 804.578 118.453 804.333 119.081 804.333C119.726 804.333 120.229 804.561 120.59 805.017L120.634 804.431H121.459V809.587C121.459 810.271 121.256 810.81 120.849 811.204C120.445 811.597 119.901 811.794 119.218 811.794C118.837 811.794 118.464 811.713 118.1 811.55C117.735 811.387 117.457 811.164 117.265 810.881L117.733 810.339C118.121 810.818 118.594 811.057 119.154 811.057C119.594 811.057 119.936 810.933 120.18 810.686C120.427 810.439 120.551 810.09 120.551 809.641V809.187C120.189 809.604 119.696 809.812 119.071 809.812C118.453 809.812 117.951 809.563 117.567 809.065C117.187 808.567 116.996 807.888 116.996 807.029ZM117.904 807.131C117.904 807.727 118.026 808.196 118.271 808.538C118.515 808.876 118.856 809.045 119.296 809.045C119.866 809.045 120.284 808.787 120.551 808.269V805.857C120.274 805.352 119.859 805.1 119.306 805.1C118.866 805.1 118.523 805.271 118.275 805.613C118.028 805.955 117.904 806.461 117.904 807.131ZM122.587 807.024C122.587 806.506 122.688 806.041 122.89 805.627C123.095 805.214 123.378 804.895 123.739 804.67C124.104 804.446 124.519 804.333 124.984 804.333C125.704 804.333 126.285 804.582 126.728 805.081C127.174 805.579 127.396 806.241 127.396 807.068V807.131C127.396 807.646 127.297 808.108 127.099 808.518C126.903 808.925 126.622 809.242 126.254 809.47C125.889 809.698 125.469 809.812 124.994 809.812C124.278 809.812 123.697 809.563 123.251 809.065C122.808 808.567 122.587 807.908 122.587 807.087V807.024ZM123.495 807.131C123.495 807.717 123.63 808.188 123.9 808.542C124.174 808.897 124.538 809.075 124.994 809.075C125.453 809.075 125.818 808.896 126.088 808.538C126.358 808.176 126.493 807.672 126.493 807.024C126.493 806.444 126.355 805.976 126.078 805.618C125.805 805.256 125.44 805.076 124.984 805.076C124.538 805.076 124.179 805.253 123.905 805.608C123.632 805.963 123.495 806.47 123.495 807.131ZM131.083 805.242C130.946 805.219 130.798 805.207 130.639 805.207C130.046 805.207 129.644 805.46 129.433 805.964V809.714H128.529V804.431H129.408L129.423 805.041C129.719 804.569 130.139 804.333 130.683 804.333C130.858 804.333 130.992 804.356 131.083 804.402V805.242ZM132.899 809.714H131.996V804.431H132.899V809.714ZM131.923 803.03C131.923 802.883 131.967 802.76 132.055 802.659C132.146 802.558 132.279 802.507 132.455 802.507C132.631 802.507 132.764 802.558 132.855 802.659C132.947 802.76 132.992 802.883 132.992 803.03C132.992 803.176 132.947 803.298 132.855 803.396C132.764 803.494 132.631 803.542 132.455 803.542C132.279 803.542 132.146 803.494 132.055 803.396C131.967 803.298 131.923 803.176 131.923 803.03ZM136.542 809.812C135.826 809.812 135.243 809.578 134.794 809.109C134.345 808.637 134.12 808.007 134.12 807.219V807.053C134.12 806.529 134.219 806.062 134.418 805.652C134.62 805.238 134.9 804.916 135.258 804.685C135.619 804.451 136.01 804.333 136.43 804.333C137.117 804.333 137.65 804.56 138.031 805.012C138.412 805.465 138.603 806.112 138.603 806.956V807.331H135.023C135.036 807.852 135.188 808.274 135.478 808.596C135.771 808.915 136.142 809.075 136.591 809.075C136.91 809.075 137.18 809.01 137.401 808.879C137.623 808.749 137.816 808.577 137.982 808.362L138.534 808.791C138.091 809.472 137.427 809.812 136.542 809.812ZM136.43 805.076C136.065 805.076 135.759 805.209 135.512 805.476C135.264 805.74 135.111 806.111 135.053 806.589H137.699V806.521C137.673 806.062 137.549 805.707 137.328 805.456C137.107 805.203 136.807 805.076 136.43 805.076ZM142.729 808.313C142.729 808.069 142.636 807.88 142.45 807.747C142.268 807.61 141.947 807.493 141.488 807.395C141.033 807.297 140.67 807.18 140.399 807.043C140.132 806.907 139.934 806.744 139.804 806.555C139.677 806.366 139.613 806.142 139.613 805.881C139.613 805.448 139.796 805.082 140.16 804.783C140.528 804.483 140.997 804.333 141.566 804.333C142.165 804.333 142.65 804.488 143.021 804.797C143.396 805.107 143.583 805.502 143.583 805.984H142.675C142.675 805.736 142.569 805.523 142.357 805.344C142.149 805.165 141.885 805.076 141.566 805.076C141.238 805.076 140.98 805.147 140.795 805.29C140.609 805.434 140.517 805.621 140.517 805.852C140.517 806.07 140.603 806.234 140.775 806.345C140.948 806.456 141.259 806.562 141.708 806.663C142.16 806.763 142.527 806.884 142.807 807.024C143.087 807.164 143.293 807.333 143.427 807.532C143.563 807.727 143.632 807.966 143.632 808.249C143.632 808.721 143.443 809.101 143.065 809.387C142.688 809.67 142.198 809.812 141.596 809.812C141.173 809.812 140.798 809.737 140.473 809.587C140.147 809.438 139.892 809.229 139.706 808.962C139.524 808.692 139.433 808.401 139.433 808.088H140.336C140.352 808.391 140.473 808.632 140.697 808.811C140.925 808.987 141.225 809.075 141.596 809.075C141.938 809.075 142.211 809.006 142.416 808.87C142.624 808.73 142.729 808.544 142.729 808.313Z" fill="black"/>
<circle cx="188.5" cy="759.5" r="37" fill="#C4C4C4" stroke="black"/>
<g clip-path="url(#clip2_1_8)">
<path d="M187.904 751.583L173.5 763.446V776.25C173.5 776.582 173.632 776.899 173.866 777.134C174.1 777.368 174.418 777.5 174.75 777.5L183.505 777.477C183.835 777.476 184.151 777.343 184.384 777.109C184.618 776.875 184.748 776.558 184.748 776.227V768.75C184.748 768.418 184.88 768.101 185.114 767.866C185.349 767.632 185.667 767.5 185.998 767.5H190.998C191.33 767.5 191.648 767.632 191.882 767.866C192.117 768.101 192.248 768.418 192.248 768.75V776.222C192.248 776.386 192.28 776.549 192.342 776.701C192.405 776.854 192.497 776.992 192.613 777.108C192.729 777.225 192.867 777.317 193.019 777.38C193.171 777.443 193.334 777.476 193.498 777.476L202.25 777.5C202.581 777.5 202.899 777.368 203.134 777.134C203.368 776.899 203.5 776.582 203.5 776.25V763.438L189.099 751.583C188.93 751.446 188.719 751.372 188.501 751.372C188.284 751.372 188.073 751.446 187.904 751.583ZM210.656 759.646L204.125 754.263V743.441C204.125 743.193 204.026 742.954 203.85 742.778C203.675 742.603 203.436 742.504 203.187 742.504H198.812C198.564 742.504 198.325 742.603 198.15 742.778C197.974 742.954 197.875 743.193 197.875 743.441V749.114L190.88 743.359C190.209 742.807 189.367 742.505 188.498 742.505C187.628 742.505 186.786 742.807 186.115 743.359L166.339 759.646C166.244 759.725 166.166 759.821 166.108 759.93C166.05 760.039 166.015 760.158 166.003 760.28C165.991 760.403 166.004 760.527 166.04 760.644C166.076 760.762 166.135 760.872 166.214 760.966L168.206 763.388C168.285 763.484 168.381 763.562 168.49 763.62C168.598 763.678 168.718 763.714 168.84 763.726C168.963 763.738 169.087 763.725 169.205 763.689C169.323 763.653 169.432 763.594 169.527 763.516L187.904 748.38C188.073 748.243 188.284 748.169 188.501 748.169C188.719 748.169 188.93 748.243 189.099 748.38L207.476 763.516C207.571 763.594 207.681 763.653 207.799 763.689C207.916 763.726 208.04 763.738 208.163 763.727C208.285 763.715 208.404 763.679 208.513 763.622C208.622 763.564 208.718 763.486 208.797 763.391L210.789 760.969C210.867 760.873 210.926 760.763 210.962 760.645C210.998 760.527 211.01 760.403 210.998 760.28C210.985 760.157 210.949 760.038 210.89 759.929C210.832 759.82 210.752 759.724 210.656 759.646Z" fill="black"/>
</g>
<rect x="0.5" y="0.5" width="376" height="813" stroke="black"/>
<defs>
<clipPath id="clip0_1_8">
<rect width="40" height="35.5556" fill="white" transform="translate(235 765)"/>
</clipPath>
<clipPath id="clip1_1_8">
<rect width="40" height="40" fill="white" transform="translate(21 763)"/>
</clipPath>
<clipPath id="clip2_1_8">
<rect width="45" height="40" fill="white" transform="translate(166 740)"/>
</clipPath>
</defs>
</svg>
