<svg width="377" height="814" viewBox="0 0 377 814" fill="none" xmlns="http://www.w3.org/2000/svg">
<g clip-path="url(#clip0_1_207)">
<rect x="1" y="1" width="375" height="812" fill="white"/>
<rect x="1" y="1" width="375" height="99" fill="#C4C4C4"/>
<rect x="99" y="27" width="180" height="46" fill="#E5E5E5"/>
<path d="M162.242 56.1602H170.328V58H159.98V40.9375H162.242V56.1602ZM185.246 50.0195C185.246 51.6914 184.965 53.1523 184.402 54.4023C183.84 55.6445 183.043 56.5938 182.012 57.25C180.98 57.9062 179.777 58.2344 178.402 58.2344C177.059 58.2344 175.867 57.9062 174.828 57.25C173.789 56.5859 172.98 55.6445 172.402 54.4258C171.832 53.1992 171.539 51.7812 171.523 50.1719V48.9414C171.523 47.3008 171.809 45.8516 172.379 44.5938C172.949 43.3359 173.754 42.375 174.793 41.7109C175.84 41.0391 177.035 40.7031 178.379 40.7031C179.746 40.7031 180.949 41.0352 181.988 41.6992C183.035 42.3555 183.84 43.3125 184.402 44.5703C184.965 45.8203 185.246 47.2773 185.246 48.9414V50.0195ZM183.008 48.918C183.008 46.8945 182.602 45.3438 181.789 44.2656C180.977 43.1797 179.84 42.6367 178.379 42.6367C176.957 42.6367 175.836 43.1797 175.016 44.2656C174.203 45.3438 173.785 46.8438 173.762 48.7656V50.0195C173.762 51.9805 174.172 53.5234 174.992 54.6484C175.82 55.7656 176.957 56.3242 178.402 56.3242C179.855 56.3242 180.98 55.7969 181.777 54.7422C182.574 53.6797 182.984 52.1602 183.008 50.1836V48.918ZM201.219 55.7617C200.641 56.5898 199.832 57.2109 198.793 57.625C197.762 58.0312 196.559 58.2344 195.184 58.2344C193.793 58.2344 192.559 57.9102 191.48 57.2617C190.402 56.6055 189.566 55.6758 188.973 54.4727C188.387 53.2695 188.086 51.875 188.07 50.2891V48.8008C188.07 46.2305 188.668 44.2383 189.863 42.8242C191.066 41.4102 192.754 40.7031 194.926 40.7031C196.707 40.7031 198.141 41.1602 199.227 42.0742C200.312 42.9805 200.977 44.2695 201.219 45.9414H198.969C198.547 43.6836 197.203 42.5547 194.938 42.5547C193.43 42.5547 192.285 43.0859 191.504 44.1484C190.73 45.2031 190.34 46.7344 190.332 48.7422V50.1367C190.332 52.0508 190.77 53.5742 191.645 54.707C192.52 55.832 193.703 56.3945 195.195 56.3945C196.039 56.3945 196.777 56.3008 197.41 56.1133C198.043 55.9258 198.566 55.6094 198.98 55.1641V51.332H195.031V49.5039H201.219V55.7617ZM218.105 50.0195C218.105 51.6914 217.824 53.1523 217.262 54.4023C216.699 55.6445 215.902 56.5938 214.871 57.25C213.84 57.9062 212.637 58.2344 211.262 58.2344C209.918 58.2344 208.727 57.9062 207.688 57.25C206.648 56.5859 205.84 55.6445 205.262 54.4258C204.691 53.1992 204.398 51.7812 204.383 50.1719V48.9414C204.383 47.3008 204.668 45.8516 205.238 44.5938C205.809 43.3359 206.613 42.375 207.652 41.7109C208.699 41.0391 209.895 40.7031 211.238 40.7031C212.605 40.7031 213.809 41.0352 214.848 41.6992C215.895 42.3555 216.699 43.3125 217.262 44.5703C217.824 45.8203 218.105 47.2773 218.105 48.9414V50.0195ZM215.867 48.918C215.867 46.8945 215.461 45.3438 214.648 44.2656C213.836 43.1797 212.699 42.6367 211.238 42.6367C209.816 42.6367 208.695 43.1797 207.875 44.2656C207.062 45.3438 206.645 46.8438 206.621 48.7656V50.0195C206.621 51.9805 207.031 53.5234 207.852 54.6484C208.68 55.7656 209.816 56.3242 211.262 56.3242C212.715 56.3242 213.84 55.7969 214.637 54.7422C215.434 53.6797 215.844 52.1602 215.867 50.1836V48.918Z" fill="black"/>
<path d="M127.145 155.562L136.441 178.766L145.738 155.562H150.602V184H146.852V172.926L147.203 160.973L137.867 184H134.996L125.68 161.031L126.051 172.926V184H122.301V155.562H127.145ZM163.57 178.707L168.492 162.867H172.359L163.863 187.262C162.548 190.777 160.458 192.535 157.594 192.535L156.91 192.477L155.562 192.223V189.293L156.539 189.371C157.763 189.371 158.714 189.124 159.391 188.629C160.081 188.134 160.647 187.229 161.09 185.914L161.891 183.766L154.352 162.867H158.297L163.57 178.707ZM207.008 174.977C206.656 177.984 205.543 180.309 203.668 181.949C201.806 183.577 199.326 184.391 196.227 184.391C192.867 184.391 190.172 183.186 188.141 180.777C186.122 178.368 185.113 175.146 185.113 171.109V168.375C185.113 165.732 185.582 163.408 186.52 161.402C187.47 159.397 188.811 157.861 190.543 156.793C192.275 155.712 194.28 155.172 196.559 155.172C199.579 155.172 202.001 156.018 203.824 157.711C205.647 159.391 206.708 161.721 207.008 164.703H203.238C202.913 162.438 202.203 160.797 201.109 159.781C200.029 158.766 198.512 158.258 196.559 158.258C194.163 158.258 192.281 159.143 190.914 160.914C189.56 162.685 188.883 165.204 188.883 168.473V171.227C188.883 174.312 189.527 176.767 190.816 178.59C192.105 180.413 193.909 181.324 196.227 181.324C198.31 181.324 199.905 180.855 201.012 179.918C202.132 178.967 202.874 177.32 203.238 174.977H207.008ZM224.625 184C224.417 183.583 224.247 182.841 224.117 181.773C222.438 183.518 220.432 184.391 218.102 184.391C216.018 184.391 214.306 183.805 212.965 182.633C211.637 181.448 210.973 179.951 210.973 178.141C210.973 175.94 211.806 174.234 213.473 173.023C215.152 171.799 217.509 171.188 220.543 171.188H224.059V169.527C224.059 168.264 223.681 167.262 222.926 166.52C222.171 165.764 221.057 165.387 219.586 165.387C218.297 165.387 217.216 165.712 216.344 166.363C215.471 167.014 215.035 167.802 215.035 168.727H211.402C211.402 167.672 211.773 166.656 212.516 165.68C213.271 164.69 214.286 163.909 215.562 163.336C216.852 162.763 218.264 162.477 219.801 162.477C222.236 162.477 224.143 163.089 225.523 164.312C226.904 165.523 227.62 167.197 227.672 169.332V179.059C227.672 180.999 227.919 182.542 228.414 183.688V184H224.625ZM218.629 181.246C219.762 181.246 220.836 180.953 221.852 180.367C222.867 179.781 223.603 179.02 224.059 178.082V173.746H221.227C216.799 173.746 214.586 175.042 214.586 177.633C214.586 178.766 214.964 179.651 215.719 180.289C216.474 180.927 217.444 181.246 218.629 181.246ZM243.551 166.109C243.004 166.018 242.411 165.973 241.773 165.973C239.404 165.973 237.796 166.982 236.949 169V184H233.336V162.867H236.852L236.91 165.309C238.095 163.421 239.775 162.477 241.949 162.477C242.652 162.477 243.186 162.568 243.551 162.75V166.109ZM252.77 157.75V162.867H256.715V165.66H252.77V178.766C252.77 179.612 252.945 180.25 253.297 180.68C253.648 181.096 254.247 181.305 255.094 181.305C255.51 181.305 256.083 181.227 256.812 181.07V184C255.862 184.26 254.938 184.391 254.039 184.391C252.424 184.391 251.207 183.902 250.387 182.926C249.566 181.949 249.156 180.562 249.156 178.766V165.66H245.309V162.867H249.156V157.75H252.77Z" fill="black"/>
<rect x="49.5" y="401.5" width="58" height="40" stroke="black"/>
<path d="M128.761 422.685C128.761 424.196 128.521 425.499 128.041 426.595C127.561 427.683 126.888 428.535 126.021 429.151L128.814 431.343L127.407 432.643L124.109 430.021C123.594 430.15 123.049 430.215 122.477 430.215C121.245 430.215 120.153 429.914 119.2 429.312C118.248 428.704 117.507 427.841 116.977 426.724C116.454 425.599 116.185 424.299 116.171 422.824V421.696C116.171 420.192 116.432 418.864 116.955 417.711C117.478 416.558 118.215 415.677 119.168 415.068C120.128 414.452 121.223 414.145 122.455 414.145C123.715 414.145 124.822 414.449 125.774 415.058C126.734 415.666 127.472 416.544 127.987 417.689C128.503 418.828 128.761 420.16 128.761 421.686V422.685ZM126.698 421.675C126.698 419.834 126.329 418.416 125.592 417.421C124.861 416.418 123.816 415.917 122.455 415.917C121.159 415.917 120.135 416.415 119.383 417.41C118.638 418.398 118.255 419.773 118.233 421.535V422.685C118.233 424.475 118.606 425.886 119.351 426.917C120.103 427.948 121.145 428.464 122.477 428.464C123.809 428.464 124.84 427.98 125.57 427.014C126.301 426.04 126.677 424.647 126.698 422.835V421.675ZM134.325 415.562V418.377H136.495V419.913H134.325V427.121C134.325 427.587 134.422 427.938 134.615 428.174C134.809 428.403 135.138 428.518 135.604 428.518C135.833 428.518 136.148 428.475 136.549 428.389V430C136.026 430.143 135.518 430.215 135.023 430.215C134.135 430.215 133.466 429.946 133.015 429.409C132.563 428.872 132.338 428.109 132.338 427.121V419.913H130.222V418.377H132.338V415.562H134.325ZM142.629 427.089L145.336 418.377H147.463L142.79 431.794C142.067 433.728 140.917 434.694 139.342 434.694L138.966 434.662L138.225 434.522V432.911L138.762 432.954C139.435 432.954 139.958 432.818 140.33 432.546C140.71 432.274 141.021 431.776 141.265 431.053L141.705 429.871L137.559 418.377H139.729L142.629 427.089Z" fill="black"/>
<path d="M95.501 426.001L90.7371 420.001L100.263 420L95.501 426.001Z" fill="black"/>
<path d="M72.8311 429H70.833V415.755L66.8262 417.227V415.422L72.5195 413.284H72.8311V429Z" fill="black"/>
<rect x="31" y="249" width="136" height="108" fill="#C4C4C4"/>
<path d="M202.32 306.037C202.127 307.691 201.515 308.97 200.483 309.872C199.459 310.767 198.095 311.215 196.391 311.215C194.543 311.215 193.061 310.552 191.943 309.228C190.833 307.903 190.278 306.13 190.278 303.91V302.406C190.278 300.952 190.536 299.674 191.052 298.571C191.575 297.468 192.312 296.623 193.265 296.036C194.217 295.442 195.32 295.145 196.573 295.145C198.235 295.145 199.567 295.61 200.569 296.541C201.572 297.465 202.156 298.747 202.32 300.387H200.247C200.068 299.141 199.678 298.238 199.076 297.68C198.482 297.121 197.647 296.842 196.573 296.842C195.256 296.842 194.221 297.329 193.469 298.303C192.724 299.277 192.352 300.662 192.352 302.46V303.975C192.352 305.672 192.706 307.022 193.415 308.024C194.124 309.027 195.116 309.528 196.391 309.528C197.536 309.528 198.414 309.271 199.022 308.755C199.638 308.232 200.047 307.326 200.247 306.037H202.32ZM206.821 300.784C207.702 299.703 208.848 299.162 210.259 299.162C212.715 299.162 213.954 300.548 213.976 303.319V311H211.988V303.309C211.981 302.471 211.788 301.851 211.408 301.45C211.036 301.049 210.452 300.849 209.657 300.849C209.013 300.849 208.447 301.021 207.96 301.364C207.473 301.708 207.093 302.159 206.821 302.718V311H204.834V294.5H206.821V300.784ZM222.569 301.16C222.269 301.11 221.943 301.085 221.592 301.085C220.288 301.085 219.404 301.64 218.938 302.75V311H216.951V299.377H218.885L218.917 300.72C219.569 299.681 220.493 299.162 221.688 299.162C222.075 299.162 222.369 299.212 222.569 299.312V301.16ZM226.565 311H224.578V299.377H226.565V311ZM224.417 296.294C224.417 295.972 224.514 295.7 224.707 295.478C224.908 295.256 225.201 295.145 225.588 295.145C225.975 295.145 226.268 295.256 226.469 295.478C226.669 295.7 226.77 295.972 226.77 296.294C226.77 296.616 226.669 296.885 226.469 297.1C226.268 297.314 225.975 297.422 225.588 297.422C225.201 297.422 224.908 297.314 224.707 297.1C224.514 296.885 224.417 296.616 224.417 296.294ZM236.932 311C236.817 310.771 236.724 310.363 236.652 309.775C235.729 310.735 234.626 311.215 233.344 311.215C232.198 311.215 231.256 310.893 230.519 310.248C229.788 309.596 229.423 308.773 229.423 307.777C229.423 306.567 229.881 305.629 230.798 304.963C231.722 304.29 233.018 303.953 234.687 303.953H236.62V303.04C236.62 302.345 236.412 301.794 235.997 301.386C235.582 300.97 234.969 300.763 234.16 300.763C233.451 300.763 232.857 300.942 232.377 301.3C231.897 301.658 231.657 302.091 231.657 302.6H229.659C229.659 302.02 229.863 301.461 230.271 300.924C230.687 300.38 231.245 299.95 231.947 299.635C232.656 299.32 233.433 299.162 234.278 299.162C235.618 299.162 236.667 299.499 237.426 300.172C238.185 300.838 238.579 301.758 238.607 302.933V308.282C238.607 309.349 238.743 310.198 239.016 310.828V311H236.932ZM233.634 309.485C234.257 309.485 234.848 309.324 235.406 309.002C235.965 308.68 236.369 308.261 236.62 307.745V305.36H235.062C232.628 305.36 231.41 306.073 231.41 307.498C231.41 308.121 231.618 308.608 232.033 308.959C232.449 309.31 232.982 309.485 233.634 309.485ZM244.419 296.562V299.377H246.589V300.913H244.419V308.121C244.419 308.587 244.516 308.938 244.709 309.174C244.902 309.403 245.232 309.518 245.697 309.518C245.926 309.518 246.242 309.475 246.643 309.389V311C246.12 311.143 245.611 311.215 245.117 311.215C244.229 311.215 243.56 310.946 243.108 310.409C242.657 309.872 242.432 309.109 242.432 308.121V300.913H240.315V299.377H242.432V296.562H244.419ZM250.789 299.377L250.843 300.666C251.695 299.663 252.844 299.162 254.291 299.162C255.917 299.162 257.023 299.785 257.61 301.031C257.997 300.473 258.498 300.021 259.114 299.678C259.737 299.334 260.471 299.162 261.316 299.162C263.866 299.162 265.162 300.512 265.205 303.212V311H263.218V303.33C263.218 302.499 263.028 301.88 262.648 301.472C262.269 301.056 261.632 300.849 260.736 300.849C259.999 300.849 259.386 301.071 258.899 301.515C258.412 301.951 258.13 302.542 258.051 303.287V311H256.053V303.384C256.053 301.694 255.226 300.849 253.571 300.849C252.268 300.849 251.376 301.404 250.896 302.514V311H248.909V299.377H250.789ZM275.389 311C275.274 310.771 275.181 310.363 275.109 309.775C274.186 310.735 273.083 311.215 271.801 311.215C270.655 311.215 269.713 310.893 268.976 310.248C268.245 309.596 267.88 308.773 267.88 307.777C267.88 306.567 268.338 305.629 269.255 304.963C270.179 304.29 271.475 303.953 273.144 303.953H275.077V303.04C275.077 302.345 274.869 301.794 274.454 301.386C274.039 300.97 273.426 300.763 272.617 300.763C271.908 300.763 271.314 300.942 270.834 301.3C270.354 301.658 270.114 302.091 270.114 302.6H268.116C268.116 302.02 268.32 301.461 268.729 300.924C269.144 300.38 269.702 299.95 270.404 299.635C271.113 299.32 271.89 299.162 272.735 299.162C274.075 299.162 275.124 299.499 275.883 300.172C276.642 300.838 277.036 301.758 277.064 302.933V308.282C277.064 309.349 277.201 310.198 277.473 310.828V311H275.389ZM272.091 309.485C272.714 309.485 273.305 309.324 273.863 309.002C274.422 308.68 274.826 308.261 275.077 307.745V305.36H273.52C271.085 305.36 269.867 306.073 269.867 307.498C269.867 308.121 270.075 308.608 270.49 308.959C270.906 309.31 271.439 309.485 272.091 309.485ZM286.947 307.917C286.947 307.38 286.743 306.965 286.335 306.671C285.934 306.37 285.229 306.112 284.219 305.897C283.216 305.683 282.418 305.425 281.823 305.124C281.236 304.823 280.799 304.465 280.513 304.05C280.233 303.634 280.094 303.14 280.094 302.567C280.094 301.615 280.495 300.809 281.297 300.15C282.106 299.492 283.137 299.162 284.391 299.162C285.708 299.162 286.775 299.502 287.592 300.183C288.415 300.863 288.827 301.733 288.827 302.793H286.829C286.829 302.249 286.596 301.78 286.131 301.386C285.673 300.992 285.092 300.795 284.391 300.795C283.667 300.795 283.102 300.952 282.693 301.268C282.285 301.583 282.081 301.994 282.081 302.503C282.081 302.983 282.271 303.344 282.65 303.588C283.03 303.831 283.714 304.064 284.702 304.286C285.698 304.508 286.503 304.773 287.119 305.081C287.735 305.389 288.19 305.761 288.483 306.198C288.784 306.628 288.935 307.154 288.935 307.777C288.935 308.816 288.519 309.65 287.688 310.28C286.858 310.903 285.78 311.215 284.455 311.215C283.524 311.215 282.701 311.05 281.984 310.721C281.268 310.391 280.706 309.933 280.298 309.346C279.897 308.751 279.696 308.11 279.696 307.423H281.684C281.719 308.089 281.984 308.619 282.479 309.013C282.98 309.399 283.639 309.593 284.455 309.593C285.207 309.593 285.809 309.442 286.26 309.142C286.718 308.834 286.947 308.425 286.947 307.917ZM297.292 311V295.359H302.405C304.103 295.359 305.377 295.71 306.229 296.412C307.089 297.114 307.519 298.152 307.519 299.527C307.519 300.258 307.311 300.906 306.896 301.472C306.48 302.03 305.914 302.464 305.198 302.771C306.043 303.008 306.709 303.459 307.196 304.125C307.69 304.784 307.938 305.572 307.938 306.488C307.938 307.892 307.483 308.995 306.573 309.797C305.664 310.599 304.378 311 302.717 311H297.292ZM299.354 303.685V309.313H302.76C303.719 309.313 304.475 309.066 305.026 308.572C305.585 308.071 305.864 307.383 305.864 306.51C305.864 304.626 304.84 303.685 302.792 303.685H299.354ZM299.354 302.03H302.47C303.372 302.03 304.092 301.805 304.629 301.354C305.173 300.902 305.445 300.29 305.445 299.517C305.445 298.657 305.195 298.034 304.693 297.647C304.192 297.254 303.429 297.057 302.405 297.057H299.354V302.03ZM317.863 309.851C317.09 310.76 315.955 311.215 314.458 311.215C313.219 311.215 312.274 310.857 311.622 310.141C310.978 309.417 310.652 308.35 310.645 306.939V299.377H312.632V306.886C312.632 308.647 313.348 309.528 314.78 309.528C316.299 309.528 317.308 308.963 317.81 307.831V299.377H319.797V311H317.906L317.863 309.851ZM324.706 299.377L324.771 300.838C325.659 299.721 326.819 299.162 328.251 299.162C330.707 299.162 331.946 300.548 331.968 303.319V311H329.98V303.309C329.973 302.471 329.78 301.851 329.4 301.45C329.028 301.049 328.444 300.849 327.649 300.849C327.005 300.849 326.439 301.021 325.952 301.364C325.465 301.708 325.086 302.159 324.813 302.718V311H322.826V299.377H324.706ZM334.481 305.092C334.481 303.309 334.904 301.876 335.749 300.795C336.594 299.706 337.701 299.162 339.068 299.162C340.429 299.162 341.507 299.628 342.302 300.559V294.5H344.289V311H342.463L342.366 309.754C341.571 310.728 340.465 311.215 339.047 311.215C337.701 311.215 336.601 310.663 335.749 309.561C334.904 308.458 334.481 307.018 334.481 305.242V305.092ZM336.469 305.317C336.469 306.635 336.741 307.666 337.285 308.411C337.829 309.156 338.581 309.528 339.541 309.528C340.801 309.528 341.722 308.963 342.302 307.831V302.492C341.707 301.396 340.794 300.849 339.562 300.849C338.589 300.849 337.829 301.225 337.285 301.977C336.741 302.729 336.469 303.842 336.469 305.317ZM349.542 311H347.555V294.5H349.542V311ZM357.556 311.215C355.98 311.215 354.698 310.699 353.71 309.668C352.722 308.63 352.228 307.244 352.228 305.511V305.146C352.228 303.993 352.446 302.965 352.883 302.062C353.327 301.153 353.943 300.444 354.73 299.936C355.525 299.42 356.385 299.162 357.309 299.162C358.82 299.162 359.994 299.66 360.832 300.655C361.67 301.651 362.089 303.076 362.089 304.931V305.758H354.215C354.243 306.904 354.576 307.831 355.214 308.54C355.858 309.242 356.675 309.593 357.663 309.593C358.365 309.593 358.959 309.45 359.446 309.163C359.933 308.877 360.359 308.497 360.725 308.024L361.938 308.97C360.965 310.466 359.504 311.215 357.556 311.215ZM357.309 300.795C356.507 300.795 355.833 301.089 355.289 301.676C354.745 302.256 354.408 303.072 354.279 304.125H360.102V303.975C360.044 302.965 359.772 302.184 359.285 301.633C358.798 301.074 358.139 300.795 357.309 300.795Z" fill="black"/>
<path d="M248.195 425.972C248.195 425.313 247.963 424.758 247.497 424.307C247.039 423.855 246.262 423.447 245.166 423.082C243.641 422.617 242.527 422.011 241.825 421.267C241.131 420.515 240.783 419.562 240.783 418.409C240.783 417.235 241.123 416.271 241.804 415.52C242.491 414.768 243.433 414.32 244.629 414.177V411.824H246.229V414.188C247.433 414.352 248.367 414.857 249.033 415.702C249.706 416.547 250.043 417.704 250.043 419.172H248.066C248.066 418.162 247.826 417.36 247.347 416.766C246.867 416.171 246.219 415.874 245.402 415.874C244.55 415.874 243.898 416.096 243.447 416.54C242.996 416.977 242.771 417.589 242.771 418.377C242.771 419.107 243.007 419.691 243.479 420.128C243.959 420.558 244.743 420.951 245.832 421.31C246.928 421.66 247.78 422.051 248.389 422.48C249.005 422.903 249.456 423.397 249.742 423.963C250.036 424.529 250.183 425.191 250.183 425.95C250.183 427.16 249.817 428.134 249.087 428.872C248.364 429.61 247.347 430.047 246.036 430.183V432.234H244.446V430.183C243.114 430.061 242.069 429.588 241.31 428.765C240.558 427.934 240.182 426.81 240.182 425.392H242.169C242.169 426.387 242.43 427.153 242.953 427.69C243.476 428.228 244.217 428.496 245.177 428.496C246.115 428.496 246.853 428.271 247.39 427.819C247.927 427.368 248.195 426.752 248.195 425.972ZM262.901 430H252.653V428.571L258.067 422.556C258.869 421.646 259.421 420.909 259.722 420.343C260.03 419.77 260.184 419.179 260.184 418.57C260.184 417.754 259.937 417.084 259.442 416.562C258.948 416.039 258.289 415.777 257.466 415.777C256.478 415.777 255.708 416.06 255.156 416.626C254.612 417.185 254.34 417.965 254.34 418.968H252.353C252.353 417.528 252.814 416.365 253.738 415.477C254.669 414.589 255.912 414.145 257.466 414.145C258.92 414.145 260.069 414.528 260.914 415.294C261.759 416.053 262.182 417.066 262.182 418.334C262.182 419.874 261.201 421.707 259.238 423.834L255.049 428.378H262.901V430ZM275.255 430H265.007V428.571L270.421 422.556C271.223 421.646 271.774 420.909 272.075 420.343C272.383 419.77 272.537 419.179 272.537 418.57C272.537 417.754 272.29 417.084 271.796 416.562C271.302 416.039 270.643 415.777 269.819 415.777C268.831 415.777 268.061 416.06 267.51 416.626C266.965 417.185 266.693 417.965 266.693 418.968H264.706C264.706 417.528 265.168 416.365 266.092 415.477C267.023 414.589 268.265 414.145 269.819 414.145C271.273 414.145 272.423 414.528 273.268 415.294C274.113 416.053 274.535 417.066 274.535 418.334C274.535 419.874 273.554 421.707 271.592 423.834L267.402 428.378H275.255V430ZM278.273 422.158L279.068 414.359H287.082V416.196H280.755L280.282 420.461C281.049 420.01 281.919 419.784 282.893 419.784C284.318 419.784 285.449 420.257 286.287 421.202C287.125 422.14 287.544 423.411 287.544 425.016C287.544 426.627 287.107 427.898 286.233 428.829C285.367 429.753 284.153 430.215 282.592 430.215C281.21 430.215 280.082 429.832 279.208 429.065C278.334 428.299 277.837 427.239 277.715 425.886H279.595C279.716 426.781 280.035 427.458 280.551 427.916C281.066 428.367 281.747 428.593 282.592 428.593C283.516 428.593 284.239 428.278 284.762 427.647C285.292 427.017 285.557 426.147 285.557 425.037C285.557 423.992 285.27 423.154 284.697 422.523C284.132 421.886 283.376 421.567 282.431 421.567C281.564 421.567 280.884 421.757 280.39 422.137L279.863 422.566L278.273 422.158ZM289.961 428.958C289.961 428.614 290.061 428.328 290.262 428.099C290.469 427.869 290.777 427.755 291.186 427.755C291.594 427.755 291.902 427.869 292.109 428.099C292.324 428.328 292.432 428.614 292.432 428.958C292.432 429.287 292.324 429.563 292.109 429.785C291.902 430.007 291.594 430.118 291.186 430.118C290.777 430.118 290.469 430.007 290.262 429.785C290.061 429.563 289.961 429.287 289.961 428.958ZM305.322 423.329C305.322 425.657 304.925 427.386 304.13 428.518C303.335 429.649 302.092 430.215 300.402 430.215C298.734 430.215 297.498 429.663 296.696 428.561C295.894 427.451 295.479 425.796 295.45 423.598V420.944C295.45 418.646 295.848 416.938 296.643 415.82C297.438 414.703 298.684 414.145 300.381 414.145C302.064 414.145 303.303 414.685 304.098 415.767C304.893 416.841 305.301 418.502 305.322 420.751V423.329ZM303.335 420.611C303.335 418.928 303.099 417.704 302.626 416.938C302.153 416.164 301.405 415.777 300.381 415.777C299.364 415.777 298.623 416.16 298.157 416.927C297.692 417.693 297.452 418.871 297.438 420.461V423.641C297.438 425.331 297.681 426.58 298.168 427.39C298.662 428.192 299.407 428.593 300.402 428.593C301.383 428.593 302.11 428.213 302.583 427.454C303.063 426.695 303.313 425.499 303.335 423.866V420.611ZM317.676 423.329C317.676 425.657 317.278 427.386 316.483 428.518C315.688 429.649 314.446 430.215 312.756 430.215C311.087 430.215 309.852 429.663 309.05 428.561C308.248 427.451 307.832 425.796 307.804 423.598V420.944C307.804 418.646 308.201 416.938 308.996 415.82C309.791 414.703 311.037 414.145 312.734 414.145C314.417 414.145 315.656 414.685 316.451 415.767C317.246 416.841 317.654 418.502 317.676 420.751V423.329ZM315.688 420.611C315.688 418.928 315.452 417.704 314.979 416.938C314.507 416.164 313.758 415.777 312.734 415.777C311.717 415.777 310.976 416.16 310.511 416.927C310.045 417.693 309.805 418.871 309.791 420.461V423.641C309.791 425.331 310.035 426.58 310.521 427.39C311.016 428.192 311.76 428.593 312.756 428.593C313.737 428.593 314.464 428.213 314.937 427.454C315.416 426.695 315.667 425.499 315.688 423.866V420.611Z" fill="black"/>
<rect x="86.5" y="506.5" width="210" height="47" fill="#C4C4C4" stroke="black"/>
<path d="M113.32 533.037C113.127 534.691 112.515 535.97 111.483 536.872C110.459 537.767 109.095 538.215 107.391 538.215C105.543 538.215 104.061 537.552 102.943 536.228C101.833 534.903 101.278 533.13 101.278 530.91V529.406C101.278 527.952 101.536 526.674 102.052 525.571C102.575 524.468 103.312 523.623 104.265 523.036C105.217 522.442 106.32 522.145 107.573 522.145C109.235 522.145 110.567 522.61 111.569 523.541C112.572 524.465 113.156 525.747 113.32 527.387H111.247C111.068 526.141 110.678 525.238 110.076 524.68C109.482 524.121 108.647 523.842 107.573 523.842C106.256 523.842 105.221 524.329 104.469 525.303C103.724 526.277 103.352 527.662 103.352 529.46V530.975C103.352 532.672 103.706 534.022 104.415 535.024C105.124 536.027 106.116 536.528 107.391 536.528C108.536 536.528 109.414 536.271 110.022 535.755C110.638 535.232 111.047 534.326 111.247 533.037H113.32ZM115.308 532.081C115.308 530.942 115.53 529.918 115.974 529.009C116.425 528.099 117.048 527.397 117.843 526.903C118.645 526.409 119.558 526.162 120.582 526.162C122.165 526.162 123.443 526.71 124.417 527.806C125.398 528.901 125.889 530.359 125.889 532.178V532.317C125.889 533.449 125.67 534.466 125.233 535.368C124.804 536.263 124.184 536.962 123.375 537.463C122.573 537.964 121.649 538.215 120.604 538.215C119.028 538.215 117.75 537.667 116.769 536.571C115.795 535.476 115.308 534.025 115.308 532.221V532.081ZM117.306 532.317C117.306 533.606 117.603 534.641 118.197 535.422C118.799 536.202 119.601 536.593 120.604 536.593C121.613 536.593 122.415 536.199 123.01 535.411C123.604 534.616 123.901 533.506 123.901 532.081C123.901 530.806 123.597 529.775 122.988 528.987C122.387 528.192 121.585 527.795 120.582 527.795C119.601 527.795 118.81 528.185 118.208 528.966C117.606 529.746 117.306 530.864 117.306 532.317ZM130.261 526.377L130.325 527.838C131.213 526.721 132.373 526.162 133.806 526.162C136.262 526.162 137.501 527.548 137.522 530.319V538H135.535V530.309C135.528 529.471 135.335 528.851 134.955 528.45C134.583 528.049 133.999 527.849 133.204 527.849C132.56 527.849 131.994 528.021 131.507 528.364C131.02 528.708 130.64 529.159 130.368 529.718V538H128.381V526.377H130.261ZM143.216 523.562V526.377H145.386V527.913H143.216V535.121C143.216 535.587 143.312 535.938 143.506 536.174C143.699 536.403 144.029 536.518 144.494 536.518C144.723 536.518 145.038 536.475 145.439 536.389V538C144.917 538.143 144.408 538.215 143.914 538.215C143.026 538.215 142.356 537.946 141.905 537.409C141.454 536.872 141.229 536.109 141.229 535.121V527.913H139.112V526.377H141.229V523.562H143.216ZM149.876 538H147.889V526.377H149.876V538ZM147.728 523.294C147.728 522.972 147.824 522.7 148.018 522.478C148.218 522.256 148.512 522.145 148.898 522.145C149.285 522.145 149.579 522.256 149.779 522.478C149.98 522.7 150.08 522.972 150.08 523.294C150.08 523.616 149.98 523.885 149.779 524.1C149.579 524.314 149.285 524.422 148.898 524.422C148.512 524.422 148.218 524.314 148.018 524.1C147.824 523.885 147.728 523.616 147.728 523.294ZM154.946 526.377L155.011 527.838C155.899 526.721 157.059 526.162 158.491 526.162C160.948 526.162 162.187 527.548 162.208 530.319V538H160.221V530.309C160.214 529.471 160.02 528.851 159.641 528.45C159.268 528.049 158.685 527.849 157.89 527.849C157.245 527.849 156.679 528.021 156.192 528.364C155.705 528.708 155.326 529.159 155.054 529.718V538H153.066V526.377H154.946ZM172.381 536.851C171.607 537.76 170.472 538.215 168.976 538.215C167.737 538.215 166.791 537.857 166.14 537.141C165.495 536.417 165.169 535.35 165.162 533.939V526.377H167.149V533.886C167.149 535.647 167.866 536.528 169.298 536.528C170.816 536.528 171.826 535.963 172.327 534.831V526.377H174.314V538H172.424L172.381 536.851ZM182.167 538.215C180.591 538.215 179.31 537.699 178.321 536.668C177.333 535.63 176.839 534.244 176.839 532.511V532.146C176.839 530.993 177.057 529.965 177.494 529.062C177.938 528.153 178.554 527.444 179.342 526.936C180.137 526.42 180.996 526.162 181.92 526.162C183.431 526.162 184.605 526.66 185.443 527.655C186.281 528.651 186.7 530.076 186.7 531.931V532.758H178.826C178.855 533.904 179.188 534.831 179.825 535.54C180.47 536.242 181.286 536.593 182.274 536.593C182.976 536.593 183.571 536.45 184.058 536.163C184.545 535.877 184.971 535.497 185.336 535.024L186.55 535.97C185.576 537.466 184.115 538.215 182.167 538.215ZM181.92 527.795C181.118 527.795 180.445 528.089 179.9 528.676C179.356 529.256 179.02 530.072 178.891 531.125H184.713V530.975C184.656 529.965 184.383 529.184 183.896 528.633C183.41 528.074 182.751 527.795 181.92 527.795ZM199.387 531.028C197.618 530.52 196.329 529.897 195.52 529.159C194.717 528.414 194.316 527.498 194.316 526.409C194.316 525.177 194.807 524.16 195.788 523.358C196.776 522.549 198.058 522.145 199.634 522.145C200.708 522.145 201.664 522.352 202.502 522.768C203.347 523.183 203.999 523.756 204.457 524.486C204.923 525.217 205.155 526.015 205.155 526.882H203.082C203.082 525.937 202.781 525.195 202.18 524.658C201.578 524.114 200.729 523.842 199.634 523.842C198.617 523.842 197.822 524.067 197.249 524.519C196.683 524.963 196.4 525.582 196.4 526.377C196.4 527.014 196.669 527.555 197.206 527.999C197.75 528.436 198.671 528.837 199.967 529.202C201.27 529.567 202.287 529.972 203.018 530.416C203.755 530.853 204.299 531.365 204.65 531.952C205.008 532.539 205.188 533.23 205.188 534.025C205.188 535.293 204.693 536.31 203.705 537.076C202.717 537.835 201.396 538.215 199.741 538.215C198.667 538.215 197.664 538.011 196.733 537.603C195.802 537.187 195.083 536.621 194.574 535.905C194.073 535.189 193.822 534.376 193.822 533.467H195.896C195.896 534.412 196.243 535.16 196.938 535.712C197.639 536.256 198.574 536.528 199.741 536.528C200.83 536.528 201.664 536.306 202.244 535.862C202.824 535.418 203.114 534.813 203.114 534.047C203.114 533.281 202.846 532.69 202.309 532.274C201.771 531.852 200.798 531.437 199.387 531.028ZM209.517 527.784C210.397 526.703 211.543 526.162 212.954 526.162C215.41 526.162 216.649 527.548 216.671 530.319V538H214.684V530.309C214.676 529.471 214.483 528.851 214.104 528.45C213.731 528.049 213.147 527.849 212.353 527.849C211.708 527.849 211.142 528.021 210.655 528.364C210.168 528.708 209.789 529.159 209.517 529.718V538H207.529V521.5H209.517V527.784ZM219.12 532.081C219.12 530.942 219.342 529.918 219.786 529.009C220.237 528.099 220.86 527.397 221.655 526.903C222.457 526.409 223.37 526.162 224.395 526.162C225.977 526.162 227.256 526.71 228.229 527.806C229.211 528.901 229.701 530.359 229.701 532.178V532.317C229.701 533.449 229.483 534.466 229.046 535.368C228.616 536.263 227.997 536.962 227.188 537.463C226.385 537.964 225.462 538.215 224.416 538.215C222.84 538.215 221.562 537.667 220.581 536.571C219.607 535.476 219.12 534.025 219.12 532.221V532.081ZM221.118 532.317C221.118 533.606 221.415 534.641 222.01 535.422C222.611 536.202 223.413 536.593 224.416 536.593C225.426 536.593 226.228 536.199 226.822 535.411C227.417 534.616 227.714 533.506 227.714 532.081C227.714 530.806 227.41 529.775 226.801 528.987C226.199 528.192 225.397 527.795 224.395 527.795C223.413 527.795 222.622 528.185 222.021 528.966C221.419 529.746 221.118 530.864 221.118 532.317ZM242.012 532.317C242.012 534.086 241.607 535.511 240.798 536.593C239.989 537.674 238.893 538.215 237.511 538.215C236.1 538.215 234.99 537.767 234.181 536.872V542.469H232.193V526.377H234.009L234.105 527.666C234.915 526.663 236.039 526.162 237.479 526.162C238.875 526.162 239.978 526.688 240.787 527.741C241.604 528.794 242.012 530.258 242.012 532.135V532.317ZM240.024 532.092C240.024 530.781 239.745 529.746 239.187 528.987C238.628 528.228 237.862 527.849 236.888 527.849C235.685 527.849 234.782 528.382 234.181 529.449V535.003C234.775 536.063 235.685 536.593 236.909 536.593C237.862 536.593 238.617 536.217 239.176 535.465C239.742 534.706 240.024 533.581 240.024 532.092ZM254.365 532.317C254.365 534.086 253.961 535.511 253.151 536.593C252.342 537.674 251.246 538.215 249.864 538.215C248.453 538.215 247.343 537.767 246.534 536.872V542.469H244.547V526.377H246.362L246.459 527.666C247.268 526.663 248.393 526.162 249.832 526.162C251.229 526.162 252.331 526.688 253.141 527.741C253.957 528.794 254.365 530.258 254.365 532.135V532.317ZM252.378 532.092C252.378 530.781 252.099 529.746 251.54 528.987C250.981 528.228 250.215 527.849 249.241 527.849C248.038 527.849 247.136 528.382 246.534 529.449V535.003C247.129 536.063 248.038 536.593 249.263 536.593C250.215 536.593 250.971 536.217 251.529 535.465C252.095 534.706 252.378 533.581 252.378 532.092ZM259.06 538H257.072V526.377H259.06V538ZM256.911 523.294C256.911 522.972 257.008 522.7 257.201 522.478C257.402 522.256 257.695 522.145 258.082 522.145C258.469 522.145 258.762 522.256 258.963 522.478C259.163 522.7 259.264 522.972 259.264 523.294C259.264 523.616 259.163 523.885 258.963 524.1C258.762 524.314 258.469 524.422 258.082 524.422C257.695 524.422 257.402 524.314 257.201 524.1C257.008 523.885 256.911 523.616 256.911 523.294ZM264.13 526.377L264.194 527.838C265.082 526.721 266.243 526.162 267.675 526.162C270.131 526.162 271.37 527.548 271.392 530.319V538H269.404V530.309C269.397 529.471 269.204 528.851 268.824 528.45C268.452 528.049 267.868 527.849 267.073 527.849C266.429 527.849 265.863 528.021 265.376 528.364C264.889 528.708 264.509 529.159 264.237 529.718V538H262.25V526.377H264.13ZM273.916 532.092C273.916 530.28 274.335 528.84 275.173 527.773C276.011 526.699 277.121 526.162 278.503 526.162C279.921 526.162 281.027 526.663 281.822 527.666L281.919 526.377H283.734V537.721C283.734 539.225 283.287 540.41 282.392 541.276C281.504 542.143 280.308 542.576 278.804 542.576C277.966 542.576 277.146 542.397 276.344 542.039C275.542 541.681 274.929 541.19 274.507 540.567L275.538 539.375C276.39 540.428 277.432 540.954 278.664 540.954C279.631 540.954 280.383 540.682 280.92 540.138C281.464 539.593 281.736 538.827 281.736 537.839V536.84C280.941 537.757 279.856 538.215 278.481 538.215C277.121 538.215 276.018 537.667 275.173 536.571C274.335 535.476 273.916 533.982 273.916 532.092ZM275.914 532.317C275.914 533.628 276.183 534.659 276.72 535.411C277.257 536.156 278.009 536.528 278.976 536.528C280.229 536.528 281.149 535.959 281.736 534.82V529.514C281.128 528.404 280.215 527.849 278.997 527.849C278.03 527.849 277.275 528.225 276.73 528.977C276.186 529.729 275.914 530.842 275.914 532.317Z" fill="black"/>
<rect x="128.5" y="611.5" width="120" height="47" fill="#C4C4C4" stroke="black"/>
<path d="M150.32 638.037C150.127 639.691 149.515 640.97 148.483 641.872C147.459 642.767 146.095 643.215 144.391 643.215C142.543 643.215 141.061 642.552 139.943 641.228C138.833 639.903 138.278 638.13 138.278 635.91V634.406C138.278 632.952 138.536 631.674 139.052 630.571C139.575 629.468 140.312 628.623 141.265 628.036C142.217 627.442 143.32 627.145 144.573 627.145C146.235 627.145 147.567 627.61 148.569 628.541C149.572 629.465 150.156 630.747 150.32 632.387H148.247C148.068 631.141 147.678 630.238 147.076 629.68C146.482 629.121 145.647 628.842 144.573 628.842C143.256 628.842 142.221 629.329 141.469 630.303C140.724 631.277 140.352 632.662 140.352 634.46V635.975C140.352 637.672 140.706 639.022 141.415 640.024C142.124 641.027 143.116 641.528 144.391 641.528C145.536 641.528 146.414 641.271 147.022 640.755C147.638 640.232 148.047 639.326 148.247 638.037H150.32ZM154.821 632.784C155.702 631.703 156.848 631.162 158.259 631.162C160.715 631.162 161.954 632.548 161.976 635.319V643H159.988V635.309C159.981 634.471 159.788 633.851 159.408 633.45C159.036 633.049 158.452 632.849 157.657 632.849C157.013 632.849 156.447 633.021 155.96 633.364C155.473 633.708 155.093 634.159 154.821 634.718V643H152.834V626.5H154.821V632.784ZM169.774 643.215C168.199 643.215 166.917 642.699 165.929 641.668C164.94 640.63 164.446 639.244 164.446 637.511V637.146C164.446 635.993 164.665 634.965 165.102 634.062C165.546 633.153 166.161 632.444 166.949 631.936C167.744 631.42 168.604 631.162 169.527 631.162C171.038 631.162 172.213 631.66 173.051 632.655C173.889 633.651 174.308 635.076 174.308 636.931V637.758H166.434C166.462 638.904 166.795 639.831 167.433 640.54C168.077 641.242 168.894 641.593 169.882 641.593C170.584 641.593 171.178 641.45 171.665 641.163C172.152 640.877 172.578 640.497 172.943 640.024L174.157 640.97C173.183 642.466 171.722 643.215 169.774 643.215ZM169.527 632.795C168.725 632.795 168.052 633.089 167.508 633.676C166.964 634.256 166.627 635.072 166.498 636.125H172.32V635.975C172.263 634.965 171.991 634.184 171.504 633.633C171.017 633.074 170.358 632.795 169.527 632.795ZM181.279 641.593C181.988 641.593 182.608 641.378 183.138 640.948C183.668 640.519 183.961 639.981 184.019 639.337H185.898C185.863 640.003 185.633 640.637 185.211 641.238C184.788 641.84 184.223 642.32 183.514 642.678C182.812 643.036 182.067 643.215 181.279 643.215C179.697 643.215 178.436 642.688 177.498 641.636C176.567 640.576 176.102 639.129 176.102 637.296V636.963C176.102 635.831 176.309 634.825 176.725 633.944C177.14 633.063 177.734 632.38 178.508 631.893C179.288 631.406 180.209 631.162 181.269 631.162C182.572 631.162 183.653 631.552 184.513 632.333C185.379 633.114 185.841 634.127 185.898 635.373H184.019C183.961 634.621 183.675 634.005 183.159 633.525C182.651 633.038 182.021 632.795 181.269 632.795C180.259 632.795 179.475 633.16 178.916 633.891C178.365 634.614 178.089 635.663 178.089 637.038V637.414C178.089 638.753 178.365 639.785 178.916 640.508C179.467 641.231 180.255 641.593 181.279 641.593ZM191.377 637.618L190.131 638.918V643H188.144V626.5H190.131V636.479L191.194 635.201L194.814 631.377H197.231L192.709 636.232L197.758 643H195.427L191.377 637.618ZM217.083 635.685C217.083 637.217 216.825 638.556 216.31 639.702C215.794 640.841 215.063 641.711 214.118 642.312C213.173 642.914 212.07 643.215 210.81 643.215C209.578 643.215 208.486 642.914 207.533 642.312C206.581 641.704 205.84 640.841 205.31 639.724C204.787 638.599 204.518 637.299 204.504 635.824V634.696C204.504 633.192 204.765 631.864 205.288 630.711C205.811 629.558 206.549 628.677 207.501 628.068C208.461 627.452 209.556 627.145 210.788 627.145C212.041 627.145 213.144 627.449 214.097 628.058C215.056 628.659 215.794 629.536 216.31 630.689C216.825 631.835 217.083 633.171 217.083 634.696V635.685ZM215.031 634.675C215.031 632.82 214.659 631.398 213.914 630.41C213.169 629.415 212.127 628.917 210.788 628.917C209.485 628.917 208.457 629.415 207.705 630.41C206.96 631.398 206.577 632.773 206.556 634.535V635.685C206.556 637.482 206.932 638.896 207.684 639.928C208.443 640.952 209.485 641.464 210.81 641.464C212.142 641.464 213.173 640.98 213.903 640.014C214.634 639.04 215.01 637.647 215.031 635.835V634.675ZM227.041 641.851C226.268 642.76 225.132 643.215 223.636 643.215C222.397 643.215 221.451 642.857 220.8 642.141C220.155 641.417 219.829 640.35 219.822 638.939V631.377H221.81V638.886C221.81 640.647 222.526 641.528 223.958 641.528C225.476 641.528 226.486 640.963 226.987 639.831V631.377H228.975V643H227.084L227.041 641.851ZM234.7 628.562V631.377H236.87V632.913H234.7V640.121C234.7 640.587 234.797 640.938 234.99 641.174C235.184 641.403 235.513 641.518 235.979 641.518C236.208 641.518 236.523 641.475 236.924 641.389V643C236.401 643.143 235.893 643.215 235.398 643.215C234.51 643.215 233.841 642.946 233.39 642.409C232.938 641.872 232.713 641.109 232.713 640.121V632.913H230.597V631.377H232.713V628.562H234.7Z" fill="black"/>
<rect x="1" y="753" width="375" height="60" fill="#C4C4C4"/>
<line x1="80.5" y1="808" x2="80.5" y2="758" stroke="black"/>
<line x1="295.5" y1="808" x2="295.5" y2="758" stroke="black"/>
<path d="M320.751 804.435H317.772L317.104 806.29H316.137L318.852 799.181H319.672L322.392 806.29H321.43L320.751 804.435ZM318.056 803.663H320.473L319.262 800.338L318.056 803.663ZM325.326 805.651C325.648 805.651 325.93 805.553 326.171 805.358C326.412 805.162 326.545 804.918 326.571 804.625H327.426C327.41 804.928 327.305 805.216 327.113 805.49C326.921 805.763 326.664 805.981 326.342 806.144C326.023 806.307 325.684 806.388 325.326 806.388C324.607 806.388 324.034 806.149 323.607 805.67C323.184 805.188 322.973 804.531 322.973 803.698V803.546C322.973 803.032 323.067 802.574 323.256 802.174C323.445 801.774 323.715 801.463 324.066 801.241C324.421 801.02 324.84 800.909 325.321 800.909C325.914 800.909 326.405 801.087 326.796 801.442C327.19 801.796 327.4 802.257 327.426 802.824H326.571C326.545 802.482 326.415 802.202 326.181 801.984C325.95 801.762 325.663 801.652 325.321 801.652C324.862 801.652 324.506 801.818 324.252 802.15C324.001 802.478 323.876 802.955 323.876 803.58V803.751C323.876 804.36 324.001 804.829 324.252 805.158C324.503 805.486 324.861 805.651 325.326 805.651ZM330.561 805.651C330.883 805.651 331.164 805.553 331.405 805.358C331.646 805.162 331.78 804.918 331.806 804.625H332.66C332.644 804.928 332.54 805.216 332.348 805.49C332.156 805.763 331.898 805.981 331.576 806.144C331.257 806.307 330.919 806.388 330.561 806.388C329.841 806.388 329.268 806.149 328.842 805.67C328.419 805.188 328.207 804.531 328.207 803.698V803.546C328.207 803.032 328.301 802.574 328.49 802.174C328.679 801.774 328.949 801.463 329.301 801.241C329.656 801.02 330.074 800.909 330.556 800.909C331.148 800.909 331.64 801.087 332.03 801.442C332.424 801.796 332.634 802.257 332.66 802.824H331.806C331.78 802.482 331.649 802.202 331.415 801.984C331.184 801.762 330.897 801.652 330.556 801.652C330.097 801.652 329.74 801.818 329.486 802.15C329.236 802.478 329.11 802.955 329.11 803.58V803.751C329.11 804.36 329.236 804.829 329.486 805.158C329.737 805.486 330.095 805.651 330.561 805.651ZM333.437 803.6C333.437 803.082 333.537 802.617 333.739 802.203C333.944 801.79 334.228 801.471 334.589 801.246C334.953 801.022 335.368 800.909 335.834 800.909C336.553 800.909 337.134 801.158 337.577 801.657C338.023 802.155 338.246 802.817 338.246 803.644V803.707C338.246 804.222 338.147 804.684 337.948 805.094C337.753 805.501 337.471 805.818 337.104 806.046C336.739 806.274 336.319 806.388 335.844 806.388C335.128 806.388 334.547 806.139 334.101 805.641C333.658 805.143 333.437 804.484 333.437 803.663V803.6ZM334.345 803.707C334.345 804.293 334.48 804.764 334.75 805.118C335.023 805.473 335.388 805.651 335.844 805.651C336.303 805.651 336.667 805.472 336.938 805.114C337.208 804.752 337.343 804.248 337.343 803.6C337.343 803.02 337.204 802.552 336.928 802.194C336.654 801.832 336.29 801.652 335.834 801.652C335.388 801.652 335.028 801.829 334.755 802.184C334.481 802.539 334.345 803.046 334.345 803.707ZM342.641 805.768C342.289 806.181 341.773 806.388 341.093 806.388C340.53 806.388 340.1 806.225 339.804 805.9C339.511 805.571 339.363 805.086 339.359 804.445V801.007H340.263V804.42C340.263 805.221 340.588 805.621 341.239 805.621C341.929 805.621 342.388 805.364 342.616 804.85V801.007H343.52V806.29H342.66L342.641 805.768ZM345.751 801.007L345.78 801.671C346.184 801.163 346.711 800.909 347.362 800.909C348.479 800.909 349.042 801.539 349.052 802.799V806.29H348.148V802.794C348.145 802.413 348.057 802.132 347.885 801.949C347.715 801.767 347.45 801.676 347.089 801.676C346.796 801.676 346.539 801.754 346.317 801.91C346.096 802.067 345.924 802.272 345.8 802.526V806.29H344.896V801.007H345.751ZM351.64 799.728V801.007H352.626V801.705H351.64V804.982C351.64 805.193 351.684 805.353 351.771 805.46C351.859 805.564 352.009 805.616 352.221 805.616C352.325 805.616 352.468 805.597 352.65 805.558V806.29C352.413 806.355 352.182 806.388 351.957 806.388C351.553 806.388 351.249 806.266 351.044 806.022C350.839 805.778 350.736 805.431 350.736 804.982V801.705H349.774V801.007H350.736V799.728H351.64Z" fill="black"/>
<path d="M336 764.387C331.726 764.387 328.258 767.855 328.258 772.129C328.258 776.403 331.726 779.871 336 779.871C340.274 779.871 343.742 776.403 343.742 772.129C343.742 767.855 340.274 764.387 336 764.387ZM336 776C333.863 776 332.129 774.266 332.129 772.129C332.129 769.992 333.863 768.258 336 768.258C338.137 768.258 339.871 769.992 339.871 772.129C339.871 774.266 338.137 776 336 776ZM336 756.645C324.952 756.645 316 765.597 316 776.645C316 787.694 324.952 796.645 336 796.645C347.048 796.645 356 787.694 356 776.645C356 765.597 347.048 756.645 336 756.645ZM336 792.774C331.992 792.774 328.331 791.298 325.508 788.871C326.71 787.016 328.766 785.758 331.121 785.685C332.798 786.202 334.395 786.46 336 786.46C337.605 786.46 339.202 786.21 340.879 785.685C343.234 785.766 345.29 787.016 346.492 788.871C343.669 791.298 340.008 792.774 336 792.774ZM349.121 785.992C347.153 783.46 344.113 781.806 340.645 781.806C339.823 781.806 338.548 782.581 336 782.581C333.46 782.581 332.177 781.806 331.355 781.806C327.895 781.806 324.855 783.46 322.879 785.992C320.992 783.355 319.871 780.129 319.871 776.645C319.871 767.75 327.105 760.516 336 760.516C344.895 760.516 352.129 767.75 352.129 776.645C352.129 780.129 351.008 783.355 349.121 785.992Z" fill="black"/>
<g clip-path="url(#clip1_1_207)">
<path d="M271.675 785.925L274.958 771.48C275.195 770.438 274.402 769.444 273.333 769.444H246.056L245.42 766.333C245.261 765.557 244.578 765 243.787 765H236.667C235.746 765 235 765.746 235 766.667V767.778C235 768.698 235.746 769.444 236.667 769.444H241.52L246.398 793.294C245.231 793.965 244.444 795.224 244.444 796.667C244.444 798.814 246.186 800.556 248.333 800.556C250.481 800.556 252.222 798.814 252.222 796.667C252.222 795.578 251.775 794.595 251.054 793.889H265.613C264.892 794.595 264.444 795.578 264.444 796.667C264.444 798.814 266.186 800.556 268.333 800.556C270.481 800.556 272.222 798.814 272.222 796.667C272.222 795.127 271.327 793.796 270.029 793.166L270.412 791.48C270.649 790.438 269.857 789.444 268.787 789.444H250.147L249.693 787.222H270.05C270.828 787.222 271.503 786.684 271.675 785.925Z" fill="black"/>
</g>
<g clip-path="url(#clip2_1_207)">
<path d="M60.4531 797.586L52.6641 789.797C52.3125 789.445 51.8359 789.25 51.3359 789.25H50.0625C52.2187 786.492 53.5 783.023 53.5 779.25C53.5 770.273 46.2266 763 37.25 763C28.2734 763 21 770.273 21 779.25C21 788.227 28.2734 795.5 37.25 795.5C41.0234 795.5 44.4922 794.219 47.25 792.062V793.336C47.25 793.836 47.4453 794.312 47.7969 794.664L55.5859 802.453C56.3203 803.188 57.5078 803.188 58.2344 802.453L60.4453 800.242C61.1797 799.508 61.1797 798.32 60.4531 797.586ZM37.25 789.25C31.7266 789.25 27.25 784.781 27.25 779.25C27.25 773.727 31.7187 769.25 37.25 769.25C42.7734 769.25 47.25 773.719 47.25 779.25C47.25 784.773 42.7812 789.25 37.25 789.25Z" fill="black"/>
</g>
<path d="M102.429 766.786H139.571C140.36 766.786 141 766.146 141 765.357V761.786C141 760.997 140.36 760.357 139.571 760.357H102.429C101.64 760.357 101 760.997 101 761.786V765.357C101 766.146 101.64 766.786 102.429 766.786ZM102.429 781.071H139.571C140.36 781.071 141 780.432 141 779.643V776.071C141 775.282 140.36 774.643 139.571 774.643H102.429C101.64 774.643 101 775.282 101 776.071V779.643C101 780.432 101.64 781.071 102.429 781.071ZM102.429 795.357H139.571C140.36 795.357 141 794.718 141 793.929V790.357C141 789.568 140.36 788.929 139.571 788.929H102.429C101.64 788.929 101 789.568 101 790.357V793.929C101 794.718 101.64 795.357 102.429 795.357Z" fill="black"/>
<path d="M102.055 807.458C101.967 808.21 101.688 808.791 101.22 809.202C100.754 809.609 100.134 809.812 99.3594 809.812C98.5195 809.812 97.8457 809.511 97.3379 808.909C96.8333 808.306 96.5811 807.501 96.5811 806.492V805.808C96.5811 805.147 96.6982 804.566 96.9326 804.065C97.1702 803.564 97.5055 803.179 97.9385 802.913C98.3714 802.642 98.8727 802.507 99.4424 802.507C100.198 802.507 100.803 802.719 101.259 803.142C101.715 803.562 101.98 804.145 102.055 804.89H101.112C101.031 804.324 100.854 803.914 100.58 803.66C100.31 803.406 99.9307 803.279 99.4424 803.279C98.8434 803.279 98.373 803.5 98.0312 803.943C97.6927 804.386 97.5234 805.015 97.5234 805.832V806.521C97.5234 807.292 97.6846 807.906 98.0068 808.362C98.3291 808.817 98.7799 809.045 99.3594 809.045C99.8802 809.045 100.279 808.928 100.556 808.694C100.836 808.456 101.021 808.044 101.112 807.458H102.055ZM106.459 809.714C106.407 809.61 106.365 809.425 106.332 809.158C105.912 809.594 105.411 809.812 104.828 809.812C104.307 809.812 103.879 809.665 103.544 809.372C103.212 809.076 103.046 808.702 103.046 808.249C103.046 807.699 103.254 807.273 103.671 806.97C104.091 806.664 104.68 806.511 105.438 806.511H106.317V806.096C106.317 805.78 106.223 805.53 106.034 805.344C105.845 805.155 105.567 805.061 105.199 805.061C104.877 805.061 104.607 805.142 104.389 805.305C104.171 805.468 104.062 805.665 104.062 805.896H103.153C103.153 805.632 103.246 805.378 103.432 805.134C103.62 804.887 103.874 804.692 104.193 804.548C104.516 804.405 104.869 804.333 105.253 804.333C105.862 804.333 106.339 804.486 106.684 804.792C107.029 805.095 107.208 805.513 107.221 806.047V808.479C107.221 808.964 107.283 809.35 107.406 809.636V809.714H106.459ZM104.96 809.026C105.243 809.026 105.512 808.953 105.766 808.806C106.02 808.66 106.203 808.469 106.317 808.235V807.151H105.609C104.503 807.151 103.949 807.475 103.949 808.122C103.949 808.406 104.044 808.627 104.232 808.787C104.421 808.946 104.664 809.026 104.96 809.026ZM109.862 803.152V804.431H110.849V805.129H109.862V808.406C109.862 808.617 109.906 808.777 109.994 808.884C110.082 808.988 110.232 809.04 110.443 809.04C110.548 809.04 110.691 809.021 110.873 808.982V809.714C110.635 809.779 110.404 809.812 110.18 809.812C109.776 809.812 109.472 809.69 109.267 809.446C109.062 809.202 108.959 808.855 108.959 808.406V805.129H107.997V804.431H108.959V803.152H109.862ZM114.101 809.812C113.384 809.812 112.802 809.578 112.353 809.109C111.903 808.637 111.679 808.007 111.679 807.219V807.053C111.679 806.529 111.778 806.062 111.977 805.652C112.178 805.238 112.458 804.916 112.816 804.685C113.178 804.451 113.568 804.333 113.988 804.333C114.675 804.333 115.209 804.56 115.59 805.012C115.971 805.465 116.161 806.112 116.161 806.956V807.331H112.582C112.595 807.852 112.746 808.274 113.036 808.596C113.329 808.915 113.7 809.075 114.149 809.075C114.468 809.075 114.739 809.01 114.96 808.879C115.181 808.749 115.375 808.577 115.541 808.362L116.093 808.791C115.65 809.472 114.986 809.812 114.101 809.812ZM113.988 805.076C113.624 805.076 113.318 805.209 113.07 805.476C112.823 805.74 112.67 806.111 112.611 806.589H115.258V806.521C115.232 806.062 115.108 805.707 114.887 805.456C114.665 805.203 114.366 805.076 113.988 805.076ZM116.996 807.029C116.996 806.205 117.187 805.551 117.567 805.066C117.948 804.578 118.453 804.333 119.081 804.333C119.726 804.333 120.229 804.561 120.59 805.017L120.634 804.431H121.459V809.587C121.459 810.271 121.256 810.81 120.849 811.204C120.445 811.597 119.901 811.794 119.218 811.794C118.837 811.794 118.464 811.713 118.1 811.55C117.735 811.387 117.457 811.164 117.265 810.881L117.733 810.339C118.121 810.818 118.594 811.057 119.154 811.057C119.594 811.057 119.936 810.933 120.18 810.686C120.427 810.439 120.551 810.09 120.551 809.641V809.187C120.189 809.604 119.696 809.812 119.071 809.812C118.453 809.812 117.951 809.563 117.567 809.065C117.187 808.567 116.996 807.888 116.996 807.029ZM117.904 807.131C117.904 807.727 118.026 808.196 118.271 808.538C118.515 808.876 118.856 809.045 119.296 809.045C119.866 809.045 120.284 808.787 120.551 808.269V805.857C120.274 805.352 119.859 805.1 119.306 805.1C118.866 805.1 118.523 805.271 118.275 805.613C118.028 805.955 117.904 806.461 117.904 807.131ZM122.587 807.024C122.587 806.506 122.688 806.041 122.89 805.627C123.095 805.214 123.378 804.895 123.739 804.67C124.104 804.446 124.519 804.333 124.984 804.333C125.704 804.333 126.285 804.582 126.728 805.081C127.174 805.579 127.396 806.241 127.396 807.068V807.131C127.396 807.646 127.297 808.108 127.099 808.518C126.903 808.925 126.622 809.242 126.254 809.47C125.889 809.698 125.469 809.812 124.994 809.812C124.278 809.812 123.697 809.563 123.251 809.065C122.808 808.567 122.587 807.908 122.587 807.087V807.024ZM123.495 807.131C123.495 807.717 123.63 808.188 123.9 808.542C124.174 808.897 124.538 809.075 124.994 809.075C125.453 809.075 125.818 808.896 126.088 808.538C126.358 808.176 126.493 807.672 126.493 807.024C126.493 806.444 126.355 805.976 126.078 805.618C125.805 805.256 125.44 805.076 124.984 805.076C124.538 805.076 124.179 805.253 123.905 805.608C123.632 805.963 123.495 806.47 123.495 807.131ZM131.083 805.242C130.946 805.219 130.798 805.207 130.639 805.207C130.046 805.207 129.644 805.46 129.433 805.964V809.714H128.529V804.431H129.408L129.423 805.041C129.719 804.569 130.139 804.333 130.683 804.333C130.858 804.333 130.992 804.356 131.083 804.402V805.242ZM132.899 809.714H131.996V804.431H132.899V809.714ZM131.923 803.03C131.923 802.883 131.967 802.76 132.055 802.659C132.146 802.558 132.279 802.507 132.455 802.507C132.631 802.507 132.764 802.558 132.855 802.659C132.947 802.76 132.992 802.883 132.992 803.03C132.992 803.176 132.947 803.298 132.855 803.396C132.764 803.494 132.631 803.542 132.455 803.542C132.279 803.542 132.146 803.494 132.055 803.396C131.967 803.298 131.923 803.176 131.923 803.03ZM136.542 809.812C135.826 809.812 135.243 809.578 134.794 809.109C134.345 808.637 134.12 808.007 134.12 807.219V807.053C134.12 806.529 134.219 806.062 134.418 805.652C134.62 805.238 134.9 804.916 135.258 804.685C135.619 804.451 136.01 804.333 136.43 804.333C137.117 804.333 137.65 804.56 138.031 805.012C138.412 805.465 138.603 806.112 138.603 806.956V807.331H135.023C135.036 807.852 135.188 808.274 135.478 808.596C135.771 808.915 136.142 809.075 136.591 809.075C136.91 809.075 137.18 809.01 137.401 808.879C137.623 808.749 137.816 808.577 137.982 808.362L138.534 808.791C138.091 809.472 137.427 809.812 136.542 809.812ZM136.43 805.076C136.065 805.076 135.759 805.209 135.512 805.476C135.264 805.74 135.111 806.111 135.053 806.589H137.699V806.521C137.673 806.062 137.549 805.707 137.328 805.456C137.107 805.203 136.807 805.076 136.43 805.076ZM142.729 808.313C142.729 808.069 142.636 807.88 142.45 807.747C142.268 807.61 141.947 807.493 141.488 807.395C141.033 807.297 140.67 807.18 140.399 807.043C140.132 806.907 139.934 806.744 139.804 806.555C139.677 806.366 139.613 806.142 139.613 805.881C139.613 805.448 139.796 805.082 140.16 804.783C140.528 804.483 140.997 804.333 141.566 804.333C142.165 804.333 142.65 804.488 143.021 804.797C143.396 805.107 143.583 805.502 143.583 805.984H142.675C142.675 805.736 142.569 805.523 142.357 805.344C142.149 805.165 141.885 805.076 141.566 805.076C141.238 805.076 140.98 805.147 140.795 805.29C140.609 805.434 140.517 805.621 140.517 805.852C140.517 806.07 140.603 806.234 140.775 806.345C140.948 806.456 141.259 806.562 141.708 806.663C142.16 806.763 142.527 806.884 142.807 807.024C143.087 807.164 143.293 807.333 143.427 807.532C143.563 807.727 143.632 807.966 143.632 808.249C143.632 808.721 143.443 809.101 143.065 809.387C142.688 809.67 142.198 809.812 141.596 809.812C141.173 809.812 140.798 809.737 140.473 809.587C140.147 809.438 139.892 809.229 139.706 808.962C139.524 808.692 139.433 808.401 139.433 808.088H140.336C140.352 808.391 140.473 808.632 140.697 808.811C140.925 808.987 141.225 809.075 141.596 809.075C141.938 809.075 142.211 809.006 142.416 808.87C142.624 808.73 142.729 808.544 142.729 808.313Z" fill="black"/>
<circle cx="188.5" cy="759.5" r="37" fill="#C4C4C4" stroke="black"/>
<g clip-path="url(#clip3_1_207)">
<path d="M187.904 751.583L173.5 763.446V776.25C173.5 776.582 173.632 776.899 173.866 777.134C174.101 777.368 174.418 777.5 174.75 777.5L183.505 777.477C183.835 777.476 184.151 777.343 184.385 777.109C184.618 776.875 184.748 776.558 184.748 776.227V768.75C184.748 768.418 184.88 768.101 185.115 767.866C185.349 767.632 185.667 767.5 185.998 767.5H190.998C191.33 767.5 191.648 767.632 191.882 767.866C192.117 768.101 192.248 768.418 192.248 768.75V776.222C192.248 776.386 192.28 776.549 192.342 776.701C192.405 776.854 192.497 776.992 192.613 777.108C192.729 777.225 192.867 777.317 193.019 777.38C193.171 777.443 193.334 777.476 193.498 777.476L202.25 777.5C202.581 777.5 202.899 777.368 203.134 777.134C203.368 776.899 203.5 776.582 203.5 776.25V763.438L189.099 751.583C188.93 751.446 188.719 751.372 188.502 751.372C188.284 751.372 188.073 751.446 187.904 751.583ZM210.656 759.646L204.125 754.263V743.441C204.125 743.193 204.026 742.954 203.85 742.778C203.675 742.603 203.436 742.504 203.187 742.504H198.812C198.564 742.504 198.325 742.603 198.15 742.778C197.974 742.954 197.875 743.193 197.875 743.441V749.114L190.88 743.359C190.209 742.807 189.367 742.505 188.498 742.505C187.628 742.505 186.786 742.807 186.115 743.359L166.339 759.646C166.244 759.725 166.166 759.821 166.108 759.93C166.05 760.039 166.015 760.158 166.003 760.28C165.991 760.403 166.004 760.527 166.04 760.644C166.076 760.762 166.136 760.872 166.214 760.966L168.206 763.388C168.285 763.484 168.381 763.562 168.49 763.62C168.598 763.678 168.718 763.714 168.84 763.726C168.963 763.738 169.087 763.725 169.205 763.689C169.323 763.653 169.432 763.594 169.527 763.516L187.904 748.38C188.073 748.243 188.284 748.169 188.502 748.169C188.719 748.169 188.93 748.243 189.099 748.38L207.477 763.516C207.571 763.594 207.681 763.653 207.799 763.689C207.916 763.726 208.04 763.738 208.163 763.727C208.285 763.715 208.404 763.679 208.513 763.622C208.622 763.564 208.718 763.486 208.797 763.391L210.789 760.969C210.867 760.873 210.926 760.763 210.962 760.645C210.998 760.527 211.01 760.403 210.998 760.28C210.985 760.157 210.949 760.038 210.89 759.929C210.832 759.82 210.752 759.724 210.656 759.646Z" fill="black"/>
</g>
<line x1="17.3536" y1="29.0312" x2="35.0312" y2="11.3535" stroke="black"/>
<line x1="17.3536" y1="28.3241" x2="35.0312" y2="46.0017" stroke="black"/>
</g>
<rect x="0.5" y="0.5" width="376" height="813" stroke="black"/>
<defs>
<clipPath id="clip0_1_207">
<rect x="1" y="1" width="375" height="812" fill="white"/>
</clipPath>
<clipPath id="clip1_1_207">
<rect width="40" height="35.5556" fill="white" transform="translate(235 765)"/>
</clipPath>
<clipPath id="clip2_1_207">
<rect width="40" height="40" fill="white" transform="translate(21 763)"/>
</clipPath>
<clipPath id="clip3_1_207">
<rect width="45" height="40" fill="white" transform="translate(166 740)"/>
</clipPath>
</defs>
</svg>
