<svg width="377" height="836" viewBox="0 0 377 836" fill="none" xmlns="http://www.w3.org/2000/svg">
<rect x="0.5" y="0.5" width="376" height="835" fill="white"/>
<rect x="15" y="204" width="346" height="308" fill="#C4C4C4"/>
<path d="M52.1758 274.699C52.1758 277.486 51.707 279.921 50.7695 282.004C49.832 284.074 48.5039 285.656 46.7852 286.75C45.0664 287.844 43.0612 288.391 40.7695 288.391C38.5299 288.391 36.5443 287.844 34.8125 286.75C33.0807 285.643 31.7331 284.074 30.7695 282.043C29.819 279.999 29.3307 277.635 29.3047 274.953V272.902C29.3047 270.168 29.7799 267.753 30.7305 265.656C31.681 263.56 33.0221 261.958 34.7539 260.852C36.4987 259.732 38.4909 259.172 40.7305 259.172C43.0091 259.172 45.0143 259.725 46.7461 260.832C48.4909 261.926 49.832 263.521 50.7695 265.617C51.707 267.701 52.1758 270.129 52.1758 272.902V274.699ZM48.4453 272.863C48.4453 269.491 47.7682 266.906 46.4141 265.109C45.0599 263.299 43.1654 262.395 40.7305 262.395C38.3607 262.395 36.4922 263.299 35.125 265.109C33.7708 266.906 33.0742 269.406 33.0352 272.609V274.699C33.0352 277.967 33.7188 280.539 35.0859 282.414C36.4661 284.276 38.3607 285.207 40.7695 285.207C43.1914 285.207 45.0664 284.328 46.3945 282.57C47.7227 280.799 48.4062 278.267 48.4453 274.973V272.863ZM67.4492 270.109C66.9023 270.018 66.3099 269.973 65.6719 269.973C63.3021 269.973 61.694 270.982 60.8477 273V288H57.2344V266.867H60.75L60.8086 269.309C61.9935 267.421 63.6732 266.477 65.8477 266.477C66.5508 266.477 67.0846 266.568 67.4492 266.75V270.109ZM69.5195 277.258C69.5195 274.016 70.2878 271.411 71.8242 269.445C73.3607 267.466 75.3724 266.477 77.8594 266.477C80.3333 266.477 82.293 267.323 83.7383 269.016V258H87.3516V288H84.0312L83.8555 285.734C82.4102 287.505 80.3984 288.391 77.8203 288.391C75.3724 288.391 73.3737 287.388 71.8242 285.383C70.2878 283.378 69.5195 280.76 69.5195 277.531V277.258ZM73.1328 277.668C73.1328 280.064 73.6276 281.939 74.6172 283.293C75.6068 284.647 76.974 285.324 78.7188 285.324C81.0104 285.324 82.6836 284.296 83.7383 282.238V272.531C82.6576 270.539 80.9974 269.543 78.7578 269.543C76.987 269.543 75.6068 270.227 74.6172 271.594C73.6276 272.961 73.1328 274.986 73.1328 277.668ZM101.746 288.391C98.8815 288.391 96.5508 287.453 94.7539 285.578C92.957 283.69 92.0586 281.171 92.0586 278.02V277.355C92.0586 275.259 92.4557 273.391 93.25 271.75C94.0573 270.096 95.1771 268.807 96.6094 267.883C98.0547 266.945 99.6172 266.477 101.297 266.477C104.044 266.477 106.18 267.382 107.703 269.191C109.227 271.001 109.988 273.592 109.988 276.965V278.469H95.6719C95.724 280.552 96.3294 282.238 97.4883 283.527C98.6602 284.803 100.145 285.441 101.941 285.441C103.217 285.441 104.298 285.181 105.184 284.66C106.069 284.139 106.844 283.449 107.508 282.59L109.715 284.309C107.944 287.03 105.288 288.391 101.746 288.391ZM101.297 269.445C99.8385 269.445 98.6146 269.979 97.625 271.047C96.6354 272.102 96.0234 273.586 95.7891 275.5H106.375V275.227C106.271 273.391 105.776 271.971 104.891 270.969C104.005 269.953 102.807 269.445 101.297 269.445ZM124.402 270.109C123.855 270.018 123.263 269.973 122.625 269.973C120.255 269.973 118.647 270.982 117.801 273V288H114.188V266.867H117.703L117.762 269.309C118.947 267.421 120.626 266.477 122.801 266.477C123.504 266.477 124.038 266.568 124.402 266.75V270.109ZM149.871 279.992H144.715L143.152 288H140.359L141.922 279.992H137.254V277.316H142.43L143.777 270.402H138.738V267.688H144.305L145.906 259.562H148.699L147.098 267.688H152.254L153.855 259.562H156.668L155.066 267.688H159.051V270.402H154.539L153.191 277.316H157.586V279.992H152.684L151.121 288H148.309L149.871 279.992ZM145.223 277.316H150.379L151.727 270.402H146.57L145.223 277.316ZM183.738 288H180.105V263.918L172.82 266.594V263.312L183.172 259.426H183.738V288ZM212.957 288H194.324V285.402L204.168 274.465C205.626 272.811 206.629 271.47 207.176 270.441C207.736 269.4 208.016 268.326 208.016 267.219C208.016 265.734 207.566 264.517 206.668 263.566C205.77 262.616 204.572 262.141 203.074 262.141C201.277 262.141 199.878 262.655 198.875 263.684C197.885 264.699 197.391 266.118 197.391 267.941H193.777C193.777 265.324 194.617 263.208 196.297 261.594C197.99 259.979 200.249 259.172 203.074 259.172C205.717 259.172 207.807 259.868 209.344 261.262C210.88 262.642 211.648 264.484 211.648 266.789C211.648 269.589 209.865 272.922 206.297 276.789L198.68 285.051H212.957V288ZM222.039 272.023H224.754C226.46 271.997 227.801 271.548 228.777 270.676C229.754 269.803 230.242 268.625 230.242 267.141C230.242 263.807 228.582 262.141 225.262 262.141C223.699 262.141 222.449 262.59 221.512 263.488C220.587 264.374 220.125 265.552 220.125 267.023H216.512C216.512 264.771 217.332 262.902 218.973 261.418C220.626 259.921 222.723 259.172 225.262 259.172C227.944 259.172 230.047 259.882 231.57 261.301C233.094 262.72 233.855 264.693 233.855 267.219C233.855 268.456 233.452 269.654 232.645 270.812C231.85 271.971 230.763 272.837 229.383 273.41C230.945 273.905 232.15 274.725 232.996 275.871C233.855 277.017 234.285 278.417 234.285 280.07C234.285 282.622 233.452 284.647 231.785 286.145C230.118 287.642 227.951 288.391 225.281 288.391C222.612 288.391 220.438 287.668 218.758 286.223C217.091 284.777 216.258 282.87 216.258 280.5H219.891C219.891 281.997 220.379 283.195 221.355 284.094C222.332 284.992 223.641 285.441 225.281 285.441C227.026 285.441 228.361 284.986 229.285 284.074C230.21 283.163 230.672 281.854 230.672 280.148C230.672 278.495 230.164 277.225 229.148 276.34C228.133 275.454 226.668 274.999 224.754 274.973H222.039V272.023ZM254.5 278.449H258.445V281.398H254.5V288H250.867V281.398H237.918V279.27L250.652 259.562H254.5V278.449ZM242.02 278.449H250.867V264.504L250.438 265.285L242.02 278.449ZM263.367 273.742L264.812 259.562H279.383V262.902H267.879L267.02 270.656C268.413 269.836 269.995 269.426 271.766 269.426C274.357 269.426 276.414 270.285 277.938 272.004C279.461 273.71 280.223 276.021 280.223 278.938C280.223 281.867 279.428 284.178 277.84 285.871C276.264 287.551 274.057 288.391 271.219 288.391C268.706 288.391 266.655 287.694 265.066 286.301C263.478 284.908 262.573 282.98 262.352 280.52H265.77C265.991 282.147 266.57 283.378 267.508 284.211C268.445 285.031 269.682 285.441 271.219 285.441C272.898 285.441 274.214 284.868 275.164 283.723C276.128 282.577 276.609 280.995 276.609 278.977C276.609 277.076 276.089 275.552 275.047 274.406C274.018 273.247 272.645 272.668 270.926 272.668C269.35 272.668 268.113 273.013 267.215 273.703L266.258 274.484L263.367 273.742ZM298.348 259.543V262.609H297.684C294.871 262.661 292.632 263.495 290.965 265.109C289.298 266.724 288.335 268.996 288.074 271.926C289.572 270.207 291.616 269.348 294.207 269.348C296.681 269.348 298.654 270.22 300.125 271.965C301.609 273.71 302.352 275.962 302.352 278.723C302.352 281.652 301.551 283.996 299.949 285.754C298.361 287.512 296.225 288.391 293.543 288.391C290.822 288.391 288.615 287.349 286.922 285.266C285.229 283.169 284.383 280.474 284.383 277.18V275.793C284.383 270.559 285.496 266.561 287.723 263.801C289.962 261.027 293.289 259.608 297.703 259.543H298.348ZM293.602 272.355C292.365 272.355 291.225 272.727 290.184 273.469C289.142 274.211 288.419 275.142 288.016 276.262V277.59C288.016 279.934 288.543 281.822 289.598 283.254C290.652 284.686 291.967 285.402 293.543 285.402C295.171 285.402 296.447 284.803 297.371 283.605C298.309 282.408 298.777 280.839 298.777 278.898C298.777 276.945 298.302 275.37 297.352 274.172C296.414 272.961 295.164 272.355 293.602 272.355ZM324.988 261.594L313.211 288H309.422L321.16 262.531H305.77V259.562H324.988V261.594ZM346.336 266.984C346.336 268.404 345.958 269.667 345.203 270.773C344.461 271.88 343.452 272.746 342.176 273.371C343.66 274.009 344.832 274.94 345.691 276.164C346.564 277.388 347 278.775 347 280.324C347 282.785 346.167 284.745 344.5 286.203C342.846 287.661 340.665 288.391 337.957 288.391C335.223 288.391 333.029 287.661 331.375 286.203C329.734 284.732 328.914 282.772 328.914 280.324C328.914 278.788 329.331 277.401 330.164 276.164C331.01 274.927 332.176 273.99 333.66 273.352C332.397 272.727 331.401 271.861 330.672 270.754C329.943 269.647 329.578 268.391 329.578 266.984C329.578 264.589 330.346 262.688 331.883 261.281C333.419 259.875 335.444 259.172 337.957 259.172C340.457 259.172 342.475 259.875 344.012 261.281C345.561 262.688 346.336 264.589 346.336 266.984ZM343.387 280.246C343.387 278.658 342.879 277.362 341.863 276.359C340.861 275.357 339.546 274.855 337.918 274.855C336.29 274.855 334.982 275.35 333.992 276.34C333.016 277.329 332.527 278.632 332.527 280.246C332.527 281.861 333.003 283.13 333.953 284.055C334.917 284.979 336.251 285.441 337.957 285.441C339.65 285.441 340.978 284.979 341.941 284.055C342.905 283.117 343.387 281.848 343.387 280.246ZM337.957 262.141C336.538 262.141 335.385 262.583 334.5 263.469C333.628 264.341 333.191 265.533 333.191 267.043C333.191 268.488 333.621 269.66 334.48 270.559C335.353 271.444 336.512 271.887 337.957 271.887C339.402 271.887 340.555 271.444 341.414 270.559C342.286 269.66 342.723 268.488 342.723 267.043C342.723 265.598 342.273 264.419 341.375 263.508C340.477 262.596 339.337 262.141 337.957 262.141Z" fill="black"/>
<path d="M94.0596 157.571C89.6374 156.3 86.4147 154.742 84.3916 152.898C82.3864 151.036 81.3838 148.744 81.3838 146.023C81.3838 142.944 82.6102 140.401 85.063 138.396C87.5337 136.373 90.7384 135.361 94.6772 135.361C97.3628 135.361 99.7529 135.881 101.848 136.919C103.96 137.957 105.59 139.39 106.735 141.216C107.899 143.042 108.481 145.038 108.481 147.205H103.298C103.298 144.841 102.546 142.988 101.042 141.646C99.5381 140.285 97.4165 139.604 94.6772 139.604C92.1349 139.604 90.1476 140.168 88.7153 141.296C87.3009 142.406 86.5938 143.955 86.5938 145.942C86.5938 147.536 87.2651 148.888 88.6079 149.998C89.9686 151.09 92.2692 152.092 95.5098 153.005C98.7682 153.918 101.311 154.93 103.137 156.04C104.981 157.132 106.341 158.412 107.219 159.88C108.114 161.348 108.562 163.076 108.562 165.063C108.562 168.232 107.326 170.775 104.855 172.69C102.385 174.588 99.0815 175.537 94.9458 175.537C92.2603 175.537 89.7537 175.027 87.4263 174.006C85.0988 172.968 83.2995 171.554 82.0283 169.763C80.7751 167.973 80.1484 165.941 80.1484 163.667H85.3315C85.3315 166.03 86.1999 167.901 87.9365 169.28C89.6911 170.64 92.0275 171.321 94.9458 171.321C97.6672 171.321 99.7529 170.766 101.203 169.656C102.653 168.546 103.378 167.033 103.378 165.117C103.378 163.201 102.707 161.724 101.364 160.686C100.021 159.63 97.5866 158.591 94.0596 157.571ZM132.355 172.126C130.422 174.4 127.584 175.537 123.842 175.537C120.745 175.537 118.382 174.642 116.752 172.852C115.141 171.043 114.326 168.376 114.309 164.849V145.942H119.277V164.714C119.277 169.119 121.067 171.321 124.648 171.321C128.444 171.321 130.968 169.906 132.221 167.078V145.942H137.189V175H132.463L132.355 172.126ZM156.418 171.482C158.19 171.482 159.739 170.945 161.064 169.871C162.389 168.796 163.123 167.454 163.266 165.842H167.966C167.876 167.507 167.303 169.092 166.247 170.596C165.191 172.1 163.776 173.299 162.004 174.194C160.249 175.09 158.387 175.537 156.418 175.537C152.461 175.537 149.31 174.221 146.965 171.589C144.637 168.94 143.474 165.323 143.474 160.74V159.907C143.474 157.078 143.993 154.563 145.031 152.361C146.07 150.159 147.556 148.449 149.489 147.231C151.441 146.014 153.741 145.405 156.391 145.405C159.65 145.405 162.353 146.381 164.501 148.333C166.668 150.284 167.823 152.817 167.966 155.933H163.266C163.123 154.053 162.407 152.513 161.118 151.313C159.847 150.096 158.271 149.487 156.391 149.487C153.867 149.487 151.906 150.4 150.51 152.227C149.131 154.035 148.442 156.658 148.442 160.095V161.035C148.442 164.383 149.131 166.961 150.51 168.77C151.888 170.578 153.858 171.482 156.418 171.482ZM185.207 171.482C186.979 171.482 188.528 170.945 189.853 169.871C191.178 168.796 191.912 167.454 192.055 165.842H196.755C196.665 167.507 196.092 169.092 195.036 170.596C193.98 172.1 192.565 173.299 190.793 174.194C189.038 175.09 187.176 175.537 185.207 175.537C181.25 175.537 178.099 174.221 175.754 171.589C173.426 168.94 172.263 165.323 172.263 160.74V159.907C172.263 157.078 172.782 154.563 173.82 152.361C174.859 150.159 176.345 148.449 178.278 147.231C180.23 146.014 182.53 145.405 185.18 145.405C188.439 145.405 191.142 146.381 193.291 148.333C195.457 150.284 196.612 152.817 196.755 155.933H192.055C191.912 154.053 191.196 152.513 189.907 151.313C188.636 150.096 187.06 149.487 185.18 149.487C182.656 149.487 180.695 150.4 179.299 152.227C177.92 154.035 177.231 156.658 177.231 160.095V161.035C177.231 164.383 177.92 166.961 179.299 168.77C180.677 170.578 182.647 171.482 185.207 171.482ZM214.399 175.537C210.46 175.537 207.255 174.248 204.785 171.67C202.314 169.074 201.079 165.61 201.079 161.277V160.364C201.079 157.481 201.625 154.912 202.717 152.656C203.827 150.382 205.367 148.61 207.336 147.339C209.323 146.05 211.472 145.405 213.781 145.405C217.559 145.405 220.495 146.65 222.59 149.138C224.685 151.627 225.732 155.19 225.732 159.827V161.895H206.047C206.118 164.759 206.951 167.078 208.544 168.85C210.156 170.605 212.197 171.482 214.667 171.482C216.422 171.482 217.908 171.124 219.125 170.408C220.343 169.692 221.408 168.743 222.321 167.561L225.356 169.924C222.921 173.666 219.269 175.537 214.399 175.537ZM213.781 149.487C211.776 149.487 210.093 150.221 208.732 151.689C207.372 153.14 206.53 155.181 206.208 157.812H220.764V157.437C220.62 154.912 219.94 152.961 218.723 151.582C217.505 150.186 215.858 149.487 213.781 149.487ZM248.425 167.292C248.425 165.95 247.915 164.911 246.894 164.177C245.891 163.425 244.128 162.781 241.604 162.244C239.097 161.707 237.101 161.062 235.615 160.31C234.147 159.558 233.055 158.663 232.338 157.625C231.64 156.586 231.291 155.351 231.291 153.918C231.291 151.537 232.294 149.523 234.299 147.876C236.322 146.229 238.9 145.405 242.033 145.405C245.327 145.405 247.995 146.256 250.036 147.957C252.095 149.657 253.125 151.833 253.125 154.482H248.129C248.129 153.122 247.548 151.949 246.384 150.964C245.238 149.98 243.788 149.487 242.033 149.487C240.225 149.487 238.811 149.881 237.79 150.669C236.77 151.457 236.259 152.486 236.259 153.757C236.259 154.957 236.734 155.861 237.683 156.47C238.632 157.078 240.341 157.66 242.812 158.215C245.301 158.77 247.315 159.433 248.854 160.203C250.394 160.972 251.531 161.903 252.265 162.996C253.017 164.07 253.393 165.386 253.393 166.943C253.393 169.539 252.355 171.625 250.278 173.201C248.201 174.758 245.507 175.537 242.194 175.537C239.867 175.537 237.808 175.125 236.018 174.302C234.227 173.478 232.822 172.332 231.801 170.864C230.799 169.378 230.297 167.776 230.297 166.057H235.266C235.355 167.722 236.018 169.047 237.253 170.032C238.506 170.999 240.153 171.482 242.194 171.482C244.074 171.482 245.578 171.106 246.706 170.354C247.852 169.584 248.425 168.564 248.425 167.292ZM276.784 167.292C276.784 165.95 276.274 164.911 275.253 164.177C274.251 163.425 272.487 162.781 269.963 162.244C267.456 161.707 265.46 161.062 263.974 160.31C262.506 159.558 261.414 158.663 260.698 157.625C260 156.586 259.65 155.351 259.65 153.918C259.65 151.537 260.653 149.523 262.658 147.876C264.681 146.229 267.259 145.405 270.393 145.405C273.687 145.405 276.354 146.256 278.396 147.957C280.454 149.657 281.484 151.833 281.484 154.482H276.489C276.489 153.122 275.907 151.949 274.743 150.964C273.597 149.98 272.147 149.487 270.393 149.487C268.584 149.487 267.17 149.881 266.149 150.669C265.129 151.457 264.619 152.486 264.619 153.757C264.619 154.957 265.093 155.861 266.042 156.47C266.991 157.078 268.701 157.66 271.171 158.215C273.66 158.77 275.674 159.433 277.214 160.203C278.754 160.972 279.89 161.903 280.625 162.996C281.376 164.07 281.752 165.386 281.752 166.943C281.752 169.539 280.714 171.625 278.637 173.201C276.56 174.758 273.866 175.537 270.554 175.537C268.226 175.537 266.167 175.125 264.377 174.302C262.587 173.478 261.181 172.332 260.161 170.864C259.158 169.378 258.657 167.776 258.657 166.057H263.625C263.715 167.722 264.377 169.047 265.612 170.032C266.866 170.999 268.513 171.482 270.554 171.482C272.434 171.482 273.938 171.106 275.065 170.354C276.211 169.584 276.784 168.564 276.784 167.292ZM293.784 163.962H289.299L288.95 135.898H294.16L293.784 163.962ZM288.762 172.502C288.762 171.697 289.003 171.025 289.487 170.488C289.988 169.933 290.722 169.656 291.689 169.656C292.656 169.656 293.39 169.933 293.891 170.488C294.392 171.025 294.643 171.697 294.643 172.502C294.643 173.308 294.392 173.979 293.891 174.517C293.39 175.036 292.656 175.295 291.689 175.295C290.722 175.295 289.988 175.036 289.487 174.517C289.003 173.979 288.762 173.308 288.762 172.502Z" fill="black"/>
<path d="M57.1494 354.66H51.7881L50.584 358H48.8438L53.7305 345.203H55.207L60.1025 358H58.3711L57.1494 354.66ZM52.2979 353.271H56.6484L54.4688 347.286L52.2979 353.271ZM63.1084 348.49L63.1611 349.686C63.8877 348.771 64.8369 348.314 66.0088 348.314C68.0186 348.314 69.0322 349.448 69.0498 351.716V358H67.4238V351.707C67.418 351.021 67.2598 350.515 66.9492 350.187C66.6445 349.858 66.167 349.694 65.5166 349.694C64.9893 349.694 64.5264 349.835 64.1279 350.116C63.7295 350.397 63.4189 350.767 63.1963 351.224V358H61.5703V348.49H63.1084ZM79.9131 358.176C78.624 358.176 77.5752 357.754 76.7666 356.91C75.958 356.061 75.5537 354.927 75.5537 353.509V353.21C75.5537 352.267 75.7324 351.426 76.0898 350.688C76.4531 349.943 76.957 349.363 77.6016 348.947C78.252 348.525 78.9551 348.314 79.7109 348.314C80.9473 348.314 81.9082 348.722 82.5938 349.536C83.2793 350.351 83.6221 351.517 83.6221 353.034V353.711H77.1797C77.2031 354.648 77.4756 355.407 77.9971 355.987C78.5244 356.562 79.1924 356.849 80.001 356.849C80.5752 356.849 81.0615 356.731 81.46 356.497C81.8584 356.263 82.207 355.952 82.5059 355.565L83.499 356.339C82.7021 357.563 81.5068 358.176 79.9131 358.176ZM79.7109 349.65C79.0547 349.65 78.5039 349.891 78.0586 350.371C77.6133 350.846 77.3379 351.514 77.2324 352.375H81.9961V352.252C81.9492 351.426 81.7266 350.787 81.3281 350.336C80.9297 349.879 80.3906 349.65 79.7109 349.65ZM88.8955 353.228H84.6064V351.9H88.8955V353.228ZM92.0156 348.49L92.0596 349.545C92.7568 348.725 93.6973 348.314 94.8809 348.314C96.2109 348.314 97.1162 348.824 97.5967 349.844C97.9131 349.387 98.3232 349.018 98.8271 348.736C99.3369 348.455 99.9375 348.314 100.629 348.314C102.715 348.314 103.775 349.419 103.811 351.628V358H102.185V351.725C102.185 351.045 102.029 350.538 101.719 350.204C101.408 349.864 100.887 349.694 100.154 349.694C99.5508 349.694 99.0498 349.876 98.6514 350.239C98.2529 350.597 98.0215 351.08 97.957 351.689V358H96.3223V351.769C96.3223 350.386 95.6455 349.694 94.292 349.694C93.2256 349.694 92.4961 350.148 92.1035 351.057V358H90.4775V348.49H92.0156ZM112.143 358C112.049 357.812 111.973 357.479 111.914 356.998C111.158 357.783 110.256 358.176 109.207 358.176C108.27 358.176 107.499 357.912 106.896 357.385C106.298 356.852 105.999 356.178 105.999 355.363C105.999 354.373 106.374 353.605 107.124 353.061C107.88 352.51 108.94 352.234 110.306 352.234H111.888V351.487C111.888 350.919 111.718 350.468 111.378 350.134C111.038 349.794 110.537 349.624 109.875 349.624C109.295 349.624 108.809 349.771 108.416 350.063C108.023 350.356 107.827 350.711 107.827 351.127H106.192C106.192 350.652 106.359 350.195 106.693 349.756C107.033 349.311 107.49 348.959 108.064 348.701C108.645 348.443 109.28 348.314 109.972 348.314C111.067 348.314 111.926 348.59 112.547 349.141C113.168 349.686 113.49 350.438 113.514 351.399V355.776C113.514 356.649 113.625 357.344 113.848 357.859V358H112.143ZM109.444 356.761C109.954 356.761 110.438 356.629 110.895 356.365C111.352 356.102 111.683 355.759 111.888 355.337V353.386H110.613C108.621 353.386 107.625 353.969 107.625 355.135C107.625 355.645 107.795 356.043 108.135 356.33C108.475 356.617 108.911 356.761 109.444 356.761ZM117.829 358H116.203V348.49H117.829V358ZM116.071 345.968C116.071 345.704 116.15 345.481 116.309 345.3C116.473 345.118 116.713 345.027 117.029 345.027C117.346 345.027 117.586 345.118 117.75 345.3C117.914 345.481 117.996 345.704 117.996 345.968C117.996 346.231 117.914 346.451 117.75 346.627C117.586 346.803 117.346 346.891 117.029 346.891C116.713 346.891 116.473 346.803 116.309 346.627C116.15 346.451 116.071 346.231 116.071 345.968ZM122.206 358H120.58V344.5H122.206V358ZM133.096 356.849C133.676 356.849 134.183 356.673 134.616 356.321C135.05 355.97 135.29 355.53 135.337 355.003H136.875C136.846 355.548 136.658 356.066 136.312 356.559C135.967 357.051 135.504 357.443 134.924 357.736C134.35 358.029 133.74 358.176 133.096 358.176C131.801 358.176 130.77 357.745 130.002 356.884C129.24 356.017 128.859 354.833 128.859 353.333V353.061C128.859 352.135 129.029 351.312 129.369 350.591C129.709 349.87 130.195 349.311 130.828 348.912C131.467 348.514 132.22 348.314 133.087 348.314C134.153 348.314 135.038 348.634 135.741 349.272C136.45 349.911 136.828 350.74 136.875 351.76H135.337C135.29 351.145 135.056 350.641 134.634 350.248C134.218 349.85 133.702 349.65 133.087 349.65C132.261 349.65 131.619 349.949 131.162 350.547C130.711 351.139 130.485 351.997 130.485 353.122V353.43C130.485 354.525 130.711 355.369 131.162 355.961C131.613 356.553 132.258 356.849 133.096 356.849ZM138.272 353.157C138.272 352.226 138.454 351.388 138.817 350.644C139.187 349.899 139.696 349.325 140.347 348.921C141.003 348.517 141.75 348.314 142.588 348.314C143.883 348.314 144.929 348.763 145.726 349.659C146.528 350.556 146.93 351.748 146.93 353.236V353.351C146.93 354.276 146.751 355.108 146.394 355.847C146.042 356.579 145.535 357.15 144.873 357.561C144.217 357.971 143.461 358.176 142.605 358.176C141.316 358.176 140.271 357.728 139.468 356.831C138.671 355.935 138.272 354.748 138.272 353.271V353.157ZM139.907 353.351C139.907 354.405 140.15 355.252 140.637 355.891C141.129 356.529 141.785 356.849 142.605 356.849C143.432 356.849 144.088 356.526 144.574 355.882C145.061 355.231 145.304 354.323 145.304 353.157C145.304 352.114 145.055 351.271 144.557 350.626C144.064 349.976 143.408 349.65 142.588 349.65C141.785 349.65 141.138 349.97 140.646 350.608C140.153 351.247 139.907 352.161 139.907 353.351ZM150.507 348.49L150.56 349.686C151.286 348.771 152.235 348.314 153.407 348.314C155.417 348.314 156.431 349.448 156.448 351.716V358H154.822V351.707C154.816 351.021 154.658 350.515 154.348 350.187C154.043 349.858 153.565 349.694 152.915 349.694C152.388 349.694 151.925 349.835 151.526 350.116C151.128 350.397 150.817 350.767 150.595 351.224V358H148.969V348.49H150.507ZM159.445 358V349.747H157.942V348.49H159.445V347.682C159.445 346.621 159.747 345.795 160.351 345.203C160.96 344.611 161.818 344.315 162.926 344.315C163.582 344.315 164.411 344.494 165.413 344.852L165.141 346.223C164.408 345.93 163.711 345.783 163.049 345.783C162.352 345.783 161.848 345.941 161.537 346.258C161.232 346.568 161.08 347.037 161.08 347.664V348.49H163.022V349.747H161.08V358H159.445ZM166.222 358H164.587V348.49H166.222V358ZM173.464 349.949C173.218 349.908 172.951 349.888 172.664 349.888C171.598 349.888 170.874 350.342 170.493 351.25V358H168.867V348.49H170.449L170.476 349.589C171.009 348.739 171.765 348.314 172.743 348.314C173.06 348.314 173.3 348.355 173.464 348.438V349.949ZM176.496 348.49L176.54 349.545C177.237 348.725 178.178 348.314 179.361 348.314C180.691 348.314 181.597 348.824 182.077 349.844C182.394 349.387 182.804 349.018 183.308 348.736C183.817 348.455 184.418 348.314 185.109 348.314C187.195 348.314 188.256 349.419 188.291 351.628V358H186.665V351.725C186.665 351.045 186.51 350.538 186.199 350.204C185.889 349.864 185.367 349.694 184.635 349.694C184.031 349.694 183.53 349.876 183.132 350.239C182.733 350.597 182.502 351.08 182.438 351.689V358H180.803V351.769C180.803 350.386 180.126 349.694 178.772 349.694C177.706 349.694 176.977 350.148 176.584 351.057V358H174.958V348.49H176.496ZM196.623 358C196.529 357.812 196.453 357.479 196.395 356.998C195.639 357.783 194.736 358.176 193.688 358.176C192.75 358.176 191.979 357.912 191.376 357.385C190.778 356.852 190.479 356.178 190.479 355.363C190.479 354.373 190.854 353.605 191.604 353.061C192.36 352.51 193.421 352.234 194.786 352.234H196.368V351.487C196.368 350.919 196.198 350.468 195.858 350.134C195.519 349.794 195.018 349.624 194.355 349.624C193.775 349.624 193.289 349.771 192.896 350.063C192.504 350.356 192.308 350.711 192.308 351.127H190.673C190.673 350.652 190.84 350.195 191.174 349.756C191.514 349.311 191.971 348.959 192.545 348.701C193.125 348.443 193.761 348.314 194.452 348.314C195.548 348.314 196.406 348.59 197.027 349.141C197.648 349.686 197.971 350.438 197.994 351.399V355.776C197.994 356.649 198.105 357.344 198.328 357.859V358H196.623ZM193.925 356.761C194.435 356.761 194.918 356.629 195.375 356.365C195.832 356.102 196.163 355.759 196.368 355.337V353.386H195.094C193.102 353.386 192.105 353.969 192.105 355.135C192.105 355.645 192.275 356.043 192.615 356.33C192.955 356.617 193.392 356.761 193.925 356.761ZM202.749 346.188V348.49H204.524V349.747H202.749V355.645C202.749 356.025 202.828 356.312 202.986 356.506C203.145 356.693 203.414 356.787 203.795 356.787C203.982 356.787 204.24 356.752 204.568 356.682V358C204.141 358.117 203.725 358.176 203.32 358.176C202.594 358.176 202.046 357.956 201.677 357.517C201.308 357.077 201.123 356.453 201.123 355.645V349.747H199.392V348.49H201.123V346.188H202.749ZM208.198 358H206.572V348.49H208.198V358ZM206.44 345.968C206.44 345.704 206.52 345.481 206.678 345.3C206.842 345.118 207.082 345.027 207.398 345.027C207.715 345.027 207.955 345.118 208.119 345.3C208.283 345.481 208.365 345.704 208.365 345.968C208.365 346.231 208.283 346.451 208.119 346.627C207.955 346.803 207.715 346.891 207.398 346.891C207.082 346.891 206.842 346.803 206.678 346.627C206.52 346.451 206.44 346.231 206.44 345.968ZM210.378 353.157C210.378 352.226 210.56 351.388 210.923 350.644C211.292 349.899 211.802 349.325 212.452 348.921C213.108 348.517 213.855 348.314 214.693 348.314C215.988 348.314 217.034 348.763 217.831 349.659C218.634 350.556 219.035 351.748 219.035 353.236V353.351C219.035 354.276 218.856 355.108 218.499 355.847C218.147 356.579 217.641 357.15 216.979 357.561C216.322 357.971 215.566 358.176 214.711 358.176C213.422 358.176 212.376 357.728 211.573 356.831C210.776 355.935 210.378 354.748 210.378 353.271V353.157ZM212.013 353.351C212.013 354.405 212.256 355.252 212.742 355.891C213.234 356.529 213.891 356.849 214.711 356.849C215.537 356.849 216.193 356.526 216.68 355.882C217.166 355.231 217.409 354.323 217.409 353.157C217.409 352.114 217.16 351.271 216.662 350.626C216.17 349.976 215.514 349.65 214.693 349.65C213.891 349.65 213.243 349.97 212.751 350.608C212.259 351.247 212.013 352.161 212.013 353.351ZM222.612 348.49L222.665 349.686C223.392 348.771 224.341 348.314 225.513 348.314C227.522 348.314 228.536 349.448 228.554 351.716V358H226.928V351.707C226.922 351.021 226.764 350.515 226.453 350.187C226.148 349.858 225.671 349.694 225.021 349.694C224.493 349.694 224.03 349.835 223.632 350.116C223.233 350.397 222.923 350.767 222.7 351.224V358H221.074V348.49H222.612ZM243.891 355.759L245.719 348.49H247.345L244.576 358H243.258L240.946 350.793L238.696 358H237.378L234.618 348.49H236.235L238.107 355.609L240.322 348.49H241.632L243.891 355.759ZM254.877 358C254.783 357.812 254.707 357.479 254.648 356.998C253.893 357.783 252.99 358.176 251.941 358.176C251.004 358.176 250.233 357.912 249.63 357.385C249.032 356.852 248.733 356.178 248.733 355.363C248.733 354.373 249.108 353.605 249.858 353.061C250.614 352.51 251.675 352.234 253.04 352.234H254.622V351.487C254.622 350.919 254.452 350.468 254.112 350.134C253.772 349.794 253.271 349.624 252.609 349.624C252.029 349.624 251.543 349.771 251.15 350.063C250.758 350.356 250.562 350.711 250.562 351.127H248.927C248.927 350.652 249.094 350.195 249.428 349.756C249.768 349.311 250.225 348.959 250.799 348.701C251.379 348.443 252.015 348.314 252.706 348.314C253.802 348.314 254.66 348.59 255.281 349.141C255.902 349.686 256.225 350.438 256.248 351.399V355.776C256.248 356.649 256.359 357.344 256.582 357.859V358H254.877ZM252.179 356.761C252.688 356.761 253.172 356.629 253.629 356.365C254.086 356.102 254.417 355.759 254.622 355.337V353.386H253.348C251.355 353.386 250.359 353.969 250.359 355.135C250.359 355.645 250.529 356.043 250.869 356.33C251.209 356.617 251.646 356.761 252.179 356.761ZM264.334 355.478C264.334 355.038 264.167 354.698 263.833 354.458C263.505 354.212 262.928 354.001 262.102 353.825C261.281 353.649 260.628 353.438 260.142 353.192C259.661 352.946 259.304 352.653 259.069 352.313C258.841 351.974 258.727 351.569 258.727 351.101C258.727 350.321 259.055 349.662 259.711 349.123C260.373 348.584 261.217 348.314 262.242 348.314C263.32 348.314 264.193 348.593 264.861 349.149C265.535 349.706 265.872 350.418 265.872 351.285H264.237C264.237 350.84 264.047 350.456 263.666 350.134C263.291 349.812 262.816 349.65 262.242 349.65C261.65 349.65 261.188 349.779 260.854 350.037C260.52 350.295 260.353 350.632 260.353 351.048C260.353 351.44 260.508 351.736 260.818 351.936C261.129 352.135 261.688 352.325 262.497 352.507C263.312 352.688 263.971 352.905 264.475 353.157C264.979 353.409 265.351 353.714 265.591 354.071C265.837 354.423 265.96 354.854 265.96 355.363C265.96 356.213 265.62 356.896 264.94 357.411C264.261 357.921 263.379 358.176 262.295 358.176C261.533 358.176 260.859 358.041 260.273 357.771C259.688 357.502 259.228 357.127 258.894 356.646C258.565 356.16 258.401 355.636 258.401 355.073H260.027C260.057 355.618 260.273 356.052 260.678 356.374C261.088 356.69 261.627 356.849 262.295 356.849C262.91 356.849 263.402 356.726 263.771 356.479C264.146 356.228 264.334 355.894 264.334 355.478ZM278.08 355.478C278.08 355.038 277.913 354.698 277.579 354.458C277.251 354.212 276.674 354.001 275.848 353.825C275.027 353.649 274.374 353.438 273.888 353.192C273.407 352.946 273.05 352.653 272.815 352.313C272.587 351.974 272.473 351.569 272.473 351.101C272.473 350.321 272.801 349.662 273.457 349.123C274.119 348.584 274.963 348.314 275.988 348.314C277.066 348.314 277.939 348.593 278.607 349.149C279.281 349.706 279.618 350.418 279.618 351.285H277.983C277.983 350.84 277.793 350.456 277.412 350.134C277.037 349.812 276.562 349.65 275.988 349.65C275.396 349.65 274.934 349.779 274.6 350.037C274.266 350.295 274.099 350.632 274.099 351.048C274.099 351.44 274.254 351.736 274.564 351.936C274.875 352.135 275.435 352.325 276.243 352.507C277.058 352.688 277.717 352.905 278.221 353.157C278.725 353.409 279.097 353.714 279.337 354.071C279.583 354.423 279.706 354.854 279.706 355.363C279.706 356.213 279.366 356.896 278.687 357.411C278.007 357.921 277.125 358.176 276.041 358.176C275.279 358.176 274.605 358.041 274.02 357.771C273.434 357.502 272.974 357.127 272.64 356.646C272.312 356.16 272.147 355.636 272.147 355.073H273.773C273.803 355.618 274.02 356.052 274.424 356.374C274.834 356.69 275.373 356.849 276.041 356.849C276.656 356.849 277.148 356.726 277.518 356.479C277.893 356.228 278.08 355.894 278.08 355.478ZM285.771 358.176C284.481 358.176 283.433 357.754 282.624 356.91C281.815 356.061 281.411 354.927 281.411 353.509V353.21C281.411 352.267 281.59 351.426 281.947 350.688C282.311 349.943 282.814 349.363 283.459 348.947C284.109 348.525 284.812 348.314 285.568 348.314C286.805 348.314 287.766 348.722 288.451 349.536C289.137 350.351 289.479 351.517 289.479 353.034V353.711H283.037C283.061 354.648 283.333 355.407 283.854 355.987C284.382 356.562 285.05 356.849 285.858 356.849C286.433 356.849 286.919 356.731 287.317 356.497C287.716 356.263 288.064 355.952 288.363 355.565L289.356 356.339C288.56 357.563 287.364 358.176 285.771 358.176ZM285.568 349.65C284.912 349.65 284.361 349.891 283.916 350.371C283.471 350.846 283.195 351.514 283.09 352.375H287.854V352.252C287.807 351.426 287.584 350.787 287.186 350.336C286.787 349.879 286.248 349.65 285.568 349.65ZM292.907 348.49L292.96 349.686C293.687 348.771 294.636 348.314 295.808 348.314C297.817 348.314 298.831 349.448 298.849 351.716V358H297.223V351.707C297.217 351.021 297.059 350.515 296.748 350.187C296.443 349.858 295.966 349.694 295.315 349.694C294.788 349.694 294.325 349.835 293.927 350.116C293.528 350.397 293.218 350.767 292.995 351.224V358H291.369V348.49H292.907ZM303.507 346.188V348.49H305.282V349.747H303.507V355.645C303.507 356.025 303.586 356.312 303.744 356.506C303.902 356.693 304.172 356.787 304.553 356.787C304.74 356.787 304.998 356.752 305.326 356.682V358C304.898 358.117 304.482 358.176 304.078 358.176C303.352 358.176 302.804 357.956 302.435 357.517C302.065 357.077 301.881 356.453 301.881 355.645V349.747H300.149V348.49H301.881V346.188H303.507ZM313.86 346.188V348.49H315.636V349.747H313.86V355.645C313.86 356.025 313.939 356.312 314.098 356.506C314.256 356.693 314.525 356.787 314.906 356.787C315.094 356.787 315.352 356.752 315.68 356.682V358C315.252 358.117 314.836 358.176 314.432 358.176C313.705 358.176 313.157 357.956 312.788 357.517C312.419 357.077 312.234 356.453 312.234 355.645V349.747H310.503V348.49H312.234V346.188H313.86ZM316.937 353.157C316.937 352.226 317.118 351.388 317.481 350.644C317.851 349.899 318.36 349.325 319.011 348.921C319.667 348.517 320.414 348.314 321.252 348.314C322.547 348.314 323.593 348.763 324.39 349.659C325.192 350.556 325.594 351.748 325.594 353.236V353.351C325.594 354.276 325.415 355.108 325.058 355.847C324.706 356.579 324.199 357.15 323.537 357.561C322.881 357.971 322.125 358.176 321.27 358.176C319.98 358.176 318.935 357.728 318.132 356.831C317.335 355.935 316.937 354.748 316.937 353.271V353.157ZM318.571 353.351C318.571 354.405 318.814 355.252 319.301 355.891C319.793 356.529 320.449 356.849 321.27 356.849C322.096 356.849 322.752 356.526 323.238 355.882C323.725 355.231 323.968 354.323 323.968 353.157C323.968 352.114 323.719 351.271 323.221 350.626C322.729 349.976 322.072 349.65 321.252 349.65C320.449 349.65 319.802 349.97 319.31 350.608C318.817 351.247 318.571 352.161 318.571 353.351ZM112.582 367.188V369.49H114.357V370.747H112.582V376.645C112.582 377.025 112.661 377.312 112.819 377.506C112.978 377.693 113.247 377.787 113.628 377.787C113.815 377.787 114.073 377.752 114.401 377.682V379C113.974 379.117 113.558 379.176 113.153 379.176C112.427 379.176 111.879 378.956 111.51 378.517C111.141 378.077 110.956 377.453 110.956 376.645V370.747H109.225V369.49H110.956V367.188H112.582ZM117.891 370.642C118.611 369.757 119.549 369.314 120.703 369.314C122.713 369.314 123.727 370.448 123.744 372.716V379H122.118V372.707C122.112 372.021 121.954 371.515 121.644 371.187C121.339 370.858 120.861 370.694 120.211 370.694C119.684 370.694 119.221 370.835 118.822 371.116C118.424 371.397 118.113 371.767 117.891 372.224V379H116.265V365.5H117.891V370.642ZM130.125 379.176C128.836 379.176 127.787 378.754 126.979 377.91C126.17 377.061 125.766 375.927 125.766 374.509V374.21C125.766 373.267 125.944 372.426 126.302 371.688C126.665 370.943 127.169 370.363 127.813 369.947C128.464 369.525 129.167 369.314 129.923 369.314C131.159 369.314 132.12 369.722 132.806 370.536C133.491 371.351 133.834 372.517 133.834 374.034V374.711H127.392C127.415 375.648 127.688 376.407 128.209 376.987C128.736 377.562 129.404 377.849 130.213 377.849C130.787 377.849 131.273 377.731 131.672 377.497C132.07 377.263 132.419 376.952 132.718 376.565L133.711 377.339C132.914 378.563 131.719 379.176 130.125 379.176ZM129.923 370.65C129.267 370.65 128.716 370.891 128.271 371.371C127.825 371.846 127.55 372.514 127.444 373.375H132.208V373.252C132.161 372.426 131.938 371.787 131.54 371.336C131.142 370.879 130.603 370.65 129.923 370.65ZM144.135 379.176C142.846 379.176 141.797 378.754 140.988 377.91C140.18 377.061 139.775 375.927 139.775 374.509V374.21C139.775 373.267 139.954 372.426 140.312 371.688C140.675 370.943 141.179 370.363 141.823 369.947C142.474 369.525 143.177 369.314 143.933 369.314C145.169 369.314 146.13 369.722 146.815 370.536C147.501 371.351 147.844 372.517 147.844 374.034V374.711H141.401C141.425 375.648 141.697 376.407 142.219 376.987C142.746 377.562 143.414 377.849 144.223 377.849C144.797 377.849 145.283 377.731 145.682 377.497C146.08 377.263 146.429 376.952 146.728 376.565L147.721 377.339C146.924 378.563 145.729 379.176 144.135 379.176ZM143.933 370.65C143.276 370.65 142.726 370.891 142.28 371.371C141.835 371.846 141.56 372.514 141.454 373.375H146.218V373.252C146.171 372.426 145.948 371.787 145.55 371.336C145.151 370.879 144.612 370.65 143.933 370.65ZM153.117 374.228H148.828V372.9H153.117V374.228ZM156.237 369.49L156.281 370.545C156.979 369.725 157.919 369.314 159.103 369.314C160.433 369.314 161.338 369.824 161.818 370.844C162.135 370.387 162.545 370.018 163.049 369.736C163.559 369.455 164.159 369.314 164.851 369.314C166.937 369.314 167.997 370.419 168.032 372.628V379H166.406V372.725C166.406 372.045 166.251 371.538 165.94 371.204C165.63 370.864 165.108 370.694 164.376 370.694C163.772 370.694 163.271 370.876 162.873 371.239C162.475 371.597 162.243 372.08 162.179 372.689V379H160.544V372.769C160.544 371.386 159.867 370.694 158.514 370.694C157.447 370.694 156.718 371.148 156.325 372.057V379H154.699V369.49H156.237ZM176.364 379C176.271 378.812 176.194 378.479 176.136 377.998C175.38 378.783 174.478 379.176 173.429 379.176C172.491 379.176 171.721 378.912 171.117 378.385C170.52 377.852 170.221 377.178 170.221 376.363C170.221 375.373 170.596 374.605 171.346 374.061C172.102 373.51 173.162 373.234 174.527 373.234H176.109V372.487C176.109 371.919 175.939 371.468 175.6 371.134C175.26 370.794 174.759 370.624 174.097 370.624C173.517 370.624 173.03 370.771 172.638 371.063C172.245 371.356 172.049 371.711 172.049 372.127H170.414C170.414 371.652 170.581 371.195 170.915 370.756C171.255 370.311 171.712 369.959 172.286 369.701C172.866 369.443 173.502 369.314 174.193 369.314C175.289 369.314 176.147 369.59 176.769 370.141C177.39 370.686 177.712 371.438 177.735 372.399V376.776C177.735 377.649 177.847 378.344 178.069 378.859V379H176.364ZM173.666 377.761C174.176 377.761 174.659 377.629 175.116 377.365C175.573 377.102 175.904 376.759 176.109 376.337V374.386H174.835C172.843 374.386 171.847 374.969 171.847 376.135C171.847 376.645 172.017 377.043 172.356 377.33C172.696 377.617 173.133 377.761 173.666 377.761ZM182.051 379H180.425V369.49H182.051V379ZM180.293 366.968C180.293 366.704 180.372 366.481 180.53 366.3C180.694 366.118 180.935 366.027 181.251 366.027C181.567 366.027 181.808 366.118 181.972 366.3C182.136 366.481 182.218 366.704 182.218 366.968C182.218 367.231 182.136 367.451 181.972 367.627C181.808 367.803 181.567 367.891 181.251 367.891C180.935 367.891 180.694 367.803 180.53 367.627C180.372 367.451 180.293 367.231 180.293 366.968ZM186.428 379H184.802V365.5H186.428V379ZM201.536 374.351C201.536 375.798 201.205 376.964 200.543 377.849C199.881 378.733 198.984 379.176 197.854 379.176C196.699 379.176 195.791 378.81 195.129 378.077V382.656H193.503V369.49H194.988L195.067 370.545C195.729 369.725 196.649 369.314 197.827 369.314C198.97 369.314 199.872 369.745 200.534 370.606C201.202 371.468 201.536 372.666 201.536 374.201V374.351ZM199.91 374.166C199.91 373.094 199.682 372.247 199.225 371.626C198.768 371.005 198.141 370.694 197.344 370.694C196.359 370.694 195.621 371.131 195.129 372.004V376.548C195.615 377.415 196.359 377.849 197.361 377.849C198.141 377.849 198.759 377.541 199.216 376.926C199.679 376.305 199.91 375.385 199.91 374.166ZM208.207 370.949C207.961 370.908 207.694 370.888 207.407 370.888C206.341 370.888 205.617 371.342 205.236 372.25V379H203.61V369.49H205.192L205.219 370.589C205.752 369.739 206.508 369.314 207.486 369.314C207.803 369.314 208.043 369.355 208.207 369.438V370.949ZM209.104 374.157C209.104 373.226 209.285 372.388 209.648 371.644C210.018 370.899 210.527 370.325 211.178 369.921C211.834 369.517 212.581 369.314 213.419 369.314C214.714 369.314 215.76 369.763 216.557 370.659C217.359 371.556 217.761 372.748 217.761 374.236V374.351C217.761 375.276 217.582 376.108 217.225 376.847C216.873 377.579 216.366 378.15 215.704 378.561C215.048 378.971 214.292 379.176 213.437 379.176C212.147 379.176 211.102 378.728 210.299 377.831C209.502 376.935 209.104 375.748 209.104 374.271V374.157ZM210.738 374.351C210.738 375.405 210.981 376.252 211.468 376.891C211.96 377.529 212.616 377.849 213.437 377.849C214.263 377.849 214.919 377.526 215.405 376.882C215.892 376.231 216.135 375.323 216.135 374.157C216.135 373.114 215.886 372.271 215.388 371.626C214.896 370.976 214.239 370.65 213.419 370.65C212.616 370.65 211.969 370.97 211.477 371.608C210.984 372.247 210.738 373.161 210.738 374.351ZM222.797 376.794L225.152 369.49H226.813L223.403 379H222.164L218.719 369.49H220.38L222.797 376.794ZM230.145 379H228.519V369.49H230.145V379ZM228.387 366.968C228.387 366.704 228.466 366.481 228.624 366.3C228.788 366.118 229.028 366.027 229.345 366.027C229.661 366.027 229.901 366.118 230.065 366.3C230.229 366.481 230.312 366.704 230.312 366.968C230.312 367.231 230.229 367.451 230.065 367.627C229.901 367.803 229.661 367.891 229.345 367.891C229.028 367.891 228.788 367.803 228.624 367.627C228.466 367.451 228.387 367.231 228.387 366.968ZM232.359 374.166C232.359 372.707 232.705 371.535 233.396 370.65C234.088 369.76 234.993 369.314 236.112 369.314C237.226 369.314 238.107 369.695 238.758 370.457V365.5H240.384V379H238.89L238.811 377.98C238.16 378.777 237.255 379.176 236.095 379.176C234.993 379.176 234.094 378.725 233.396 377.822C232.705 376.92 232.359 375.742 232.359 374.289V374.166ZM233.985 374.351C233.985 375.429 234.208 376.272 234.653 376.882C235.099 377.491 235.714 377.796 236.499 377.796C237.53 377.796 238.283 377.333 238.758 376.407V372.039C238.271 371.143 237.524 370.694 236.517 370.694C235.72 370.694 235.099 371.002 234.653 371.617C234.208 372.232 233.985 373.144 233.985 374.351ZM246.861 379.176C245.572 379.176 244.523 378.754 243.715 377.91C242.906 377.061 242.502 375.927 242.502 374.509V374.21C242.502 373.267 242.681 372.426 243.038 371.688C243.401 370.943 243.905 370.363 244.55 369.947C245.2 369.525 245.903 369.314 246.659 369.314C247.896 369.314 248.856 369.722 249.542 370.536C250.228 371.351 250.57 372.517 250.57 374.034V374.711H244.128C244.151 375.648 244.424 376.407 244.945 376.987C245.473 377.562 246.141 377.849 246.949 377.849C247.523 377.849 248.01 377.731 248.408 377.497C248.807 377.263 249.155 376.952 249.454 376.565L250.447 377.339C249.65 378.563 248.455 379.176 246.861 379.176ZM246.659 370.65C246.003 370.65 245.452 370.891 245.007 371.371C244.562 371.846 244.286 372.514 244.181 373.375H248.944V373.252C248.897 372.426 248.675 371.787 248.276 371.336C247.878 370.879 247.339 370.65 246.659 370.65ZM252.064 374.166C252.064 372.707 252.41 371.535 253.102 370.65C253.793 369.76 254.698 369.314 255.817 369.314C256.931 369.314 257.812 369.695 258.463 370.457V365.5H260.089V379H258.595L258.516 377.98C257.865 378.777 256.96 379.176 255.8 379.176C254.698 379.176 253.799 378.725 253.102 377.822C252.41 376.92 252.064 375.742 252.064 374.289V374.166ZM253.69 374.351C253.69 375.429 253.913 376.272 254.358 376.882C254.804 377.491 255.419 377.796 256.204 377.796C257.235 377.796 257.988 377.333 258.463 376.407V372.039C257.977 371.143 257.229 370.694 256.222 370.694C255.425 370.694 254.804 371.002 254.358 371.617C253.913 372.232 253.69 373.144 253.69 374.351ZM71.4141 435.628L74.7539 429.203H76.6699L72.2578 437.228V442H70.5703V437.228L66.1582 429.203H68.0918L71.4141 435.628ZM77.0566 437.157C77.0566 436.226 77.2383 435.388 77.6016 434.644C77.9707 433.899 78.4805 433.325 79.1309 432.921C79.7871 432.517 80.5342 432.314 81.3721 432.314C82.667 432.314 83.7129 432.763 84.5098 433.659C85.3125 434.556 85.7139 435.748 85.7139 437.236V437.351C85.7139 438.276 85.5352 439.108 85.1777 439.847C84.8262 440.579 84.3193 441.15 83.6572 441.561C83.001 441.971 82.2451 442.176 81.3896 442.176C80.1006 442.176 79.0547 441.728 78.252 440.831C77.4551 439.935 77.0566 438.748 77.0566 437.271V437.157ZM78.6914 437.351C78.6914 438.405 78.9346 439.252 79.4209 439.891C79.9131 440.529 80.5693 440.849 81.3896 440.849C82.2158 440.849 82.8721 440.526 83.3584 439.882C83.8447 439.231 84.0879 438.323 84.0879 437.157C84.0879 436.114 83.8389 435.271 83.3408 434.626C82.8486 433.976 82.1924 433.65 81.3721 433.65C80.5693 433.65 79.9219 433.97 79.4297 434.608C78.9375 435.247 78.6914 436.161 78.6914 437.351ZM93.624 441.06C92.9912 441.804 92.0625 442.176 90.8379 442.176C89.8242 442.176 89.0508 441.883 88.5176 441.297C87.9902 440.705 87.7236 439.832 87.7178 438.678V432.49H89.3438V438.634C89.3438 440.075 89.9297 440.796 91.1016 440.796C92.3438 440.796 93.1699 440.333 93.5801 439.407V432.49H95.2061V442H93.6592L93.624 441.06ZM105.964 440.849C106.544 440.849 107.051 440.673 107.484 440.321C107.918 439.97 108.158 439.53 108.205 439.003H109.743C109.714 439.548 109.526 440.066 109.181 440.559C108.835 441.051 108.372 441.443 107.792 441.736C107.218 442.029 106.608 442.176 105.964 442.176C104.669 442.176 103.638 441.745 102.87 440.884C102.108 440.017 101.728 438.833 101.728 437.333V437.061C101.728 436.135 101.897 435.312 102.237 434.591C102.577 433.87 103.063 433.311 103.696 432.912C104.335 432.514 105.088 432.314 105.955 432.314C107.021 432.314 107.906 432.634 108.609 433.272C109.318 433.911 109.696 434.74 109.743 435.76H108.205C108.158 435.145 107.924 434.641 107.502 434.248C107.086 433.85 106.57 433.65 105.955 433.65C105.129 433.65 104.487 433.949 104.03 434.547C103.579 435.139 103.354 435.997 103.354 437.122V437.43C103.354 438.525 103.579 439.369 104.03 439.961C104.481 440.553 105.126 440.849 105.964 440.849ZM117.442 442C117.349 441.812 117.272 441.479 117.214 440.998C116.458 441.783 115.556 442.176 114.507 442.176C113.569 442.176 112.799 441.912 112.195 441.385C111.598 440.852 111.299 440.178 111.299 439.363C111.299 438.373 111.674 437.605 112.424 437.061C113.18 436.51 114.24 436.234 115.605 436.234H117.188V435.487C117.188 434.919 117.018 434.468 116.678 434.134C116.338 433.794 115.837 433.624 115.175 433.624C114.595 433.624 114.108 433.771 113.716 434.063C113.323 434.356 113.127 434.711 113.127 435.127H111.492C111.492 434.652 111.659 434.195 111.993 433.756C112.333 433.311 112.79 432.959 113.364 432.701C113.944 432.443 114.58 432.314 115.271 432.314C116.367 432.314 117.226 432.59 117.847 433.141C118.468 433.686 118.79 434.438 118.813 435.399V439.776C118.813 440.649 118.925 441.344 119.147 441.859V442H117.442ZM114.744 440.761C115.254 440.761 115.737 440.629 116.194 440.365C116.651 440.102 116.982 439.759 117.188 439.337V437.386H115.913C113.921 437.386 112.925 437.969 112.925 439.135C112.925 439.645 113.095 440.043 113.435 440.33C113.774 440.617 114.211 440.761 114.744 440.761ZM122.9 432.49L122.953 433.686C123.68 432.771 124.629 432.314 125.801 432.314C127.811 432.314 128.824 433.448 128.842 435.716V442H127.216V435.707C127.21 435.021 127.052 434.515 126.741 434.187C126.437 433.858 125.959 433.694 125.309 433.694C124.781 433.694 124.318 433.835 123.92 434.116C123.521 434.397 123.211 434.767 122.988 435.224V442H121.362V432.49H122.9ZM139.705 442.176C138.416 442.176 137.367 441.754 136.559 440.91C135.75 440.061 135.346 438.927 135.346 437.509V437.21C135.346 436.267 135.524 435.426 135.882 434.688C136.245 433.943 136.749 433.363 137.394 432.947C138.044 432.525 138.747 432.314 139.503 432.314C140.739 432.314 141.7 432.722 142.386 433.536C143.071 434.351 143.414 435.517 143.414 437.034V437.711H136.972C136.995 438.648 137.268 439.407 137.789 439.987C138.316 440.562 138.984 440.849 139.793 440.849C140.367 440.849 140.854 440.731 141.252 440.497C141.65 440.263 141.999 439.952 142.298 439.565L143.291 440.339C142.494 441.563 141.299 442.176 139.705 442.176ZM139.503 433.65C138.847 433.65 138.296 433.891 137.851 434.371C137.405 434.846 137.13 435.514 137.024 436.375H141.788V436.252C141.741 435.426 141.519 434.787 141.12 434.336C140.722 433.879 140.183 433.65 139.503 433.65ZM148.494 435.962L150.604 432.49H152.502L149.391 437.192L152.599 442H150.718L148.521 438.44L146.323 442H144.434L147.642 437.192L144.53 432.49H146.411L148.494 435.962ZM162.267 437.351C162.267 438.798 161.936 439.964 161.273 440.849C160.611 441.733 159.715 442.176 158.584 442.176C157.43 442.176 156.521 441.81 155.859 441.077V445.656H154.233V432.49H155.719L155.798 433.545C156.46 432.725 157.38 432.314 158.558 432.314C159.7 432.314 160.603 432.745 161.265 433.606C161.933 434.468 162.267 435.666 162.267 437.201V437.351ZM160.641 437.166C160.641 436.094 160.412 435.247 159.955 434.626C159.498 434.005 158.871 433.694 158.074 433.694C157.09 433.694 156.352 434.131 155.859 435.004V439.548C156.346 440.415 157.09 440.849 158.092 440.849C158.871 440.849 159.489 440.541 159.946 439.926C160.409 439.305 160.641 438.385 160.641 437.166ZM168.287 442.176C166.998 442.176 165.949 441.754 165.141 440.91C164.332 440.061 163.928 438.927 163.928 437.509V437.21C163.928 436.267 164.106 435.426 164.464 434.688C164.827 433.943 165.331 433.363 165.976 432.947C166.626 432.525 167.329 432.314 168.085 432.314C169.321 432.314 170.282 432.722 170.968 433.536C171.653 434.351 171.996 435.517 171.996 437.034V437.711H165.554C165.577 438.648 165.85 439.407 166.371 439.987C166.898 440.562 167.566 440.849 168.375 440.849C168.949 440.849 169.436 440.731 169.834 440.497C170.232 440.263 170.581 439.952 170.88 439.565L171.873 440.339C171.076 441.563 169.881 442.176 168.287 442.176ZM168.085 433.65C167.429 433.65 166.878 433.891 166.433 434.371C165.987 434.846 165.712 435.514 165.606 436.375H170.37V436.252C170.323 435.426 170.101 434.787 169.702 434.336C169.304 433.879 168.765 433.65 168.085 433.65ZM177.7 440.849C178.28 440.849 178.787 440.673 179.221 440.321C179.654 439.97 179.895 439.53 179.941 439.003H181.479C181.45 439.548 181.263 440.066 180.917 440.559C180.571 441.051 180.108 441.443 179.528 441.736C178.954 442.029 178.345 442.176 177.7 442.176C176.405 442.176 175.374 441.745 174.606 440.884C173.845 440.017 173.464 438.833 173.464 437.333V437.061C173.464 436.135 173.634 435.312 173.974 434.591C174.313 433.87 174.8 433.311 175.433 432.912C176.071 432.514 176.824 432.314 177.691 432.314C178.758 432.314 179.643 432.634 180.346 433.272C181.055 433.911 181.433 434.74 181.479 435.76H179.941C179.895 435.145 179.66 434.641 179.238 434.248C178.822 433.85 178.307 433.65 177.691 433.65C176.865 433.65 176.224 433.949 175.767 434.547C175.315 435.139 175.09 435.997 175.09 437.122V437.43C175.09 438.525 175.315 439.369 175.767 439.961C176.218 440.553 176.862 440.849 177.7 440.849ZM185.514 430.188V432.49H187.289V433.747H185.514V439.645C185.514 440.025 185.593 440.312 185.751 440.506C185.909 440.693 186.179 440.787 186.56 440.787C186.747 440.787 187.005 440.752 187.333 440.682V442C186.905 442.117 186.489 442.176 186.085 442.176C185.358 442.176 184.811 441.956 184.441 441.517C184.072 441.077 183.888 440.453 183.888 439.645V433.747H182.156V432.49H183.888V430.188H185.514ZM195.867 430.188V432.49H197.643V433.747H195.867V439.645C195.867 440.025 195.946 440.312 196.104 440.506C196.263 440.693 196.532 440.787 196.913 440.787C197.101 440.787 197.358 440.752 197.687 440.682V442C197.259 442.117 196.843 442.176 196.438 442.176C195.712 442.176 195.164 441.956 194.795 441.517C194.426 441.077 194.241 440.453 194.241 439.645V433.747H192.51V432.49H194.241V430.188H195.867ZM198.943 437.157C198.943 436.226 199.125 435.388 199.488 434.644C199.857 433.899 200.367 433.325 201.018 432.921C201.674 432.517 202.421 432.314 203.259 432.314C204.554 432.314 205.6 432.763 206.396 433.659C207.199 434.556 207.601 435.748 207.601 437.236V437.351C207.601 438.276 207.422 439.108 207.064 439.847C206.713 440.579 206.206 441.15 205.544 441.561C204.888 441.971 204.132 442.176 203.276 442.176C201.987 442.176 200.941 441.728 200.139 440.831C199.342 439.935 198.943 438.748 198.943 437.271V437.157ZM200.578 437.351C200.578 438.405 200.821 439.252 201.308 439.891C201.8 440.529 202.456 440.849 203.276 440.849C204.103 440.849 204.759 440.526 205.245 439.882C205.731 439.231 205.975 438.323 205.975 437.157C205.975 436.114 205.726 435.271 205.228 434.626C204.735 433.976 204.079 433.65 203.259 433.65C202.456 433.65 201.809 433.97 201.316 434.608C200.824 435.247 200.578 436.161 200.578 437.351ZM218.701 433.949C218.455 433.908 218.188 433.888 217.901 433.888C216.835 433.888 216.111 434.342 215.73 435.25V442H214.104V432.49H215.687L215.713 433.589C216.246 432.739 217.002 432.314 217.98 432.314C218.297 432.314 218.537 432.355 218.701 432.438V433.949ZM223.975 442.176C222.686 442.176 221.637 441.754 220.828 440.91C220.02 440.061 219.615 438.927 219.615 437.509V437.21C219.615 436.267 219.794 435.426 220.151 434.688C220.515 433.943 221.019 433.363 221.663 432.947C222.313 432.525 223.017 432.314 223.772 432.314C225.009 432.314 225.97 432.722 226.655 433.536C227.341 434.351 227.684 435.517 227.684 437.034V437.711H221.241C221.265 438.648 221.537 439.407 222.059 439.987C222.586 440.562 223.254 440.849 224.062 440.849C224.637 440.849 225.123 440.731 225.521 440.497C225.92 440.263 226.269 439.952 226.567 439.565L227.561 440.339C226.764 441.563 225.568 442.176 223.975 442.176ZM223.772 433.65C223.116 433.65 222.565 433.891 222.12 434.371C221.675 434.846 221.399 435.514 221.294 436.375H226.058V436.252C226.011 435.426 225.788 434.787 225.39 434.336C224.991 433.879 224.452 433.65 223.772 433.65ZM233.388 440.849C233.968 440.849 234.475 440.673 234.908 440.321C235.342 439.97 235.582 439.53 235.629 439.003H237.167C237.138 439.548 236.95 440.066 236.604 440.559C236.259 441.051 235.796 441.443 235.216 441.736C234.642 442.029 234.032 442.176 233.388 442.176C232.093 442.176 231.062 441.745 230.294 440.884C229.532 440.017 229.151 438.833 229.151 437.333V437.061C229.151 436.135 229.321 435.312 229.661 434.591C230.001 433.87 230.487 433.311 231.12 432.912C231.759 432.514 232.512 432.314 233.379 432.314C234.445 432.314 235.33 432.634 236.033 433.272C236.742 433.911 237.12 434.74 237.167 435.76H235.629C235.582 435.145 235.348 434.641 234.926 434.248C234.51 433.85 233.994 433.65 233.379 433.65C232.553 433.65 231.911 433.949 231.454 434.547C231.003 435.139 230.777 435.997 230.777 437.122V437.43C230.777 438.525 231.003 439.369 231.454 439.961C231.905 440.553 232.55 440.849 233.388 440.849ZM242.941 442.176C241.652 442.176 240.604 441.754 239.795 440.91C238.986 440.061 238.582 438.927 238.582 437.509V437.21C238.582 436.267 238.761 435.426 239.118 434.688C239.481 433.943 239.985 433.363 240.63 432.947C241.28 432.525 241.983 432.314 242.739 432.314C243.976 432.314 244.937 432.722 245.622 433.536C246.308 434.351 246.65 435.517 246.65 437.034V437.711H240.208C240.231 438.648 240.504 439.407 241.025 439.987C241.553 440.562 242.221 440.849 243.029 440.849C243.604 440.849 244.09 440.731 244.488 440.497C244.887 440.263 245.235 439.952 245.534 439.565L246.527 440.339C245.73 441.563 244.535 442.176 242.941 442.176ZM242.739 433.65C242.083 433.65 241.532 433.891 241.087 434.371C240.642 434.846 240.366 435.514 240.261 436.375H245.024V436.252C244.978 435.426 244.755 434.787 244.356 434.336C243.958 433.879 243.419 433.65 242.739 433.65ZM250.307 442H248.681V432.49H250.307V442ZM248.549 429.968C248.549 429.704 248.628 429.481 248.786 429.3C248.95 429.118 249.19 429.027 249.507 429.027C249.823 429.027 250.063 429.118 250.228 429.3C250.392 429.481 250.474 429.704 250.474 429.968C250.474 430.231 250.392 430.451 250.228 430.627C250.063 430.803 249.823 430.891 249.507 430.891C249.19 430.891 248.95 430.803 248.786 430.627C248.628 430.451 248.549 430.231 248.549 429.968ZM256.055 439.794L258.41 432.49H260.071L256.661 442H255.422L251.977 432.49H253.638L256.055 439.794ZM265.459 442.176C264.17 442.176 263.121 441.754 262.312 440.91C261.504 440.061 261.1 438.927 261.1 437.509V437.21C261.1 436.267 261.278 435.426 261.636 434.688C261.999 433.943 262.503 433.363 263.147 432.947C263.798 432.525 264.501 432.314 265.257 432.314C266.493 432.314 267.454 432.722 268.14 433.536C268.825 434.351 269.168 435.517 269.168 437.034V437.711H262.726C262.749 438.648 263.021 439.407 263.543 439.987C264.07 440.562 264.738 440.849 265.547 440.849C266.121 440.849 266.607 440.731 267.006 440.497C267.404 440.263 267.753 439.952 268.052 439.565L269.045 440.339C268.248 441.563 267.053 442.176 265.459 442.176ZM265.257 433.65C264.601 433.65 264.05 433.891 263.604 434.371C263.159 434.846 262.884 435.514 262.778 436.375H267.542V436.252C267.495 435.426 267.272 434.787 266.874 434.336C266.476 433.879 265.937 433.65 265.257 433.65ZM278.634 439.618L280.849 432.49H282.589L278.766 443.468C278.174 445.05 277.233 445.841 275.944 445.841L275.637 445.814L275.03 445.7V444.382L275.47 444.417C276.021 444.417 276.448 444.306 276.753 444.083C277.063 443.86 277.318 443.453 277.518 442.861L277.878 441.895L274.485 432.49H276.261L278.634 439.618ZM283.477 437.157C283.477 436.226 283.658 435.388 284.021 434.644C284.391 433.899 284.9 433.325 285.551 432.921C286.207 432.517 286.954 432.314 287.792 432.314C289.087 432.314 290.133 432.763 290.93 433.659C291.732 434.556 292.134 435.748 292.134 437.236V437.351C292.134 438.276 291.955 439.108 291.598 439.847C291.246 440.579 290.739 441.15 290.077 441.561C289.421 441.971 288.665 442.176 287.81 442.176C286.521 442.176 285.475 441.728 284.672 440.831C283.875 439.935 283.477 438.748 283.477 437.271V437.157ZM285.111 437.351C285.111 438.405 285.354 439.252 285.841 439.891C286.333 440.529 286.989 440.849 287.81 440.849C288.636 440.849 289.292 440.526 289.778 439.882C290.265 439.231 290.508 438.323 290.508 437.157C290.508 436.114 290.259 435.271 289.761 434.626C289.269 433.976 288.612 433.65 287.792 433.65C286.989 433.65 286.342 433.97 285.85 434.608C285.357 435.247 285.111 436.161 285.111 437.351ZM300.044 441.06C299.411 441.804 298.482 442.176 297.258 442.176C296.244 442.176 295.471 441.883 294.938 441.297C294.41 440.705 294.144 439.832 294.138 438.678V432.49H295.764V438.634C295.764 440.075 296.35 440.796 297.521 440.796C298.764 440.796 299.59 440.333 300 439.407V432.49H301.626V442H300.079L300.044 441.06ZM308.701 433.949C308.455 433.908 308.188 433.888 307.901 433.888C306.835 433.888 306.111 434.342 305.73 435.25V442H304.104V432.49H305.687L305.713 433.589C306.246 432.739 307.002 432.314 307.98 432.314C308.297 432.314 308.537 432.355 308.701 432.438V433.949ZM62.0361 458.157C62.0361 457.226 62.2178 456.388 62.5811 455.644C62.9502 454.899 63.46 454.325 64.1104 453.921C64.7666 453.517 65.5137 453.314 66.3516 453.314C67.6465 453.314 68.6924 453.763 69.4893 454.659C70.292 455.556 70.6934 456.748 70.6934 458.236V458.351C70.6934 459.276 70.5146 460.108 70.1572 460.847C69.8057 461.579 69.2988 462.15 68.6367 462.561C67.9805 462.971 67.2246 463.176 66.3691 463.176C65.0801 463.176 64.0342 462.728 63.2314 461.831C62.4346 460.935 62.0361 459.748 62.0361 458.271V458.157ZM63.6709 458.351C63.6709 459.405 63.9141 460.252 64.4004 460.891C64.8926 461.529 65.5488 461.849 66.3691 461.849C67.1953 461.849 67.8516 461.526 68.3379 460.882C68.8242 460.231 69.0674 459.323 69.0674 458.157C69.0674 457.114 68.8184 456.271 68.3203 455.626C67.8281 454.976 67.1719 454.65 66.3516 454.65C65.5488 454.65 64.9014 454.97 64.4092 455.608C63.917 456.247 63.6709 457.161 63.6709 458.351ZM77.3291 454.949C77.083 454.908 76.8164 454.888 76.5293 454.888C75.4629 454.888 74.7393 455.342 74.3584 456.25V463H72.7324V453.49H74.3145L74.3408 454.589C74.874 453.739 75.6299 453.314 76.6084 453.314C76.9248 453.314 77.165 453.355 77.3291 453.438V454.949ZM78.2607 458.166C78.2607 456.707 78.6064 455.535 79.2979 454.65C79.9893 453.76 80.8945 453.314 82.0137 453.314C83.127 453.314 84.0088 453.695 84.6592 454.457V449.5H86.2852V463H84.791L84.7119 461.98C84.0615 462.777 83.1562 463.176 81.9961 463.176C80.8945 463.176 79.9951 462.725 79.2979 461.822C78.6064 460.92 78.2607 459.742 78.2607 458.289V458.166ZM79.8867 458.351C79.8867 459.429 80.1094 460.272 80.5547 460.882C81 461.491 81.6152 461.796 82.4004 461.796C83.4316 461.796 84.1846 461.333 84.6592 460.407V456.039C84.1729 455.143 83.4258 454.694 82.418 454.694C81.6211 454.694 81 455.002 80.5547 455.617C80.1094 456.232 79.8867 457.144 79.8867 458.351ZM92.7627 463.176C91.4736 463.176 90.4248 462.754 89.6162 461.91C88.8076 461.061 88.4033 459.927 88.4033 458.509V458.21C88.4033 457.267 88.582 456.426 88.9395 455.688C89.3027 454.943 89.8066 454.363 90.4512 453.947C91.1016 453.525 91.8047 453.314 92.5605 453.314C93.7969 453.314 94.7578 453.722 95.4434 454.536C96.1289 455.351 96.4717 456.517 96.4717 458.034V458.711H90.0293C90.0527 459.648 90.3252 460.407 90.8467 460.987C91.374 461.562 92.042 461.849 92.8506 461.849C93.4248 461.849 93.9111 461.731 94.3096 461.497C94.708 461.263 95.0566 460.952 95.3555 460.565L96.3486 461.339C95.5518 462.563 94.3564 463.176 92.7627 463.176ZM92.5605 454.65C91.9043 454.65 91.3535 454.891 90.9082 455.371C90.4629 455.846 90.1875 456.514 90.082 457.375H94.8457V457.252C94.7988 456.426 94.5762 455.787 94.1777 455.336C93.7793 454.879 93.2402 454.65 92.5605 454.65ZM102.958 454.949C102.712 454.908 102.445 454.888 102.158 454.888C101.092 454.888 100.368 455.342 99.9873 456.25V463H98.3613V453.49H99.9434L99.9697 454.589C100.503 453.739 101.259 453.314 102.237 453.314C102.554 453.314 102.794 453.355 102.958 453.438V454.949ZM117.346 460.759L119.174 453.49H120.8L118.031 463H116.713L114.401 455.793L112.151 463H110.833L108.073 453.49H109.69L111.562 460.609L113.777 453.49H115.087L117.346 460.759ZM124.228 463H122.602V453.49H124.228V463ZM122.47 450.968C122.47 450.704 122.549 450.481 122.707 450.3C122.871 450.118 123.111 450.027 123.428 450.027C123.744 450.027 123.984 450.118 124.148 450.3C124.312 450.481 124.395 450.704 124.395 450.968C124.395 451.231 124.312 451.451 124.148 451.627C123.984 451.803 123.744 451.891 123.428 451.891C123.111 451.891 122.871 451.803 122.707 451.627C122.549 451.451 122.47 451.231 122.47 450.968ZM129.044 451.188V453.49H130.819V454.747H129.044V460.645C129.044 461.025 129.123 461.312 129.281 461.506C129.439 461.693 129.709 461.787 130.09 461.787C130.277 461.787 130.535 461.752 130.863 461.682V463C130.436 463.117 130.02 463.176 129.615 463.176C128.889 463.176 128.341 462.956 127.972 462.517C127.603 462.077 127.418 461.453 127.418 460.645V454.747H125.687V453.49H127.418V451.188H129.044ZM134.353 454.642C135.073 453.757 136.011 453.314 137.165 453.314C139.175 453.314 140.188 454.448 140.206 456.716V463H138.58V456.707C138.574 456.021 138.416 455.515 138.105 455.187C137.801 454.858 137.323 454.694 136.673 454.694C136.146 454.694 135.683 454.835 135.284 455.116C134.886 455.397 134.575 455.767 134.353 456.224V463H132.727V449.5H134.353V454.642ZM144.407 463H142.781V453.49H144.407V463ZM142.649 450.968C142.649 450.704 142.729 450.481 142.887 450.3C143.051 450.118 143.291 450.027 143.607 450.027C143.924 450.027 144.164 450.118 144.328 450.3C144.492 450.481 144.574 450.704 144.574 450.968C144.574 451.231 144.492 451.451 144.328 451.627C144.164 451.803 143.924 451.891 143.607 451.891C143.291 451.891 143.051 451.803 142.887 451.627C142.729 451.451 142.649 451.231 142.649 450.968ZM148.556 453.49L148.608 454.686C149.335 453.771 150.284 453.314 151.456 453.314C153.466 453.314 154.479 454.448 154.497 456.716V463H152.871V456.707C152.865 456.021 152.707 455.515 152.396 455.187C152.092 454.858 151.614 454.694 150.964 454.694C150.437 454.694 149.974 454.835 149.575 455.116C149.177 455.397 148.866 455.767 148.644 456.224V463H147.018V453.49H148.556ZM169.509 451.117L164.209 463H162.504L167.786 451.539H160.86V450.203H169.509V451.117ZM174.905 458.228H170.616V456.9H174.905V458.228ZM181.673 463H180.038V452.163L176.76 453.367V451.891L181.418 450.142H181.673V463ZM194.461 457.542C194.461 459.446 194.136 460.861 193.485 461.787C192.835 462.713 191.818 463.176 190.436 463.176C189.07 463.176 188.06 462.725 187.403 461.822C186.747 460.914 186.407 459.561 186.384 457.762V455.591C186.384 453.71 186.709 452.312 187.359 451.398C188.01 450.484 189.029 450.027 190.418 450.027C191.795 450.027 192.809 450.47 193.459 451.354C194.109 452.233 194.443 453.593 194.461 455.433V457.542ZM192.835 455.318C192.835 453.941 192.642 452.939 192.255 452.312C191.868 451.68 191.256 451.363 190.418 451.363C189.586 451.363 188.979 451.677 188.599 452.304C188.218 452.931 188.021 453.895 188.01 455.195V457.797C188.01 459.18 188.209 460.202 188.607 460.864C189.012 461.521 189.621 461.849 190.436 461.849C191.238 461.849 191.833 461.538 192.22 460.917C192.612 460.296 192.817 459.317 192.835 457.981V455.318ZM209.227 458.351C209.227 459.804 208.893 460.973 208.225 461.857C207.557 462.736 206.66 463.176 205.535 463.176C204.334 463.176 203.405 462.751 202.749 461.901L202.67 463H201.176V449.5H202.802V454.536C203.458 453.722 204.363 453.314 205.518 453.314C206.672 453.314 207.577 453.751 208.233 454.624C208.896 455.497 209.227 456.692 209.227 458.21V458.351ZM207.601 458.166C207.601 457.059 207.387 456.203 206.959 455.6C206.531 454.996 205.916 454.694 205.113 454.694C204.041 454.694 203.271 455.192 202.802 456.188V460.302C203.3 461.298 204.076 461.796 205.131 461.796C205.91 461.796 206.517 461.494 206.95 460.891C207.384 460.287 207.601 459.379 207.601 458.166ZM217.154 462.06C216.521 462.804 215.593 463.176 214.368 463.176C213.354 463.176 212.581 462.883 212.048 462.297C211.521 461.705 211.254 460.832 211.248 459.678V453.49H212.874V459.634C212.874 461.075 213.46 461.796 214.632 461.796C215.874 461.796 216.7 461.333 217.11 460.407V453.49H218.736V463H217.189L217.154 462.06ZM226.752 460.478C226.752 460.038 226.585 459.698 226.251 459.458C225.923 459.212 225.346 459.001 224.52 458.825C223.699 458.649 223.046 458.438 222.56 458.192C222.079 457.946 221.722 457.653 221.487 457.313C221.259 456.974 221.145 456.569 221.145 456.101C221.145 455.321 221.473 454.662 222.129 454.123C222.791 453.584 223.635 453.314 224.66 453.314C225.738 453.314 226.611 453.593 227.279 454.149C227.953 454.706 228.29 455.418 228.29 456.285H226.655C226.655 455.84 226.465 455.456 226.084 455.134C225.709 454.812 225.234 454.65 224.66 454.65C224.068 454.65 223.605 454.779 223.271 455.037C222.938 455.295 222.771 455.632 222.771 456.048C222.771 456.44 222.926 456.736 223.236 456.936C223.547 457.135 224.106 457.325 224.915 457.507C225.729 457.688 226.389 457.905 226.893 458.157C227.396 458.409 227.769 458.714 228.009 459.071C228.255 459.423 228.378 459.854 228.378 460.363C228.378 461.213 228.038 461.896 227.358 462.411C226.679 462.921 225.797 463.176 224.713 463.176C223.951 463.176 223.277 463.041 222.691 462.771C222.105 462.502 221.646 462.127 221.312 461.646C220.983 461.16 220.819 460.636 220.819 460.073H222.445C222.475 460.618 222.691 461.052 223.096 461.374C223.506 461.69 224.045 461.849 224.713 461.849C225.328 461.849 225.82 461.726 226.189 461.479C226.564 461.228 226.752 460.894 226.752 460.478ZM232.263 463H230.637V453.49H232.263V463ZM230.505 450.968C230.505 450.704 230.584 450.481 230.742 450.3C230.906 450.118 231.146 450.027 231.463 450.027C231.779 450.027 232.02 450.118 232.184 450.3C232.348 450.481 232.43 450.704 232.43 450.968C232.43 451.231 232.348 451.451 232.184 451.627C232.02 451.803 231.779 451.891 231.463 451.891C231.146 451.891 230.906 451.803 230.742 451.627C230.584 451.451 230.505 451.231 230.505 450.968ZM236.411 453.49L236.464 454.686C237.19 453.771 238.14 453.314 239.312 453.314C241.321 453.314 242.335 454.448 242.353 456.716V463H240.727V456.707C240.721 456.021 240.562 455.515 240.252 455.187C239.947 454.858 239.47 454.694 238.819 454.694C238.292 454.694 237.829 454.835 237.431 455.116C237.032 455.397 236.722 455.767 236.499 456.224V463H234.873V453.49H236.411ZM248.751 463.176C247.462 463.176 246.413 462.754 245.604 461.91C244.796 461.061 244.392 459.927 244.392 458.509V458.21C244.392 457.267 244.57 456.426 244.928 455.688C245.291 454.943 245.795 454.363 246.439 453.947C247.09 453.525 247.793 453.314 248.549 453.314C249.785 453.314 250.746 453.722 251.432 454.536C252.117 455.351 252.46 456.517 252.46 458.034V458.711H246.018C246.041 459.648 246.313 460.407 246.835 460.987C247.362 461.562 248.03 461.849 248.839 461.849C249.413 461.849 249.899 461.731 250.298 461.497C250.696 461.263 251.045 460.952 251.344 460.565L252.337 461.339C251.54 462.563 250.345 463.176 248.751 463.176ZM248.549 454.65C247.893 454.65 247.342 454.891 246.896 455.371C246.451 455.846 246.176 456.514 246.07 457.375H250.834V457.252C250.787 456.426 250.564 455.787 250.166 455.336C249.768 454.879 249.229 454.65 248.549 454.65ZM259.887 460.478C259.887 460.038 259.72 459.698 259.386 459.458C259.058 459.212 258.48 459.001 257.654 458.825C256.834 458.649 256.181 458.438 255.694 458.192C255.214 457.946 254.856 457.653 254.622 457.313C254.394 456.974 254.279 456.569 254.279 456.101C254.279 455.321 254.607 454.662 255.264 454.123C255.926 453.584 256.77 453.314 257.795 453.314C258.873 453.314 259.746 453.593 260.414 454.149C261.088 454.706 261.425 455.418 261.425 456.285H259.79C259.79 455.84 259.6 455.456 259.219 455.134C258.844 454.812 258.369 454.65 257.795 454.65C257.203 454.65 256.74 454.779 256.406 455.037C256.072 455.295 255.905 455.632 255.905 456.048C255.905 456.44 256.061 456.736 256.371 456.936C256.682 457.135 257.241 457.325 258.05 457.507C258.864 457.688 259.523 457.905 260.027 458.157C260.531 458.409 260.903 458.714 261.144 459.071C261.39 459.423 261.513 459.854 261.513 460.363C261.513 461.213 261.173 461.896 260.493 462.411C259.813 462.921 258.932 463.176 257.848 463.176C257.086 463.176 256.412 463.041 255.826 462.771C255.24 462.502 254.78 462.127 254.446 461.646C254.118 461.16 253.954 460.636 253.954 460.073H255.58C255.609 460.618 255.826 461.052 256.23 461.374C256.641 461.69 257.18 461.849 257.848 461.849C258.463 461.849 258.955 461.726 259.324 461.479C259.699 461.228 259.887 460.894 259.887 460.478ZM269.168 460.478C269.168 460.038 269.001 459.698 268.667 459.458C268.339 459.212 267.762 459.001 266.936 458.825C266.115 458.649 265.462 458.438 264.976 458.192C264.495 457.946 264.138 457.653 263.903 457.313C263.675 456.974 263.561 456.569 263.561 456.101C263.561 455.321 263.889 454.662 264.545 454.123C265.207 453.584 266.051 453.314 267.076 453.314C268.154 453.314 269.027 453.593 269.695 454.149C270.369 454.706 270.706 455.418 270.706 456.285H269.071C269.071 455.84 268.881 455.456 268.5 455.134C268.125 454.812 267.65 454.65 267.076 454.65C266.484 454.65 266.021 454.779 265.688 455.037C265.354 455.295 265.187 455.632 265.187 456.048C265.187 456.44 265.342 456.736 265.652 456.936C265.963 457.135 266.522 457.325 267.331 457.507C268.146 457.688 268.805 457.905 269.309 458.157C269.812 458.409 270.185 458.714 270.425 459.071C270.671 459.423 270.794 459.854 270.794 460.363C270.794 461.213 270.454 461.896 269.774 462.411C269.095 462.921 268.213 463.176 267.129 463.176C266.367 463.176 265.693 463.041 265.107 462.771C264.521 462.502 264.062 462.127 263.728 461.646C263.399 461.16 263.235 460.636 263.235 460.073H264.861C264.891 460.618 265.107 461.052 265.512 461.374C265.922 461.69 266.461 461.849 267.129 461.849C267.744 461.849 268.236 461.726 268.605 461.479C268.98 461.228 269.168 460.894 269.168 460.478ZM276.981 458.166C276.981 456.707 277.327 455.535 278.019 454.65C278.71 453.76 279.615 453.314 280.734 453.314C281.848 453.314 282.729 453.695 283.38 454.457V449.5H285.006V463H283.512L283.433 461.98C282.782 462.777 281.877 463.176 280.717 463.176C279.615 463.176 278.716 462.725 278.019 461.822C277.327 460.92 276.981 459.742 276.981 458.289V458.166ZM278.607 458.351C278.607 459.429 278.83 460.272 279.275 460.882C279.721 461.491 280.336 461.796 281.121 461.796C282.152 461.796 282.905 461.333 283.38 460.407V456.039C282.894 455.143 282.146 454.694 281.139 454.694C280.342 454.694 279.721 455.002 279.275 455.617C278.83 456.232 278.607 457.144 278.607 458.351ZM293.408 463C293.314 462.812 293.238 462.479 293.18 461.998C292.424 462.783 291.521 463.176 290.473 463.176C289.535 463.176 288.765 462.912 288.161 462.385C287.563 461.852 287.265 461.178 287.265 460.363C287.265 459.373 287.64 458.605 288.39 458.061C289.146 457.51 290.206 457.234 291.571 457.234H293.153V456.487C293.153 455.919 292.983 455.468 292.644 455.134C292.304 454.794 291.803 454.624 291.141 454.624C290.561 454.624 290.074 454.771 289.682 455.063C289.289 455.356 289.093 455.711 289.093 456.127H287.458C287.458 455.652 287.625 455.195 287.959 454.756C288.299 454.311 288.756 453.959 289.33 453.701C289.91 453.443 290.546 453.314 291.237 453.314C292.333 453.314 293.191 453.59 293.812 454.141C294.434 454.686 294.756 455.438 294.779 456.399V460.776C294.779 461.649 294.891 462.344 295.113 462.859V463H293.408ZM290.71 461.761C291.22 461.761 291.703 461.629 292.16 461.365C292.617 461.102 292.948 460.759 293.153 460.337V458.386H291.879C289.887 458.386 288.891 458.969 288.891 460.135C288.891 460.645 289.061 461.043 289.4 461.33C289.74 461.617 290.177 461.761 290.71 461.761ZM300.299 460.618L302.514 453.49H304.254L300.431 464.468C299.839 466.05 298.898 466.841 297.609 466.841L297.302 466.814L296.695 466.7V465.382L297.135 465.417C297.686 465.417 298.113 465.306 298.418 465.083C298.729 464.86 298.983 464.453 299.183 463.861L299.543 462.895L296.15 453.49H297.926L300.299 460.618ZM311.25 460.478C311.25 460.038 311.083 459.698 310.749 459.458C310.421 459.212 309.844 459.001 309.018 458.825C308.197 458.649 307.544 458.438 307.058 458.192C306.577 457.946 306.22 457.653 305.985 457.313C305.757 456.974 305.643 456.569 305.643 456.101C305.643 455.321 305.971 454.662 306.627 454.123C307.289 453.584 308.133 453.314 309.158 453.314C310.236 453.314 311.109 453.593 311.777 454.149C312.451 454.706 312.788 455.418 312.788 456.285H311.153C311.153 455.84 310.963 455.456 310.582 455.134C310.207 454.812 309.732 454.65 309.158 454.65C308.566 454.65 308.104 454.779 307.77 455.037C307.436 455.295 307.269 455.632 307.269 456.048C307.269 456.44 307.424 456.736 307.734 456.936C308.045 457.135 308.604 457.325 309.413 457.507C310.228 457.688 310.887 457.905 311.391 458.157C311.895 458.409 312.267 458.714 312.507 459.071C312.753 459.423 312.876 459.854 312.876 460.363C312.876 461.213 312.536 461.896 311.856 462.411C311.177 462.921 310.295 463.176 309.211 463.176C308.449 463.176 307.775 463.041 307.189 462.771C306.604 462.502 306.144 462.127 305.81 461.646C305.481 461.16 305.317 460.636 305.317 460.073H306.943C306.973 460.618 307.189 461.052 307.594 461.374C308.004 461.69 308.543 461.849 309.211 461.849C309.826 461.849 310.318 461.726 310.688 461.479C311.062 461.228 311.25 460.894 311.25 460.478Z" fill="black"/>
<rect x="83.5" y="533.5" width="210" height="47" fill="#C4C4C4" stroke="black"/>
<path d="M146.836 565H144.763V557.771H136.878V565H134.815V549.359H136.878V556.084H144.763V549.359H146.836V565ZM149.661 559.081C149.661 557.942 149.883 556.918 150.327 556.009C150.778 555.099 151.401 554.397 152.196 553.903C152.998 553.409 153.911 553.162 154.936 553.162C156.518 553.162 157.797 553.71 158.771 554.806C159.752 555.901 160.242 557.359 160.242 559.178V559.317C160.242 560.449 160.024 561.466 159.587 562.368C159.157 563.263 158.538 563.962 157.729 564.463C156.926 564.964 156.003 565.215 154.957 565.215C153.382 565.215 152.103 564.667 151.122 563.571C150.148 562.476 149.661 561.025 149.661 559.221V559.081ZM151.659 559.317C151.659 560.606 151.956 561.641 152.551 562.422C153.152 563.202 153.954 563.593 154.957 563.593C155.967 563.593 156.769 563.199 157.363 562.411C157.958 561.616 158.255 560.506 158.255 559.081C158.255 557.806 157.951 556.775 157.342 555.987C156.74 555.192 155.938 554.795 154.936 554.795C153.954 554.795 153.163 555.185 152.562 555.966C151.96 556.746 151.659 557.864 151.659 559.317ZM164.604 553.377L164.657 554.666C165.509 553.663 166.659 553.162 168.105 553.162C169.731 553.162 170.838 553.785 171.425 555.031C171.812 554.473 172.313 554.021 172.929 553.678C173.552 553.334 174.286 553.162 175.131 553.162C177.68 553.162 178.977 554.512 179.02 557.212V565H177.032V557.33C177.032 556.499 176.842 555.88 176.463 555.472C176.083 555.056 175.446 554.849 174.551 554.849C173.813 554.849 173.201 555.071 172.714 555.515C172.227 555.951 171.944 556.542 171.865 557.287V565H169.867V557.384C169.867 555.694 169.04 554.849 167.386 554.849C166.082 554.849 165.191 555.404 164.711 556.514V565H162.724V553.377H164.604ZM186.851 565.215C185.275 565.215 183.993 564.699 183.005 563.668C182.017 562.63 181.522 561.244 181.522 559.511V559.146C181.522 557.993 181.741 556.965 182.178 556.062C182.622 555.153 183.238 554.444 184.025 553.936C184.82 553.42 185.68 553.162 186.604 553.162C188.115 553.162 189.289 553.66 190.127 554.655C190.965 555.651 191.384 557.076 191.384 558.931V559.758H183.51C183.538 560.904 183.871 561.831 184.509 562.54C185.153 563.242 185.97 563.593 186.958 563.593C187.66 563.593 188.254 563.45 188.741 563.163C189.228 562.877 189.654 562.497 190.02 562.024L191.233 562.97C190.259 564.466 188.799 565.215 186.851 565.215ZM186.604 554.795C185.801 554.795 185.128 555.089 184.584 555.676C184.04 556.256 183.703 557.072 183.574 558.125H189.396V557.975C189.339 556.965 189.067 556.184 188.58 555.633C188.093 555.074 187.434 554.795 186.604 554.795ZM201.524 558.877V565H199.462V549.359H205.23C206.942 549.359 208.281 549.796 209.248 550.67C210.222 551.544 210.709 552.7 210.709 554.14C210.709 555.658 210.233 556.829 209.28 557.652C208.335 558.469 206.978 558.877 205.209 558.877H201.524ZM201.524 557.19H205.23C206.333 557.19 207.178 556.933 207.766 556.417C208.353 555.894 208.646 555.142 208.646 554.161C208.646 553.23 208.353 552.485 207.766 551.927C207.178 551.368 206.373 551.078 205.349 551.057H201.524V557.19ZM220.076 565C219.962 564.771 219.868 564.363 219.797 563.775C218.873 564.735 217.77 565.215 216.488 565.215C215.342 565.215 214.401 564.893 213.663 564.248C212.933 563.596 212.567 562.773 212.567 561.777C212.567 560.567 213.026 559.629 213.942 558.963C214.866 558.29 216.162 557.953 217.831 557.953H219.765V557.04C219.765 556.345 219.557 555.794 219.142 555.386C218.726 554.97 218.114 554.763 217.305 554.763C216.596 554.763 216.001 554.942 215.521 555.3C215.042 555.658 214.802 556.091 214.802 556.6H212.804C212.804 556.02 213.008 555.461 213.416 554.924C213.831 554.38 214.39 553.95 215.092 553.635C215.801 553.32 216.578 553.162 217.423 553.162C218.762 553.162 219.811 553.499 220.57 554.172C221.329 554.838 221.723 555.758 221.752 556.933V562.282C221.752 563.349 221.888 564.198 222.16 564.828V565H220.076ZM216.778 563.485C217.401 563.485 217.992 563.324 218.551 563.002C219.109 562.68 219.514 562.261 219.765 561.745V559.36H218.207C215.772 559.36 214.555 560.073 214.555 561.498C214.555 562.121 214.762 562.608 215.178 562.959C215.593 563.31 216.127 563.485 216.778 563.485ZM224.395 559.092C224.395 557.28 224.813 555.84 225.651 554.773C226.489 553.699 227.599 553.162 228.981 553.162C230.399 553.162 231.506 553.663 232.301 554.666L232.397 553.377H234.213V564.721C234.213 566.225 233.765 567.41 232.87 568.276C231.982 569.143 230.786 569.576 229.282 569.576C228.444 569.576 227.624 569.397 226.822 569.039C226.02 568.681 225.408 568.19 224.985 567.567L226.017 566.375C226.869 567.428 227.911 567.954 229.143 567.954C230.109 567.954 230.861 567.682 231.398 567.138C231.943 566.593 232.215 565.827 232.215 564.839V563.84C231.42 564.757 230.335 565.215 228.96 565.215C227.599 565.215 226.496 564.667 225.651 563.571C224.813 562.476 224.395 560.982 224.395 559.092ZM226.393 559.317C226.393 560.628 226.661 561.659 227.198 562.411C227.735 563.156 228.487 563.528 229.454 563.528C230.707 563.528 231.628 562.959 232.215 561.82V556.514C231.606 555.404 230.693 554.849 229.476 554.849C228.509 554.849 227.753 555.225 227.209 555.977C226.665 556.729 226.393 557.842 226.393 559.317ZM242.044 565.215C240.468 565.215 239.187 564.699 238.198 563.668C237.21 562.63 236.716 561.244 236.716 559.511V559.146C236.716 557.993 236.934 556.965 237.371 556.062C237.815 555.153 238.431 554.444 239.219 553.936C240.014 553.42 240.873 553.162 241.797 553.162C243.308 553.162 244.482 553.66 245.32 554.655C246.158 555.651 246.577 557.076 246.577 558.931V559.758H238.703C238.732 560.904 239.065 561.831 239.702 562.54C240.347 563.242 241.163 563.593 242.151 563.593C242.853 563.593 243.448 563.45 243.935 563.163C244.422 562.877 244.848 562.497 245.213 562.024L246.427 562.97C245.453 564.466 243.992 565.215 242.044 565.215ZM241.797 554.795C240.995 554.795 240.322 555.089 239.777 555.676C239.233 556.256 238.896 557.072 238.768 558.125H244.59V557.975C244.533 556.965 244.26 556.184 243.773 555.633C243.286 555.074 242.628 554.795 241.797 554.795Z" fill="black"/>
<rect x="0.5" y="0.5" width="376" height="835" stroke="black"/>
</svg>
