<svg width="415" height="319" viewBox="0 0 415 319" fill="none" xmlns="http://www.w3.org/2000/svg">
<g clip-path="url(#clip0)">
<rect width="415" height="319" fill="white"/>
<rect x="196" width="5" height="319" fill="#F30101"/>
<rect x="170" width="20" height="319" fill="#1401F3"/>
<rect x="206" width="20" height="321" fill="#1401F3"/>
<path d="M227.766 176.844V257H200.766V52.25H276.281C298.688 52.25 316.219 57.9688 328.875 69.4062C341.625 80.8437 348 95.9844 348 114.828C348 134.703 341.766 150.031 329.297 160.812C316.922 171.5 299.156 176.844 276 176.844H227.766ZM227.766 154.766H276.281C290.719 154.766 301.781 151.391 309.469 144.641C317.156 137.797 321 127.953 321 115.109C321 102.922 317.156 93.1719 309.469 85.8594C301.781 78.5469 291.234 74.75 277.828 74.4688H227.766V154.766Z" fill="black"/>
<path d="M144.203 147.203L169.234 121.188V52H196.234V256.75H169.234V155.5L78.25 256.75H45.625L126.203 166.328L39.2969 52H71.6406L144.203 147.203Z" fill="black"/>
<path d="M198 134L203.613 151.275H221.776L207.082 161.951L212.695 179.225L198 168.549L183.305 179.225L188.918 161.951L174.224 151.275H192.387L198 134Z" fill="white"/>
</g>
<defs>
<clipPath id="clip0">
<rect width="415" height="319" fill="white"/>
</clipPath>
</defs>
</svg>
