<svg width="377" height="814" viewBox="0 0 377 814" fill="none" xmlns="http://www.w3.org/2000/svg">
<rect x="0.5" y="0.5" width="376" height="813" fill="white"/>
<path d="M38.2145 18.1675C35.9221 18.1675 34.2888 19.7349 34.2888 21.8809V21.8955C34.2888 23.9023 35.7097 25.3818 37.7385 25.3818C39.1887 25.3818 40.1115 24.6421 40.4997 23.8071H40.6462C40.6462 23.8877 40.6389 23.9683 40.6389 24.0488C40.5583 26.0703 39.8478 27.7109 38.1706 27.7109C37.2404 27.7109 36.5886 27.2275 36.3103 26.4878L36.2883 26.4146H34.4279L34.4426 26.4951C34.7795 28.1138 36.2297 29.2637 38.1706 29.2637C40.8293 29.2637 42.4333 27.1543 42.4333 23.5947V23.5801C42.4333 19.7715 40.4704 18.1675 38.2145 18.1675ZM38.2072 23.9316C37.0061 23.9316 36.1345 23.0527 36.1345 21.8296V21.8149C36.1345 20.6357 37.0646 19.7056 38.2292 19.7056C39.4011 19.7056 40.3166 20.6504 40.3166 21.8589V21.8735C40.3166 23.0674 39.4011 23.9316 38.2072 23.9316ZM45.4585 22.1519C46.1323 22.1519 46.623 21.6392 46.623 20.9946C46.623 20.3428 46.1323 19.8374 45.4585 19.8374C44.792 19.8374 44.2939 20.3428 44.2939 20.9946C44.2939 21.6392 44.792 22.1519 45.4585 22.1519ZM45.4585 27.5864C46.1323 27.5864 46.623 27.0811 46.623 26.4292C46.623 25.7773 46.1323 25.272 45.4585 25.272C44.792 25.272 44.2939 25.7773 44.2939 26.4292C44.2939 27.0811 44.792 27.5864 45.4585 27.5864ZM53.6106 29H55.4197V26.9712H56.8406V25.4111H55.4197V18.4312H52.7464C51.3108 20.6138 49.8094 23.0454 48.4397 25.4258V26.9712H53.6106V29ZM50.1976 25.4551V25.3452C51.2229 23.5508 52.4461 21.5952 53.5301 19.9399H53.6399V25.4551H50.1976ZM60.9205 29H62.8102V18.4312H60.9278L58.1666 20.3721V22.1519L60.796 20.2915H60.9205V29Z" fill="black"/>
<path opacity="0.35" d="M356.666 18.8333H340C338.803 18.8333 337.833 19.8033 337.833 20.9999V26.9999C337.833 28.1965 338.803 29.1666 340 29.1666H356.666C357.863 29.1666 358.833 28.1965 358.833 26.9999V20.9999C358.833 19.8033 357.863 18.8333 356.666 18.8333Z" stroke="black"/>
<path opacity="0.4" d="M360.333 22V26C361.138 25.6612 361.661 24.8731 361.661 24C361.661 23.1269 361.138 22.3388 360.333 22Z" fill="black"/>
<path d="M356 20.3333H340.666C339.93 20.3333 339.333 20.9302 339.333 21.6666V26.3333C339.333 27.0696 339.93 27.6666 340.666 27.6666H356C356.736 27.6666 357.333 27.0696 357.333 26.3333V21.6666C357.333 20.9302 356.736 20.3333 356 20.3333Z" fill="black"/>
<path fill-rule="evenodd" clip-rule="evenodd" d="M324.667 20.6152C326.892 20.6153 329.031 21.4694 330.644 23.001C330.765 23.1192 330.959 23.1177 331.079 22.9976L332.239 21.8273C332.3 21.7664 332.334 21.6839 332.333 21.598C332.333 21.5122 332.298 21.4301 332.237 21.3699C328.005 17.3176 321.329 17.3176 317.097 21.3699C317.035 21.43 317.001 21.5121 317 21.598C316.999 21.6838 317.033 21.7663 317.094 21.8273L318.255 22.9976C318.374 23.1179 318.568 23.1194 318.69 23.001C320.302 21.4693 322.442 20.6152 324.667 20.6152ZM324.667 24.4227C325.889 24.4227 327.068 24.8766 327.974 25.6964C328.097 25.8127 328.29 25.8102 328.409 25.6907L329.569 24.5204C329.63 24.459 329.663 24.3757 329.663 24.2892C329.662 24.2027 329.626 24.1201 329.564 24.0599C326.805 21.4955 322.532 21.4955 319.773 24.0599C319.71 24.1201 319.675 24.2027 319.674 24.2893C319.673 24.3758 319.707 24.4591 319.768 24.5204L320.927 25.6907C321.047 25.8102 321.24 25.8127 321.362 25.6964C322.268 24.8772 323.446 24.4233 324.667 24.4227ZM326.989 26.9846C326.991 27.0714 326.957 27.155 326.895 27.2158L324.89 29.2378C324.831 29.2972 324.751 29.3307 324.667 29.3307C324.583 29.3307 324.503 29.2972 324.445 29.2378L322.439 27.2158C322.377 27.155 322.343 27.0713 322.345 26.9845C322.347 26.8977 322.384 26.8156 322.449 26.7574C323.729 25.6751 325.605 25.6751 326.886 26.7574C326.95 26.8156 326.988 26.8978 326.989 26.9846Z" fill="black"/>
<path fill-rule="evenodd" clip-rule="evenodd" d="M311 18.6667H310C309.448 18.6667 309 19.1144 309 19.6667V28.3333C309 28.8856 309.448 29.3333 310 29.3333H311C311.552 29.3333 312 28.8856 312 28.3333V19.6667C312 19.1144 311.552 18.6667 311 18.6667ZM305.333 21H306.333C306.886 21 307.333 21.4477 307.333 22V28.3333C307.333 28.8856 306.886 29.3333 306.333 29.3333H305.333C304.781 29.3333 304.333 28.8856 304.333 28.3333V22C304.333 21.4477 304.781 21 305.333 21ZM301.667 23.3333H300.667C300.114 23.3333 299.667 23.781 299.667 24.3333V28.3333C299.667 28.8856 300.114 29.3333 300.667 29.3333H301.667C302.219 29.3333 302.667 28.8856 302.667 28.3333V24.3333C302.667 23.781 302.219 23.3333 301.667 23.3333ZM297 25.3333H296C295.448 25.3333 295 25.781 295 26.3333V28.3333C295 28.8856 295.448 29.3333 296 29.3333H297C297.552 29.3333 298 28.8856 298 28.3333V26.3333C298 25.781 297.552 25.3333 297 25.3333Z" fill="black"/>
<path d="M253.5 800H124.5C123.119 800 122 801.119 122 802.5C122 803.881 123.119 805 124.5 805H253.5C254.881 805 256 803.881 256 802.5C256 801.119 254.881 800 253.5 800Z" fill="black"/>
<path d="M49 124L36 137.5L49 151" stroke="black" stroke-width="5"/>
<path d="M70.9424 137.628V142.312C70.7842 142.547 70.5322 142.811 70.1865 143.104C69.8408 143.391 69.3633 143.643 68.7539 143.859C68.1504 144.07 67.3711 144.176 66.416 144.176C65.6367 144.176 64.9189 144.041 64.2627 143.771C63.6123 143.496 63.0469 143.098 62.5664 142.576C62.0918 142.049 61.7227 141.41 61.459 140.66C61.2012 139.904 61.0723 139.049 61.0723 138.094V137.101C61.0723 136.146 61.1836 135.293 61.4062 134.543C61.6348 133.793 61.9688 133.157 62.4082 132.636C62.8477 132.108 63.3867 131.71 64.0254 131.44C64.6641 131.165 65.3965 131.027 66.2227 131.027C67.2012 131.027 68.0186 131.197 68.6748 131.537C69.3369 131.871 69.8525 132.334 70.2217 132.926C70.5967 133.518 70.8369 134.191 70.9424 134.947H69.2461C69.1699 134.484 69.0176 134.062 68.7891 133.682C68.5664 133.301 68.2471 132.996 67.8311 132.768C67.415 132.533 66.8789 132.416 66.2227 132.416C65.6309 132.416 65.1182 132.524 64.6846 132.741C64.251 132.958 63.8936 133.269 63.6123 133.673C63.3311 134.077 63.1201 134.566 62.9795 135.141C62.8447 135.715 62.7773 136.362 62.7773 137.083V138.094C62.7773 138.832 62.8623 139.491 63.0322 140.071C63.208 140.651 63.457 141.146 63.7793 141.557C64.1016 141.961 64.4854 142.269 64.9307 142.479C65.3818 142.69 65.8799 142.796 66.4248 142.796C67.0283 142.796 67.5176 142.746 67.8926 142.646C68.2676 142.541 68.5605 142.418 68.7715 142.277C68.9824 142.131 69.1436 141.993 69.2549 141.864V138.999H66.293V137.628H70.9424ZM73.0781 139.351V139.148C73.0781 138.463 73.1777 137.827 73.377 137.241C73.5762 136.649 73.8633 136.137 74.2383 135.703C74.6133 135.264 75.0674 134.924 75.6006 134.684C76.1338 134.438 76.7314 134.314 77.3936 134.314C78.0615 134.314 78.6621 134.438 79.1953 134.684C79.7344 134.924 80.1914 135.264 80.5664 135.703C80.9473 136.137 81.2373 136.649 81.4365 137.241C81.6357 137.827 81.7354 138.463 81.7354 139.148V139.351C81.7354 140.036 81.6357 140.672 81.4365 141.258C81.2373 141.844 80.9473 142.356 80.5664 142.796C80.1914 143.229 79.7373 143.569 79.2041 143.815C78.6768 144.056 78.0791 144.176 77.4111 144.176C76.7432 144.176 76.1426 144.056 75.6094 143.815C75.0762 143.569 74.6191 143.229 74.2383 142.796C73.8633 142.356 73.5762 141.844 73.377 141.258C73.1777 140.672 73.0781 140.036 73.0781 139.351ZM74.7041 139.148V139.351C74.7041 139.825 74.7598 140.273 74.8711 140.695C74.9824 141.111 75.1494 141.48 75.3721 141.803C75.6006 142.125 75.8848 142.38 76.2246 142.567C76.5645 142.749 76.96 142.84 77.4111 142.84C77.8564 142.84 78.2461 142.749 78.5801 142.567C78.9199 142.38 79.2012 142.125 79.4238 141.803C79.6465 141.48 79.8135 141.111 79.9248 140.695C80.042 140.273 80.1006 139.825 80.1006 139.351V139.148C80.1006 138.68 80.042 138.237 79.9248 137.821C79.8135 137.399 79.6436 137.027 79.415 136.705C79.1924 136.377 78.9111 136.119 78.5713 135.932C78.2373 135.744 77.8447 135.65 77.3936 135.65C76.9482 135.65 76.5557 135.744 76.2158 135.932C75.8818 136.119 75.6006 136.377 75.3721 136.705C75.1494 137.027 74.9824 137.399 74.8711 137.821C74.7598 138.237 74.7041 138.68 74.7041 139.148ZM93.0469 138.015H89.8037L89.7861 136.652H92.7305C93.2168 136.652 93.6416 136.57 94.0049 136.406C94.3682 136.242 94.6494 136.008 94.8486 135.703C95.0537 135.393 95.1562 135.023 95.1562 134.596C95.1562 134.127 95.0654 133.746 94.8838 133.453C94.708 133.154 94.4355 132.938 94.0664 132.803C93.7031 132.662 93.2402 132.592 92.6777 132.592H90.1816V144H88.4854V131.203H92.6777C93.334 131.203 93.9199 131.271 94.4355 131.405C94.9512 131.534 95.3877 131.739 95.7451 132.021C96.1084 132.296 96.3838 132.647 96.5713 133.075C96.7588 133.503 96.8525 134.016 96.8525 134.613C96.8525 135.141 96.7178 135.618 96.4482 136.046C96.1787 136.468 95.8037 136.813 95.3232 137.083C94.8486 137.353 94.292 137.525 93.6533 137.602L93.0469 138.015ZM92.9678 144H89.1357L90.0938 142.62H92.9678C93.5068 142.62 93.9639 142.526 94.3389 142.339C94.7197 142.151 95.0098 141.888 95.209 141.548C95.4082 141.202 95.5078 140.795 95.5078 140.326C95.5078 139.852 95.4229 139.441 95.2529 139.096C95.083 138.75 94.8164 138.483 94.4531 138.296C94.0898 138.108 93.6211 138.015 93.0469 138.015H90.6299L90.6475 136.652H93.9521L94.3125 137.145C94.9277 137.197 95.4492 137.373 95.877 137.672C96.3047 137.965 96.6299 138.34 96.8525 138.797C97.0811 139.254 97.1953 139.758 97.1953 140.309C97.1953 141.105 97.0195 141.779 96.668 142.33C96.3223 142.875 95.833 143.291 95.2002 143.578C94.5674 143.859 93.8232 144 92.9678 144ZM105.062 142.374V137.479C105.062 137.104 104.985 136.778 104.833 136.503C104.687 136.222 104.464 136.005 104.165 135.853C103.866 135.7 103.497 135.624 103.058 135.624C102.647 135.624 102.287 135.694 101.977 135.835C101.672 135.976 101.432 136.16 101.256 136.389C101.086 136.617 101.001 136.863 101.001 137.127H99.375C99.375 136.787 99.4629 136.45 99.6387 136.116C99.8145 135.782 100.066 135.48 100.395 135.211C100.729 134.936 101.127 134.719 101.59 134.561C102.059 134.396 102.58 134.314 103.154 134.314C103.846 134.314 104.455 134.432 104.982 134.666C105.516 134.9 105.932 135.255 106.23 135.729C106.535 136.198 106.688 136.787 106.688 137.496V141.926C106.688 142.242 106.714 142.579 106.767 142.937C106.825 143.294 106.91 143.602 107.021 143.859V144H105.325C105.243 143.812 105.179 143.563 105.132 143.253C105.085 142.937 105.062 142.644 105.062 142.374ZM105.343 138.234L105.36 139.377H103.717C103.254 139.377 102.841 139.415 102.478 139.491C102.114 139.562 101.81 139.67 101.563 139.816C101.317 139.963 101.13 140.147 101.001 140.37C100.872 140.587 100.808 140.842 100.808 141.135C100.808 141.434 100.875 141.706 101.01 141.952C101.145 142.198 101.347 142.395 101.616 142.541C101.892 142.682 102.229 142.752 102.627 142.752C103.125 142.752 103.564 142.646 103.945 142.436C104.326 142.225 104.628 141.967 104.851 141.662C105.079 141.357 105.202 141.062 105.22 140.774L105.914 141.557C105.873 141.803 105.762 142.075 105.58 142.374C105.398 142.673 105.155 142.96 104.851 143.235C104.552 143.505 104.194 143.73 103.778 143.912C103.368 144.088 102.905 144.176 102.39 144.176C101.745 144.176 101.18 144.05 100.693 143.798C100.213 143.546 99.8379 143.209 99.5684 142.787C99.3047 142.359 99.1729 141.882 99.1729 141.354C99.1729 140.845 99.2725 140.396 99.4717 140.01C99.6709 139.617 99.958 139.292 100.333 139.034C100.708 138.771 101.159 138.571 101.687 138.437C102.214 138.302 102.803 138.234 103.453 138.234H105.343ZM113.051 142.84C113.438 142.84 113.795 142.761 114.123 142.603C114.451 142.444 114.721 142.228 114.932 141.952C115.143 141.671 115.263 141.352 115.292 140.994H116.839C116.81 141.557 116.619 142.081 116.268 142.567C115.922 143.048 115.468 143.438 114.905 143.736C114.343 144.029 113.725 144.176 113.051 144.176C112.336 144.176 111.712 144.05 111.179 143.798C110.651 143.546 110.212 143.2 109.86 142.761C109.515 142.321 109.254 141.817 109.078 141.249C108.908 140.675 108.823 140.068 108.823 139.43V139.061C108.823 138.422 108.908 137.818 109.078 137.25C109.254 136.676 109.515 136.169 109.86 135.729C110.212 135.29 110.651 134.944 111.179 134.692C111.712 134.44 112.336 134.314 113.051 134.314C113.795 134.314 114.445 134.467 115.002 134.771C115.559 135.07 115.995 135.48 116.312 136.002C116.634 136.518 116.81 137.104 116.839 137.76H115.292C115.263 137.367 115.151 137.013 114.958 136.696C114.771 136.38 114.513 136.128 114.185 135.94C113.862 135.747 113.484 135.65 113.051 135.65C112.553 135.65 112.134 135.75 111.794 135.949C111.46 136.143 111.193 136.406 110.994 136.74C110.801 137.068 110.66 137.435 110.572 137.839C110.49 138.237 110.449 138.645 110.449 139.061V139.43C110.449 139.846 110.49 140.256 110.572 140.66C110.654 141.064 110.792 141.431 110.985 141.759C111.185 142.087 111.451 142.351 111.785 142.55C112.125 142.743 112.547 142.84 113.051 142.84ZM120.302 130.5V144H118.667V130.5H120.302ZM126.111 134.49L121.963 138.929L119.643 141.337L119.511 139.605L121.172 137.619L124.125 134.49H126.111ZM124.626 144L121.233 139.465L122.077 138.015L126.542 144H124.626Z" fill="black"/>
<rect x="1" y="45" width="375" height="40" fill="#C4C4C4"/>
<path d="M170.493 71.0088V72.8486H161.962V71.0088H170.493ZM162.407 55.7861V72.8486H160.145V55.7861H162.407ZM185.146 63.7783V64.8564C185.146 66.1377 184.986 67.2861 184.666 68.3018C184.345 69.3174 183.884 70.1807 183.283 70.8916C182.681 71.6025 181.959 72.1455 181.115 72.5205C180.279 72.8955 179.341 73.083 178.302 73.083C177.295 73.083 176.369 72.8955 175.525 72.5205C174.689 72.1455 173.962 71.6025 173.345 70.8916C172.736 70.1807 172.263 69.3174 171.927 68.3018C171.591 67.2861 171.423 66.1377 171.423 64.8564V63.7783C171.423 62.4971 171.587 61.3525 171.916 60.3447C172.252 59.3291 172.724 58.4658 173.334 57.7549C173.943 57.0361 174.666 56.4893 175.502 56.1143C176.345 55.7393 177.271 55.5518 178.279 55.5518C179.318 55.5518 180.255 55.7393 181.091 56.1143C181.935 56.4893 182.658 57.0361 183.259 57.7549C183.869 58.4658 184.334 59.3291 184.654 60.3447C184.982 61.3525 185.146 62.4971 185.146 63.7783ZM182.908 64.8564V63.7549C182.908 62.7393 182.802 61.8408 182.591 61.0596C182.388 60.2783 182.087 59.6221 181.689 59.0908C181.291 58.5596 180.802 58.1572 180.224 57.8838C179.654 57.6104 179.005 57.4736 178.279 57.4736C177.576 57.4736 176.939 57.6104 176.369 57.8838C175.806 58.1572 175.322 58.5596 174.916 59.0908C174.517 59.6221 174.209 60.2783 173.99 61.0596C173.771 61.8408 173.662 62.7393 173.662 63.7549V64.8564C173.662 65.8799 173.771 66.7861 173.99 67.5752C174.209 68.3564 174.521 69.0166 174.927 69.5557C175.341 70.0869 175.83 70.4893 176.392 70.7627C176.962 71.0361 177.599 71.1729 178.302 71.1729C179.037 71.1729 179.689 71.0361 180.259 70.7627C180.83 70.4893 181.31 70.0869 181.701 69.5557C182.099 69.0166 182.4 68.3564 182.603 67.5752C182.806 66.7861 182.908 65.8799 182.908 64.8564ZM200.842 64.3525V70.5986C200.631 70.9111 200.295 71.2627 199.834 71.6533C199.373 72.0361 198.737 72.3721 197.924 72.6611C197.12 72.9424 196.08 73.083 194.807 73.083C193.768 73.083 192.811 72.9033 191.936 72.5439C191.069 72.1768 190.315 71.6455 189.674 70.9502C189.041 70.2471 188.549 69.3955 188.198 68.3955C187.854 67.3877 187.682 66.2471 187.682 64.9736V63.6494C187.682 62.376 187.83 61.2393 188.127 60.2393C188.432 59.2393 188.877 58.3916 189.463 57.6963C190.049 56.9932 190.768 56.4619 191.62 56.1025C192.471 55.7354 193.448 55.5518 194.549 55.5518C195.854 55.5518 196.944 55.7783 197.819 56.2314C198.702 56.6768 199.389 57.2939 199.881 58.083C200.381 58.8721 200.702 59.7705 200.842 60.7783H198.58C198.479 60.1611 198.276 59.5986 197.971 59.0908C197.674 58.583 197.248 58.1768 196.694 57.8721C196.139 57.5596 195.424 57.4033 194.549 57.4033C193.76 57.4033 193.077 57.5479 192.498 57.8369C191.92 58.126 191.444 58.54 191.069 59.0791C190.694 59.6182 190.412 60.2705 190.225 61.0361C190.045 61.8018 189.955 62.665 189.955 63.626V64.9736C189.955 65.958 190.069 66.8369 190.295 67.6104C190.53 68.3838 190.862 69.0439 191.291 69.5908C191.721 70.1299 192.233 70.54 192.827 70.8213C193.428 71.1025 194.092 71.2432 194.819 71.2432C195.623 71.2432 196.276 71.1768 196.776 71.0439C197.276 70.9033 197.666 70.7393 197.948 70.5518C198.229 70.3564 198.444 70.1729 198.592 70.001V66.1807H194.643V64.3525H200.842ZM217.429 63.7783V64.8564C217.429 66.1377 217.269 67.2861 216.948 68.3018C216.628 69.3174 216.167 70.1807 215.566 70.8916C214.964 71.6025 214.241 72.1455 213.398 72.5205C212.562 72.8955 211.624 73.083 210.585 73.083C209.577 73.083 208.652 72.8955 207.808 72.5205C206.972 72.1455 206.245 71.6025 205.628 70.8916C205.019 70.1807 204.546 69.3174 204.21 68.3018C203.874 67.2861 203.706 66.1377 203.706 64.8564V63.7783C203.706 62.4971 203.87 61.3525 204.198 60.3447C204.534 59.3291 205.007 58.4658 205.616 57.7549C206.226 57.0361 206.948 56.4893 207.784 56.1143C208.628 55.7393 209.554 55.5518 210.562 55.5518C211.601 55.5518 212.538 55.7393 213.374 56.1143C214.218 56.4893 214.941 57.0361 215.542 57.7549C216.152 58.4658 216.616 59.3291 216.937 60.3447C217.265 61.3525 217.429 62.4971 217.429 63.7783ZM215.191 64.8564V63.7549C215.191 62.7393 215.085 61.8408 214.874 61.0596C214.671 60.2783 214.37 59.6221 213.972 59.0908C213.573 58.5596 213.085 58.1572 212.507 57.8838C211.937 57.6104 211.288 57.4736 210.562 57.4736C209.859 57.4736 209.222 57.6104 208.652 57.8838C208.089 58.1572 207.605 58.5596 207.198 59.0908C206.8 59.6221 206.491 60.2783 206.273 61.0596C206.054 61.8408 205.945 62.7393 205.945 63.7549V64.8564C205.945 65.8799 206.054 66.7861 206.273 67.5752C206.491 68.3564 206.804 69.0166 207.21 69.5557C207.624 70.0869 208.112 70.4893 208.675 70.7627C209.245 71.0361 209.882 71.1729 210.585 71.1729C211.32 71.1729 211.972 71.0361 212.542 70.7627C213.112 70.4893 213.593 70.0869 213.984 69.5557C214.382 69.0166 214.683 68.3564 214.886 67.5752C215.089 66.7861 215.191 65.8799 215.191 64.8564Z" fill="black"/>
<g clip-path="url(#clip0_10_2542)">
<path d="M214.289 247.211C211.006 241.92 203.777 236.25 189 236.25C174.223 236.25 166.999 241.916 163.71 247.211C166.74 251.009 170.587 254.076 174.966 256.182C179.344 258.288 184.141 259.379 189 259.375C193.859 259.379 198.656 258.288 203.034 256.182C207.412 254.076 211.26 251.009 214.289 247.211Z" fill="#7B7B7B"/>
<path fill-rule="evenodd" clip-rule="evenodd" d="M189 231.625C192.68 231.625 196.209 230.163 198.811 227.561C201.413 224.959 202.875 221.43 202.875 217.75C202.875 214.07 201.413 210.541 198.811 207.939C196.209 205.337 192.68 203.875 189 203.875C185.32 203.875 181.791 205.337 179.189 207.939C176.587 210.541 175.125 214.07 175.125 217.75C175.125 221.43 176.587 224.959 179.189 227.561C181.791 230.163 185.32 231.625 189 231.625Z" fill="#7B7B7B"/>
<path fill-rule="evenodd" clip-rule="evenodd" d="M189 194.625C180.414 194.625 172.179 198.036 166.107 204.107C160.036 210.179 156.625 218.414 156.625 227C156.625 235.586 160.036 243.821 166.107 249.893C172.179 255.964 180.414 259.375 189 259.375C197.586 259.375 205.821 255.964 211.893 249.893C217.964 243.821 221.375 235.586 221.375 227C221.375 218.414 217.964 210.179 211.893 204.107C205.821 198.036 197.586 194.625 189 194.625ZM152 227C152 217.187 155.898 207.776 162.837 200.837C169.776 193.898 179.187 190 189 190C198.813 190 208.224 193.898 215.163 200.837C222.102 207.776 226 217.187 226 227C226 236.813 222.102 246.224 215.163 253.163C208.224 260.102 198.813 264 189 264C179.187 264 169.776 260.102 162.837 253.163C155.898 246.224 152 236.813 152 227Z" fill="#7B7B7B"/>
</g>
<path d="M19 357C19 349.268 25.268 343 33 343H345C352.732 343 359 349.268 359 357V379C359 386.732 352.732 393 345 393H33C25.268 393 19 386.732 19 379V357Z" fill="#C4C4C4"/>
<path d="M168.648 374.16V376H160.117V374.16H168.648ZM160.562 358.938V376H158.301V358.938H160.562ZM170.036 369.801V369.531C170.036 368.617 170.169 367.77 170.434 366.988C170.7 366.199 171.083 365.516 171.583 364.938C172.083 364.352 172.688 363.898 173.399 363.578C174.11 363.25 174.907 363.086 175.79 363.086C176.68 363.086 177.481 363.25 178.192 363.578C178.911 363.898 179.52 364.352 180.02 364.938C180.528 365.516 180.915 366.199 181.18 366.988C181.446 367.77 181.579 368.617 181.579 369.531V369.801C181.579 370.715 181.446 371.562 181.18 372.344C180.915 373.125 180.528 373.809 180.02 374.395C179.52 374.973 178.915 375.426 178.204 375.754C177.501 376.074 176.704 376.234 175.813 376.234C174.923 376.234 174.122 376.074 173.411 375.754C172.7 375.426 172.091 374.973 171.583 374.395C171.083 373.809 170.7 373.125 170.434 372.344C170.169 371.562 170.036 370.715 170.036 369.801ZM172.204 369.531V369.801C172.204 370.434 172.278 371.031 172.427 371.594C172.575 372.148 172.798 372.641 173.095 373.07C173.399 373.5 173.778 373.84 174.231 374.09C174.684 374.332 175.212 374.453 175.813 374.453C176.407 374.453 176.927 374.332 177.372 374.09C177.825 373.84 178.2 373.5 178.497 373.07C178.794 372.641 179.016 372.148 179.165 371.594C179.321 371.031 179.399 370.434 179.399 369.801V369.531C179.399 368.906 179.321 368.316 179.165 367.762C179.016 367.199 178.79 366.703 178.485 366.273C178.188 365.836 177.813 365.492 177.36 365.242C176.915 364.992 176.391 364.867 175.79 364.867C175.196 364.867 174.673 364.992 174.22 365.242C173.774 365.492 173.399 365.836 173.095 366.273C172.798 366.703 172.575 367.199 172.427 367.762C172.278 368.316 172.204 368.906 172.204 369.531ZM192.212 363.32H194.181V375.73C194.181 376.848 193.955 377.801 193.502 378.59C193.048 379.379 192.416 379.977 191.603 380.383C190.798 380.797 189.869 381.004 188.814 381.004C188.377 381.004 187.861 380.934 187.267 380.793C186.681 380.66 186.103 380.43 185.533 380.102C184.97 379.781 184.498 379.348 184.115 378.801L185.252 377.512C185.783 378.152 186.337 378.598 186.916 378.848C187.502 379.098 188.08 379.223 188.65 379.223C189.337 379.223 189.931 379.094 190.431 378.836C190.931 378.578 191.318 378.195 191.591 377.688C191.873 377.188 192.013 376.57 192.013 375.836V366.109L192.212 363.32ZM183.482 369.801V369.555C183.482 368.586 183.595 367.707 183.822 366.918C184.056 366.121 184.388 365.438 184.818 364.867C185.255 364.297 185.783 363.859 186.4 363.555C187.017 363.242 187.712 363.086 188.486 363.086C189.283 363.086 189.978 363.227 190.572 363.508C191.173 363.781 191.681 364.184 192.095 364.715C192.517 365.238 192.849 365.871 193.091 366.613C193.334 367.355 193.502 368.195 193.595 369.133V370.211C193.509 371.141 193.341 371.977 193.091 372.719C192.849 373.461 192.517 374.094 192.095 374.617C191.681 375.141 191.173 375.543 190.572 375.824C189.97 376.098 189.267 376.234 188.462 376.234C187.705 376.234 187.017 376.074 186.4 375.754C185.791 375.434 185.267 374.984 184.83 374.406C184.392 373.828 184.056 373.148 183.822 372.367C183.595 371.578 183.482 370.723 183.482 369.801ZM185.65 369.555V369.801C185.65 370.434 185.712 371.027 185.837 371.582C185.97 372.137 186.17 372.625 186.435 373.047C186.709 373.469 187.056 373.801 187.478 374.043C187.9 374.277 188.404 374.395 188.99 374.395C189.709 374.395 190.302 374.242 190.771 373.938C191.24 373.633 191.611 373.23 191.884 372.73C192.166 372.23 192.384 371.688 192.541 371.102V368.277C192.455 367.848 192.322 367.434 192.142 367.035C191.97 366.629 191.744 366.27 191.462 365.957C191.189 365.637 190.849 365.383 190.443 365.195C190.037 365.008 189.56 364.914 189.013 364.914C188.42 364.914 187.908 365.039 187.478 365.289C187.056 365.531 186.709 365.867 186.435 366.297C186.17 366.719 185.97 367.211 185.837 367.773C185.712 368.328 185.65 368.922 185.65 369.555ZM205.581 358.938V376H203.32V358.938H205.581ZM211.234 366.027V376H209.066V363.32H211.117L211.234 366.027ZM210.719 369.18L209.816 369.145C209.824 368.277 209.953 367.477 210.203 366.742C210.453 366 210.805 365.355 211.258 364.809C211.711 364.262 212.25 363.84 212.875 363.543C213.508 363.238 214.207 363.086 214.973 363.086C215.598 363.086 216.16 363.172 216.66 363.344C217.16 363.508 217.586 363.773 217.938 364.141C218.297 364.508 218.57 364.984 218.758 365.57C218.945 366.148 219.039 366.855 219.039 367.691V376H216.859V367.668C216.859 367.004 216.762 366.473 216.566 366.074C216.371 365.668 216.086 365.375 215.711 365.195C215.336 365.008 214.875 364.914 214.328 364.914C213.789 364.914 213.297 365.027 212.852 365.254C212.414 365.48 212.035 365.793 211.715 366.191C211.402 366.59 211.156 367.047 210.977 367.562C210.805 368.07 210.719 368.609 210.719 369.18Z" fill="black"/>
<path d="M19 432C19 424.268 25.268 418 33 418H345C352.732 418 359 424.268 359 432V454C359 461.732 352.732 468 345 468H33C25.268 468 19 461.732 19 454V432Z" fill="#C4C4C4"/>
<path d="M120.395 445.574H122.645C122.528 446.652 122.22 447.617 121.72 448.469C121.22 449.32 120.512 449.996 119.598 450.496C118.684 450.988 117.544 451.234 116.177 451.234C115.177 451.234 114.266 451.047 113.446 450.672C112.634 450.297 111.934 449.766 111.348 449.078C110.762 448.383 110.309 447.551 109.989 446.582C109.677 445.605 109.52 444.52 109.52 443.324V441.625C109.52 440.43 109.677 439.348 109.989 438.379C110.309 437.402 110.766 436.566 111.36 435.871C111.962 435.176 112.684 434.641 113.528 434.266C114.372 433.891 115.321 433.703 116.376 433.703C117.665 433.703 118.755 433.945 119.645 434.43C120.536 434.914 121.227 435.586 121.72 436.445C122.22 437.297 122.528 438.285 122.645 439.41H120.395C120.286 438.613 120.083 437.93 119.786 437.359C119.489 436.781 119.067 436.336 118.52 436.023C117.973 435.711 117.259 435.555 116.376 435.555C115.618 435.555 114.95 435.699 114.372 435.988C113.802 436.277 113.321 436.688 112.93 437.219C112.548 437.75 112.259 438.387 112.063 439.129C111.868 439.871 111.77 440.695 111.77 441.602V443.324C111.77 444.16 111.856 444.945 112.028 445.68C112.208 446.414 112.477 447.059 112.837 447.613C113.196 448.168 113.653 448.605 114.208 448.926C114.762 449.238 115.419 449.395 116.177 449.395C117.137 449.395 117.903 449.242 118.473 448.938C119.044 448.633 119.473 448.195 119.762 447.625C120.059 447.055 120.27 446.371 120.395 445.574ZM127.267 440.312V451H125.099V438.32H127.209L127.267 440.312ZM131.228 438.25L131.216 440.266C131.037 440.227 130.865 440.203 130.701 440.195C130.545 440.18 130.365 440.172 130.162 440.172C129.662 440.172 129.22 440.25 128.837 440.406C128.455 440.562 128.13 440.781 127.865 441.062C127.599 441.344 127.388 441.68 127.232 442.07C127.084 442.453 126.986 442.875 126.939 443.336L126.33 443.688C126.33 442.922 126.404 442.203 126.552 441.531C126.709 440.859 126.947 440.266 127.267 439.75C127.587 439.227 127.994 438.82 128.486 438.531C128.986 438.234 129.58 438.086 130.267 438.086C130.423 438.086 130.603 438.105 130.806 438.145C131.009 438.176 131.15 438.211 131.228 438.25ZM137.959 451.234C137.077 451.234 136.276 451.086 135.557 450.789C134.846 450.484 134.233 450.059 133.717 449.512C133.209 448.965 132.819 448.316 132.545 447.566C132.272 446.816 132.135 445.996 132.135 445.105V444.613C132.135 443.582 132.287 442.664 132.592 441.859C132.897 441.047 133.311 440.359 133.834 439.797C134.358 439.234 134.952 438.809 135.616 438.52C136.28 438.23 136.967 438.086 137.678 438.086C138.584 438.086 139.366 438.242 140.022 438.555C140.686 438.867 141.229 439.305 141.651 439.867C142.073 440.422 142.385 441.078 142.588 441.836C142.791 442.586 142.893 443.406 142.893 444.297V445.27H133.424V443.5H140.725V443.336C140.694 442.773 140.577 442.227 140.373 441.695C140.178 441.164 139.866 440.727 139.436 440.383C139.006 440.039 138.42 439.867 137.678 439.867C137.186 439.867 136.733 439.973 136.319 440.184C135.905 440.387 135.549 440.691 135.252 441.098C134.955 441.504 134.725 442 134.561 442.586C134.397 443.172 134.315 443.848 134.315 444.613V445.105C134.315 445.707 134.397 446.273 134.561 446.805C134.733 447.328 134.979 447.789 135.299 448.188C135.627 448.586 136.022 448.898 136.483 449.125C136.952 449.352 137.483 449.465 138.077 449.465C138.842 449.465 139.491 449.309 140.022 448.996C140.553 448.684 141.018 448.266 141.416 447.742L142.729 448.785C142.455 449.199 142.108 449.594 141.686 449.969C141.264 450.344 140.745 450.648 140.127 450.883C139.518 451.117 138.795 451.234 137.959 451.234ZM152.601 448.832V442.305C152.601 441.805 152.499 441.371 152.296 441.004C152.101 440.629 151.804 440.34 151.405 440.137C151.007 439.934 150.515 439.832 149.929 439.832C149.382 439.832 148.902 439.926 148.487 440.113C148.081 440.301 147.761 440.547 147.527 440.852C147.3 441.156 147.187 441.484 147.187 441.836H145.019C145.019 441.383 145.136 440.934 145.37 440.488C145.605 440.043 145.941 439.641 146.378 439.281C146.823 438.914 147.355 438.625 147.972 438.414C148.597 438.195 149.292 438.086 150.058 438.086C150.98 438.086 151.792 438.242 152.495 438.555C153.206 438.867 153.761 439.34 154.159 439.973C154.566 440.598 154.769 441.383 154.769 442.328V448.234C154.769 448.656 154.804 449.105 154.874 449.582C154.952 450.059 155.066 450.469 155.214 450.812V451H152.952C152.843 450.75 152.757 450.418 152.695 450.004C152.632 449.582 152.601 449.191 152.601 448.832ZM152.976 443.312L152.999 444.836H150.808C150.191 444.836 149.64 444.887 149.155 444.988C148.671 445.082 148.265 445.227 147.937 445.422C147.609 445.617 147.359 445.863 147.187 446.16C147.015 446.449 146.929 446.789 146.929 447.18C146.929 447.578 147.019 447.941 147.198 448.27C147.378 448.598 147.648 448.859 148.007 449.055C148.374 449.242 148.823 449.336 149.355 449.336C150.019 449.336 150.605 449.195 151.112 448.914C151.62 448.633 152.023 448.289 152.32 447.883C152.624 447.477 152.788 447.082 152.812 446.699L153.737 447.742C153.683 448.07 153.534 448.434 153.292 448.832C153.05 449.23 152.726 449.613 152.32 449.98C151.921 450.34 151.445 450.641 150.89 450.883C150.343 451.117 149.726 451.234 149.038 451.234C148.179 451.234 147.425 451.066 146.777 450.73C146.136 450.395 145.636 449.945 145.277 449.383C144.925 448.812 144.749 448.176 144.749 447.473C144.749 446.793 144.882 446.195 145.148 445.68C145.413 445.156 145.796 444.723 146.296 444.379C146.796 444.027 147.398 443.762 148.101 443.582C148.804 443.402 149.589 443.312 150.456 443.312H152.976ZM163.187 438.32V439.984H156.332V438.32H163.187ZM158.652 435.238H160.82V447.859C160.82 448.289 160.887 448.613 161.02 448.832C161.152 449.051 161.324 449.195 161.535 449.266C161.746 449.336 161.973 449.371 162.215 449.371C162.395 449.371 162.582 449.355 162.777 449.324C162.98 449.285 163.133 449.254 163.234 449.23L163.246 451C163.074 451.055 162.848 451.105 162.566 451.152C162.293 451.207 161.961 451.234 161.57 451.234C161.039 451.234 160.551 451.129 160.105 450.918C159.66 450.707 159.305 450.355 159.039 449.863C158.781 449.363 158.652 448.691 158.652 447.848V435.238ZM170.692 451.234C169.809 451.234 169.009 451.086 168.29 450.789C167.579 450.484 166.966 450.059 166.45 449.512C165.942 448.965 165.552 448.316 165.278 447.566C165.005 446.816 164.868 445.996 164.868 445.105V444.613C164.868 443.582 165.02 442.664 165.325 441.859C165.63 441.047 166.044 440.359 166.567 439.797C167.091 439.234 167.684 438.809 168.348 438.52C169.012 438.23 169.7 438.086 170.411 438.086C171.317 438.086 172.098 438.242 172.755 438.555C173.419 438.867 173.962 439.305 174.384 439.867C174.805 440.422 175.118 441.078 175.321 441.836C175.524 442.586 175.626 443.406 175.626 444.297V445.27H166.157V443.5H173.458V443.336C173.427 442.773 173.309 442.227 173.106 441.695C172.911 441.164 172.598 440.727 172.169 440.383C171.739 440.039 171.153 439.867 170.411 439.867C169.919 439.867 169.466 439.973 169.052 440.184C168.637 440.387 168.282 440.691 167.985 441.098C167.688 441.504 167.458 442 167.294 442.586C167.13 443.172 167.048 443.848 167.048 444.613V445.105C167.048 445.707 167.13 446.273 167.294 446.805C167.466 447.328 167.712 447.789 168.032 448.188C168.36 448.586 168.755 448.898 169.216 449.125C169.684 449.352 170.216 449.465 170.809 449.465C171.575 449.465 172.223 449.309 172.755 448.996C173.286 448.684 173.751 448.266 174.149 447.742L175.462 448.785C175.188 449.199 174.841 449.594 174.419 449.969C173.997 450.344 173.477 450.648 172.86 450.883C172.251 451.117 171.528 451.234 170.692 451.234ZM190.155 435.449L184.506 451H182.198L188.702 433.938H190.19L190.155 435.449ZM194.889 451L189.229 435.449L189.194 433.938H190.682L197.209 451H194.889ZM194.596 444.684V446.535H185.01V444.684H194.596ZM203.941 449.453C204.456 449.453 204.933 449.348 205.37 449.137C205.808 448.926 206.167 448.637 206.448 448.27C206.73 447.895 206.89 447.469 206.929 446.992H208.991C208.952 447.742 208.698 448.441 208.23 449.09C207.769 449.73 207.163 450.25 206.413 450.648C205.663 451.039 204.839 451.234 203.941 451.234C202.987 451.234 202.155 451.066 201.445 450.73C200.741 450.395 200.155 449.934 199.687 449.348C199.226 448.762 198.878 448.09 198.644 447.332C198.417 446.566 198.304 445.758 198.304 444.906V444.414C198.304 443.562 198.417 442.758 198.644 442C198.878 441.234 199.226 440.559 199.687 439.973C200.155 439.387 200.741 438.926 201.445 438.59C202.155 438.254 202.987 438.086 203.941 438.086C204.933 438.086 205.8 438.289 206.542 438.695C207.284 439.094 207.866 439.641 208.288 440.336C208.718 441.023 208.952 441.805 208.991 442.68H206.929C206.89 442.156 206.741 441.684 206.484 441.262C206.234 440.84 205.89 440.504 205.452 440.254C205.023 439.996 204.519 439.867 203.941 439.867C203.277 439.867 202.718 440 202.265 440.266C201.82 440.523 201.464 440.875 201.198 441.32C200.941 441.758 200.753 442.246 200.636 442.785C200.527 443.316 200.472 443.859 200.472 444.414V444.906C200.472 445.461 200.527 446.008 200.636 446.547C200.745 447.086 200.929 447.574 201.187 448.012C201.452 448.449 201.808 448.801 202.253 449.066C202.706 449.324 203.269 449.453 203.941 449.453ZM216.203 449.453C216.719 449.453 217.195 449.348 217.633 449.137C218.07 448.926 218.43 448.637 218.711 448.27C218.992 447.895 219.152 447.469 219.191 446.992H221.254C221.215 447.742 220.961 448.441 220.492 449.09C220.031 449.73 219.426 450.25 218.676 450.648C217.926 451.039 217.102 451.234 216.203 451.234C215.25 451.234 214.418 451.066 213.707 450.73C213.004 450.395 212.418 449.934 211.949 449.348C211.488 448.762 211.141 448.09 210.906 447.332C210.68 446.566 210.566 445.758 210.566 444.906V444.414C210.566 443.562 210.68 442.758 210.906 442C211.141 441.234 211.488 440.559 211.949 439.973C212.418 439.387 213.004 438.926 213.707 438.59C214.418 438.254 215.25 438.086 216.203 438.086C217.195 438.086 218.062 438.289 218.805 438.695C219.547 439.094 220.129 439.641 220.551 440.336C220.98 441.023 221.215 441.805 221.254 442.68H219.191C219.152 442.156 219.004 441.684 218.746 441.262C218.496 440.84 218.152 440.504 217.715 440.254C217.285 439.996 216.781 439.867 216.203 439.867C215.539 439.867 214.98 440 214.527 440.266C214.082 440.523 213.727 440.875 213.461 441.32C213.203 441.758 213.016 442.246 212.898 442.785C212.789 443.316 212.734 443.859 212.734 444.414V444.906C212.734 445.461 212.789 446.008 212.898 446.547C213.008 447.086 213.191 447.574 213.449 448.012C213.715 448.449 214.07 448.801 214.516 449.066C214.969 449.324 215.531 449.453 216.203 449.453ZM222.817 444.801V444.531C222.817 443.617 222.95 442.77 223.216 441.988C223.481 441.199 223.864 440.516 224.364 439.938C224.864 439.352 225.47 438.898 226.18 438.578C226.891 438.25 227.688 438.086 228.571 438.086C229.462 438.086 230.262 438.25 230.973 438.578C231.692 438.898 232.302 439.352 232.802 439.938C233.309 440.516 233.696 441.199 233.962 441.988C234.227 442.77 234.36 443.617 234.36 444.531V444.801C234.36 445.715 234.227 446.562 233.962 447.344C233.696 448.125 233.309 448.809 232.802 449.395C232.302 449.973 231.696 450.426 230.985 450.754C230.282 451.074 229.485 451.234 228.595 451.234C227.704 451.234 226.903 451.074 226.192 450.754C225.481 450.426 224.872 449.973 224.364 449.395C223.864 448.809 223.481 448.125 223.216 447.344C222.95 446.562 222.817 445.715 222.817 444.801ZM224.985 444.531V444.801C224.985 445.434 225.059 446.031 225.208 446.594C225.356 447.148 225.579 447.641 225.876 448.07C226.18 448.5 226.559 448.84 227.012 449.09C227.466 449.332 227.993 449.453 228.595 449.453C229.188 449.453 229.708 449.332 230.153 449.09C230.606 448.84 230.981 448.5 231.278 448.07C231.575 447.641 231.798 447.148 231.946 446.594C232.102 446.031 232.18 445.434 232.18 444.801V444.531C232.18 443.906 232.102 443.316 231.946 442.762C231.798 442.199 231.571 441.703 231.266 441.273C230.97 440.836 230.595 440.492 230.141 440.242C229.696 439.992 229.173 439.867 228.571 439.867C227.977 439.867 227.454 439.992 227.001 440.242C226.555 440.492 226.18 440.836 225.876 441.273C225.579 441.703 225.356 442.199 225.208 442.762C225.059 443.316 224.985 443.906 224.985 444.531ZM244.537 448.07V438.32H246.716V451H244.642L244.537 448.07ZM244.947 445.398L245.849 445.375C245.849 446.219 245.759 447 245.58 447.719C245.408 448.43 245.127 449.047 244.736 449.57C244.345 450.094 243.834 450.504 243.201 450.801C242.568 451.09 241.798 451.234 240.892 451.234C240.275 451.234 239.709 451.145 239.193 450.965C238.685 450.785 238.248 450.508 237.88 450.133C237.513 449.758 237.228 449.27 237.025 448.668C236.83 448.066 236.732 447.344 236.732 446.5V438.32H238.9V446.523C238.9 447.094 238.962 447.566 239.087 447.941C239.22 448.309 239.396 448.602 239.615 448.82C239.841 449.031 240.091 449.18 240.365 449.266C240.646 449.352 240.935 449.395 241.232 449.395C242.154 449.395 242.884 449.219 243.423 448.867C243.962 448.508 244.349 448.027 244.584 447.426C244.826 446.816 244.947 446.141 244.947 445.398ZM251.889 441.027V451H249.721V438.32H251.772L251.889 441.027ZM251.373 444.18L250.471 444.145C250.479 443.277 250.608 442.477 250.858 441.742C251.108 441 251.459 440.355 251.912 439.809C252.366 439.262 252.905 438.84 253.53 438.543C254.162 438.238 254.862 438.086 255.627 438.086C256.252 438.086 256.815 438.172 257.315 438.344C257.815 438.508 258.241 438.773 258.592 439.141C258.952 439.508 259.225 439.984 259.412 440.57C259.6 441.148 259.694 441.855 259.694 442.691V451H257.514V442.668C257.514 442.004 257.416 441.473 257.221 441.074C257.026 440.668 256.741 440.375 256.366 440.195C255.991 440.008 255.53 439.914 254.983 439.914C254.444 439.914 253.952 440.027 253.506 440.254C253.069 440.48 252.69 440.793 252.37 441.191C252.057 441.59 251.811 442.047 251.631 442.562C251.459 443.07 251.373 443.609 251.373 444.18ZM267.995 438.32V439.984H261.14V438.32H267.995ZM263.46 435.238H265.628V447.859C265.628 448.289 265.695 448.613 265.827 448.832C265.96 449.051 266.132 449.195 266.343 449.266C266.554 449.336 266.78 449.371 267.023 449.371C267.202 449.371 267.39 449.355 267.585 449.324C267.788 449.285 267.941 449.254 268.042 449.23L268.054 451C267.882 451.055 267.655 451.105 267.374 451.152C267.101 451.207 266.769 451.234 266.378 451.234C265.847 451.234 265.359 451.129 264.913 450.918C264.468 450.707 264.113 450.355 263.847 449.863C263.589 449.363 263.46 448.691 263.46 447.848V435.238Z" fill="black"/>
<path d="M121.58 622.203V635H119.884V622.203H121.58ZM126.941 627.96V629.349H121.211V627.96H126.941ZM127.812 622.203V623.592H121.211V622.203H127.812ZM128.663 630.351V630.148C128.663 629.463 128.762 628.827 128.962 628.241C129.161 627.649 129.448 627.137 129.823 626.703C130.198 626.264 130.652 625.924 131.185 625.684C131.719 625.438 132.316 625.314 132.978 625.314C133.646 625.314 134.247 625.438 134.78 625.684C135.319 625.924 135.776 626.264 136.151 626.703C136.532 627.137 136.822 627.649 137.021 628.241C137.221 628.827 137.32 629.463 137.32 630.148V630.351C137.32 631.036 137.221 631.672 137.021 632.258C136.822 632.844 136.532 633.356 136.151 633.796C135.776 634.229 135.322 634.569 134.789 634.815C134.262 635.056 133.664 635.176 132.996 635.176C132.328 635.176 131.727 635.056 131.194 634.815C130.661 634.569 130.204 634.229 129.823 633.796C129.448 633.356 129.161 632.844 128.962 632.258C128.762 631.672 128.663 631.036 128.663 630.351ZM130.289 630.148V630.351C130.289 630.825 130.345 631.273 130.456 631.695C130.567 632.111 130.734 632.48 130.957 632.803C131.185 633.125 131.47 633.38 131.809 633.567C132.149 633.749 132.545 633.84 132.996 633.84C133.441 633.84 133.831 633.749 134.165 633.567C134.505 633.38 134.786 633.125 135.009 632.803C135.231 632.48 135.398 632.111 135.51 631.695C135.627 631.273 135.685 630.825 135.685 630.351V630.148C135.685 629.68 135.627 629.237 135.51 628.821C135.398 628.399 135.228 628.027 135 627.705C134.777 627.377 134.496 627.119 134.156 626.932C133.822 626.744 133.429 626.65 132.978 626.65C132.533 626.65 132.14 626.744 131.801 626.932C131.467 627.119 131.185 627.377 130.957 627.705C130.734 628.027 130.567 628.399 130.456 628.821C130.345 629.237 130.289 629.68 130.289 630.148ZM140.685 626.984V635H139.059V625.49H140.641L140.685 626.984ZM143.656 625.438L143.647 626.949C143.512 626.92 143.383 626.902 143.26 626.896C143.143 626.885 143.008 626.879 142.856 626.879C142.481 626.879 142.15 626.938 141.863 627.055C141.576 627.172 141.333 627.336 141.133 627.547C140.934 627.758 140.776 628.01 140.659 628.303C140.547 628.59 140.474 628.906 140.439 629.252L139.982 629.516C139.982 628.941 140.038 628.402 140.149 627.898C140.266 627.395 140.445 626.949 140.685 626.562C140.925 626.17 141.23 625.865 141.599 625.648C141.974 625.426 142.42 625.314 142.935 625.314C143.052 625.314 143.187 625.329 143.339 625.358C143.492 625.382 143.597 625.408 143.656 625.438ZM150.844 625.49H152.321V634.798C152.321 635.636 152.151 636.351 151.811 636.942C151.471 637.534 150.996 637.982 150.387 638.287C149.784 638.598 149.086 638.753 148.295 638.753C147.967 638.753 147.58 638.7 147.135 638.595C146.696 638.495 146.262 638.322 145.834 638.076C145.413 637.836 145.058 637.511 144.771 637.101L145.623 636.134C146.022 636.614 146.438 636.948 146.871 637.136C147.311 637.323 147.745 637.417 148.172 637.417C148.688 637.417 149.133 637.32 149.508 637.127C149.883 636.934 150.173 636.646 150.378 636.266C150.589 635.891 150.695 635.428 150.695 634.877V627.582L150.844 625.49ZM144.296 630.351V630.166C144.296 629.439 144.381 628.78 144.551 628.188C144.727 627.591 144.976 627.078 145.298 626.65C145.626 626.223 146.022 625.895 146.485 625.666C146.948 625.432 147.469 625.314 148.049 625.314C148.647 625.314 149.168 625.42 149.614 625.631C150.065 625.836 150.446 626.138 150.756 626.536C151.073 626.929 151.322 627.403 151.503 627.96C151.685 628.517 151.811 629.146 151.881 629.85V630.658C151.817 631.355 151.691 631.982 151.503 632.539C151.322 633.096 151.073 633.57 150.756 633.963C150.446 634.355 150.065 634.657 149.614 634.868C149.163 635.073 148.635 635.176 148.032 635.176C147.463 635.176 146.948 635.056 146.485 634.815C146.028 634.575 145.635 634.238 145.307 633.805C144.979 633.371 144.727 632.861 144.551 632.275C144.381 631.684 144.296 631.042 144.296 630.351ZM145.922 630.166V630.351C145.922 630.825 145.969 631.271 146.063 631.687C146.163 632.103 146.312 632.469 146.511 632.785C146.716 633.102 146.977 633.351 147.293 633.532C147.61 633.708 147.988 633.796 148.427 633.796C148.966 633.796 149.412 633.682 149.763 633.453C150.115 633.225 150.393 632.923 150.598 632.548C150.809 632.173 150.973 631.766 151.09 631.326V629.208C151.026 628.886 150.926 628.575 150.791 628.276C150.663 627.972 150.493 627.702 150.282 627.468C150.077 627.228 149.822 627.037 149.517 626.896C149.212 626.756 148.855 626.686 148.445 626.686C147.999 626.686 147.616 626.779 147.293 626.967C146.977 627.148 146.716 627.4 146.511 627.723C146.312 628.039 146.163 628.408 146.063 628.83C145.969 629.246 145.922 629.691 145.922 630.166ZM154.06 630.351V630.148C154.06 629.463 154.159 628.827 154.359 628.241C154.558 627.649 154.845 627.137 155.22 626.703C155.595 626.264 156.049 625.924 156.582 625.684C157.115 625.438 157.713 625.314 158.375 625.314C159.043 625.314 159.644 625.438 160.177 625.684C160.716 625.924 161.173 626.264 161.548 626.703C161.929 627.137 162.219 627.649 162.418 628.241C162.617 628.827 162.717 629.463 162.717 630.148V630.351C162.717 631.036 162.617 631.672 162.418 632.258C162.219 632.844 161.929 633.356 161.548 633.796C161.173 634.229 160.719 634.569 160.186 634.815C159.658 635.056 159.061 635.176 158.393 635.176C157.725 635.176 157.124 635.056 156.591 634.815C156.058 634.569 155.601 634.229 155.22 633.796C154.845 633.356 154.558 632.844 154.359 632.258C154.159 631.672 154.06 631.036 154.06 630.351ZM155.686 630.148V630.351C155.686 630.825 155.741 631.273 155.853 631.695C155.964 632.111 156.131 632.48 156.354 632.803C156.582 633.125 156.866 633.38 157.206 633.567C157.546 633.749 157.942 633.84 158.393 633.84C158.838 633.84 159.228 633.749 159.562 633.567C159.902 633.38 160.183 633.125 160.405 632.803C160.628 632.48 160.795 632.111 160.906 631.695C161.024 631.273 161.082 630.825 161.082 630.351V630.148C161.082 629.68 161.024 629.237 160.906 628.821C160.795 628.399 160.625 628.027 160.397 627.705C160.174 627.377 159.893 627.119 159.553 626.932C159.219 626.744 158.826 626.65 158.375 626.65C157.93 626.65 157.537 626.744 157.197 626.932C156.863 627.119 156.582 627.377 156.354 627.705C156.131 628.027 155.964 628.399 155.853 628.821C155.741 629.237 155.686 629.68 155.686 630.148ZM168.438 625.49V626.738H163.296V625.49H168.438ZM165.036 623.179H166.662V632.645C166.662 632.967 166.712 633.21 166.812 633.374C166.911 633.538 167.04 633.646 167.198 633.699C167.356 633.752 167.526 633.778 167.708 633.778C167.843 633.778 167.983 633.767 168.13 633.743C168.282 633.714 168.396 633.69 168.473 633.673L168.481 635C168.353 635.041 168.183 635.079 167.972 635.114C167.767 635.155 167.518 635.176 167.225 635.176C166.826 635.176 166.46 635.097 166.126 634.938C165.792 634.78 165.525 634.517 165.326 634.147C165.133 633.772 165.036 633.269 165.036 632.636V623.179ZM179.175 629.981H175.756V628.602H179.175C179.838 628.602 180.374 628.496 180.784 628.285C181.194 628.074 181.493 627.781 181.68 627.406C181.874 627.031 181.97 626.604 181.97 626.123C181.97 625.684 181.874 625.271 181.68 624.884C181.493 624.497 181.194 624.187 180.784 623.952C180.374 623.712 179.838 623.592 179.175 623.592H176.152V635H174.456V622.203H179.175C180.142 622.203 180.96 622.37 181.628 622.704C182.296 623.038 182.802 623.501 183.148 624.093C183.494 624.679 183.667 625.35 183.667 626.105C183.667 626.926 183.494 627.626 183.148 628.206C182.802 628.786 182.296 629.229 181.628 629.533C180.96 629.832 180.142 629.981 179.175 629.981ZM190.767 633.374V628.479C190.767 628.104 190.691 627.778 190.538 627.503C190.392 627.222 190.169 627.005 189.871 626.853C189.572 626.7 189.203 626.624 188.763 626.624C188.353 626.624 187.993 626.694 187.682 626.835C187.377 626.976 187.137 627.16 186.961 627.389C186.791 627.617 186.706 627.863 186.706 628.127H185.08C185.08 627.787 185.168 627.45 185.344 627.116C185.52 626.782 185.772 626.48 186.1 626.211C186.434 625.936 186.832 625.719 187.295 625.561C187.764 625.396 188.286 625.314 188.86 625.314C189.551 625.314 190.161 625.432 190.688 625.666C191.221 625.9 191.637 626.255 191.936 626.729C192.241 627.198 192.393 627.787 192.393 628.496V632.926C192.393 633.242 192.419 633.579 192.472 633.937C192.531 634.294 192.616 634.602 192.727 634.859V635H191.031C190.949 634.812 190.884 634.563 190.837 634.253C190.79 633.937 190.767 633.644 190.767 633.374ZM191.048 629.234L191.066 630.377H189.422C188.959 630.377 188.546 630.415 188.183 630.491C187.82 630.562 187.515 630.67 187.269 630.816C187.023 630.963 186.835 631.147 186.706 631.37C186.578 631.587 186.513 631.842 186.513 632.135C186.513 632.434 186.58 632.706 186.715 632.952C186.85 633.198 187.052 633.395 187.322 633.541C187.597 633.682 187.934 633.752 188.332 633.752C188.83 633.752 189.27 633.646 189.651 633.436C190.032 633.225 190.333 632.967 190.556 632.662C190.785 632.357 190.908 632.062 190.925 631.774L191.62 632.557C191.579 632.803 191.467 633.075 191.286 633.374C191.104 633.673 190.861 633.96 190.556 634.235C190.257 634.505 189.9 634.73 189.484 634.912C189.074 635.088 188.611 635.176 188.095 635.176C187.451 635.176 186.885 635.05 186.399 634.798C185.918 634.546 185.543 634.209 185.274 633.787C185.01 633.359 184.878 632.882 184.878 632.354C184.878 631.845 184.978 631.396 185.177 631.01C185.376 630.617 185.663 630.292 186.038 630.034C186.413 629.771 186.865 629.571 187.392 629.437C187.919 629.302 188.508 629.234 189.159 629.234H191.048ZM200.188 632.478C200.188 632.243 200.135 632.026 200.029 631.827C199.93 631.622 199.722 631.438 199.405 631.273C199.095 631.104 198.626 630.957 197.999 630.834C197.472 630.723 196.994 630.591 196.567 630.438C196.145 630.286 195.784 630.102 195.486 629.885C195.193 629.668 194.967 629.413 194.809 629.12C194.651 628.827 194.571 628.484 194.571 628.092C194.571 627.717 194.654 627.362 194.818 627.028C194.988 626.694 195.225 626.398 195.529 626.141C195.84 625.883 196.212 625.681 196.646 625.534C197.079 625.388 197.563 625.314 198.096 625.314C198.858 625.314 199.508 625.449 200.047 625.719C200.586 625.988 200.999 626.349 201.286 626.8C201.573 627.245 201.717 627.74 201.717 628.285H200.091C200.091 628.021 200.012 627.767 199.854 627.521C199.701 627.269 199.476 627.061 199.177 626.896C198.884 626.732 198.524 626.65 198.096 626.65C197.645 626.65 197.279 626.721 196.997 626.861C196.722 626.996 196.52 627.169 196.391 627.38C196.268 627.591 196.206 627.813 196.206 628.048C196.206 628.224 196.236 628.382 196.294 628.522C196.359 628.657 196.47 628.783 196.628 628.9C196.786 629.012 197.009 629.117 197.296 629.217C197.583 629.316 197.949 629.416 198.395 629.516C199.174 629.691 199.816 629.902 200.32 630.148C200.823 630.395 201.198 630.696 201.445 631.054C201.691 631.411 201.814 631.845 201.814 632.354C201.814 632.771 201.726 633.151 201.55 633.497C201.38 633.843 201.131 634.142 200.803 634.394C200.481 634.64 200.094 634.833 199.643 634.974C199.197 635.108 198.696 635.176 198.14 635.176C197.302 635.176 196.593 635.026 196.013 634.728C195.433 634.429 194.993 634.042 194.695 633.567C194.396 633.093 194.246 632.592 194.246 632.064H195.881C195.904 632.51 196.033 632.864 196.268 633.128C196.502 633.386 196.789 633.57 197.129 633.682C197.469 633.787 197.806 633.84 198.14 633.84C198.585 633.84 198.957 633.781 199.256 633.664C199.561 633.547 199.792 633.386 199.95 633.181C200.109 632.976 200.188 632.741 200.188 632.478ZM209.187 632.478C209.187 632.243 209.134 632.026 209.028 631.827C208.929 631.622 208.721 631.438 208.404 631.273C208.094 631.104 207.625 630.957 206.998 630.834C206.471 630.723 205.993 630.591 205.565 630.438C205.144 630.286 204.783 630.102 204.484 629.885C204.191 629.668 203.966 629.413 203.808 629.12C203.649 628.827 203.57 628.484 203.57 628.092C203.57 627.717 203.652 627.362 203.816 627.028C203.986 626.694 204.224 626.398 204.528 626.141C204.839 625.883 205.211 625.681 205.645 625.534C206.078 625.388 206.562 625.314 207.095 625.314C207.856 625.314 208.507 625.449 209.046 625.719C209.585 625.988 209.998 626.349 210.285 626.8C210.572 627.245 210.716 627.74 210.716 628.285H209.09C209.09 628.021 209.011 627.767 208.853 627.521C208.7 627.269 208.475 627.061 208.176 626.896C207.883 626.732 207.522 626.65 207.095 626.65C206.644 626.65 206.277 626.721 205.996 626.861C205.721 626.996 205.519 627.169 205.39 627.38C205.267 627.591 205.205 627.813 205.205 628.048C205.205 628.224 205.234 628.382 205.293 628.522C205.357 628.657 205.469 628.783 205.627 628.9C205.785 629.012 206.008 629.117 206.295 629.217C206.582 629.316 206.948 629.416 207.394 629.516C208.173 629.691 208.814 629.902 209.318 630.148C209.822 630.395 210.197 630.696 210.443 631.054C210.689 631.411 210.812 631.845 210.812 632.354C210.812 632.771 210.725 633.151 210.549 633.497C210.379 633.843 210.13 634.142 209.802 634.394C209.479 634.64 209.093 634.833 208.642 634.974C208.196 635.108 207.695 635.176 207.139 635.176C206.301 635.176 205.592 635.026 205.012 634.728C204.432 634.429 203.992 634.042 203.693 633.567C203.395 633.093 203.245 632.592 203.245 632.064H204.88C204.903 632.51 205.032 632.864 205.267 633.128C205.501 633.386 205.788 633.57 206.128 633.682C206.468 633.787 206.805 633.84 207.139 633.84C207.584 633.84 207.956 633.781 208.255 633.664C208.56 633.547 208.791 633.386 208.949 633.181C209.107 632.976 209.187 632.741 209.187 632.478ZM215.056 633.312L217.5 625.49H218.572L218.361 627.046L215.874 635H214.828L215.056 633.312ZM213.413 625.49L215.496 633.4L215.645 635H214.547L211.787 625.49H213.413ZM220.91 633.339L222.896 625.49H224.513L221.754 635H220.664L220.91 633.339ZM218.809 625.49L221.2 633.181L221.472 635H220.435L217.878 627.028L217.667 625.49H218.809ZM225.453 630.351V630.148C225.453 629.463 225.552 628.827 225.752 628.241C225.951 627.649 226.238 627.137 226.613 626.703C226.988 626.264 227.442 625.924 227.975 625.684C228.508 625.438 229.106 625.314 229.768 625.314C230.436 625.314 231.037 625.438 231.57 625.684C232.109 625.924 232.566 626.264 232.941 626.703C233.322 627.137 233.612 627.649 233.811 628.241C234.01 628.827 234.11 629.463 234.11 630.148V630.351C234.11 631.036 234.01 631.672 233.811 632.258C233.612 632.844 233.322 633.356 232.941 633.796C232.566 634.229 232.112 634.569 231.579 634.815C231.051 635.056 230.454 635.176 229.786 635.176C229.118 635.176 228.517 635.056 227.984 634.815C227.451 634.569 226.994 634.229 226.613 633.796C226.238 633.356 225.951 632.844 225.752 632.258C225.552 631.672 225.453 631.036 225.453 630.351ZM227.079 630.148V630.351C227.079 630.825 227.134 631.273 227.246 631.695C227.357 632.111 227.524 632.48 227.747 632.803C227.975 633.125 228.259 633.38 228.599 633.567C228.939 633.749 229.335 633.84 229.786 633.84C230.231 633.84 230.621 633.749 230.955 633.567C231.295 633.38 231.576 633.125 231.798 632.803C232.021 632.48 232.188 632.111 232.299 631.695C232.417 631.273 232.475 630.825 232.475 630.351V630.148C232.475 629.68 232.417 629.237 232.299 628.821C232.188 628.399 232.018 628.027 231.79 627.705C231.567 627.377 231.286 627.119 230.946 626.932C230.612 626.744 230.219 626.65 229.768 626.65C229.323 626.65 228.93 626.744 228.59 626.932C228.256 627.119 227.975 627.377 227.747 627.705C227.524 628.027 227.357 628.399 227.246 628.821C227.134 629.237 227.079 629.68 227.079 630.148ZM237.475 626.984V635H235.849V625.49H237.431L237.475 626.984ZM240.446 625.438L240.437 626.949C240.302 626.92 240.173 626.902 240.05 626.896C239.933 626.885 239.798 626.879 239.646 626.879C239.271 626.879 238.94 626.938 238.653 627.055C238.366 627.172 238.122 627.336 237.923 627.547C237.724 627.758 237.566 628.01 237.449 628.303C237.337 628.59 237.264 628.906 237.229 629.252L236.772 629.516C236.772 628.941 236.828 628.402 236.939 627.898C237.056 627.395 237.235 626.949 237.475 626.562C237.715 626.17 238.02 625.865 238.389 625.648C238.764 625.426 239.209 625.314 239.725 625.314C239.842 625.314 239.977 625.329 240.129 625.358C240.282 625.382 240.387 625.408 240.446 625.438ZM247.467 633.154V621.5H249.102V635H247.608L247.467 633.154ZM241.069 630.351V630.166C241.069 629.439 241.156 628.78 241.332 628.188C241.514 627.591 241.769 627.078 242.097 626.65C242.431 626.223 242.826 625.895 243.283 625.666C243.746 625.432 244.262 625.314 244.83 625.314C245.428 625.314 245.949 625.42 246.395 625.631C246.846 625.836 247.227 626.138 247.537 626.536C247.854 626.929 248.103 627.403 248.284 627.96C248.466 628.517 248.592 629.146 248.662 629.85V630.658C248.598 631.355 248.472 631.982 248.284 632.539C248.103 633.096 247.854 633.57 247.537 633.963C247.227 634.355 246.846 634.657 246.395 634.868C245.944 635.073 245.416 635.176 244.813 635.176C244.256 635.176 243.746 635.056 243.283 634.815C242.826 634.575 242.431 634.238 242.097 633.805C241.769 633.371 241.514 632.861 241.332 632.275C241.156 631.684 241.069 631.042 241.069 630.351ZM242.703 630.166V630.351C242.703 630.825 242.75 631.271 242.844 631.687C242.944 632.103 243.096 632.469 243.301 632.785C243.506 633.102 243.767 633.351 244.083 633.532C244.4 633.708 244.778 633.796 245.217 633.796C245.756 633.796 246.198 633.682 246.544 633.453C246.896 633.225 247.177 632.923 247.388 632.548C247.599 632.173 247.763 631.766 247.88 631.326V629.208C247.81 628.886 247.707 628.575 247.572 628.276C247.444 627.972 247.274 627.702 247.063 627.468C246.858 627.228 246.603 627.037 246.298 626.896C245.999 626.756 245.645 626.686 245.235 626.686C244.789 626.686 244.405 626.779 244.083 626.967C243.767 627.148 243.506 627.4 243.301 627.723C243.096 628.039 242.944 628.408 242.844 628.83C242.75 629.246 242.703 629.691 242.703 630.166ZM254.866 631.396H253.231C253.237 630.834 253.287 630.374 253.381 630.017C253.48 629.653 253.642 629.322 253.864 629.023C254.087 628.725 254.383 628.385 254.752 628.004C255.021 627.729 255.268 627.471 255.49 627.23C255.719 626.984 255.903 626.721 256.044 626.439C256.185 626.152 256.255 625.81 256.255 625.411C256.255 625.007 256.182 624.658 256.035 624.365C255.895 624.072 255.684 623.847 255.402 623.688C255.127 623.53 254.784 623.451 254.374 623.451C254.034 623.451 253.712 623.513 253.407 623.636C253.103 623.759 252.856 623.949 252.669 624.207C252.481 624.459 252.385 624.79 252.379 625.2H250.753C250.765 624.538 250.929 623.97 251.245 623.495C251.567 623.021 252.001 622.657 252.546 622.405C253.091 622.153 253.7 622.027 254.374 622.027C255.118 622.027 255.751 622.162 256.272 622.432C256.8 622.701 257.201 623.088 257.477 623.592C257.752 624.09 257.89 624.682 257.89 625.367C257.89 625.895 257.781 626.381 257.564 626.826C257.354 627.266 257.081 627.679 256.747 628.065C256.413 628.452 256.059 628.821 255.684 629.173C255.361 629.472 255.145 629.809 255.033 630.184C254.922 630.559 254.866 630.963 254.866 631.396ZM253.161 634.183C253.161 633.919 253.243 633.696 253.407 633.515C253.571 633.333 253.809 633.242 254.119 633.242C254.436 633.242 254.676 633.333 254.84 633.515C255.004 633.696 255.086 633.919 255.086 634.183C255.086 634.435 255.004 634.651 254.84 634.833C254.676 635.015 254.436 635.105 254.119 635.105C253.809 635.105 253.571 635.015 253.407 634.833C253.243 634.651 253.161 634.435 253.161 634.183Z" fill="black"/>
<rect x="1" y="714" width="375" height="65" fill="#C4C4C4"/>
<path d="M173.461 768.484C173.461 768.252 173.424 768.047 173.352 767.869C173.283 767.687 173.16 767.523 172.982 767.377C172.809 767.231 172.568 767.092 172.258 766.96C171.952 766.828 171.565 766.693 171.096 766.557C170.604 766.411 170.159 766.249 169.763 766.071C169.366 765.889 169.027 765.682 168.744 765.449C168.462 765.217 168.245 764.95 168.095 764.649C167.944 764.349 167.869 764.005 167.869 763.617C167.869 763.23 167.949 762.872 168.108 762.544C168.268 762.216 168.496 761.931 168.792 761.689C169.093 761.443 169.451 761.252 169.865 761.115C170.28 760.979 170.743 760.91 171.253 760.91C172 760.91 172.634 761.054 173.153 761.341C173.677 761.623 174.076 761.995 174.35 762.455C174.623 762.911 174.76 763.398 174.76 763.918H173.447C173.447 763.544 173.368 763.214 173.208 762.927C173.049 762.635 172.807 762.407 172.483 762.243C172.16 762.075 171.75 761.99 171.253 761.99C170.784 761.99 170.396 762.061 170.091 762.202C169.785 762.343 169.558 762.535 169.407 762.776C169.261 763.018 169.188 763.294 169.188 763.604C169.188 763.813 169.232 764.005 169.318 764.178C169.41 764.346 169.549 764.504 169.735 764.649C169.927 764.795 170.168 764.93 170.46 765.053C170.756 765.176 171.109 765.294 171.52 765.408C172.085 765.568 172.572 765.745 172.982 765.941C173.393 766.137 173.73 766.358 173.994 766.604C174.263 766.846 174.461 767.122 174.589 767.432C174.721 767.737 174.787 768.083 174.787 768.471C174.787 768.876 174.705 769.243 174.541 769.571C174.377 769.899 174.142 770.18 173.837 770.412C173.532 770.645 173.165 770.825 172.736 770.952C172.312 771.075 171.839 771.137 171.314 771.137C170.854 771.137 170.401 771.073 169.954 770.945C169.512 770.818 169.109 770.626 168.744 770.371C168.384 770.116 168.095 769.801 167.876 769.428C167.662 769.049 167.555 768.612 167.555 768.115H168.867C168.867 768.457 168.933 768.751 169.065 768.997C169.198 769.239 169.378 769.439 169.605 769.599C169.838 769.758 170.1 769.877 170.392 769.954C170.688 770.027 170.995 770.063 171.314 770.063C171.775 770.063 172.164 770 172.483 769.872C172.802 769.744 173.044 769.562 173.208 769.325C173.377 769.088 173.461 768.808 173.461 768.484ZM179.347 771.137C178.832 771.137 178.365 771.05 177.945 770.877C177.531 770.699 177.173 770.451 176.872 770.132C176.576 769.813 176.348 769.435 176.188 768.997C176.029 768.56 175.949 768.081 175.949 767.562V767.274C175.949 766.673 176.038 766.137 176.216 765.668C176.394 765.194 176.635 764.793 176.94 764.465C177.246 764.137 177.592 763.888 177.979 763.72C178.367 763.551 178.768 763.467 179.183 763.467C179.711 763.467 180.167 763.558 180.55 763.74C180.937 763.923 181.254 764.178 181.5 764.506C181.746 764.829 181.928 765.212 182.047 765.654C182.165 766.092 182.225 766.57 182.225 767.09V767.657H176.701V766.625H180.96V766.529C180.942 766.201 180.873 765.882 180.755 765.572C180.641 765.262 180.459 765.007 180.208 764.807C179.957 764.606 179.616 764.506 179.183 764.506C178.896 764.506 178.631 764.567 178.39 764.69C178.148 764.809 177.941 764.987 177.768 765.224C177.594 765.461 177.46 765.75 177.364 766.092C177.269 766.434 177.221 766.828 177.221 767.274V767.562C177.221 767.912 177.269 768.243 177.364 768.553C177.465 768.858 177.608 769.127 177.795 769.359C177.986 769.592 178.216 769.774 178.485 769.906C178.759 770.038 179.069 770.104 179.415 770.104C179.862 770.104 180.24 770.013 180.55 769.831C180.86 769.649 181.131 769.405 181.363 769.1L182.129 769.708C181.969 769.95 181.767 770.18 181.521 770.398C181.274 770.617 180.971 770.795 180.611 770.932C180.256 771.068 179.834 771.137 179.347 771.137ZM188.062 769.735V765.928C188.062 765.636 188.003 765.383 187.885 765.169C187.771 764.95 187.598 764.782 187.365 764.663C187.133 764.545 186.846 764.485 186.504 764.485C186.185 764.485 185.905 764.54 185.663 764.649C185.426 764.759 185.239 764.902 185.103 765.08C184.97 765.258 184.904 765.449 184.904 765.654H183.64C183.64 765.39 183.708 765.128 183.845 764.868C183.981 764.608 184.177 764.374 184.433 764.164C184.692 763.95 185.002 763.781 185.362 763.658C185.727 763.531 186.132 763.467 186.579 763.467C187.117 763.467 187.591 763.558 188.001 763.74C188.416 763.923 188.739 764.198 188.972 764.567C189.209 764.932 189.327 765.39 189.327 765.941V769.387C189.327 769.633 189.348 769.895 189.389 770.173C189.434 770.451 189.5 770.69 189.587 770.891V771H188.268C188.204 770.854 188.154 770.66 188.117 770.419C188.081 770.173 188.062 769.945 188.062 769.735ZM188.281 766.516L188.295 767.404H187.017C186.657 767.404 186.335 767.434 186.053 767.493C185.77 767.548 185.533 767.632 185.342 767.746C185.15 767.86 185.005 768.004 184.904 768.177C184.804 768.345 184.754 768.544 184.754 768.771C184.754 769.004 184.806 769.216 184.911 769.407C185.016 769.599 185.173 769.751 185.383 769.865C185.597 769.975 185.859 770.029 186.169 770.029C186.556 770.029 186.898 769.947 187.194 769.783C187.491 769.619 187.725 769.419 187.898 769.182C188.076 768.945 188.172 768.715 188.186 768.491L188.726 769.1C188.694 769.291 188.607 769.503 188.466 769.735C188.325 769.968 188.135 770.191 187.898 770.405C187.666 770.615 187.388 770.79 187.064 770.932C186.745 771.068 186.385 771.137 185.984 771.137C185.483 771.137 185.043 771.039 184.665 770.843C184.291 770.647 184 770.385 183.79 770.057C183.585 769.724 183.482 769.353 183.482 768.942C183.482 768.546 183.56 768.197 183.715 767.896C183.87 767.591 184.093 767.338 184.385 767.138C184.676 766.933 185.027 766.778 185.438 766.673C185.848 766.568 186.306 766.516 186.812 766.516H188.281ZM192.581 764.766V771H191.316V763.604H192.547L192.581 764.766ZM194.892 763.562L194.885 764.738C194.78 764.715 194.68 764.702 194.584 764.697C194.493 764.688 194.388 764.684 194.27 764.684C193.978 764.684 193.72 764.729 193.497 764.82C193.274 764.911 193.085 765.039 192.93 765.203C192.775 765.367 192.652 765.563 192.561 765.791C192.474 766.014 192.417 766.26 192.39 766.529L192.034 766.734C192.034 766.288 192.077 765.868 192.164 765.477C192.255 765.085 192.394 764.738 192.581 764.438C192.768 764.132 193.005 763.895 193.292 763.727C193.584 763.553 193.93 763.467 194.331 763.467C194.422 763.467 194.527 763.478 194.646 763.501C194.764 763.519 194.846 763.54 194.892 763.562ZM198.884 770.098C199.185 770.098 199.463 770.036 199.718 769.913C199.973 769.79 200.183 769.621 200.347 769.407C200.511 769.188 200.604 768.94 200.627 768.662H201.83C201.807 769.1 201.659 769.507 201.386 769.886C201.117 770.259 200.764 770.562 200.326 770.795C199.889 771.023 199.408 771.137 198.884 771.137C198.328 771.137 197.842 771.039 197.428 770.843C197.018 770.647 196.676 770.378 196.402 770.036C196.133 769.694 195.931 769.302 195.794 768.86C195.662 768.414 195.596 767.942 195.596 767.445V767.158C195.596 766.661 195.662 766.192 195.794 765.75C195.931 765.303 196.133 764.909 196.402 764.567C196.676 764.226 197.018 763.957 197.428 763.761C197.842 763.565 198.328 763.467 198.884 763.467C199.463 763.467 199.968 763.585 200.401 763.822C200.834 764.055 201.174 764.374 201.42 764.779C201.671 765.18 201.807 765.636 201.83 766.146H200.627C200.604 765.841 200.518 765.565 200.367 765.319C200.221 765.073 200.021 764.877 199.766 764.731C199.515 764.581 199.221 764.506 198.884 764.506C198.496 764.506 198.171 764.583 197.906 764.738C197.646 764.889 197.439 765.094 197.284 765.354C197.134 765.609 197.024 765.894 196.956 766.208C196.892 766.518 196.86 766.835 196.86 767.158V767.445C196.86 767.769 196.892 768.088 196.956 768.402C197.02 768.717 197.127 769.002 197.277 769.257C197.432 769.512 197.64 769.717 197.899 769.872C198.164 770.022 198.492 770.098 198.884 770.098ZM204.517 760.5V771H203.252V760.5H204.517ZM204.216 767.021L203.689 767.001C203.694 766.495 203.769 766.028 203.915 765.6C204.061 765.167 204.266 764.791 204.53 764.472C204.795 764.153 205.109 763.907 205.474 763.733C205.843 763.556 206.251 763.467 206.697 763.467C207.062 763.467 207.39 763.517 207.682 763.617C207.973 763.713 208.222 763.868 208.427 764.082C208.636 764.296 208.796 764.574 208.905 764.916C209.015 765.253 209.069 765.666 209.069 766.153V771H207.798V766.14C207.798 765.752 207.741 765.442 207.627 765.21C207.513 764.973 207.347 764.802 207.128 764.697C206.909 764.588 206.64 764.533 206.321 764.533C206.007 764.533 205.72 764.599 205.46 764.731C205.205 764.864 204.984 765.046 204.797 765.278C204.615 765.511 204.471 765.777 204.366 766.078C204.266 766.374 204.216 766.689 204.216 767.021Z" fill="black"/>
<path d="M186.185 747.092C188.746 747.091 191.234 746.234 193.252 744.656L199.596 751L201.637 748.959L195.293 742.615C196.872 740.597 197.73 738.108 197.73 735.546C197.73 729.18 192.551 724 186.185 724C179.818 724 174.639 729.18 174.639 735.546C174.639 741.912 179.818 747.092 186.185 747.092ZM186.185 726.886C190.96 726.886 194.844 730.77 194.844 735.546C194.844 740.322 190.96 744.205 186.185 744.205C181.409 744.205 177.525 740.322 177.525 735.546C177.525 730.77 181.409 726.886 186.185 726.886Z" fill="black"/>
<path d="M188.222 733.505C188.769 734.054 189.071 734.778 189.071 735.546H191.957C191.959 734.787 191.81 734.036 191.519 733.336C191.228 732.635 190.801 731.999 190.263 731.464C188.078 729.282 184.29 729.282 182.106 731.464L184.144 733.508C185.241 732.414 187.131 732.417 188.222 733.505Z" fill="black"/>
<path d="M65.8164 765.326V766.399H60.4297V765.326H65.8164ZM60.6348 761.047V771H59.3154V761.047H60.6348ZM66.9648 761.047V771H65.6523V761.047H66.9648ZM68.7832 767.384V767.227C68.7832 766.693 68.8607 766.199 69.0156 765.743C69.1706 765.283 69.3939 764.884 69.6855 764.547C69.9772 764.205 70.3304 763.941 70.7451 763.754C71.1598 763.562 71.6247 763.467 72.1396 763.467C72.6592 763.467 73.1263 763.562 73.541 763.754C73.9603 763.941 74.3158 764.205 74.6074 764.547C74.9036 764.884 75.1292 765.283 75.2842 765.743C75.4391 766.199 75.5166 766.693 75.5166 767.227V767.384C75.5166 767.917 75.4391 768.411 75.2842 768.867C75.1292 769.323 74.9036 769.722 74.6074 770.063C74.3158 770.401 73.9626 770.665 73.5479 770.856C73.1377 771.043 72.6729 771.137 72.1533 771.137C71.6338 771.137 71.1667 771.043 70.752 770.856C70.3372 770.665 69.9818 770.401 69.6855 770.063C69.3939 769.722 69.1706 769.323 69.0156 768.867C68.8607 768.411 68.7832 767.917 68.7832 767.384ZM70.0479 767.227V767.384C70.0479 767.753 70.0911 768.102 70.1777 768.43C70.2643 768.753 70.3942 769.04 70.5674 769.291C70.7451 769.542 70.9661 769.74 71.2305 769.886C71.4948 770.027 71.8024 770.098 72.1533 770.098C72.4997 770.098 72.8027 770.027 73.0625 769.886C73.3268 769.74 73.5456 769.542 73.7188 769.291C73.8919 769.04 74.0218 768.753 74.1084 768.43C74.1995 768.102 74.2451 767.753 74.2451 767.384V767.227C74.2451 766.862 74.1995 766.518 74.1084 766.194C74.0218 765.866 73.8896 765.577 73.7119 765.326C73.5387 765.071 73.32 764.87 73.0557 764.725C72.7959 764.579 72.4906 764.506 72.1396 764.506C71.7933 764.506 71.488 764.579 71.2236 764.725C70.9639 764.87 70.7451 765.071 70.5674 765.326C70.3942 765.577 70.2643 765.866 70.1777 766.194C70.0911 766.518 70.0479 766.862 70.0479 767.227ZM78.3604 765.073V771H77.0889V763.604H78.292L78.3604 765.073ZM78.1006 767.021L77.5127 767.001C77.5173 766.495 77.5833 766.028 77.7109 765.6C77.8385 765.167 78.0277 764.791 78.2783 764.472C78.529 764.153 78.8411 763.907 79.2148 763.733C79.5885 763.556 80.0215 763.467 80.5137 763.467C80.86 763.467 81.179 763.517 81.4707 763.617C81.7624 763.713 82.0153 763.866 82.2295 764.075C82.4437 764.285 82.61 764.554 82.7285 764.882C82.847 765.21 82.9062 765.606 82.9062 766.071V771H81.6416V766.133C81.6416 765.745 81.5755 765.436 81.4434 765.203C81.3158 764.971 81.1335 764.802 80.8965 764.697C80.6595 764.588 80.3815 764.533 80.0625 764.533C79.6888 764.533 79.3766 764.599 79.126 764.731C78.8753 764.864 78.6748 765.046 78.5244 765.278C78.374 765.511 78.2646 765.777 78.1963 766.078C78.1325 766.374 78.1006 766.689 78.1006 767.021ZM82.8926 766.324L82.0449 766.584C82.0495 766.178 82.1156 765.789 82.2432 765.415C82.3753 765.041 82.5645 764.709 82.8105 764.417C83.0612 764.125 83.3688 763.895 83.7334 763.727C84.098 763.553 84.515 763.467 84.9844 763.467C85.3809 763.467 85.7318 763.519 86.0371 763.624C86.347 763.729 86.6068 763.891 86.8164 764.109C87.0306 764.324 87.1924 764.599 87.3018 764.937C87.4111 765.274 87.4658 765.675 87.4658 766.14V771H86.1943V766.126C86.1943 765.711 86.1283 765.39 85.9961 765.162C85.8685 764.93 85.6862 764.768 85.4492 764.677C85.2168 764.581 84.9388 764.533 84.6152 764.533C84.3372 764.533 84.0911 764.581 83.877 764.677C83.6628 764.772 83.4827 764.905 83.3369 765.073C83.1911 765.237 83.0794 765.426 83.002 765.641C82.929 765.855 82.8926 766.083 82.8926 766.324ZM92.4492 771.137C91.9342 771.137 91.4671 771.05 91.0479 770.877C90.6331 770.699 90.2754 770.451 89.9746 770.132C89.6784 769.813 89.4505 769.435 89.291 768.997C89.1315 768.56 89.0518 768.081 89.0518 767.562V767.274C89.0518 766.673 89.1406 766.137 89.3184 765.668C89.4961 765.194 89.7376 764.793 90.043 764.465C90.3483 764.137 90.6947 763.888 91.082 763.72C91.4694 763.551 91.8704 763.467 92.2852 763.467C92.8138 763.467 93.2695 763.558 93.6523 763.74C94.0397 763.923 94.3564 764.178 94.6025 764.506C94.8486 764.829 95.0309 765.212 95.1494 765.654C95.2679 766.092 95.3271 766.57 95.3271 767.09V767.657H89.8037V766.625H94.0625V766.529C94.0443 766.201 93.9759 765.882 93.8574 765.572C93.7435 765.262 93.5612 765.007 93.3105 764.807C93.0599 764.606 92.7181 764.506 92.2852 764.506C91.998 764.506 91.7337 764.567 91.4922 764.69C91.2507 764.809 91.0433 764.987 90.8701 765.224C90.6969 765.461 90.5625 765.75 90.4668 766.092C90.3711 766.434 90.3232 766.828 90.3232 767.274V767.562C90.3232 767.912 90.3711 768.243 90.4668 768.553C90.5671 768.858 90.7106 769.127 90.8975 769.359C91.0889 769.592 91.319 769.774 91.5879 769.906C91.8613 770.038 92.1712 770.104 92.5176 770.104C92.9642 770.104 93.3424 770.013 93.6523 769.831C93.9622 769.649 94.2334 769.405 94.4658 769.1L95.2314 769.708C95.0719 769.95 94.8691 770.18 94.623 770.398C94.377 770.617 94.0739 770.795 93.7139 770.932C93.3584 771.068 92.9368 771.137 92.4492 771.137Z" fill="black"/>
<path d="M91.5782 737.155L78.7063 724.293C78.6137 724.2 78.5036 724.126 78.3824 724.076C78.2612 724.026 78.1313 724 78.0001 724C77.8689 724 77.739 724.026 77.6178 724.076C77.4966 724.126 77.3865 724.2 77.2938 724.293L64.422 737.155C64.047 737.53 63.8345 738.04 63.8345 738.571C63.8345 739.674 64.7313 740.571 65.8345 740.571H67.1907V749.749C67.1907 750.302 67.6376 750.749 68.1907 750.749H76.0001V743.749H79.5001V750.749H87.8095C88.3626 750.749 88.8095 750.302 88.8095 749.749V740.571H90.1657C90.697 740.571 91.2063 740.362 91.5813 739.984C92.3595 739.202 92.3595 737.937 91.5782 737.155Z" fill="black"/>
<path d="M274.9 761.047H276.179L279.439 769.161L282.693 761.047H283.979L279.932 771H278.934L274.9 761.047ZM274.483 761.047H275.611L275.796 767.117V771H274.483V761.047ZM283.261 761.047H284.389V771H283.076V767.117L283.261 761.047ZM288.593 770.234L290.65 763.604H292.004L289.037 772.142C288.969 772.324 288.878 772.52 288.764 772.729C288.654 772.944 288.513 773.146 288.34 773.338C288.167 773.529 287.957 773.684 287.711 773.803C287.469 773.926 287.18 773.987 286.843 773.987C286.743 773.987 286.615 773.974 286.46 773.946C286.305 773.919 286.196 773.896 286.132 773.878L286.125 772.853C286.161 772.857 286.218 772.862 286.296 772.866C286.378 772.875 286.435 772.88 286.467 772.88C286.754 772.88 286.998 772.841 287.198 772.764C287.399 772.691 287.567 772.565 287.704 772.388C287.845 772.215 287.966 771.975 288.066 771.67L288.593 770.234ZM287.082 763.604L289.003 769.346L289.331 770.679L288.422 771.144L285.701 763.604H287.082ZM300.48 767.097H297.821V766.023H300.48C300.995 766.023 301.412 765.941 301.731 765.777C302.05 765.613 302.283 765.385 302.429 765.094C302.579 764.802 302.654 764.469 302.654 764.096C302.654 763.754 302.579 763.433 302.429 763.132C302.283 762.831 302.05 762.59 301.731 762.407C301.412 762.22 300.995 762.127 300.48 762.127H298.129V771H296.81V761.047H300.48C301.232 761.047 301.868 761.177 302.388 761.437C302.907 761.696 303.301 762.056 303.57 762.517C303.839 762.972 303.974 763.494 303.974 764.082C303.974 764.72 303.839 765.265 303.57 765.716C303.301 766.167 302.907 766.511 302.388 766.748C301.868 766.98 301.232 767.097 300.48 767.097ZM306.715 764.766V771H305.45V763.604H306.681L306.715 764.766ZM309.025 763.562L309.019 764.738C308.914 764.715 308.813 764.702 308.718 764.697C308.627 764.688 308.522 764.684 308.403 764.684C308.112 764.684 307.854 764.729 307.631 764.82C307.408 764.911 307.218 765.039 307.063 765.203C306.909 765.367 306.785 765.563 306.694 765.791C306.608 766.014 306.551 766.26 306.523 766.529L306.168 766.734C306.168 766.288 306.211 765.868 306.298 765.477C306.389 765.085 306.528 764.738 306.715 764.438C306.902 764.132 307.139 763.895 307.426 763.727C307.717 763.553 308.064 763.467 308.465 763.467C308.556 763.467 308.661 763.478 308.779 763.501C308.898 763.519 308.98 763.54 309.025 763.562ZM309.723 767.384V767.227C309.723 766.693 309.8 766.199 309.955 765.743C310.11 765.283 310.333 764.884 310.625 764.547C310.917 764.205 311.27 763.941 311.685 763.754C312.099 763.562 312.564 763.467 313.079 763.467C313.599 763.467 314.066 763.562 314.48 763.754C314.9 763.941 315.255 764.205 315.547 764.547C315.843 764.884 316.069 765.283 316.224 765.743C316.379 766.199 316.456 766.693 316.456 767.227V767.384C316.456 767.917 316.379 768.411 316.224 768.867C316.069 769.323 315.843 769.722 315.547 770.063C315.255 770.401 314.902 770.665 314.487 770.856C314.077 771.043 313.612 771.137 313.093 771.137C312.573 771.137 312.106 771.043 311.691 770.856C311.277 770.665 310.921 770.401 310.625 770.063C310.333 769.722 310.11 769.323 309.955 768.867C309.8 768.411 309.723 767.917 309.723 767.384ZM310.987 767.227V767.384C310.987 767.753 311.031 768.102 311.117 768.43C311.204 768.753 311.334 769.04 311.507 769.291C311.685 769.542 311.906 769.74 312.17 769.886C312.434 770.027 312.742 770.098 313.093 770.098C313.439 770.098 313.742 770.027 314.002 769.886C314.266 769.74 314.485 769.542 314.658 769.291C314.831 769.04 314.961 768.753 315.048 768.43C315.139 768.102 315.185 767.753 315.185 767.384V767.227C315.185 766.862 315.139 766.518 315.048 766.194C314.961 765.866 314.829 765.577 314.651 765.326C314.478 765.071 314.259 764.87 313.995 764.725C313.735 764.579 313.43 764.506 313.079 764.506C312.733 764.506 312.427 764.579 312.163 764.725C311.903 764.87 311.685 765.071 311.507 765.326C311.334 765.577 311.204 765.866 311.117 766.194C311.031 766.518 310.987 766.862 310.987 767.227ZM319.73 771H318.466V762.961C318.466 762.4 318.575 761.926 318.794 761.539C319.013 761.152 319.325 760.858 319.73 760.657C320.136 760.457 320.617 760.356 321.173 760.356C321.501 760.356 321.822 760.397 322.137 760.479C322.451 760.557 322.775 760.655 323.107 760.773L322.896 761.84C322.686 761.758 322.442 761.68 322.164 761.607C321.891 761.53 321.59 761.491 321.262 761.491C320.719 761.491 320.327 761.614 320.086 761.86C319.849 762.102 319.73 762.469 319.73 762.961V771ZM321.241 763.604V764.574H317.297V763.604H321.241ZM323.729 763.604V771H322.465V763.604H323.729ZM327.182 760.5V771H325.91V760.5H327.182ZM332.281 771.137C331.766 771.137 331.299 771.05 330.88 770.877C330.465 770.699 330.107 770.451 329.807 770.132C329.51 769.813 329.283 769.435 329.123 768.997C328.964 768.56 328.884 768.081 328.884 767.562V767.274C328.884 766.673 328.973 766.137 329.15 765.668C329.328 765.194 329.57 764.793 329.875 764.465C330.18 764.137 330.527 763.888 330.914 763.72C331.301 763.551 331.702 763.467 332.117 763.467C332.646 763.467 333.102 763.558 333.484 763.74C333.872 763.923 334.188 764.178 334.435 764.506C334.681 764.829 334.863 765.212 334.981 765.654C335.1 766.092 335.159 766.57 335.159 767.09V767.657H329.636V766.625H333.895V766.529C333.876 766.201 333.808 765.882 333.689 765.572C333.576 765.262 333.393 765.007 333.143 764.807C332.892 764.606 332.55 764.506 332.117 764.506C331.83 764.506 331.566 764.567 331.324 764.69C331.083 764.809 330.875 764.987 330.702 765.224C330.529 765.461 330.395 765.75 330.299 766.092C330.203 766.434 330.155 766.828 330.155 767.274V767.562C330.155 767.912 330.203 768.243 330.299 768.553C330.399 768.858 330.543 769.127 330.729 769.359C330.921 769.592 331.151 769.774 331.42 769.906C331.693 770.038 332.003 770.104 332.35 770.104C332.796 770.104 333.174 770.013 333.484 769.831C333.794 769.649 334.065 769.405 334.298 769.1L335.063 769.708C334.904 769.95 334.701 770.18 334.455 770.398C334.209 770.617 333.906 770.795 333.546 770.932C333.19 771.068 332.769 771.137 332.281 771.137Z" fill="black"/>
<path d="M299.688 725.938C300.646 725.938 301.582 726.222 302.379 726.754C303.175 727.286 303.796 728.043 304.163 728.928C304.529 729.813 304.625 730.787 304.438 731.726C304.251 732.666 303.79 733.529 303.113 734.206C302.435 734.884 301.572 735.345 300.632 735.532C299.693 735.719 298.719 735.623 297.834 735.256C296.949 734.89 296.192 734.269 295.66 733.472C295.128 732.676 294.844 731.739 294.844 730.781C294.844 729.497 295.354 728.265 296.262 727.356C297.171 726.448 298.403 725.938 299.688 725.938ZM299.688 724C298.346 724 297.035 724.398 295.92 725.143C294.805 725.888 293.936 726.947 293.422 728.186C292.909 729.425 292.775 730.789 293.037 732.104C293.298 733.42 293.944 734.628 294.892 735.576C295.841 736.525 297.049 737.171 298.365 737.432C299.68 737.694 301.043 737.56 302.283 737.046C303.522 736.533 304.581 735.664 305.326 734.549C306.071 733.434 306.469 732.122 306.469 730.781C306.469 728.983 305.754 727.258 304.483 725.986C303.211 724.714 301.486 724 299.688 724Z" fill="black"/>
<path d="M309.375 751.125H307.438V746.281C307.438 744.997 306.927 743.765 306.019 742.856C305.11 741.948 303.878 741.438 302.594 741.438H296.781C295.497 741.438 294.265 741.948 293.356 742.856C292.448 743.765 291.938 744.997 291.938 746.281V751.125H290V746.281C290 744.483 290.714 742.758 291.986 741.486C293.258 740.214 294.983 739.5 296.781 739.5H302.594C304.392 739.5 306.117 740.214 307.389 741.486C308.661 742.758 309.375 744.483 309.375 746.281V751.125Z" fill="black"/>
<path d="M309.375 725.938H319.062V727.875H309.375V725.938Z" fill="black"/>
<path d="M309.375 730.781H319.062V732.719H309.375V730.781Z" fill="black"/>
<path d="M309.375 735.625H316.156V737.562H309.375V735.625Z" fill="black"/>
<rect x="0.5" y="0.5" width="376" height="813" stroke="black"/>
<defs>
<clipPath id="clip0_10_2542">
<rect width="74" height="74" fill="white" transform="translate(152 190)"/>
</clipPath>
</defs>
</svg>
