<svg width="377" height="814" viewBox="0 0 377 814" fill="none" xmlns="http://www.w3.org/2000/svg">
<g clip-path="url(#clip0_24_3728)">
<rect x="1" y="1" width="375" height="812" fill="white"/>
<path d="M38.2146 18.1675C35.9222 18.1675 34.2889 19.7349 34.2889 21.8809V21.8955C34.2889 23.9023 35.7098 25.3818 37.7386 25.3818C39.1888 25.3818 40.1116 24.6421 40.4998 23.8071H40.6463C40.6463 23.8877 40.639 23.9683 40.639 24.0488C40.5584 26.0703 39.8479 27.7109 38.1707 27.7109C37.2405 27.7109 36.5887 27.2275 36.3104 26.4878L36.2884 26.4146H34.428L34.4427 26.4951C34.7796 28.1138 36.2298 29.2637 38.1707 29.2637C40.8294 29.2637 42.4334 27.1543 42.4334 23.5947V23.5801C42.4334 19.7715 40.4705 18.1675 38.2146 18.1675ZM38.2073 23.9316C37.0062 23.9316 36.1346 23.0527 36.1346 21.8296V21.8149C36.1346 20.6357 37.0647 19.7056 38.2293 19.7056C39.4012 19.7056 40.3167 20.6504 40.3167 21.8589V21.8735C40.3167 23.0674 39.4012 23.9316 38.2073 23.9316ZM45.4586 22.1519C46.1324 22.1519 46.6231 21.6392 46.6231 20.9946C46.6231 20.3428 46.1324 19.8374 45.4586 19.8374C44.7921 19.8374 44.294 20.3428 44.294 20.9946C44.294 21.6392 44.7921 22.1519 45.4586 22.1519ZM45.4586 27.5864C46.1324 27.5864 46.6231 27.0811 46.6231 26.4292C46.6231 25.7773 46.1324 25.272 45.4586 25.272C44.7921 25.272 44.294 25.7773 44.294 26.4292C44.294 27.0811 44.7921 27.5864 45.4586 27.5864ZM53.6107 29H55.4198V26.9712H56.8407V25.4111H55.4198V18.4312H52.7465C51.3109 20.6138 49.8095 23.0454 48.4398 25.4258V26.9712H53.6107V29ZM50.1977 25.4551V25.3452C51.223 23.5508 52.4462 21.5952 53.5302 19.9399H53.64V25.4551H50.1977ZM60.9206 29H62.8103V18.4312H60.9279L58.1667 20.3721V22.1519L60.7961 20.2915H60.9206V29Z" fill="black"/>
<rect opacity="0.35" x="337.833" y="18.8333" width="21" height="10.3333" rx="2.16667" stroke="black"/>
<path opacity="0.4" d="M360.333 22V26C361.138 25.6612 361.661 24.8731 361.661 24C361.661 23.1269 361.138 22.3388 360.333 22Z" fill="black"/>
<rect x="339.333" y="20.3333" width="18" height="7.33333" rx="1.33333" fill="black"/>
<path fill-rule="evenodd" clip-rule="evenodd" d="M324.667 20.615C326.892 20.6151 329.031 21.4693 330.644 23.0008C330.765 23.1191 330.959 23.1176 331.079 22.9975L332.239 21.8272C332.3 21.7663 332.334 21.6837 332.333 21.5979C332.333 21.5121 332.298 21.4299 332.237 21.3697C328.005 17.3175 321.329 17.3175 317.097 21.3697C317.035 21.4299 317.001 21.512 317 21.5978C316.999 21.6837 317.033 21.7662 317.094 21.8272L318.255 22.9975C318.374 23.1178 318.568 23.1193 318.69 23.0008C320.302 21.4692 322.442 20.615 324.667 20.615ZM324.667 24.4226C325.889 24.4226 327.068 24.8765 327.974 25.6963C328.097 25.8126 328.29 25.8101 328.409 25.6906L329.569 24.5203C329.63 24.4589 329.663 24.3756 329.663 24.2891C329.662 24.2025 329.626 24.12 329.564 24.0598C326.805 21.4954 322.532 21.4954 319.773 24.0598C319.71 24.12 319.675 24.2026 319.674 24.2891C319.673 24.3757 319.707 24.459 319.768 24.5203L320.927 25.6906C321.047 25.8101 321.24 25.8126 321.362 25.6963C322.268 24.877 323.446 24.4231 324.667 24.4226ZM326.989 26.9845C326.991 27.0712 326.957 27.1549 326.895 27.2157L324.89 29.2377C324.831 29.2971 324.751 29.3306 324.667 29.3306C324.583 29.3306 324.503 29.2971 324.445 29.2377L322.439 27.2157C322.377 27.1549 322.343 27.0712 322.345 26.9844C322.347 26.8976 322.384 26.8154 322.449 26.7573C323.729 25.675 325.605 25.675 326.886 26.7573C326.95 26.8155 326.988 26.8977 326.989 26.9845Z" fill="black"/>
<path fill-rule="evenodd" clip-rule="evenodd" d="M311 18.6667H310C309.448 18.6667 309 19.1145 309 19.6667V28.3334C309 28.8857 309.448 29.3334 310 29.3334H311C311.552 29.3334 312 28.8857 312 28.3334V19.6667C312 19.1145 311.552 18.6667 311 18.6667ZM305.333 21.0001H306.333C306.886 21.0001 307.333 21.4478 307.333 22.0001V28.3334C307.333 28.8857 306.886 29.3334 306.333 29.3334H305.333C304.781 29.3334 304.333 28.8857 304.333 28.3334V22.0001C304.333 21.4478 304.781 21.0001 305.333 21.0001ZM301.667 23.3334H300.667C300.114 23.3334 299.667 23.7811 299.667 24.3334V28.3334C299.667 28.8857 300.114 29.3334 300.667 29.3334H301.667C302.219 29.3334 302.667 28.8857 302.667 28.3334V24.3334C302.667 23.7811 302.219 23.3334 301.667 23.3334ZM297 25.3334H296C295.448 25.3334 295 25.7811 295 26.3334V28.3334C295 28.8857 295.448 29.3334 296 29.3334H297C297.552 29.3334 298 28.8857 298 28.3334V26.3334C298 25.7811 297.552 25.3334 297 25.3334Z" fill="black"/>
<rect x="1" y="778" width="375" height="35" fill="white"/>
<rect x="122" y="799" width="134" height="5" rx="2.5" fill="black"/>
<rect x="1" y="45" width="375" height="40" fill="#C4C4C4"/>
<path d="M162.442 71.0088H170.528V72.8486H160.18V55.7861H162.442V71.0088ZM185.146 64.8682C185.146 66.54 184.865 68.001 184.302 69.251C183.74 70.4932 182.943 71.4424 181.912 72.0986C180.88 72.7549 179.677 73.083 178.302 73.083C176.959 73.083 175.767 72.7549 174.728 72.0986C173.689 71.4346 172.88 70.4932 172.302 69.2744C171.732 68.0479 171.439 66.6299 171.423 65.0205V63.79C171.423 62.1494 171.709 60.7002 172.279 59.4424C172.849 58.1846 173.654 57.2236 174.693 56.5596C175.74 55.8877 176.935 55.5518 178.279 55.5518C179.646 55.5518 180.849 55.8838 181.888 56.5479C182.935 57.2041 183.74 58.1611 184.302 59.4189C184.865 60.6689 185.146 62.126 185.146 63.79V64.8682ZM182.908 63.7666C182.908 61.7432 182.502 60.1924 181.689 59.1143C180.877 58.0283 179.74 57.4854 178.279 57.4854C176.857 57.4854 175.736 58.0283 174.916 59.1143C174.103 60.1924 173.685 61.6924 173.662 63.6143V64.8682C173.662 66.8291 174.072 68.3721 174.892 69.4971C175.72 70.6143 176.857 71.1729 178.302 71.1729C179.755 71.1729 180.88 70.6455 181.677 69.5908C182.474 68.5283 182.884 67.0088 182.908 65.0322V63.7666ZM200.819 70.6104C200.241 71.4385 199.432 72.0596 198.393 72.4736C197.362 72.8799 196.159 73.083 194.784 73.083C193.393 73.083 192.159 72.7588 191.08 72.1104C190.002 71.4541 189.166 70.5244 188.573 69.3213C187.987 68.1182 187.686 66.7236 187.67 65.1377V63.6494C187.67 61.0791 188.268 59.0869 189.463 57.6729C190.666 56.2588 192.354 55.5518 194.526 55.5518C196.307 55.5518 197.741 56.0088 198.827 56.9229C199.912 57.8291 200.577 59.1182 200.819 60.79H198.569C198.147 58.5322 196.803 57.4033 194.537 57.4033C193.03 57.4033 191.885 57.9346 191.104 58.9971C190.33 60.0518 189.94 61.583 189.932 63.5908V64.9854C189.932 66.8994 190.37 68.4229 191.245 69.5557C192.12 70.6807 193.303 71.2432 194.795 71.2432C195.639 71.2432 196.377 71.1494 197.01 70.9619C197.643 70.7744 198.166 70.458 198.58 70.0127V66.1807H194.631V64.3525H200.819V70.6104ZM217.405 64.8682C217.405 66.54 217.124 68.001 216.562 69.251C215.999 70.4932 215.202 71.4424 214.171 72.0986C213.14 72.7549 211.937 73.083 210.562 73.083C209.218 73.083 208.027 72.7549 206.987 72.0986C205.948 71.4346 205.14 70.4932 204.562 69.2744C203.991 68.0479 203.698 66.6299 203.683 65.0205V63.79C203.683 62.1494 203.968 60.7002 204.538 59.4424C205.109 58.1846 205.913 57.2236 206.952 56.5596C207.999 55.8877 209.195 55.5518 210.538 55.5518C211.905 55.5518 213.109 55.8838 214.148 56.5479C215.195 57.2041 215.999 58.1611 216.562 59.4189C217.124 60.6689 217.405 62.126 217.405 63.79V64.8682ZM215.167 63.7666C215.167 61.7432 214.761 60.1924 213.948 59.1143C213.136 58.0283 211.999 57.4854 210.538 57.4854C209.116 57.4854 207.995 58.0283 207.175 59.1143C206.362 60.1924 205.945 61.6924 205.921 63.6143V64.8682C205.921 66.8291 206.331 68.3721 207.152 69.4971C207.98 70.6143 209.116 71.1729 210.562 71.1729C212.015 71.1729 213.14 70.6455 213.937 69.5908C214.734 68.5283 215.144 67.0088 215.167 65.0322V63.7666Z" fill="black"/>
<path d="M93.8523 506.523C93.8523 505.859 93.618 505.352 93.1492 505C92.6805 504.641 91.8367 504.266 90.618 503.875C89.3992 503.477 88.4344 503.086 87.7234 502.703C85.7859 501.656 84.8172 500.246 84.8172 498.473C84.8172 497.551 85.075 496.73 85.5906 496.012C86.1141 495.285 86.8602 494.719 87.8289 494.312C88.8055 493.906 89.8992 493.703 91.1102 493.703C92.3289 493.703 93.4148 493.926 94.368 494.371C95.3211 494.809 96.0594 495.43 96.5828 496.234C97.1141 497.039 97.3797 497.953 97.3797 498.977H93.8641C93.8641 498.195 93.618 497.59 93.1258 497.16C92.6336 496.723 91.9422 496.504 91.0516 496.504C90.1922 496.504 89.5242 496.688 89.0477 497.055C88.5711 497.414 88.3328 497.891 88.3328 498.484C88.3328 499.039 88.6102 499.504 89.1648 499.879C89.7273 500.254 90.5516 500.605 91.6375 500.934C93.6375 501.535 95.0945 502.281 96.0086 503.172C96.9227 504.062 97.3797 505.172 97.3797 506.5C97.3797 507.977 96.8211 509.137 95.7039 509.98C94.5867 510.816 93.0828 511.234 91.1922 511.234C89.8797 511.234 88.6844 510.996 87.6062 510.52C86.5281 510.035 85.7039 509.375 85.1336 508.539C84.5711 507.703 84.2898 506.734 84.2898 505.633H87.8172C87.8172 507.516 88.9422 508.457 91.1922 508.457C92.0281 508.457 92.6805 508.289 93.1492 507.953C93.618 507.609 93.8523 507.133 93.8523 506.523ZM102.822 511H99.4234V498.32H102.822V511ZM99.2242 495.039C99.2242 494.531 99.3922 494.113 99.7281 493.785C100.072 493.457 100.537 493.293 101.123 493.293C101.701 493.293 102.162 493.457 102.505 493.785C102.849 494.113 103.021 494.531 103.021 495.039C103.021 495.555 102.845 495.977 102.494 496.305C102.15 496.633 101.693 496.797 101.123 496.797C100.552 496.797 100.091 496.633 99.7398 496.305C99.3961 495.977 99.2242 495.555 99.2242 495.039ZM104.83 504.566C104.83 502.621 105.291 501.055 106.213 499.867C107.143 498.68 108.393 498.086 109.963 498.086C111.354 498.086 112.436 498.562 113.209 499.516L113.35 498.32H116.42V510.578C116.42 511.688 116.166 512.652 115.659 513.473C115.159 514.293 114.452 514.918 113.537 515.348C112.623 515.777 111.553 515.992 110.327 515.992C109.397 515.992 108.491 515.805 107.608 515.43C106.725 515.062 106.057 514.586 105.604 514L107.104 511.938C107.948 512.883 108.971 513.355 110.174 513.355C111.073 513.355 111.772 513.113 112.272 512.629C112.772 512.152 113.022 511.473 113.022 510.59V509.91C112.241 510.793 111.213 511.234 109.94 511.234C108.416 511.234 107.182 510.641 106.237 509.453C105.299 508.258 104.83 506.676 104.83 504.707V504.566ZM108.217 504.812C108.217 505.961 108.448 506.863 108.909 507.52C109.37 508.168 110.002 508.492 110.807 508.492C111.838 508.492 112.577 508.105 113.022 507.332V502C112.569 501.227 111.838 500.84 110.83 500.84C110.018 500.84 109.377 501.172 108.909 501.836C108.448 502.5 108.217 503.492 108.217 504.812ZM121.851 498.32L121.956 499.785C122.862 498.652 124.077 498.086 125.601 498.086C126.945 498.086 127.945 498.48 128.601 499.27C129.257 500.059 129.593 501.238 129.609 502.809V511H126.222V502.891C126.222 502.172 126.066 501.652 125.753 501.332C125.441 501.004 124.921 500.84 124.195 500.84C123.241 500.84 122.527 501.246 122.05 502.059V511H118.663V498.32H121.851ZM150.7 493.938V505.176C150.7 507.043 150.114 508.52 148.942 509.605C147.778 510.691 146.184 511.234 144.161 511.234C142.169 511.234 140.587 510.707 139.415 509.652C138.243 508.598 137.645 507.148 137.622 505.305V493.938H141.137V505.199C141.137 506.316 141.403 507.133 141.934 507.648C142.473 508.156 143.216 508.41 144.161 508.41C146.137 508.41 147.141 507.371 147.173 505.293V493.938H150.7ZM164.474 504.777C164.474 506.73 164.029 508.297 163.138 509.477C162.255 510.648 161.06 511.234 159.552 511.234C158.271 511.234 157.236 510.789 156.447 509.898V515.875H153.06V498.32H156.201L156.318 499.562C157.138 498.578 158.209 498.086 159.529 498.086C161.091 498.086 162.306 498.664 163.173 499.82C164.041 500.977 164.474 502.57 164.474 504.602V504.777ZM161.087 504.531C161.087 503.352 160.877 502.441 160.455 501.801C160.041 501.16 159.435 500.84 158.638 500.84C157.576 500.84 156.845 501.246 156.447 502.059V507.25C156.861 508.086 157.599 508.504 158.662 508.504C160.279 508.504 161.087 507.18 161.087 504.531ZM181.03 506.523C181.03 505.859 180.796 505.352 180.327 505C179.859 504.641 179.015 504.266 177.796 503.875C176.577 503.477 175.612 503.086 174.902 502.703C172.964 501.656 171.995 500.246 171.995 498.473C171.995 497.551 172.253 496.73 172.769 496.012C173.292 495.285 174.038 494.719 175.007 494.312C175.984 493.906 177.077 493.703 178.288 493.703C179.507 493.703 180.593 493.926 181.546 494.371C182.499 494.809 183.237 495.43 183.761 496.234C184.292 497.039 184.558 497.953 184.558 498.977H181.042C181.042 498.195 180.796 497.59 180.304 497.16C179.812 496.723 179.12 496.504 178.23 496.504C177.37 496.504 176.702 496.688 176.226 497.055C175.749 497.414 175.511 497.891 175.511 498.484C175.511 499.039 175.788 499.504 176.343 499.879C176.905 500.254 177.73 500.605 178.816 500.934C180.816 501.535 182.273 502.281 183.187 503.172C184.101 504.062 184.558 505.172 184.558 506.5C184.558 507.977 183.999 509.137 182.882 509.98C181.765 510.816 180.261 511.234 178.37 511.234C177.058 511.234 175.862 510.996 174.784 510.52C173.706 510.035 172.882 509.375 172.312 508.539C171.749 507.703 171.468 506.734 171.468 505.633H174.995C174.995 507.516 176.12 508.457 178.37 508.457C179.206 508.457 179.859 508.289 180.327 507.953C180.796 507.609 181.03 507.133 181.03 506.523ZM194.02 509.711C193.184 510.727 192.027 511.234 190.551 511.234C189.191 511.234 188.152 510.844 187.434 510.062C186.723 509.281 186.359 508.137 186.344 506.629V498.32H189.73V506.512C189.73 507.832 190.332 508.492 191.535 508.492C192.684 508.492 193.473 508.094 193.902 507.297V498.32H197.301V511H194.113L194.02 509.711ZM204.829 508.504C205.454 508.504 205.962 508.332 206.352 507.988C206.743 507.645 206.946 507.188 206.962 506.617H210.137C210.13 507.477 209.895 508.266 209.434 508.984C208.973 509.695 208.341 510.25 207.536 510.648C206.739 511.039 205.856 511.234 204.887 511.234C203.075 511.234 201.645 510.66 200.598 509.512C199.552 508.355 199.028 506.762 199.028 504.73V504.508C199.028 502.555 199.548 500.996 200.587 499.832C201.626 498.668 203.052 498.086 204.864 498.086C206.45 498.086 207.72 498.539 208.673 499.445C209.634 500.344 210.122 501.543 210.137 503.043H206.962C206.946 502.387 206.743 501.855 206.352 501.449C205.962 501.035 205.446 500.828 204.805 500.828C204.016 500.828 203.419 501.117 203.012 501.695C202.614 502.266 202.415 503.195 202.415 504.484V504.836C202.415 506.141 202.614 507.078 203.012 507.648C203.411 508.219 204.016 508.504 204.829 508.504ZM217.045 508.504C217.67 508.504 218.177 508.332 218.568 507.988C218.959 507.645 219.162 507.188 219.177 506.617H222.353C222.345 507.477 222.111 508.266 221.65 508.984C221.189 509.695 220.556 510.25 219.752 510.648C218.955 511.039 218.072 511.234 217.103 511.234C215.291 511.234 213.861 510.66 212.814 509.512C211.767 508.355 211.244 506.762 211.244 504.73V504.508C211.244 502.555 211.763 500.996 212.802 499.832C213.841 498.668 215.267 498.086 217.08 498.086C218.666 498.086 219.935 498.539 220.888 499.445C221.849 500.344 222.337 501.543 222.353 503.043H219.177C219.162 502.387 218.959 501.855 218.568 501.449C218.177 501.035 217.662 500.828 217.021 500.828C216.232 500.828 215.634 501.117 215.228 501.695C214.83 502.266 214.63 503.195 214.63 504.484V504.836C214.63 506.141 214.83 507.078 215.228 507.648C215.627 508.219 216.232 508.504 217.045 508.504ZM229.823 511.234C227.963 511.234 226.448 510.664 225.276 509.523C224.112 508.383 223.53 506.863 223.53 504.965V504.637C223.53 503.363 223.776 502.227 224.268 501.227C224.76 500.219 225.455 499.445 226.354 498.906C227.26 498.359 228.291 498.086 229.448 498.086C231.182 498.086 232.545 498.633 233.537 499.727C234.537 500.82 235.037 502.371 235.037 504.379V505.762H226.963C227.073 506.59 227.401 507.254 227.948 507.754C228.502 508.254 229.202 508.504 230.045 508.504C231.35 508.504 232.37 508.031 233.104 507.086L234.768 508.949C234.26 509.668 233.573 510.23 232.705 510.637C231.838 511.035 230.877 511.234 229.823 511.234ZM229.436 500.828C228.764 500.828 228.217 501.055 227.795 501.508C227.381 501.961 227.116 502.609 226.998 503.453H231.709V503.184C231.694 502.434 231.491 501.855 231.1 501.449C230.709 501.035 230.155 500.828 229.436 500.828ZM243.538 507.496C243.538 507.082 243.331 506.758 242.917 506.523C242.511 506.281 241.855 506.066 240.948 505.879C237.933 505.246 236.425 503.965 236.425 502.035C236.425 500.91 236.89 499.973 237.82 499.223C238.757 498.465 239.98 498.086 241.488 498.086C243.097 498.086 244.382 498.465 245.343 499.223C246.312 499.98 246.796 500.965 246.796 502.176H243.409C243.409 501.691 243.253 501.293 242.941 500.98C242.628 500.66 242.14 500.5 241.476 500.5C240.905 500.5 240.464 500.629 240.152 500.887C239.839 501.145 239.683 501.473 239.683 501.871C239.683 502.246 239.859 502.551 240.21 502.785C240.57 503.012 241.171 503.211 242.015 503.383C242.859 503.547 243.57 503.734 244.148 503.945C245.937 504.602 246.831 505.738 246.831 507.355C246.831 508.512 246.335 509.449 245.343 510.168C244.351 510.879 243.07 511.234 241.499 511.234C240.437 511.234 239.491 511.047 238.663 510.672C237.843 510.289 237.198 509.77 236.73 509.113C236.261 508.449 236.027 507.734 236.027 506.969H239.238C239.269 507.57 239.491 508.031 239.905 508.352C240.32 508.672 240.874 508.832 241.57 508.832C242.218 508.832 242.706 508.711 243.034 508.469C243.37 508.219 243.538 507.895 243.538 507.496ZM255.59 507.496C255.59 507.082 255.383 506.758 254.969 506.523C254.562 506.281 253.906 506.066 253 505.879C249.984 505.246 248.477 503.965 248.477 502.035C248.477 500.91 248.941 499.973 249.871 499.223C250.809 498.465 252.031 498.086 253.539 498.086C255.148 498.086 256.434 498.465 257.395 499.223C258.363 499.98 258.848 500.965 258.848 502.176H255.461C255.461 501.691 255.305 501.293 254.992 500.98C254.68 500.66 254.191 500.5 253.527 500.5C252.957 500.5 252.516 500.629 252.203 500.887C251.891 501.145 251.734 501.473 251.734 501.871C251.734 502.246 251.91 502.551 252.262 502.785C252.621 503.012 253.223 503.211 254.066 503.383C254.91 503.547 255.621 503.734 256.199 503.945C257.988 504.602 258.883 505.738 258.883 507.355C258.883 508.512 258.387 509.449 257.395 510.168C256.402 510.879 255.121 511.234 253.551 511.234C252.488 511.234 251.543 511.047 250.715 510.672C249.895 510.289 249.25 509.77 248.781 509.113C248.312 508.449 248.078 507.734 248.078 506.969H251.289C251.32 507.57 251.543 508.031 251.957 508.352C252.371 508.672 252.926 508.832 253.621 508.832C254.27 508.832 254.758 508.711 255.086 508.469C255.422 508.219 255.59 507.895 255.59 507.496ZM261.7 511V500.805H259.813V498.32H261.7V497.242C261.7 495.82 262.106 494.719 262.919 493.938C263.739 493.148 264.884 492.754 266.352 492.754C266.821 492.754 267.395 492.832 268.075 492.988L268.04 495.613C267.759 495.543 267.415 495.508 267.009 495.508C265.735 495.508 265.098 496.105 265.098 497.301V498.32H267.618V500.805H265.098V511H261.7ZM276.67 509.711C275.834 510.727 274.677 511.234 273.201 511.234C271.841 511.234 270.802 510.844 270.084 510.062C269.373 509.281 269.009 508.137 268.994 506.629V498.32H272.38V506.512C272.38 507.832 272.982 508.492 274.185 508.492C275.334 508.492 276.123 508.094 276.552 507.297V498.32H279.951V511H276.763L276.67 509.711ZM285.78 511H282.381V493H285.78V511ZM291.726 505.762H288.913L288.515 493.938H292.124L291.726 505.762ZM290.32 507.613C290.89 507.613 291.347 507.781 291.691 508.117C292.042 508.453 292.218 508.883 292.218 509.406C292.218 509.922 292.042 510.348 291.691 510.684C291.347 511.02 290.89 511.188 290.32 511.188C289.757 511.188 289.3 511.02 288.948 510.684C288.605 510.348 288.433 509.922 288.433 509.406C288.433 508.891 288.605 508.465 288.948 508.129C289.3 507.785 289.757 507.613 290.32 507.613Z" fill="black"/>
<path d="M188.333 303.167C173.829 303.167 159.651 307.467 147.592 315.525C135.532 323.583 126.133 335.036 120.582 348.436C115.032 361.836 113.58 376.581 116.409 390.806C119.239 405.032 126.223 418.098 136.479 428.354C146.735 438.61 159.801 445.595 174.027 448.424C188.252 451.254 202.997 449.801 216.397 444.251C229.797 438.701 241.25 429.301 249.308 417.242C257.366 405.182 261.667 391.004 261.667 376.5C261.667 357.051 253.941 338.398 240.188 324.645C226.435 310.893 207.783 303.167 188.333 303.167ZM188.333 440.667C175.642 440.667 163.236 436.903 152.684 429.852C142.132 422.802 133.908 412.78 129.051 401.055C124.194 389.33 122.924 376.429 125.4 363.982C127.876 351.534 133.987 340.101 142.961 331.127C151.935 322.153 163.368 316.042 175.815 313.566C188.262 311.09 201.164 312.361 212.889 317.218C224.614 322.074 234.635 330.299 241.686 340.851C248.737 351.403 252.5 363.809 252.5 376.5C252.5 393.518 245.74 409.839 233.706 421.873C221.672 433.906 205.351 440.667 188.333 440.667Z" fill="black"/>
<path d="M233.906 349.46C233.047 348.606 231.886 348.127 230.675 348.127C229.464 348.127 228.302 348.606 227.444 349.46L176.569 400.106L149.069 372.606C148.23 371.7 147.066 371.165 145.832 371.117C144.599 371.07 143.397 371.515 142.492 372.354C141.586 373.192 141.051 374.356 141.003 375.59C140.956 376.823 141.401 378.025 142.24 378.931L176.569 413.168L233.906 355.968C234.336 355.542 234.677 355.035 234.909 354.477C235.142 353.918 235.262 353.319 235.262 352.714C235.262 352.109 235.142 351.51 234.909 350.951C234.677 350.393 234.336 349.886 233.906 349.46Z" fill="black"/>
<path d="M151.352 615.395C149.422 614.84 148.016 614.16 147.133 613.355C146.258 612.543 145.82 611.543 145.82 610.355C145.82 609.012 146.355 607.902 147.426 607.027C148.504 606.145 149.902 605.703 151.621 605.703C152.793 605.703 153.836 605.93 154.75 606.383C155.672 606.836 156.383 607.461 156.883 608.258C157.391 609.055 157.645 609.926 157.645 610.871H155.383C155.383 609.84 155.055 609.031 154.398 608.445C153.742 607.852 152.816 607.555 151.621 607.555C150.512 607.555 149.645 607.801 149.02 608.293C148.402 608.777 148.094 609.453 148.094 610.32C148.094 611.016 148.387 611.605 148.973 612.09C149.566 612.566 150.57 613.004 151.984 613.402C153.406 613.801 154.516 614.242 155.312 614.727C156.117 615.203 156.711 615.762 157.094 616.402C157.484 617.043 157.68 617.797 157.68 618.664C157.68 620.047 157.141 621.156 156.062 621.992C154.984 622.82 153.543 623.234 151.738 623.234C150.566 623.234 149.473 623.012 148.457 622.566C147.441 622.113 146.656 621.496 146.102 620.715C145.555 619.934 145.281 619.047 145.281 618.055H147.543C147.543 619.086 147.922 619.902 148.68 620.504C149.445 621.098 150.465 621.395 151.738 621.395C152.926 621.395 153.836 621.152 154.469 620.668C155.102 620.184 155.418 619.523 155.418 618.688C155.418 617.852 155.125 617.207 154.539 616.754C153.953 616.293 152.891 615.84 151.352 615.395ZM162.59 623H160.422V610.32H162.59V623ZM160.246 606.957C160.246 606.605 160.352 606.309 160.562 606.066C160.781 605.824 161.102 605.703 161.523 605.703C161.945 605.703 162.266 605.824 162.484 606.066C162.703 606.309 162.812 606.605 162.812 606.957C162.812 607.309 162.703 607.602 162.484 607.836C162.266 608.07 161.945 608.188 161.523 608.188C161.102 608.188 160.781 608.07 160.562 607.836C160.352 607.602 160.246 607.309 160.246 606.957ZM169.012 607.25V610.32H171.379V611.996H169.012V619.859C169.012 620.367 169.117 620.75 169.328 621.008C169.539 621.258 169.898 621.383 170.406 621.383C170.656 621.383 171 621.336 171.438 621.242V623C170.867 623.156 170.312 623.234 169.773 623.234C168.805 623.234 168.074 622.941 167.582 622.355C167.09 621.77 166.844 620.938 166.844 619.859V611.996H164.535V610.32H166.844V607.25H169.012ZM182.816 607.25V610.32H185.184V611.996H182.816V619.859C182.816 620.367 182.922 620.75 183.133 621.008C183.344 621.258 183.703 621.383 184.211 621.383C184.461 621.383 184.805 621.336 185.242 621.242V623C184.672 623.156 184.117 623.234 183.578 623.234C182.609 623.234 181.879 622.941 181.387 622.355C180.895 621.77 180.648 620.938 180.648 619.859V611.996H178.34V610.32H180.648V607.25H182.816ZM190.082 623H187.914V610.32H190.082V623ZM187.738 606.957C187.738 606.605 187.844 606.309 188.055 606.066C188.273 605.824 188.594 605.703 189.016 605.703C189.438 605.703 189.758 605.824 189.977 606.066C190.195 606.309 190.305 606.605 190.305 606.957C190.305 607.309 190.195 607.602 189.977 607.836C189.758 608.07 189.438 608.188 189.016 608.188C188.594 608.188 188.273 608.07 188.055 607.836C187.844 607.602 187.738 607.309 187.738 606.957ZM193.047 616.555C193.047 614.578 193.504 613.008 194.418 611.844C195.332 610.672 196.543 610.086 198.051 610.086C199.598 610.086 200.805 610.633 201.672 611.727L201.777 610.32H203.758V622.695C203.758 624.336 203.27 625.629 202.293 626.574C201.324 627.52 200.02 627.992 198.379 627.992C197.465 627.992 196.57 627.797 195.695 627.406C194.82 627.016 194.152 626.48 193.691 625.801L194.816 624.5C195.746 625.648 196.883 626.223 198.227 626.223C199.281 626.223 200.102 625.926 200.688 625.332C201.281 624.738 201.578 623.902 201.578 622.824V621.734C200.711 622.734 199.527 623.234 198.027 623.234C196.543 623.234 195.34 622.637 194.418 621.441C193.504 620.246 193.047 618.617 193.047 616.555ZM195.227 616.801C195.227 618.23 195.52 619.355 196.105 620.176C196.691 620.988 197.512 621.395 198.566 621.395C199.934 621.395 200.938 620.773 201.578 619.531V613.742C200.914 612.531 199.918 611.926 198.59 611.926C197.535 611.926 196.711 612.336 196.117 613.156C195.523 613.977 195.227 615.191 195.227 616.801ZM209.207 611.855C210.168 610.676 211.418 610.086 212.957 610.086C215.637 610.086 216.988 611.598 217.012 614.621V623H214.844V614.609C214.836 613.695 214.625 613.02 214.211 612.582C213.805 612.145 213.168 611.926 212.301 611.926C211.598 611.926 210.98 612.113 210.449 612.488C209.918 612.863 209.504 613.355 209.207 613.965V623H207.039V605H209.207V611.855ZM223.199 607.25V610.32H225.566V611.996H223.199V619.859C223.199 620.367 223.305 620.75 223.516 621.008C223.727 621.258 224.086 621.383 224.594 621.383C224.844 621.383 225.188 621.336 225.625 621.242V623C225.055 623.156 224.5 623.234 223.961 623.234C222.992 623.234 222.262 622.941 221.77 622.355C221.277 621.77 221.031 620.938 221.031 619.859V611.996H218.723V610.32H221.031V607.25H223.199ZM230.535 618.184H228.578L228.426 605.938H230.699L230.535 618.184ZM228.344 621.91C228.344 621.559 228.449 621.266 228.66 621.031C228.879 620.789 229.199 620.668 229.621 620.668C230.043 620.668 230.363 620.789 230.582 621.031C230.801 621.266 230.91 621.559 230.91 621.91C230.91 622.262 230.801 622.555 230.582 622.789C230.363 623.016 230.043 623.129 229.621 623.129C229.199 623.129 228.879 623.016 228.66 622.789C228.449 622.555 228.344 622.262 228.344 621.91ZM41.125 642.504L45.5781 633.938H48.1328L42.25 644.637V651H40V644.637L34.1172 633.938H36.6953L41.125 642.504ZM48.6484 644.543C48.6484 643.301 48.8906 642.184 49.375 641.191C49.8672 640.199 50.5469 639.434 51.4141 638.895C52.2891 638.355 53.2852 638.086 54.4023 638.086C56.1289 638.086 57.5234 638.684 58.5859 639.879C59.6562 641.074 60.1914 642.664 60.1914 644.648V644.801C60.1914 646.035 59.9531 647.145 59.4766 648.129C59.0078 649.105 58.332 649.867 57.4492 650.414C56.5742 650.961 55.5664 651.234 54.4258 651.234C52.707 651.234 51.3125 650.637 50.2422 649.441C49.1797 648.246 48.6484 646.664 48.6484 644.695V644.543ZM50.8281 644.801C50.8281 646.207 51.1523 647.336 51.8008 648.188C52.457 649.039 53.332 649.465 54.4258 649.465C55.5273 649.465 56.4023 649.035 57.0508 648.176C57.6992 647.309 58.0234 646.098 58.0234 644.543C58.0234 643.152 57.6914 642.027 57.0273 641.168C56.3711 640.301 55.4961 639.867 54.4023 639.867C53.332 639.867 52.4688 640.293 51.8125 641.145C51.1562 641.996 50.8281 643.215 50.8281 644.801ZM70.7383 649.746C69.8945 650.738 68.6562 651.234 67.0234 651.234C65.6719 651.234 64.6406 650.844 63.9297 650.062C63.2266 649.273 62.8711 648.109 62.8633 646.57V638.32H65.0312V646.512C65.0312 648.434 65.8125 649.395 67.375 649.395C69.0312 649.395 70.1328 648.777 70.6797 647.543V638.32H72.8477V651H70.7852L70.7383 649.746ZM89.9336 651C89.8086 650.75 89.707 650.305 89.6289 649.664C88.6211 650.711 87.418 651.234 86.0195 651.234C84.7695 651.234 83.7422 650.883 82.9375 650.18C82.1406 649.469 81.7422 648.57 81.7422 647.484C81.7422 646.164 82.2422 645.141 83.2422 644.414C84.25 643.68 85.6641 643.312 87.4844 643.312H89.5938V642.316C89.5938 641.559 89.3672 640.957 88.9141 640.512C88.4609 640.059 87.793 639.832 86.9102 639.832C86.1367 639.832 85.4883 640.027 84.9648 640.418C84.4414 640.809 84.1797 641.281 84.1797 641.836H82C82 641.203 82.2227 640.594 82.668 640.008C83.1211 639.414 83.7305 638.945 84.4961 638.602C85.2695 638.258 86.1172 638.086 87.0391 638.086C88.5 638.086 89.6445 638.453 90.4727 639.188C91.3008 639.914 91.7305 640.918 91.7617 642.199V648.035C91.7617 649.199 91.9102 650.125 92.207 650.812V651H89.9336ZM86.3359 649.348C87.0156 649.348 87.6602 649.172 88.2695 648.82C88.8789 648.469 89.3203 648.012 89.5938 647.449V644.848H87.8945C85.2383 644.848 83.9102 645.625 83.9102 647.18C83.9102 647.859 84.1367 648.391 84.5898 648.773C85.043 649.156 85.625 649.348 86.3359 649.348ZM101.289 640.266C100.961 640.211 100.605 640.184 100.223 640.184C98.8008 640.184 97.8359 640.789 97.3281 642V651H95.1602V638.32H97.2695L97.3047 639.785C98.0156 638.652 99.0234 638.086 100.328 638.086C100.75 638.086 101.07 638.141 101.289 638.25V640.266ZM108.32 651.234C106.602 651.234 105.203 650.672 104.125 649.547C103.047 648.414 102.508 646.902 102.508 645.012V644.613C102.508 643.355 102.746 642.234 103.223 641.25C103.707 640.258 104.379 639.484 105.238 638.93C106.105 638.367 107.043 638.086 108.051 638.086C109.699 638.086 110.98 638.629 111.895 639.715C112.809 640.801 113.266 642.355 113.266 644.379V645.281H104.676C104.707 646.531 105.07 647.543 105.766 648.316C106.469 649.082 107.359 649.465 108.438 649.465C109.203 649.465 109.852 649.309 110.383 648.996C110.914 648.684 111.379 648.27 111.777 647.754L113.102 648.785C112.039 650.418 110.445 651.234 108.32 651.234ZM108.051 639.867C107.176 639.867 106.441 640.188 105.848 640.828C105.254 641.461 104.887 642.352 104.746 643.5H111.098V643.336C111.035 642.234 110.738 641.383 110.207 640.781C109.676 640.172 108.957 639.867 108.051 639.867ZM123.789 638.32L123.859 639.914C124.828 638.695 126.094 638.086 127.656 638.086C130.336 638.086 131.688 639.598 131.711 642.621V651H129.543V642.609C129.535 641.695 129.324 641.02 128.91 640.582C128.504 640.145 127.867 639.926 127 639.926C126.297 639.926 125.68 640.113 125.148 640.488C124.617 640.863 124.203 641.355 123.906 641.965V651H121.738V638.32H123.789ZM134.406 644.543C134.406 643.301 134.648 642.184 135.133 641.191C135.625 640.199 136.305 639.434 137.172 638.895C138.047 638.355 139.043 638.086 140.16 638.086C141.887 638.086 143.281 638.684 144.344 639.879C145.414 641.074 145.949 642.664 145.949 644.648V644.801C145.949 646.035 145.711 647.145 145.234 648.129C144.766 649.105 144.09 649.867 143.207 650.414C142.332 650.961 141.324 651.234 140.184 651.234C138.465 651.234 137.07 650.637 136 649.441C134.938 648.246 134.406 646.664 134.406 644.695V644.543ZM136.586 644.801C136.586 646.207 136.91 647.336 137.559 648.188C138.215 649.039 139.09 649.465 140.184 649.465C141.285 649.465 142.16 649.035 142.809 648.176C143.457 647.309 143.781 646.098 143.781 644.543C143.781 643.152 143.449 642.027 142.785 641.168C142.129 640.301 141.254 639.867 140.16 639.867C139.09 639.867 138.227 640.293 137.57 641.145C136.914 641.996 136.586 643.215 136.586 644.801ZM159.895 648.012L162.332 638.32H164.5L160.809 651H159.051L155.969 641.391L152.969 651H151.211L147.531 638.32H149.688L152.184 647.812L155.137 638.32H156.883L159.895 648.012ZM183.402 644.801C183.402 646.738 182.957 648.297 182.066 649.477C181.176 650.648 179.98 651.234 178.48 651.234C176.879 651.234 175.641 650.668 174.766 649.535L174.66 651H172.668V633H174.836V639.715C175.711 638.629 176.918 638.086 178.457 638.086C179.996 638.086 181.203 638.668 182.078 639.832C182.961 640.996 183.402 642.59 183.402 644.613V644.801ZM181.234 644.555C181.234 643.078 180.949 641.938 180.379 641.133C179.809 640.328 178.988 639.926 177.918 639.926C176.488 639.926 175.461 640.59 174.836 641.918V647.402C175.5 648.73 176.535 649.395 177.941 649.395C178.98 649.395 179.789 648.992 180.367 648.188C180.945 647.383 181.234 646.172 181.234 644.555ZM191.406 651.234C189.688 651.234 188.289 650.672 187.211 649.547C186.133 648.414 185.594 646.902 185.594 645.012V644.613C185.594 643.355 185.832 642.234 186.309 641.25C186.793 640.258 187.465 639.484 188.324 638.93C189.191 638.367 190.129 638.086 191.137 638.086C192.785 638.086 194.066 638.629 194.98 639.715C195.895 640.801 196.352 642.355 196.352 644.379V645.281H187.762C187.793 646.531 188.156 647.543 188.852 648.316C189.555 649.082 190.445 649.465 191.523 649.465C192.289 649.465 192.938 649.309 193.469 648.996C194 648.684 194.465 648.27 194.863 647.754L196.188 648.785C195.125 650.418 193.531 651.234 191.406 651.234ZM191.137 639.867C190.262 639.867 189.527 640.188 188.934 640.828C188.34 641.461 187.973 642.352 187.832 643.5H194.184V643.336C194.121 642.234 193.824 641.383 193.293 640.781C192.762 640.172 192.043 639.867 191.137 639.867ZM201.227 651H199.059V638.32H201.227V651ZM198.883 634.957C198.883 634.605 198.988 634.309 199.199 634.066C199.418 633.824 199.738 633.703 200.16 633.703C200.582 633.703 200.902 633.824 201.121 634.066C201.34 634.309 201.449 634.605 201.449 634.957C201.449 635.309 201.34 635.602 201.121 635.836C200.902 636.07 200.582 636.188 200.16 636.188C199.738 636.188 199.418 636.07 199.199 635.836C198.988 635.602 198.883 635.309 198.883 634.957ZM206.758 638.32L206.828 639.914C207.797 638.695 209.062 638.086 210.625 638.086C213.305 638.086 214.656 639.598 214.68 642.621V651H212.512V642.609C212.504 641.695 212.293 641.02 211.879 640.582C211.473 640.145 210.836 639.926 209.969 639.926C209.266 639.926 208.648 640.113 208.117 640.488C207.586 640.863 207.172 641.355 206.875 641.965V651H204.707V638.32H206.758ZM217.434 644.555C217.434 642.578 217.891 641.008 218.805 639.844C219.719 638.672 220.93 638.086 222.438 638.086C223.984 638.086 225.191 638.633 226.059 639.727L226.164 638.32H228.145V650.695C228.145 652.336 227.656 653.629 226.68 654.574C225.711 655.52 224.406 655.992 222.766 655.992C221.852 655.992 220.957 655.797 220.082 655.406C219.207 655.016 218.539 654.48 218.078 653.801L219.203 652.5C220.133 653.648 221.27 654.223 222.613 654.223C223.668 654.223 224.488 653.926 225.074 653.332C225.668 652.738 225.965 651.902 225.965 650.824V649.734C225.098 650.734 223.914 651.234 222.414 651.234C220.93 651.234 219.727 650.637 218.805 649.441C217.891 648.246 217.434 646.617 217.434 644.555ZM219.613 644.801C219.613 646.23 219.906 647.355 220.492 648.176C221.078 648.988 221.898 649.395 222.953 649.395C224.32 649.395 225.324 648.773 225.965 647.531V641.742C225.301 640.531 224.305 639.926 222.977 639.926C221.922 639.926 221.098 640.336 220.504 641.156C219.91 641.977 219.613 643.191 219.613 644.801ZM243.508 640.266C243.18 640.211 242.824 640.184 242.441 640.184C241.02 640.184 240.055 640.789 239.547 642V651H237.379V638.32H239.488L239.523 639.785C240.234 638.652 241.242 638.086 242.547 638.086C242.969 638.086 243.289 638.141 243.508 638.25V640.266ZM250.539 651.234C248.82 651.234 247.422 650.672 246.344 649.547C245.266 648.414 244.727 646.902 244.727 645.012V644.613C244.727 643.355 244.965 642.234 245.441 641.25C245.926 640.258 246.598 639.484 247.457 638.93C248.324 638.367 249.262 638.086 250.27 638.086C251.918 638.086 253.199 638.629 254.113 639.715C255.027 640.801 255.484 642.355 255.484 644.379V645.281H246.895C246.926 646.531 247.289 647.543 247.984 648.316C248.688 649.082 249.578 649.465 250.656 649.465C251.422 649.465 252.07 649.309 252.602 648.996C253.133 648.684 253.598 648.27 253.996 647.754L255.32 648.785C254.258 650.418 252.664 651.234 250.539 651.234ZM250.27 639.867C249.395 639.867 248.66 640.188 248.066 640.828C247.473 641.461 247.105 642.352 246.965 643.5H253.316V643.336C253.254 642.234 252.957 641.383 252.426 640.781C251.895 640.172 251.176 639.867 250.27 639.867ZM257.477 644.555C257.477 642.609 257.938 641.047 258.859 639.867C259.781 638.68 260.988 638.086 262.48 638.086C263.965 638.086 265.141 638.594 266.008 639.609V633H268.176V651H266.184L266.078 649.641C265.211 650.703 264.004 651.234 262.457 651.234C260.988 651.234 259.789 650.633 258.859 649.43C257.938 648.227 257.477 646.656 257.477 644.719V644.555ZM259.645 644.801C259.645 646.238 259.941 647.363 260.535 648.176C261.129 648.988 261.949 649.395 262.996 649.395C264.371 649.395 265.375 648.777 266.008 647.543V641.719C265.359 640.523 264.363 639.926 263.02 639.926C261.957 639.926 261.129 640.336 260.535 641.156C259.941 641.977 259.645 643.191 259.645 644.801ZM273.906 651H271.738V638.32H273.906V651ZM271.562 634.957C271.562 634.605 271.668 634.309 271.879 634.066C272.098 633.824 272.418 633.703 272.84 633.703C273.262 633.703 273.582 633.824 273.801 634.066C274.02 634.309 274.129 634.605 274.129 634.957C274.129 635.309 274.02 635.602 273.801 635.836C273.582 636.07 273.262 636.188 272.84 636.188C272.418 636.188 272.098 636.07 271.879 635.836C271.668 635.602 271.562 635.309 271.562 634.957ZM283.516 640.266C283.188 640.211 282.832 640.184 282.449 640.184C281.027 640.184 280.062 640.789 279.555 642V651H277.387V638.32H279.496L279.531 639.785C280.242 638.652 281.25 638.086 282.555 638.086C282.977 638.086 283.297 638.141 283.516 638.25V640.266ZM290.547 651.234C288.828 651.234 287.43 650.672 286.352 649.547C285.273 648.414 284.734 646.902 284.734 645.012V644.613C284.734 643.355 284.973 642.234 285.449 641.25C285.934 640.258 286.605 639.484 287.465 638.93C288.332 638.367 289.27 638.086 290.277 638.086C291.926 638.086 293.207 638.629 294.121 639.715C295.035 640.801 295.492 642.355 295.492 644.379V645.281H286.902C286.934 646.531 287.297 647.543 287.992 648.316C288.695 649.082 289.586 649.465 290.664 649.465C291.43 649.465 292.078 649.309 292.609 648.996C293.141 648.684 293.605 648.27 294.004 647.754L295.328 648.785C294.266 650.418 292.672 651.234 290.547 651.234ZM290.277 639.867C289.402 639.867 288.668 640.188 288.074 640.828C287.48 641.461 287.113 642.352 286.973 643.5H293.324V643.336C293.262 642.234 292.965 641.383 292.434 640.781C291.902 640.172 291.184 639.867 290.277 639.867ZM303.098 649.465C303.871 649.465 304.547 649.23 305.125 648.762C305.703 648.293 306.023 647.707 306.086 647.004H308.137C308.098 647.73 307.848 648.422 307.387 649.078C306.926 649.734 306.309 650.258 305.535 650.648C304.77 651.039 303.957 651.234 303.098 651.234C301.371 651.234 299.996 650.66 298.973 649.512C297.957 648.355 297.449 646.777 297.449 644.777V644.414C297.449 643.18 297.676 642.082 298.129 641.121C298.582 640.16 299.23 639.414 300.074 638.883C300.926 638.352 301.93 638.086 303.086 638.086C304.508 638.086 305.688 638.512 306.625 639.363C307.57 640.215 308.074 641.32 308.137 642.68H306.086C306.023 641.859 305.711 641.188 305.148 640.664C304.594 640.133 303.906 639.867 303.086 639.867C301.984 639.867 301.129 640.266 300.52 641.062C299.918 641.852 299.617 642.996 299.617 644.496V644.906C299.617 646.367 299.918 647.492 300.52 648.281C301.121 649.07 301.98 649.465 303.098 649.465ZM313.516 635.25V638.32H315.883V639.996H313.516V647.859C313.516 648.367 313.621 648.75 313.832 649.008C314.043 649.258 314.402 649.383 314.91 649.383C315.16 649.383 315.504 649.336 315.941 649.242V651C315.371 651.156 314.816 651.234 314.277 651.234C313.309 651.234 312.578 650.941 312.086 650.355C311.594 649.77 311.348 648.938 311.348 647.859V639.996H309.039V638.32H311.348V635.25H313.516ZM323.688 651.234C321.969 651.234 320.57 650.672 319.492 649.547C318.414 648.414 317.875 646.902 317.875 645.012V644.613C317.875 643.355 318.113 642.234 318.59 641.25C319.074 640.258 319.746 639.484 320.605 638.93C321.473 638.367 322.41 638.086 323.418 638.086C325.066 638.086 326.348 638.629 327.262 639.715C328.176 640.801 328.633 642.355 328.633 644.379V645.281H320.043C320.074 646.531 320.438 647.543 321.133 648.316C321.836 649.082 322.727 649.465 323.805 649.465C324.57 649.465 325.219 649.309 325.75 648.996C326.281 648.684 326.746 648.27 327.145 647.754L328.469 648.785C327.406 650.418 325.812 651.234 323.688 651.234ZM323.418 639.867C322.543 639.867 321.809 640.188 321.215 640.828C320.621 641.461 320.254 642.352 320.113 643.5H326.465V643.336C326.402 642.234 326.105 641.383 325.574 640.781C325.043 640.172 324.324 639.867 323.418 639.867ZM330.625 644.555C330.625 642.609 331.086 641.047 332.008 639.867C332.93 638.68 334.137 638.086 335.629 638.086C337.113 638.086 338.289 638.594 339.156 639.609V633H341.324V651H339.332L339.227 649.641C338.359 650.703 337.152 651.234 335.605 651.234C334.137 651.234 332.938 650.633 332.008 649.43C331.086 648.227 330.625 646.656 330.625 644.719V644.555ZM332.793 644.801C332.793 646.238 333.09 647.363 333.684 648.176C334.277 648.988 335.098 649.395 336.145 649.395C337.52 649.395 338.523 648.777 339.156 647.543V641.719C338.508 640.523 337.512 639.926 336.168 639.926C335.105 639.926 334.277 640.336 333.684 641.156C333.09 641.977 332.793 643.191 332.793 644.801ZM64.5742 672.801C64.5742 674.738 64.1289 676.297 63.2383 677.477C62.3477 678.648 61.1523 679.234 59.6523 679.234C58.0508 679.234 56.8125 678.668 55.9375 677.535L55.832 679H53.8398V661H56.0078V667.715C56.8828 666.629 58.0898 666.086 59.6289 666.086C61.168 666.086 62.375 666.668 63.25 667.832C64.1328 668.996 64.5742 670.59 64.5742 672.613V672.801ZM62.4062 672.555C62.4062 671.078 62.1211 669.938 61.5508 669.133C60.9805 668.328 60.1602 667.926 59.0898 667.926C57.6602 667.926 56.6328 668.59 56.0078 669.918V675.402C56.6719 676.73 57.707 677.395 59.1133 677.395C60.1523 677.395 60.9609 676.992 61.5391 676.188C62.1172 675.383 62.4062 674.172 62.4062 672.555ZM75.1445 679C75.0195 678.75 74.918 678.305 74.8398 677.664C73.832 678.711 72.6289 679.234 71.2305 679.234C69.9805 679.234 68.9531 678.883 68.1484 678.18C67.3516 677.469 66.9531 676.57 66.9531 675.484C66.9531 674.164 67.4531 673.141 68.4531 672.414C69.4609 671.68 70.875 671.312 72.6953 671.312H74.8047V670.316C74.8047 669.559 74.5781 668.957 74.125 668.512C73.6719 668.059 73.0039 667.832 72.1211 667.832C71.3477 667.832 70.6992 668.027 70.1758 668.418C69.6523 668.809 69.3906 669.281 69.3906 669.836H67.2109C67.2109 669.203 67.4336 668.594 67.8789 668.008C68.332 667.414 68.9414 666.945 69.707 666.602C70.4805 666.258 71.3281 666.086 72.25 666.086C73.7109 666.086 74.8555 666.453 75.6836 667.188C76.5117 667.914 76.9414 668.918 76.9727 670.199V676.035C76.9727 677.199 77.1211 678.125 77.418 678.812V679H75.1445ZM71.5469 677.348C72.2266 677.348 72.8711 677.172 73.4805 676.82C74.0898 676.469 74.5312 676.012 74.8047 675.449V672.848H73.1055C70.4492 672.848 69.1211 673.625 69.1211 675.18C69.1211 675.859 69.3477 676.391 69.8008 676.773C70.2539 677.156 70.8359 677.348 71.5469 677.348ZM85.457 677.465C86.2305 677.465 86.9062 677.23 87.4844 676.762C88.0625 676.293 88.3828 675.707 88.4453 675.004H90.4961C90.457 675.73 90.207 676.422 89.7461 677.078C89.2852 677.734 88.668 678.258 87.8945 678.648C87.1289 679.039 86.3164 679.234 85.457 679.234C83.7305 679.234 82.3555 678.66 81.332 677.512C80.3164 676.355 79.8086 674.777 79.8086 672.777V672.414C79.8086 671.18 80.0352 670.082 80.4883 669.121C80.9414 668.16 81.5898 667.414 82.4336 666.883C83.2852 666.352 84.2891 666.086 85.4453 666.086C86.8672 666.086 88.0469 666.512 88.9844 667.363C89.9297 668.215 90.4336 669.32 90.4961 670.68H88.4453C88.3828 669.859 88.0703 669.188 87.5078 668.664C86.9531 668.133 86.2656 667.867 85.4453 667.867C84.3438 667.867 83.4883 668.266 82.8789 669.062C82.2773 669.852 81.9766 670.996 81.9766 672.496V672.906C81.9766 674.367 82.2773 675.492 82.8789 676.281C83.4805 677.07 84.3398 677.465 85.457 677.465ZM96.4727 673.129L95.1133 674.547V679H92.9453V661H95.1133V671.887L96.2734 670.492L100.223 666.32H102.859L97.9258 671.617L103.434 679H100.891L96.4727 673.129ZM113.992 663.25V666.32H116.359V667.996H113.992V675.859C113.992 676.367 114.098 676.75 114.309 677.008C114.52 677.258 114.879 677.383 115.387 677.383C115.637 677.383 115.98 677.336 116.418 677.242V679C115.848 679.156 115.293 679.234 114.754 679.234C113.785 679.234 113.055 678.941 112.562 678.355C112.07 677.77 111.824 676.938 111.824 675.859V667.996H109.516V666.32H111.824V663.25H113.992ZM118.094 672.543C118.094 671.301 118.336 670.184 118.82 669.191C119.312 668.199 119.992 667.434 120.859 666.895C121.734 666.355 122.73 666.086 123.848 666.086C125.574 666.086 126.969 666.684 128.031 667.879C129.102 669.074 129.637 670.664 129.637 672.648V672.801C129.637 674.035 129.398 675.145 128.922 676.129C128.453 677.105 127.777 677.867 126.895 678.414C126.02 678.961 125.012 679.234 123.871 679.234C122.152 679.234 120.758 678.637 119.688 677.441C118.625 676.246 118.094 674.664 118.094 672.695V672.543ZM120.273 672.801C120.273 674.207 120.598 675.336 121.246 676.188C121.902 677.039 122.777 677.465 123.871 677.465C124.973 677.465 125.848 677.035 126.496 676.176C127.145 675.309 127.469 674.098 127.469 672.543C127.469 671.152 127.137 670.027 126.473 669.168C125.816 668.301 124.941 667.867 123.848 667.867C122.777 667.867 121.914 668.293 121.258 669.145C120.602 669.996 120.273 671.215 120.273 672.801ZM141.25 663.25V666.32H143.617V667.996H141.25V675.859C141.25 676.367 141.355 676.75 141.566 677.008C141.777 677.258 142.137 677.383 142.645 677.383C142.895 677.383 143.238 677.336 143.676 677.242V679C143.105 679.156 142.551 679.234 142.012 679.234C141.043 679.234 140.312 678.941 139.82 678.355C139.328 677.77 139.082 676.938 139.082 675.859V667.996H136.773V666.32H139.082V663.25H141.25ZM148.328 667.855C149.289 666.676 150.539 666.086 152.078 666.086C154.758 666.086 156.109 667.598 156.133 670.621V679H153.965V670.609C153.957 669.695 153.746 669.02 153.332 668.582C152.926 668.145 152.289 667.926 151.422 667.926C150.719 667.926 150.102 668.113 149.57 668.488C149.039 668.863 148.625 669.355 148.328 669.965V679H146.16V661H148.328V667.855ZM164.641 679.234C162.922 679.234 161.523 678.672 160.445 677.547C159.367 676.414 158.828 674.902 158.828 673.012V672.613C158.828 671.355 159.066 670.234 159.543 669.25C160.027 668.258 160.699 667.484 161.559 666.93C162.426 666.367 163.363 666.086 164.371 666.086C166.02 666.086 167.301 666.629 168.215 667.715C169.129 668.801 169.586 670.355 169.586 672.379V673.281H160.996C161.027 674.531 161.391 675.543 162.086 676.316C162.789 677.082 163.68 677.465 164.758 677.465C165.523 677.465 166.172 677.309 166.703 676.996C167.234 676.684 167.699 676.27 168.098 675.754L169.422 676.785C168.359 678.418 166.766 679.234 164.641 679.234ZM164.371 667.867C163.496 667.867 162.762 668.188 162.168 668.828C161.574 669.461 161.207 670.352 161.066 671.5H167.418V671.336C167.355 670.234 167.059 669.383 166.527 668.781C165.996 668.172 165.277 667.867 164.371 667.867ZM191.512 679H189.25V671.113H180.648V679H178.398V661.938H180.648V669.273H189.25V661.938H191.512V679ZM194.594 672.543C194.594 671.301 194.836 670.184 195.32 669.191C195.812 668.199 196.492 667.434 197.359 666.895C198.234 666.355 199.23 666.086 200.348 666.086C202.074 666.086 203.469 666.684 204.531 667.879C205.602 669.074 206.137 670.664 206.137 672.648V672.801C206.137 674.035 205.898 675.145 205.422 676.129C204.953 677.105 204.277 677.867 203.395 678.414C202.52 678.961 201.512 679.234 200.371 679.234C198.652 679.234 197.258 678.637 196.188 677.441C195.125 676.246 194.594 674.664 194.594 672.695V672.543ZM196.773 672.801C196.773 674.207 197.098 675.336 197.746 676.188C198.402 677.039 199.277 677.465 200.371 677.465C201.473 677.465 202.348 677.035 202.996 676.176C203.645 675.309 203.969 674.098 203.969 672.543C203.969 671.152 203.637 670.027 202.973 669.168C202.316 668.301 201.441 667.867 200.348 667.867C199.277 667.867 198.414 668.293 197.758 669.145C197.102 669.996 196.773 671.215 196.773 672.801ZM210.895 666.32L210.953 667.727C211.883 666.633 213.137 666.086 214.715 666.086C216.488 666.086 217.695 666.766 218.336 668.125C218.758 667.516 219.305 667.023 219.977 666.648C220.656 666.273 221.457 666.086 222.379 666.086C225.16 666.086 226.574 667.559 226.621 670.504V679H224.453V670.633C224.453 669.727 224.246 669.051 223.832 668.605C223.418 668.152 222.723 667.926 221.746 667.926C220.941 667.926 220.273 668.168 219.742 668.652C219.211 669.129 218.902 669.773 218.816 670.586V679H216.637V670.691C216.637 668.848 215.734 667.926 213.93 667.926C212.508 667.926 211.535 668.531 211.012 669.742V679H208.844V666.32H210.895ZM235.164 679.234C233.445 679.234 232.047 678.672 230.969 677.547C229.891 676.414 229.352 674.902 229.352 673.012V672.613C229.352 671.355 229.59 670.234 230.066 669.25C230.551 668.258 231.223 667.484 232.082 666.93C232.949 666.367 233.887 666.086 234.895 666.086C236.543 666.086 237.824 666.629 238.738 667.715C239.652 668.801 240.109 670.355 240.109 672.379V673.281H231.52C231.551 674.531 231.914 675.543 232.609 676.316C233.312 677.082 234.203 677.465 235.281 677.465C236.047 677.465 236.695 677.309 237.227 676.996C237.758 676.684 238.223 676.27 238.621 675.754L239.945 676.785C238.883 678.418 237.289 679.234 235.164 679.234ZM234.895 667.867C234.02 667.867 233.285 668.188 232.691 668.828C232.098 669.461 231.73 670.352 231.59 671.5H237.941V671.336C237.879 670.234 237.582 669.383 237.051 668.781C236.52 668.172 235.801 667.867 234.895 667.867ZM255.965 675.637C255.965 675.051 255.742 674.598 255.297 674.277C254.859 673.949 254.09 673.668 252.988 673.434C251.895 673.199 251.023 672.918 250.375 672.59C249.734 672.262 249.258 671.871 248.945 671.418C248.641 670.965 248.488 670.426 248.488 669.801C248.488 668.762 248.926 667.883 249.801 667.164C250.684 666.445 251.809 666.086 253.176 666.086C254.613 666.086 255.777 666.457 256.668 667.199C257.566 667.941 258.016 668.891 258.016 670.047H255.836C255.836 669.453 255.582 668.941 255.074 668.512C254.574 668.082 253.941 667.867 253.176 667.867C252.387 667.867 251.77 668.039 251.324 668.383C250.879 668.727 250.656 669.176 250.656 669.73C250.656 670.254 250.863 670.648 251.277 670.914C251.691 671.18 252.438 671.434 253.516 671.676C254.602 671.918 255.48 672.207 256.152 672.543C256.824 672.879 257.32 673.285 257.641 673.762C257.969 674.23 258.133 674.805 258.133 675.484C258.133 676.617 257.68 677.527 256.773 678.215C255.867 678.895 254.691 679.234 253.246 679.234C252.23 679.234 251.332 679.055 250.551 678.695C249.77 678.336 249.156 677.836 248.711 677.195C248.273 676.547 248.055 675.848 248.055 675.098H250.223C250.262 675.824 250.551 676.402 251.09 676.832C251.637 677.254 252.355 677.465 253.246 677.465C254.066 677.465 254.723 677.301 255.215 676.973C255.715 676.637 255.965 676.191 255.965 675.637ZM266.043 677.465C266.816 677.465 267.492 677.23 268.07 676.762C268.648 676.293 268.969 675.707 269.031 675.004H271.082C271.043 675.73 270.793 676.422 270.332 677.078C269.871 677.734 269.254 678.258 268.48 678.648C267.715 679.039 266.902 679.234 266.043 679.234C264.316 679.234 262.941 678.66 261.918 677.512C260.902 676.355 260.395 674.777 260.395 672.777V672.414C260.395 671.18 260.621 670.082 261.074 669.121C261.527 668.16 262.176 667.414 263.02 666.883C263.871 666.352 264.875 666.086 266.031 666.086C267.453 666.086 268.633 666.512 269.57 667.363C270.516 668.215 271.02 669.32 271.082 670.68H269.031C268.969 669.859 268.656 669.188 268.094 668.664C267.539 668.133 266.852 667.867 266.031 667.867C264.93 667.867 264.074 668.266 263.465 669.062C262.863 669.852 262.562 670.996 262.562 672.496V672.906C262.562 674.367 262.863 675.492 263.465 676.281C264.066 677.07 264.926 677.465 266.043 677.465ZM279.648 668.266C279.32 668.211 278.965 668.184 278.582 668.184C277.16 668.184 276.195 668.789 275.688 670V679H273.52V666.32H275.629L275.664 667.785C276.375 666.652 277.383 666.086 278.688 666.086C279.109 666.086 279.43 666.141 279.648 666.25V668.266ZM286.68 679.234C284.961 679.234 283.562 678.672 282.484 677.547C281.406 676.414 280.867 674.902 280.867 673.012V672.613C280.867 671.355 281.105 670.234 281.582 669.25C282.066 668.258 282.738 667.484 283.598 666.93C284.465 666.367 285.402 666.086 286.41 666.086C288.059 666.086 289.34 666.629 290.254 667.715C291.168 668.801 291.625 670.355 291.625 672.379V673.281H283.035C283.066 674.531 283.43 675.543 284.125 676.316C284.828 677.082 285.719 677.465 286.797 677.465C287.562 677.465 288.211 677.309 288.742 676.996C289.273 676.684 289.738 676.27 290.137 675.754L291.461 676.785C290.398 678.418 288.805 679.234 286.68 679.234ZM286.41 667.867C285.535 667.867 284.801 668.188 284.207 668.828C283.613 669.461 283.246 670.352 283.105 671.5H289.457V671.336C289.395 670.234 289.098 669.383 288.566 668.781C288.035 668.172 287.316 667.867 286.41 667.867ZM299.406 679.234C297.688 679.234 296.289 678.672 295.211 677.547C294.133 676.414 293.594 674.902 293.594 673.012V672.613C293.594 671.355 293.832 670.234 294.309 669.25C294.793 668.258 295.465 667.484 296.324 666.93C297.191 666.367 298.129 666.086 299.137 666.086C300.785 666.086 302.066 666.629 302.98 667.715C303.895 668.801 304.352 670.355 304.352 672.379V673.281H295.762C295.793 674.531 296.156 675.543 296.852 676.316C297.555 677.082 298.445 677.465 299.523 677.465C300.289 677.465 300.938 677.309 301.469 676.996C302 676.684 302.465 676.27 302.863 675.754L304.188 676.785C303.125 678.418 301.531 679.234 299.406 679.234ZM299.137 667.867C298.262 667.867 297.527 668.188 296.934 668.828C296.34 669.461 295.973 670.352 295.832 671.5H302.184V671.336C302.121 670.234 301.824 669.383 301.293 668.781C300.762 668.172 300.043 667.867 299.137 667.867ZM308.922 666.32L308.992 667.914C309.961 666.695 311.227 666.086 312.789 666.086C315.469 666.086 316.82 667.598 316.844 670.621V679H314.676V670.609C314.668 669.695 314.457 669.02 314.043 668.582C313.637 668.145 313 667.926 312.133 667.926C311.43 667.926 310.812 668.113 310.281 668.488C309.75 668.863 309.336 669.355 309.039 669.965V679H306.871V666.32H308.922ZM320.16 677.863C320.16 677.488 320.27 677.176 320.488 676.926C320.715 676.676 321.051 676.551 321.496 676.551C321.941 676.551 322.277 676.676 322.504 676.926C322.738 677.176 322.855 677.488 322.855 677.863C322.855 678.223 322.738 678.523 322.504 678.766C322.277 679.008 321.941 679.129 321.496 679.129C321.051 679.129 320.715 679.008 320.488 678.766C320.27 678.523 320.16 678.223 320.16 677.863Z" fill="black"/>
</g>
<rect x="0.5" y="0.5" width="376" height="813" stroke="black"/>
<defs>
<clipPath id="clip0_24_3728">
<rect x="1" y="1" width="375" height="812" fill="white"/>
</clipPath>
</defs>
</svg>
