<svg width="377" height="814" viewBox="0 0 377 814" fill="none" xmlns="http://www.w3.org/2000/svg">
<g clip-path="url(#clip0_24_3757)">
<rect x="1" y="1" width="375" height="812" fill="white"/>
<path d="M38.2146 18.1675C35.9222 18.1675 34.2889 19.7349 34.2889 21.8809V21.8955C34.2889 23.9023 35.7098 25.3818 37.7386 25.3818C39.1888 25.3818 40.1116 24.6421 40.4998 23.8071H40.6463C40.6463 23.8877 40.639 23.9683 40.639 24.0488C40.5584 26.0703 39.8479 27.7109 38.1707 27.7109C37.2405 27.7109 36.5887 27.2275 36.3104 26.4878L36.2884 26.4146H34.428L34.4427 26.4951C34.7796 28.1138 36.2298 29.2637 38.1707 29.2637C40.8294 29.2637 42.4334 27.1543 42.4334 23.5947V23.5801C42.4334 19.7715 40.4705 18.1675 38.2146 18.1675ZM38.2073 23.9316C37.0062 23.9316 36.1346 23.0527 36.1346 21.8296V21.8149C36.1346 20.6357 37.0647 19.7056 38.2293 19.7056C39.4012 19.7056 40.3167 20.6504 40.3167 21.8589V21.8735C40.3167 23.0674 39.4012 23.9316 38.2073 23.9316ZM45.4586 22.1519C46.1324 22.1519 46.6231 21.6392 46.6231 20.9946C46.6231 20.3428 46.1324 19.8374 45.4586 19.8374C44.7921 19.8374 44.294 20.3428 44.294 20.9946C44.294 21.6392 44.7921 22.1519 45.4586 22.1519ZM45.4586 27.5864C46.1324 27.5864 46.6231 27.0811 46.6231 26.4292C46.6231 25.7773 46.1324 25.272 45.4586 25.272C44.7921 25.272 44.294 25.7773 44.294 26.4292C44.294 27.0811 44.7921 27.5864 45.4586 27.5864ZM53.6107 29H55.4198V26.9712H56.8407V25.4111H55.4198V18.4312H52.7465C51.3109 20.6138 49.8095 23.0454 48.4398 25.4258V26.9712H53.6107V29ZM50.1977 25.4551V25.3452C51.223 23.5508 52.4462 21.5952 53.5302 19.9399H53.64V25.4551H50.1977ZM60.9206 29H62.8103V18.4312H60.9279L58.1667 20.3721V22.1519L60.7961 20.2915H60.9206V29Z" fill="black"/>
<rect opacity="0.35" x="337.833" y="18.8333" width="21" height="10.3333" rx="2.16667" stroke="black"/>
<path opacity="0.4" d="M360.333 22V26C361.138 25.6612 361.661 24.8731 361.661 24C361.661 23.1269 361.138 22.3388 360.333 22Z" fill="black"/>
<rect x="339.333" y="20.3333" width="18" height="7.33333" rx="1.33333" fill="black"/>
<path fill-rule="evenodd" clip-rule="evenodd" d="M324.667 20.615C326.892 20.6151 329.031 21.4693 330.644 23.0008C330.765 23.1191 330.959 23.1176 331.079 22.9975L332.239 21.8272C332.3 21.7663 332.334 21.6837 332.333 21.5979C332.333 21.5121 332.298 21.4299 332.237 21.3697C328.005 17.3175 321.329 17.3175 317.097 21.3697C317.035 21.4299 317.001 21.512 317 21.5978C316.999 21.6837 317.033 21.7662 317.094 21.8272L318.255 22.9975C318.374 23.1178 318.568 23.1193 318.69 23.0008C320.302 21.4692 322.442 20.615 324.667 20.615ZM324.667 24.4226C325.889 24.4226 327.068 24.8765 327.974 25.6963C328.097 25.8126 328.29 25.8101 328.409 25.6906L329.569 24.5203C329.63 24.4589 329.663 24.3756 329.663 24.2891C329.662 24.2025 329.626 24.12 329.564 24.0598C326.805 21.4954 322.532 21.4954 319.773 24.0598C319.71 24.12 319.675 24.2026 319.674 24.2891C319.673 24.3757 319.707 24.459 319.768 24.5203L320.927 25.6906C321.047 25.8101 321.24 25.8126 321.362 25.6963C322.268 24.877 323.446 24.4231 324.667 24.4226ZM326.989 26.9845C326.991 27.0712 326.957 27.1549 326.895 27.2157L324.89 29.2377C324.831 29.2971 324.751 29.3306 324.667 29.3306C324.583 29.3306 324.503 29.2971 324.445 29.2377L322.439 27.2157C322.377 27.1549 322.343 27.0712 322.345 26.9844C322.347 26.8976 322.384 26.8154 322.449 26.7573C323.729 25.675 325.605 25.675 326.886 26.7573C326.95 26.8155 326.988 26.8977 326.989 26.9845Z" fill="black"/>
<path fill-rule="evenodd" clip-rule="evenodd" d="M311 18.6667H310C309.448 18.6667 309 19.1145 309 19.6667V28.3334C309 28.8857 309.448 29.3334 310 29.3334H311C311.552 29.3334 312 28.8857 312 28.3334V19.6667C312 19.1145 311.552 18.6667 311 18.6667ZM305.333 21.0001H306.333C306.886 21.0001 307.333 21.4478 307.333 22.0001V28.3334C307.333 28.8857 306.886 29.3334 306.333 29.3334H305.333C304.781 29.3334 304.333 28.8857 304.333 28.3334V22.0001C304.333 21.4478 304.781 21.0001 305.333 21.0001ZM301.667 23.3334H300.667C300.114 23.3334 299.667 23.7811 299.667 24.3334V28.3334C299.667 28.8857 300.114 29.3334 300.667 29.3334H301.667C302.219 29.3334 302.667 28.8857 302.667 28.3334V24.3334C302.667 23.7811 302.219 23.3334 301.667 23.3334ZM297 25.3334H296C295.448 25.3334 295 25.7811 295 26.3334V28.3334C295 28.8857 295.448 29.3334 296 29.3334H297C297.552 29.3334 298 28.8857 298 28.3334V26.3334C298 25.7811 297.552 25.3334 297 25.3334Z" fill="black"/>
<rect x="1" y="778" width="375" height="35" fill="white"/>
<rect x="122" y="799" width="134" height="5" rx="2.5" fill="black"/>
<rect x="1" y="45" width="375" height="40" fill="#C4C4C4"/>
<path d="M162.442 71.0088H170.528V72.8486H160.18V55.7861H162.442V71.0088ZM185.146 64.8682C185.146 66.54 184.865 68.001 184.302 69.251C183.74 70.4932 182.943 71.4424 181.912 72.0986C180.88 72.7549 179.677 73.083 178.302 73.083C176.959 73.083 175.767 72.7549 174.728 72.0986C173.689 71.4346 172.88 70.4932 172.302 69.2744C171.732 68.0479 171.439 66.6299 171.423 65.0205V63.79C171.423 62.1494 171.709 60.7002 172.279 59.4424C172.849 58.1846 173.654 57.2236 174.693 56.5596C175.74 55.8877 176.935 55.5518 178.279 55.5518C179.646 55.5518 180.849 55.8838 181.888 56.5479C182.935 57.2041 183.74 58.1611 184.302 59.4189C184.865 60.6689 185.146 62.126 185.146 63.79V64.8682ZM182.908 63.7666C182.908 61.7432 182.502 60.1924 181.689 59.1143C180.877 58.0283 179.74 57.4854 178.279 57.4854C176.857 57.4854 175.736 58.0283 174.916 59.1143C174.103 60.1924 173.685 61.6924 173.662 63.6143V64.8682C173.662 66.8291 174.072 68.3721 174.892 69.4971C175.72 70.6143 176.857 71.1729 178.302 71.1729C179.755 71.1729 180.88 70.6455 181.677 69.5908C182.474 68.5283 182.884 67.0088 182.908 65.0322V63.7666ZM200.819 70.6104C200.241 71.4385 199.432 72.0596 198.393 72.4736C197.362 72.8799 196.159 73.083 194.784 73.083C193.393 73.083 192.159 72.7588 191.08 72.1104C190.002 71.4541 189.166 70.5244 188.573 69.3213C187.987 68.1182 187.686 66.7236 187.67 65.1377V63.6494C187.67 61.0791 188.268 59.0869 189.463 57.6729C190.666 56.2588 192.354 55.5518 194.526 55.5518C196.307 55.5518 197.741 56.0088 198.827 56.9229C199.912 57.8291 200.577 59.1182 200.819 60.79H198.569C198.147 58.5322 196.803 57.4033 194.537 57.4033C193.03 57.4033 191.885 57.9346 191.104 58.9971C190.33 60.0518 189.94 61.583 189.932 63.5908V64.9854C189.932 66.8994 190.37 68.4229 191.245 69.5557C192.12 70.6807 193.303 71.2432 194.795 71.2432C195.639 71.2432 196.377 71.1494 197.01 70.9619C197.643 70.7744 198.166 70.458 198.58 70.0127V66.1807H194.631V64.3525H200.819V70.6104ZM217.405 64.8682C217.405 66.54 217.124 68.001 216.562 69.251C215.999 70.4932 215.202 71.4424 214.171 72.0986C213.14 72.7549 211.937 73.083 210.562 73.083C209.218 73.083 208.027 72.7549 206.987 72.0986C205.948 71.4346 205.14 70.4932 204.562 69.2744C203.991 68.0479 203.698 66.6299 203.683 65.0205V63.79C203.683 62.1494 203.968 60.7002 204.538 59.4424C205.109 58.1846 205.913 57.2236 206.952 56.5596C207.999 55.8877 209.195 55.5518 210.538 55.5518C211.905 55.5518 213.109 55.8838 214.148 56.5479C215.195 57.2041 215.999 58.1611 216.562 59.4189C217.124 60.6689 217.405 62.126 217.405 63.79V64.8682ZM215.167 63.7666C215.167 61.7432 214.761 60.1924 213.948 59.1143C213.136 58.0283 211.999 57.4854 210.538 57.4854C209.116 57.4854 207.995 58.0283 207.175 59.1143C206.362 60.1924 205.945 61.6924 205.921 63.6143V64.8682C205.921 66.8291 206.331 68.3721 207.152 69.4971C207.98 70.6143 209.116 71.1729 210.562 71.1729C212.015 71.1729 213.14 70.6455 213.937 69.5908C214.734 68.5283 215.144 67.0088 215.167 65.0322V63.7666Z" fill="black"/>
<path d="M100.427 508.176H107.892V511H96.9117V493.938H100.427V508.176ZM108.87 504.543C108.87 503.285 109.112 502.164 109.596 501.18C110.08 500.195 110.776 499.434 111.682 498.895C112.596 498.355 113.655 498.086 114.858 498.086C116.569 498.086 117.963 498.609 119.041 499.656C120.127 500.703 120.733 502.125 120.858 503.922L120.881 504.789C120.881 506.734 120.338 508.297 119.252 509.477C118.166 510.648 116.709 511.234 114.881 511.234C113.053 511.234 111.592 510.648 110.498 509.477C109.413 508.305 108.87 506.711 108.87 504.695V504.543ZM112.256 504.789C112.256 505.992 112.483 506.914 112.936 507.555C113.389 508.188 114.038 508.504 114.881 508.504C115.702 508.504 116.342 508.191 116.803 507.566C117.264 506.934 117.495 505.926 117.495 504.543C117.495 503.363 117.264 502.449 116.803 501.801C116.342 501.152 115.694 500.828 114.858 500.828C114.03 500.828 113.389 501.152 112.936 501.801C112.483 502.441 112.256 503.438 112.256 504.789ZM122.175 504.566C122.175 502.621 122.636 501.055 123.558 499.867C124.488 498.68 125.738 498.086 127.308 498.086C128.698 498.086 129.78 498.562 130.554 499.516L130.695 498.32H133.765V510.578C133.765 511.688 133.511 512.652 133.003 513.473C132.503 514.293 131.796 514.918 130.882 515.348C129.968 515.777 128.898 515.992 127.671 515.992C126.741 515.992 125.835 515.805 124.952 515.43C124.07 515.062 123.402 514.586 122.948 514L124.448 511.938C125.292 512.883 126.316 513.355 127.519 513.355C128.417 513.355 129.116 513.113 129.616 512.629C130.116 512.152 130.366 511.473 130.366 510.59V509.91C129.585 510.793 128.558 511.234 127.284 511.234C125.761 511.234 124.527 510.641 123.581 509.453C122.644 508.258 122.175 506.676 122.175 504.707V504.566ZM125.562 504.812C125.562 505.961 125.792 506.863 126.253 507.52C126.714 508.168 127.347 508.492 128.152 508.492C129.183 508.492 129.921 508.105 130.366 507.332V502C129.913 501.227 129.183 500.84 128.175 500.84C127.363 500.84 126.722 501.172 126.253 501.836C125.792 502.5 125.562 503.492 125.562 504.812ZM145.716 511H142.2V493.938H145.716V511ZM151.58 498.32L151.685 499.785C152.591 498.652 153.806 498.086 155.33 498.086C156.673 498.086 157.673 498.48 158.33 499.27C158.986 500.059 159.322 501.238 159.338 502.809V511H155.951V502.891C155.951 502.172 155.795 501.652 155.482 501.332C155.17 501.004 154.65 500.84 153.923 500.84C152.97 500.84 152.255 501.246 151.779 502.059V511H148.392V498.32H151.58ZM176.363 506.523C176.363 505.859 176.128 505.352 175.659 505C175.191 504.641 174.347 504.266 173.128 503.875C171.909 503.477 170.945 503.086 170.234 502.703C168.296 501.656 167.327 500.246 167.327 498.473C167.327 497.551 167.585 496.73 168.101 496.012C168.624 495.285 169.37 494.719 170.339 494.312C171.316 493.906 172.409 493.703 173.62 493.703C174.839 493.703 175.925 493.926 176.878 494.371C177.831 494.809 178.57 495.43 179.093 496.234C179.624 497.039 179.89 497.953 179.89 498.977H176.374C176.374 498.195 176.128 497.59 175.636 497.16C175.144 496.723 174.452 496.504 173.562 496.504C172.702 496.504 172.034 496.688 171.558 497.055C171.081 497.414 170.843 497.891 170.843 498.484C170.843 499.039 171.12 499.504 171.675 499.879C172.238 500.254 173.062 500.605 174.148 500.934C176.148 501.535 177.605 502.281 178.519 503.172C179.433 504.062 179.89 505.172 179.89 506.5C179.89 507.977 179.331 509.137 178.214 509.98C177.097 510.816 175.593 511.234 173.702 511.234C172.39 511.234 171.195 510.996 170.116 510.52C169.038 510.035 168.214 509.375 167.644 508.539C167.081 507.703 166.8 506.734 166.8 505.633H170.327C170.327 507.516 171.452 508.457 173.702 508.457C174.538 508.457 175.191 508.289 175.659 507.953C176.128 507.609 176.363 507.133 176.363 506.523ZM189.352 509.711C188.516 510.727 187.359 511.234 185.883 511.234C184.523 511.234 183.484 510.844 182.766 510.062C182.055 509.281 181.691 508.137 181.676 506.629V498.32H185.062V506.512C185.062 507.832 185.664 508.492 186.867 508.492C188.016 508.492 188.805 508.094 189.234 507.297V498.32H192.633V511H189.445L189.352 509.711ZM200.161 508.504C200.786 508.504 201.294 508.332 201.684 507.988C202.075 507.645 202.278 507.188 202.294 506.617H205.47C205.462 507.477 205.227 508.266 204.766 508.984C204.305 509.695 203.673 510.25 202.868 510.648C202.071 511.039 201.188 511.234 200.22 511.234C198.407 511.234 196.977 510.66 195.93 509.512C194.884 508.355 194.36 506.762 194.36 504.73V504.508C194.36 502.555 194.88 500.996 195.919 499.832C196.958 498.668 198.384 498.086 200.196 498.086C201.782 498.086 203.052 498.539 204.005 499.445C204.966 500.344 205.454 501.543 205.47 503.043H202.294C202.278 502.387 202.075 501.855 201.684 501.449C201.294 501.035 200.778 500.828 200.138 500.828C199.348 500.828 198.751 501.117 198.345 501.695C197.946 502.266 197.747 503.195 197.747 504.484V504.836C197.747 506.141 197.946 507.078 198.345 507.648C198.743 508.219 199.348 508.504 200.161 508.504ZM212.377 508.504C213.002 508.504 213.509 508.332 213.9 507.988C214.291 507.645 214.494 507.188 214.509 506.617H217.685C217.677 507.477 217.443 508.266 216.982 508.984C216.521 509.695 215.888 510.25 215.084 510.648C214.287 511.039 213.404 511.234 212.435 511.234C210.623 511.234 209.193 510.66 208.146 509.512C207.099 508.355 206.576 506.762 206.576 504.73V504.508C206.576 502.555 207.095 500.996 208.134 499.832C209.173 498.668 210.599 498.086 212.412 498.086C213.998 498.086 215.267 498.539 216.22 499.445C217.181 500.344 217.67 501.543 217.685 503.043H214.509C214.494 502.387 214.291 501.855 213.9 501.449C213.509 501.035 212.994 500.828 212.353 500.828C211.564 500.828 210.966 501.117 210.56 501.695C210.162 502.266 209.963 503.195 209.963 504.484V504.836C209.963 506.141 210.162 507.078 210.56 507.648C210.959 508.219 211.564 508.504 212.377 508.504ZM225.155 511.234C223.295 511.234 221.78 510.664 220.608 509.523C219.444 508.383 218.862 506.863 218.862 504.965V504.637C218.862 503.363 219.108 502.227 219.6 501.227C220.092 500.219 220.787 499.445 221.686 498.906C222.592 498.359 223.623 498.086 224.78 498.086C226.514 498.086 227.877 498.633 228.87 499.727C229.87 500.82 230.37 502.371 230.37 504.379V505.762H222.295C222.405 506.59 222.733 507.254 223.28 507.754C223.834 508.254 224.534 508.504 225.377 508.504C226.682 508.504 227.702 508.031 228.436 507.086L230.1 508.949C229.592 509.668 228.905 510.23 228.037 510.637C227.17 511.035 226.209 511.234 225.155 511.234ZM224.768 500.828C224.096 500.828 223.549 501.055 223.127 501.508C222.713 501.961 222.448 502.609 222.33 503.453H227.041V503.184C227.026 502.434 226.823 501.855 226.432 501.449C226.041 501.035 225.487 500.828 224.768 500.828ZM238.87 507.496C238.87 507.082 238.663 506.758 238.249 506.523C237.843 506.281 237.187 506.066 236.28 505.879C233.265 505.246 231.757 503.965 231.757 502.035C231.757 500.91 232.222 499.973 233.152 499.223C234.089 498.465 235.312 498.086 236.82 498.086C238.429 498.086 239.714 498.465 240.675 499.223C241.644 499.98 242.128 500.965 242.128 502.176H238.741C238.741 501.691 238.585 501.293 238.273 500.98C237.96 500.66 237.472 500.5 236.808 500.5C236.237 500.5 235.796 500.629 235.484 500.887C235.171 501.145 235.015 501.473 235.015 501.871C235.015 502.246 235.191 502.551 235.542 502.785C235.902 503.012 236.503 503.211 237.347 503.383C238.191 503.547 238.902 503.734 239.48 503.945C241.269 504.602 242.163 505.738 242.163 507.355C242.163 508.512 241.667 509.449 240.675 510.168C239.683 510.879 238.402 511.234 236.831 511.234C235.769 511.234 234.823 511.047 233.995 510.672C233.175 510.289 232.53 509.77 232.062 509.113C231.593 508.449 231.359 507.734 231.359 506.969H234.57C234.601 507.57 234.823 508.031 235.237 508.352C235.652 508.672 236.206 508.832 236.902 508.832C237.55 508.832 238.038 508.711 238.366 508.469C238.702 508.219 238.87 507.895 238.87 507.496ZM250.922 507.496C250.922 507.082 250.715 506.758 250.301 506.523C249.895 506.281 249.238 506.066 248.332 505.879C245.316 505.246 243.809 503.965 243.809 502.035C243.809 500.91 244.273 499.973 245.203 499.223C246.141 498.465 247.363 498.086 248.871 498.086C250.48 498.086 251.766 498.465 252.727 499.223C253.695 499.98 254.18 500.965 254.18 502.176H250.793C250.793 501.691 250.637 501.293 250.324 500.98C250.012 500.66 249.523 500.5 248.859 500.5C248.289 500.5 247.848 500.629 247.535 500.887C247.223 501.145 247.066 501.473 247.066 501.871C247.066 502.246 247.242 502.551 247.594 502.785C247.953 503.012 248.555 503.211 249.398 503.383C250.242 503.547 250.953 503.734 251.531 503.945C253.32 504.602 254.215 505.738 254.215 507.355C254.215 508.512 253.719 509.449 252.727 510.168C251.734 510.879 250.453 511.234 248.883 511.234C247.82 511.234 246.875 511.047 246.047 510.672C245.227 510.289 244.582 509.77 244.113 509.113C243.645 508.449 243.41 507.734 243.41 506.969H246.621C246.652 507.57 246.875 508.031 247.289 508.352C247.703 508.672 248.258 508.832 248.953 508.832C249.602 508.832 250.09 508.711 250.418 508.469C250.754 508.219 250.922 507.895 250.922 507.496ZM257.032 511V500.805H255.145V498.32H257.032V497.242C257.032 495.82 257.438 494.719 258.251 493.938C259.071 493.148 260.216 492.754 261.684 492.754C262.153 492.754 262.727 492.832 263.407 492.988L263.372 495.613C263.091 495.543 262.747 495.508 262.341 495.508C261.067 495.508 260.43 496.105 260.43 497.301V498.32H262.95V500.805H260.43V511H257.032ZM272.002 509.711C271.166 510.727 270.009 511.234 268.533 511.234C267.173 511.234 266.134 510.844 265.416 510.062C264.705 509.281 264.341 508.137 264.326 506.629V498.32H267.712V506.512C267.712 507.832 268.314 508.492 269.517 508.492C270.666 508.492 271.455 508.094 271.884 507.297V498.32H275.283V511H272.095L272.002 509.711ZM281.112 511H277.713V493H281.112V511Z" fill="black"/>
<path d="M189.333 303.167C174.829 303.167 160.651 307.467 148.592 315.525C136.532 323.583 127.133 335.036 121.582 348.436C116.032 361.836 114.58 376.581 117.409 390.806C120.239 405.032 127.223 418.098 137.479 428.354C147.735 438.61 160.801 445.595 175.027 448.424C189.252 451.254 203.997 449.801 217.397 444.251C230.797 438.701 242.25 429.301 250.308 417.242C258.366 405.182 262.667 391.004 262.667 376.5C262.667 357.051 254.941 338.398 241.188 324.645C227.435 310.893 208.783 303.167 189.333 303.167ZM189.333 440.667C176.642 440.667 164.236 436.903 153.684 429.852C143.132 422.802 134.908 412.78 130.051 401.055C125.194 389.33 123.924 376.429 126.4 363.982C128.876 351.534 134.987 340.101 143.961 331.127C152.935 322.153 164.368 316.042 176.815 313.566C189.262 311.09 202.164 312.361 213.889 317.218C225.614 322.074 235.635 330.299 242.686 340.851C249.737 351.403 253.5 363.809 253.5 376.5C253.5 393.518 246.74 409.839 234.706 421.873C222.672 433.906 206.351 440.667 189.333 440.667Z" fill="black"/>
<path d="M234.906 349.46C234.047 348.606 232.886 348.127 231.675 348.127C230.464 348.127 229.302 348.606 228.444 349.46L177.569 400.106L150.069 372.606C149.23 371.7 148.066 371.165 146.832 371.117C145.599 371.07 144.397 371.515 143.492 372.354C142.586 373.192 142.051 374.356 142.003 375.59C141.956 376.823 142.401 378.025 143.24 378.931L177.569 413.168L234.906 355.968C235.336 355.542 235.677 355.035 235.909 354.477C236.142 353.918 236.262 353.319 236.262 352.714C236.262 352.109 236.142 351.51 235.909 350.951C235.677 350.393 235.336 349.886 234.906 349.46Z" fill="black"/>
<path d="M153.352 615.395C151.422 614.84 150.016 614.16 149.133 613.355C148.258 612.543 147.82 611.543 147.82 610.355C147.82 609.012 148.355 607.902 149.426 607.027C150.504 606.145 151.902 605.703 153.621 605.703C154.793 605.703 155.836 605.93 156.75 606.383C157.672 606.836 158.383 607.461 158.883 608.258C159.391 609.055 159.645 609.926 159.645 610.871H157.383C157.383 609.84 157.055 609.031 156.398 608.445C155.742 607.852 154.816 607.555 153.621 607.555C152.512 607.555 151.645 607.801 151.02 608.293C150.402 608.777 150.094 609.453 150.094 610.32C150.094 611.016 150.387 611.605 150.973 612.09C151.566 612.566 152.57 613.004 153.984 613.402C155.406 613.801 156.516 614.242 157.312 614.727C158.117 615.203 158.711 615.762 159.094 616.402C159.484 617.043 159.68 617.797 159.68 618.664C159.68 620.047 159.141 621.156 158.062 621.992C156.984 622.82 155.543 623.234 153.738 623.234C152.566 623.234 151.473 623.012 150.457 622.566C149.441 622.113 148.656 621.496 148.102 620.715C147.555 619.934 147.281 619.047 147.281 618.055H149.543C149.543 619.086 149.922 619.902 150.68 620.504C151.445 621.098 152.465 621.395 153.738 621.395C154.926 621.395 155.836 621.152 156.469 620.668C157.102 620.184 157.418 619.523 157.418 618.688C157.418 617.852 157.125 617.207 156.539 616.754C155.953 616.293 154.891 615.84 153.352 615.395ZM164.59 623H162.422V610.32H164.59V623ZM162.246 606.957C162.246 606.605 162.352 606.309 162.562 606.066C162.781 605.824 163.102 605.703 163.523 605.703C163.945 605.703 164.266 605.824 164.484 606.066C164.703 606.309 164.812 606.605 164.812 606.957C164.812 607.309 164.703 607.602 164.484 607.836C164.266 608.07 163.945 608.188 163.523 608.188C163.102 608.188 162.781 608.07 162.562 607.836C162.352 607.602 162.246 607.309 162.246 606.957ZM171.012 607.25V610.32H173.379V611.996H171.012V619.859C171.012 620.367 171.117 620.75 171.328 621.008C171.539 621.258 171.898 621.383 172.406 621.383C172.656 621.383 173 621.336 173.438 621.242V623C172.867 623.156 172.312 623.234 171.773 623.234C170.805 623.234 170.074 622.941 169.582 622.355C169.09 621.77 168.844 620.938 168.844 619.859V611.996H166.535V610.32H168.844V607.25H171.012ZM184.816 607.25V610.32H187.184V611.996H184.816V619.859C184.816 620.367 184.922 620.75 185.133 621.008C185.344 621.258 185.703 621.383 186.211 621.383C186.461 621.383 186.805 621.336 187.242 621.242V623C186.672 623.156 186.117 623.234 185.578 623.234C184.609 623.234 183.879 622.941 183.387 622.355C182.895 621.77 182.648 620.938 182.648 619.859V611.996H180.34V610.32H182.648V607.25H184.816ZM192.082 623H189.914V610.32H192.082V623ZM189.738 606.957C189.738 606.605 189.844 606.309 190.055 606.066C190.273 605.824 190.594 605.703 191.016 605.703C191.438 605.703 191.758 605.824 191.977 606.066C192.195 606.309 192.305 606.605 192.305 606.957C192.305 607.309 192.195 607.602 191.977 607.836C191.758 608.07 191.438 608.188 191.016 608.188C190.594 608.188 190.273 608.07 190.055 607.836C189.844 607.602 189.738 607.309 189.738 606.957ZM195.047 616.555C195.047 614.578 195.504 613.008 196.418 611.844C197.332 610.672 198.543 610.086 200.051 610.086C201.598 610.086 202.805 610.633 203.672 611.727L203.777 610.32H205.758V622.695C205.758 624.336 205.27 625.629 204.293 626.574C203.324 627.52 202.02 627.992 200.379 627.992C199.465 627.992 198.57 627.797 197.695 627.406C196.82 627.016 196.152 626.48 195.691 625.801L196.816 624.5C197.746 625.648 198.883 626.223 200.227 626.223C201.281 626.223 202.102 625.926 202.688 625.332C203.281 624.738 203.578 623.902 203.578 622.824V621.734C202.711 622.734 201.527 623.234 200.027 623.234C198.543 623.234 197.34 622.637 196.418 621.441C195.504 620.246 195.047 618.617 195.047 616.555ZM197.227 616.801C197.227 618.23 197.52 619.355 198.105 620.176C198.691 620.988 199.512 621.395 200.566 621.395C201.934 621.395 202.938 620.773 203.578 619.531V613.742C202.914 612.531 201.918 611.926 200.59 611.926C199.535 611.926 198.711 612.336 198.117 613.156C197.523 613.977 197.227 615.191 197.227 616.801ZM211.207 611.855C212.168 610.676 213.418 610.086 214.957 610.086C217.637 610.086 218.988 611.598 219.012 614.621V623H216.844V614.609C216.836 613.695 216.625 613.02 216.211 612.582C215.805 612.145 215.168 611.926 214.301 611.926C213.598 611.926 212.98 612.113 212.449 612.488C211.918 612.863 211.504 613.355 211.207 613.965V623H209.039V605H211.207V611.855ZM225.199 607.25V610.32H227.566V611.996H225.199V619.859C225.199 620.367 225.305 620.75 225.516 621.008C225.727 621.258 226.086 621.383 226.594 621.383C226.844 621.383 227.188 621.336 227.625 621.242V623C227.055 623.156 226.5 623.234 225.961 623.234C224.992 623.234 224.262 622.941 223.77 622.355C223.277 621.77 223.031 620.938 223.031 619.859V611.996H220.723V610.32H223.031V607.25H225.199ZM232.535 618.184H230.578L230.426 605.938H232.699L232.535 618.184ZM230.344 621.91C230.344 621.559 230.449 621.266 230.66 621.031C230.879 620.789 231.199 620.668 231.621 620.668C232.043 620.668 232.363 620.789 232.582 621.031C232.801 621.266 232.91 621.559 232.91 621.91C232.91 622.262 232.801 622.555 232.582 622.789C232.363 623.016 232.043 623.129 231.621 623.129C231.199 623.129 230.879 623.016 230.66 622.789C230.449 622.555 230.344 622.262 230.344 621.91ZM43.125 642.504L47.5781 633.938H50.1328L44.25 644.637V651H42V644.637L36.1172 633.938H38.6953L43.125 642.504ZM50.6484 644.543C50.6484 643.301 50.8906 642.184 51.375 641.191C51.8672 640.199 52.5469 639.434 53.4141 638.895C54.2891 638.355 55.2852 638.086 56.4023 638.086C58.1289 638.086 59.5234 638.684 60.5859 639.879C61.6562 641.074 62.1914 642.664 62.1914 644.648V644.801C62.1914 646.035 61.9531 647.145 61.4766 648.129C61.0078 649.105 60.332 649.867 59.4492 650.414C58.5742 650.961 57.5664 651.234 56.4258 651.234C54.707 651.234 53.3125 650.637 52.2422 649.441C51.1797 648.246 50.6484 646.664 50.6484 644.695V644.543ZM52.8281 644.801C52.8281 646.207 53.1523 647.336 53.8008 648.188C54.457 649.039 55.332 649.465 56.4258 649.465C57.5273 649.465 58.4023 649.035 59.0508 648.176C59.6992 647.309 60.0234 646.098 60.0234 644.543C60.0234 643.152 59.6914 642.027 59.0273 641.168C58.3711 640.301 57.4961 639.867 56.4023 639.867C55.332 639.867 54.4688 640.293 53.8125 641.145C53.1562 641.996 52.8281 643.215 52.8281 644.801ZM72.7383 649.746C71.8945 650.738 70.6562 651.234 69.0234 651.234C67.6719 651.234 66.6406 650.844 65.9297 650.062C65.2266 649.273 64.8711 648.109 64.8633 646.57V638.32H67.0312V646.512C67.0312 648.434 67.8125 649.395 69.375 649.395C71.0312 649.395 72.1328 648.777 72.6797 647.543V638.32H74.8477V651H72.7852L72.7383 649.746ZM91.9336 651C91.8086 650.75 91.707 650.305 91.6289 649.664C90.6211 650.711 89.418 651.234 88.0195 651.234C86.7695 651.234 85.7422 650.883 84.9375 650.18C84.1406 649.469 83.7422 648.57 83.7422 647.484C83.7422 646.164 84.2422 645.141 85.2422 644.414C86.25 643.68 87.6641 643.312 89.4844 643.312H91.5938V642.316C91.5938 641.559 91.3672 640.957 90.9141 640.512C90.4609 640.059 89.793 639.832 88.9102 639.832C88.1367 639.832 87.4883 640.027 86.9648 640.418C86.4414 640.809 86.1797 641.281 86.1797 641.836H84C84 641.203 84.2227 640.594 84.668 640.008C85.1211 639.414 85.7305 638.945 86.4961 638.602C87.2695 638.258 88.1172 638.086 89.0391 638.086C90.5 638.086 91.6445 638.453 92.4727 639.188C93.3008 639.914 93.7305 640.918 93.7617 642.199V648.035C93.7617 649.199 93.9102 650.125 94.207 650.812V651H91.9336ZM88.3359 649.348C89.0156 649.348 89.6602 649.172 90.2695 648.82C90.8789 648.469 91.3203 648.012 91.5938 647.449V644.848H89.8945C87.2383 644.848 85.9102 645.625 85.9102 647.18C85.9102 647.859 86.1367 648.391 86.5898 648.773C87.043 649.156 87.625 649.348 88.3359 649.348ZM103.289 640.266C102.961 640.211 102.605 640.184 102.223 640.184C100.801 640.184 99.8359 640.789 99.3281 642V651H97.1602V638.32H99.2695L99.3047 639.785C100.016 638.652 101.023 638.086 102.328 638.086C102.75 638.086 103.07 638.141 103.289 638.25V640.266ZM110.32 651.234C108.602 651.234 107.203 650.672 106.125 649.547C105.047 648.414 104.508 646.902 104.508 645.012V644.613C104.508 643.355 104.746 642.234 105.223 641.25C105.707 640.258 106.379 639.484 107.238 638.93C108.105 638.367 109.043 638.086 110.051 638.086C111.699 638.086 112.98 638.629 113.895 639.715C114.809 640.801 115.266 642.355 115.266 644.379V645.281H106.676C106.707 646.531 107.07 647.543 107.766 648.316C108.469 649.082 109.359 649.465 110.438 649.465C111.203 649.465 111.852 649.309 112.383 648.996C112.914 648.684 113.379 648.27 113.777 647.754L115.102 648.785C114.039 650.418 112.445 651.234 110.32 651.234ZM110.051 639.867C109.176 639.867 108.441 640.188 107.848 640.828C107.254 641.461 106.887 642.352 106.746 643.5H113.098V643.336C113.035 642.234 112.738 641.383 112.207 640.781C111.676 640.172 110.957 639.867 110.051 639.867ZM125.789 638.32L125.859 639.914C126.828 638.695 128.094 638.086 129.656 638.086C132.336 638.086 133.688 639.598 133.711 642.621V651H131.543V642.609C131.535 641.695 131.324 641.02 130.91 640.582C130.504 640.145 129.867 639.926 129 639.926C128.297 639.926 127.68 640.113 127.148 640.488C126.617 640.863 126.203 641.355 125.906 641.965V651H123.738V638.32H125.789ZM136.406 644.543C136.406 643.301 136.648 642.184 137.133 641.191C137.625 640.199 138.305 639.434 139.172 638.895C140.047 638.355 141.043 638.086 142.16 638.086C143.887 638.086 145.281 638.684 146.344 639.879C147.414 641.074 147.949 642.664 147.949 644.648V644.801C147.949 646.035 147.711 647.145 147.234 648.129C146.766 649.105 146.09 649.867 145.207 650.414C144.332 650.961 143.324 651.234 142.184 651.234C140.465 651.234 139.07 650.637 138 649.441C136.938 648.246 136.406 646.664 136.406 644.695V644.543ZM138.586 644.801C138.586 646.207 138.91 647.336 139.559 648.188C140.215 649.039 141.09 649.465 142.184 649.465C143.285 649.465 144.16 649.035 144.809 648.176C145.457 647.309 145.781 646.098 145.781 644.543C145.781 643.152 145.449 642.027 144.785 641.168C144.129 640.301 143.254 639.867 142.16 639.867C141.09 639.867 140.227 640.293 139.57 641.145C138.914 641.996 138.586 643.215 138.586 644.801ZM161.895 648.012L164.332 638.32H166.5L162.809 651H161.051L157.969 641.391L154.969 651H153.211L149.531 638.32H151.688L154.184 647.812L157.137 638.32H158.883L161.895 648.012ZM185.402 644.801C185.402 646.738 184.957 648.297 184.066 649.477C183.176 650.648 181.98 651.234 180.48 651.234C178.879 651.234 177.641 650.668 176.766 649.535L176.66 651H174.668V633H176.836V639.715C177.711 638.629 178.918 638.086 180.457 638.086C181.996 638.086 183.203 638.668 184.078 639.832C184.961 640.996 185.402 642.59 185.402 644.613V644.801ZM183.234 644.555C183.234 643.078 182.949 641.938 182.379 641.133C181.809 640.328 180.988 639.926 179.918 639.926C178.488 639.926 177.461 640.59 176.836 641.918V647.402C177.5 648.73 178.535 649.395 179.941 649.395C180.98 649.395 181.789 648.992 182.367 648.188C182.945 647.383 183.234 646.172 183.234 644.555ZM193.406 651.234C191.688 651.234 190.289 650.672 189.211 649.547C188.133 648.414 187.594 646.902 187.594 645.012V644.613C187.594 643.355 187.832 642.234 188.309 641.25C188.793 640.258 189.465 639.484 190.324 638.93C191.191 638.367 192.129 638.086 193.137 638.086C194.785 638.086 196.066 638.629 196.98 639.715C197.895 640.801 198.352 642.355 198.352 644.379V645.281H189.762C189.793 646.531 190.156 647.543 190.852 648.316C191.555 649.082 192.445 649.465 193.523 649.465C194.289 649.465 194.938 649.309 195.469 648.996C196 648.684 196.465 648.27 196.863 647.754L198.188 648.785C197.125 650.418 195.531 651.234 193.406 651.234ZM193.137 639.867C192.262 639.867 191.527 640.188 190.934 640.828C190.34 641.461 189.973 642.352 189.832 643.5H196.184V643.336C196.121 642.234 195.824 641.383 195.293 640.781C194.762 640.172 194.043 639.867 193.137 639.867ZM203.227 651H201.059V638.32H203.227V651ZM200.883 634.957C200.883 634.605 200.988 634.309 201.199 634.066C201.418 633.824 201.738 633.703 202.16 633.703C202.582 633.703 202.902 633.824 203.121 634.066C203.34 634.309 203.449 634.605 203.449 634.957C203.449 635.309 203.34 635.602 203.121 635.836C202.902 636.07 202.582 636.188 202.16 636.188C201.738 636.188 201.418 636.07 201.199 635.836C200.988 635.602 200.883 635.309 200.883 634.957ZM208.758 638.32L208.828 639.914C209.797 638.695 211.062 638.086 212.625 638.086C215.305 638.086 216.656 639.598 216.68 642.621V651H214.512V642.609C214.504 641.695 214.293 641.02 213.879 640.582C213.473 640.145 212.836 639.926 211.969 639.926C211.266 639.926 210.648 640.113 210.117 640.488C209.586 640.863 209.172 641.355 208.875 641.965V651H206.707V638.32H208.758ZM219.434 644.555C219.434 642.578 219.891 641.008 220.805 639.844C221.719 638.672 222.93 638.086 224.438 638.086C225.984 638.086 227.191 638.633 228.059 639.727L228.164 638.32H230.145V650.695C230.145 652.336 229.656 653.629 228.68 654.574C227.711 655.52 226.406 655.992 224.766 655.992C223.852 655.992 222.957 655.797 222.082 655.406C221.207 655.016 220.539 654.48 220.078 653.801L221.203 652.5C222.133 653.648 223.27 654.223 224.613 654.223C225.668 654.223 226.488 653.926 227.074 653.332C227.668 652.738 227.965 651.902 227.965 650.824V649.734C227.098 650.734 225.914 651.234 224.414 651.234C222.93 651.234 221.727 650.637 220.805 649.441C219.891 648.246 219.434 646.617 219.434 644.555ZM221.613 644.801C221.613 646.23 221.906 647.355 222.492 648.176C223.078 648.988 223.898 649.395 224.953 649.395C226.32 649.395 227.324 648.773 227.965 647.531V641.742C227.301 640.531 226.305 639.926 224.977 639.926C223.922 639.926 223.098 640.336 222.504 641.156C221.91 641.977 221.613 643.191 221.613 644.801ZM245.508 640.266C245.18 640.211 244.824 640.184 244.441 640.184C243.02 640.184 242.055 640.789 241.547 642V651H239.379V638.32H241.488L241.523 639.785C242.234 638.652 243.242 638.086 244.547 638.086C244.969 638.086 245.289 638.141 245.508 638.25V640.266ZM252.539 651.234C250.82 651.234 249.422 650.672 248.344 649.547C247.266 648.414 246.727 646.902 246.727 645.012V644.613C246.727 643.355 246.965 642.234 247.441 641.25C247.926 640.258 248.598 639.484 249.457 638.93C250.324 638.367 251.262 638.086 252.27 638.086C253.918 638.086 255.199 638.629 256.113 639.715C257.027 640.801 257.484 642.355 257.484 644.379V645.281H248.895C248.926 646.531 249.289 647.543 249.984 648.316C250.688 649.082 251.578 649.465 252.656 649.465C253.422 649.465 254.07 649.309 254.602 648.996C255.133 648.684 255.598 648.27 255.996 647.754L257.32 648.785C256.258 650.418 254.664 651.234 252.539 651.234ZM252.27 639.867C251.395 639.867 250.66 640.188 250.066 640.828C249.473 641.461 249.105 642.352 248.965 643.5H255.316V643.336C255.254 642.234 254.957 641.383 254.426 640.781C253.895 640.172 253.176 639.867 252.27 639.867ZM259.477 644.555C259.477 642.609 259.938 641.047 260.859 639.867C261.781 638.68 262.988 638.086 264.48 638.086C265.965 638.086 267.141 638.594 268.008 639.609V633H270.176V651H268.184L268.078 649.641C267.211 650.703 266.004 651.234 264.457 651.234C262.988 651.234 261.789 650.633 260.859 649.43C259.938 648.227 259.477 646.656 259.477 644.719V644.555ZM261.645 644.801C261.645 646.238 261.941 647.363 262.535 648.176C263.129 648.988 263.949 649.395 264.996 649.395C266.371 649.395 267.375 648.777 268.008 647.543V641.719C267.359 640.523 266.363 639.926 265.02 639.926C263.957 639.926 263.129 640.336 262.535 641.156C261.941 641.977 261.645 643.191 261.645 644.801ZM275.906 651H273.738V638.32H275.906V651ZM273.562 634.957C273.562 634.605 273.668 634.309 273.879 634.066C274.098 633.824 274.418 633.703 274.84 633.703C275.262 633.703 275.582 633.824 275.801 634.066C276.02 634.309 276.129 634.605 276.129 634.957C276.129 635.309 276.02 635.602 275.801 635.836C275.582 636.07 275.262 636.188 274.84 636.188C274.418 636.188 274.098 636.07 273.879 635.836C273.668 635.602 273.562 635.309 273.562 634.957ZM285.516 640.266C285.188 640.211 284.832 640.184 284.449 640.184C283.027 640.184 282.062 640.789 281.555 642V651H279.387V638.32H281.496L281.531 639.785C282.242 638.652 283.25 638.086 284.555 638.086C284.977 638.086 285.297 638.141 285.516 638.25V640.266ZM292.547 651.234C290.828 651.234 289.43 650.672 288.352 649.547C287.273 648.414 286.734 646.902 286.734 645.012V644.613C286.734 643.355 286.973 642.234 287.449 641.25C287.934 640.258 288.605 639.484 289.465 638.93C290.332 638.367 291.27 638.086 292.277 638.086C293.926 638.086 295.207 638.629 296.121 639.715C297.035 640.801 297.492 642.355 297.492 644.379V645.281H288.902C288.934 646.531 289.297 647.543 289.992 648.316C290.695 649.082 291.586 649.465 292.664 649.465C293.43 649.465 294.078 649.309 294.609 648.996C295.141 648.684 295.605 648.27 296.004 647.754L297.328 648.785C296.266 650.418 294.672 651.234 292.547 651.234ZM292.277 639.867C291.402 639.867 290.668 640.188 290.074 640.828C289.48 641.461 289.113 642.352 288.973 643.5H295.324V643.336C295.262 642.234 294.965 641.383 294.434 640.781C293.902 640.172 293.184 639.867 292.277 639.867ZM305.098 649.465C305.871 649.465 306.547 649.23 307.125 648.762C307.703 648.293 308.023 647.707 308.086 647.004H310.137C310.098 647.73 309.848 648.422 309.387 649.078C308.926 649.734 308.309 650.258 307.535 650.648C306.77 651.039 305.957 651.234 305.098 651.234C303.371 651.234 301.996 650.66 300.973 649.512C299.957 648.355 299.449 646.777 299.449 644.777V644.414C299.449 643.18 299.676 642.082 300.129 641.121C300.582 640.16 301.23 639.414 302.074 638.883C302.926 638.352 303.93 638.086 305.086 638.086C306.508 638.086 307.688 638.512 308.625 639.363C309.57 640.215 310.074 641.32 310.137 642.68H308.086C308.023 641.859 307.711 641.188 307.148 640.664C306.594 640.133 305.906 639.867 305.086 639.867C303.984 639.867 303.129 640.266 302.52 641.062C301.918 641.852 301.617 642.996 301.617 644.496V644.906C301.617 646.367 301.918 647.492 302.52 648.281C303.121 649.07 303.98 649.465 305.098 649.465ZM315.516 635.25V638.32H317.883V639.996H315.516V647.859C315.516 648.367 315.621 648.75 315.832 649.008C316.043 649.258 316.402 649.383 316.91 649.383C317.16 649.383 317.504 649.336 317.941 649.242V651C317.371 651.156 316.816 651.234 316.277 651.234C315.309 651.234 314.578 650.941 314.086 650.355C313.594 649.77 313.348 648.938 313.348 647.859V639.996H311.039V638.32H313.348V635.25H315.516ZM325.688 651.234C323.969 651.234 322.57 650.672 321.492 649.547C320.414 648.414 319.875 646.902 319.875 645.012V644.613C319.875 643.355 320.113 642.234 320.59 641.25C321.074 640.258 321.746 639.484 322.605 638.93C323.473 638.367 324.41 638.086 325.418 638.086C327.066 638.086 328.348 638.629 329.262 639.715C330.176 640.801 330.633 642.355 330.633 644.379V645.281H322.043C322.074 646.531 322.438 647.543 323.133 648.316C323.836 649.082 324.727 649.465 325.805 649.465C326.57 649.465 327.219 649.309 327.75 648.996C328.281 648.684 328.746 648.27 329.145 647.754L330.469 648.785C329.406 650.418 327.812 651.234 325.688 651.234ZM325.418 639.867C324.543 639.867 323.809 640.188 323.215 640.828C322.621 641.461 322.254 642.352 322.113 643.5H328.465V643.336C328.402 642.234 328.105 641.383 327.574 640.781C327.043 640.172 326.324 639.867 325.418 639.867ZM332.625 644.555C332.625 642.609 333.086 641.047 334.008 639.867C334.93 638.68 336.137 638.086 337.629 638.086C339.113 638.086 340.289 638.594 341.156 639.609V633H343.324V651H341.332L341.227 649.641C340.359 650.703 339.152 651.234 337.605 651.234C336.137 651.234 334.938 650.633 334.008 649.43C333.086 648.227 332.625 646.656 332.625 644.719V644.555ZM334.793 644.801C334.793 646.238 335.09 647.363 335.684 648.176C336.277 648.988 337.098 649.395 338.145 649.395C339.52 649.395 340.523 648.777 341.156 647.543V641.719C340.508 640.523 339.512 639.926 338.168 639.926C337.105 639.926 336.277 640.336 335.684 641.156C335.09 641.977 334.793 643.191 334.793 644.801ZM69.7383 672.801C69.7383 674.738 69.293 676.297 68.4023 677.477C67.5117 678.648 66.3164 679.234 64.8164 679.234C63.2148 679.234 61.9766 678.668 61.1016 677.535L60.9961 679H59.0039V661H61.1719V667.715C62.0469 666.629 63.2539 666.086 64.793 666.086C66.332 666.086 67.5391 666.668 68.4141 667.832C69.2969 668.996 69.7383 670.59 69.7383 672.613V672.801ZM67.5703 672.555C67.5703 671.078 67.2852 669.938 66.7148 669.133C66.1445 668.328 65.3242 667.926 64.2539 667.926C62.8242 667.926 61.7969 668.59 61.1719 669.918V675.402C61.8359 676.73 62.8711 677.395 64.2773 677.395C65.3164 677.395 66.125 676.992 66.7031 676.188C67.2812 675.383 67.5703 674.172 67.5703 672.555ZM80.3086 679C80.1836 678.75 80.082 678.305 80.0039 677.664C78.9961 678.711 77.793 679.234 76.3945 679.234C75.1445 679.234 74.1172 678.883 73.3125 678.18C72.5156 677.469 72.1172 676.57 72.1172 675.484C72.1172 674.164 72.6172 673.141 73.6172 672.414C74.625 671.68 76.0391 671.312 77.8594 671.312H79.9688V670.316C79.9688 669.559 79.7422 668.957 79.2891 668.512C78.8359 668.059 78.168 667.832 77.2852 667.832C76.5117 667.832 75.8633 668.027 75.3398 668.418C74.8164 668.809 74.5547 669.281 74.5547 669.836H72.375C72.375 669.203 72.5977 668.594 73.043 668.008C73.4961 667.414 74.1055 666.945 74.8711 666.602C75.6445 666.258 76.4922 666.086 77.4141 666.086C78.875 666.086 80.0195 666.453 80.8477 667.188C81.6758 667.914 82.1055 668.918 82.1367 670.199V676.035C82.1367 677.199 82.2852 678.125 82.582 678.812V679H80.3086ZM76.7109 677.348C77.3906 677.348 78.0352 677.172 78.6445 676.82C79.2539 676.469 79.6953 676.012 79.9688 675.449V672.848H78.2695C75.6133 672.848 74.2852 673.625 74.2852 675.18C74.2852 675.859 74.5117 676.391 74.9648 676.773C75.418 677.156 76 677.348 76.7109 677.348ZM90.6211 677.465C91.3945 677.465 92.0703 677.23 92.6484 676.762C93.2266 676.293 93.5469 675.707 93.6094 675.004H95.6602C95.6211 675.73 95.3711 676.422 94.9102 677.078C94.4492 677.734 93.832 678.258 93.0586 678.648C92.293 679.039 91.4805 679.234 90.6211 679.234C88.8945 679.234 87.5195 678.66 86.4961 677.512C85.4805 676.355 84.9727 674.777 84.9727 672.777V672.414C84.9727 671.18 85.1992 670.082 85.6523 669.121C86.1055 668.16 86.7539 667.414 87.5977 666.883C88.4492 666.352 89.4531 666.086 90.6094 666.086C92.0312 666.086 93.2109 666.512 94.1484 667.363C95.0938 668.215 95.5977 669.32 95.6602 670.68H93.6094C93.5469 669.859 93.2344 669.188 92.6719 668.664C92.1172 668.133 91.4297 667.867 90.6094 667.867C89.5078 667.867 88.6523 668.266 88.043 669.062C87.4414 669.852 87.1406 670.996 87.1406 672.496V672.906C87.1406 674.367 87.4414 675.492 88.043 676.281C88.6445 677.07 89.5039 677.465 90.6211 677.465ZM101.637 673.129L100.277 674.547V679H98.1094V661H100.277V671.887L101.438 670.492L105.387 666.32H108.023L103.09 671.617L108.598 679H106.055L101.637 673.129ZM119.156 663.25V666.32H121.523V667.996H119.156V675.859C119.156 676.367 119.262 676.75 119.473 677.008C119.684 677.258 120.043 677.383 120.551 677.383C120.801 677.383 121.145 677.336 121.582 677.242V679C121.012 679.156 120.457 679.234 119.918 679.234C118.949 679.234 118.219 678.941 117.727 678.355C117.234 677.77 116.988 676.938 116.988 675.859V667.996H114.68V666.32H116.988V663.25H119.156ZM123.258 672.543C123.258 671.301 123.5 670.184 123.984 669.191C124.477 668.199 125.156 667.434 126.023 666.895C126.898 666.355 127.895 666.086 129.012 666.086C130.738 666.086 132.133 666.684 133.195 667.879C134.266 669.074 134.801 670.664 134.801 672.648V672.801C134.801 674.035 134.562 675.145 134.086 676.129C133.617 677.105 132.941 677.867 132.059 678.414C131.184 678.961 130.176 679.234 129.035 679.234C127.316 679.234 125.922 678.637 124.852 677.441C123.789 676.246 123.258 674.664 123.258 672.695V672.543ZM125.438 672.801C125.438 674.207 125.762 675.336 126.41 676.188C127.066 677.039 127.941 677.465 129.035 677.465C130.137 677.465 131.012 677.035 131.66 676.176C132.309 675.309 132.633 674.098 132.633 672.543C132.633 671.152 132.301 670.027 131.637 669.168C130.98 668.301 130.105 667.867 129.012 667.867C127.941 667.867 127.078 668.293 126.422 669.145C125.766 669.996 125.438 671.215 125.438 672.801ZM146.414 663.25V666.32H148.781V667.996H146.414V675.859C146.414 676.367 146.52 676.75 146.73 677.008C146.941 677.258 147.301 677.383 147.809 677.383C148.059 677.383 148.402 677.336 148.84 677.242V679C148.27 679.156 147.715 679.234 147.176 679.234C146.207 679.234 145.477 678.941 144.984 678.355C144.492 677.77 144.246 676.938 144.246 675.859V667.996H141.938V666.32H144.246V663.25H146.414ZM153.492 667.855C154.453 666.676 155.703 666.086 157.242 666.086C159.922 666.086 161.273 667.598 161.297 670.621V679H159.129V670.609C159.121 669.695 158.91 669.02 158.496 668.582C158.09 668.145 157.453 667.926 156.586 667.926C155.883 667.926 155.266 668.113 154.734 668.488C154.203 668.863 153.789 669.355 153.492 669.965V679H151.324V661H153.492V667.855ZM169.805 679.234C168.086 679.234 166.688 678.672 165.609 677.547C164.531 676.414 163.992 674.902 163.992 673.012V672.613C163.992 671.355 164.23 670.234 164.707 669.25C165.191 668.258 165.863 667.484 166.723 666.93C167.59 666.367 168.527 666.086 169.535 666.086C171.184 666.086 172.465 666.629 173.379 667.715C174.293 668.801 174.75 670.355 174.75 672.379V673.281H166.16C166.191 674.531 166.555 675.543 167.25 676.316C167.953 677.082 168.844 677.465 169.922 677.465C170.688 677.465 171.336 677.309 171.867 676.996C172.398 676.684 172.863 676.27 173.262 675.754L174.586 676.785C173.523 678.418 171.93 679.234 169.805 679.234ZM169.535 667.867C168.66 667.867 167.926 668.188 167.332 668.828C166.738 669.461 166.371 670.352 166.23 671.5H172.582V671.336C172.52 670.234 172.223 669.383 171.691 668.781C171.16 668.172 170.441 667.867 169.535 667.867ZM196.676 679H194.414V671.113H185.812V679H183.562V661.938H185.812V669.273H194.414V661.938H196.676V679ZM199.758 672.543C199.758 671.301 200 670.184 200.484 669.191C200.977 668.199 201.656 667.434 202.523 666.895C203.398 666.355 204.395 666.086 205.512 666.086C207.238 666.086 208.633 666.684 209.695 667.879C210.766 669.074 211.301 670.664 211.301 672.648V672.801C211.301 674.035 211.062 675.145 210.586 676.129C210.117 677.105 209.441 677.867 208.559 678.414C207.684 678.961 206.676 679.234 205.535 679.234C203.816 679.234 202.422 678.637 201.352 677.441C200.289 676.246 199.758 674.664 199.758 672.695V672.543ZM201.938 672.801C201.938 674.207 202.262 675.336 202.91 676.188C203.566 677.039 204.441 677.465 205.535 677.465C206.637 677.465 207.512 677.035 208.16 676.176C208.809 675.309 209.133 674.098 209.133 672.543C209.133 671.152 208.801 670.027 208.137 669.168C207.48 668.301 206.605 667.867 205.512 667.867C204.441 667.867 203.578 668.293 202.922 669.145C202.266 669.996 201.938 671.215 201.938 672.801ZM216.059 666.32L216.117 667.727C217.047 666.633 218.301 666.086 219.879 666.086C221.652 666.086 222.859 666.766 223.5 668.125C223.922 667.516 224.469 667.023 225.141 666.648C225.82 666.273 226.621 666.086 227.543 666.086C230.324 666.086 231.738 667.559 231.785 670.504V679H229.617V670.633C229.617 669.727 229.41 669.051 228.996 668.605C228.582 668.152 227.887 667.926 226.91 667.926C226.105 667.926 225.438 668.168 224.906 668.652C224.375 669.129 224.066 669.773 223.98 670.586V679H221.801V670.691C221.801 668.848 220.898 667.926 219.094 667.926C217.672 667.926 216.699 668.531 216.176 669.742V679H214.008V666.32H216.059ZM240.328 679.234C238.609 679.234 237.211 678.672 236.133 677.547C235.055 676.414 234.516 674.902 234.516 673.012V672.613C234.516 671.355 234.754 670.234 235.23 669.25C235.715 668.258 236.387 667.484 237.246 666.93C238.113 666.367 239.051 666.086 240.059 666.086C241.707 666.086 242.988 666.629 243.902 667.715C244.816 668.801 245.273 670.355 245.273 672.379V673.281H236.684C236.715 674.531 237.078 675.543 237.773 676.316C238.477 677.082 239.367 677.465 240.445 677.465C241.211 677.465 241.859 677.309 242.391 676.996C242.922 676.684 243.387 676.27 243.785 675.754L245.109 676.785C244.047 678.418 242.453 679.234 240.328 679.234ZM240.059 667.867C239.184 667.867 238.449 668.188 237.855 668.828C237.262 669.461 236.895 670.352 236.754 671.5H243.105V671.336C243.043 670.234 242.746 669.383 242.215 668.781C241.684 668.172 240.965 667.867 240.059 667.867ZM261.129 675.637C261.129 675.051 260.906 674.598 260.461 674.277C260.023 673.949 259.254 673.668 258.152 673.434C257.059 673.199 256.188 672.918 255.539 672.59C254.898 672.262 254.422 671.871 254.109 671.418C253.805 670.965 253.652 670.426 253.652 669.801C253.652 668.762 254.09 667.883 254.965 667.164C255.848 666.445 256.973 666.086 258.34 666.086C259.777 666.086 260.941 666.457 261.832 667.199C262.73 667.941 263.18 668.891 263.18 670.047H261C261 669.453 260.746 668.941 260.238 668.512C259.738 668.082 259.105 667.867 258.34 667.867C257.551 667.867 256.934 668.039 256.488 668.383C256.043 668.727 255.82 669.176 255.82 669.73C255.82 670.254 256.027 670.648 256.441 670.914C256.855 671.18 257.602 671.434 258.68 671.676C259.766 671.918 260.645 672.207 261.316 672.543C261.988 672.879 262.484 673.285 262.805 673.762C263.133 674.23 263.297 674.805 263.297 675.484C263.297 676.617 262.844 677.527 261.938 678.215C261.031 678.895 259.855 679.234 258.41 679.234C257.395 679.234 256.496 679.055 255.715 678.695C254.934 678.336 254.32 677.836 253.875 677.195C253.438 676.547 253.219 675.848 253.219 675.098H255.387C255.426 675.824 255.715 676.402 256.254 676.832C256.801 677.254 257.52 677.465 258.41 677.465C259.23 677.465 259.887 677.301 260.379 676.973C260.879 676.637 261.129 676.191 261.129 675.637ZM271.207 677.465C271.98 677.465 272.656 677.23 273.234 676.762C273.812 676.293 274.133 675.707 274.195 675.004H276.246C276.207 675.73 275.957 676.422 275.496 677.078C275.035 677.734 274.418 678.258 273.645 678.648C272.879 679.039 272.066 679.234 271.207 679.234C269.48 679.234 268.105 678.66 267.082 677.512C266.066 676.355 265.559 674.777 265.559 672.777V672.414C265.559 671.18 265.785 670.082 266.238 669.121C266.691 668.16 267.34 667.414 268.184 666.883C269.035 666.352 270.039 666.086 271.195 666.086C272.617 666.086 273.797 666.512 274.734 667.363C275.68 668.215 276.184 669.32 276.246 670.68H274.195C274.133 669.859 273.82 669.188 273.258 668.664C272.703 668.133 272.016 667.867 271.195 667.867C270.094 667.867 269.238 668.266 268.629 669.062C268.027 669.852 267.727 670.996 267.727 672.496V672.906C267.727 674.367 268.027 675.492 268.629 676.281C269.23 677.07 270.09 677.465 271.207 677.465ZM284.812 668.266C284.484 668.211 284.129 668.184 283.746 668.184C282.324 668.184 281.359 668.789 280.852 670V679H278.684V666.32H280.793L280.828 667.785C281.539 666.652 282.547 666.086 283.852 666.086C284.273 666.086 284.594 666.141 284.812 666.25V668.266ZM291.844 679.234C290.125 679.234 288.727 678.672 287.648 677.547C286.57 676.414 286.031 674.902 286.031 673.012V672.613C286.031 671.355 286.27 670.234 286.746 669.25C287.23 668.258 287.902 667.484 288.762 666.93C289.629 666.367 290.566 666.086 291.574 666.086C293.223 666.086 294.504 666.629 295.418 667.715C296.332 668.801 296.789 670.355 296.789 672.379V673.281H288.199C288.23 674.531 288.594 675.543 289.289 676.316C289.992 677.082 290.883 677.465 291.961 677.465C292.727 677.465 293.375 677.309 293.906 676.996C294.438 676.684 294.902 676.27 295.301 675.754L296.625 676.785C295.562 678.418 293.969 679.234 291.844 679.234ZM291.574 667.867C290.699 667.867 289.965 668.188 289.371 668.828C288.777 669.461 288.41 670.352 288.27 671.5H294.621V671.336C294.559 670.234 294.262 669.383 293.73 668.781C293.199 668.172 292.48 667.867 291.574 667.867ZM304.57 679.234C302.852 679.234 301.453 678.672 300.375 677.547C299.297 676.414 298.758 674.902 298.758 673.012V672.613C298.758 671.355 298.996 670.234 299.473 669.25C299.957 668.258 300.629 667.484 301.488 666.93C302.355 666.367 303.293 666.086 304.301 666.086C305.949 666.086 307.23 666.629 308.145 667.715C309.059 668.801 309.516 670.355 309.516 672.379V673.281H300.926C300.957 674.531 301.32 675.543 302.016 676.316C302.719 677.082 303.609 677.465 304.688 677.465C305.453 677.465 306.102 677.309 306.633 676.996C307.164 676.684 307.629 676.27 308.027 675.754L309.352 676.785C308.289 678.418 306.695 679.234 304.57 679.234ZM304.301 667.867C303.426 667.867 302.691 668.188 302.098 668.828C301.504 669.461 301.137 670.352 300.996 671.5H307.348V671.336C307.285 670.234 306.988 669.383 306.457 668.781C305.926 668.172 305.207 667.867 304.301 667.867ZM314.086 666.32L314.156 667.914C315.125 666.695 316.391 666.086 317.953 666.086C320.633 666.086 321.984 667.598 322.008 670.621V679H319.84V670.609C319.832 669.695 319.621 669.02 319.207 668.582C318.801 668.145 318.164 667.926 317.297 667.926C316.594 667.926 315.977 668.113 315.445 668.488C314.914 668.863 314.5 669.355 314.203 669.965V679H312.035V666.32H314.086Z" fill="black"/>
</g>
<rect x="0.5" y="0.5" width="376" height="813" stroke="black"/>
<defs>
<clipPath id="clip0_24_3757">
<rect x="1" y="1" width="375" height="812" fill="white"/>
</clipPath>
</defs>
</svg>
