<svg width="377" height="814" viewBox="0 0 377 814" fill="none" xmlns="http://www.w3.org/2000/svg">
<g clip-path="url(#clip0_27_3913)">
<rect x="1" y="1" width="375" height="812" fill="white"/>
<path d="M49 324C49 316.268 55.268 310 63 310H315C322.732 310 329 316.268 329 324V468C329 475.732 322.732 482 315 482H63C55.268 482 49 475.732 49 468V324Z" fill="#C4C4C4"/>
<path d="M49.5 415.295H188.5V481.5H63C55.5442 481.5 49.5 475.456 49.5 468V415.295Z" fill="#C4C4C4" stroke="#7D7D7D"/>
<path d="M105.191 456.795H108.202V450.127L114.132 439.885H110.827L106.796 447.138H106.597L102.566 439.885H99.2609L105.191 450.127V456.795ZM119.762 457.052C123.242 457.052 124.953 455.049 125.363 453.396L125.398 453.291H122.621L122.586 453.373C122.305 453.959 121.402 454.756 119.82 454.756C117.84 454.756 116.598 453.42 116.562 451.123H125.516V450.162C125.516 446.295 123.266 443.74 119.621 443.74C115.977 443.74 113.645 446.377 113.645 450.408V450.42C113.645 454.498 115.953 457.052 119.762 457.052ZM119.656 446.025C121.285 446.025 122.469 447.068 122.668 449.166H116.586C116.809 447.127 118.027 446.025 119.656 446.025ZM132.973 457.052C136.126 457.052 138.411 455.424 138.411 452.986V452.963C138.411 451.099 137.227 450.033 134.72 449.47L132.645 449.013C131.262 448.697 130.723 448.24 130.723 447.49V447.478C130.723 446.517 131.661 445.885 132.962 445.885C134.333 445.885 135.177 446.541 135.387 447.349L135.399 447.385H138.141V447.361C137.954 445.287 136.091 443.74 132.973 443.74C129.95 443.74 127.841 445.334 127.841 447.642V447.654C127.841 449.541 129.001 450.689 131.438 451.228L133.512 451.697C134.919 452.013 135.481 452.506 135.481 453.256V453.279C135.481 454.24 134.473 454.896 133.02 454.896C131.567 454.896 130.712 454.275 130.407 453.385L130.395 453.361H127.501V453.385C127.747 455.552 129.716 457.052 132.973 457.052Z" fill="black"/>
<path d="M189.5 415.295H328.5V468C328.5 475.456 322.456 481.5 315 481.5H189.5V415.295Z" fill="#C4C4C4" stroke="#7D7D7D"/>
<path d="M244.818 456.795H247.736V445.146H247.923L256.232 456.795H258.845V439.885H255.939V451.533H255.752L247.443 439.885H244.818V456.795ZM267.955 457.052C271.788 457.052 274.12 454.545 274.12 450.396V450.373C274.12 446.248 271.776 443.74 267.955 443.74C264.147 443.74 261.791 446.26 261.791 450.373V450.396C261.791 454.545 264.112 457.052 267.955 457.052ZM267.955 454.685C265.928 454.685 264.768 453.103 264.768 450.408V450.385C264.768 447.689 265.928 446.095 267.955 446.095C269.971 446.095 271.131 447.689 271.131 450.385V450.408C271.131 453.103 269.983 454.685 267.955 454.685Z" fill="black"/>
<path d="M129.502 343.41C133.439 343.41 135.959 341.395 135.959 338.16V338.148C135.959 335.641 134.505 334.211 130.955 333.449L129.115 333.039C126.923 332.57 126.033 331.75 126.033 330.496V330.484C126.033 328.891 127.498 327.965 129.478 327.965C131.529 327.953 132.853 328.961 133.076 330.344L133.099 330.496H135.642L135.63 330.332C135.443 327.707 133.099 325.68 129.513 325.68C125.927 325.68 123.396 327.695 123.384 330.613V330.625C123.384 333.121 124.861 334.715 128.295 335.441L130.146 335.84C132.384 336.32 133.298 337.164 133.298 338.465V338.477C133.298 340.047 131.763 341.125 129.607 341.125C127.345 341.125 125.716 340.141 125.576 338.605L125.564 338.477H122.986L122.998 338.629C123.232 341.477 125.681 343.41 129.502 343.41ZM143.627 343.082C144.12 343.082 144.588 343.023 144.998 342.953V340.926C144.647 340.961 144.424 340.973 144.038 340.973C142.784 340.973 142.268 340.41 142.268 339.039V332.277H144.998V330.273H142.268V327.062H139.678V330.273H137.686V332.277H139.678V339.648C139.678 342.098 140.827 343.082 143.627 343.082ZM147.663 343H150.206V335.395C150.206 333.555 151.53 332.359 153.476 332.359C153.956 332.359 154.39 332.418 154.847 332.512V330.168C154.589 330.109 154.144 330.051 153.734 330.051C152.034 330.051 150.851 330.848 150.394 332.195H150.206V330.273H147.663V343ZM161.988 343.246C165.246 343.246 167.004 341.371 167.426 339.695L167.449 339.59L165 339.602L164.953 339.695C164.648 340.352 163.676 341.16 162.047 341.16C159.949 341.16 158.613 339.742 158.566 337.305H167.59V336.414C167.59 332.594 165.41 330.027 161.859 330.027C158.309 330.027 156.012 332.688 156.012 336.66V336.672C156.012 340.703 158.262 343.246 161.988 343.246ZM161.871 332.113C163.594 332.113 164.871 333.215 165.07 335.488H158.602C158.824 333.297 160.137 332.113 161.871 332.113ZM173.805 343.211C175.493 343.211 176.829 342.484 177.579 341.195H177.778V343H180.298V334.293C180.298 331.621 178.493 330.027 175.294 330.027C172.399 330.027 170.395 331.422 170.091 333.508L170.079 333.59H172.528L172.54 333.543C172.845 332.641 173.77 332.125 175.177 332.125C176.899 332.125 177.778 332.898 177.778 334.293V335.418L174.333 335.617C171.298 335.805 169.587 337.129 169.587 339.402V339.426C169.587 341.734 171.38 343.211 173.805 343.211ZM172.118 339.32V339.297C172.118 338.148 172.915 337.516 174.673 337.41L177.778 337.211V338.301C177.778 339.941 176.384 341.184 174.485 341.184C173.114 341.184 172.118 340.492 172.118 339.32ZM183.584 343H186.127V335.184C186.127 333.52 187.263 332.207 188.798 332.207C190.298 332.207 191.248 333.121 191.248 334.574V343H193.779V334.949C193.779 333.414 194.845 332.207 196.463 332.207C198.127 332.207 198.923 333.074 198.923 334.832V343H201.455V334.223C201.455 331.574 199.955 330.027 197.388 330.027C195.619 330.027 194.154 330.93 193.509 332.301H193.31C192.748 330.93 191.517 330.027 189.783 330.027C188.119 330.027 186.877 330.836 186.314 332.23H186.127V330.273H183.584V343ZM208.479 343H211.373L217.397 326.09H214.549L210.026 339.836H209.827L205.303 326.09H202.455L208.479 343ZM223.437 343.246C225.288 343.246 226.577 342.449 227.187 341.078H227.386V343H229.917V330.273H227.386V337.738C227.386 339.789 226.296 341.066 224.257 341.066C222.394 341.066 221.62 340.023 221.62 337.914V330.273H219.077V338.512C219.077 341.523 220.566 343.246 223.437 343.246ZM240.872 328C241.739 328 242.466 327.285 242.466 326.418C242.466 325.539 241.739 324.824 240.872 324.824C239.993 324.824 239.278 325.539 239.278 326.418C239.278 327.285 239.993 328 240.872 328ZM239.595 343H242.126V330.273H239.595V343ZM250.158 343.246C253.181 343.246 255.431 341.641 255.431 339.285V339.262C255.431 337.422 254.259 336.379 251.81 335.805L249.795 335.348C248.365 335.008 247.779 334.516 247.779 333.719V333.695C247.779 332.676 248.787 331.984 250.181 331.984C251.611 331.984 252.513 332.652 252.759 333.543V333.566H255.185V333.555C254.962 331.48 253.099 330.027 250.193 330.027C247.31 330.027 245.248 331.621 245.248 333.836V333.848C245.248 335.711 246.361 336.801 248.763 337.352L250.791 337.82C252.267 338.16 252.865 338.699 252.865 339.496V339.52C252.865 340.562 251.775 341.277 250.205 341.277C248.693 341.277 247.767 340.633 247.451 339.672L247.439 339.66H244.896V339.672C245.142 341.805 247.087 343.246 250.158 343.246ZM87.7453 372H90.2883V364.395C90.2883 362.555 91.6125 361.359 93.5578 361.359C94.0383 361.359 94.4719 361.418 94.9289 361.512V359.168C94.6711 359.109 94.2258 359.051 93.8156 359.051C92.1164 359.051 90.9328 359.848 90.4758 361.195H90.2883V359.273H87.7453V372ZM102.07 372.246C105.328 372.246 107.086 370.371 107.508 368.695L107.531 368.59L105.082 368.602L105.035 368.695C104.73 369.352 103.758 370.16 102.129 370.16C100.031 370.16 98.6953 368.742 98.6484 366.305H107.672V365.414C107.672 361.594 105.492 359.027 101.941 359.027C98.3906 359.027 96.0938 361.688 96.0938 365.66V365.672C96.0938 369.703 98.3438 372.246 102.07 372.246ZM101.953 361.113C103.676 361.113 104.953 362.215 105.152 364.488H98.6836C98.9063 362.297 100.219 361.113 101.953 361.113ZM119.173 376.242H121.704V359.273H119.173V361.383H119.02C118.259 359.941 116.782 359.051 115.071 359.051C111.813 359.051 109.774 361.594 109.774 365.625V365.648C109.774 369.645 111.837 372.211 115.048 372.211C116.864 372.211 118.305 371.426 118.973 370.078H119.173V376.242ZM115.786 370.043C113.653 370.043 112.364 368.379 112.364 365.648V365.625C112.364 362.895 113.653 361.23 115.774 361.23C117.884 361.23 119.22 362.918 119.22 365.625V365.648C119.22 368.344 117.884 370.043 115.786 370.043ZM129.291 372.246C131.142 372.246 132.431 371.449 133.041 370.078H133.24V372H135.771V359.273H133.24V366.738C133.24 368.789 132.15 370.066 130.111 370.066C128.248 370.066 127.474 369.023 127.474 366.914V359.273H124.931V367.512C124.931 370.523 126.42 372.246 129.291 372.246ZM144.483 372.246C147.741 372.246 149.498 370.371 149.92 368.695L149.944 368.59L147.495 368.602L147.448 368.695C147.143 369.352 146.17 370.16 144.541 370.16C142.444 370.16 141.108 368.742 141.061 366.305H150.084V365.414C150.084 361.594 147.905 359.027 144.354 359.027C140.803 359.027 138.506 361.688 138.506 365.66V365.672C138.506 369.703 140.756 372.246 144.483 372.246ZM144.366 361.113C146.088 361.113 147.366 362.215 147.565 364.488H141.096C141.319 362.297 142.631 361.113 144.366 361.113ZM157.437 372.246C160.46 372.246 162.71 370.641 162.71 368.285V368.262C162.71 366.422 161.538 365.379 159.089 364.805L157.073 364.348C155.644 364.008 155.058 363.516 155.058 362.719V362.695C155.058 361.676 156.066 360.984 157.46 360.984C158.89 360.984 159.792 361.652 160.038 362.543V362.566H162.464V362.555C162.241 360.48 160.378 359.027 157.472 359.027C154.589 359.027 152.527 360.621 152.527 362.836V362.848C152.527 364.711 153.64 365.801 156.042 366.352L158.07 366.82C159.546 367.16 160.144 367.699 160.144 368.496V368.52C160.144 369.562 159.054 370.277 157.484 370.277C155.972 370.277 155.046 369.633 154.73 368.672L154.718 368.66H152.175V368.672C152.421 370.805 154.366 372.246 157.437 372.246ZM170.156 372.082C170.648 372.082 171.117 372.023 171.527 371.953V369.926C171.176 369.961 170.953 369.973 170.566 369.973C169.312 369.973 168.797 369.41 168.797 368.039V361.277H171.527V359.273H168.797V356.062H166.207V359.273H164.215V361.277H166.207V368.648C166.207 371.098 167.355 372.082 170.156 372.082ZM175.516 357C176.384 357 177.11 356.285 177.11 355.418C177.11 354.539 176.384 353.824 175.516 353.824C174.638 353.824 173.923 354.539 173.923 355.418C173.923 356.285 174.638 357 175.516 357ZM174.239 372H176.77V359.273H174.239V372ZM180.173 372H182.716V364.535C182.716 362.484 183.877 361.207 185.74 361.207C187.603 361.207 188.482 362.25 188.482 364.359V372H191.013V363.762C191.013 360.727 189.443 359.027 186.595 359.027C184.744 359.027 183.525 359.848 182.904 361.207H182.716V359.273H180.173V372ZM199.643 376.488C203.252 376.488 205.538 374.637 205.538 371.742V359.273H203.006V361.359H202.854C202.116 359.93 200.733 359.051 198.952 359.051C195.647 359.051 193.62 361.617 193.62 365.25V365.273C193.62 368.859 195.635 371.379 198.905 371.379C200.651 371.379 202.057 370.605 202.83 369.223H203.018V371.73C203.018 373.465 201.776 374.449 199.678 374.449C197.955 374.449 196.924 373.828 196.713 372.949L196.702 372.926H194.135L194.112 372.949C194.416 375.07 196.409 376.488 199.643 376.488ZM199.608 369.281C197.44 369.281 196.221 367.629 196.221 365.262V365.238C196.221 362.871 197.44 361.207 199.608 361.207C201.752 361.207 203.065 362.871 203.065 365.238V365.262C203.065 367.641 201.764 369.281 199.608 369.281ZM218.648 372.211C220.336 372.211 221.672 371.484 222.422 370.195H222.621V372H225.141V363.293C225.141 360.621 223.336 359.027 220.137 359.027C217.242 359.027 215.238 360.422 214.934 362.508L214.922 362.59H217.371L217.383 362.543C217.688 361.641 218.613 361.125 220.02 361.125C221.742 361.125 222.621 361.898 222.621 363.293V364.418L219.176 364.617C216.141 364.805 214.43 366.129 214.43 368.402V368.426C214.43 370.734 216.223 372.211 218.648 372.211ZM216.961 368.32V368.297C216.961 367.148 217.758 366.516 219.516 366.41L222.621 366.211V367.301C222.621 368.941 221.227 370.184 219.328 370.184C217.957 370.184 216.961 369.492 216.961 368.32ZM233.782 372.246C236.934 372.246 238.751 370.547 239.208 368.074L239.231 367.969H236.794L236.77 368.027C236.36 369.398 235.376 370.125 233.782 370.125C231.684 370.125 230.384 368.414 230.384 365.602V365.578C230.384 362.836 231.661 361.148 233.782 361.148C235.47 361.148 236.501 362.086 236.782 363.34L236.794 363.375L239.231 363.363V363.305C238.88 360.832 236.97 359.027 233.77 359.027C230.055 359.027 227.794 361.547 227.794 365.578V365.602C227.794 369.715 230.067 372.246 233.782 372.246ZM247.17 372.246C250.322 372.246 252.138 370.547 252.595 368.074L252.619 367.969H250.181L250.158 368.027C249.748 369.398 248.763 370.125 247.17 370.125C245.072 370.125 243.771 368.414 243.771 365.602V365.578C243.771 362.836 245.048 361.148 247.17 361.148C248.857 361.148 249.888 362.086 250.17 363.34L250.181 363.375L252.619 363.363V363.305C252.267 360.832 250.357 359.027 247.158 359.027C243.443 359.027 241.181 361.547 241.181 365.578V365.602C241.181 369.715 243.455 372.246 247.17 372.246ZM260.545 372.246C263.803 372.246 265.561 370.371 265.983 368.695L266.006 368.59L263.557 368.602L263.51 368.695C263.205 369.352 262.233 370.16 260.604 370.16C258.506 370.16 257.17 368.742 257.123 366.305H266.147V365.414C266.147 361.594 263.967 359.027 260.416 359.027C256.866 359.027 254.569 361.688 254.569 365.66V365.672C254.569 369.703 256.819 372.246 260.545 372.246ZM260.428 361.113C262.151 361.113 263.428 362.215 263.627 364.488H257.159C257.381 362.297 258.694 361.113 260.428 361.113ZM273.499 372.246C276.523 372.246 278.773 370.641 278.773 368.285V368.262C278.773 366.422 277.601 365.379 275.152 364.805L273.136 364.348C271.706 364.008 271.12 363.516 271.12 362.719V362.695C271.12 361.676 272.128 360.984 273.523 360.984C274.952 360.984 275.855 361.652 276.101 362.543V362.566H278.527V362.555C278.304 360.48 276.441 359.027 273.534 359.027C270.652 359.027 268.589 360.621 268.589 362.836V362.848C268.589 364.711 269.702 365.801 272.105 366.352L274.132 366.82C275.609 367.16 276.206 367.699 276.206 368.496V368.52C276.206 369.562 275.116 370.277 273.546 370.277C272.034 370.277 271.109 369.633 270.792 368.672L270.78 368.66H268.238V368.672C268.484 370.805 270.429 372.246 273.499 372.246ZM285.902 372.246C288.926 372.246 291.176 370.641 291.176 368.285V368.262C291.176 366.422 290.004 365.379 287.555 364.805L285.539 364.348C284.109 364.008 283.523 363.516 283.523 362.719V362.695C283.523 361.676 284.531 360.984 285.926 360.984C287.355 360.984 288.258 361.652 288.504 362.543V362.566H290.93V362.555C290.707 360.48 288.844 359.027 285.938 359.027C283.055 359.027 280.992 360.621 280.992 362.836V362.848C280.992 364.711 282.105 365.801 284.508 366.352L286.535 366.82C288.012 367.16 288.609 367.699 288.609 368.496V368.52C288.609 369.562 287.52 370.277 285.949 370.277C284.438 370.277 283.512 369.633 283.195 368.672L283.184 368.66H280.641V368.672C280.887 370.805 282.832 372.246 285.902 372.246ZM126.164 401.082C126.656 401.082 127.125 401.023 127.535 400.953V398.926C127.184 398.961 126.961 398.973 126.574 398.973C125.32 398.973 124.805 398.41 124.805 397.039V390.277H127.535V388.273H124.805V385.062H122.215V388.273H120.223V390.277H122.215V397.648C122.215 400.098 123.363 401.082 126.164 401.082ZM135.45 401.246C139.177 401.246 141.462 398.75 141.462 394.648V394.625C141.462 390.523 139.165 388.027 135.45 388.027C131.723 388.027 129.427 390.535 129.427 394.625V394.648C129.427 398.75 131.712 401.246 135.45 401.246ZM135.45 399.125C133.259 399.125 132.028 397.473 132.028 394.648V394.625C132.028 391.801 133.259 390.148 135.45 390.148C137.63 390.148 138.872 391.801 138.872 394.625V394.648C138.872 397.461 137.63 399.125 135.45 399.125ZM150.752 401H153.377V393.922H160.643V391.707H153.377V386.352H161.311V384.09H150.752V401ZM166.87 401.211C168.558 401.211 169.894 400.484 170.644 399.195H170.843V401H173.363V392.293C173.363 389.621 171.558 388.027 168.359 388.027C165.464 388.027 163.46 389.422 163.155 391.508L163.144 391.59H165.593L165.605 391.543C165.909 390.641 166.835 390.125 168.241 390.125C169.964 390.125 170.843 390.898 170.843 392.293V393.418L167.398 393.617C164.363 393.805 162.652 395.129 162.652 397.402V397.426C162.652 399.734 164.445 401.211 166.87 401.211ZM165.183 397.32V397.297C165.183 396.148 165.98 395.516 167.738 395.41L170.843 395.211V396.301C170.843 397.941 169.448 399.184 167.55 399.184C166.179 399.184 165.183 398.492 165.183 397.32ZM182.004 401.246C185.156 401.246 186.973 399.547 187.43 397.074L187.453 396.969H185.016L184.992 397.027C184.582 398.398 183.598 399.125 182.004 399.125C179.906 399.125 178.605 397.414 178.605 394.602V394.578C178.605 391.836 179.883 390.148 182.004 390.148C183.691 390.148 184.723 391.086 185.004 392.34L185.016 392.375L187.453 392.363V392.305C187.102 389.832 185.191 388.027 181.992 388.027C178.277 388.027 176.016 390.547 176.016 394.578V394.602C176.016 398.715 178.289 401.246 182.004 401.246ZM195.38 401.246C198.637 401.246 200.395 399.371 200.817 397.695L200.841 397.59L198.391 397.602L198.345 397.695C198.04 398.352 197.067 399.16 195.438 399.16C193.341 399.16 192.005 397.742 191.958 395.305H200.981V394.414C200.981 390.594 198.802 388.027 195.251 388.027C191.7 388.027 189.403 390.688 189.403 394.66V394.672C189.403 398.703 191.653 401.246 195.38 401.246ZM195.262 390.113C196.985 390.113 198.262 391.215 198.462 393.488H191.993C192.216 391.297 193.528 390.113 195.262 390.113ZM210.466 401.211C213.677 401.211 215.74 398.645 215.74 394.648V394.625C215.74 390.594 213.701 388.051 210.466 388.051C208.72 388.051 207.232 388.918 206.552 390.289H206.365V383.281H203.822V401H206.365V398.996H206.552C207.291 400.391 208.685 401.211 210.466 401.211ZM209.752 399.043C207.63 399.043 206.318 397.367 206.318 394.648V394.625C206.318 391.906 207.63 390.23 209.752 390.23C211.873 390.23 213.15 391.895 213.15 394.625V394.648C213.15 397.379 211.873 399.043 209.752 399.043ZM223.866 401.246C227.592 401.246 229.877 398.75 229.877 394.648V394.625C229.877 390.523 227.58 388.027 223.866 388.027C220.139 388.027 217.842 390.535 217.842 394.625V394.648C217.842 398.75 220.127 401.246 223.866 401.246ZM223.866 399.125C221.674 399.125 220.444 397.473 220.444 394.648V394.625C220.444 391.801 221.674 390.148 223.866 390.148C226.045 390.148 227.288 391.801 227.288 394.625V394.648C227.288 397.461 226.045 399.125 223.866 399.125ZM238.003 401.246C241.73 401.246 244.015 398.75 244.015 394.648V394.625C244.015 390.523 241.718 388.027 238.003 388.027C234.277 388.027 231.98 390.535 231.98 394.625V394.648C231.98 398.75 234.265 401.246 238.003 401.246ZM238.003 399.125C235.812 399.125 234.581 397.473 234.581 394.648V394.625C234.581 391.801 235.812 390.148 238.003 390.148C240.183 390.148 241.425 391.801 241.425 394.625V394.648C241.425 397.461 240.183 399.125 238.003 399.125ZM246.867 401H249.41V396.371L250.5 395.281L254.883 401H257.977L252.316 393.641L257.625 388.273H254.648L249.598 393.641H249.41V383.281H246.867V401Z" fill="black"/>
<path d="M38.2146 18.1675C35.9222 18.1675 34.2889 19.7349 34.2889 21.8809V21.8955C34.2889 23.9023 35.7098 25.3818 37.7386 25.3818C39.1888 25.3818 40.1116 24.6421 40.4998 23.8071H40.6463C40.6463 23.8877 40.639 23.9683 40.639 24.0488C40.5584 26.0703 39.8479 27.7109 38.1707 27.7109C37.2405 27.7109 36.5887 27.2275 36.3104 26.4878L36.2884 26.4146H34.428L34.4427 26.4951C34.7796 28.1138 36.2298 29.2637 38.1707 29.2637C40.8294 29.2637 42.4334 27.1543 42.4334 23.5947V23.5801C42.4334 19.7715 40.4705 18.1675 38.2146 18.1675ZM38.2073 23.9316C37.0062 23.9316 36.1346 23.0527 36.1346 21.8296V21.8149C36.1346 20.6357 37.0647 19.7056 38.2293 19.7056C39.4012 19.7056 40.3167 20.6504 40.3167 21.8589V21.8735C40.3167 23.0674 39.4012 23.9316 38.2073 23.9316ZM45.4586 22.1519C46.1324 22.1519 46.6231 21.6392 46.6231 20.9946C46.6231 20.3428 46.1324 19.8374 45.4586 19.8374C44.7921 19.8374 44.294 20.3428 44.294 20.9946C44.294 21.6392 44.7921 22.1519 45.4586 22.1519ZM45.4586 27.5864C46.1324 27.5864 46.6231 27.0811 46.6231 26.4292C46.6231 25.7773 46.1324 25.272 45.4586 25.272C44.7921 25.272 44.294 25.7773 44.294 26.4292C44.294 27.0811 44.7921 27.5864 45.4586 27.5864ZM53.6107 29H55.4198V26.9712H56.8407V25.4111H55.4198V18.4312H52.7465C51.3109 20.6138 49.8095 23.0454 48.4398 25.4258V26.9712H53.6107V29ZM50.1977 25.4551V25.3452C51.223 23.5508 52.4462 21.5952 53.5302 19.9399H53.64V25.4551H50.1977ZM60.9206 29H62.8103V18.4312H60.9279L58.1667 20.3721V22.1519L60.7961 20.2915H60.9206V29Z" fill="black"/>
<rect opacity="0.35" x="337.833" y="18.8333" width="21" height="10.3333" rx="2.16667" stroke="black"/>
<path opacity="0.4" d="M360.333 22V26C361.138 25.6612 361.661 24.8731 361.661 24C361.661 23.1269 361.138 22.3388 360.333 22Z" fill="black"/>
<rect x="339.333" y="20.3333" width="18" height="7.33333" rx="1.33333" fill="black"/>
<path fill-rule="evenodd" clip-rule="evenodd" d="M324.667 20.615C326.892 20.6151 329.031 21.4693 330.644 23.0008C330.765 23.1191 330.959 23.1176 331.079 22.9975L332.239 21.8272C332.3 21.7663 332.334 21.6837 332.333 21.5979C332.333 21.5121 332.298 21.4299 332.237 21.3697C328.005 17.3175 321.329 17.3175 317.097 21.3697C317.035 21.4299 317.001 21.512 317 21.5978C316.999 21.6837 317.033 21.7662 317.094 21.8272L318.255 22.9975C318.374 23.1178 318.568 23.1193 318.69 23.0008C320.302 21.4692 322.442 20.615 324.667 20.615ZM324.667 24.4226C325.889 24.4226 327.068 24.8765 327.974 25.6963C328.097 25.8126 328.29 25.8101 328.409 25.6906L329.569 24.5203C329.63 24.4589 329.663 24.3756 329.663 24.2891C329.662 24.2025 329.626 24.12 329.564 24.0598C326.805 21.4954 322.532 21.4954 319.773 24.0598C319.71 24.12 319.675 24.2026 319.674 24.2891C319.673 24.3757 319.707 24.459 319.768 24.5203L320.927 25.6906C321.047 25.8101 321.24 25.8126 321.362 25.6963C322.268 24.877 323.446 24.4231 324.667 24.4226ZM326.989 26.9845C326.991 27.0712 326.957 27.1549 326.895 27.2157L324.89 29.2377C324.831 29.2971 324.751 29.3306 324.667 29.3306C324.583 29.3306 324.503 29.2971 324.445 29.2377L322.439 27.2157C322.377 27.1549 322.343 27.0712 322.345 26.9844C322.347 26.8976 322.384 26.8154 322.449 26.7573C323.729 25.675 325.605 25.675 326.886 26.7573C326.95 26.8155 326.988 26.8977 326.989 26.9845Z" fill="black"/>
<path fill-rule="evenodd" clip-rule="evenodd" d="M311 18.6667H310C309.448 18.6667 309 19.1145 309 19.6667V28.3334C309 28.8857 309.448 29.3334 310 29.3334H311C311.552 29.3334 312 28.8857 312 28.3334V19.6667C312 19.1145 311.552 18.6667 311 18.6667ZM305.333 21.0001H306.333C306.886 21.0001 307.333 21.4478 307.333 22.0001V28.3334C307.333 28.8857 306.886 29.3334 306.333 29.3334H305.333C304.781 29.3334 304.333 28.8857 304.333 28.3334V22.0001C304.333 21.4478 304.781 21.0001 305.333 21.0001ZM301.667 23.3334H300.667C300.114 23.3334 299.667 23.7811 299.667 24.3334V28.3334C299.667 28.8857 300.114 29.3334 300.667 29.3334H301.667C302.219 29.3334 302.667 28.8857 302.667 28.3334V24.3334C302.667 23.7811 302.219 23.3334 301.667 23.3334ZM297 25.3334H296C295.448 25.3334 295 25.7811 295 26.3334V28.3334C295 28.8857 295.448 29.3334 296 29.3334H297C297.552 29.3334 298 28.8857 298 28.3334V26.3334C298 25.7811 297.552 25.3334 297 25.3334Z" fill="black"/>
<path d="M38.2146 18.1675C35.9222 18.1675 34.2889 19.7349 34.2889 21.8809V21.8955C34.2889 23.9023 35.7098 25.3818 37.7386 25.3818C39.1888 25.3818 40.1116 24.6421 40.4998 23.8071H40.6463C40.6463 23.8877 40.639 23.9683 40.639 24.0488C40.5584 26.0703 39.8479 27.7109 38.1707 27.7109C37.2405 27.7109 36.5887 27.2275 36.3104 26.4878L36.2884 26.4146H34.428L34.4427 26.4951C34.7796 28.1138 36.2298 29.2637 38.1707 29.2637C40.8294 29.2637 42.4334 27.1543 42.4334 23.5947V23.5801C42.4334 19.7715 40.4705 18.1675 38.2146 18.1675ZM38.2073 23.9316C37.0062 23.9316 36.1346 23.0527 36.1346 21.8296V21.8149C36.1346 20.6357 37.0647 19.7056 38.2293 19.7056C39.4012 19.7056 40.3167 20.6504 40.3167 21.8589V21.8735C40.3167 23.0674 39.4012 23.9316 38.2073 23.9316ZM45.4586 22.1519C46.1324 22.1519 46.6231 21.6392 46.6231 20.9946C46.6231 20.3428 46.1324 19.8374 45.4586 19.8374C44.7921 19.8374 44.294 20.3428 44.294 20.9946C44.294 21.6392 44.7921 22.1519 45.4586 22.1519ZM45.4586 27.5864C46.1324 27.5864 46.6231 27.0811 46.6231 26.4292C46.6231 25.7773 46.1324 25.272 45.4586 25.272C44.7921 25.272 44.294 25.7773 44.294 26.4292C44.294 27.0811 44.7921 27.5864 45.4586 27.5864ZM53.6107 29H55.4198V26.9712H56.8407V25.4111H55.4198V18.4312H52.7465C51.3109 20.6138 49.8095 23.0454 48.4398 25.4258V26.9712H53.6107V29ZM50.1977 25.4551V25.3452C51.223 23.5508 52.4462 21.5952 53.5302 19.9399H53.64V25.4551H50.1977ZM60.9206 29H62.8103V18.4312H60.9279L58.1667 20.3721V22.1519L60.7961 20.2915H60.9206V29Z" fill="black"/>
<rect opacity="0.35" x="337.833" y="18.8333" width="21" height="10.3333" rx="2.16667" stroke="black"/>
<path opacity="0.4" d="M360.333 22V26C361.138 25.6612 361.661 24.8731 361.661 24C361.661 23.1269 361.138 22.3388 360.333 22Z" fill="black"/>
<rect x="339.333" y="20.3333" width="18" height="7.33333" rx="1.33333" fill="black"/>
<path fill-rule="evenodd" clip-rule="evenodd" d="M324.667 20.615C326.892 20.6151 329.031 21.4693 330.644 23.0008C330.765 23.1191 330.959 23.1176 331.079 22.9975L332.239 21.8272C332.3 21.7663 332.334 21.6837 332.333 21.5979C332.333 21.5121 332.298 21.4299 332.237 21.3697C328.005 17.3175 321.329 17.3175 317.097 21.3697C317.035 21.4299 317.001 21.512 317 21.5978C316.999 21.6837 317.033 21.7662 317.094 21.8272L318.255 22.9975C318.374 23.1178 318.568 23.1193 318.69 23.0008C320.302 21.4692 322.442 20.615 324.667 20.615ZM324.667 24.4226C325.889 24.4226 327.068 24.8765 327.974 25.6963C328.097 25.8126 328.29 25.8101 328.409 25.6906L329.569 24.5203C329.63 24.4589 329.663 24.3756 329.663 24.2891C329.662 24.2025 329.626 24.12 329.564 24.0598C326.805 21.4954 322.532 21.4954 319.773 24.0598C319.71 24.12 319.675 24.2026 319.674 24.2891C319.673 24.3757 319.707 24.459 319.768 24.5203L320.927 25.6906C321.047 25.8101 321.24 25.8126 321.362 25.6963C322.268 24.877 323.446 24.4231 324.667 24.4226ZM326.989 26.9845C326.991 27.0712 326.957 27.1549 326.895 27.2157L324.89 29.2377C324.831 29.2971 324.751 29.3306 324.667 29.3306C324.583 29.3306 324.503 29.2971 324.445 29.2377L322.439 27.2157C322.377 27.1549 322.343 27.0712 322.345 26.9844C322.347 26.8976 322.384 26.8154 322.449 26.7573C323.729 25.675 325.605 25.675 326.886 26.7573C326.95 26.8155 326.988 26.8977 326.989 26.9845Z" fill="black"/>
<path fill-rule="evenodd" clip-rule="evenodd" d="M311 18.6667H310C309.448 18.6667 309 19.1145 309 19.6667V28.3334C309 28.8857 309.448 29.3334 310 29.3334H311C311.552 29.3334 312 28.8857 312 28.3334V19.6667C312 19.1145 311.552 18.6667 311 18.6667ZM305.333 21.0001H306.333C306.886 21.0001 307.333 21.4478 307.333 22.0001V28.3334C307.333 28.8857 306.886 29.3334 306.333 29.3334H305.333C304.781 29.3334 304.333 28.8857 304.333 28.3334V22.0001C304.333 21.4478 304.781 21.0001 305.333 21.0001ZM301.667 23.3334H300.667C300.114 23.3334 299.667 23.7811 299.667 24.3334V28.3334C299.667 28.8857 300.114 29.3334 300.667 29.3334H301.667C302.219 29.3334 302.667 28.8857 302.667 28.3334V24.3334C302.667 23.7811 302.219 23.3334 301.667 23.3334ZM297 25.3334H296C295.448 25.3334 295 25.7811 295 26.3334V28.3334C295 28.8857 295.448 29.3334 296 29.3334H297C297.552 29.3334 298 28.8857 298 28.3334V26.3334C298 25.7811 297.552 25.3334 297 25.3334Z" fill="black"/>
<rect x="1" y="778" width="375" height="35" fill="white"/>
<rect x="122" y="799" width="134" height="5" rx="2.5" fill="black"/>
<rect x="1" y="45" width="375" height="40" fill="#C4C4C4"/>
<path d="M162.442 71.0088H170.528V72.8486H160.18V55.7861H162.442V71.0088ZM185.146 64.8682C185.146 66.54 184.865 68.001 184.302 69.251C183.74 70.4932 182.943 71.4424 181.912 72.0986C180.88 72.7549 179.677 73.083 178.302 73.083C176.959 73.083 175.767 72.7549 174.728 72.0986C173.689 71.4346 172.88 70.4932 172.302 69.2744C171.732 68.0479 171.439 66.6299 171.423 65.0205V63.79C171.423 62.1494 171.709 60.7002 172.279 59.4424C172.849 58.1846 173.654 57.2236 174.693 56.5596C175.74 55.8877 176.935 55.5518 178.279 55.5518C179.646 55.5518 180.849 55.8838 181.888 56.5479C182.935 57.2041 183.74 58.1611 184.302 59.4189C184.865 60.6689 185.146 62.126 185.146 63.79V64.8682ZM182.908 63.7666C182.908 61.7432 182.502 60.1924 181.689 59.1143C180.877 58.0283 179.74 57.4854 178.279 57.4854C176.857 57.4854 175.736 58.0283 174.916 59.1143C174.103 60.1924 173.685 61.6924 173.662 63.6143V64.8682C173.662 66.8291 174.072 68.3721 174.892 69.4971C175.72 70.6143 176.857 71.1729 178.302 71.1729C179.755 71.1729 180.88 70.6455 181.677 69.5908C182.474 68.5283 182.884 67.0088 182.908 65.0322V63.7666ZM200.819 70.6104C200.241 71.4385 199.432 72.0596 198.393 72.4736C197.362 72.8799 196.159 73.083 194.784 73.083C193.393 73.083 192.159 72.7588 191.08 72.1104C190.002 71.4541 189.166 70.5244 188.573 69.3213C187.987 68.1182 187.686 66.7236 187.67 65.1377V63.6494C187.67 61.0791 188.268 59.0869 189.463 57.6729C190.666 56.2588 192.354 55.5518 194.526 55.5518C196.307 55.5518 197.741 56.0088 198.827 56.9229C199.912 57.8291 200.577 59.1182 200.819 60.79H198.569C198.147 58.5322 196.803 57.4033 194.537 57.4033C193.03 57.4033 191.885 57.9346 191.104 58.9971C190.33 60.0518 189.94 61.583 189.932 63.5908V64.9854C189.932 66.8994 190.37 68.4229 191.245 69.5557C192.12 70.6807 193.303 71.2432 194.795 71.2432C195.639 71.2432 196.377 71.1494 197.01 70.9619C197.643 70.7744 198.166 70.458 198.58 70.0127V66.1807H194.631V64.3525H200.819V70.6104ZM217.405 64.8682C217.405 66.54 217.124 68.001 216.562 69.251C215.999 70.4932 215.202 71.4424 214.171 72.0986C213.14 72.7549 211.937 73.083 210.562 73.083C209.218 73.083 208.027 72.7549 206.987 72.0986C205.948 71.4346 205.14 70.4932 204.562 69.2744C203.991 68.0479 203.698 66.6299 203.683 65.0205V63.79C203.683 62.1494 203.968 60.7002 204.538 59.4424C205.109 58.1846 205.913 57.2236 206.952 56.5596C207.999 55.8877 209.195 55.5518 210.538 55.5518C211.905 55.5518 213.109 55.8838 214.148 56.5479C215.195 57.2041 215.999 58.1611 216.562 59.4189C217.124 60.6689 217.405 62.126 217.405 63.79V64.8682ZM215.167 63.7666C215.167 61.7432 214.761 60.1924 213.948 59.1143C213.136 58.0283 211.999 57.4854 210.538 57.4854C209.116 57.4854 207.995 58.0283 207.175 59.1143C206.362 60.1924 205.945 61.6924 205.921 63.6143V64.8682C205.921 66.8291 206.331 68.3721 207.152 69.4971C207.98 70.6143 209.116 71.1729 210.562 71.1729C212.015 71.1729 213.14 70.6455 213.937 69.5908C214.734 68.5283 215.144 67.0088 215.167 65.0322V63.7666Z" fill="black"/>
<path d="M49 124L36 137.5L49 151" stroke="black" stroke-width="5"/>
<path d="M70.9336 142.321C70.5 142.942 69.8936 143.408 69.1143 143.719C68.3408 144.023 67.4385 144.176 66.4072 144.176C65.3643 144.176 64.4385 143.933 63.6299 143.446C62.8213 142.954 62.1943 142.257 61.749 141.354C61.3096 140.452 61.084 139.406 61.0723 138.217V137.101C61.0723 135.173 61.5205 133.679 62.417 132.618C63.3193 131.558 64.585 131.027 66.2139 131.027C67.5498 131.027 68.625 131.37 69.4395 132.056C70.2539 132.735 70.752 133.702 70.9336 134.956H69.2461C68.9297 133.263 67.9219 132.416 66.2227 132.416C65.0918 132.416 64.2334 132.814 63.6475 133.611C63.0674 134.402 62.7744 135.551 62.7686 137.057V138.103C62.7686 139.538 63.0967 140.681 63.7529 141.53C64.4092 142.374 65.2969 142.796 66.416 142.796C67.0488 142.796 67.6025 142.726 68.0771 142.585C68.5518 142.444 68.9443 142.207 69.2549 141.873V138.999H66.293V137.628H70.9336V142.321ZM73.0693 139.157C73.0693 138.226 73.251 137.388 73.6143 136.644C73.9834 135.899 74.4932 135.325 75.1436 134.921C75.7998 134.517 76.5469 134.314 77.3848 134.314C78.6797 134.314 79.7256 134.763 80.5225 135.659C81.3252 136.556 81.7266 137.748 81.7266 139.236V139.351C81.7266 140.276 81.5479 141.108 81.1904 141.847C80.8389 142.579 80.332 143.15 79.6699 143.561C79.0137 143.971 78.2578 144.176 77.4023 144.176C76.1133 144.176 75.0674 143.728 74.2646 142.831C73.4678 141.935 73.0693 140.748 73.0693 139.271V139.157ZM74.7041 139.351C74.7041 140.405 74.9473 141.252 75.4336 141.891C75.9258 142.529 76.582 142.849 77.4023 142.849C78.2285 142.849 78.8848 142.526 79.3711 141.882C79.8574 141.231 80.1006 140.323 80.1006 139.157C80.1006 138.114 79.8516 137.271 79.3535 136.626C78.8613 135.976 78.2051 135.65 77.3848 135.65C76.582 135.65 75.9346 135.97 75.4424 136.608C74.9502 137.247 74.7041 138.161 74.7041 139.351ZM88.4854 144V131.203H92.6689C94.0576 131.203 95.1006 131.49 95.7979 132.064C96.501 132.639 96.8525 133.488 96.8525 134.613C96.8525 135.211 96.6826 135.741 96.3428 136.204C96.0029 136.661 95.54 137.016 94.9541 137.268C95.6455 137.461 96.1904 137.83 96.5889 138.375C96.9932 138.914 97.1953 139.559 97.1953 140.309C97.1953 141.457 96.8232 142.359 96.0791 143.016C95.335 143.672 94.2832 144 92.9238 144H88.4854ZM90.1729 138.015V142.62H92.959C93.7441 142.62 94.3623 142.418 94.8135 142.014C95.2705 141.604 95.499 141.041 95.499 140.326C95.499 138.785 94.6611 138.015 92.9854 138.015H90.1729ZM90.1729 136.661H92.7217C93.46 136.661 94.0488 136.477 94.4883 136.107C94.9336 135.738 95.1562 135.237 95.1562 134.604C95.1562 133.901 94.9512 133.392 94.541 133.075C94.1309 132.753 93.5068 132.592 92.6689 132.592H90.1729V136.661ZM105.316 144C105.223 143.812 105.146 143.479 105.088 142.998C104.332 143.783 103.43 144.176 102.381 144.176C101.443 144.176 100.673 143.912 100.069 143.385C99.4717 142.852 99.1729 142.178 99.1729 141.363C99.1729 140.373 99.5479 139.605 100.298 139.061C101.054 138.51 102.114 138.234 103.479 138.234H105.062V137.487C105.062 136.919 104.892 136.468 104.552 136.134C104.212 135.794 103.711 135.624 103.049 135.624C102.469 135.624 101.982 135.771 101.59 136.063C101.197 136.356 101.001 136.711 101.001 137.127H99.3662C99.3662 136.652 99.5332 136.195 99.8672 135.756C100.207 135.311 100.664 134.959 101.238 134.701C101.818 134.443 102.454 134.314 103.146 134.314C104.241 134.314 105.1 134.59 105.721 135.141C106.342 135.686 106.664 136.438 106.688 137.399V141.776C106.688 142.649 106.799 143.344 107.021 143.859V144H105.316ZM102.618 142.761C103.128 142.761 103.611 142.629 104.068 142.365C104.525 142.102 104.856 141.759 105.062 141.337V139.386H103.787C101.795 139.386 100.799 139.969 100.799 141.135C100.799 141.645 100.969 142.043 101.309 142.33C101.648 142.617 102.085 142.761 102.618 142.761ZM113.051 142.849C113.631 142.849 114.138 142.673 114.571 142.321C115.005 141.97 115.245 141.53 115.292 141.003H116.83C116.801 141.548 116.613 142.066 116.268 142.559C115.922 143.051 115.459 143.443 114.879 143.736C114.305 144.029 113.695 144.176 113.051 144.176C111.756 144.176 110.725 143.745 109.957 142.884C109.195 142.017 108.814 140.833 108.814 139.333V139.061C108.814 138.135 108.984 137.312 109.324 136.591C109.664 135.87 110.15 135.311 110.783 134.912C111.422 134.514 112.175 134.314 113.042 134.314C114.108 134.314 114.993 134.634 115.696 135.272C116.405 135.911 116.783 136.74 116.83 137.76H115.292C115.245 137.145 115.011 136.641 114.589 136.248C114.173 135.85 113.657 135.65 113.042 135.65C112.216 135.65 111.574 135.949 111.117 136.547C110.666 137.139 110.44 137.997 110.44 139.122V139.43C110.44 140.525 110.666 141.369 111.117 141.961C111.568 142.553 112.213 142.849 113.051 142.849ZM121.312 139.597L120.293 140.66V144H118.667V130.5H120.293V138.665L121.163 137.619L124.125 134.49H126.103L122.402 138.463L126.533 144H124.626L121.312 139.597Z" fill="black"/>
</g>
<rect x="0.5" y="0.5" width="376" height="813" stroke="black"/>
<defs>
<clipPath id="clip0_27_3913">
<rect x="1" y="1" width="375" height="812" fill="white"/>
</clipPath>
</defs>
</svg>
