<svg width="377" height="814" viewBox="0 0 377 814" fill="none" xmlns="http://www.w3.org/2000/svg">
<g clip-path="url(#clip0_27_3791)">
<rect x="1" y="1" width="375" height="812" fill="white"/>
<path d="M33 360C33 352.268 39.268 346 47 346H334C341.732 346 348 352.268 348 360V485C348 492.732 341.732 499 334 499H47C39.268 499 33 492.732 33 485V360Z" fill="#C4C4C4"/>
<path d="M52.4555 392H54.6703L56.3695 387.16H63.0961L64.7953 392H67.0102L60.7758 375.09H58.6898L52.4555 392ZM59.6391 377.82H59.8266L62.475 385.367H56.9906L59.6391 377.82ZM75.6512 396.219H77.6903V390.008H77.8778C78.5692 391.355 80.0809 392.223 81.8153 392.223C85.0262 392.223 87.1121 389.656 87.1121 385.695V385.672C87.1121 381.734 85.0145 379.145 81.8153 379.145C80.0574 379.145 78.6512 379.977 77.8778 381.383H77.6903V379.367H75.6512V396.219ZM81.3465 390.418C79.0496 390.418 77.6434 388.613 77.6434 385.695V385.672C77.6434 382.754 79.0496 380.949 81.3465 380.949C83.6551 380.949 85.0262 382.73 85.0262 385.672V385.695C85.0262 388.637 83.6551 390.418 81.3465 390.418ZM93.3604 392.223C95.0596 392.223 96.3838 391.484 97.1807 390.137H97.3682V392H99.4073V383.352C99.4073 380.727 97.6846 379.145 94.6026 379.145C91.9073 379.145 89.9854 380.48 89.6573 382.461L89.6455 382.531H91.6846L91.6963 382.496C92.0244 381.512 93.0205 380.949 94.5323 380.949C96.419 380.949 97.3682 381.793 97.3682 383.352V384.5L93.7471 384.723C90.8057 384.898 89.1416 386.199 89.1416 388.449V388.473C89.1416 390.77 90.958 392.223 93.3604 392.223ZM91.2276 388.426V388.402C91.2276 387.148 92.0713 386.469 93.9932 386.352L97.3682 386.141V387.289C97.3682 389.094 95.8565 390.453 93.7823 390.453C92.3174 390.453 91.2276 389.703 91.2276 388.426ZM107.062 392.223C109.933 392.223 112.124 390.664 112.124 388.414V388.391C112.124 386.586 110.976 385.555 108.597 384.98L106.652 384.512C105.163 384.148 104.531 383.609 104.531 382.754V382.73C104.531 381.617 105.632 380.844 107.132 380.844C108.656 380.844 109.64 381.535 109.909 382.531H111.913C111.632 380.469 109.792 379.145 107.144 379.145C104.46 379.145 102.445 380.727 102.445 382.824V382.836C102.445 384.652 103.511 385.684 105.878 386.246L107.835 386.715C109.394 387.09 110.038 387.688 110.038 388.543V388.566C110.038 389.715 108.831 390.523 107.132 390.523C105.515 390.523 104.507 389.832 104.167 388.777H102.081C102.316 390.863 104.249 392.223 107.062 392.223ZM118.982 392.223C121.853 392.223 124.044 390.664 124.044 388.414V388.391C124.044 386.586 122.896 385.555 120.517 384.98L118.572 384.512C117.083 384.148 116.451 383.609 116.451 382.754V382.73C116.451 381.617 117.552 380.844 119.052 380.844C120.576 380.844 121.56 381.535 121.83 382.531H123.833C123.552 380.469 121.712 379.145 119.064 379.145C116.38 379.145 114.365 380.727 114.365 382.824V382.836C114.365 384.652 115.431 385.684 117.798 386.246L119.755 386.715C121.314 387.09 121.958 387.688 121.958 388.543V388.566C121.958 389.715 120.751 390.523 119.052 390.523C117.435 390.523 116.427 389.832 116.087 388.777H114.001C114.236 390.863 116.169 392.223 118.982 392.223ZM128.886 392H130.925L133.738 382.227H133.925L136.75 392H138.8L142.34 379.367H140.312L137.828 389.469H137.64L134.816 379.367H132.882L130.058 389.469H129.871L127.386 379.367H125.347L128.886 392ZM149.349 392.223C152.947 392.223 155.174 389.738 155.174 385.695V385.672C155.174 381.617 152.947 379.145 149.349 379.145C145.752 379.145 143.525 381.617 143.525 385.672V385.695C143.525 389.738 145.752 392.223 149.349 392.223ZM149.349 390.418C146.959 390.418 145.611 388.672 145.611 385.695V385.672C145.611 382.684 146.959 380.949 149.349 380.949C151.74 380.949 153.088 382.684 153.088 385.672V385.695C153.088 388.672 151.74 390.418 149.349 390.418ZM157.93 392H159.969V384.172C159.969 382.32 161.352 381.09 163.297 381.09C163.742 381.09 164.129 381.137 164.551 381.207V379.227C164.352 379.191 163.918 379.145 163.531 379.145C161.82 379.145 160.637 379.918 160.156 381.242H159.969V379.367H157.93V392ZM170.975 392.223C172.733 392.223 174.139 391.391 174.912 389.984H175.1V392H177.139V374.352H175.1V381.359H174.912C174.221 380.012 172.709 379.145 170.975 379.145C167.764 379.145 165.678 381.711 165.678 385.672V385.695C165.678 389.633 167.776 392.223 170.975 392.223ZM171.444 390.418C169.135 390.418 167.764 388.637 167.764 385.695V385.672C167.764 382.73 169.135 380.949 171.444 380.949C173.741 380.949 175.147 382.754 175.147 385.672V385.695C175.147 388.613 173.741 390.418 171.444 390.418ZM186.987 392H189.026V384.172C189.026 382.32 190.409 381.09 192.354 381.09C192.799 381.09 193.186 381.137 193.608 381.207V379.227C193.409 379.191 192.975 379.145 192.589 379.145C190.878 379.145 189.694 379.918 189.214 381.242H189.026V379.367H186.987V392ZM200.524 392.223C203.501 392.223 205.306 390.535 205.739 388.824L205.763 388.73H203.724L203.677 388.836C203.337 389.598 202.282 390.406 200.571 390.406C198.321 390.406 196.88 388.883 196.821 386.27H205.915V385.473C205.915 381.699 203.829 379.145 200.395 379.145C196.962 379.145 194.735 381.816 194.735 385.719V385.73C194.735 389.691 196.915 392.223 200.524 392.223ZM200.384 380.961C202.247 380.961 203.63 382.145 203.841 384.641H196.856C197.079 382.238 198.509 380.961 200.384 380.961ZM213.007 392.223C215.878 392.223 218.069 390.664 218.069 388.414V388.391C218.069 386.586 216.921 385.555 214.542 384.98L212.597 384.512C211.109 384.148 210.476 383.609 210.476 382.754V382.73C210.476 381.617 211.577 380.844 213.077 380.844C214.601 380.844 215.585 381.535 215.855 382.531H217.859C217.577 380.469 215.737 379.145 213.089 379.145C210.405 379.145 208.39 380.727 208.39 382.824V382.836C208.39 384.652 209.456 385.684 211.823 386.246L213.78 386.715C215.339 387.09 215.984 387.688 215.984 388.543V388.566C215.984 389.715 214.776 390.523 213.077 390.523C211.46 390.523 210.452 389.832 210.112 388.777H208.026C208.261 390.863 210.194 392.223 213.007 392.223ZM225.982 392.223C228.958 392.223 230.763 390.535 231.197 388.824L231.22 388.73H229.181L229.134 388.836C228.794 389.598 227.74 390.406 226.029 390.406C223.779 390.406 222.337 388.883 222.279 386.27H231.372V385.473C231.372 381.699 229.286 379.145 225.853 379.145C222.419 379.145 220.193 381.816 220.193 385.719V385.73C220.193 389.691 222.372 392.223 225.982 392.223ZM225.841 380.961C227.704 380.961 229.087 382.145 229.298 384.641H222.314C222.536 382.238 223.966 380.961 225.841 380.961ZM238.617 392.094C239.015 392.094 239.402 392.047 239.8 391.977V390.242C239.425 390.277 239.226 390.289 238.863 390.289C237.55 390.289 237.035 389.691 237.035 388.203V381.055H239.8V379.367H237.035V376.098H234.925V379.367H232.933V381.055H234.925V388.719C234.925 391.133 236.015 392.094 238.617 392.094ZM248.898 392H250.937V374.352H248.898V392ZM255.522 376.93C256.295 376.93 256.928 376.297 256.928 375.523C256.928 374.75 256.295 374.117 255.522 374.117C254.748 374.117 254.115 374.75 254.115 375.523C254.115 376.297 254.748 376.93 255.522 376.93ZM254.49 392H256.529V379.367H254.49V392ZM259.965 392H262.004V384.523C262.004 382.309 263.282 380.949 265.297 380.949C267.313 380.949 268.25 382.039 268.25 384.312V392H270.289V383.82C270.289 380.82 268.707 379.145 265.871 379.145C264.008 379.145 262.825 379.93 262.192 381.266H262.004V379.367H259.965V392ZM273.69 392H275.729V387.207L276.913 386.059L281.647 392H284.213L278.342 384.676L283.85 379.367H281.378L275.917 384.887H275.729V374.352H273.69V392ZM292.655 392H294.694V384.523C294.694 382.309 295.972 380.949 297.987 380.949C300.003 380.949 300.94 382.039 300.94 384.312V392H302.979V383.82C302.979 380.82 301.397 379.145 298.562 379.145C296.698 379.145 295.515 379.93 294.882 381.266H294.694V374.352H292.655V392ZM309.732 392.223C311.431 392.223 312.755 391.484 313.552 390.137H313.739V392H315.779V383.352C315.779 380.727 314.056 379.145 310.974 379.145C308.279 379.145 306.357 380.48 306.029 382.461L306.017 382.531H308.056L308.068 382.496C308.396 381.512 309.392 380.949 310.904 380.949C312.79 380.949 313.739 381.793 313.739 383.352V384.5L310.118 384.723C307.177 384.898 305.513 386.199 305.513 388.449V388.473C305.513 390.77 307.329 392.223 309.732 392.223ZM307.599 388.426V388.402C307.599 387.148 308.443 386.469 310.364 386.352L313.739 386.141V387.289C313.739 389.094 312.228 390.453 310.154 390.453C308.689 390.453 307.599 389.703 307.599 388.426ZM323.433 392.223C326.304 392.223 328.496 390.664 328.496 388.414V388.391C328.496 386.586 327.347 385.555 324.968 384.98L323.023 384.512C321.535 384.148 320.902 383.609 320.902 382.754V382.73C320.902 381.617 322.003 380.844 323.503 380.844C325.027 380.844 326.011 381.535 326.281 382.531H328.285C328.003 380.469 326.163 379.145 323.515 379.145C320.831 379.145 318.816 380.727 318.816 382.824V382.836C318.816 384.652 319.882 385.684 322.249 386.246L324.206 386.715C325.765 387.09 326.41 387.688 326.41 388.543V388.566C326.41 389.715 325.203 390.523 323.503 390.523C321.886 390.523 320.878 389.832 320.538 388.777H318.453C318.687 390.863 320.621 392.223 323.433 392.223ZM107.491 414.223C110.69 414.223 112.787 411.633 112.787 407.695V407.672C112.787 403.711 110.701 401.145 107.491 401.145C105.756 401.145 104.244 402.012 103.553 403.359H103.366V396.352H101.326V414H103.366V411.984H103.553C104.326 413.391 105.733 414.223 107.491 414.223ZM107.022 412.418C104.725 412.418 103.319 410.613 103.319 407.695V407.672C103.319 404.754 104.725 402.949 107.022 402.949C109.33 402.949 110.701 404.73 110.701 407.672V407.695C110.701 410.637 109.33 412.418 107.022 412.418ZM120.7 414.223C123.676 414.223 125.481 412.535 125.915 410.824L125.938 410.73H123.899L123.852 410.836C123.512 411.598 122.458 412.406 120.747 412.406C118.497 412.406 117.055 410.883 116.997 408.27H126.09V407.473C126.09 403.699 124.004 401.145 120.571 401.145C117.137 401.145 114.911 403.816 114.911 407.719V407.73C114.911 411.691 117.09 414.223 120.7 414.223ZM120.559 402.961C122.422 402.961 123.805 404.145 124.016 406.641H117.032C117.254 404.238 118.684 402.961 120.559 402.961ZM134.003 414.223C136.979 414.223 138.784 412.535 139.218 410.824L139.241 410.73H137.202L137.155 410.836C136.815 411.598 135.76 412.406 134.05 412.406C131.8 412.406 130.358 410.883 130.3 408.27H139.393V407.473C139.393 403.699 137.307 401.145 133.874 401.145C130.44 401.145 128.214 403.816 128.214 407.719V407.73C128.214 411.691 130.393 414.223 134.003 414.223ZM133.862 402.961C135.725 402.961 137.108 404.145 137.319 406.641H130.335C130.557 404.238 131.987 402.961 133.862 402.961ZM142.149 414H144.188V406.523C144.188 404.309 145.466 402.949 147.481 402.949C149.497 402.949 150.435 404.039 150.435 406.312V414H152.474V405.82C152.474 402.82 150.892 401.145 148.056 401.145C146.192 401.145 145.009 401.93 144.376 403.266H144.188V401.367H142.149V414ZM166.435 414.223C169.306 414.223 171.497 412.664 171.497 410.414V410.391C171.497 408.586 170.349 407.555 167.97 406.98L166.025 406.512C164.536 406.148 163.904 405.609 163.904 404.754V404.73C163.904 403.617 165.005 402.844 166.505 402.844C168.029 402.844 169.013 403.535 169.283 404.531H171.286C171.005 402.469 169.165 401.145 166.517 401.145C163.833 401.145 161.818 402.727 161.818 404.824V404.836C161.818 406.652 162.884 407.684 165.251 408.246L167.208 408.715C168.767 409.09 169.411 409.688 169.411 410.543V410.566C169.411 411.715 168.204 412.523 166.505 412.523C164.888 412.523 163.88 411.832 163.54 410.777H161.454C161.689 412.863 163.622 414.223 166.435 414.223ZM179.41 414.223C182.386 414.223 184.191 412.535 184.625 410.824L184.648 410.73H182.609L182.562 410.836C182.222 411.598 181.168 412.406 179.457 412.406C177.207 412.406 175.765 410.883 175.707 408.27H184.8V407.473C184.8 403.699 182.714 401.145 179.281 401.145C175.847 401.145 173.621 403.816 173.621 407.719V407.73C173.621 411.691 175.8 414.223 179.41 414.223ZM179.269 402.961C181.132 402.961 182.515 404.145 182.726 406.641H175.742C175.964 404.238 177.394 402.961 179.269 402.961ZM187.556 414H189.595V406.523C189.595 404.309 190.873 402.949 192.888 402.949C194.904 402.949 195.842 404.039 195.842 406.312V414H197.881V405.82C197.881 402.82 196.299 401.145 193.463 401.145C191.599 401.145 190.416 401.93 189.783 403.266H189.595V401.367H187.556V414ZM205.652 414.094C206.051 414.094 206.438 414.047 206.836 413.977V412.242C206.461 412.277 206.262 412.289 205.898 412.289C204.586 412.289 204.07 411.691 204.07 410.203V403.055H206.836V401.367H204.07V398.098H201.961V401.367H199.969V403.055H201.961V410.719C201.961 413.133 203.051 414.094 205.652 414.094ZM220.305 414.094C220.704 414.094 221.09 414.047 221.489 413.977V412.242C221.114 412.277 220.914 412.289 220.551 412.289C219.239 412.289 218.723 411.691 218.723 410.203V403.055H221.489V401.367H218.723V398.098H216.614V401.367H214.621V403.055H216.614V410.719C216.614 413.133 217.704 414.094 220.305 414.094ZM229.131 414.223C232.729 414.223 234.956 411.738 234.956 407.695V407.672C234.956 403.617 232.729 401.145 229.131 401.145C225.534 401.145 223.307 403.617 223.307 407.672V407.695C223.307 411.738 225.534 414.223 229.131 414.223ZM229.131 412.418C226.741 412.418 225.393 410.672 225.393 407.695V407.672C225.393 404.684 226.741 402.949 229.131 402.949C231.522 402.949 232.87 404.684 232.87 407.672V407.695C232.87 410.672 231.522 412.418 229.131 412.418ZM245.132 418.43C247.37 418.43 248.413 417.609 249.456 414.773L254.39 401.367H252.245L248.788 411.762H248.601L245.132 401.367H242.952L247.628 414.012L247.394 414.762C246.937 416.215 246.233 416.742 245.073 416.742C244.792 416.742 244.476 416.73 244.23 416.684V418.359C244.511 418.406 244.862 418.43 245.132 418.43ZM261.4 414.223C264.997 414.223 267.224 411.738 267.224 407.695V407.672C267.224 403.617 264.997 401.145 261.4 401.145C257.802 401.145 255.575 403.617 255.575 407.672V407.695C255.575 411.738 257.802 414.223 261.4 414.223ZM261.4 412.418C259.009 412.418 257.661 410.672 257.661 407.695V407.672C257.661 404.684 259.009 402.949 261.4 402.949C263.79 402.949 265.138 404.684 265.138 407.672V407.695C265.138 410.672 263.79 412.418 261.4 412.418ZM274.21 414.223C276.062 414.223 277.339 413.461 277.96 412.113H278.148V414H280.187V401.367H278.148V408.844C278.148 411.059 276.964 412.418 274.738 412.418C272.722 412.418 271.902 411.328 271.902 409.055V401.367H269.863V409.547C269.863 412.535 271.339 414.223 274.21 414.223Z" fill="black"/>
<path d="M33.5 443.5H347.5V485C347.5 492.456 341.456 498.5 334 498.5H47C39.5442 498.5 33.5 492.456 33.5 485V443.5Z" fill="#C4C4C4" stroke="black"/>
<path d="M160.49 477.299C163.188 477.299 165.192 475.796 165.614 473.476V473.458H164.014L163.996 473.476C163.601 474.935 162.256 475.84 160.49 475.84C158.046 475.84 156.517 473.845 156.517 470.672V470.654C156.517 467.481 158.046 465.478 160.481 465.478C162.23 465.478 163.583 466.506 164.005 468.132L164.014 468.149H165.605L165.614 468.132C165.236 465.697 163.153 464.019 160.481 464.019C157.035 464.019 154.891 466.567 154.891 470.654V470.672C154.891 474.75 157.044 477.299 160.49 477.299ZM171.56 477.167C174.258 477.167 175.928 475.304 175.928 472.271V472.254C175.928 469.213 174.258 467.358 171.56 467.358C168.862 467.358 167.192 469.213 167.192 472.254V472.271C167.192 475.304 168.862 477.167 171.56 477.167ZM171.56 475.813C169.767 475.813 168.756 474.504 168.756 472.271V472.254C168.756 470.013 169.767 468.712 171.56 468.712C173.353 468.712 174.364 470.013 174.364 472.254V472.271C174.364 474.504 173.353 475.813 171.56 475.813ZM177.893 477H179.423V471.393C179.423 469.731 180.381 468.712 181.892 468.712C183.404 468.712 184.107 469.529 184.107 471.234V477H185.636V470.865C185.636 468.615 184.45 467.358 182.323 467.358C180.925 467.358 180.038 467.947 179.563 468.949H179.423V467.525H177.893V477ZM191.363 477.07C191.662 477.07 191.952 477.035 192.251 476.982V475.682C191.97 475.708 191.82 475.717 191.548 475.717C190.563 475.717 190.177 475.269 190.177 474.152V468.791H192.251V467.525H190.177V465.073H188.595V467.525H187.1V468.791H188.595V474.539C188.595 476.35 189.412 477.07 191.363 477.07ZM194.937 465.697C195.517 465.697 195.991 465.223 195.991 464.643C195.991 464.062 195.517 463.588 194.937 463.588C194.357 463.588 193.882 464.062 193.882 464.643C193.882 465.223 194.357 465.697 194.937 465.697ZM194.163 477H195.692V467.525H194.163V477ZM198.167 477H199.697V471.393C199.697 469.731 200.655 468.712 202.166 468.712C203.678 468.712 204.381 469.529 204.381 471.234V477H205.91V470.865C205.91 468.615 204.724 467.358 202.597 467.358C201.2 467.358 200.312 467.947 199.837 468.949H199.697V467.525H198.167V477ZM211.444 477.167C212.833 477.167 213.791 476.596 214.256 475.585H214.397V477H215.926V467.525H214.397V473.133C214.397 474.794 213.509 475.813 211.839 475.813C210.328 475.813 209.712 474.996 209.712 473.291V467.525H208.183V473.66C208.183 475.901 209.291 477.167 211.444 477.167ZM222.242 477.167C224.474 477.167 225.828 475.901 226.153 474.618L226.171 474.548H224.641L224.606 474.627C224.351 475.198 223.56 475.805 222.277 475.805C220.59 475.805 219.509 474.662 219.465 472.702H226.285V472.104C226.285 469.274 224.72 467.358 222.145 467.358C219.57 467.358 217.9 469.362 217.9 472.289V472.298C217.9 475.269 219.535 477.167 222.242 477.167ZM222.136 468.721C223.534 468.721 224.571 469.608 224.729 471.48H219.491C219.658 469.679 220.73 468.721 222.136 468.721Z" fill="black"/>
<path d="M38.2146 18.1675C35.9222 18.1675 34.2889 19.7349 34.2889 21.8809V21.8955C34.2889 23.9023 35.7098 25.3818 37.7386 25.3818C39.1888 25.3818 40.1116 24.6421 40.4998 23.8071H40.6463C40.6463 23.8877 40.639 23.9683 40.639 24.0488C40.5584 26.0703 39.8479 27.7109 38.1707 27.7109C37.2405 27.7109 36.5887 27.2275 36.3104 26.4878L36.2884 26.4146H34.428L34.4427 26.4951C34.7796 28.1138 36.2298 29.2637 38.1707 29.2637C40.8294 29.2637 42.4334 27.1543 42.4334 23.5947V23.5801C42.4334 19.7715 40.4705 18.1675 38.2146 18.1675ZM38.2073 23.9316C37.0062 23.9316 36.1346 23.0527 36.1346 21.8296V21.8149C36.1346 20.6357 37.0647 19.7056 38.2293 19.7056C39.4012 19.7056 40.3167 20.6504 40.3167 21.8589V21.8735C40.3167 23.0674 39.4012 23.9316 38.2073 23.9316ZM45.4586 22.1519C46.1324 22.1519 46.6231 21.6392 46.6231 20.9946C46.6231 20.3428 46.1324 19.8374 45.4586 19.8374C44.7921 19.8374 44.294 20.3428 44.294 20.9946C44.294 21.6392 44.7921 22.1519 45.4586 22.1519ZM45.4586 27.5864C46.1324 27.5864 46.6231 27.0811 46.6231 26.4292C46.6231 25.7773 46.1324 25.272 45.4586 25.272C44.7921 25.272 44.294 25.7773 44.294 26.4292C44.294 27.0811 44.7921 27.5864 45.4586 27.5864ZM53.6107 29H55.4198V26.9712H56.8407V25.4111H55.4198V18.4312H52.7465C51.3109 20.6138 49.8095 23.0454 48.4398 25.4258V26.9712H53.6107V29ZM50.1977 25.4551V25.3452C51.223 23.5508 52.4462 21.5952 53.5302 19.9399H53.64V25.4551H50.1977ZM60.9206 29H62.8103V18.4312H60.9279L58.1667 20.3721V22.1519L60.7961 20.2915H60.9206V29Z" fill="black"/>
<rect opacity="0.35" x="337.833" y="18.8333" width="21" height="10.3333" rx="2.16667" stroke="black"/>
<path opacity="0.4" d="M360.333 22V26C361.138 25.6612 361.661 24.8731 361.661 24C361.661 23.1269 361.138 22.3388 360.333 22Z" fill="black"/>
<rect x="339.333" y="20.3333" width="18" height="7.33333" rx="1.33333" fill="black"/>
<path fill-rule="evenodd" clip-rule="evenodd" d="M324.667 20.615C326.892 20.6151 329.031 21.4693 330.644 23.0008C330.765 23.1191 330.959 23.1176 331.079 22.9975L332.239 21.8272C332.3 21.7663 332.334 21.6837 332.333 21.5979C332.333 21.5121 332.298 21.4299 332.237 21.3697C328.005 17.3175 321.329 17.3175 317.097 21.3697C317.035 21.4299 317.001 21.512 317 21.5978C316.999 21.6837 317.033 21.7662 317.094 21.8272L318.255 22.9975C318.374 23.1178 318.568 23.1193 318.69 23.0008C320.302 21.4692 322.442 20.615 324.667 20.615ZM324.667 24.4226C325.889 24.4226 327.068 24.8765 327.974 25.6963C328.097 25.8126 328.29 25.8101 328.409 25.6906L329.569 24.5203C329.63 24.4589 329.663 24.3756 329.663 24.2891C329.662 24.2025 329.626 24.12 329.564 24.0598C326.805 21.4954 322.532 21.4954 319.773 24.0598C319.71 24.12 319.675 24.2026 319.674 24.2891C319.673 24.3757 319.707 24.459 319.768 24.5203L320.927 25.6906C321.047 25.8101 321.24 25.8126 321.362 25.6963C322.268 24.877 323.446 24.4231 324.667 24.4226ZM326.989 26.9845C326.991 27.0712 326.957 27.1549 326.895 27.2157L324.89 29.2377C324.831 29.2971 324.751 29.3306 324.667 29.3306C324.583 29.3306 324.503 29.2971 324.445 29.2377L322.439 27.2157C322.377 27.1549 322.343 27.0712 322.345 26.9844C322.347 26.8976 322.384 26.8154 322.449 26.7573C323.729 25.675 325.605 25.675 326.886 26.7573C326.95 26.8155 326.988 26.8977 326.989 26.9845Z" fill="black"/>
<path fill-rule="evenodd" clip-rule="evenodd" d="M311 18.6667H310C309.448 18.6667 309 19.1145 309 19.6667V28.3334C309 28.8857 309.448 29.3334 310 29.3334H311C311.552 29.3334 312 28.8857 312 28.3334V19.6667C312 19.1145 311.552 18.6667 311 18.6667ZM305.333 21.0001H306.333C306.886 21.0001 307.333 21.4478 307.333 22.0001V28.3334C307.333 28.8857 306.886 29.3334 306.333 29.3334H305.333C304.781 29.3334 304.333 28.8857 304.333 28.3334V22.0001C304.333 21.4478 304.781 21.0001 305.333 21.0001ZM301.667 23.3334H300.667C300.114 23.3334 299.667 23.7811 299.667 24.3334V28.3334C299.667 28.8857 300.114 29.3334 300.667 29.3334H301.667C302.219 29.3334 302.667 28.8857 302.667 28.3334V24.3334C302.667 23.7811 302.219 23.3334 301.667 23.3334ZM297 25.3334H296C295.448 25.3334 295 25.7811 295 26.3334V28.3334C295 28.8857 295.448 29.3334 296 29.3334H297C297.552 29.3334 298 28.8857 298 28.3334V26.3334C298 25.7811 297.552 25.3334 297 25.3334Z" fill="black"/>
<rect x="1" y="779" width="375" height="35" fill="white"/>
<rect x="122" y="800" width="134" height="5" rx="2.5" fill="black"/>
<rect x="1" y="45" width="375" height="40" fill="#C4C4C4"/>
<path d="M162.442 71.0088H170.528V72.8486H160.18V55.7861H162.442V71.0088ZM185.146 64.8682C185.146 66.54 184.865 68.001 184.302 69.251C183.74 70.4932 182.943 71.4424 181.912 72.0986C180.88 72.7549 179.677 73.083 178.302 73.083C176.959 73.083 175.767 72.7549 174.728 72.0986C173.689 71.4346 172.88 70.4932 172.302 69.2744C171.732 68.0479 171.439 66.6299 171.423 65.0205V63.79C171.423 62.1494 171.709 60.7002 172.279 59.4424C172.849 58.1846 173.654 57.2236 174.693 56.5596C175.74 55.8877 176.935 55.5518 178.279 55.5518C179.646 55.5518 180.849 55.8838 181.888 56.5479C182.935 57.2041 183.74 58.1611 184.302 59.4189C184.865 60.6689 185.146 62.126 185.146 63.79V64.8682ZM182.908 63.7666C182.908 61.7432 182.502 60.1924 181.689 59.1143C180.877 58.0283 179.74 57.4854 178.279 57.4854C176.857 57.4854 175.736 58.0283 174.916 59.1143C174.103 60.1924 173.685 61.6924 173.662 63.6143V64.8682C173.662 66.8291 174.072 68.3721 174.892 69.4971C175.72 70.6143 176.857 71.1729 178.302 71.1729C179.755 71.1729 180.88 70.6455 181.677 69.5908C182.474 68.5283 182.884 67.0088 182.908 65.0322V63.7666ZM200.819 70.6104C200.241 71.4385 199.432 72.0596 198.393 72.4736C197.362 72.8799 196.159 73.083 194.784 73.083C193.393 73.083 192.159 72.7588 191.08 72.1104C190.002 71.4541 189.166 70.5244 188.573 69.3213C187.987 68.1182 187.686 66.7236 187.67 65.1377V63.6494C187.67 61.0791 188.268 59.0869 189.463 57.6729C190.666 56.2588 192.354 55.5518 194.526 55.5518C196.307 55.5518 197.741 56.0088 198.827 56.9229C199.912 57.8291 200.577 59.1182 200.819 60.79H198.569C198.147 58.5322 196.803 57.4033 194.537 57.4033C193.03 57.4033 191.885 57.9346 191.104 58.9971C190.33 60.0518 189.94 61.583 189.932 63.5908V64.9854C189.932 66.8994 190.37 68.4229 191.245 69.5557C192.12 70.6807 193.303 71.2432 194.795 71.2432C195.639 71.2432 196.377 71.1494 197.01 70.9619C197.643 70.7744 198.166 70.458 198.58 70.0127V66.1807H194.631V64.3525H200.819V70.6104ZM217.405 64.8682C217.405 66.54 217.124 68.001 216.562 69.251C215.999 70.4932 215.202 71.4424 214.171 72.0986C213.14 72.7549 211.937 73.083 210.562 73.083C209.218 73.083 208.027 72.7549 206.987 72.0986C205.948 71.4346 205.14 70.4932 204.562 69.2744C203.991 68.0479 203.698 66.6299 203.683 65.0205V63.79C203.683 62.1494 203.968 60.7002 204.538 59.4424C205.109 58.1846 205.913 57.2236 206.952 56.5596C207.999 55.8877 209.195 55.5518 210.538 55.5518C211.905 55.5518 213.109 55.8838 214.148 56.5479C215.195 57.2041 215.999 58.1611 216.562 59.4189C217.124 60.6689 217.405 62.126 217.405 63.79V64.8682ZM215.167 63.7666C215.167 61.7432 214.761 60.1924 213.948 59.1143C213.136 58.0283 211.999 57.4854 210.538 57.4854C209.116 57.4854 207.995 58.0283 207.175 59.1143C206.362 60.1924 205.945 61.6924 205.921 63.6143V64.8682C205.921 66.8291 206.331 68.3721 207.152 69.4971C207.98 70.6143 209.116 71.1729 210.562 71.1729C212.015 71.1729 213.14 70.6455 213.937 69.5908C214.734 68.5283 215.144 67.0088 215.167 65.0322V63.7666Z" fill="black"/>
<path d="M49 124L36 137.5L49 151" stroke="black" stroke-width="5"/>
<path d="M70.9424 137.628V142.312C70.7842 142.547 70.5322 142.811 70.1865 143.104C69.8408 143.391 69.3633 143.643 68.7539 143.859C68.1504 144.07 67.3711 144.176 66.416 144.176C65.6367 144.176 64.9189 144.041 64.2627 143.771C63.6123 143.496 63.0469 143.098 62.5664 142.576C62.0918 142.049 61.7227 141.41 61.459 140.66C61.2012 139.904 61.0723 139.049 61.0723 138.094V137.101C61.0723 136.146 61.1836 135.293 61.4062 134.543C61.6348 133.793 61.9688 133.157 62.4082 132.636C62.8477 132.108 63.3867 131.71 64.0254 131.44C64.6641 131.165 65.3965 131.027 66.2227 131.027C67.2012 131.027 68.0186 131.197 68.6748 131.537C69.3369 131.871 69.8525 132.334 70.2217 132.926C70.5967 133.518 70.8369 134.191 70.9424 134.947H69.2461C69.1699 134.484 69.0176 134.062 68.7891 133.682C68.5664 133.301 68.2471 132.996 67.8311 132.768C67.415 132.533 66.8789 132.416 66.2227 132.416C65.6309 132.416 65.1182 132.524 64.6846 132.741C64.251 132.958 63.8936 133.269 63.6123 133.673C63.3311 134.077 63.1201 134.566 62.9795 135.141C62.8447 135.715 62.7773 136.362 62.7773 137.083V138.094C62.7773 138.832 62.8623 139.491 63.0322 140.071C63.208 140.651 63.457 141.146 63.7793 141.557C64.1016 141.961 64.4854 142.269 64.9307 142.479C65.3818 142.69 65.8799 142.796 66.4248 142.796C67.0283 142.796 67.5176 142.746 67.8926 142.646C68.2676 142.541 68.5605 142.418 68.7715 142.277C68.9824 142.131 69.1436 141.993 69.2549 141.864V138.999H66.293V137.628H70.9424ZM73.0781 139.351V139.148C73.0781 138.463 73.1777 137.827 73.377 137.241C73.5762 136.649 73.8633 136.137 74.2383 135.703C74.6133 135.264 75.0674 134.924 75.6006 134.684C76.1338 134.438 76.7314 134.314 77.3936 134.314C78.0615 134.314 78.6621 134.438 79.1953 134.684C79.7344 134.924 80.1914 135.264 80.5664 135.703C80.9473 136.137 81.2373 136.649 81.4365 137.241C81.6357 137.827 81.7354 138.463 81.7354 139.148V139.351C81.7354 140.036 81.6357 140.672 81.4365 141.258C81.2373 141.844 80.9473 142.356 80.5664 142.796C80.1914 143.229 79.7373 143.569 79.2041 143.815C78.6768 144.056 78.0791 144.176 77.4111 144.176C76.7432 144.176 76.1426 144.056 75.6094 143.815C75.0762 143.569 74.6191 143.229 74.2383 142.796C73.8633 142.356 73.5762 141.844 73.377 141.258C73.1777 140.672 73.0781 140.036 73.0781 139.351ZM74.7041 139.148V139.351C74.7041 139.825 74.7598 140.273 74.8711 140.695C74.9824 141.111 75.1494 141.48 75.3721 141.803C75.6006 142.125 75.8848 142.38 76.2246 142.567C76.5645 142.749 76.96 142.84 77.4111 142.84C77.8564 142.84 78.2461 142.749 78.5801 142.567C78.9199 142.38 79.2012 142.125 79.4238 141.803C79.6465 141.48 79.8135 141.111 79.9248 140.695C80.042 140.273 80.1006 139.825 80.1006 139.351V139.148C80.1006 138.68 80.042 138.237 79.9248 137.821C79.8135 137.399 79.6436 137.027 79.415 136.705C79.1924 136.377 78.9111 136.119 78.5713 135.932C78.2373 135.744 77.8447 135.65 77.3936 135.65C76.9482 135.65 76.5557 135.744 76.2158 135.932C75.8818 136.119 75.6006 136.377 75.3721 136.705C75.1494 137.027 74.9824 137.399 74.8711 137.821C74.7598 138.237 74.7041 138.68 74.7041 139.148ZM93.0469 138.015H89.8037L89.7861 136.652H92.7305C93.2168 136.652 93.6416 136.57 94.0049 136.406C94.3682 136.242 94.6494 136.008 94.8486 135.703C95.0537 135.393 95.1562 135.023 95.1562 134.596C95.1562 134.127 95.0654 133.746 94.8838 133.453C94.708 133.154 94.4355 132.938 94.0664 132.803C93.7031 132.662 93.2402 132.592 92.6777 132.592H90.1816V144H88.4854V131.203H92.6777C93.334 131.203 93.9199 131.271 94.4355 131.405C94.9512 131.534 95.3877 131.739 95.7451 132.021C96.1084 132.296 96.3838 132.647 96.5713 133.075C96.7588 133.503 96.8525 134.016 96.8525 134.613C96.8525 135.141 96.7178 135.618 96.4482 136.046C96.1787 136.468 95.8037 136.813 95.3232 137.083C94.8486 137.353 94.292 137.525 93.6533 137.602L93.0469 138.015ZM92.9678 144H89.1357L90.0938 142.62H92.9678C93.5068 142.62 93.9639 142.526 94.3389 142.339C94.7197 142.151 95.0098 141.888 95.209 141.548C95.4082 141.202 95.5078 140.795 95.5078 140.326C95.5078 139.852 95.4229 139.441 95.2529 139.096C95.083 138.75 94.8164 138.483 94.4531 138.296C94.0898 138.108 93.6211 138.015 93.0469 138.015H90.6299L90.6475 136.652H93.9521L94.3125 137.145C94.9277 137.197 95.4492 137.373 95.877 137.672C96.3047 137.965 96.6299 138.34 96.8525 138.797C97.0811 139.254 97.1953 139.758 97.1953 140.309C97.1953 141.105 97.0195 141.779 96.668 142.33C96.3223 142.875 95.833 143.291 95.2002 143.578C94.5674 143.859 93.8232 144 92.9678 144ZM105.062 142.374V137.479C105.062 137.104 104.985 136.778 104.833 136.503C104.687 136.222 104.464 136.005 104.165 135.853C103.866 135.7 103.497 135.624 103.058 135.624C102.647 135.624 102.287 135.694 101.977 135.835C101.672 135.976 101.432 136.16 101.256 136.389C101.086 136.617 101.001 136.863 101.001 137.127H99.375C99.375 136.787 99.4629 136.45 99.6387 136.116C99.8145 135.782 100.066 135.48 100.395 135.211C100.729 134.936 101.127 134.719 101.59 134.561C102.059 134.396 102.58 134.314 103.154 134.314C103.846 134.314 104.455 134.432 104.982 134.666C105.516 134.9 105.932 135.255 106.23 135.729C106.535 136.198 106.688 136.787 106.688 137.496V141.926C106.688 142.242 106.714 142.579 106.767 142.937C106.825 143.294 106.91 143.602 107.021 143.859V144H105.325C105.243 143.812 105.179 143.563 105.132 143.253C105.085 142.937 105.062 142.644 105.062 142.374ZM105.343 138.234L105.36 139.377H103.717C103.254 139.377 102.841 139.415 102.478 139.491C102.114 139.562 101.81 139.67 101.563 139.816C101.317 139.963 101.13 140.147 101.001 140.37C100.872 140.587 100.808 140.842 100.808 141.135C100.808 141.434 100.875 141.706 101.01 141.952C101.145 142.198 101.347 142.395 101.616 142.541C101.892 142.682 102.229 142.752 102.627 142.752C103.125 142.752 103.564 142.646 103.945 142.436C104.326 142.225 104.628 141.967 104.851 141.662C105.079 141.357 105.202 141.062 105.22 140.774L105.914 141.557C105.873 141.803 105.762 142.075 105.58 142.374C105.398 142.673 105.155 142.96 104.851 143.235C104.552 143.505 104.194 143.73 103.778 143.912C103.368 144.088 102.905 144.176 102.39 144.176C101.745 144.176 101.18 144.05 100.693 143.798C100.213 143.546 99.8379 143.209 99.5684 142.787C99.3047 142.359 99.1729 141.882 99.1729 141.354C99.1729 140.845 99.2725 140.396 99.4717 140.01C99.6709 139.617 99.958 139.292 100.333 139.034C100.708 138.771 101.159 138.571 101.687 138.437C102.214 138.302 102.803 138.234 103.453 138.234H105.343ZM113.051 142.84C113.438 142.84 113.795 142.761 114.123 142.603C114.451 142.444 114.721 142.228 114.932 141.952C115.143 141.671 115.263 141.352 115.292 140.994H116.839C116.81 141.557 116.619 142.081 116.268 142.567C115.922 143.048 115.468 143.438 114.905 143.736C114.343 144.029 113.725 144.176 113.051 144.176C112.336 144.176 111.712 144.05 111.179 143.798C110.651 143.546 110.212 143.2 109.86 142.761C109.515 142.321 109.254 141.817 109.078 141.249C108.908 140.675 108.823 140.068 108.823 139.43V139.061C108.823 138.422 108.908 137.818 109.078 137.25C109.254 136.676 109.515 136.169 109.86 135.729C110.212 135.29 110.651 134.944 111.179 134.692C111.712 134.44 112.336 134.314 113.051 134.314C113.795 134.314 114.445 134.467 115.002 134.771C115.559 135.07 115.995 135.48 116.312 136.002C116.634 136.518 116.81 137.104 116.839 137.76H115.292C115.263 137.367 115.151 137.013 114.958 136.696C114.771 136.38 114.513 136.128 114.185 135.94C113.862 135.747 113.484 135.65 113.051 135.65C112.553 135.65 112.134 135.75 111.794 135.949C111.46 136.143 111.193 136.406 110.994 136.74C110.801 137.068 110.66 137.435 110.572 137.839C110.49 138.237 110.449 138.645 110.449 139.061V139.43C110.449 139.846 110.49 140.256 110.572 140.66C110.654 141.064 110.792 141.431 110.985 141.759C111.185 142.087 111.451 142.351 111.785 142.55C112.125 142.743 112.547 142.84 113.051 142.84ZM120.302 130.5V144H118.667V130.5H120.302ZM126.111 134.49L121.963 138.929L119.643 141.337L119.511 139.605L121.172 137.619L124.125 134.49H126.111ZM124.626 144L121.233 139.465L122.077 138.015L126.542 144H124.626Z" fill="black"/>
</g>
<rect x="0.5" y="0.5" width="376" height="813" stroke="black"/>
<defs>
<clipPath id="clip0_27_3791">
<rect x="1" y="1" width="375" height="812" fill="white"/>
</clipPath>
</defs>
</svg>
