<svg width="377" height="814" viewBox="0 0 377 814" fill="none" xmlns="http://www.w3.org/2000/svg">
<g clip-path="url(#clip0_27_3850)">
<rect x="1" y="1" width="375" height="812" fill="white"/>
<path d="M38.2146 18.1675C35.9222 18.1675 34.2889 19.7349 34.2889 21.8809V21.8955C34.2889 23.9023 35.7098 25.3818 37.7386 25.3818C39.1888 25.3818 40.1116 24.6421 40.4998 23.8071H40.6463C40.6463 23.8877 40.639 23.9683 40.639 24.0488C40.5584 26.0703 39.8479 27.7109 38.1707 27.7109C37.2405 27.7109 36.5887 27.2275 36.3104 26.4878L36.2884 26.4146H34.428L34.4427 26.4951C34.7796 28.1138 36.2298 29.2637 38.1707 29.2637C40.8294 29.2637 42.4334 27.1543 42.4334 23.5947V23.5801C42.4334 19.7715 40.4705 18.1675 38.2146 18.1675ZM38.2073 23.9316C37.0062 23.9316 36.1346 23.0527 36.1346 21.8296V21.8149C36.1346 20.6357 37.0647 19.7056 38.2293 19.7056C39.4012 19.7056 40.3167 20.6504 40.3167 21.8589V21.8735C40.3167 23.0674 39.4012 23.9316 38.2073 23.9316ZM45.4586 22.1519C46.1324 22.1519 46.6231 21.6392 46.6231 20.9946C46.6231 20.3428 46.1324 19.8374 45.4586 19.8374C44.7921 19.8374 44.294 20.3428 44.294 20.9946C44.294 21.6392 44.7921 22.1519 45.4586 22.1519ZM45.4586 27.5864C46.1324 27.5864 46.6231 27.0811 46.6231 26.4292C46.6231 25.7773 46.1324 25.272 45.4586 25.272C44.7921 25.272 44.294 25.7773 44.294 26.4292C44.294 27.0811 44.7921 27.5864 45.4586 27.5864ZM53.6107 29H55.4198V26.9712H56.8407V25.4111H55.4198V18.4312H52.7465C51.3109 20.6138 49.8095 23.0454 48.4398 25.4258V26.9712H53.6107V29ZM50.1977 25.4551V25.3452C51.223 23.5508 52.4462 21.5952 53.5302 19.9399H53.64V25.4551H50.1977ZM60.9206 29H62.8103V18.4312H60.9279L58.1667 20.3721V22.1519L60.7961 20.2915H60.9206V29Z" fill="black"/>
<rect opacity="0.35" x="337.833" y="18.8335" width="21" height="10.3333" rx="2.16667" stroke="black"/>
<path opacity="0.4" d="M360.333 22V26C361.138 25.6612 361.661 24.8731 361.661 24C361.661 23.1269 361.138 22.3388 360.333 22Z" fill="black"/>
<rect x="339.333" y="20.3335" width="18" height="7.33333" rx="1.33333" fill="black"/>
<path fill-rule="evenodd" clip-rule="evenodd" d="M324.667 20.615C326.892 20.6151 329.031 21.4693 330.644 23.0008C330.765 23.1191 330.959 23.1176 331.079 22.9975L332.239 21.8272C332.3 21.7663 332.334 21.6837 332.333 21.5979C332.333 21.5121 332.298 21.4299 332.237 21.3697C328.005 17.3175 321.329 17.3175 317.097 21.3697C317.035 21.4299 317.001 21.512 317 21.5978C316.999 21.6837 317.033 21.7662 317.094 21.8272L318.255 22.9975C318.374 23.1178 318.568 23.1193 318.69 23.0008C320.302 21.4692 322.442 20.615 324.667 20.615ZM324.667 24.4226C325.889 24.4226 327.068 24.8765 327.974 25.6963C328.097 25.8126 328.29 25.8101 328.409 25.6906L329.569 24.5203C329.63 24.4589 329.663 24.3756 329.663 24.2891C329.662 24.2025 329.626 24.12 329.564 24.0598C326.805 21.4954 322.532 21.4954 319.773 24.0598C319.71 24.12 319.675 24.2026 319.674 24.2891C319.673 24.3757 319.707 24.459 319.768 24.5203L320.927 25.6906C321.047 25.8101 321.24 25.8126 321.362 25.6963C322.268 24.877 323.446 24.4231 324.667 24.4226ZM326.989 26.9845C326.991 27.0712 326.957 27.1549 326.895 27.2157L324.89 29.2377C324.831 29.2971 324.751 29.3306 324.667 29.3306C324.583 29.3306 324.503 29.2971 324.445 29.2377L322.439 27.2157C322.377 27.1549 322.343 27.0712 322.345 26.9844C322.347 26.8976 322.384 26.8154 322.449 26.7573C323.729 25.675 325.605 25.675 326.886 26.7573C326.95 26.8155 326.988 26.8977 326.989 26.9845Z" fill="black"/>
<path fill-rule="evenodd" clip-rule="evenodd" d="M311 18.6665H310C309.448 18.6665 309 19.1142 309 19.6665V28.3332C309 28.8855 309.448 29.3332 310 29.3332H311C311.552 29.3332 312 28.8855 312 28.3332V19.6665C312 19.1142 311.552 18.6665 311 18.6665ZM305.333 20.9998H306.333C306.886 20.9998 307.333 21.4476 307.333 21.9998V28.3332C307.333 28.8855 306.886 29.3332 306.333 29.3332H305.333C304.781 29.3332 304.333 28.8855 304.333 28.3332V21.9998C304.333 21.4476 304.781 20.9998 305.333 20.9998ZM301.667 23.3332H300.667C300.114 23.3332 299.667 23.7809 299.667 24.3332V28.3332C299.667 28.8855 300.114 29.3332 300.667 29.3332H301.667C302.219 29.3332 302.667 28.8855 302.667 28.3332V24.3332C302.667 23.7809 302.219 23.3332 301.667 23.3332ZM297 25.3332H296C295.448 25.3332 295 25.7809 295 26.3332V28.3332C295 28.8855 295.448 29.3332 296 29.3332H297C297.552 29.3332 298 28.8855 298 28.3332V26.3332C298 25.7809 297.552 25.3332 297 25.3332Z" fill="black"/>
<rect x="1" y="778" width="375" height="35" fill="white"/>
<rect x="122" y="799" width="134" height="5" rx="2.5" fill="black"/>
<rect x="1" y="45" width="375" height="40" fill="#C4C4C4"/>
<path d="M162.442 71.0088H170.528V72.8486H160.18V55.7861H162.442V71.0088ZM185.146 64.8682C185.146 66.54 184.865 68.001 184.302 69.251C183.74 70.4932 182.943 71.4424 181.912 72.0986C180.88 72.7549 179.677 73.083 178.302 73.083C176.959 73.083 175.767 72.7549 174.728 72.0986C173.689 71.4346 172.88 70.4932 172.302 69.2744C171.732 68.0479 171.439 66.6299 171.423 65.0205V63.79C171.423 62.1494 171.709 60.7002 172.279 59.4424C172.849 58.1846 173.654 57.2236 174.693 56.5596C175.74 55.8877 176.935 55.5518 178.279 55.5518C179.646 55.5518 180.849 55.8838 181.888 56.5479C182.935 57.2041 183.74 58.1611 184.302 59.4189C184.865 60.6689 185.146 62.126 185.146 63.79V64.8682ZM182.908 63.7666C182.908 61.7432 182.502 60.1924 181.689 59.1143C180.877 58.0283 179.74 57.4854 178.279 57.4854C176.857 57.4854 175.736 58.0283 174.916 59.1143C174.103 60.1924 173.685 61.6924 173.662 63.6143V64.8682C173.662 66.8291 174.072 68.3721 174.892 69.4971C175.72 70.6143 176.857 71.1729 178.302 71.1729C179.755 71.1729 180.88 70.6455 181.677 69.5908C182.474 68.5283 182.884 67.0088 182.908 65.0322V63.7666ZM200.819 70.6104C200.241 71.4385 199.432 72.0596 198.393 72.4736C197.362 72.8799 196.159 73.083 194.784 73.083C193.393 73.083 192.159 72.7588 191.08 72.1104C190.002 71.4541 189.166 70.5244 188.573 69.3213C187.987 68.1182 187.686 66.7236 187.67 65.1377V63.6494C187.67 61.0791 188.268 59.0869 189.463 57.6729C190.666 56.2588 192.354 55.5518 194.526 55.5518C196.307 55.5518 197.741 56.0088 198.827 56.9229C199.912 57.8291 200.577 59.1182 200.819 60.79H198.569C198.147 58.5322 196.803 57.4033 194.537 57.4033C193.03 57.4033 191.885 57.9346 191.104 58.9971C190.33 60.0518 189.94 61.583 189.932 63.5908V64.9854C189.932 66.8994 190.37 68.4229 191.245 69.5557C192.12 70.6807 193.303 71.2432 194.795 71.2432C195.639 71.2432 196.377 71.1494 197.01 70.9619C197.643 70.7744 198.166 70.458 198.58 70.0127V66.1807H194.631V64.3525H200.819V70.6104ZM217.405 64.8682C217.405 66.54 217.124 68.001 216.562 69.251C215.999 70.4932 215.202 71.4424 214.171 72.0986C213.14 72.7549 211.937 73.083 210.562 73.083C209.218 73.083 208.027 72.7549 206.987 72.0986C205.948 71.4346 205.14 70.4932 204.562 69.2744C203.991 68.0479 203.698 66.6299 203.683 65.0205V63.79C203.683 62.1494 203.968 60.7002 204.538 59.4424C205.109 58.1846 205.913 57.2236 206.952 56.5596C207.999 55.8877 209.195 55.5518 210.538 55.5518C211.905 55.5518 213.109 55.8838 214.148 56.5479C215.195 57.2041 215.999 58.1611 216.562 59.4189C217.124 60.6689 217.405 62.126 217.405 63.79V64.8682ZM215.167 63.7666C215.167 61.7432 214.761 60.1924 213.948 59.1143C213.136 58.0283 211.999 57.4854 210.538 57.4854C209.116 57.4854 207.995 58.0283 207.175 59.1143C206.362 60.1924 205.945 61.6924 205.921 63.6143V64.8682C205.921 66.8291 206.331 68.3721 207.152 69.4971C207.98 70.6143 209.116 71.1729 210.562 71.1729C212.015 71.1729 213.14 70.6455 213.937 69.5908C214.734 68.5283 215.144 67.0088 215.167 65.0322V63.7666Z" fill="black"/>
<path d="M61.5555 506H58.0398L51.1961 494.773V506H47.6805V488.938H51.1961L58.0516 500.188V488.938H61.5555V506ZM69.9391 506.234C68.0797 506.234 66.5641 505.664 65.3922 504.523C64.2281 503.383 63.6461 501.863 63.6461 499.965V499.637C63.6461 498.363 63.8922 497.227 64.3844 496.227C64.8766 495.219 65.5719 494.445 66.4703 493.906C67.3766 493.359 68.4078 493.086 69.5641 493.086C71.2984 493.086 72.6617 493.633 73.6539 494.727C74.6539 495.82 75.1539 497.371 75.1539 499.379V500.762H67.0797C67.1891 501.59 67.5172 502.254 68.0641 502.754C68.6187 503.254 69.318 503.504 70.1617 503.504C71.4664 503.504 72.4859 503.031 73.2203 502.086L74.8844 503.949C74.3766 504.668 73.6891 505.23 72.8219 505.637C71.9547 506.035 70.9937 506.234 69.9391 506.234ZM69.5523 495.828C68.8805 495.828 68.3336 496.055 67.9117 496.508C67.4977 496.961 67.232 497.609 67.1148 498.453H71.8258V498.184C71.8102 497.434 71.607 496.855 71.2164 496.449C70.8258 496.035 70.2711 495.828 69.5523 495.828ZM87.8148 501.395L89.4789 493.32H92.7484L89.5141 506H86.6781L84.2758 498.02L81.8734 506H79.0492L75.8148 493.32H79.0844L80.7367 501.383L83.057 493.32H85.5062L87.8148 501.395ZM103.551 499.988V506H100.035V488.938H106.691C107.973 488.938 109.098 489.172 110.066 489.641C111.043 490.109 111.793 490.777 112.316 491.645C112.84 492.504 113.102 493.484 113.102 494.586C113.102 496.258 112.527 497.578 111.379 498.547C110.238 499.508 108.656 499.988 106.633 499.988H103.551ZM103.551 497.141H106.691C107.621 497.141 108.328 496.922 108.812 496.484C109.305 496.047 109.551 495.422 109.551 494.609C109.551 493.773 109.305 493.098 108.812 492.582C108.32 492.066 107.641 491.801 106.773 491.785H103.551V497.141ZM122.212 506C122.055 505.695 121.942 505.316 121.872 504.863C121.052 505.777 119.985 506.234 118.673 506.234C117.43 506.234 116.399 505.875 115.579 505.156C114.766 504.438 114.36 503.531 114.36 502.438C114.36 501.094 114.856 500.062 115.848 499.344C116.848 498.625 118.29 498.262 120.173 498.254H121.731V497.527C121.731 496.941 121.579 496.473 121.274 496.121C120.977 495.77 120.505 495.594 119.856 495.594C119.286 495.594 118.837 495.73 118.509 496.004C118.188 496.277 118.028 496.652 118.028 497.129H114.641C114.641 496.395 114.868 495.715 115.321 495.09C115.774 494.465 116.415 493.977 117.243 493.625C118.071 493.266 119.001 493.086 120.032 493.086C121.595 493.086 122.833 493.48 123.747 494.27C124.669 495.051 125.13 496.152 125.13 497.574V503.07C125.137 504.273 125.305 505.184 125.634 505.801V506H122.212ZM119.411 503.645C119.911 503.645 120.372 503.535 120.794 503.316C121.216 503.09 121.528 502.789 121.731 502.414V500.234H120.466C118.77 500.234 117.868 500.82 117.759 501.992L117.747 502.191C117.747 502.613 117.895 502.961 118.192 503.234C118.489 503.508 118.895 503.645 119.411 503.645ZM134.298 502.496C134.298 502.082 134.091 501.758 133.677 501.523C133.271 501.281 132.615 501.066 131.709 500.879C128.693 500.246 127.185 498.965 127.185 497.035C127.185 495.91 127.65 494.973 128.58 494.223C129.517 493.465 130.74 493.086 132.248 493.086C133.857 493.086 135.142 493.465 136.103 494.223C137.072 494.98 137.556 495.965 137.556 497.176H134.17C134.17 496.691 134.013 496.293 133.701 495.98C133.388 495.66 132.9 495.5 132.236 495.5C131.666 495.5 131.224 495.629 130.912 495.887C130.599 496.145 130.443 496.473 130.443 496.871C130.443 497.246 130.619 497.551 130.97 497.785C131.33 498.012 131.931 498.211 132.775 498.383C133.619 498.547 134.33 498.734 134.908 498.945C136.697 499.602 137.591 500.738 137.591 502.355C137.591 503.512 137.095 504.449 136.103 505.168C135.111 505.879 133.83 506.234 132.259 506.234C131.197 506.234 130.252 506.047 129.423 505.672C128.603 505.289 127.959 504.77 127.49 504.113C127.021 503.449 126.787 502.734 126.787 501.969H129.998C130.029 502.57 130.252 503.031 130.666 503.352C131.08 503.672 131.634 503.832 132.33 503.832C132.978 503.832 133.466 503.711 133.795 503.469C134.13 503.219 134.298 502.895 134.298 502.496ZM146.35 502.496C146.35 502.082 146.143 501.758 145.729 501.523C145.323 501.281 144.666 501.066 143.76 500.879C140.745 500.246 139.237 498.965 139.237 497.035C139.237 495.91 139.702 494.973 140.631 494.223C141.569 493.465 142.791 493.086 144.299 493.086C145.909 493.086 147.194 493.465 148.155 494.223C149.123 494.98 149.608 495.965 149.608 497.176H146.221C146.221 496.691 146.065 496.293 145.752 495.98C145.44 495.66 144.952 495.5 144.287 495.5C143.717 495.5 143.276 495.629 142.963 495.887C142.651 496.145 142.495 496.473 142.495 496.871C142.495 497.246 142.67 497.551 143.022 497.785C143.381 498.012 143.983 498.211 144.827 498.383C145.67 498.547 146.381 498.734 146.959 498.945C148.748 499.602 149.643 500.738 149.643 502.355C149.643 503.512 149.147 504.449 148.155 505.168C147.162 505.879 145.881 506.234 144.311 506.234C143.248 506.234 142.303 506.047 141.475 505.672C140.655 505.289 140.01 504.77 139.541 504.113C139.073 503.449 138.838 502.734 138.838 501.969H142.049C142.08 502.57 142.303 503.031 142.717 503.352C143.131 503.672 143.686 503.832 144.381 503.832C145.03 503.832 145.518 503.711 145.846 503.469C146.182 503.219 146.35 502.895 146.35 502.496ZM162.562 501.395L164.226 493.32H167.495L164.261 506H161.425L159.023 498.02L156.62 506H153.796L150.562 493.32H153.831L155.484 501.383L157.804 493.32H160.253L162.562 501.395ZM168.355 499.543C168.355 498.285 168.598 497.164 169.082 496.18C169.566 495.195 170.262 494.434 171.168 493.895C172.082 493.355 173.141 493.086 174.344 493.086C176.055 493.086 177.449 493.609 178.527 494.656C179.613 495.703 180.219 497.125 180.344 498.922L180.367 499.789C180.367 501.734 179.824 503.297 178.738 504.477C177.652 505.648 176.195 506.234 174.367 506.234C172.539 506.234 171.078 505.648 169.984 504.477C168.898 503.305 168.355 501.711 168.355 499.695V499.543ZM171.742 499.789C171.742 500.992 171.969 501.914 172.422 502.555C172.875 503.188 173.523 503.504 174.367 503.504C175.188 503.504 175.828 503.191 176.289 502.566C176.75 501.934 176.98 500.926 176.98 499.543C176.98 498.363 176.75 497.449 176.289 496.801C175.828 496.152 175.18 495.828 174.344 495.828C173.516 495.828 172.875 496.152 172.422 496.801C171.969 497.441 171.742 498.438 171.742 499.789ZM189.278 496.496C188.817 496.434 188.411 496.402 188.059 496.402C186.778 496.402 185.938 496.836 185.54 497.703V506H182.153V493.32H185.352L185.446 494.832C186.126 493.668 187.067 493.086 188.27 493.086C188.645 493.086 188.997 493.137 189.325 493.238L189.278 496.496ZM189.857 499.566C189.857 497.59 190.298 496.016 191.181 494.844C192.072 493.672 193.287 493.086 194.826 493.086C196.06 493.086 197.08 493.547 197.884 494.469V488H201.283V506H198.224L198.06 504.652C197.216 505.707 196.13 506.234 194.802 506.234C193.31 506.234 192.111 505.648 191.205 504.477C190.306 503.297 189.857 501.66 189.857 499.566ZM193.244 499.812C193.244 501 193.451 501.91 193.865 502.543C194.279 503.176 194.88 503.492 195.67 503.492C196.716 503.492 197.455 503.051 197.884 502.168V497.164C197.462 496.281 196.732 495.84 195.693 495.84C194.06 495.84 193.244 497.164 193.244 499.812ZM218.355 501.523C218.355 500.859 218.12 500.352 217.652 500C217.183 499.641 216.339 499.266 215.12 498.875C213.902 498.477 212.937 498.086 212.226 497.703C210.288 496.656 209.32 495.246 209.32 493.473C209.32 492.551 209.577 491.73 210.093 491.012C210.616 490.285 211.363 489.719 212.331 489.312C213.308 488.906 214.402 488.703 215.613 488.703C216.831 488.703 217.917 488.926 218.87 489.371C219.823 489.809 220.562 490.43 221.085 491.234C221.616 492.039 221.882 492.953 221.882 493.977H218.366C218.366 493.195 218.12 492.59 217.628 492.16C217.136 491.723 216.445 491.504 215.554 491.504C214.695 491.504 214.027 491.688 213.55 492.055C213.073 492.414 212.835 492.891 212.835 493.484C212.835 494.039 213.113 494.504 213.667 494.879C214.23 495.254 215.054 495.605 216.14 495.934C218.14 496.535 219.597 497.281 220.511 498.172C221.425 499.062 221.882 500.172 221.882 501.5C221.882 502.977 221.323 504.137 220.206 504.98C219.089 505.816 217.585 506.234 215.695 506.234C214.382 506.234 213.187 505.996 212.109 505.52C211.03 505.035 210.206 504.375 209.636 503.539C209.073 502.703 208.792 501.734 208.792 500.633H212.32C212.32 502.516 213.445 503.457 215.695 503.457C216.53 503.457 217.183 503.289 217.652 502.953C218.12 502.609 218.355 502.133 218.355 501.523ZM231.344 504.711C230.508 505.727 229.352 506.234 227.875 506.234C226.516 506.234 225.477 505.844 224.758 505.062C224.047 504.281 223.684 503.137 223.668 501.629V493.32H227.055V501.512C227.055 502.832 227.656 503.492 228.859 503.492C230.008 503.492 230.797 503.094 231.227 502.297V493.32H234.625V506H231.438L231.344 504.711ZM242.153 503.504C242.778 503.504 243.286 503.332 243.677 502.988C244.067 502.645 244.27 502.188 244.286 501.617H247.462C247.454 502.477 247.22 503.266 246.759 503.984C246.298 504.695 245.665 505.25 244.86 505.648C244.063 506.039 243.18 506.234 242.212 506.234C240.399 506.234 238.97 505.66 237.923 504.512C236.876 503.355 236.352 501.762 236.352 499.73V499.508C236.352 497.555 236.872 495.996 237.911 494.832C238.95 493.668 240.376 493.086 242.188 493.086C243.774 493.086 245.044 493.539 245.997 494.445C246.958 495.344 247.446 496.543 247.462 498.043H244.286C244.27 497.387 244.067 496.855 243.677 496.449C243.286 496.035 242.77 495.828 242.13 495.828C241.341 495.828 240.743 496.117 240.337 496.695C239.938 497.266 239.739 498.195 239.739 499.484V499.836C239.739 501.141 239.938 502.078 240.337 502.648C240.735 503.219 241.341 503.504 242.153 503.504ZM254.369 503.504C254.994 503.504 255.502 503.332 255.892 502.988C256.283 502.645 256.486 502.188 256.502 501.617H259.677C259.67 502.477 259.435 503.266 258.974 503.984C258.513 504.695 257.88 505.25 257.076 505.648C256.279 506.039 255.396 506.234 254.427 506.234C252.615 506.234 251.185 505.66 250.138 504.512C249.091 503.355 248.568 501.762 248.568 499.73V499.508C248.568 497.555 249.087 495.996 250.127 494.832C251.166 493.668 252.591 493.086 254.404 493.086C255.99 493.086 257.259 493.539 258.212 494.445C259.173 495.344 259.662 496.543 259.677 498.043H256.502C256.486 497.387 256.283 496.855 255.892 496.449C255.502 496.035 254.986 495.828 254.345 495.828C253.556 495.828 252.959 496.117 252.552 496.695C252.154 497.266 251.955 498.195 251.955 499.484V499.836C251.955 501.141 252.154 502.078 252.552 502.648C252.951 503.219 253.556 503.504 254.369 503.504ZM267.147 506.234C265.287 506.234 263.772 505.664 262.6 504.523C261.436 503.383 260.854 501.863 260.854 499.965V499.637C260.854 498.363 261.1 497.227 261.592 496.227C262.084 495.219 262.78 494.445 263.678 493.906C264.584 493.359 265.616 493.086 266.772 493.086C268.506 493.086 269.87 493.633 270.862 494.727C271.862 495.82 272.362 497.371 272.362 499.379V500.762H264.287C264.397 501.59 264.725 502.254 265.272 502.754C265.827 503.254 266.526 503.504 267.37 503.504C268.674 503.504 269.694 503.031 270.428 502.086L272.092 503.949C271.584 504.668 270.897 505.23 270.03 505.637C269.162 506.035 268.202 506.234 267.147 506.234ZM266.76 495.828C266.088 495.828 265.541 496.055 265.12 496.508C264.705 496.961 264.44 497.609 264.323 498.453H269.034V498.184C269.018 497.434 268.815 496.855 268.424 496.449C268.034 496.035 267.479 495.828 266.76 495.828ZM280.863 502.496C280.863 502.082 280.655 501.758 280.241 501.523C279.835 501.281 279.179 501.066 278.273 500.879C275.257 500.246 273.749 498.965 273.749 497.035C273.749 495.91 274.214 494.973 275.144 494.223C276.081 493.465 277.304 493.086 278.812 493.086C280.421 493.086 281.706 493.465 282.667 494.223C283.636 494.98 284.12 495.965 284.12 497.176H280.734C280.734 496.691 280.577 496.293 280.265 495.98C279.952 495.66 279.464 495.5 278.8 495.5C278.23 495.5 277.788 495.629 277.476 495.887C277.163 496.145 277.007 496.473 277.007 496.871C277.007 497.246 277.183 497.551 277.534 497.785C277.894 498.012 278.495 498.211 279.339 498.383C280.183 498.547 280.894 498.734 281.472 498.945C283.261 499.602 284.155 500.738 284.155 502.355C284.155 503.512 283.659 504.449 282.667 505.168C281.675 505.879 280.394 506.234 278.823 506.234C277.761 506.234 276.816 506.047 275.988 505.672C275.167 505.289 274.523 504.77 274.054 504.113C273.585 503.449 273.351 502.734 273.351 501.969H276.562C276.593 502.57 276.816 503.031 277.23 503.352C277.644 503.672 278.198 503.832 278.894 503.832C279.542 503.832 280.03 503.711 280.359 503.469C280.695 503.219 280.863 502.895 280.863 502.496ZM292.914 502.496C292.914 502.082 292.707 501.758 292.293 501.523C291.887 501.281 291.23 501.066 290.324 500.879C287.309 500.246 285.801 498.965 285.801 497.035C285.801 495.91 286.266 494.973 287.195 494.223C288.133 493.465 289.355 493.086 290.863 493.086C292.473 493.086 293.758 493.465 294.719 494.223C295.688 494.98 296.172 495.965 296.172 497.176H292.785C292.785 496.691 292.629 496.293 292.316 495.98C292.004 495.66 291.516 495.5 290.852 495.5C290.281 495.5 289.84 495.629 289.527 495.887C289.215 496.145 289.059 496.473 289.059 496.871C289.059 497.246 289.234 497.551 289.586 497.785C289.945 498.012 290.547 498.211 291.391 498.383C292.234 498.547 292.945 498.734 293.523 498.945C295.312 499.602 296.207 500.738 296.207 502.355C296.207 503.512 295.711 504.449 294.719 505.168C293.727 505.879 292.445 506.234 290.875 506.234C289.812 506.234 288.867 506.047 288.039 505.672C287.219 505.289 286.574 504.77 286.105 504.113C285.637 503.449 285.402 502.734 285.402 501.969H288.613C288.645 502.57 288.867 503.031 289.281 503.352C289.695 503.672 290.25 503.832 290.945 503.832C291.594 503.832 292.082 503.711 292.41 503.469C292.746 503.219 292.914 502.895 292.914 502.496ZM299.024 506V495.805H297.137V493.32H299.024V492.242C299.024 490.82 299.43 489.719 300.243 488.938C301.063 488.148 302.208 487.754 303.677 487.754C304.145 487.754 304.72 487.832 305.399 487.988L305.364 490.613C305.083 490.543 304.739 490.508 304.333 490.508C303.059 490.508 302.423 491.105 302.423 492.301V493.32H304.942V495.805H302.423V506H299.024ZM313.994 504.711C313.158 505.727 312.002 506.234 310.525 506.234C309.166 506.234 308.127 505.844 307.408 505.062C306.697 504.281 306.334 503.137 306.318 501.629V493.32H309.705V501.512C309.705 502.832 310.306 503.492 311.509 503.492C312.658 503.492 313.447 503.094 313.877 502.297V493.32H317.275V506H314.088L313.994 504.711ZM323.104 506H319.705V488H323.104V506ZM329.05 500.762H326.237L325.839 488.938H329.448L329.05 500.762ZM327.644 502.613C328.214 502.613 328.671 502.781 329.015 503.117C329.366 503.453 329.542 503.883 329.542 504.406C329.542 504.922 329.366 505.348 329.015 505.684C328.671 506.02 328.214 506.188 327.644 506.188C327.081 506.188 326.624 506.02 326.273 505.684C325.929 505.348 325.757 504.922 325.757 504.406C325.757 503.891 325.929 503.465 326.273 503.129C326.624 502.785 327.081 502.613 327.644 502.613Z" fill="black"/>
<path d="M114.584 517.737C114.485 519.114 113.975 520.198 113.055 520.989C112.141 521.78 110.934 522.176 109.434 522.176C107.793 522.176 106.501 521.625 105.558 520.523C104.621 519.416 104.152 517.898 104.152 515.971V515.188C104.152 513.958 104.369 512.874 104.802 511.937C105.236 510.999 105.854 510.281 106.657 509.783C107.465 509.279 108.403 509.027 109.469 509.027C110.946 509.027 112.135 509.423 113.037 510.214C113.94 511.005 114.461 512.115 114.602 513.545H111.965C111.901 512.719 111.669 512.121 111.271 511.752C110.878 511.377 110.278 511.189 109.469 511.189C108.59 511.189 107.931 511.506 107.492 512.139C107.058 512.766 106.835 513.741 106.824 515.065V516.032C106.824 517.415 107.032 518.426 107.448 519.064C107.87 519.703 108.532 520.022 109.434 520.022C110.248 520.022 110.855 519.838 111.253 519.469C111.658 519.094 111.889 518.517 111.948 517.737H114.584ZM115.453 517.157C115.453 516.214 115.635 515.373 115.998 514.635C116.362 513.896 116.883 513.325 117.563 512.921C118.248 512.517 119.042 512.314 119.945 512.314C121.228 512.314 122.274 512.707 123.082 513.492C123.897 514.277 124.351 515.344 124.445 516.691L124.462 517.342C124.462 518.801 124.055 519.973 123.24 520.857C122.426 521.736 121.333 522.176 119.962 522.176C118.591 522.176 117.495 521.736 116.675 520.857C115.861 519.979 115.453 518.783 115.453 517.271V517.157ZM117.993 517.342C117.993 518.244 118.163 518.936 118.503 519.416C118.843 519.891 119.329 520.128 119.962 520.128C120.577 520.128 121.058 519.894 121.404 519.425C121.749 518.95 121.922 518.194 121.922 517.157C121.922 516.272 121.749 515.587 121.404 515.101C121.058 514.614 120.571 514.371 119.945 514.371C119.323 514.371 118.843 514.614 118.503 515.101C118.163 515.581 117.993 516.328 117.993 517.342ZM128.064 512.49L128.144 513.589C128.823 512.739 129.734 512.314 130.877 512.314C131.885 512.314 132.635 512.61 133.127 513.202C133.619 513.794 133.871 514.679 133.883 515.856V522H131.343V515.918C131.343 515.379 131.226 514.989 130.991 514.749C130.757 514.503 130.367 514.38 129.822 514.38C129.107 514.38 128.571 514.685 128.214 515.294V522H125.674V512.49H128.064ZM138.557 510.152V512.49H140.183V514.354H138.557V519.1C138.557 519.451 138.625 519.703 138.76 519.855C138.894 520.008 139.152 520.084 139.533 520.084C139.814 520.084 140.063 520.063 140.28 520.022V521.947C139.782 522.1 139.269 522.176 138.742 522.176C136.961 522.176 136.053 521.276 136.017 519.478V514.354H134.629V512.49H136.017V510.152H138.557ZM143.979 522H141.43V512.49H143.979V522ZM141.281 510.029C141.281 509.648 141.407 509.335 141.659 509.089C141.917 508.843 142.265 508.72 142.705 508.72C143.138 508.72 143.484 508.843 143.742 509.089C144 509.335 144.129 509.648 144.129 510.029C144.129 510.416 143.997 510.732 143.733 510.979C143.475 511.225 143.132 511.348 142.705 511.348C142.277 511.348 141.931 511.225 141.668 510.979C141.41 510.732 141.281 510.416 141.281 510.029ZM148.118 512.49L148.197 513.589C148.876 512.739 149.787 512.314 150.93 512.314C151.938 512.314 152.688 512.61 153.18 513.202C153.672 513.794 153.924 514.679 153.936 515.856V522H151.396V515.918C151.396 515.379 151.279 514.989 151.044 514.749C150.81 514.503 150.42 514.38 149.875 514.38C149.161 514.38 148.624 514.685 148.267 515.294V522H145.727V512.49H148.118ZM161.265 521.033C160.638 521.795 159.771 522.176 158.663 522.176C157.644 522.176 156.864 521.883 156.325 521.297C155.792 520.711 155.52 519.853 155.508 518.722V512.49H158.048V518.634C158.048 519.624 158.499 520.119 159.402 520.119C160.263 520.119 160.855 519.82 161.177 519.223V512.49H163.726V522H161.335L161.265 521.033ZM169.719 522.176C168.324 522.176 167.188 521.748 166.309 520.893C165.436 520.037 164.999 518.897 164.999 517.474V517.228C164.999 516.272 165.184 515.42 165.553 514.67C165.922 513.914 166.443 513.334 167.117 512.93C167.797 512.52 168.57 512.314 169.438 512.314C170.738 512.314 171.761 512.725 172.505 513.545C173.255 514.365 173.63 515.528 173.63 517.034V518.071H167.574C167.656 518.692 167.902 519.19 168.312 519.565C168.729 519.94 169.253 520.128 169.886 520.128C170.864 520.128 171.629 519.773 172.18 519.064L173.428 520.462C173.047 521.001 172.531 521.423 171.881 521.728C171.23 522.026 170.51 522.176 169.719 522.176ZM169.429 514.371C168.925 514.371 168.515 514.541 168.198 514.881C167.888 515.221 167.688 515.707 167.601 516.34H171.134V516.138C171.122 515.575 170.97 515.142 170.677 514.837C170.384 514.526 169.968 514.371 169.429 514.371ZM182.004 510.152V512.49H183.629V514.354H182.004V519.1C182.004 519.451 182.071 519.703 182.206 519.855C182.34 520.008 182.598 520.084 182.979 520.084C183.26 520.084 183.509 520.063 183.726 520.022V521.947C183.228 522.1 182.715 522.176 182.188 522.176C180.407 522.176 179.499 521.276 179.463 519.478V514.354H178.075V512.49H179.463V510.152H182.004ZM184.085 517.157C184.085 516.214 184.267 515.373 184.63 514.635C184.994 513.896 185.515 513.325 186.195 512.921C186.88 512.517 187.674 512.314 188.577 512.314C189.86 512.314 190.906 512.707 191.714 513.492C192.529 514.277 192.983 515.344 193.077 516.691L193.094 517.342C193.094 518.801 192.687 519.973 191.872 520.857C191.058 521.736 189.965 522.176 188.594 522.176C187.223 522.176 186.127 521.736 185.307 520.857C184.493 519.979 184.085 518.783 184.085 517.271V517.157ZM186.625 517.342C186.625 518.244 186.795 518.936 187.135 519.416C187.475 519.891 187.961 520.128 188.594 520.128C189.209 520.128 189.69 519.894 190.036 519.425C190.381 518.95 190.554 518.194 190.554 517.157C190.554 516.272 190.381 515.587 190.036 515.101C189.69 514.614 189.204 514.371 188.577 514.371C187.955 514.371 187.475 514.614 187.135 515.101C186.795 515.581 186.625 516.328 186.625 517.342ZM205.344 518.643C205.344 518.145 205.168 517.764 204.816 517.5C204.465 517.23 203.832 516.949 202.918 516.656C202.004 516.357 201.28 516.064 200.747 515.777C199.294 514.992 198.567 513.935 198.567 512.604C198.567 511.913 198.761 511.298 199.147 510.759C199.54 510.214 200.1 509.789 200.826 509.484C201.559 509.18 202.379 509.027 203.287 509.027C204.201 509.027 205.016 509.194 205.73 509.528C206.445 509.856 206.999 510.322 207.392 510.926C207.79 511.529 207.989 512.215 207.989 512.982H205.353C205.353 512.396 205.168 511.942 204.799 511.62C204.43 511.292 203.911 511.128 203.243 511.128C202.599 511.128 202.098 511.266 201.74 511.541C201.383 511.811 201.204 512.168 201.204 512.613C201.204 513.029 201.412 513.378 201.828 513.659C202.25 513.94 202.868 514.204 203.683 514.45C205.183 514.901 206.275 515.461 206.961 516.129C207.646 516.797 207.989 517.629 207.989 518.625C207.989 519.732 207.57 520.603 206.732 521.235C205.895 521.862 204.767 522.176 203.349 522.176C202.364 522.176 201.468 521.997 200.659 521.64C199.851 521.276 199.232 520.781 198.805 520.154C198.383 519.527 198.172 518.801 198.172 517.975H200.817C200.817 519.387 201.661 520.093 203.349 520.093C203.976 520.093 204.465 519.967 204.816 519.715C205.168 519.457 205.344 519.1 205.344 518.643ZM212.356 510.152V512.49H213.982V514.354H212.356V519.1C212.356 519.451 212.424 519.703 212.558 519.855C212.693 520.008 212.951 520.084 213.332 520.084C213.613 520.084 213.862 520.063 214.079 520.022V521.947C213.581 522.1 213.068 522.176 212.541 522.176C210.76 522.176 209.851 521.276 209.816 519.478V514.354H208.428V512.49H209.816V510.152H212.356ZM220.441 514.872C220.095 514.825 219.791 514.802 219.527 514.802C218.566 514.802 217.936 515.127 217.637 515.777V522H215.097V512.49H217.497L217.567 513.624C218.077 512.751 218.783 512.314 219.685 512.314C219.966 512.314 220.23 512.353 220.476 512.429L220.441 514.872ZM225.573 522.176C224.178 522.176 223.041 521.748 222.162 520.893C221.289 520.037 220.853 518.897 220.853 517.474V517.228C220.853 516.272 221.037 515.42 221.407 514.67C221.776 513.914 222.297 513.334 222.971 512.93C223.651 512.52 224.424 512.314 225.291 512.314C226.592 512.314 227.615 512.725 228.359 513.545C229.109 514.365 229.484 515.528 229.484 517.034V518.071H223.428C223.51 518.692 223.756 519.19 224.166 519.565C224.582 519.94 225.107 520.128 225.74 520.128C226.718 520.128 227.483 519.773 228.034 519.064L229.282 520.462C228.901 521.001 228.385 521.423 227.735 521.728C227.084 522.026 226.364 522.176 225.573 522.176ZM225.283 514.371C224.779 514.371 224.369 514.541 224.052 514.881C223.742 515.221 223.542 515.707 223.454 516.34H226.988V516.138C226.976 515.575 226.824 515.142 226.531 514.837C226.238 514.526 225.822 514.371 225.283 514.371ZM236.145 522C236.028 521.771 235.943 521.487 235.89 521.147C235.275 521.833 234.475 522.176 233.49 522.176C232.559 522.176 231.785 521.906 231.17 521.367C230.561 520.828 230.256 520.148 230.256 519.328C230.256 518.32 230.628 517.547 231.372 517.008C232.122 516.469 233.203 516.196 234.615 516.19H235.784V515.646C235.784 515.206 235.67 514.854 235.442 514.591C235.219 514.327 234.864 514.195 234.378 514.195C233.95 514.195 233.613 514.298 233.367 514.503C233.127 514.708 233.007 514.989 233.007 515.347H230.467C230.467 514.796 230.637 514.286 230.977 513.817C231.317 513.349 231.797 512.982 232.418 512.719C233.039 512.449 233.737 512.314 234.51 512.314C235.682 512.314 236.611 512.61 237.296 513.202C237.987 513.788 238.333 514.614 238.333 515.681V519.803C238.339 520.705 238.465 521.388 238.711 521.851V522H236.145ZM234.044 520.233C234.419 520.233 234.765 520.151 235.081 519.987C235.398 519.817 235.632 519.592 235.784 519.311V517.676H234.835C233.564 517.676 232.887 518.115 232.805 518.994L232.796 519.144C232.796 519.46 232.907 519.721 233.13 519.926C233.353 520.131 233.657 520.233 234.044 520.233ZM242.366 512.49L242.445 513.554C243.119 512.728 244.03 512.314 245.179 512.314C246.403 512.314 247.244 512.798 247.701 513.765C248.369 512.798 249.321 512.314 250.558 512.314C251.589 512.314 252.356 512.616 252.86 513.22C253.364 513.817 253.616 514.72 253.616 515.927V522H251.067V515.936C251.067 515.396 250.962 515.004 250.751 514.758C250.54 514.506 250.168 514.38 249.635 514.38C248.873 514.38 248.346 514.743 248.053 515.47L248.062 522H245.521V515.944C245.521 515.394 245.413 514.995 245.196 514.749C244.979 514.503 244.61 514.38 244.089 514.38C243.368 514.38 242.847 514.679 242.524 515.276V522H239.984V512.49H242.366ZM260.172 518.827L263.072 509.203H266.008L261.552 522H258.801L254.362 509.203H257.289L260.172 518.827ZM272.203 521.033C271.576 521.795 270.709 522.176 269.601 522.176C268.582 522.176 267.802 521.883 267.263 521.297C266.73 520.711 266.458 519.853 266.446 518.722V512.49H268.986V518.634C268.986 519.624 269.437 520.119 270.339 520.119C271.201 520.119 271.793 519.82 272.115 519.223V512.49H274.664V522H272.273L272.203 521.033Z" fill="white"/>
<path d="M188.333 298.167C173.829 298.167 159.651 302.467 147.592 310.525C135.532 318.583 126.133 330.036 120.582 343.436C115.032 356.836 113.58 371.581 116.409 385.806C119.239 400.032 126.223 413.098 136.479 423.354C146.735 433.61 159.801 440.595 174.027 443.424C188.252 446.254 202.997 444.801 216.397 439.251C229.797 433.701 241.25 424.301 249.308 412.242C257.366 400.182 261.667 386.004 261.667 371.5C261.667 352.051 253.941 333.398 240.188 319.645C226.435 305.893 207.783 298.167 188.333 298.167ZM188.333 435.667C175.642 435.667 163.236 431.903 152.684 424.852C142.132 417.802 133.908 407.78 129.051 396.055C124.194 384.33 122.924 371.429 125.4 358.982C127.876 346.534 133.987 335.101 142.961 326.127C151.935 317.153 163.368 311.042 175.815 308.566C188.262 306.09 201.164 307.361 212.889 312.218C224.614 317.074 234.635 325.299 241.686 335.851C248.737 346.403 252.5 358.809 252.5 371.5C252.5 388.518 245.74 404.839 233.706 416.873C221.672 428.906 205.351 435.667 188.333 435.667Z" fill="black"/>
<path d="M233.906 344.46C233.047 343.606 231.886 343.127 230.675 343.127C229.464 343.127 228.302 343.606 227.444 344.46L176.569 395.106L149.069 367.606C148.23 366.7 147.066 366.165 145.832 366.117C144.599 366.07 143.397 366.515 142.492 367.354C141.586 368.192 141.051 369.356 141.003 370.59C140.956 371.823 141.401 373.025 142.24 373.931L176.569 408.168L233.906 350.968C234.336 350.542 234.677 350.035 234.909 349.477C235.142 348.918 235.262 348.319 235.262 347.714C235.262 347.109 235.142 346.51 234.909 345.951C234.677 345.393 234.336 344.886 233.906 344.46Z" fill="black"/>
<path d="M153.219 613.028C151.45 612.52 150.161 611.897 149.352 611.159C148.549 610.414 148.148 609.498 148.148 608.409C148.148 607.177 148.639 606.16 149.62 605.358C150.608 604.549 151.89 604.145 153.466 604.145C154.54 604.145 155.496 604.352 156.334 604.768C157.179 605.183 157.831 605.756 158.289 606.486C158.755 607.217 158.987 608.015 158.987 608.882H156.914C156.914 607.937 156.613 607.195 156.012 606.658C155.41 606.114 154.562 605.842 153.466 605.842C152.449 605.842 151.654 606.067 151.081 606.519C150.515 606.963 150.232 607.582 150.232 608.377C150.232 609.014 150.501 609.555 151.038 609.999C151.582 610.436 152.503 610.837 153.799 611.202C155.102 611.567 156.119 611.972 156.85 612.416C157.587 612.853 158.132 613.365 158.482 613.952C158.84 614.539 159.02 615.23 159.02 616.025C159.02 617.293 158.525 618.31 157.537 619.076C156.549 619.835 155.228 620.215 153.573 620.215C152.499 620.215 151.496 620.011 150.565 619.603C149.634 619.187 148.915 618.621 148.406 617.905C147.905 617.189 147.654 616.376 147.654 615.467H149.728C149.728 616.412 150.075 617.16 150.77 617.712C151.471 618.256 152.406 618.528 153.573 618.528C154.662 618.528 155.496 618.306 156.076 617.862C156.656 617.418 156.946 616.813 156.946 616.047C156.946 615.281 156.678 614.69 156.141 614.274C155.604 613.852 154.63 613.437 153.219 613.028ZM163.521 620H161.533V608.377H163.521V620ZM161.372 605.294C161.372 604.972 161.469 604.7 161.662 604.478C161.863 604.256 162.156 604.145 162.543 604.145C162.93 604.145 163.223 604.256 163.424 604.478C163.624 604.7 163.725 604.972 163.725 605.294C163.725 605.616 163.624 605.885 163.424 606.1C163.223 606.314 162.93 606.422 162.543 606.422C162.156 606.422 161.863 606.314 161.662 606.1C161.469 605.885 161.372 605.616 161.372 605.294ZM169.407 605.562V608.377H171.577V609.913H169.407V617.121C169.407 617.587 169.504 617.938 169.697 618.174C169.891 618.403 170.22 618.518 170.686 618.518C170.915 618.518 171.23 618.475 171.631 618.389V620C171.108 620.143 170.6 620.215 170.105 620.215C169.217 620.215 168.548 619.946 168.097 619.409C167.646 618.872 167.42 618.109 167.42 617.121V609.913H165.304V608.377H167.42V605.562H169.407ZM182.062 605.562V608.377H184.231V609.913H182.062V617.121C182.062 617.587 182.158 617.938 182.352 618.174C182.545 618.403 182.874 618.518 183.34 618.518C183.569 618.518 183.884 618.475 184.285 618.389V620C183.762 620.143 183.254 620.215 182.76 620.215C181.872 620.215 181.202 619.946 180.751 619.409C180.3 618.872 180.074 618.109 180.074 617.121V609.913H177.958V608.377H180.074V605.562H182.062ZM188.722 620H186.734V608.377H188.722V620ZM186.573 605.294C186.573 604.972 186.67 604.7 186.863 604.478C187.064 604.256 187.357 604.145 187.744 604.145C188.131 604.145 188.424 604.256 188.625 604.478C188.826 604.7 188.926 604.972 188.926 605.294C188.926 605.616 188.826 605.885 188.625 606.1C188.424 606.314 188.131 606.422 187.744 606.422C187.357 606.422 187.064 606.314 186.863 606.1C186.67 605.885 186.573 605.616 186.573 605.294ZM191.439 614.092C191.439 612.28 191.858 610.84 192.696 609.773C193.534 608.699 194.644 608.162 196.026 608.162C197.444 608.162 198.551 608.663 199.346 609.666L199.442 608.377H201.258V619.721C201.258 621.225 200.81 622.41 199.915 623.276C199.027 624.143 197.831 624.576 196.327 624.576C195.489 624.576 194.669 624.397 193.867 624.039C193.065 623.681 192.453 623.19 192.03 622.567L193.062 621.375C193.914 622.428 194.956 622.954 196.188 622.954C197.154 622.954 197.906 622.682 198.443 622.138C198.988 621.593 199.26 620.827 199.26 619.839V618.84C198.465 619.757 197.38 620.215 196.005 620.215C194.644 620.215 193.541 619.667 192.696 618.571C191.858 617.476 191.439 615.982 191.439 614.092ZM193.438 614.317C193.438 615.628 193.706 616.659 194.243 617.411C194.78 618.156 195.532 618.528 196.499 618.528C197.752 618.528 198.673 617.959 199.26 616.82V611.514C198.651 610.404 197.738 609.849 196.521 609.849C195.554 609.849 194.798 610.225 194.254 610.977C193.71 611.729 193.438 612.842 193.438 614.317ZM206.253 609.784C207.134 608.703 208.28 608.162 209.69 608.162C212.147 608.162 213.386 609.548 213.407 612.319V620H211.42V612.309C211.413 611.471 211.219 610.851 210.84 610.45C210.467 610.049 209.884 609.849 209.089 609.849C208.444 609.849 207.879 610.021 207.392 610.364C206.905 610.708 206.525 611.159 206.253 611.718V620H204.266V603.5H206.253V609.784ZM219.079 605.562V608.377H221.249V609.913H219.079V617.121C219.079 617.587 219.176 617.938 219.369 618.174C219.562 618.403 219.892 618.518 220.357 618.518C220.587 618.518 220.902 618.475 221.303 618.389V620C220.78 620.143 220.271 620.215 219.777 620.215C218.889 620.215 218.22 619.946 217.769 619.409C217.317 618.872 217.092 618.109 217.092 617.121V609.913H214.976V608.377H217.092V605.562H219.079ZM225.804 615.585H224.01L223.87 604.359H225.954L225.804 615.585ZM223.795 619.001C223.795 618.679 223.892 618.41 224.085 618.195C224.285 617.973 224.579 617.862 224.966 617.862C225.353 617.862 225.646 617.973 225.847 618.195C226.047 618.41 226.147 618.679 226.147 619.001C226.147 619.323 226.047 619.592 225.847 619.807C225.646 620.014 225.353 620.118 224.966 620.118C224.579 620.118 224.285 620.014 224.085 619.807C223.892 619.592 223.795 619.323 223.795 619.001ZM106.823 638.212L110.905 630.359H113.247L107.854 640.167V646H105.792V640.167L100.399 630.359H102.763L106.823 638.212ZM113.72 640.081C113.72 638.942 113.942 637.918 114.386 637.009C114.837 636.099 115.46 635.397 116.255 634.903C117.057 634.409 117.97 634.162 118.994 634.162C120.577 634.162 121.855 634.71 122.829 635.806C123.81 636.901 124.301 638.359 124.301 640.178V640.317C124.301 641.449 124.082 642.466 123.646 643.368C123.216 644.263 122.596 644.962 121.787 645.463C120.985 645.964 120.061 646.215 119.016 646.215C117.44 646.215 116.162 645.667 115.181 644.571C114.207 643.476 113.72 642.025 113.72 640.221V640.081ZM115.718 640.317C115.718 641.606 116.015 642.641 116.609 643.422C117.211 644.202 118.013 644.593 119.016 644.593C120.025 644.593 120.827 644.199 121.422 643.411C122.016 642.616 122.313 641.506 122.313 640.081C122.313 638.806 122.009 637.775 121.4 636.987C120.799 636.192 119.997 635.795 118.994 635.795C118.013 635.795 117.222 636.185 116.62 636.966C116.019 637.746 115.718 638.864 115.718 640.317ZM133.969 644.851C133.195 645.76 132.06 646.215 130.563 646.215C129.325 646.215 128.379 645.857 127.728 645.141C127.083 644.417 126.757 643.35 126.75 641.939V634.377H128.737V641.886C128.737 643.647 129.453 644.528 130.886 644.528C132.404 644.528 133.414 643.963 133.915 642.831V634.377H135.902V646H134.012L133.969 644.851ZM151.564 646C151.45 645.771 151.357 645.363 151.285 644.775C150.361 645.735 149.258 646.215 147.977 646.215C146.831 646.215 145.889 645.893 145.151 645.248C144.421 644.596 144.056 643.773 144.056 642.777C144.056 641.567 144.514 640.629 145.431 639.963C146.354 639.29 147.651 638.953 149.319 638.953H151.253V638.04C151.253 637.345 151.045 636.794 150.63 636.386C150.215 635.97 149.602 635.763 148.793 635.763C148.084 635.763 147.49 635.942 147.01 636.3C146.53 636.658 146.29 637.091 146.29 637.6H144.292C144.292 637.02 144.496 636.461 144.904 635.924C145.32 635.38 145.878 634.95 146.58 634.635C147.289 634.32 148.066 634.162 148.911 634.162C150.25 634.162 151.299 634.499 152.059 635.172C152.818 635.838 153.212 636.758 153.24 637.933V643.282C153.24 644.349 153.376 645.198 153.648 645.828V646H151.564ZM148.267 644.485C148.89 644.485 149.48 644.324 150.039 644.002C150.598 643.68 151.002 643.261 151.253 642.745V640.36H149.695C147.26 640.36 146.043 641.073 146.043 642.498C146.043 643.121 146.251 643.608 146.666 643.959C147.081 644.31 147.615 644.485 148.267 644.485ZM161.974 636.16C161.673 636.11 161.347 636.085 160.996 636.085C159.693 636.085 158.808 636.64 158.343 637.75V646H156.355V634.377H158.289L158.321 635.72C158.973 634.681 159.897 634.162 161.093 634.162C161.479 634.162 161.773 634.212 161.974 634.312V636.16ZM168.419 646.215C166.843 646.215 165.562 645.699 164.573 644.668C163.585 643.63 163.091 642.244 163.091 640.511V640.146C163.091 638.993 163.309 637.965 163.746 637.062C164.19 636.153 164.806 635.444 165.594 634.936C166.389 634.42 167.248 634.162 168.172 634.162C169.683 634.162 170.857 634.66 171.695 635.655C172.533 636.651 172.952 638.076 172.952 639.931V640.758H165.078C165.107 641.904 165.44 642.831 166.077 643.54C166.722 644.242 167.538 644.593 168.526 644.593C169.228 644.593 169.823 644.45 170.31 644.163C170.797 643.877 171.223 643.497 171.588 643.024L172.802 643.97C171.828 645.466 170.367 646.215 168.419 646.215ZM168.172 635.795C167.37 635.795 166.697 636.089 166.152 636.676C165.608 637.256 165.271 638.072 165.143 639.125H170.965V638.975C170.908 637.965 170.635 637.184 170.148 636.633C169.661 636.074 169.003 635.795 168.172 635.795ZM182.599 634.377L182.663 635.838C183.551 634.721 184.711 634.162 186.144 634.162C188.6 634.162 189.839 635.548 189.86 638.319V646H187.873V638.309C187.866 637.471 187.673 636.851 187.293 636.45C186.921 636.049 186.337 635.849 185.542 635.849C184.897 635.849 184.332 636.021 183.845 636.364C183.358 636.708 182.978 637.159 182.706 637.718V646H180.719V634.377H182.599ZM192.331 640.081C192.331 638.942 192.553 637.918 192.997 637.009C193.448 636.099 194.071 635.397 194.866 634.903C195.668 634.409 196.581 634.162 197.605 634.162C199.188 634.162 200.466 634.71 201.44 635.806C202.422 636.901 202.912 638.359 202.912 640.178V640.317C202.912 641.449 202.694 642.466 202.257 643.368C201.827 644.263 201.208 644.962 200.398 645.463C199.596 645.964 198.673 646.215 197.627 646.215C196.051 646.215 194.773 645.667 193.792 644.571C192.818 643.476 192.331 642.025 192.331 640.221V640.081ZM194.329 640.317C194.329 641.606 194.626 642.641 195.221 643.422C195.822 644.202 196.624 644.593 197.627 644.593C198.637 644.593 199.439 644.199 200.033 643.411C200.628 642.616 200.925 641.506 200.925 640.081C200.925 638.806 200.62 637.775 200.012 636.987C199.41 636.192 198.608 635.795 197.605 635.795C196.624 635.795 195.833 636.185 195.231 636.966C194.63 637.746 194.329 638.864 194.329 640.317ZM215.695 643.261L217.93 634.377H219.917L216.533 646H214.922L212.097 637.191L209.347 646H207.735L204.362 634.377H206.339L208.627 643.078L211.334 634.377H212.935L215.695 643.261ZM237.244 640.317C237.244 642.093 236.836 643.522 236.02 644.604C235.203 645.678 234.107 646.215 232.732 646.215C231.264 646.215 230.129 645.696 229.327 644.657L229.23 646H227.404V629.5H229.392V635.655C230.194 634.66 231.3 634.162 232.711 634.162C234.122 634.162 235.228 634.696 236.03 635.763C236.84 636.83 237.244 638.291 237.244 640.146V640.317ZM235.257 640.092C235.257 638.738 234.995 637.693 234.473 636.955C233.95 636.217 233.198 635.849 232.217 635.849C230.906 635.849 229.965 636.457 229.392 637.675V642.702C230 643.92 230.949 644.528 232.238 644.528C233.191 644.528 233.932 644.16 234.462 643.422C234.992 642.684 235.257 641.574 235.257 640.092ZM244.581 646.215C243.006 646.215 241.724 645.699 240.735 644.668C239.747 643.63 239.253 642.244 239.253 640.511V640.146C239.253 638.993 239.471 637.965 239.908 637.062C240.352 636.153 240.968 635.444 241.756 634.936C242.551 634.42 243.41 634.162 244.334 634.162C245.845 634.162 247.02 634.66 247.857 635.655C248.695 636.651 249.114 638.076 249.114 639.931V640.758H241.24C241.269 641.904 241.602 642.831 242.239 643.54C242.884 644.242 243.7 644.593 244.688 644.593C245.39 644.593 245.985 644.45 246.472 644.163C246.959 643.877 247.385 643.497 247.75 643.024L248.964 643.97C247.99 645.466 246.529 646.215 244.581 646.215ZM244.334 635.795C243.532 635.795 242.859 636.089 242.314 636.676C241.77 637.256 241.434 638.072 241.305 639.125H247.127V638.975C247.07 637.965 246.798 637.184 246.311 636.633C245.824 636.074 245.165 635.795 244.334 635.795ZM253.583 646H251.596V634.377H253.583V646ZM251.435 631.294C251.435 630.972 251.531 630.7 251.725 630.478C251.925 630.256 252.219 630.145 252.605 630.145C252.992 630.145 253.286 630.256 253.486 630.478C253.687 630.7 253.787 630.972 253.787 631.294C253.787 631.616 253.687 631.885 253.486 632.1C253.286 632.314 252.992 632.422 252.605 632.422C252.219 632.422 251.925 632.314 251.725 632.1C251.531 631.885 251.435 631.616 251.435 631.294ZM258.653 634.377L258.718 635.838C259.606 634.721 260.766 634.162 262.198 634.162C264.655 634.162 265.894 635.548 265.915 638.319V646H263.928V638.309C263.921 637.471 263.727 636.851 263.348 636.45C262.975 636.049 262.392 635.849 261.597 635.849C260.952 635.849 260.386 636.021 259.899 636.364C259.412 636.708 259.033 637.159 258.761 637.718V646H256.773V634.377H258.653ZM268.439 640.092C268.439 638.28 268.858 636.84 269.696 635.773C270.534 634.699 271.644 634.162 273.026 634.162C274.444 634.162 275.551 634.663 276.346 635.666L276.442 634.377H278.258V645.721C278.258 647.225 277.81 648.41 276.915 649.276C276.027 650.143 274.831 650.576 273.327 650.576C272.489 650.576 271.669 650.397 270.867 650.039C270.065 649.681 269.453 649.19 269.03 648.567L270.062 647.375C270.914 648.428 271.956 648.954 273.188 648.954C274.154 648.954 274.906 648.682 275.443 648.138C275.988 647.593 276.26 646.827 276.26 645.839V644.84C275.465 645.757 274.38 646.215 273.005 646.215C271.644 646.215 270.541 645.667 269.696 644.571C268.858 643.476 268.439 641.982 268.439 640.092ZM270.438 640.317C270.438 641.628 270.706 642.659 271.243 643.411C271.78 644.156 272.532 644.528 273.499 644.528C274.752 644.528 275.673 643.959 276.26 642.82V637.514C275.651 636.404 274.738 635.849 273.521 635.849C272.554 635.849 271.798 636.225 271.254 636.977C270.71 637.729 270.438 638.842 270.438 640.317ZM20.2627 662.16C19.9619 662.11 19.6361 662.085 19.2852 662.085C17.9818 662.085 17.0973 662.64 16.6318 663.75V672H14.6445V660.377H16.5781L16.6104 661.72C17.262 660.681 18.1859 660.162 19.3818 660.162C19.7686 660.162 20.0622 660.212 20.2627 660.312V662.16ZM26.708 672.215C25.1325 672.215 23.8506 671.699 22.8623 670.668C21.874 669.63 21.3799 668.244 21.3799 666.511V666.146C21.3799 664.993 21.5983 663.965 22.0352 663.062C22.4792 662.153 23.0951 661.444 23.8828 660.936C24.6777 660.42 25.5371 660.162 26.4609 660.162C27.972 660.162 29.1465 660.66 29.9844 661.655C30.8223 662.651 31.2412 664.076 31.2412 665.931V666.758H23.3672C23.3958 667.904 23.7288 668.831 24.3662 669.54C25.0107 670.242 25.8271 670.593 26.8154 670.593C27.5173 670.593 28.1117 670.45 28.5986 670.163C29.0856 669.877 29.5117 669.497 29.877 669.024L31.0908 669.97C30.1169 671.466 28.6559 672.215 26.708 672.215ZM26.4609 661.795C25.6589 661.795 24.9857 662.089 24.4414 662.676C23.8971 663.256 23.5605 664.072 23.4316 665.125H29.2539V664.975C29.1966 663.965 28.9245 663.184 28.4375 662.633C27.9505 662.074 27.2917 661.795 26.4609 661.795ZM33.0674 666.092C33.0674 664.309 33.4899 662.876 34.335 661.795C35.18 660.706 36.2865 660.162 37.6543 660.162C39.015 660.162 40.0928 660.628 40.8877 661.559V655.5H42.875V672H41.0488L40.9521 670.754C40.1572 671.728 39.0508 672.215 37.6328 672.215C36.2865 672.215 35.1872 671.663 34.335 670.561C33.4899 669.458 33.0674 668.018 33.0674 666.242V666.092ZM35.0547 666.317C35.0547 667.635 35.3268 668.666 35.8711 669.411C36.4154 670.156 37.1673 670.528 38.127 670.528C39.3874 670.528 40.3076 669.963 40.8877 668.831V663.492C40.2933 662.396 39.3802 661.849 38.1484 661.849C37.1745 661.849 36.4154 662.225 35.8711 662.977C35.3268 663.729 35.0547 664.842 35.0547 666.317ZM48.1279 672H46.1406V660.377H48.1279V672ZM45.9795 657.294C45.9795 656.972 46.0762 656.7 46.2695 656.478C46.4701 656.256 46.7637 656.145 47.1504 656.145C47.5371 656.145 47.8307 656.256 48.0312 656.478C48.2318 656.7 48.332 656.972 48.332 657.294C48.332 657.616 48.2318 657.885 48.0312 658.1C47.8307 658.314 47.5371 658.422 47.1504 658.422C46.7637 658.422 46.4701 658.314 46.2695 658.1C46.0762 657.885 45.9795 657.616 45.9795 657.294ZM56.9365 662.16C56.6357 662.11 56.3099 662.085 55.959 662.085C54.6556 662.085 53.7712 662.64 53.3057 663.75V672H51.3184V660.377H53.252L53.2842 661.72C53.9359 660.681 54.8597 660.162 56.0557 660.162C56.4424 660.162 56.736 660.212 56.9365 660.312V662.16ZM63.3818 672.215C61.8063 672.215 60.5244 671.699 59.5361 670.668C58.5479 669.63 58.0537 668.244 58.0537 666.511V666.146C58.0537 664.993 58.2721 663.965 58.709 663.062C59.153 662.153 59.7689 661.444 60.5566 660.936C61.3516 660.42 62.2109 660.162 63.1348 660.162C64.6458 660.162 65.8203 660.66 66.6582 661.655C67.4961 662.651 67.915 664.076 67.915 665.931V666.758H60.041C60.0697 667.904 60.4027 668.831 61.04 669.54C61.6846 670.242 62.501 670.593 63.4893 670.593C64.1911 670.593 64.7855 670.45 65.2725 670.163C65.7594 669.877 66.1855 669.497 66.5508 669.024L67.7646 669.97C66.7907 671.466 65.3298 672.215 63.3818 672.215ZM63.1348 661.795C62.3327 661.795 61.6595 662.089 61.1152 662.676C60.571 663.256 60.2344 664.072 60.1055 665.125H65.9277V664.975C65.8704 663.965 65.5983 663.184 65.1113 662.633C64.6243 662.074 63.9655 661.795 63.1348 661.795ZM74.8867 670.593C75.5957 670.593 76.2152 670.378 76.7451 669.948C77.2751 669.519 77.5687 668.981 77.626 668.337H79.5059C79.4701 669.003 79.2409 669.637 78.8184 670.238C78.3958 670.84 77.8301 671.32 77.1211 671.678C76.4193 672.036 75.6745 672.215 74.8867 672.215C73.304 672.215 72.0436 671.688 71.1055 670.636C70.1745 669.576 69.709 668.129 69.709 666.296V665.963C69.709 664.831 69.9167 663.825 70.332 662.944C70.7474 662.063 71.3418 661.38 72.1152 660.893C72.8958 660.406 73.8161 660.162 74.876 660.162C76.1794 660.162 77.2607 660.552 78.1201 661.333C78.9867 662.114 79.4486 663.127 79.5059 664.373H77.626C77.5687 663.621 77.2822 663.005 76.7666 662.525C76.2581 662.038 75.6279 661.795 74.876 661.795C73.8662 661.795 73.082 662.16 72.5234 662.891C71.972 663.614 71.6963 664.663 71.6963 666.038V666.414C71.6963 667.753 71.972 668.785 72.5234 669.508C73.0749 670.231 73.8626 670.593 74.8867 670.593ZM84.4365 657.562V660.377H86.6064V661.913H84.4365V669.121C84.4365 669.587 84.5332 669.938 84.7266 670.174C84.9199 670.403 85.2493 670.518 85.7148 670.518C85.944 670.518 86.2591 670.475 86.6602 670.389V672C86.1374 672.143 85.6289 672.215 85.1348 672.215C84.2467 672.215 83.5771 671.946 83.126 671.409C82.6748 670.872 82.4492 670.109 82.4492 669.121V661.913H80.333V660.377H82.4492V657.562H84.4365ZM93.7607 672.215C92.1852 672.215 90.9033 671.699 89.915 670.668C88.9268 669.63 88.4326 668.244 88.4326 666.511V666.146C88.4326 664.993 88.651 663.965 89.0879 663.062C89.5319 662.153 90.1478 661.444 90.9355 660.936C91.7305 660.42 92.5898 660.162 93.5137 660.162C95.0247 660.162 96.1992 660.66 97.0371 661.655C97.875 662.651 98.2939 664.076 98.2939 665.931V666.758H90.4199C90.4486 667.904 90.7816 668.831 91.4189 669.54C92.0635 670.242 92.8799 670.593 93.8682 670.593C94.57 670.593 95.1644 670.45 95.6514 670.163C96.1383 669.877 96.5645 669.497 96.9297 669.024L98.1436 669.97C97.1696 671.466 95.7087 672.215 93.7607 672.215ZM93.5137 661.795C92.7116 661.795 92.0384 662.089 91.4941 662.676C90.9499 663.256 90.6133 664.072 90.4844 665.125H96.3066V664.975C96.2493 663.965 95.9772 663.184 95.4902 662.633C95.0033 662.074 94.3444 661.795 93.5137 661.795ZM100.12 666.092C100.12 664.309 100.543 662.876 101.388 661.795C102.233 660.706 103.339 660.162 104.707 660.162C106.068 660.162 107.146 660.628 107.94 661.559V655.5H109.928V672H108.102L108.005 670.754C107.21 671.728 106.104 672.215 104.686 672.215C103.339 672.215 102.24 671.663 101.388 670.561C100.543 669.458 100.12 668.018 100.12 666.242V666.092ZM102.107 666.317C102.107 667.635 102.38 668.666 102.924 669.411C103.468 670.156 104.22 670.528 105.18 670.528C106.44 670.528 107.36 669.963 107.94 668.831V663.492C107.346 662.396 106.433 661.849 105.201 661.849C104.227 661.849 103.468 662.225 102.924 662.977C102.38 663.729 102.107 664.842 102.107 666.317ZM128.318 666.317C128.318 668.093 127.91 669.522 127.094 670.604C126.277 671.678 125.182 672.215 123.807 672.215C122.339 672.215 121.203 671.696 120.401 670.657L120.305 672H118.479V655.5H120.466V661.655C121.268 660.66 122.374 660.162 123.785 660.162C125.196 660.162 126.302 660.696 127.104 661.763C127.914 662.83 128.318 664.291 128.318 666.146V666.317ZM126.331 666.092C126.331 664.738 126.07 663.693 125.547 662.955C125.024 662.217 124.272 661.849 123.291 661.849C121.98 661.849 121.039 662.457 120.466 663.675V668.702C121.075 669.92 122.023 670.528 123.312 670.528C124.265 670.528 125.006 670.16 125.536 669.422C126.066 668.684 126.331 667.574 126.331 666.092ZM138.008 672C137.893 671.771 137.8 671.363 137.729 670.775C136.805 671.735 135.702 672.215 134.42 672.215C133.274 672.215 132.332 671.893 131.595 671.248C130.864 670.596 130.499 669.773 130.499 668.777C130.499 667.567 130.957 666.629 131.874 665.963C132.798 665.29 134.094 664.953 135.763 664.953H137.696V664.04C137.696 663.345 137.489 662.794 137.073 662.386C136.658 661.97 136.046 661.763 135.236 661.763C134.527 661.763 133.933 661.942 133.453 662.3C132.973 662.658 132.733 663.091 132.733 663.6H130.735C130.735 663.02 130.939 662.461 131.348 661.924C131.763 661.38 132.322 660.95 133.023 660.635C133.732 660.32 134.509 660.162 135.354 660.162C136.694 660.162 137.743 660.499 138.502 661.172C139.261 661.838 139.655 662.758 139.684 663.933V669.282C139.684 670.349 139.82 671.198 140.092 671.828V672H138.008ZM134.71 670.485C135.333 670.485 135.924 670.324 136.482 670.002C137.041 669.68 137.446 669.261 137.696 668.745V666.36H136.139C133.704 666.36 132.486 667.073 132.486 668.498C132.486 669.121 132.694 669.608 133.109 669.959C133.525 670.31 134.058 670.485 134.71 670.485ZM147.461 670.593C148.17 670.593 148.789 670.378 149.319 669.948C149.849 669.519 150.143 668.981 150.2 668.337H152.08C152.044 669.003 151.815 669.637 151.393 670.238C150.97 670.84 150.404 671.32 149.695 671.678C148.993 672.036 148.249 672.215 147.461 672.215C145.878 672.215 144.618 671.688 143.68 670.636C142.749 669.576 142.283 668.129 142.283 666.296V665.963C142.283 664.831 142.491 663.825 142.906 662.944C143.322 662.063 143.916 661.38 144.689 660.893C145.47 660.406 146.39 660.162 147.45 660.162C148.754 660.162 149.835 660.552 150.694 661.333C151.561 662.114 152.023 663.127 152.08 664.373H150.2C150.143 663.621 149.856 663.005 149.341 662.525C148.832 662.038 148.202 661.795 147.45 661.795C146.44 661.795 145.656 662.16 145.098 662.891C144.546 663.614 144.271 664.663 144.271 666.038V666.414C144.271 667.753 144.546 668.785 145.098 669.508C145.649 670.231 146.437 670.593 147.461 670.593ZM157.559 666.618L156.312 667.918V672H154.325V655.5H156.312V665.479L157.376 664.201L160.996 660.377H163.413L158.891 665.232L163.939 672H161.608L157.559 666.618ZM173.618 657.562V660.377H175.788V661.913H173.618V669.121C173.618 669.587 173.715 669.938 173.908 670.174C174.102 670.403 174.431 670.518 174.896 670.518C175.126 670.518 175.441 670.475 175.842 670.389V672C175.319 672.143 174.811 672.215 174.316 672.215C173.428 672.215 172.759 671.946 172.308 671.409C171.856 670.872 171.631 670.109 171.631 669.121V661.913H169.515V660.377H171.631V657.562H173.618ZM177.378 666.081C177.378 664.942 177.6 663.918 178.044 663.009C178.495 662.099 179.118 661.397 179.913 660.903C180.715 660.409 181.628 660.162 182.652 660.162C184.235 660.162 185.513 660.71 186.487 661.806C187.468 662.901 187.959 664.359 187.959 666.178V666.317C187.959 667.449 187.741 668.466 187.304 669.368C186.874 670.263 186.255 670.962 185.445 671.463C184.643 671.964 183.719 672.215 182.674 672.215C181.098 672.215 179.82 671.667 178.839 670.571C177.865 669.476 177.378 668.025 177.378 666.221V666.081ZM179.376 666.317C179.376 667.606 179.673 668.641 180.268 669.422C180.869 670.202 181.671 670.593 182.674 670.593C183.684 670.593 184.486 670.199 185.08 669.411C185.674 668.616 185.972 667.506 185.972 666.081C185.972 664.806 185.667 663.775 185.059 662.987C184.457 662.192 183.655 661.795 182.652 661.795C181.671 661.795 180.88 662.185 180.278 662.966C179.677 663.746 179.376 664.864 179.376 666.317ZM198.604 657.562V660.377H200.774V661.913H198.604V669.121C198.604 669.587 198.701 669.938 198.895 670.174C199.088 670.403 199.417 670.518 199.883 670.518C200.112 670.518 200.427 670.475 200.828 670.389V672C200.305 672.143 199.797 672.215 199.303 672.215C198.415 672.215 197.745 671.946 197.294 671.409C196.843 670.872 196.617 670.109 196.617 669.121V661.913H194.501V660.377H196.617V657.562H198.604ZM205.093 661.784C205.974 660.703 207.119 660.162 208.53 660.162C210.987 660.162 212.226 661.548 212.247 664.319V672H210.26V664.309C210.253 663.471 210.059 662.851 209.68 662.45C209.307 662.049 208.724 661.849 207.929 661.849C207.284 661.849 206.718 662.021 206.231 662.364C205.744 662.708 205.365 663.159 205.093 663.718V672H203.105V655.5H205.093V661.784ZM220.046 672.215C218.47 672.215 217.188 671.699 216.2 670.668C215.212 669.63 214.718 668.244 214.718 666.511V666.146C214.718 664.993 214.936 663.965 215.373 663.062C215.817 662.153 216.433 661.444 217.221 660.936C218.016 660.42 218.875 660.162 219.799 660.162C221.31 660.162 222.484 660.66 223.322 661.655C224.16 662.651 224.579 664.076 224.579 665.931V666.758H216.705C216.734 667.904 217.067 668.831 217.704 669.54C218.349 670.242 219.165 670.593 220.153 670.593C220.855 670.593 221.45 670.45 221.937 670.163C222.424 669.877 222.85 669.497 223.215 669.024L224.429 669.97C223.455 671.466 221.994 672.215 220.046 672.215ZM219.799 661.795C218.997 661.795 218.324 662.089 217.779 662.676C217.235 663.256 216.898 664.072 216.77 665.125H222.592V664.975C222.535 663.965 222.262 663.184 221.775 662.633C221.288 662.074 220.63 661.795 219.799 661.795ZM244.678 672H242.604V664.771H234.72V672H232.657V656.359H234.72V663.084H242.604V656.359H244.678V672ZM247.503 666.081C247.503 664.942 247.725 663.918 248.169 663.009C248.62 662.099 249.243 661.397 250.038 660.903C250.84 660.409 251.753 660.162 252.777 660.162C254.36 660.162 255.638 660.71 256.612 661.806C257.593 662.901 258.084 664.359 258.084 666.178V666.317C258.084 667.449 257.866 668.466 257.429 669.368C256.999 670.263 256.38 670.962 255.57 671.463C254.768 671.964 253.844 672.215 252.799 672.215C251.223 672.215 249.945 671.667 248.964 670.571C247.99 669.476 247.503 668.025 247.503 666.221V666.081ZM249.501 666.317C249.501 667.606 249.798 668.641 250.393 669.422C250.994 670.202 251.796 670.593 252.799 670.593C253.809 670.593 254.611 670.199 255.205 669.411C255.799 668.616 256.097 667.506 256.097 666.081C256.097 664.806 255.792 663.775 255.184 662.987C254.582 662.192 253.78 661.795 252.777 661.795C251.796 661.795 251.005 662.185 250.403 662.966C249.802 663.746 249.501 664.864 249.501 666.317ZM262.445 660.377L262.499 661.666C263.351 660.663 264.501 660.162 265.947 660.162C267.573 660.162 268.679 660.785 269.267 662.031C269.653 661.473 270.155 661.021 270.771 660.678C271.394 660.334 272.128 660.162 272.973 660.162C275.522 660.162 276.818 661.512 276.861 664.212V672H274.874V664.33C274.874 663.499 274.684 662.88 274.305 662.472C273.925 662.056 273.288 661.849 272.393 661.849C271.655 661.849 271.043 662.071 270.556 662.515C270.069 662.951 269.786 663.542 269.707 664.287V672H267.709V664.384C267.709 662.694 266.882 661.849 265.228 661.849C263.924 661.849 263.033 662.404 262.553 663.514V672H260.565V660.377H262.445ZM284.692 672.215C283.117 672.215 281.835 671.699 280.847 670.668C279.858 669.63 279.364 668.244 279.364 666.511V666.146C279.364 664.993 279.583 663.965 280.02 663.062C280.464 662.153 281.079 661.444 281.867 660.936C282.662 660.42 283.521 660.162 284.445 660.162C285.956 660.162 287.131 660.66 287.969 661.655C288.807 662.651 289.226 664.076 289.226 665.931V666.758H281.352C281.38 667.904 281.713 668.831 282.351 669.54C282.995 670.242 283.812 670.593 284.8 670.593C285.502 670.593 286.096 670.45 286.583 670.163C287.07 669.877 287.496 669.497 287.861 669.024L289.075 669.97C288.101 671.466 286.64 672.215 284.692 672.215ZM284.445 661.795C283.643 661.795 282.97 662.089 282.426 662.676C281.882 663.256 281.545 664.072 281.416 665.125H287.238V664.975C287.181 663.965 286.909 663.184 286.422 662.633C285.935 662.074 285.276 661.795 284.445 661.795ZM303.76 668.917C303.76 668.38 303.556 667.965 303.147 667.671C302.746 667.37 302.041 667.112 301.031 666.897C300.029 666.683 299.23 666.425 298.636 666.124C298.049 665.823 297.612 665.465 297.325 665.05C297.046 664.634 296.906 664.14 296.906 663.567C296.906 662.615 297.307 661.809 298.109 661.15C298.919 660.492 299.95 660.162 301.203 660.162C302.521 660.162 303.588 660.502 304.404 661.183C305.228 661.863 305.64 662.733 305.64 663.793H303.642C303.642 663.249 303.409 662.78 302.943 662.386C302.485 661.992 301.905 661.795 301.203 661.795C300.48 661.795 299.914 661.952 299.506 662.268C299.098 662.583 298.894 662.994 298.894 663.503C298.894 663.983 299.083 664.344 299.463 664.588C299.842 664.831 300.526 665.064 301.515 665.286C302.51 665.508 303.316 665.773 303.932 666.081C304.548 666.389 305.002 666.761 305.296 667.198C305.597 667.628 305.747 668.154 305.747 668.777C305.747 669.816 305.332 670.65 304.501 671.28C303.67 671.903 302.592 672.215 301.268 672.215C300.337 672.215 299.513 672.05 298.797 671.721C298.081 671.391 297.519 670.933 297.11 670.346C296.709 669.751 296.509 669.11 296.509 668.423H298.496C298.532 669.089 298.797 669.619 299.291 670.013C299.792 670.399 300.451 670.593 301.268 670.593C302.02 670.593 302.621 670.442 303.072 670.142C303.531 669.834 303.76 669.425 303.76 668.917ZM312.998 670.593C313.707 670.593 314.326 670.378 314.856 669.948C315.386 669.519 315.68 668.981 315.737 668.337H317.617C317.581 669.003 317.352 669.637 316.93 670.238C316.507 670.84 315.941 671.32 315.232 671.678C314.531 672.036 313.786 672.215 312.998 672.215C311.415 672.215 310.155 671.688 309.217 670.636C308.286 669.576 307.82 668.129 307.82 666.296V665.963C307.82 664.831 308.028 663.825 308.443 662.944C308.859 662.063 309.453 661.38 310.227 660.893C311.007 660.406 311.927 660.162 312.987 660.162C314.291 660.162 315.372 660.552 316.231 661.333C317.098 662.114 317.56 663.127 317.617 664.373H315.737C315.68 663.621 315.394 663.005 314.878 662.525C314.369 662.038 313.739 661.795 312.987 661.795C311.978 661.795 311.193 662.16 310.635 662.891C310.083 663.614 309.808 664.663 309.808 666.038V666.414C309.808 667.753 310.083 668.785 310.635 669.508C311.186 670.231 311.974 670.593 312.998 670.593ZM325.47 662.16C325.169 662.11 324.843 662.085 324.492 662.085C323.189 662.085 322.304 662.64 321.839 663.75V672H319.852V660.377H321.785L321.817 661.72C322.469 660.681 323.393 660.162 324.589 660.162C324.976 660.162 325.269 660.212 325.47 660.312V662.16ZM331.915 672.215C330.34 672.215 329.058 671.699 328.069 670.668C327.081 669.63 326.587 668.244 326.587 666.511V666.146C326.587 664.993 326.805 663.965 327.242 663.062C327.686 662.153 328.302 661.444 329.09 660.936C329.885 660.42 330.744 660.162 331.668 660.162C333.179 660.162 334.354 660.66 335.191 661.655C336.029 662.651 336.448 664.076 336.448 665.931V666.758H328.574C328.603 667.904 328.936 668.831 329.573 669.54C330.218 670.242 331.034 670.593 332.022 670.593C332.724 670.593 333.319 670.45 333.806 670.163C334.293 669.877 334.719 669.497 335.084 669.024L336.298 669.97C335.324 671.466 333.863 672.215 331.915 672.215ZM331.668 661.795C330.866 661.795 330.193 662.089 329.648 662.676C329.104 663.256 328.768 664.072 328.639 665.125H334.461V664.975C334.404 663.965 334.132 663.184 333.645 662.633C333.158 662.074 332.499 661.795 331.668 661.795ZM343.581 672.215C342.006 672.215 340.724 671.699 339.735 670.668C338.747 669.63 338.253 668.244 338.253 666.511V666.146C338.253 664.993 338.471 663.965 338.908 663.062C339.352 662.153 339.968 661.444 340.756 660.936C341.551 660.42 342.41 660.162 343.334 660.162C344.845 660.162 346.02 660.66 346.857 661.655C347.695 662.651 348.114 664.076 348.114 665.931V666.758H340.24C340.269 667.904 340.602 668.831 341.239 669.54C341.884 670.242 342.7 670.593 343.688 670.593C344.39 670.593 344.985 670.45 345.472 670.163C345.959 669.877 346.385 669.497 346.75 669.024L347.964 669.97C346.99 671.466 345.529 672.215 343.581 672.215ZM343.334 661.795C342.532 661.795 341.859 662.089 341.314 662.676C340.77 663.256 340.434 664.072 340.305 665.125H346.127V664.975C346.07 663.965 345.798 663.184 345.311 662.633C344.824 662.074 344.165 661.795 343.334 661.795ZM352.304 660.377L352.368 661.838C353.256 660.721 354.416 660.162 355.849 660.162C358.305 660.162 359.544 661.548 359.565 664.319V672H357.578V664.309C357.571 663.471 357.378 662.851 356.998 662.45C356.626 662.049 356.042 661.849 355.247 661.849C354.603 661.849 354.037 662.021 353.55 662.364C353.063 662.708 352.683 663.159 352.411 663.718V672H350.424V660.377H352.304ZM362.605 670.958C362.605 670.614 362.706 670.328 362.906 670.099C363.114 669.869 363.422 669.755 363.83 669.755C364.238 669.755 364.546 669.869 364.754 670.099C364.969 670.328 365.076 670.614 365.076 670.958C365.076 671.287 364.969 671.563 364.754 671.785C364.546 672.007 364.238 672.118 363.83 672.118C363.422 672.118 363.114 672.007 362.906 671.785C362.706 671.563 362.605 671.287 362.605 670.958Z" fill="black"/>
</g>
<rect x="0.5" y="0.5" width="376" height="813" stroke="black"/>
<defs>
<clipPath id="clip0_27_3850">
<rect x="1" y="1" width="375" height="812" fill="white"/>
</clipPath>
</defs>
</svg>
