<svg width="377" height="814" viewBox="0 0 377 814" fill="none" xmlns="http://www.w3.org/2000/svg">
<g clip-path="url(#clip0_27_3818)">
<rect x="1" y="1" width="375" height="812" fill="white"/>
<path d="M38.2146 18.1675C35.9222 18.1675 34.2889 19.7349 34.2889 21.8809V21.8955C34.2889 23.9023 35.7098 25.3818 37.7386 25.3818C39.1888 25.3818 40.1116 24.6421 40.4998 23.8071H40.6463C40.6463 23.8877 40.639 23.9683 40.639 24.0488C40.5584 26.0703 39.8479 27.7109 38.1707 27.7109C37.2405 27.7109 36.5887 27.2275 36.3104 26.4878L36.2884 26.4146H34.428L34.4427 26.4951C34.7796 28.1138 36.2298 29.2637 38.1707 29.2637C40.8294 29.2637 42.4334 27.1543 42.4334 23.5947V23.5801C42.4334 19.7715 40.4705 18.1675 38.2146 18.1675ZM38.2073 23.9316C37.0062 23.9316 36.1346 23.0527 36.1346 21.8296V21.8149C36.1346 20.6357 37.0647 19.7056 38.2293 19.7056C39.4012 19.7056 40.3167 20.6504 40.3167 21.8589V21.8735C40.3167 23.0674 39.4012 23.9316 38.2073 23.9316ZM45.4586 22.1519C46.1324 22.1519 46.6231 21.6392 46.6231 20.9946C46.6231 20.3428 46.1324 19.8374 45.4586 19.8374C44.7921 19.8374 44.294 20.3428 44.294 20.9946C44.294 21.6392 44.7921 22.1519 45.4586 22.1519ZM45.4586 27.5864C46.1324 27.5864 46.6231 27.0811 46.6231 26.4292C46.6231 25.7773 46.1324 25.272 45.4586 25.272C44.7921 25.272 44.294 25.7773 44.294 26.4292C44.294 27.0811 44.7921 27.5864 45.4586 27.5864ZM53.6107 29H55.4198V26.9712H56.8407V25.4111H55.4198V18.4312H52.7465C51.3109 20.6138 49.8095 23.0454 48.4398 25.4258V26.9712H53.6107V29ZM50.1977 25.4551V25.3452C51.223 23.5508 52.4462 21.5952 53.5302 19.9399H53.64V25.4551H50.1977ZM60.9206 29H62.8103V18.4312H60.9279L58.1667 20.3721V22.1519L60.7961 20.2915H60.9206V29Z" fill="black"/>
<rect opacity="0.35" x="337.833" y="18.8333" width="21" height="10.3333" rx="2.16667" stroke="black"/>
<path opacity="0.4" d="M360.333 22V26C361.138 25.6612 361.661 24.8731 361.661 24C361.661 23.1269 361.138 22.3388 360.333 22Z" fill="black"/>
<rect x="339.333" y="20.3333" width="18" height="7.33333" rx="1.33333" fill="black"/>
<path fill-rule="evenodd" clip-rule="evenodd" d="M324.667 20.615C326.892 20.6151 329.031 21.4693 330.644 23.0008C330.765 23.1191 330.959 23.1176 331.079 22.9975L332.239 21.8272C332.3 21.7663 332.334 21.6837 332.333 21.5979C332.333 21.5121 332.298 21.4299 332.237 21.3697C328.005 17.3175 321.329 17.3175 317.097 21.3697C317.035 21.4299 317.001 21.512 317 21.5978C316.999 21.6837 317.033 21.7662 317.094 21.8272L318.255 22.9975C318.374 23.1178 318.568 23.1193 318.69 23.0008C320.302 21.4692 322.442 20.615 324.667 20.615ZM324.667 24.4226C325.889 24.4226 327.068 24.8765 327.974 25.6963C328.097 25.8126 328.29 25.8101 328.409 25.6906L329.569 24.5203C329.63 24.4589 329.663 24.3756 329.663 24.2891C329.662 24.2025 329.626 24.12 329.564 24.0598C326.805 21.4954 322.532 21.4954 319.773 24.0598C319.71 24.12 319.675 24.2026 319.674 24.2891C319.673 24.3757 319.707 24.459 319.768 24.5203L320.927 25.6906C321.047 25.8101 321.24 25.8126 321.362 25.6963C322.268 24.877 323.446 24.4231 324.667 24.4226ZM326.989 26.9845C326.991 27.0712 326.957 27.1549 326.895 27.2157L324.89 29.2377C324.831 29.2971 324.751 29.3306 324.667 29.3306C324.583 29.3306 324.503 29.2971 324.445 29.2377L322.439 27.2157C322.377 27.1549 322.343 27.0712 322.345 26.9844C322.347 26.8976 322.384 26.8154 322.449 26.7573C323.729 25.675 325.605 25.675 326.886 26.7573C326.95 26.8155 326.988 26.8977 326.989 26.9845Z" fill="black"/>
<path fill-rule="evenodd" clip-rule="evenodd" d="M311 18.6667H310C309.448 18.6667 309 19.1145 309 19.6667V28.3334C309 28.8857 309.448 29.3334 310 29.3334H311C311.552 29.3334 312 28.8857 312 28.3334V19.6667C312 19.1145 311.552 18.6667 311 18.6667ZM305.333 21.0001H306.333C306.886 21.0001 307.333 21.4478 307.333 22.0001V28.3334C307.333 28.8857 306.886 29.3334 306.333 29.3334H305.333C304.781 29.3334 304.333 28.8857 304.333 28.3334V22.0001C304.333 21.4478 304.781 21.0001 305.333 21.0001ZM301.667 23.3334H300.667C300.114 23.3334 299.667 23.7811 299.667 24.3334V28.3334C299.667 28.8857 300.114 29.3334 300.667 29.3334H301.667C302.219 29.3334 302.667 28.8857 302.667 28.3334V24.3334C302.667 23.7811 302.219 23.3334 301.667 23.3334ZM297 25.3334H296C295.448 25.3334 295 25.7811 295 26.3334V28.3334C295 28.8857 295.448 29.3334 296 29.3334H297C297.552 29.3334 298 28.8857 298 28.3334V26.3334C298 25.7811 297.552 25.3334 297 25.3334Z" fill="black"/>
<rect x="1" y="779" width="375" height="35" fill="white"/>
<rect x="122" y="800" width="134" height="5" rx="2.5" fill="black"/>
<rect x="1" y="45" width="375" height="40" fill="#C4C4C4"/>
<path d="M162.442 71.0088H170.528V72.8486H160.18V55.7861H162.442V71.0088ZM185.146 64.8682C185.146 66.54 184.865 68.001 184.302 69.251C183.74 70.4932 182.943 71.4424 181.912 72.0986C180.88 72.7549 179.677 73.083 178.302 73.083C176.959 73.083 175.767 72.7549 174.728 72.0986C173.689 71.4346 172.88 70.4932 172.302 69.2744C171.732 68.0479 171.439 66.6299 171.423 65.0205V63.79C171.423 62.1494 171.709 60.7002 172.279 59.4424C172.849 58.1846 173.654 57.2236 174.693 56.5596C175.74 55.8877 176.935 55.5518 178.279 55.5518C179.646 55.5518 180.849 55.8838 181.888 56.5479C182.935 57.2041 183.74 58.1611 184.302 59.4189C184.865 60.6689 185.146 62.126 185.146 63.79V64.8682ZM182.908 63.7666C182.908 61.7432 182.502 60.1924 181.689 59.1143C180.877 58.0283 179.74 57.4854 178.279 57.4854C176.857 57.4854 175.736 58.0283 174.916 59.1143C174.103 60.1924 173.685 61.6924 173.662 63.6143V64.8682C173.662 66.8291 174.072 68.3721 174.892 69.4971C175.72 70.6143 176.857 71.1729 178.302 71.1729C179.755 71.1729 180.88 70.6455 181.677 69.5908C182.474 68.5283 182.884 67.0088 182.908 65.0322V63.7666ZM200.819 70.6104C200.241 71.4385 199.432 72.0596 198.393 72.4736C197.362 72.8799 196.159 73.083 194.784 73.083C193.393 73.083 192.159 72.7588 191.08 72.1104C190.002 71.4541 189.166 70.5244 188.573 69.3213C187.987 68.1182 187.686 66.7236 187.67 65.1377V63.6494C187.67 61.0791 188.268 59.0869 189.463 57.6729C190.666 56.2588 192.354 55.5518 194.526 55.5518C196.307 55.5518 197.741 56.0088 198.827 56.9229C199.912 57.8291 200.577 59.1182 200.819 60.79H198.569C198.147 58.5322 196.803 57.4033 194.537 57.4033C193.03 57.4033 191.885 57.9346 191.104 58.9971C190.33 60.0518 189.94 61.583 189.932 63.5908V64.9854C189.932 66.8994 190.37 68.4229 191.245 69.5557C192.12 70.6807 193.303 71.2432 194.795 71.2432C195.639 71.2432 196.377 71.1494 197.01 70.9619C197.643 70.7744 198.166 70.458 198.58 70.0127V66.1807H194.631V64.3525H200.819V70.6104ZM217.405 64.8682C217.405 66.54 217.124 68.001 216.562 69.251C215.999 70.4932 215.202 71.4424 214.171 72.0986C213.14 72.7549 211.937 73.083 210.562 73.083C209.218 73.083 208.027 72.7549 206.987 72.0986C205.948 71.4346 205.14 70.4932 204.562 69.2744C203.991 68.0479 203.698 66.6299 203.683 65.0205V63.79C203.683 62.1494 203.968 60.7002 204.538 59.4424C205.109 58.1846 205.913 57.2236 206.952 56.5596C207.999 55.8877 209.195 55.5518 210.538 55.5518C211.905 55.5518 213.109 55.8838 214.148 56.5479C215.195 57.2041 215.999 58.1611 216.562 59.4189C217.124 60.6689 217.405 62.126 217.405 63.79V64.8682ZM215.167 63.7666C215.167 61.7432 214.761 60.1924 213.948 59.1143C213.136 58.0283 211.999 57.4854 210.538 57.4854C209.116 57.4854 207.995 58.0283 207.175 59.1143C206.362 60.1924 205.945 61.6924 205.921 63.6143V64.8682C205.921 66.8291 206.331 68.3721 207.152 69.4971C207.98 70.6143 209.116 71.1729 210.562 71.1729C212.015 71.1729 213.14 70.6455 213.937 69.5908C214.734 68.5283 215.144 67.0088 215.167 65.0322V63.7666Z" fill="black"/>
<g clip-path="url(#clip1_27_3818)">
<path d="M214.289 183.211C211.006 177.92 203.777 172.25 189 172.25C174.223 172.25 166.999 177.916 163.71 183.211C166.74 187.009 170.587 190.076 174.966 192.182C179.344 194.288 184.141 195.379 189 195.375C193.859 195.379 198.656 194.288 203.034 192.182C207.412 190.076 211.26 187.009 214.289 183.211Z" fill="#7B7B7B"/>
<path fill-rule="evenodd" clip-rule="evenodd" d="M189 167.625C192.68 167.625 196.209 166.163 198.811 163.561C201.413 160.959 202.875 157.43 202.875 153.75C202.875 150.07 201.413 146.541 198.811 143.939C196.209 141.337 192.68 139.875 189 139.875C185.32 139.875 181.791 141.337 179.189 143.939C176.587 146.541 175.125 150.07 175.125 153.75C175.125 157.43 176.587 160.959 179.189 163.561C181.791 166.163 185.32 167.625 189 167.625Z" fill="#7B7B7B"/>
<path fill-rule="evenodd" clip-rule="evenodd" d="M189 130.625C180.414 130.625 172.179 134.036 166.107 140.107C160.036 146.179 156.625 154.414 156.625 163C156.625 171.586 160.036 179.821 166.107 185.893C172.179 191.964 180.414 195.375 189 195.375C197.586 195.375 205.821 191.964 211.893 185.893C217.964 179.821 221.375 171.586 221.375 163C221.375 154.414 217.964 146.179 211.893 140.107C205.821 134.036 197.586 130.625 189 130.625ZM152 163C152 153.187 155.898 143.776 162.837 136.837C169.776 129.898 179.187 126 189 126C198.813 126 208.224 129.898 215.163 136.837C222.102 143.776 226 153.187 226 163C226 172.813 222.102 182.224 215.163 189.163C208.224 196.102 198.813 200 189 200C179.187 200 169.776 196.102 162.837 189.163C155.898 182.224 152 172.813 152 163Z" fill="#7B7B7B"/>
</g>
<path d="M91.0695 233.605H84.3195V238.176H92.2414V241H80.8039V223.938H92.218V226.785H84.3195V230.852H91.0695V233.605ZM96.8984 228.32L97.0039 229.785C97.9102 228.652 99.125 228.086 100.648 228.086C101.992 228.086 102.992 228.48 103.648 229.27C104.305 230.059 104.641 231.238 104.656 232.809V241H101.27V232.891C101.27 232.172 101.113 231.652 100.801 231.332C100.488 231.004 99.9688 230.84 99.2422 230.84C98.2891 230.84 97.5742 231.246 97.0977 232.059V241H93.7109V228.32H96.8984ZM110.989 225.203V228.32H113.157V230.805H110.989V237.133C110.989 237.602 111.079 237.938 111.259 238.141C111.438 238.344 111.782 238.445 112.29 238.445C112.665 238.445 112.997 238.418 113.286 238.363V240.93C112.622 241.133 111.938 241.234 111.235 241.234C108.86 241.234 107.649 240.035 107.602 237.637V230.805H105.751V228.32H107.602V225.203H110.989ZM120.58 241.234C118.72 241.234 117.205 240.664 116.033 239.523C114.869 238.383 114.287 236.863 114.287 234.965V234.637C114.287 233.363 114.533 232.227 115.025 231.227C115.517 230.219 116.213 229.445 117.111 228.906C118.017 228.359 119.048 228.086 120.205 228.086C121.939 228.086 123.302 228.633 124.295 229.727C125.295 230.82 125.795 232.371 125.795 234.379V235.762H117.72C117.83 236.59 118.158 237.254 118.705 237.754C119.259 238.254 119.959 238.504 120.802 238.504C122.107 238.504 123.127 238.031 123.861 237.086L125.525 238.949C125.017 239.668 124.33 240.23 123.463 240.637C122.595 241.035 121.634 241.234 120.58 241.234ZM120.193 230.828C119.521 230.828 118.974 231.055 118.552 231.508C118.138 231.961 117.873 232.609 117.755 233.453H122.466V233.184C122.451 232.434 122.248 231.855 121.857 231.449C121.466 231.035 120.912 230.828 120.193 230.828ZM134.553 231.496C134.092 231.434 133.686 231.402 133.334 231.402C132.053 231.402 131.213 231.836 130.815 232.703V241H127.428V228.32H130.627L130.721 229.832C131.401 228.668 132.342 228.086 133.545 228.086C133.92 228.086 134.272 228.137 134.6 228.238L134.553 231.496ZM155.668 241H152.152L145.309 229.773V241H141.793V223.938H145.309L152.164 235.188V223.938H155.668V241ZM164.052 241.234C162.192 241.234 160.677 240.664 159.505 239.523C158.341 238.383 157.759 236.863 157.759 234.965V234.637C157.759 233.363 158.005 232.227 158.497 231.227C158.989 230.219 159.684 229.445 160.583 228.906C161.489 228.359 162.52 228.086 163.677 228.086C165.411 228.086 166.774 228.633 167.766 229.727C168.766 230.82 169.266 232.371 169.266 234.379V235.762H161.192C161.302 236.59 161.63 237.254 162.177 237.754C162.731 238.254 163.43 238.504 164.274 238.504C165.579 238.504 166.598 238.031 167.333 237.086L168.997 238.949C168.489 239.668 167.802 240.23 166.934 240.637C166.067 241.035 165.106 241.234 164.052 241.234ZM163.665 230.828C162.993 230.828 162.446 231.055 162.024 231.508C161.61 231.961 161.345 232.609 161.227 233.453H165.938V233.184C165.923 232.434 165.72 231.855 165.329 231.449C164.938 231.035 164.384 230.828 163.665 230.828ZM181.927 236.395L183.591 228.32H186.861L183.627 241H180.791L178.388 233.02L175.986 241H173.162L169.927 228.32H173.197L174.849 236.383L177.17 228.32H179.619L181.927 236.395ZM197.663 234.988V241H194.148V223.938H200.804C202.085 223.938 203.21 224.172 204.179 224.641C205.155 225.109 205.905 225.777 206.429 226.645C206.952 227.504 207.214 228.484 207.214 229.586C207.214 231.258 206.64 232.578 205.491 233.547C204.351 234.508 202.769 234.988 200.745 234.988H197.663ZM197.663 232.141H200.804C201.734 232.141 202.441 231.922 202.925 231.484C203.417 231.047 203.663 230.422 203.663 229.609C203.663 228.773 203.417 228.098 202.925 227.582C202.433 227.066 201.753 226.801 200.886 226.785H197.663V232.141ZM216.324 241C216.168 240.695 216.055 240.316 215.984 239.863C215.164 240.777 214.098 241.234 212.785 241.234C211.543 241.234 210.512 240.875 209.691 240.156C208.879 239.438 208.473 238.531 208.473 237.438C208.473 236.094 208.969 235.062 209.961 234.344C210.961 233.625 212.402 233.262 214.285 233.254H215.844V232.527C215.844 231.941 215.691 231.473 215.387 231.121C215.09 230.77 214.617 230.594 213.969 230.594C213.398 230.594 212.949 230.73 212.621 231.004C212.301 231.277 212.141 231.652 212.141 232.129H208.754C208.754 231.395 208.98 230.715 209.434 230.09C209.887 229.465 210.527 228.977 211.355 228.625C212.184 228.266 213.113 228.086 214.145 228.086C215.707 228.086 216.945 228.48 217.859 229.27C218.781 230.051 219.242 231.152 219.242 232.574V238.07C219.25 239.273 219.418 240.184 219.746 240.801V241H216.324ZM213.523 238.645C214.023 238.645 214.484 238.535 214.906 238.316C215.328 238.09 215.641 237.789 215.844 237.414V235.234H214.578C212.883 235.234 211.98 235.82 211.871 236.992L211.859 237.191C211.859 237.613 212.008 237.961 212.305 238.234C212.602 238.508 213.008 238.645 213.523 238.645ZM228.411 237.496C228.411 237.082 228.204 236.758 227.79 236.523C227.384 236.281 226.727 236.066 225.821 235.879C222.805 235.246 221.298 233.965 221.298 232.035C221.298 230.91 221.762 229.973 222.692 229.223C223.63 228.465 224.852 228.086 226.36 228.086C227.97 228.086 229.255 228.465 230.216 229.223C231.184 229.98 231.669 230.965 231.669 232.176H228.282C228.282 231.691 228.126 231.293 227.813 230.98C227.501 230.66 227.012 230.5 226.348 230.5C225.778 230.5 225.337 230.629 225.024 230.887C224.712 231.145 224.555 231.473 224.555 231.871C224.555 232.246 224.731 232.551 225.083 232.785C225.442 233.012 226.044 233.211 226.887 233.383C227.731 233.547 228.442 233.734 229.02 233.945C230.809 234.602 231.704 235.738 231.704 237.355C231.704 238.512 231.208 239.449 230.216 240.168C229.223 240.879 227.942 241.234 226.372 241.234C225.309 241.234 224.364 241.047 223.536 240.672C222.716 240.289 222.071 239.77 221.602 239.113C221.134 238.449 220.899 237.734 220.899 236.969H224.11C224.141 237.57 224.364 238.031 224.778 238.352C225.192 238.672 225.747 238.832 226.442 238.832C227.091 238.832 227.579 238.711 227.907 238.469C228.243 238.219 228.411 237.895 228.411 237.496ZM240.463 237.496C240.463 237.082 240.255 236.758 239.841 236.523C239.435 236.281 238.779 236.066 237.873 235.879C234.857 235.246 233.349 233.965 233.349 232.035C233.349 230.91 233.814 229.973 234.744 229.223C235.681 228.465 236.904 228.086 238.412 228.086C240.021 228.086 241.306 228.465 242.267 229.223C243.236 229.98 243.72 230.965 243.72 232.176H240.334C240.334 231.691 240.177 231.293 239.865 230.98C239.552 230.66 239.064 230.5 238.4 230.5C237.83 230.5 237.388 230.629 237.076 230.887C236.763 231.145 236.607 231.473 236.607 231.871C236.607 232.246 236.783 232.551 237.134 232.785C237.494 233.012 238.095 233.211 238.939 233.383C239.783 233.547 240.494 233.734 241.072 233.945C242.861 234.602 243.755 235.738 243.755 237.355C243.755 238.512 243.259 239.449 242.267 240.168C241.275 240.879 239.994 241.234 238.423 241.234C237.361 241.234 236.416 241.047 235.588 240.672C234.767 240.289 234.123 239.77 233.654 239.113C233.185 238.449 232.951 237.734 232.951 236.969H236.162C236.193 237.57 236.416 238.031 236.83 238.352C237.244 238.672 237.798 238.832 238.494 238.832C239.142 238.832 239.63 238.711 239.959 238.469C240.295 238.219 240.463 237.895 240.463 237.496ZM256.674 236.395L258.338 228.32H261.608L258.373 241H255.538L253.135 233.02L250.733 241H247.909L244.674 228.32H247.944L249.596 236.383L251.916 228.32H254.366L256.674 236.395ZM262.468 234.543C262.468 233.285 262.71 232.164 263.195 231.18C263.679 230.195 264.374 229.434 265.28 228.895C266.195 228.355 267.253 228.086 268.456 228.086C270.167 228.086 271.562 228.609 272.64 229.656C273.726 230.703 274.331 232.125 274.456 233.922L274.48 234.789C274.48 236.734 273.937 238.297 272.851 239.477C271.765 240.648 270.308 241.234 268.48 241.234C266.652 241.234 265.191 240.648 264.097 239.477C263.011 238.305 262.468 236.711 262.468 234.695V234.543ZM265.855 234.789C265.855 235.992 266.081 236.914 266.534 237.555C266.988 238.188 267.636 238.504 268.48 238.504C269.3 238.504 269.941 238.191 270.402 237.566C270.863 236.934 271.093 235.926 271.093 234.543C271.093 233.363 270.863 232.449 270.402 231.801C269.941 231.152 269.292 230.828 268.456 230.828C267.628 230.828 266.988 231.152 266.534 231.801C266.081 232.441 265.855 233.438 265.855 234.789ZM283.391 231.496C282.93 231.434 282.523 231.402 282.172 231.402C280.891 231.402 280.051 231.836 279.652 232.703V241H276.266V228.32H279.465L279.559 229.832C280.238 228.668 281.18 228.086 282.383 228.086C282.758 228.086 283.109 228.137 283.438 228.238L283.391 231.496ZM283.97 234.566C283.97 232.59 284.411 231.016 285.294 229.844C286.184 228.672 287.399 228.086 288.938 228.086C290.173 228.086 291.192 228.547 291.997 229.469V223H295.395V241H292.337L292.173 239.652C291.329 240.707 290.243 241.234 288.915 241.234C287.423 241.234 286.223 240.648 285.317 239.477C284.419 238.297 283.97 236.66 283.97 234.566ZM287.356 234.812C287.356 236 287.563 236.91 287.977 237.543C288.391 238.176 288.993 238.492 289.782 238.492C290.829 238.492 291.567 238.051 291.997 237.168V232.164C291.575 231.281 290.845 230.84 289.805 230.84C288.173 230.84 287.356 232.164 287.356 234.812ZM33.5721 262.99V268H31.8846V255.203H36.6043C38.0047 255.203 39.1004 255.561 39.8914 256.275C40.6883 256.99 41.0867 257.937 41.0867 259.114C41.0867 260.356 40.6971 261.314 39.9178 261.988C39.1443 262.656 38.034 262.99 36.5867 262.99H33.5721ZM33.5721 261.61H36.6043C37.5066 261.61 38.198 261.399 38.6785 260.978C39.159 260.55 39.3992 259.935 39.3992 259.132C39.3992 258.37 39.159 257.761 38.6785 257.304C38.198 256.847 37.5389 256.609 36.701 256.592H33.5721V261.61ZM44.4518 268H42.8258V254.5H44.4518V268ZM50.7084 268.176C49.4193 268.176 48.3705 267.754 47.5619 266.91C46.7533 266.061 46.349 264.927 46.349 263.509V263.21C46.349 262.267 46.5277 261.426 46.8852 260.688C47.2484 259.943 47.7523 259.363 48.3969 258.947C49.0473 258.525 49.7504 258.314 50.5062 258.314C51.7426 258.314 52.7035 258.722 53.3891 259.536C54.0746 260.351 54.4174 261.517 54.4174 263.034V263.711H47.975C47.9984 264.648 48.2709 265.407 48.7924 265.987C49.3197 266.562 49.9877 266.849 50.7963 266.849C51.3705 266.849 51.8568 266.731 52.2553 266.497C52.6537 266.263 53.0023 265.952 53.3012 265.565L54.2943 266.339C53.4975 267.563 52.3021 268.176 50.7084 268.176ZM50.5062 259.65C49.85 259.65 49.2992 259.891 48.8539 260.371C48.4086 260.846 48.1332 261.514 48.0277 262.375H52.7914V262.252C52.7445 261.426 52.5219 260.787 52.1234 260.336C51.725 259.879 51.1859 259.65 50.5062 259.65ZM61.8781 268C61.7844 267.812 61.7082 267.479 61.6496 266.998C60.8937 267.783 59.9914 268.176 58.9426 268.176C58.0051 268.176 57.2346 267.912 56.6311 267.385C56.0334 266.852 55.7346 266.178 55.7346 265.363C55.7346 264.373 56.1096 263.605 56.8596 263.061C57.6154 262.51 58.676 262.234 60.0412 262.234H61.6232V261.487C61.6232 260.919 61.4533 260.468 61.1135 260.134C60.7736 259.794 60.2727 259.624 59.6105 259.624C59.0305 259.624 58.5441 259.771 58.1516 260.063C57.759 260.356 57.5627 260.711 57.5627 261.127H55.9279C55.9279 260.652 56.0949 260.195 56.4289 259.756C56.7687 259.311 57.2258 258.959 57.8 258.701C58.3801 258.443 59.0158 258.314 59.7072 258.314C60.8029 258.314 61.6613 258.59 62.2824 259.141C62.9035 259.686 63.2258 260.438 63.2492 261.399V265.776C63.2492 266.649 63.3605 267.344 63.5832 267.859V268H61.8781ZM59.1799 266.761C59.6896 266.761 60.173 266.629 60.6301 266.365C61.0871 266.102 61.4182 265.759 61.6232 265.337V263.386H60.3488C58.3566 263.386 57.3605 263.969 57.3605 265.135C57.3605 265.645 57.5305 266.043 57.8703 266.33C58.2102 266.617 58.6467 266.761 59.1799 266.761ZM71.0352 265.478C71.0352 265.038 70.8682 264.698 70.5342 264.458C70.2061 264.212 69.6289 264.001 68.8027 263.825C67.9824 263.649 67.3291 263.438 66.8428 263.192C66.3623 262.946 66.0049 262.653 65.7705 262.313C65.542 261.974 65.4277 261.569 65.4277 261.101C65.4277 260.321 65.7559 259.662 66.4121 259.123C67.0742 258.584 67.918 258.314 68.9434 258.314C70.0215 258.314 70.8945 258.593 71.5625 259.149C72.2363 259.706 72.5732 260.418 72.5732 261.285H70.9385C70.9385 260.84 70.748 260.456 70.3672 260.134C69.9922 259.812 69.5176 259.65 68.9434 259.65C68.3516 259.65 67.8887 259.779 67.5547 260.037C67.2207 260.295 67.0537 260.632 67.0537 261.048C67.0537 261.44 67.209 261.736 67.5195 261.936C67.8301 262.135 68.3896 262.325 69.1982 262.507C70.0127 262.688 70.6719 262.905 71.1758 263.157C71.6797 263.409 72.0518 263.714 72.292 264.071C72.5381 264.423 72.6611 264.854 72.6611 265.363C72.6611 266.213 72.3213 266.896 71.6416 267.411C70.9619 267.921 70.0801 268.176 68.9961 268.176C68.2344 268.176 67.5605 268.041 66.9746 267.771C66.3887 267.502 65.9287 267.127 65.5947 266.646C65.2666 266.16 65.1025 265.636 65.1025 265.073H66.7285C66.7578 265.618 66.9746 266.052 67.3789 266.374C67.7891 266.69 68.3281 266.849 68.9961 266.849C69.6113 266.849 70.1035 266.726 70.4727 266.479C70.8477 266.228 71.0352 265.894 71.0352 265.478ZM78.4256 268.176C77.1365 268.176 76.0877 267.754 75.2791 266.91C74.4705 266.061 74.0662 264.927 74.0662 263.509V263.21C74.0662 262.267 74.2449 261.426 74.6023 260.688C74.9656 259.943 75.4695 259.363 76.1141 258.947C76.7645 258.525 77.4676 258.314 78.2234 258.314C79.4598 258.314 80.4207 258.722 81.1062 259.536C81.7918 260.351 82.1346 261.517 82.1346 263.034V263.711H75.6922C75.7156 264.648 75.9881 265.407 76.5096 265.987C77.0369 266.562 77.7049 266.849 78.5135 266.849C79.0877 266.849 79.574 266.731 79.9725 266.497C80.3709 266.263 80.7195 265.952 81.0184 265.565L82.0115 266.339C81.2146 267.563 80.0193 268.176 78.4256 268.176ZM78.2234 259.65C77.5672 259.65 77.0164 259.891 76.5711 260.371C76.1258 260.846 75.8504 261.514 75.7449 262.375H80.5086V262.252C80.4617 261.426 80.2391 260.787 79.8406 260.336C79.4422 259.879 78.9031 259.65 78.2234 259.65ZM91.8354 268.176C90.5463 268.176 89.4975 267.754 88.6889 266.91C87.8803 266.061 87.476 264.927 87.476 263.509V263.21C87.476 262.267 87.6547 261.426 88.0121 260.688C88.3754 259.943 88.8793 259.363 89.5238 258.947C90.1742 258.525 90.8773 258.314 91.6332 258.314C92.8695 258.314 93.8305 258.722 94.516 259.536C95.2016 260.351 95.5443 261.517 95.5443 263.034V263.711H89.102C89.1254 264.648 89.3979 265.407 89.9193 265.987C90.4467 266.562 91.1146 266.849 91.9232 266.849C92.4975 266.849 92.9838 266.731 93.3822 266.497C93.7807 266.263 94.1293 265.952 94.4281 265.565L95.4213 266.339C94.6244 267.563 93.4291 268.176 91.8354 268.176ZM91.6332 259.65C90.977 259.65 90.4262 259.891 89.9809 260.371C89.5355 260.846 89.2602 261.514 89.1547 262.375H93.9184V262.252C93.8715 261.426 93.6488 260.787 93.2504 260.336C92.852 259.879 92.3129 259.65 91.6332 259.65ZM98.6721 258.49L98.7248 259.686C99.4514 258.771 100.401 258.314 101.572 258.314C103.582 258.314 104.596 259.448 104.613 261.716V268H102.987V261.707C102.982 261.021 102.823 260.515 102.513 260.187C102.208 259.858 101.731 259.694 101.08 259.694C100.553 259.694 100.09 259.835 99.6916 260.116C99.2932 260.397 98.9826 260.767 98.76 261.224V268H97.134V258.49H98.6721ZM108.972 256.188V258.49H110.747V259.747H108.972V265.645C108.972 266.025 109.051 266.312 109.209 266.506C109.367 266.693 109.637 266.787 110.018 266.787C110.205 266.787 110.463 266.752 110.791 266.682V268C110.363 268.117 109.947 268.176 109.543 268.176C108.816 268.176 108.269 267.956 107.899 267.517C107.53 267.077 107.346 266.453 107.346 265.645V259.747H105.614V258.49H107.346V256.188H108.972ZM116.301 268.176C115.012 268.176 113.963 267.754 113.154 266.91C112.346 266.061 111.941 264.927 111.941 263.509V263.21C111.941 262.267 112.12 261.426 112.477 260.688C112.841 259.943 113.345 259.363 113.989 258.947C114.639 258.525 115.343 258.314 116.098 258.314C117.335 258.314 118.296 258.722 118.981 259.536C119.667 260.351 120.01 261.517 120.01 263.034V263.711H113.567C113.591 264.648 113.863 265.407 114.385 265.987C114.912 266.562 115.58 266.849 116.388 266.849C116.963 266.849 117.449 266.731 117.847 266.497C118.246 266.263 118.595 265.952 118.893 265.565L119.887 266.339C119.09 267.563 117.894 268.176 116.301 268.176ZM116.098 259.65C115.442 259.65 114.891 259.891 114.446 260.371C114.001 260.846 113.725 261.514 113.62 262.375H118.384V262.252C118.337 261.426 118.114 260.787 117.716 260.336C117.317 259.879 116.778 259.65 116.098 259.65ZM126.196 259.949C125.95 259.908 125.683 259.888 125.396 259.888C124.33 259.888 123.606 260.342 123.225 261.25V268H121.599V258.49H123.181L123.208 259.589C123.741 258.739 124.497 258.314 125.475 258.314C125.792 258.314 126.032 258.355 126.196 258.438V259.949ZM137.435 268C137.341 267.812 137.265 267.479 137.206 266.998C136.45 267.783 135.548 268.176 134.499 268.176C133.562 268.176 132.791 267.912 132.188 267.385C131.59 266.852 131.291 266.178 131.291 265.363C131.291 264.373 131.666 263.605 132.416 263.061C133.172 262.51 134.233 262.234 135.598 262.234H137.18V261.487C137.18 260.919 137.01 260.468 136.67 260.134C136.33 259.794 135.829 259.624 135.167 259.624C134.587 259.624 134.101 259.771 133.708 260.063C133.316 260.356 133.119 260.711 133.119 261.127H131.485C131.485 260.652 131.652 260.195 131.986 259.756C132.325 259.311 132.782 258.959 133.357 258.701C133.937 258.443 134.572 258.314 135.264 258.314C136.36 258.314 137.218 258.59 137.839 259.141C138.46 259.686 138.782 260.438 138.806 261.399V265.776C138.806 266.649 138.917 267.344 139.14 267.859V268H137.435ZM134.737 266.761C135.246 266.761 135.73 266.629 136.187 266.365C136.644 266.102 136.975 265.759 137.18 265.337V263.386H135.905C133.913 263.386 132.917 263.969 132.917 265.135C132.917 265.645 133.087 266.043 133.427 266.33C133.767 266.617 134.203 266.761 134.737 266.761ZM146.758 258.49L146.81 259.686C147.537 258.771 148.486 258.314 149.658 258.314C151.668 258.314 152.681 259.448 152.699 261.716V268H151.073V261.707C151.067 261.021 150.909 260.515 150.598 260.187C150.294 259.858 149.816 259.694 149.166 259.694C148.638 259.694 148.176 259.835 147.777 260.116C147.379 260.397 147.068 260.767 146.846 261.224V268H145.22V258.49H146.758ZM158.797 268.176C157.508 268.176 156.46 267.754 155.651 266.91C154.842 266.061 154.438 264.927 154.438 263.509V263.21C154.438 262.267 154.617 261.426 154.974 260.688C155.337 259.943 155.841 259.363 156.486 258.947C157.136 258.525 157.839 258.314 158.595 258.314C159.832 258.314 160.793 258.722 161.478 259.536C162.164 260.351 162.506 261.517 162.506 263.034V263.711H156.064C156.087 264.648 156.36 265.407 156.881 265.987C157.409 266.562 158.077 266.849 158.885 266.849C159.46 266.849 159.946 266.731 160.344 266.497C160.743 266.263 161.091 265.952 161.39 265.565L162.383 266.339C161.587 267.563 160.391 268.176 158.797 268.176ZM158.595 259.65C157.939 259.65 157.388 259.891 156.943 260.371C156.498 260.846 156.222 261.514 156.117 262.375H160.88V262.252C160.834 261.426 160.611 260.787 160.212 260.336C159.814 259.879 159.275 259.65 158.595 259.65ZM172.516 265.759L174.344 258.49H175.97L173.202 268H171.883L169.572 260.793L167.322 268H166.003L163.244 258.49H164.861L166.733 265.609L168.948 258.49H170.257L172.516 265.759ZM189.529 263.351C189.529 264.798 189.198 265.964 188.536 266.849C187.874 267.733 186.978 268.176 185.847 268.176C184.692 268.176 183.784 267.81 183.122 267.077V271.656H181.496V258.49H182.981L183.061 259.545C183.723 258.725 184.643 258.314 185.82 258.314C186.963 258.314 187.865 258.745 188.527 259.606C189.195 260.468 189.529 261.666 189.529 263.201V263.351ZM187.903 263.166C187.903 262.094 187.675 261.247 187.218 260.626C186.761 260.005 186.134 259.694 185.337 259.694C184.353 259.694 183.614 260.131 183.122 261.004V265.548C183.608 266.415 184.353 266.849 185.354 266.849C186.134 266.849 186.752 266.541 187.209 265.926C187.672 265.305 187.903 264.385 187.903 263.166ZM197.175 268C197.081 267.812 197.005 267.479 196.946 266.998C196.19 267.783 195.288 268.176 194.239 268.176C193.302 268.176 192.531 267.912 191.928 267.385C191.33 266.852 191.031 266.178 191.031 265.363C191.031 264.373 191.406 263.605 192.156 263.061C192.912 262.51 193.972 262.234 195.338 262.234H196.92V261.487C196.92 260.919 196.75 260.468 196.41 260.134C196.07 259.794 195.569 259.624 194.907 259.624C194.327 259.624 193.841 259.771 193.448 260.063C193.055 260.356 192.859 260.711 192.859 261.127H191.224C191.224 260.652 191.391 260.195 191.725 259.756C192.065 259.311 192.522 258.959 193.096 258.701C193.677 258.443 194.312 258.314 195.004 258.314C196.099 258.314 196.958 258.59 197.579 259.141C198.2 259.686 198.522 260.438 198.546 261.399V265.776C198.546 266.649 198.657 267.344 198.88 267.859V268H197.175ZM194.476 266.761C194.986 266.761 195.47 266.629 195.927 266.365C196.384 266.102 196.715 265.759 196.92 265.337V263.386H195.645C193.653 263.386 192.657 263.969 192.657 265.135C192.657 265.645 192.827 266.043 193.167 266.33C193.507 266.617 193.943 266.761 194.476 266.761ZM206.332 265.478C206.332 265.038 206.165 264.698 205.831 264.458C205.503 264.212 204.925 264.001 204.099 263.825C203.279 263.649 202.626 263.438 202.139 263.192C201.659 262.946 201.301 262.653 201.067 262.313C200.838 261.974 200.724 261.569 200.724 261.101C200.724 260.321 201.052 259.662 201.709 259.123C202.371 258.584 203.214 258.314 204.24 258.314C205.318 258.314 206.191 258.593 206.859 259.149C207.533 259.706 207.87 260.418 207.87 261.285H206.235C206.235 260.84 206.045 260.456 205.664 260.134C205.289 259.812 204.814 259.65 204.24 259.65C203.648 259.65 203.185 259.779 202.851 260.037C202.517 260.295 202.35 260.632 202.35 261.048C202.35 261.44 202.505 261.736 202.816 261.936C203.127 262.135 203.686 262.325 204.495 262.507C205.309 262.688 205.968 262.905 206.472 263.157C206.976 263.409 207.348 263.714 207.588 264.071C207.835 264.423 207.958 264.854 207.958 265.363C207.958 266.213 207.618 266.896 206.938 267.411C206.258 267.921 205.377 268.176 204.293 268.176C203.531 268.176 202.857 268.041 202.271 267.771C201.685 267.502 201.225 267.127 200.891 266.646C200.563 266.16 200.399 265.636 200.399 265.073H202.025C202.054 265.618 202.271 266.052 202.675 266.374C203.086 266.69 203.625 266.849 204.293 266.849C204.908 266.849 205.4 266.726 205.769 266.479C206.144 266.228 206.332 265.894 206.332 265.478ZM215.313 265.478C215.313 265.038 215.146 264.698 214.812 264.458C214.484 264.212 213.907 264.001 213.08 263.825C212.26 263.649 211.607 263.438 211.12 263.192C210.64 262.946 210.283 262.653 210.048 262.313C209.82 261.974 209.705 261.569 209.705 261.101C209.705 260.321 210.034 259.662 210.69 259.123C211.352 258.584 212.196 258.314 213.221 258.314C214.299 258.314 215.172 258.593 215.84 259.149C216.514 259.706 216.851 260.418 216.851 261.285H215.216C215.216 260.84 215.026 260.456 214.645 260.134C214.27 259.812 213.795 259.65 213.221 259.65C212.629 259.65 212.166 259.779 211.832 260.037C211.498 260.295 211.331 260.632 211.331 261.048C211.331 261.44 211.487 261.736 211.797 261.936C212.108 262.135 212.667 262.325 213.476 262.507C214.29 262.688 214.95 262.905 215.454 263.157C215.957 263.409 216.329 263.714 216.57 264.071C216.816 264.423 216.939 264.854 216.939 265.363C216.939 266.213 216.599 266.896 215.919 267.411C215.24 267.921 214.358 268.176 213.274 268.176C212.512 268.176 211.838 268.041 211.252 267.771C210.666 267.502 210.206 267.127 209.872 266.646C209.544 266.16 209.38 265.636 209.38 265.073H211.006C211.036 265.618 211.252 266.052 211.657 266.374C212.067 266.69 212.606 266.849 213.274 266.849C213.889 266.849 214.381 266.726 214.75 266.479C215.125 266.228 215.313 265.894 215.313 265.478ZM227.177 265.759L229.005 258.49H230.631L227.863 268H226.544L224.233 260.793L221.983 268H220.664L217.904 258.49H219.522L221.394 265.609L223.609 258.49H224.918L227.177 265.759ZM231.562 263.157C231.562 262.226 231.743 261.388 232.106 260.644C232.476 259.899 232.985 259.325 233.636 258.921C234.292 258.517 235.039 258.314 235.877 258.314C237.172 258.314 238.218 258.763 239.015 259.659C239.817 260.556 240.219 261.748 240.219 263.236V263.351C240.219 264.276 240.04 265.108 239.683 265.847C239.331 266.579 238.824 267.15 238.162 267.561C237.506 267.971 236.75 268.176 235.895 268.176C234.605 268.176 233.56 267.728 232.757 266.831C231.96 265.935 231.562 264.748 231.562 263.271V263.157ZM233.196 263.351C233.196 264.405 233.439 265.252 233.926 265.891C234.418 266.529 235.074 266.849 235.895 266.849C236.721 266.849 237.377 266.526 237.863 265.882C238.35 265.231 238.593 264.323 238.593 263.157C238.593 262.114 238.344 261.271 237.846 260.626C237.354 259.976 236.697 259.65 235.877 259.65C235.074 259.65 234.427 259.97 233.935 260.608C233.442 261.247 233.196 262.161 233.196 263.351ZM246.554 259.949C246.308 259.908 246.042 259.888 245.755 259.888C244.688 259.888 243.965 260.342 243.584 261.25V268H241.958V258.49H243.54L243.566 259.589C244.099 258.739 244.855 258.314 245.834 258.314C246.15 258.314 246.39 258.355 246.554 258.438V259.949ZM247.186 263.166C247.186 261.707 247.532 260.535 248.223 259.65C248.915 258.76 249.82 258.314 250.939 258.314C252.052 258.314 252.934 258.695 253.585 259.457V254.5H255.211V268H253.716L253.637 266.98C252.987 267.777 252.082 268.176 250.921 268.176C249.82 268.176 248.921 267.725 248.223 266.822C247.532 265.92 247.186 264.742 247.186 263.289V263.166ZM248.812 263.351C248.812 264.429 249.035 265.272 249.48 265.882C249.925 266.491 250.541 266.796 251.326 266.796C252.357 266.796 253.11 266.333 253.585 265.407V261.039C253.098 260.143 252.351 259.694 251.343 259.694C250.546 259.694 249.925 260.002 249.48 260.617C249.035 261.232 248.812 262.144 248.812 263.351ZM263.813 256.188V258.49H265.588V259.747H263.813V265.645C263.813 266.025 263.892 266.312 264.05 266.506C264.208 266.693 264.478 266.787 264.859 266.787C265.046 266.787 265.304 266.752 265.632 266.682V268C265.204 268.117 264.788 268.176 264.384 268.176C263.657 268.176 263.11 267.956 262.74 267.517C262.371 267.077 262.187 266.453 262.187 265.645V259.747H260.455V258.49H262.187V256.188H263.813ZM266.589 263.157C266.589 262.226 266.771 261.388 267.134 260.644C267.503 259.899 268.013 259.325 268.663 258.921C269.319 258.517 270.066 258.314 270.904 258.314C272.199 258.314 273.245 258.763 274.042 259.659C274.845 260.556 275.246 261.748 275.246 263.236V263.351C275.246 264.276 275.067 265.108 274.71 265.847C274.358 266.579 273.852 267.15 273.189 267.561C272.533 267.971 271.777 268.176 270.922 268.176C269.633 268.176 268.587 267.728 267.784 266.831C266.987 265.935 266.589 264.748 266.589 263.271V263.157ZM268.224 263.351C268.224 264.405 268.467 265.252 268.953 265.891C269.445 266.529 270.102 266.849 270.922 266.849C271.748 266.849 272.404 266.526 272.891 265.882C273.377 265.231 273.62 264.323 273.62 263.157C273.62 262.114 273.371 261.271 272.873 260.626C272.381 259.976 271.725 259.65 270.904 259.65C270.102 259.65 269.454 259.97 268.962 260.608C268.47 261.247 268.224 262.161 268.224 263.351ZM289.201 263.351C289.201 264.804 288.867 265.973 288.199 266.857C287.531 267.736 286.634 268.176 285.509 268.176C284.308 268.176 283.379 267.751 282.723 266.901L282.644 268H281.15V254.5H282.776V259.536C283.432 258.722 284.337 258.314 285.492 258.314C286.646 258.314 287.551 258.751 288.208 259.624C288.87 260.497 289.201 261.692 289.201 263.21V263.351ZM287.575 263.166C287.575 262.059 287.361 261.203 286.933 260.6C286.505 259.996 285.89 259.694 285.087 259.694C284.015 259.694 283.245 260.192 282.776 261.188V265.302C283.274 266.298 284.05 266.796 285.105 266.796C285.884 266.796 286.491 266.494 286.924 265.891C287.358 265.287 287.575 264.379 287.575 263.166ZM294.904 268.176C293.615 268.176 292.566 267.754 291.757 266.91C290.949 266.061 290.544 264.927 290.544 263.509V263.21C290.544 262.267 290.723 261.426 291.08 260.688C291.444 259.943 291.948 259.363 292.592 258.947C293.243 258.525 293.946 258.314 294.702 258.314C295.938 258.314 296.899 258.722 297.584 259.536C298.27 260.351 298.613 261.517 298.613 263.034V263.711H292.17C292.194 264.648 292.466 265.407 292.988 265.987C293.515 266.562 294.183 266.849 294.992 266.849C295.566 266.849 296.052 266.731 296.451 266.497C296.849 266.263 297.198 265.952 297.496 265.565L298.49 266.339C297.693 267.563 296.497 268.176 294.904 268.176ZM294.702 259.65C294.045 259.65 293.495 259.891 293.049 260.371C292.604 260.846 292.328 261.514 292.223 262.375H296.987V262.252C296.94 261.426 296.717 260.787 296.319 260.336C295.92 259.879 295.381 259.65 294.702 259.65ZM310.238 267.06C309.605 267.804 308.677 268.176 307.452 268.176C306.438 268.176 305.665 267.883 305.132 267.297C304.604 266.705 304.338 265.832 304.332 264.678V258.49H305.958V264.634C305.958 266.075 306.544 266.796 307.716 266.796C308.958 266.796 309.784 266.333 310.194 265.407V258.49H311.82V268H310.273L310.238 267.06ZM319.536 265.478C319.536 265.038 319.369 264.698 319.035 264.458C318.707 264.212 318.13 264.001 317.304 263.825C316.483 263.649 315.83 263.438 315.344 263.192C314.863 262.946 314.506 262.653 314.271 262.313C314.043 261.974 313.929 261.569 313.929 261.101C313.929 260.321 314.257 259.662 314.913 259.123C315.575 258.584 316.419 258.314 317.444 258.314C318.522 258.314 319.395 258.593 320.063 259.149C320.737 259.706 321.074 260.418 321.074 261.285H319.439C319.439 260.84 319.249 260.456 318.868 260.134C318.493 259.812 318.018 259.65 317.444 259.65C316.852 259.65 316.389 259.779 316.055 260.037C315.721 260.295 315.555 260.632 315.555 261.048C315.555 261.44 315.71 261.736 316.02 261.936C316.331 262.135 316.89 262.325 317.699 262.507C318.513 262.688 319.173 262.905 319.677 263.157C320.18 263.409 320.553 263.714 320.793 264.071C321.039 264.423 321.162 264.854 321.162 265.363C321.162 266.213 320.822 266.896 320.142 267.411C319.463 267.921 318.581 268.176 317.497 268.176C316.735 268.176 316.061 268.041 315.475 267.771C314.889 267.502 314.43 267.127 314.096 266.646C313.767 266.16 313.603 265.636 313.603 265.073H315.229C315.259 265.618 315.475 266.052 315.88 266.374C316.29 266.69 316.829 266.849 317.497 266.849C318.112 266.849 318.604 266.726 318.973 266.479C319.348 266.228 319.536 265.894 319.536 265.478ZM326.926 268.176C325.637 268.176 324.589 267.754 323.78 266.91C322.971 266.061 322.567 264.927 322.567 263.509V263.21C322.567 262.267 322.746 261.426 323.103 260.688C323.466 259.943 323.97 259.363 324.615 258.947C325.265 258.525 325.968 258.314 326.724 258.314C327.961 258.314 328.922 258.722 329.607 259.536C330.293 260.351 330.635 261.517 330.635 263.034V263.711H324.193C324.216 264.648 324.489 265.407 325.01 265.987C325.538 266.562 326.206 266.849 327.014 266.849C327.589 266.849 328.075 266.731 328.473 266.497C328.872 266.263 329.22 265.952 329.519 265.565L330.512 266.339C329.715 267.563 328.52 268.176 326.926 268.176ZM326.724 259.65C326.068 259.65 325.517 259.891 325.072 260.371C324.627 260.846 324.351 261.514 324.246 262.375H329.009V262.252C328.963 261.426 328.74 260.787 328.341 260.336C327.943 259.879 327.404 259.65 326.724 259.65ZM331.829 263.166C331.829 261.707 332.175 260.535 332.867 259.65C333.558 258.76 334.463 258.314 335.582 258.314C336.696 258.314 337.578 258.695 338.228 259.457V254.5H339.854V268H338.36L338.281 266.98C337.63 267.777 336.725 268.176 335.565 268.176C334.463 268.176 333.564 267.725 332.867 266.822C332.175 265.92 331.829 264.742 331.829 263.289V263.166ZM333.455 263.351C333.455 264.429 333.678 265.272 334.123 265.882C334.569 266.491 335.184 266.796 335.969 266.796C337 266.796 337.753 266.333 338.228 265.407V261.039C337.742 260.143 336.995 259.694 335.987 259.694C335.19 259.694 334.569 260.002 334.123 260.617C333.678 261.232 333.455 262.144 333.455 263.351ZM342.12 267.147C342.12 266.866 342.202 266.632 342.366 266.444C342.536 266.257 342.788 266.163 343.122 266.163C343.456 266.163 343.708 266.257 343.878 266.444C344.054 266.632 344.142 266.866 344.142 267.147C344.142 267.417 344.054 267.643 343.878 267.824C343.708 268.006 343.456 268.097 343.122 268.097C342.788 268.097 342.536 268.006 342.366 267.824C342.202 267.643 342.12 267.417 342.12 267.147Z" fill="black"/>
<rect x="19.5" y="326.5" width="339" height="49" stroke="#7B7B7B"/>
<path d="M116 430C116 422.268 122.268 416 130 416H247C254.732 416 261 422.268 261 430V452C261 459.732 254.732 466 247 466H130C122.268 466 116 459.732 116 452V430Z" fill="#7B7B7B"/>
<path d="M153.479 352.99V358H151.791V345.203H156.511C157.911 345.203 159.007 345.561 159.798 346.275C160.595 346.99 160.993 347.937 160.993 349.114C160.993 350.356 160.604 351.314 159.824 351.988C159.051 352.656 157.941 352.99 156.493 352.99H153.479ZM153.479 351.61H156.511C157.413 351.61 158.105 351.399 158.585 350.978C159.066 350.55 159.306 349.935 159.306 349.132C159.306 348.37 159.066 347.761 158.585 347.304C158.105 346.847 157.446 346.609 156.608 346.592H153.479V351.61ZM168.357 358C168.264 357.812 168.187 357.479 168.129 356.998C167.373 357.783 166.471 358.176 165.422 358.176C164.484 358.176 163.714 357.912 163.11 357.385C162.513 356.852 162.214 356.178 162.214 355.363C162.214 354.373 162.589 353.605 163.339 353.061C164.095 352.51 165.155 352.234 166.521 352.234H168.103V351.487C168.103 350.919 167.933 350.468 167.593 350.134C167.253 349.794 166.752 349.624 166.09 349.624C165.51 349.624 165.023 349.771 164.631 350.063C164.238 350.356 164.042 350.711 164.042 351.127H162.407C162.407 350.652 162.574 350.195 162.908 349.756C163.248 349.311 163.705 348.959 164.279 348.701C164.859 348.443 165.495 348.314 166.187 348.314C167.282 348.314 168.141 348.59 168.762 349.141C169.383 349.686 169.705 350.438 169.729 351.399V355.776C169.729 356.649 169.84 357.344 170.062 357.859V358H168.357ZM165.659 356.761C166.169 356.761 166.652 356.629 167.109 356.365C167.566 356.102 167.897 355.759 168.103 355.337V353.386H166.828C164.836 353.386 163.84 353.969 163.84 355.135C163.84 355.645 164.01 356.043 164.35 356.33C164.689 356.617 165.126 356.761 165.659 356.761ZM177.514 355.478C177.514 355.038 177.347 354.698 177.013 354.458C176.685 354.212 176.108 354.001 175.282 353.825C174.462 353.649 173.808 353.438 173.322 353.192C172.842 352.946 172.484 352.653 172.25 352.313C172.021 351.974 171.907 351.569 171.907 351.101C171.907 350.321 172.235 349.662 172.891 349.123C173.554 348.584 174.397 348.314 175.423 348.314C176.501 348.314 177.374 348.593 178.042 349.149C178.716 349.706 179.053 350.418 179.053 351.285H177.418C177.418 350.84 177.227 350.456 176.846 350.134C176.471 349.812 175.997 349.65 175.423 349.65C174.831 349.65 174.368 349.779 174.034 350.037C173.7 350.295 173.533 350.632 173.533 351.048C173.533 351.44 173.688 351.736 173.999 351.936C174.309 352.135 174.869 352.325 175.678 352.507C176.492 352.688 177.151 352.905 177.655 353.157C178.159 353.409 178.531 353.714 178.771 354.071C179.017 354.423 179.14 354.854 179.14 355.363C179.14 356.213 178.801 356.896 178.121 357.411C177.441 357.921 176.559 358.176 175.475 358.176C174.714 358.176 174.04 358.041 173.454 357.771C172.868 357.502 172.408 357.127 172.074 356.646C171.746 356.16 171.582 355.636 171.582 355.073H173.208C173.237 355.618 173.454 356.052 173.858 356.374C174.268 356.69 174.807 356.849 175.475 356.849C176.091 356.849 176.583 356.726 176.952 356.479C177.327 356.228 177.514 355.894 177.514 355.478ZM186.496 355.478C186.496 355.038 186.329 354.698 185.995 354.458C185.667 354.212 185.089 354.001 184.263 353.825C183.443 353.649 182.79 353.438 182.303 353.192C181.823 352.946 181.465 352.653 181.231 352.313C181.003 351.974 180.888 351.569 180.888 351.101C180.888 350.321 181.216 349.662 181.873 349.123C182.535 348.584 183.379 348.314 184.404 348.314C185.482 348.314 186.355 348.593 187.023 349.149C187.697 349.706 188.034 350.418 188.034 351.285H186.399C186.399 350.84 186.209 350.456 185.828 350.134C185.453 349.812 184.978 349.65 184.404 349.65C183.812 349.65 183.349 349.779 183.015 350.037C182.681 350.295 182.514 350.632 182.514 351.048C182.514 351.44 182.67 351.736 182.98 351.936C183.291 352.135 183.85 352.325 184.659 352.507C185.473 352.688 186.132 352.905 186.636 353.157C187.14 353.409 187.512 353.714 187.753 354.071C187.999 354.423 188.122 354.854 188.122 355.363C188.122 356.213 187.782 356.896 187.102 357.411C186.422 357.921 185.541 358.176 184.457 358.176C183.695 358.176 183.021 358.041 182.435 357.771C181.849 357.502 181.389 357.127 181.055 356.646C180.727 356.16 180.563 355.636 180.563 355.073H182.189C182.218 355.618 182.435 356.052 182.839 356.374C183.25 356.69 183.789 356.849 184.457 356.849C185.072 356.849 185.564 356.726 185.933 356.479C186.308 356.228 186.496 355.894 186.496 355.478ZM198.36 355.759L200.188 348.49H201.814L199.045 358H197.727L195.415 350.793L193.165 358H191.847L189.087 348.49H190.704L192.577 355.609L194.791 348.49H196.101L198.36 355.759ZM202.744 353.157C202.744 352.226 202.926 351.388 203.289 350.644C203.658 349.899 204.168 349.325 204.819 348.921C205.475 348.517 206.222 348.314 207.06 348.314C208.355 348.314 209.401 348.763 210.197 349.659C211 350.556 211.402 351.748 211.402 353.236V353.351C211.402 354.276 211.223 355.108 210.865 355.847C210.514 356.579 210.007 357.15 209.345 357.561C208.689 357.971 207.933 358.176 207.077 358.176C205.788 358.176 204.742 357.728 203.94 356.831C203.143 355.935 202.744 354.748 202.744 353.271V353.157ZM204.379 353.351C204.379 354.405 204.622 355.252 205.109 355.891C205.601 356.529 206.257 356.849 207.077 356.849C207.904 356.849 208.56 356.526 209.046 355.882C209.532 355.231 209.776 354.323 209.776 353.157C209.776 352.114 209.527 351.271 209.029 350.626C208.536 349.976 207.88 349.65 207.06 349.65C206.257 349.65 205.61 349.97 205.117 350.608C204.625 351.247 204.379 352.161 204.379 353.351ZM217.737 349.949C217.491 349.908 217.225 349.888 216.938 349.888C215.871 349.888 215.147 350.342 214.767 351.25V358H213.141V348.49H214.723L214.749 349.589C215.282 348.739 216.038 348.314 217.017 348.314C217.333 348.314 217.573 348.355 217.737 348.438V349.949ZM218.369 353.166C218.369 351.707 218.715 350.535 219.406 349.65C220.097 348.76 221.003 348.314 222.122 348.314C223.235 348.314 224.117 348.695 224.767 349.457V344.5H226.393V358H224.899L224.82 356.98C224.17 357.777 223.264 358.176 222.104 358.176C221.003 358.176 220.103 357.725 219.406 356.822C218.715 355.92 218.369 354.742 218.369 353.289V353.166ZM219.995 353.351C219.995 354.429 220.218 355.272 220.663 355.882C221.108 356.491 221.723 356.796 222.509 356.796C223.54 356.796 224.293 356.333 224.767 355.407V351.039C224.281 350.143 223.534 349.694 222.526 349.694C221.729 349.694 221.108 350.002 220.663 350.617C220.218 351.232 219.995 352.144 219.995 353.351Z" fill="black"/>
<path d="M165.334 443.737C165.235 445.114 164.725 446.198 163.805 446.989C162.891 447.78 161.684 448.176 160.184 448.176C158.543 448.176 157.251 447.625 156.308 446.523C155.37 445.416 154.902 443.898 154.902 441.971V441.188C154.902 439.958 155.118 438.874 155.552 437.937C155.986 436.999 156.604 436.281 157.406 435.783C158.215 435.279 159.153 435.027 160.219 435.027C161.696 435.027 162.885 435.423 163.787 436.214C164.69 437.005 165.211 438.115 165.352 439.545H162.715C162.651 438.719 162.419 438.121 162.021 437.752C161.628 437.377 161.028 437.189 160.219 437.189C159.34 437.189 158.681 437.506 158.241 438.139C157.808 438.766 157.585 439.741 157.573 441.065V442.032C157.573 443.415 157.781 444.426 158.197 445.064C158.619 445.703 159.281 446.022 160.184 446.022C160.998 446.022 161.605 445.838 162.003 445.469C162.407 445.094 162.639 444.517 162.697 443.737H165.334ZM166.203 443.157C166.203 442.214 166.385 441.373 166.748 440.635C167.111 439.896 167.633 439.325 168.312 438.921C168.998 438.517 169.792 438.314 170.694 438.314C171.978 438.314 173.023 438.707 173.832 439.492C174.646 440.277 175.101 441.344 175.194 442.691L175.212 443.342C175.212 444.801 174.805 445.973 173.99 446.857C173.176 447.736 172.083 448.176 170.712 448.176C169.341 448.176 168.245 447.736 167.425 446.857C166.61 445.979 166.203 444.783 166.203 443.271V443.157ZM168.743 443.342C168.743 444.244 168.913 444.936 169.253 445.416C169.593 445.891 170.079 446.128 170.712 446.128C171.327 446.128 171.808 445.894 172.153 445.425C172.499 444.95 172.672 444.194 172.672 443.157C172.672 442.272 172.499 441.587 172.153 441.101C171.808 440.614 171.321 440.371 170.694 440.371C170.073 440.371 169.593 440.614 169.253 441.101C168.913 441.581 168.743 442.328 168.743 443.342ZM178.814 438.49L178.893 439.589C179.573 438.739 180.484 438.314 181.627 438.314C182.635 438.314 183.385 438.61 183.877 439.202C184.369 439.794 184.621 440.679 184.633 441.856V448H182.093V441.918C182.093 441.379 181.975 440.989 181.741 440.749C181.507 440.503 181.117 440.38 180.572 440.38C179.857 440.38 179.321 440.685 178.964 441.294V448H176.424V438.49H178.814ZM189.307 436.152V438.49H190.933V440.354H189.307V445.1C189.307 445.451 189.375 445.703 189.509 445.855C189.644 446.008 189.902 446.084 190.283 446.084C190.564 446.084 190.813 446.063 191.03 446.022V447.947C190.532 448.1 190.019 448.176 189.492 448.176C187.711 448.176 186.802 447.276 186.767 445.478V440.354H185.379V438.49H186.767V436.152H189.307ZM194.729 448H192.18V438.49H194.729V448ZM192.031 436.029C192.031 435.648 192.157 435.335 192.409 435.089C192.666 434.843 193.015 434.72 193.454 434.72C193.888 434.72 194.234 434.843 194.492 435.089C194.749 435.335 194.878 435.648 194.878 436.029C194.878 436.416 194.746 436.732 194.483 436.979C194.225 437.225 193.882 437.348 193.454 437.348C193.027 437.348 192.681 437.225 192.417 436.979C192.16 436.732 192.031 436.416 192.031 436.029ZM198.867 438.49L198.946 439.589C199.626 438.739 200.537 438.314 201.68 438.314C202.688 438.314 203.438 438.61 203.93 439.202C204.422 439.794 204.674 440.679 204.686 441.856V448H202.146V441.918C202.146 441.379 202.029 440.989 201.794 440.749C201.56 440.503 201.17 440.38 200.625 440.38C199.91 440.38 199.374 440.685 199.017 441.294V448H196.477V438.49H198.867ZM212.015 447.033C211.388 447.795 210.521 448.176 209.413 448.176C208.394 448.176 207.614 447.883 207.075 447.297C206.542 446.711 206.27 445.853 206.258 444.722V438.49H208.798V444.634C208.798 445.624 209.249 446.119 210.151 446.119C211.013 446.119 211.604 445.82 211.927 445.223V438.49H214.476V448H212.085L212.015 447.033ZM220.469 448.176C219.074 448.176 217.937 447.748 217.058 446.893C216.185 446.037 215.749 444.897 215.749 443.474V443.228C215.749 442.272 215.933 441.42 216.303 440.67C216.672 439.914 217.193 439.334 217.867 438.93C218.547 438.52 219.32 438.314 220.187 438.314C221.488 438.314 222.511 438.725 223.255 439.545C224.005 440.365 224.38 441.528 224.38 443.034V444.071H218.324C218.406 444.692 218.652 445.19 219.062 445.565C219.478 445.94 220.003 446.128 220.636 446.128C221.614 446.128 222.379 445.773 222.929 445.064L224.178 446.462C223.797 447.001 223.281 447.423 222.631 447.728C221.98 448.026 221.26 448.176 220.469 448.176ZM220.179 440.371C219.675 440.371 219.264 440.541 218.948 440.881C218.638 441.221 218.438 441.707 218.35 442.34H221.884V442.138C221.872 441.575 221.72 441.142 221.427 440.837C221.134 440.526 220.718 440.371 220.179 440.371Z" fill="white"/>
</g>
<rect x="0.5" y="0.5" width="376" height="813" stroke="black"/>
<defs>
<clipPath id="clip0_27_3818">
<rect x="1" y="1" width="375" height="812" fill="white"/>
</clipPath>
<clipPath id="clip1_27_3818">
<rect width="74" height="74" fill="white" transform="translate(152 126)"/>
</clipPath>
</defs>
</svg>
