<svg width="377" height="814" viewBox="0 0 377 814" fill="none" xmlns="http://www.w3.org/2000/svg">
<g clip-path="url(#clip0_7_1444)">
<rect x="1" y="1" width="375" height="812" fill="white"/>
<path d="M38.2146 18.1675C35.9222 18.1675 34.2889 19.7349 34.2889 21.8809V21.8955C34.2889 23.9023 35.7098 25.3818 37.7386 25.3818C39.1888 25.3818 40.1116 24.6421 40.4998 23.8071H40.6463C40.6463 23.8877 40.639 23.9683 40.639 24.0488C40.5584 26.0703 39.8479 27.7109 38.1707 27.7109C37.2405 27.7109 36.5887 27.2275 36.3104 26.4878L36.2884 26.4146H34.428L34.4427 26.4951C34.7796 28.1138 36.2298 29.2637 38.1707 29.2637C40.8294 29.2637 42.4334 27.1543 42.4334 23.5947V23.5801C42.4334 19.7715 40.4705 18.1675 38.2146 18.1675ZM38.2073 23.9316C37.0062 23.9316 36.1346 23.0527 36.1346 21.8296V21.8149C36.1346 20.6357 37.0647 19.7056 38.2293 19.7056C39.4012 19.7056 40.3167 20.6504 40.3167 21.8589V21.8735C40.3167 23.0674 39.4012 23.9316 38.2073 23.9316ZM45.4586 22.1519C46.1324 22.1519 46.6231 21.6392 46.6231 20.9946C46.6231 20.3428 46.1324 19.8374 45.4586 19.8374C44.7921 19.8374 44.294 20.3428 44.294 20.9946C44.294 21.6392 44.7921 22.1519 45.4586 22.1519ZM45.4586 27.5864C46.1324 27.5864 46.6231 27.0811 46.6231 26.4292C46.6231 25.7773 46.1324 25.272 45.4586 25.272C44.7921 25.272 44.294 25.7773 44.294 26.4292C44.294 27.0811 44.7921 27.5864 45.4586 27.5864ZM53.6107 29H55.4198V26.9712H56.8407V25.4111H55.4198V18.4312H52.7465C51.3109 20.6138 49.8095 23.0454 48.4398 25.4258V26.9712H53.6107V29ZM50.1977 25.4551V25.3452C51.223 23.5508 52.4462 21.5952 53.5302 19.9399H53.64V25.4551H50.1977ZM60.9206 29H62.8103V18.4312H60.9279L58.1667 20.3721V22.1519L60.7961 20.2915H60.9206V29Z" fill="black"/>
<rect opacity="0.35" x="337.833" y="18.8333" width="21" height="10.3333" rx="2.16667" stroke="black"/>
<path opacity="0.4" d="M360.333 22V26C361.138 25.6612 361.661 24.8731 361.661 24C361.661 23.1269 361.138 22.3388 360.333 22Z" fill="black"/>
<rect x="339.333" y="20.3333" width="18" height="7.33333" rx="1.33333" fill="black"/>
<path fill-rule="evenodd" clip-rule="evenodd" d="M324.667 20.615C326.892 20.6151 329.031 21.4693 330.644 23.0008C330.765 23.1191 330.959 23.1176 331.079 22.9975L332.239 21.8272C332.3 21.7663 332.334 21.6837 332.333 21.5979C332.333 21.5121 332.298 21.4299 332.237 21.3697C328.005 17.3175 321.329 17.3175 317.097 21.3697C317.035 21.4299 317.001 21.512 317 21.5978C316.999 21.6837 317.033 21.7662 317.094 21.8272L318.255 22.9975C318.374 23.1178 318.568 23.1193 318.69 23.0008C320.302 21.4692 322.442 20.615 324.667 20.615ZM324.667 24.4226C325.889 24.4226 327.068 24.8765 327.974 25.6963C328.097 25.8126 328.29 25.8101 328.409 25.6906L329.569 24.5203C329.63 24.4589 329.663 24.3756 329.663 24.2891C329.662 24.2025 329.626 24.12 329.564 24.0598C326.805 21.4954 322.532 21.4954 319.773 24.0598C319.71 24.12 319.675 24.2026 319.674 24.2891C319.673 24.3757 319.707 24.459 319.768 24.5203L320.927 25.6906C321.047 25.8101 321.24 25.8126 321.362 25.6963C322.268 24.877 323.446 24.4231 324.667 24.4226ZM326.989 26.9845C326.991 27.0712 326.957 27.1549 326.895 27.2157L324.89 29.2377C324.831 29.2971 324.751 29.3306 324.667 29.3306C324.583 29.3306 324.503 29.2971 324.445 29.2377L322.439 27.2157C322.377 27.1549 322.343 27.0712 322.345 26.9844C322.347 26.8976 322.384 26.8154 322.449 26.7573C323.729 25.675 325.605 25.675 326.886 26.7573C326.95 26.8155 326.988 26.8977 326.989 26.9845Z" fill="black"/>
<path fill-rule="evenodd" clip-rule="evenodd" d="M311 18.6667H310C309.448 18.6667 309 19.1145 309 19.6667V28.3334C309 28.8857 309.448 29.3334 310 29.3334H311C311.552 29.3334 312 28.8857 312 28.3334V19.6667C312 19.1145 311.552 18.6667 311 18.6667ZM305.333 21.0001H306.333C306.886 21.0001 307.333 21.4478 307.333 22.0001V28.3334C307.333 28.8857 306.886 29.3334 306.333 29.3334H305.333C304.781 29.3334 304.333 28.8857 304.333 28.3334V22.0001C304.333 21.4478 304.781 21.0001 305.333 21.0001ZM301.667 23.3334H300.667C300.114 23.3334 299.667 23.7811 299.667 24.3334V28.3334C299.667 28.8857 300.114 29.3334 300.667 29.3334H301.667C302.219 29.3334 302.667 28.8857 302.667 28.3334V24.3334C302.667 23.7811 302.219 23.3334 301.667 23.3334ZM297 25.3334H296C295.448 25.3334 295 25.7811 295 26.3334V28.3334C295 28.8857 295.448 29.3334 296 29.3334H297C297.552 29.3334 298 28.8857 298 28.3334V26.3334C298 25.7811 297.552 25.3334 297 25.3334Z" fill="black"/>
<path d="M22 324C22 316.268 28.268 310 36 310H345C352.732 310 359 316.268 359 324V489C359 496.732 352.732 503 345 503H36C28.268 503 22 496.732 22 489V324Z" fill="#C4C4C4"/>
<path d="M22.5 428.089H190V502.5H36C28.5442 502.5 22.5 496.456 22.5 489V428.089Z" fill="#C4C4C4" stroke="#7D7D7D"/>
<path d="M92.4406 474H95.4523V467.332L101.382 457.09H98.0773L94.0461 464.344H93.8469L89.8156 457.09H86.5109L92.4406 467.332V474ZM107.012 474.258C110.492 474.258 112.203 472.254 112.613 470.602L112.648 470.496H109.871L109.836 470.578C109.555 471.164 108.652 471.961 107.07 471.961C105.09 471.961 103.848 470.625 103.812 468.328H112.766V467.367C112.766 463.5 110.516 460.945 106.871 460.945C103.227 460.945 100.895 463.582 100.895 467.613V467.625C100.895 471.703 103.203 474.258 107.012 474.258ZM106.906 463.23C108.535 463.23 109.719 464.273 109.918 466.371H103.836C104.059 464.332 105.277 463.23 106.906 463.23ZM120.223 474.258C123.376 474.258 125.661 472.629 125.661 470.191V470.168C125.661 468.305 124.477 467.238 121.97 466.676L119.895 466.219C118.512 465.902 117.973 465.445 117.973 464.695V464.684C117.973 463.723 118.911 463.09 120.212 463.09C121.583 463.09 122.427 463.746 122.637 464.555L122.649 464.59H125.391V464.566C125.204 462.492 123.341 460.945 120.223 460.945C117.2 460.945 115.091 462.539 115.091 464.848V464.859C115.091 466.746 116.251 467.895 118.688 468.434L120.762 468.902C122.169 469.219 122.731 469.711 122.731 470.461V470.484C122.731 471.445 121.723 472.102 120.27 472.102C118.817 472.102 117.962 471.48 117.657 470.59L117.645 470.566H114.751V470.59C114.997 472.758 116.966 474.258 120.223 474.258Z" fill="black"/>
<path d="M191 428.089H358.5V489C358.5 496.456 352.456 502.5 345 502.5H191V428.089Z" fill="#C4C4C4" stroke="#7D7D7D"/>
<path d="M260.568 473.589H263.486V461.941H263.673L271.982 473.589H274.595V456.679H271.689V468.328H271.502L263.193 456.679H260.568V473.589ZM283.705 473.847C287.538 473.847 289.87 471.339 289.87 467.191V467.167C289.87 463.042 287.526 460.535 283.705 460.535C279.897 460.535 277.541 463.054 277.541 467.167V467.191C277.541 471.339 279.862 473.847 283.705 473.847ZM283.705 471.48C281.678 471.48 280.518 469.898 280.518 467.203V467.179C280.518 464.484 281.678 462.89 283.705 462.89C285.721 462.89 286.881 464.484 286.881 467.179V467.203C286.881 469.898 285.733 471.48 283.705 471.48Z" fill="black"/>
<path d="M71.3938 344.688C71.3938 344.289 71.3313 343.938 71.2063 343.633C71.0891 343.32 70.8781 343.039 70.5734 342.789C70.2766 342.539 69.8625 342.301 69.3313 342.074C68.8078 341.848 68.1438 341.617 67.3391 341.383C66.4953 341.133 65.7336 340.855 65.0539 340.551C64.3742 340.238 63.7922 339.883 63.3078 339.484C62.8234 339.086 62.4523 338.629 62.1945 338.113C61.9367 337.598 61.8078 337.008 61.8078 336.344C61.8078 335.68 61.9445 335.066 62.218 334.504C62.4914 333.941 62.882 333.453 63.3898 333.039C63.9055 332.617 64.5188 332.289 65.2297 332.055C65.9406 331.82 66.7336 331.703 67.6086 331.703C68.8898 331.703 69.9758 331.949 70.8664 332.441C71.7648 332.926 72.4484 333.562 72.9172 334.352C73.3859 335.133 73.6203 335.969 73.6203 336.859H71.3703C71.3703 336.219 71.2336 335.652 70.9602 335.16C70.6867 334.66 70.2727 334.27 69.718 333.988C69.1633 333.699 68.4602 333.555 67.6086 333.555C66.8039 333.555 66.1398 333.676 65.6164 333.918C65.093 334.16 64.7023 334.488 64.4445 334.902C64.1945 335.316 64.0695 335.789 64.0695 336.32C64.0695 336.68 64.1438 337.008 64.2922 337.305C64.4484 337.594 64.6867 337.863 65.007 338.113C65.3352 338.363 65.7492 338.594 66.2492 338.805C66.757 339.016 67.3625 339.219 68.0656 339.414C69.0344 339.688 69.8703 339.992 70.5734 340.328C71.2766 340.664 71.8547 341.043 72.3078 341.465C72.7688 341.879 73.1086 342.352 73.3273 342.883C73.5539 343.406 73.6672 344 73.6672 344.664C73.6672 345.359 73.5266 345.988 73.2453 346.551C72.9641 347.113 72.5617 347.594 72.0383 347.992C71.5148 348.391 70.8859 348.699 70.1516 348.918C69.425 349.129 68.6125 349.234 67.7141 349.234C66.925 349.234 66.1477 349.125 65.382 348.906C64.6242 348.688 63.9328 348.359 63.3078 347.922C62.6906 347.484 62.1945 346.945 61.8195 346.305C61.4523 345.656 61.2688 344.906 61.2688 344.055H63.5188C63.5188 344.641 63.632 345.145 63.8586 345.566C64.0852 345.98 64.3938 346.324 64.7844 346.598C65.1828 346.871 65.632 347.074 66.132 347.207C66.6398 347.332 67.1672 347.395 67.7141 347.395C68.5031 347.395 69.1711 347.285 69.718 347.066C70.2648 346.848 70.6789 346.535 70.9602 346.129C71.2492 345.723 71.3938 345.242 71.3938 344.688ZM81.2305 336.32V337.984H74.375V336.32H81.2305ZM76.6953 333.238H78.8633V345.859C78.8633 346.289 78.9297 346.613 79.0625 346.832C79.1953 347.051 79.3672 347.195 79.5781 347.266C79.7891 347.336 80.0156 347.371 80.2578 347.371C80.4375 347.371 80.625 347.355 80.8203 347.324C81.0234 347.285 81.1758 347.254 81.2773 347.23L81.2891 349C81.1172 349.055 80.8906 349.105 80.6094 349.152C80.3359 349.207 80.0039 349.234 79.6133 349.234C79.082 349.234 78.5938 349.129 78.1484 348.918C77.7031 348.707 77.3477 348.355 77.082 347.863C76.8242 347.363 76.6953 346.691 76.6953 345.848V333.238ZM85.6414 338.312V349H83.4734V336.32H85.5828L85.6414 338.312ZM89.6023 336.25L89.5906 338.266C89.4109 338.227 89.2391 338.203 89.075 338.195C88.9188 338.18 88.7391 338.172 88.5359 338.172C88.0359 338.172 87.5945 338.25 87.2117 338.406C86.8289 338.562 86.5047 338.781 86.2391 339.062C85.9734 339.344 85.7625 339.68 85.6063 340.07C85.4578 340.453 85.3602 340.875 85.3133 341.336L84.7039 341.688C84.7039 340.922 84.7781 340.203 84.9266 339.531C85.0828 338.859 85.3211 338.266 85.6414 337.75C85.9617 337.227 86.368 336.82 86.8602 336.531C87.3602 336.234 87.9539 336.086 88.6414 336.086C88.7977 336.086 88.9773 336.105 89.1805 336.145C89.3836 336.176 89.5242 336.211 89.6023 336.25ZM96.3336 349.234C95.4508 349.234 94.65 349.086 93.9313 348.789C93.2203 348.484 92.607 348.059 92.0914 347.512C91.5836 346.965 91.193 346.316 90.9195 345.566C90.6461 344.816 90.5094 343.996 90.5094 343.105V342.613C90.5094 341.582 90.6617 340.664 90.9664 339.859C91.2711 339.047 91.6852 338.359 92.2086 337.797C92.732 337.234 93.3258 336.809 93.9898 336.52C94.6539 336.23 95.3414 336.086 96.0523 336.086C96.9586 336.086 97.7398 336.242 98.3961 336.555C99.0602 336.867 99.6031 337.305 100.025 337.867C100.447 338.422 100.759 339.078 100.963 339.836C101.166 340.586 101.267 341.406 101.267 342.297V343.27H91.7984V341.5H99.0992V341.336C99.068 340.773 98.9508 340.227 98.7477 339.695C98.5523 339.164 98.2398 338.727 97.8102 338.383C97.3805 338.039 96.7945 337.867 96.0523 337.867C95.5602 337.867 95.107 337.973 94.693 338.184C94.2789 338.387 93.9234 338.691 93.6266 339.098C93.3297 339.504 93.0992 340 92.9352 340.586C92.7711 341.172 92.6891 341.848 92.6891 342.613V343.105C92.6891 343.707 92.7711 344.273 92.9352 344.805C93.107 345.328 93.3531 345.789 93.6734 346.188C94.0016 346.586 94.3961 346.898 94.857 347.125C95.3258 347.352 95.857 347.465 96.4508 347.465C97.2164 347.465 97.8648 347.309 98.3961 346.996C98.9273 346.684 99.3922 346.266 99.7906 345.742L101.103 346.785C100.83 347.199 100.482 347.594 100.06 347.969C99.6383 348.344 99.1188 348.648 98.5016 348.883C97.8922 349.117 97.1695 349.234 96.3336 349.234ZM110.975 346.832V340.305C110.975 339.805 110.873 339.371 110.67 339.004C110.475 338.629 110.178 338.34 109.78 338.137C109.381 337.934 108.889 337.832 108.303 337.832C107.756 337.832 107.276 337.926 106.862 338.113C106.455 338.301 106.135 338.547 105.901 338.852C105.674 339.156 105.561 339.484 105.561 339.836H103.393C103.393 339.383 103.51 338.934 103.745 338.488C103.979 338.043 104.315 337.641 104.752 337.281C105.198 336.914 105.729 336.625 106.346 336.414C106.971 336.195 107.666 336.086 108.432 336.086C109.354 336.086 110.166 336.242 110.87 336.555C111.58 336.867 112.135 337.34 112.534 337.973C112.94 338.598 113.143 339.383 113.143 340.328V346.234C113.143 346.656 113.178 347.105 113.248 347.582C113.327 348.059 113.44 348.469 113.588 348.812V349H111.327C111.217 348.75 111.131 348.418 111.069 348.004C111.006 347.582 110.975 347.191 110.975 346.832ZM111.35 341.312L111.373 342.836H109.182C108.565 342.836 108.014 342.887 107.53 342.988C107.045 343.082 106.639 343.227 106.311 343.422C105.983 343.617 105.733 343.863 105.561 344.16C105.389 344.449 105.303 344.789 105.303 345.18C105.303 345.578 105.393 345.941 105.573 346.27C105.752 346.598 106.022 346.859 106.381 347.055C106.748 347.242 107.198 347.336 107.729 347.336C108.393 347.336 108.979 347.195 109.487 346.914C109.995 346.633 110.397 346.289 110.694 345.883C110.998 345.477 111.163 345.082 111.186 344.699L112.112 345.742C112.057 346.07 111.909 346.434 111.666 346.832C111.424 347.23 111.1 347.613 110.694 347.98C110.295 348.34 109.819 348.641 109.264 348.883C108.717 349.117 108.1 349.234 107.413 349.234C106.553 349.234 105.799 349.066 105.151 348.73C104.51 348.395 104.01 347.945 103.651 347.383C103.299 346.812 103.123 346.176 103.123 345.473C103.123 344.793 103.256 344.195 103.522 343.68C103.788 343.156 104.17 342.723 104.67 342.379C105.17 342.027 105.772 341.762 106.475 341.582C107.178 341.402 107.963 341.312 108.83 341.312H111.35ZM118.409 338.84V349H116.23V336.32H118.292L118.409 338.84ZM117.964 342.18L116.956 342.145C116.964 341.277 117.077 340.477 117.296 339.742C117.515 339 117.839 338.355 118.269 337.809C118.698 337.262 119.234 336.84 119.874 336.543C120.515 336.238 121.257 336.086 122.101 336.086C122.695 336.086 123.241 336.172 123.741 336.344C124.241 336.508 124.675 336.77 125.042 337.129C125.409 337.488 125.695 337.949 125.898 338.512C126.101 339.074 126.202 339.754 126.202 340.551V349H124.034V340.656C124.034 339.992 123.921 339.461 123.695 339.062C123.476 338.664 123.163 338.375 122.757 338.195C122.351 338.008 121.874 337.914 121.327 337.914C120.687 337.914 120.152 338.027 119.722 338.254C119.292 338.48 118.948 338.793 118.691 339.191C118.433 339.59 118.245 340.047 118.128 340.562C118.019 341.07 117.964 341.609 117.964 342.18ZM126.179 340.984L124.726 341.43C124.734 340.734 124.847 340.066 125.066 339.426C125.292 338.785 125.616 338.215 126.038 337.715C126.468 337.215 126.995 336.82 127.62 336.531C128.245 336.234 128.96 336.086 129.765 336.086C130.445 336.086 131.046 336.176 131.57 336.355C132.101 336.535 132.546 336.812 132.905 337.188C133.273 337.555 133.55 338.027 133.738 338.605C133.925 339.184 134.019 339.871 134.019 340.668V349H131.839V340.645C131.839 339.934 131.726 339.383 131.499 338.992C131.28 338.594 130.968 338.316 130.562 338.16C130.163 337.996 129.687 337.914 129.132 337.914C128.655 337.914 128.234 337.996 127.866 338.16C127.499 338.324 127.191 338.551 126.941 338.84C126.691 339.121 126.499 339.445 126.366 339.812C126.241 340.18 126.179 340.57 126.179 340.984ZM142.836 346.41L147.863 331.938H150.312L143.996 349H142.25L142.836 346.41ZM138.137 331.938L143.117 346.41L143.738 349H141.992L135.688 331.938H138.137ZM159.411 346.07V336.32H161.591V349H159.516L159.411 346.07ZM159.821 343.398L160.723 343.375C160.723 344.219 160.634 345 160.454 345.719C160.282 346.43 160.001 347.047 159.61 347.57C159.22 348.094 158.708 348.504 158.075 348.801C157.442 349.09 156.673 349.234 155.766 349.234C155.149 349.234 154.583 349.145 154.067 348.965C153.559 348.785 153.122 348.508 152.755 348.133C152.388 347.758 152.102 347.27 151.899 346.668C151.704 346.066 151.606 345.344 151.606 344.5V336.32H153.774V344.523C153.774 345.094 153.837 345.566 153.962 345.941C154.095 346.309 154.27 346.602 154.489 346.82C154.716 347.031 154.966 347.18 155.239 347.266C155.52 347.352 155.809 347.395 156.106 347.395C157.028 347.395 157.759 347.219 158.298 346.867C158.837 346.508 159.223 346.027 159.458 345.426C159.7 344.816 159.821 344.141 159.821 343.398ZM173.459 346.75L176.717 336.32H178.147L177.866 338.395L174.549 349H173.155L173.459 346.75ZM171.268 336.32L174.045 346.867L174.245 349H172.78L169.1 336.32H171.268ZM181.264 346.785L183.913 336.32H186.069L182.389 349H180.936L181.264 346.785ZM178.463 336.32L181.651 346.574L182.014 349H180.631L177.221 338.371L176.94 336.32H178.463ZM195.472 346.832V340.305C195.472 339.805 195.37 339.371 195.167 339.004C194.972 338.629 194.675 338.34 194.277 338.137C193.878 337.934 193.386 337.832 192.8 337.832C192.253 337.832 191.773 337.926 191.359 338.113C190.952 338.301 190.632 338.547 190.398 338.852C190.171 339.156 190.058 339.484 190.058 339.836H187.89C187.89 339.383 188.007 338.934 188.241 338.488C188.476 338.043 188.812 337.641 189.249 337.281C189.695 336.914 190.226 336.625 190.843 336.414C191.468 336.195 192.163 336.086 192.929 336.086C193.851 336.086 194.663 336.242 195.366 336.555C196.077 336.867 196.632 337.34 197.03 337.973C197.437 338.598 197.64 339.383 197.64 340.328V346.234C197.64 346.656 197.675 347.105 197.745 347.582C197.823 348.059 197.937 348.469 198.085 348.812V349H195.823C195.714 348.75 195.628 348.418 195.566 348.004C195.503 347.582 195.472 347.191 195.472 346.832ZM195.847 341.312L195.87 342.836H193.679C193.062 342.836 192.511 342.887 192.027 342.988C191.542 343.082 191.136 343.227 190.808 343.422C190.48 343.617 190.23 343.863 190.058 344.16C189.886 344.449 189.8 344.789 189.8 345.18C189.8 345.578 189.89 345.941 190.07 346.27C190.249 346.598 190.519 346.859 190.878 347.055C191.245 347.242 191.695 347.336 192.226 347.336C192.89 347.336 193.476 347.195 193.984 346.914C194.491 346.633 194.894 346.289 195.191 345.883C195.495 345.477 195.659 345.082 195.683 344.699L196.609 345.742C196.554 346.07 196.405 346.434 196.163 346.832C195.921 347.23 195.597 347.613 195.191 347.98C194.792 348.34 194.316 348.641 193.761 348.883C193.214 349.117 192.597 349.234 191.909 349.234C191.05 349.234 190.296 349.066 189.648 348.73C189.007 348.395 188.507 347.945 188.148 347.383C187.796 346.812 187.62 346.176 187.62 345.473C187.62 344.793 187.753 344.195 188.019 343.68C188.284 343.156 188.667 342.723 189.167 342.379C189.667 342.027 190.269 341.762 190.972 341.582C191.675 341.402 192.46 341.312 193.327 341.312H195.847ZM202.918 339.027V349H200.75V336.32H202.801L202.918 339.027ZM202.402 342.18L201.5 342.145C201.508 341.277 201.637 340.477 201.887 339.742C202.137 339 202.488 338.355 202.941 337.809C203.395 337.262 203.934 336.84 204.559 336.543C205.191 336.238 205.891 336.086 206.656 336.086C207.281 336.086 207.844 336.172 208.344 336.344C208.844 336.508 209.27 336.773 209.621 337.141C209.98 337.508 210.254 337.984 210.441 338.57C210.629 339.148 210.723 339.855 210.723 340.691V349H208.543V340.668C208.543 340.004 208.445 339.473 208.25 339.074C208.055 338.668 207.77 338.375 207.395 338.195C207.02 338.008 206.559 337.914 206.012 337.914C205.473 337.914 204.98 338.027 204.535 338.254C204.098 338.48 203.719 338.793 203.398 339.191C203.086 339.59 202.84 340.047 202.66 340.562C202.488 341.07 202.402 341.609 202.402 342.18ZM219.024 336.32V337.984H212.169V336.32H219.024ZM214.489 333.238H216.657V345.859C216.657 346.289 216.723 346.613 216.856 346.832C216.989 347.051 217.161 347.195 217.372 347.266C217.583 347.336 217.809 347.371 218.052 347.371C218.231 347.371 218.419 347.355 218.614 347.324C218.817 347.285 218.97 347.254 219.071 347.23L219.083 349C218.911 349.055 218.684 349.105 218.403 349.152C218.13 349.207 217.798 349.234 217.407 349.234C216.876 349.234 216.387 349.129 215.942 348.918C215.497 348.707 215.141 348.355 214.876 347.863C214.618 347.363 214.489 346.691 214.489 345.848V333.238ZM228.65 345.637C228.65 345.324 228.58 345.035 228.439 344.77C228.306 344.496 228.029 344.25 227.607 344.031C227.193 343.805 226.568 343.609 225.732 343.445C225.029 343.297 224.392 343.121 223.822 342.918C223.259 342.715 222.779 342.469 222.38 342.18C221.99 341.891 221.689 341.551 221.478 341.16C221.267 340.77 221.162 340.312 221.162 339.789C221.162 339.289 221.271 338.816 221.49 338.371C221.716 337.926 222.033 337.531 222.439 337.188C222.853 336.844 223.349 336.574 223.927 336.379C224.505 336.184 225.15 336.086 225.861 336.086C226.877 336.086 227.744 336.266 228.463 336.625C229.181 336.984 229.732 337.465 230.115 338.066C230.498 338.66 230.689 339.32 230.689 340.047H228.521C228.521 339.695 228.416 339.355 228.205 339.027C228.002 338.691 227.701 338.414 227.302 338.195C226.912 337.977 226.431 337.867 225.861 337.867C225.259 337.867 224.771 337.961 224.396 338.148C224.029 338.328 223.759 338.559 223.588 338.84C223.423 339.121 223.341 339.418 223.341 339.73C223.341 339.965 223.38 340.176 223.459 340.363C223.545 340.543 223.693 340.711 223.904 340.867C224.115 341.016 224.412 341.156 224.795 341.289C225.177 341.422 225.666 341.555 226.259 341.688C227.298 341.922 228.154 342.203 228.826 342.531C229.498 342.859 229.998 343.262 230.326 343.738C230.654 344.215 230.818 344.793 230.818 345.473C230.818 346.027 230.701 346.535 230.466 346.996C230.24 347.457 229.908 347.855 229.47 348.191C229.041 348.52 228.525 348.777 227.923 348.965C227.33 349.145 226.662 349.234 225.92 349.234C224.802 349.234 223.857 349.035 223.084 348.637C222.31 348.238 221.724 347.723 221.326 347.09C220.927 346.457 220.728 345.789 220.728 345.086H222.908C222.939 345.68 223.111 346.152 223.423 346.504C223.736 346.848 224.119 347.094 224.572 347.242C225.025 347.383 225.474 347.453 225.92 347.453C226.513 347.453 227.009 347.375 227.408 347.219C227.814 347.062 228.123 346.848 228.334 346.574C228.545 346.301 228.65 345.988 228.65 345.637ZM244.327 336.32V337.984H237.472V336.32H244.327ZM239.792 333.238H241.96V345.859C241.96 346.289 242.027 346.613 242.159 346.832C242.292 347.051 242.464 347.195 242.675 347.266C242.886 347.336 243.113 347.371 243.355 347.371C243.534 347.371 243.722 347.355 243.917 347.324C244.12 347.285 244.273 347.254 244.374 347.23L244.386 349C244.214 349.055 243.988 349.105 243.706 349.152C243.433 349.207 243.101 349.234 242.71 349.234C242.179 349.234 241.691 349.129 241.245 348.918C240.8 348.707 240.445 348.355 240.179 347.863C239.921 347.363 239.792 346.691 239.792 345.848V333.238ZM245.762 342.801V342.531C245.762 341.617 245.895 340.77 246.16 339.988C246.426 339.199 246.809 338.516 247.309 337.938C247.809 337.352 248.414 336.898 249.125 336.578C249.836 336.25 250.633 336.086 251.516 336.086C252.406 336.086 253.207 336.25 253.918 336.578C254.637 336.898 255.246 337.352 255.746 337.938C256.254 338.516 256.641 339.199 256.906 339.988C257.172 340.77 257.305 341.617 257.305 342.531V342.801C257.305 343.715 257.172 344.562 256.906 345.344C256.641 346.125 256.254 346.809 255.746 347.395C255.246 347.973 254.641 348.426 253.93 348.754C253.227 349.074 252.43 349.234 251.539 349.234C250.648 349.234 249.848 349.074 249.137 348.754C248.426 348.426 247.816 347.973 247.309 347.395C246.809 346.809 246.426 346.125 246.16 345.344C245.895 344.562 245.762 343.715 245.762 342.801ZM247.93 342.531V342.801C247.93 343.434 248.004 344.031 248.152 344.594C248.301 345.148 248.523 345.641 248.82 346.07C249.125 346.5 249.504 346.84 249.957 347.09C250.41 347.332 250.938 347.453 251.539 347.453C252.133 347.453 252.652 347.332 253.098 347.09C253.551 346.84 253.926 346.5 254.223 346.07C254.52 345.641 254.742 345.148 254.891 344.594C255.047 344.031 255.125 343.434 255.125 342.801V342.531C255.125 341.906 255.047 341.316 254.891 340.762C254.742 340.199 254.516 339.703 254.211 339.273C253.914 338.836 253.539 338.492 253.086 338.242C252.641 337.992 252.117 337.867 251.516 337.867C250.922 337.867 250.398 337.992 249.945 338.242C249.5 338.492 249.125 338.836 248.82 339.273C248.523 339.703 248.301 340.199 248.152 340.762C248.004 341.316 247.93 341.906 247.93 342.531ZM264.802 342.801V342.531C264.802 341.617 264.935 340.77 265.201 339.988C265.466 339.199 265.849 338.516 266.349 337.938C266.849 337.352 267.455 336.898 268.166 336.578C268.877 336.25 269.673 336.086 270.556 336.086C271.447 336.086 272.248 336.25 272.959 336.578C273.677 336.898 274.287 337.352 274.787 337.938C275.295 338.516 275.681 339.199 275.947 339.988C276.213 340.77 276.345 341.617 276.345 342.531V342.801C276.345 343.715 276.213 344.562 275.947 345.344C275.681 346.125 275.295 346.809 274.787 347.395C274.287 347.973 273.681 348.426 272.97 348.754C272.267 349.074 271.47 349.234 270.58 349.234C269.689 349.234 268.888 349.074 268.177 348.754C267.466 348.426 266.857 347.973 266.349 347.395C265.849 346.809 265.466 346.125 265.201 345.344C264.935 344.562 264.802 343.715 264.802 342.801ZM266.97 342.531V342.801C266.97 343.434 267.045 344.031 267.193 344.594C267.341 345.148 267.564 345.641 267.861 346.07C268.166 346.5 268.545 346.84 268.998 347.09C269.451 347.332 269.978 347.453 270.58 347.453C271.173 347.453 271.693 347.332 272.138 347.09C272.591 346.84 272.966 346.5 273.263 346.07C273.56 345.641 273.783 345.148 273.931 344.594C274.088 344.031 274.166 343.434 274.166 342.801V342.531C274.166 341.906 274.088 341.316 273.931 340.762C273.783 340.199 273.556 339.703 273.252 339.273C272.955 338.836 272.58 338.492 272.127 338.242C271.681 337.992 271.158 337.867 270.556 337.867C269.963 337.867 269.439 337.992 268.986 338.242C268.541 338.492 268.166 338.836 267.861 339.273C267.564 339.703 267.341 340.199 267.193 340.762C267.045 341.316 266.97 341.906 266.97 342.531ZM280.932 338.758V353.875H278.752V336.32H280.745L280.932 338.758ZM289.475 342.555V342.801C289.475 343.723 289.366 344.578 289.147 345.367C288.928 346.148 288.608 346.828 288.186 347.406C287.772 347.984 287.26 348.434 286.651 348.754C286.041 349.074 285.342 349.234 284.553 349.234C283.748 349.234 283.038 349.102 282.42 348.836C281.803 348.57 281.28 348.184 280.85 347.676C280.42 347.168 280.077 346.559 279.819 345.848C279.569 345.137 279.397 344.336 279.303 343.445V342.133C279.397 341.195 279.573 340.355 279.83 339.613C280.088 338.871 280.428 338.238 280.85 337.715C281.28 337.184 281.799 336.781 282.409 336.508C283.018 336.227 283.721 336.086 284.518 336.086C285.315 336.086 286.022 336.242 286.639 336.555C287.256 336.859 287.776 337.297 288.198 337.867C288.62 338.438 288.936 339.121 289.147 339.918C289.366 340.707 289.475 341.586 289.475 342.555ZM287.295 342.801V342.555C287.295 341.922 287.229 341.328 287.096 340.773C286.963 340.211 286.756 339.719 286.475 339.297C286.202 338.867 285.85 338.531 285.42 338.289C284.991 338.039 284.479 337.914 283.885 337.914C283.338 337.914 282.862 338.008 282.455 338.195C282.057 338.383 281.717 338.637 281.436 338.957C281.155 339.27 280.924 339.629 280.745 340.035C280.573 340.434 280.444 340.848 280.358 341.277V344.312C280.514 344.859 280.733 345.375 281.014 345.859C281.295 346.336 281.67 346.723 282.139 347.02C282.608 347.309 283.198 347.453 283.909 347.453C284.495 347.453 284.998 347.332 285.42 347.09C285.85 346.84 286.202 346.5 286.475 346.07C286.756 345.641 286.963 345.148 287.096 344.594C287.229 344.031 287.295 343.434 287.295 342.801ZM297.202 349.234C296.32 349.234 295.519 349.086 294.8 348.789C294.089 348.484 293.476 348.059 292.96 347.512C292.452 346.965 292.062 346.316 291.788 345.566C291.515 344.816 291.378 343.996 291.378 343.105V342.613C291.378 341.582 291.53 340.664 291.835 339.859C292.14 339.047 292.554 338.359 293.077 337.797C293.601 337.234 294.195 336.809 294.859 336.52C295.523 336.23 296.21 336.086 296.921 336.086C297.827 336.086 298.609 336.242 299.265 336.555C299.929 336.867 300.472 337.305 300.894 337.867C301.316 338.422 301.628 339.078 301.831 339.836C302.034 340.586 302.136 341.406 302.136 342.297V343.27H292.667V341.5H299.968V341.336C299.937 340.773 299.82 340.227 299.616 339.695C299.421 339.164 299.109 338.727 298.679 338.383C298.249 338.039 297.663 337.867 296.921 337.867C296.429 337.867 295.976 337.973 295.562 338.184C295.148 338.387 294.792 338.691 294.495 339.098C294.198 339.504 293.968 340 293.804 340.586C293.64 341.172 293.558 341.848 293.558 342.613V343.105C293.558 343.707 293.64 344.273 293.804 344.805C293.976 345.328 294.222 345.789 294.542 346.188C294.87 346.586 295.265 346.898 295.726 347.125C296.195 347.352 296.726 347.465 297.32 347.465C298.085 347.465 298.734 347.309 299.265 346.996C299.796 346.684 300.261 346.266 300.659 345.742L301.972 346.785C301.698 347.199 301.351 347.594 300.929 347.969C300.507 348.344 299.987 348.648 299.37 348.883C298.761 349.117 298.038 349.234 297.202 349.234ZM306.535 339.027V349H304.367V336.32H306.418L306.535 339.027ZM306.02 342.18L305.117 342.145C305.125 341.277 305.254 340.477 305.504 339.742C305.754 339 306.105 338.355 306.559 337.809C307.012 337.262 307.551 336.84 308.176 336.543C308.809 336.238 309.508 336.086 310.273 336.086C310.898 336.086 311.461 336.172 311.961 336.344C312.461 336.508 312.887 336.773 313.238 337.141C313.598 337.508 313.871 337.984 314.059 338.57C314.246 339.148 314.34 339.855 314.34 340.691V349H312.16V340.668C312.16 340.004 312.062 339.473 311.867 339.074C311.672 338.668 311.387 338.375 311.012 338.195C310.637 338.008 310.176 337.914 309.629 337.914C309.09 337.914 308.598 338.027 308.152 338.254C307.715 338.48 307.336 338.793 307.016 339.191C306.703 339.59 306.457 340.047 306.277 340.562C306.105 341.07 306.02 341.609 306.02 342.18ZM45.1578 361.449L39.5094 377H37.2008L43.7047 359.938H45.193L45.1578 361.449ZM49.8922 377L44.232 361.449L44.1969 359.938H45.6852L52.2125 377H49.8922ZM49.5992 370.684V372.535H40.0133V370.684H49.5992ZM56.0258 366.84V377H53.8461V364.32H55.9086L56.0258 366.84ZM55.5805 370.18L54.5727 370.145C54.5805 369.277 54.6937 368.477 54.9125 367.742C55.1312 367 55.4555 366.355 55.8852 365.809C56.3148 365.262 56.85 364.84 57.4906 364.543C58.1312 364.238 58.8734 364.086 59.7172 364.086C60.3109 364.086 60.8578 364.172 61.3578 364.344C61.8578 364.508 62.2914 364.77 62.6586 365.129C63.0258 365.488 63.3109 365.949 63.5141 366.512C63.7172 367.074 63.8187 367.754 63.8187 368.551V377H61.6508V368.656C61.6508 367.992 61.5375 367.461 61.3109 367.062C61.0922 366.664 60.7797 366.375 60.3734 366.195C59.9672 366.008 59.4906 365.914 58.9437 365.914C58.3031 365.914 57.768 366.027 57.3383 366.254C56.9086 366.48 56.5648 366.793 56.307 367.191C56.0492 367.59 55.8617 368.047 55.7445 368.562C55.6352 369.07 55.5805 369.609 55.5805 370.18ZM63.7953 368.984L62.3422 369.43C62.35 368.734 62.4633 368.066 62.682 367.426C62.9086 366.785 63.2328 366.215 63.6547 365.715C64.0844 365.215 64.6117 364.82 65.2367 364.531C65.8617 364.234 66.5766 364.086 67.3812 364.086C68.0609 364.086 68.6625 364.176 69.1859 364.355C69.7172 364.535 70.1625 364.812 70.5219 365.188C70.8891 365.555 71.1664 366.027 71.3539 366.605C71.5414 367.184 71.6352 367.871 71.6352 368.668V377H69.4555V368.645C69.4555 367.934 69.3422 367.383 69.1156 366.992C68.8969 366.594 68.5844 366.316 68.1781 366.16C67.7797 365.996 67.3031 365.914 66.7484 365.914C66.2719 365.914 65.85 365.996 65.4828 366.16C65.1156 366.324 64.807 366.551 64.557 366.84C64.307 367.121 64.1156 367.445 63.9828 367.812C63.8578 368.18 63.7953 368.57 63.7953 368.984ZM82.093 374.832V368.305C82.093 367.805 81.9914 367.371 81.7883 367.004C81.593 366.629 81.2961 366.34 80.8977 366.137C80.4992 365.934 80.007 365.832 79.4211 365.832C78.8742 365.832 78.3937 365.926 77.9797 366.113C77.5734 366.301 77.2531 366.547 77.0187 366.852C76.7922 367.156 76.6789 367.484 76.6789 367.836H74.5109C74.5109 367.383 74.6281 366.934 74.8625 366.488C75.0969 366.043 75.4328 365.641 75.8703 365.281C76.3156 364.914 76.8469 364.625 77.4641 364.414C78.0891 364.195 78.7844 364.086 79.55 364.086C80.4719 364.086 81.2844 364.242 81.9875 364.555C82.6984 364.867 83.2531 365.34 83.6516 365.973C84.0578 366.598 84.2609 367.383 84.2609 368.328V374.234C84.2609 374.656 84.2961 375.105 84.3664 375.582C84.4445 376.059 84.5578 376.469 84.7062 376.812V377H82.4445C82.3352 376.75 82.2492 376.418 82.1867 376.004C82.1242 375.582 82.093 375.191 82.093 374.832ZM82.468 369.312L82.4914 370.836H80.3C79.6828 370.836 79.132 370.887 78.6477 370.988C78.1633 371.082 77.757 371.227 77.4289 371.422C77.1008 371.617 76.8508 371.863 76.6789 372.16C76.507 372.449 76.4211 372.789 76.4211 373.18C76.4211 373.578 76.5109 373.941 76.6906 374.27C76.8703 374.598 77.1398 374.859 77.4992 375.055C77.8664 375.242 78.3156 375.336 78.8469 375.336C79.5109 375.336 80.0969 375.195 80.6047 374.914C81.1125 374.633 81.5148 374.289 81.8117 373.883C82.1164 373.477 82.2805 373.082 82.3039 372.699L83.2297 373.742C83.175 374.07 83.0266 374.434 82.7844 374.832C82.5422 375.23 82.218 375.613 81.8117 375.98C81.4133 376.34 80.9367 376.641 80.382 376.883C79.8352 377.117 79.218 377.234 78.5305 377.234C77.6711 377.234 76.9172 377.066 76.2687 376.73C75.6281 376.395 75.1281 375.945 74.7687 375.383C74.4172 374.812 74.2414 374.176 74.2414 373.473C74.2414 372.793 74.3742 372.195 74.6398 371.68C74.9055 371.156 75.2883 370.723 75.7883 370.379C76.2883 370.027 76.8898 369.762 77.593 369.582C78.2961 369.402 79.0812 369.312 79.9484 369.312H82.468ZM96.8164 375.219V377H87.5937V375.219H96.8164ZM96.4766 365.855L88.0859 377H86.7617V375.406L95.0937 364.32H96.4766V365.855ZM95.5156 364.32V366.113H86.8555V364.32H95.5156ZM98.2156 370.801V370.531C98.2156 369.617 98.3484 368.77 98.6141 367.988C98.8797 367.199 99.2625 366.516 99.7625 365.938C100.262 365.352 100.868 364.898 101.579 364.578C102.29 364.25 103.087 364.086 103.97 364.086C104.86 364.086 105.661 364.25 106.372 364.578C107.091 364.898 107.7 365.352 108.2 365.938C108.708 366.516 109.095 367.199 109.36 367.988C109.626 368.77 109.759 369.617 109.759 370.531V370.801C109.759 371.715 109.626 372.562 109.36 373.344C109.095 374.125 108.708 374.809 108.2 375.395C107.7 375.973 107.095 376.426 106.384 376.754C105.68 377.074 104.884 377.234 103.993 377.234C103.102 377.234 102.302 377.074 101.591 376.754C100.88 376.426 100.27 375.973 99.7625 375.395C99.2625 374.809 98.8797 374.125 98.6141 373.344C98.3484 372.562 98.2156 371.715 98.2156 370.801ZM100.384 370.531V370.801C100.384 371.434 100.458 372.031 100.606 372.594C100.755 373.148 100.977 373.641 101.274 374.07C101.579 374.5 101.958 374.84 102.411 375.09C102.864 375.332 103.391 375.453 103.993 375.453C104.587 375.453 105.106 375.332 105.552 375.09C106.005 374.84 106.38 374.5 106.677 374.07C106.973 373.641 107.196 373.148 107.345 372.594C107.501 372.031 107.579 371.434 107.579 370.801V370.531C107.579 369.906 107.501 369.316 107.345 368.762C107.196 368.199 106.97 367.703 106.665 367.273C106.368 366.836 105.993 366.492 105.54 366.242C105.095 365.992 104.571 365.867 103.97 365.867C103.376 365.867 102.852 365.992 102.399 366.242C101.954 366.492 101.579 366.836 101.274 367.273C100.977 367.703 100.755 368.199 100.606 368.762C100.458 369.316 100.384 369.906 100.384 370.531ZM114.345 367.027V377H112.177V364.32H114.228L114.345 367.027ZM113.83 370.18L112.927 370.145C112.935 369.277 113.064 368.477 113.314 367.742C113.564 367 113.916 366.355 114.369 365.809C114.822 365.262 115.361 364.84 115.986 364.543C116.619 364.238 117.318 364.086 118.084 364.086C118.709 364.086 119.271 364.172 119.771 364.344C120.271 364.508 120.697 364.773 121.048 365.141C121.408 365.508 121.681 365.984 121.869 366.57C122.056 367.148 122.15 367.855 122.15 368.691V377H119.97V368.668C119.97 368.004 119.873 367.473 119.677 367.074C119.482 366.668 119.197 366.375 118.822 366.195C118.447 366.008 117.986 365.914 117.439 365.914C116.9 365.914 116.408 366.027 115.962 366.254C115.525 366.48 115.146 366.793 114.826 367.191C114.513 367.59 114.267 368.047 114.087 368.562C113.916 369.07 113.83 369.609 113.83 370.18ZM137.417 370.309H132.859V368.469H137.417C138.3 368.469 139.015 368.328 139.562 368.047C140.109 367.766 140.507 367.375 140.757 366.875C141.015 366.375 141.144 365.805 141.144 365.164C141.144 364.578 141.015 364.027 140.757 363.512C140.507 362.996 140.109 362.582 139.562 362.27C139.015 361.949 138.3 361.789 137.417 361.789H133.386V377H131.124V359.938H137.417C138.706 359.938 139.796 360.16 140.687 360.605C141.577 361.051 142.253 361.668 142.714 362.457C143.175 363.238 143.405 364.133 143.405 365.141C143.405 366.234 143.175 367.168 142.714 367.941C142.253 368.715 141.577 369.305 140.687 369.711C139.796 370.109 138.706 370.309 137.417 370.309ZM147.805 366.312V377H145.637V364.32H147.746L147.805 366.312ZM151.766 364.25L151.754 366.266C151.574 366.227 151.402 366.203 151.238 366.195C151.082 366.18 150.902 366.172 150.699 366.172C150.199 366.172 149.758 366.25 149.375 366.406C148.992 366.562 148.668 366.781 148.402 367.062C148.137 367.344 147.926 367.68 147.77 368.07C147.621 368.453 147.523 368.875 147.477 369.336L146.867 369.688C146.867 368.922 146.941 368.203 147.09 367.531C147.246 366.859 147.484 366.266 147.805 365.75C148.125 365.227 148.531 364.82 149.023 364.531C149.523 364.234 150.117 364.086 150.805 364.086C150.961 364.086 151.141 364.105 151.344 364.145C151.547 364.176 151.687 364.211 151.766 364.25ZM155.825 364.32V377H153.645V364.32H155.825ZM153.481 360.957C153.481 360.605 153.587 360.309 153.798 360.066C154.016 359.824 154.337 359.703 154.759 359.703C155.173 359.703 155.489 359.824 155.708 360.066C155.934 360.309 156.048 360.605 156.048 360.957C156.048 361.293 155.934 361.582 155.708 361.824C155.489 362.059 155.173 362.176 154.759 362.176C154.337 362.176 154.016 362.059 153.798 361.824C153.587 361.582 153.481 361.293 153.481 360.957ZM161.162 366.84V377H158.982V364.32H161.045L161.162 366.84ZM160.716 370.18L159.709 370.145C159.716 369.277 159.83 368.477 160.048 367.742C160.267 367 160.591 366.355 161.021 365.809C161.451 365.262 161.986 364.84 162.627 364.543C163.267 364.238 164.009 364.086 164.853 364.086C165.447 364.086 165.994 364.172 166.494 364.344C166.994 364.508 167.427 364.77 167.795 365.129C168.162 365.488 168.447 365.949 168.65 366.512C168.853 367.074 168.955 367.754 168.955 368.551V377H166.787V368.656C166.787 367.992 166.673 367.461 166.447 367.062C166.228 366.664 165.916 366.375 165.509 366.195C165.103 366.008 164.627 365.914 164.08 365.914C163.439 365.914 162.904 366.027 162.474 366.254C162.045 366.48 161.701 366.793 161.443 367.191C161.185 367.59 160.998 368.047 160.88 368.562C160.771 369.07 160.716 369.609 160.716 370.18ZM168.931 368.984L167.478 369.43C167.486 368.734 167.599 368.066 167.818 367.426C168.045 366.785 168.369 366.215 168.791 365.715C169.22 365.215 169.748 364.82 170.373 364.531C170.998 364.234 171.712 364.086 172.517 364.086C173.197 364.086 173.798 364.176 174.322 364.355C174.853 364.535 175.298 364.812 175.658 365.188C176.025 365.555 176.302 366.027 176.49 366.605C176.677 367.184 176.771 367.871 176.771 368.668V377H174.591V368.645C174.591 367.934 174.478 367.383 174.252 366.992C174.033 366.594 173.72 366.316 173.314 366.16C172.916 365.996 172.439 365.914 171.884 365.914C171.408 365.914 170.986 365.996 170.619 366.16C170.252 366.324 169.943 366.551 169.693 366.84C169.443 367.121 169.252 367.445 169.119 367.812C168.994 368.18 168.931 368.57 168.931 368.984ZM185.014 377.234C184.131 377.234 183.33 377.086 182.612 376.789C181.901 376.484 181.287 376.059 180.772 375.512C180.264 374.965 179.873 374.316 179.6 373.566C179.327 372.816 179.19 371.996 179.19 371.105V370.613C179.19 369.582 179.342 368.664 179.647 367.859C179.952 367.047 180.366 366.359 180.889 365.797C181.412 365.234 182.006 364.809 182.67 364.52C183.334 364.23 184.022 364.086 184.733 364.086C185.639 364.086 186.42 364.242 187.077 364.555C187.741 364.867 188.284 365.305 188.705 365.867C189.127 366.422 189.44 367.078 189.643 367.836C189.846 368.586 189.948 369.406 189.948 370.297V371.27H180.479V369.5H187.78V369.336C187.748 368.773 187.631 368.227 187.428 367.695C187.233 367.164 186.92 366.727 186.491 366.383C186.061 366.039 185.475 365.867 184.733 365.867C184.241 365.867 183.787 365.973 183.373 366.184C182.959 366.387 182.604 366.691 182.307 367.098C182.01 367.504 181.78 368 181.616 368.586C181.452 369.172 181.37 369.848 181.37 370.613V371.105C181.37 371.707 181.452 372.273 181.616 372.805C181.787 373.328 182.034 373.789 182.354 374.188C182.682 374.586 183.077 374.898 183.537 375.125C184.006 375.352 184.537 375.465 185.131 375.465C185.897 375.465 186.545 375.309 187.077 374.996C187.608 374.684 188.073 374.266 188.471 373.742L189.784 374.785C189.51 375.199 189.162 375.594 188.741 375.969C188.319 376.344 187.799 376.648 187.182 376.883C186.573 377.117 185.85 377.234 185.014 377.234ZM203.668 374.41L208.695 359.938H211.145L204.828 377H203.082L203.668 374.41ZM198.969 359.938L203.949 374.41L204.57 377H202.824L196.52 359.938H198.969ZM215.169 364.32V377H212.989V364.32H215.169ZM212.825 360.957C212.825 360.605 212.93 360.309 213.141 360.066C213.36 359.824 213.68 359.703 214.102 359.703C214.516 359.703 214.833 359.824 215.052 360.066C215.278 360.309 215.391 360.605 215.391 360.957C215.391 361.293 215.278 361.582 215.052 361.824C214.833 362.059 214.516 362.176 214.102 362.176C213.68 362.176 213.36 362.059 213.141 361.824C212.93 361.582 212.825 361.293 212.825 360.957ZM226.341 374.539V359H228.521V377H226.529L226.341 374.539ZM217.81 370.801V370.555C217.81 369.586 217.927 368.707 218.162 367.918C218.404 367.121 218.744 366.438 219.181 365.867C219.627 365.297 220.154 364.859 220.763 364.555C221.38 364.242 222.068 364.086 222.826 364.086C223.623 364.086 224.318 364.227 224.912 364.508C225.513 364.781 226.021 365.184 226.435 365.715C226.857 366.238 227.189 366.871 227.431 367.613C227.673 368.355 227.841 369.195 227.935 370.133V371.211C227.849 372.141 227.681 372.977 227.431 373.719C227.189 374.461 226.857 375.094 226.435 375.617C226.021 376.141 225.513 376.543 224.912 376.824C224.31 377.098 223.607 377.234 222.802 377.234C222.06 377.234 221.38 377.074 220.763 376.754C220.154 376.434 219.627 375.984 219.181 375.406C218.744 374.828 218.404 374.148 218.162 373.367C217.927 372.578 217.81 371.723 217.81 370.801ZM219.99 370.555V370.801C219.99 371.434 220.052 372.027 220.177 372.582C220.31 373.137 220.513 373.625 220.787 374.047C221.06 374.469 221.408 374.801 221.83 375.043C222.252 375.277 222.755 375.395 223.341 375.395C224.06 375.395 224.65 375.242 225.111 374.938C225.58 374.633 225.955 374.23 226.236 373.73C226.517 373.23 226.736 372.688 226.892 372.102V369.277C226.798 368.848 226.662 368.434 226.482 368.035C226.31 367.629 226.084 367.27 225.802 366.957C225.529 366.637 225.189 366.383 224.783 366.195C224.384 366.008 223.912 365.914 223.365 365.914C222.771 365.914 222.259 366.039 221.83 366.289C221.408 366.531 221.06 366.867 220.787 367.297C220.513 367.719 220.31 368.211 220.177 368.773C220.052 369.328 219.99 369.922 219.99 370.555ZM236.858 377.234C235.975 377.234 235.174 377.086 234.455 376.789C233.745 376.484 233.131 376.059 232.616 375.512C232.108 374.965 231.717 374.316 231.444 373.566C231.17 372.816 231.034 371.996 231.034 371.105V370.613C231.034 369.582 231.186 368.664 231.491 367.859C231.795 367.047 232.209 366.359 232.733 365.797C233.256 365.234 233.85 364.809 234.514 364.52C235.178 364.23 235.866 364.086 236.577 364.086C237.483 364.086 238.264 364.242 238.92 364.555C239.584 364.867 240.127 365.305 240.549 365.867C240.971 366.422 241.284 367.078 241.487 367.836C241.69 368.586 241.791 369.406 241.791 370.297V371.27H232.323V369.5H239.623V369.336C239.592 368.773 239.475 368.227 239.272 367.695C239.077 367.164 238.764 366.727 238.334 366.383C237.905 366.039 237.319 365.867 236.577 365.867C236.084 365.867 235.631 365.973 235.217 366.184C234.803 366.387 234.448 366.691 234.151 367.098C233.854 367.504 233.623 368 233.459 368.586C233.295 369.172 233.213 369.848 233.213 370.613V371.105C233.213 371.707 233.295 372.273 233.459 372.805C233.631 373.328 233.877 373.789 234.198 374.188C234.526 374.586 234.92 374.898 235.381 375.125C235.85 375.352 236.381 375.465 236.975 375.465C237.741 375.465 238.389 375.309 238.92 374.996C239.452 374.684 239.916 374.266 240.315 373.742L241.627 374.785C241.354 375.199 241.006 375.594 240.584 375.969C240.162 376.344 239.643 376.648 239.026 376.883C238.416 377.117 237.694 377.234 236.858 377.234ZM243.448 370.801V370.531C243.448 369.617 243.581 368.77 243.847 367.988C244.112 367.199 244.495 366.516 244.995 365.938C245.495 365.352 246.101 364.898 246.812 364.578C247.523 364.25 248.32 364.086 249.202 364.086C250.093 364.086 250.894 364.25 251.605 364.578C252.323 364.898 252.933 365.352 253.433 365.938C253.941 366.516 254.327 367.199 254.593 367.988C254.859 368.77 254.991 369.617 254.991 370.531V370.801C254.991 371.715 254.859 372.562 254.593 373.344C254.327 374.125 253.941 374.809 253.433 375.395C252.933 375.973 252.327 376.426 251.616 376.754C250.913 377.074 250.116 377.234 249.226 377.234C248.335 377.234 247.534 377.074 246.823 376.754C246.112 376.426 245.503 375.973 244.995 375.395C244.495 374.809 244.112 374.125 243.847 373.344C243.581 372.562 243.448 371.715 243.448 370.801ZM245.616 370.531V370.801C245.616 371.434 245.691 372.031 245.839 372.594C245.987 373.148 246.21 373.641 246.507 374.07C246.812 374.5 247.191 374.84 247.644 375.09C248.097 375.332 248.624 375.453 249.226 375.453C249.82 375.453 250.339 375.332 250.784 375.09C251.237 374.84 251.612 374.5 251.909 374.07C252.206 373.641 252.429 373.148 252.577 372.594C252.734 372.031 252.812 371.434 252.812 370.801V370.531C252.812 369.906 252.734 369.316 252.577 368.762C252.429 368.199 252.202 367.703 251.898 367.273C251.601 366.836 251.226 366.492 250.773 366.242C250.327 365.992 249.804 365.867 249.202 365.867C248.609 365.867 248.085 365.992 247.632 366.242C247.187 366.492 246.812 366.836 246.507 367.273C246.21 367.703 245.987 368.199 245.839 368.762C245.691 369.316 245.616 369.906 245.616 370.531ZM257.445 375.852C257.445 375.484 257.559 375.176 257.785 374.926C258.02 374.668 258.355 374.539 258.793 374.539C259.23 374.539 259.562 374.668 259.789 374.926C260.023 375.176 260.141 375.484 260.141 375.852C260.141 376.211 260.023 376.516 259.789 376.766C259.562 377.016 259.23 377.141 258.793 377.141C258.355 377.141 258.02 377.016 257.785 376.766C257.559 376.516 257.445 376.211 257.445 375.852ZM274.037 377H270.474L270.498 375.16H274.037C275.255 375.16 276.271 374.906 277.084 374.398C277.896 373.883 278.505 373.164 278.912 372.242C279.326 371.312 279.533 370.227 279.533 368.984V367.941C279.533 366.965 279.416 366.098 279.181 365.34C278.947 364.574 278.603 363.93 278.15 363.406C277.697 362.875 277.142 362.473 276.486 362.199C275.837 361.926 275.091 361.789 274.248 361.789H270.404V359.938H274.248C275.365 359.938 276.384 360.125 277.306 360.5C278.228 360.867 279.021 361.402 279.685 362.105C280.357 362.801 280.873 363.645 281.232 364.637C281.591 365.621 281.771 366.73 281.771 367.965V368.984C281.771 370.219 281.591 371.332 281.232 372.324C280.873 373.309 280.353 374.148 279.673 374.844C279.002 375.539 278.189 376.074 277.236 376.449C276.291 376.816 275.224 377 274.037 377ZM271.681 359.938V377H269.42V359.938H271.681ZM283.967 370.801V370.531C283.967 369.617 284.1 368.77 284.366 367.988C284.631 367.199 285.014 366.516 285.514 365.938C286.014 365.352 286.62 364.898 287.33 364.578C288.041 364.25 288.838 364.086 289.721 364.086C290.612 364.086 291.412 364.25 292.123 364.578C292.842 364.898 293.452 365.352 293.952 365.938C294.459 366.516 294.846 367.199 295.112 367.988C295.377 368.77 295.51 369.617 295.51 370.531V370.801C295.51 371.715 295.377 372.562 295.112 373.344C294.846 374.125 294.459 374.809 293.952 375.395C293.452 375.973 292.846 376.426 292.135 376.754C291.432 377.074 290.635 377.234 289.745 377.234C288.854 377.234 288.053 377.074 287.342 376.754C286.631 376.426 286.022 375.973 285.514 375.395C285.014 374.809 284.631 374.125 284.366 373.344C284.1 372.562 283.967 371.715 283.967 370.801ZM286.135 370.531V370.801C286.135 371.434 286.209 372.031 286.358 372.594C286.506 373.148 286.729 373.641 287.026 374.07C287.33 374.5 287.709 374.84 288.162 375.09C288.616 375.332 289.143 375.453 289.745 375.453C290.338 375.453 290.858 375.332 291.303 375.09C291.756 374.84 292.131 374.5 292.428 374.07C292.725 373.641 292.948 373.148 293.096 372.594C293.252 372.031 293.33 371.434 293.33 370.801V370.531C293.33 369.906 293.252 369.316 293.096 368.762C292.948 368.199 292.721 367.703 292.416 367.273C292.12 366.836 291.745 366.492 291.291 366.242C290.846 365.992 290.323 365.867 289.721 365.867C289.127 365.867 288.604 365.992 288.151 366.242C287.705 366.492 287.33 366.836 287.026 367.273C286.729 367.703 286.506 368.199 286.358 368.762C286.209 369.316 286.135 369.906 286.135 370.531ZM307.145 375.688L310.672 364.32H312.992L307.906 378.957C307.789 379.27 307.633 379.605 307.438 379.965C307.25 380.332 307.008 380.68 306.711 381.008C306.414 381.336 306.055 381.602 305.633 381.805C305.219 382.016 304.723 382.121 304.145 382.121C303.973 382.121 303.754 382.098 303.488 382.051C303.223 382.004 303.035 381.965 302.926 381.934L302.914 380.176C302.977 380.184 303.074 380.191 303.207 380.199C303.348 380.215 303.445 380.223 303.5 380.223C303.992 380.223 304.41 380.156 304.754 380.023C305.098 379.898 305.387 379.684 305.621 379.379C305.863 379.082 306.07 378.672 306.242 378.148L307.145 375.688ZM304.555 364.32L307.848 374.164L308.41 376.449L306.852 377.246L302.188 364.32H304.555ZM313.887 370.801V370.531C313.887 369.617 314.02 368.77 314.286 367.988C314.552 367.199 314.934 366.516 315.434 365.938C315.934 365.352 316.54 364.898 317.251 364.578C317.962 364.25 318.759 364.086 319.641 364.086C320.532 364.086 321.333 364.25 322.044 364.578C322.762 364.898 323.372 365.352 323.872 365.938C324.38 366.516 324.766 367.199 325.032 367.988C325.298 368.77 325.43 369.617 325.43 370.531V370.801C325.43 371.715 325.298 372.562 325.032 373.344C324.766 374.125 324.38 374.809 323.872 375.395C323.372 375.973 322.766 376.426 322.055 376.754C321.352 377.074 320.555 377.234 319.665 377.234C318.774 377.234 317.973 377.074 317.262 376.754C316.552 376.426 315.942 375.973 315.434 375.395C314.934 374.809 314.552 374.125 314.286 373.344C314.02 372.562 313.887 371.715 313.887 370.801ZM316.055 370.531V370.801C316.055 371.434 316.13 372.031 316.278 372.594C316.427 373.148 316.649 373.641 316.946 374.07C317.251 374.5 317.63 374.84 318.083 375.09C318.536 375.332 319.063 375.453 319.665 375.453C320.259 375.453 320.778 375.332 321.223 375.09C321.677 374.84 322.052 374.5 322.348 374.07C322.645 373.641 322.868 373.148 323.016 372.594C323.173 372.031 323.251 371.434 323.251 370.801V370.531C323.251 369.906 323.173 369.316 323.016 368.762C322.868 368.199 322.641 367.703 322.337 367.273C322.04 366.836 321.665 366.492 321.212 366.242C320.766 365.992 320.243 365.867 319.641 365.867C319.048 365.867 318.524 365.992 318.071 366.242C317.626 366.492 317.251 366.836 316.946 367.273C316.649 367.703 316.427 368.199 316.278 368.762C316.13 369.316 316.055 369.906 316.055 370.531ZM335.607 374.07V364.32H337.787V377H335.712L335.607 374.07ZM336.017 371.398L336.92 371.375C336.92 372.219 336.83 373 336.65 373.719C336.478 374.43 336.197 375.047 335.806 375.57C335.416 376.094 334.904 376.504 334.271 376.801C333.638 377.09 332.869 377.234 331.962 377.234C331.345 377.234 330.779 377.145 330.263 376.965C329.755 376.785 329.318 376.508 328.951 376.133C328.584 375.758 328.298 375.27 328.095 374.668C327.9 374.066 327.802 373.344 327.802 372.5V364.32H329.97V372.523C329.97 373.094 330.033 373.566 330.158 373.941C330.291 374.309 330.466 374.602 330.685 374.82C330.912 375.031 331.162 375.18 331.435 375.266C331.716 375.352 332.005 375.395 332.302 375.395C333.224 375.395 333.955 375.219 334.494 374.867C335.033 374.508 335.42 374.027 335.654 373.426C335.896 372.816 336.017 372.141 336.017 371.398ZM148.667 403.453C149.183 403.453 149.659 403.348 150.097 403.137C150.534 402.926 150.894 402.637 151.175 402.27C151.456 401.895 151.616 401.469 151.655 400.992H153.718C153.679 401.742 153.425 402.441 152.956 403.09C152.495 403.73 151.89 404.25 151.14 404.648C150.39 405.039 149.566 405.234 148.667 405.234C147.714 405.234 146.882 405.066 146.171 404.73C145.468 404.395 144.882 403.934 144.413 403.348C143.952 402.762 143.605 402.09 143.37 401.332C143.144 400.566 143.03 399.758 143.03 398.906V398.414C143.03 397.562 143.144 396.758 143.37 396C143.605 395.234 143.952 394.559 144.413 393.973C144.882 393.387 145.468 392.926 146.171 392.59C146.882 392.254 147.714 392.086 148.667 392.086C149.659 392.086 150.527 392.289 151.269 392.695C152.011 393.094 152.593 393.641 153.015 394.336C153.445 395.023 153.679 395.805 153.718 396.68H151.655C151.616 396.156 151.468 395.684 151.21 395.262C150.96 394.84 150.616 394.504 150.179 394.254C149.749 393.996 149.245 393.867 148.667 393.867C148.003 393.867 147.445 394 146.991 394.266C146.546 394.523 146.191 394.875 145.925 395.32C145.667 395.758 145.48 396.246 145.363 396.785C145.253 397.316 145.198 397.859 145.198 398.414V398.906C145.198 399.461 145.253 400.008 145.363 400.547C145.472 401.086 145.655 401.574 145.913 402.012C146.179 402.449 146.534 402.801 146.98 403.066C147.433 403.324 147.995 403.453 148.667 403.453ZM155.281 398.801V398.531C155.281 397.617 155.414 396.77 155.68 395.988C155.945 395.199 156.328 394.516 156.828 393.938C157.328 393.352 157.934 392.898 158.645 392.578C159.355 392.25 160.152 392.086 161.035 392.086C161.926 392.086 162.727 392.25 163.438 392.578C164.156 392.898 164.766 393.352 165.266 393.938C165.773 394.516 166.16 395.199 166.426 395.988C166.691 396.77 166.824 397.617 166.824 398.531V398.801C166.824 399.715 166.691 400.562 166.426 401.344C166.16 402.125 165.773 402.809 165.266 403.395C164.766 403.973 164.16 404.426 163.449 404.754C162.746 405.074 161.949 405.234 161.059 405.234C160.168 405.234 159.367 405.074 158.656 404.754C157.945 404.426 157.336 403.973 156.828 403.395C156.328 402.809 155.945 402.125 155.68 401.344C155.414 400.562 155.281 399.715 155.281 398.801ZM157.449 398.531V398.801C157.449 399.434 157.523 400.031 157.672 400.594C157.82 401.148 158.043 401.641 158.34 402.07C158.645 402.5 159.023 402.84 159.477 403.09C159.93 403.332 160.457 403.453 161.059 403.453C161.652 403.453 162.172 403.332 162.617 403.09C163.07 402.84 163.445 402.5 163.742 402.07C164.039 401.641 164.262 401.148 164.41 400.594C164.566 400.031 164.645 399.434 164.645 398.801V398.531C164.645 397.906 164.566 397.316 164.41 396.762C164.262 396.199 164.035 395.703 163.73 395.273C163.434 394.836 163.059 394.492 162.605 394.242C162.16 393.992 161.637 393.867 161.035 393.867C160.441 393.867 159.918 393.992 159.465 394.242C159.02 394.492 158.645 394.836 158.34 395.273C158.043 395.703 157.82 396.199 157.672 396.762C157.523 397.316 157.449 397.906 157.449 398.531ZM171.411 395.027V405H169.243V392.32H171.294L171.411 395.027ZM170.895 398.18L169.993 398.145C170.001 397.277 170.13 396.477 170.38 395.742C170.63 395 170.981 394.355 171.434 393.809C171.887 393.262 172.427 392.84 173.052 392.543C173.684 392.238 174.384 392.086 175.149 392.086C175.774 392.086 176.337 392.172 176.837 392.344C177.337 392.508 177.762 392.773 178.114 393.141C178.473 393.508 178.747 393.984 178.934 394.57C179.122 395.148 179.216 395.855 179.216 396.691V405H177.036V396.668C177.036 396.004 176.938 395.473 176.743 395.074C176.548 394.668 176.262 394.375 175.887 394.195C175.512 394.008 175.052 393.914 174.505 393.914C173.966 393.914 173.473 394.027 173.028 394.254C172.591 394.48 172.212 394.793 171.891 395.191C171.579 395.59 171.333 396.047 171.153 396.562C170.981 397.07 170.895 397.609 170.895 398.18ZM185.443 405H183.275V390.984C183.275 390.07 183.439 389.301 183.767 388.676C184.103 388.043 184.584 387.566 185.209 387.246C185.834 386.918 186.576 386.754 187.435 386.754C187.685 386.754 187.935 386.77 188.185 386.801C188.443 386.832 188.693 386.879 188.935 386.941L188.818 388.711C188.654 388.672 188.466 388.645 188.255 388.629C188.052 388.613 187.849 388.605 187.646 388.605C187.185 388.605 186.787 388.699 186.451 388.887C186.123 389.066 185.873 389.332 185.701 389.684C185.529 390.035 185.443 390.469 185.443 390.984V405ZM188.138 392.32V393.984H181.271V392.32H188.138ZM192.608 392.32V405H190.428V392.32H192.608ZM190.264 388.957C190.264 388.605 190.37 388.309 190.58 388.066C190.799 387.824 191.12 387.703 191.541 387.703C191.955 387.703 192.272 387.824 192.491 388.066C192.717 388.309 192.83 388.605 192.83 388.957C192.83 389.293 192.717 389.582 192.491 389.824C192.272 390.059 191.955 390.176 191.541 390.176C191.12 390.176 190.799 390.059 190.58 389.824C190.37 389.582 190.264 389.293 190.264 388.957ZM197.956 394.312V405H195.788V392.32H197.898L197.956 394.312ZM201.917 392.25L201.905 394.266C201.726 394.227 201.554 394.203 201.39 394.195C201.234 394.18 201.054 394.172 200.851 394.172C200.351 394.172 199.909 394.25 199.527 394.406C199.144 394.562 198.82 394.781 198.554 395.062C198.288 395.344 198.077 395.68 197.921 396.07C197.773 396.453 197.675 396.875 197.628 397.336L197.019 397.688C197.019 396.922 197.093 396.203 197.241 395.531C197.398 394.859 197.636 394.266 197.956 393.75C198.277 393.227 198.683 392.82 199.175 392.531C199.675 392.234 200.269 392.086 200.956 392.086C201.113 392.086 201.292 392.105 201.495 392.145C201.698 392.176 201.839 392.211 201.917 392.25ZM205.777 394.84V405H203.598V392.32H205.66L205.777 394.84ZM205.332 398.18L204.324 398.145C204.332 397.277 204.445 396.477 204.664 395.742C204.883 395 205.207 394.355 205.637 393.809C206.066 393.262 206.602 392.84 207.242 392.543C207.883 392.238 208.625 392.086 209.469 392.086C210.062 392.086 210.609 392.172 211.109 392.344C211.609 392.508 212.043 392.77 212.41 393.129C212.777 393.488 213.062 393.949 213.266 394.512C213.469 395.074 213.57 395.754 213.57 396.551V405H211.402V396.656C211.402 395.992 211.289 395.461 211.062 395.062C210.844 394.664 210.531 394.375 210.125 394.195C209.719 394.008 209.242 393.914 208.695 393.914C208.055 393.914 207.52 394.027 207.09 394.254C206.66 394.48 206.316 394.793 206.059 395.191C205.801 395.59 205.613 396.047 205.496 396.562C205.387 397.07 205.332 397.609 205.332 398.18ZM213.547 396.984L212.094 397.43C212.102 396.734 212.215 396.066 212.434 395.426C212.66 394.785 212.984 394.215 213.406 393.715C213.836 393.215 214.363 392.82 214.988 392.531C215.613 392.234 216.328 392.086 217.133 392.086C217.812 392.086 218.414 392.176 218.938 392.355C219.469 392.535 219.914 392.812 220.273 393.188C220.641 393.555 220.918 394.027 221.105 394.605C221.293 395.184 221.387 395.871 221.387 396.668V405H219.207V396.645C219.207 395.934 219.094 395.383 218.867 394.992C218.648 394.594 218.336 394.316 217.93 394.16C217.531 393.996 217.055 393.914 216.5 393.914C216.023 393.914 215.602 393.996 215.234 394.16C214.867 394.324 214.559 394.551 214.309 394.84C214.059 395.121 213.867 395.445 213.734 395.812C213.609 396.18 213.547 396.57 213.547 396.984ZM229.079 400.195H226.899C226.907 399.445 226.973 398.832 227.098 398.355C227.231 397.871 227.446 397.43 227.743 397.031C228.04 396.633 228.434 396.18 228.927 395.672C229.286 395.305 229.614 394.961 229.911 394.641C230.216 394.312 230.462 393.961 230.649 393.586C230.837 393.203 230.93 392.746 230.93 392.215C230.93 391.676 230.833 391.211 230.638 390.82C230.45 390.43 230.169 390.129 229.794 389.918C229.427 389.707 228.97 389.602 228.423 389.602C227.97 389.602 227.54 389.684 227.134 389.848C226.727 390.012 226.399 390.266 226.149 390.609C225.899 390.945 225.77 391.387 225.763 391.934H223.595C223.61 391.051 223.829 390.293 224.251 389.66C224.68 389.027 225.259 388.543 225.985 388.207C226.712 387.871 227.524 387.703 228.423 387.703C229.415 387.703 230.259 387.883 230.954 388.242C231.657 388.602 232.192 389.117 232.559 389.789C232.927 390.453 233.11 391.242 233.11 392.156C233.11 392.859 232.966 393.508 232.677 394.102C232.395 394.688 232.032 395.238 231.587 395.754C231.141 396.27 230.669 396.762 230.169 397.23C229.739 397.629 229.45 398.078 229.302 398.578C229.153 399.078 229.079 399.617 229.079 400.195ZM226.805 403.91C226.805 403.559 226.915 403.262 227.134 403.02C227.352 402.777 227.669 402.656 228.083 402.656C228.505 402.656 228.825 402.777 229.044 403.02C229.263 403.262 229.372 403.559 229.372 403.91C229.372 404.246 229.263 404.535 229.044 404.777C228.825 405.02 228.505 405.141 228.083 405.141C227.669 405.141 227.352 405.02 227.134 404.777C226.915 404.535 226.805 404.246 226.805 403.91Z" fill="black"/>
<rect x="89" y="45" width="200" height="40" fill="#C4C4C4"/>
<path d="M162.942 71.0088H171.028V72.8486H160.681V55.7861H162.942V71.0088ZM185.646 64.8682C185.646 66.54 185.365 68.001 184.802 69.251C184.24 70.4932 183.443 71.4424 182.412 72.0986C181.381 72.7549 180.177 73.083 178.802 73.083C177.459 73.083 176.267 72.7549 175.228 72.0986C174.189 71.4346 173.381 70.4932 172.802 69.2744C172.232 68.0479 171.939 66.6299 171.923 65.0205V63.79C171.923 62.1494 172.209 60.7002 172.779 59.4424C173.349 58.1846 174.154 57.2236 175.193 56.5596C176.24 55.8877 177.435 55.5518 178.779 55.5518C180.146 55.5518 181.349 55.8838 182.388 56.5479C183.435 57.2041 184.24 58.1611 184.802 59.4189C185.365 60.6689 185.646 62.126 185.646 63.79V64.8682ZM183.408 63.7666C183.408 61.7432 183.002 60.1924 182.189 59.1143C181.377 58.0283 180.24 57.4854 178.779 57.4854C177.357 57.4854 176.236 58.0283 175.416 59.1143C174.603 60.1924 174.185 61.6924 174.162 63.6143V64.8682C174.162 66.8291 174.572 68.3721 175.392 69.4971C176.22 70.6143 177.357 71.1729 178.802 71.1729C180.256 71.1729 181.381 70.6455 182.177 69.5908C182.974 68.5283 183.384 67.0088 183.408 65.0322V63.7666ZM201.319 70.6104C200.741 71.4385 199.932 72.0596 198.893 72.4736C197.862 72.8799 196.659 73.083 195.284 73.083C193.893 73.083 192.659 72.7588 191.581 72.1104C190.502 71.4541 189.666 70.5244 189.073 69.3213C188.487 68.1182 188.186 66.7236 188.17 65.1377V63.6494C188.17 61.0791 188.768 59.0869 189.963 57.6729C191.166 56.2588 192.854 55.5518 195.026 55.5518C196.807 55.5518 198.241 56.0088 199.327 56.9229C200.413 57.8291 201.077 59.1182 201.319 60.79H199.069C198.647 58.5322 197.303 57.4033 195.038 57.4033C193.53 57.4033 192.385 57.9346 191.604 58.9971C190.831 60.0518 190.44 61.583 190.432 63.5908V64.9854C190.432 66.8994 190.87 68.4229 191.745 69.5557C192.62 70.6807 193.803 71.2432 195.295 71.2432C196.139 71.2432 196.877 71.1494 197.51 70.9619C198.143 70.7744 198.666 70.458 199.081 70.0127V66.1807H195.131V64.3525H201.319V70.6104ZM217.906 64.8682C217.906 66.54 217.624 68.001 217.062 69.251C216.499 70.4932 215.702 71.4424 214.671 72.0986C213.64 72.7549 212.437 73.083 211.062 73.083C209.718 73.083 208.527 72.7549 207.488 72.0986C206.448 71.4346 205.64 70.4932 205.062 69.2744C204.491 68.0479 204.198 66.6299 204.183 65.0205V63.79C204.183 62.1494 204.468 60.7002 205.038 59.4424C205.609 58.1846 206.413 57.2236 207.452 56.5596C208.499 55.8877 209.695 55.5518 211.038 55.5518C212.406 55.5518 213.609 55.8838 214.648 56.5479C215.695 57.2041 216.499 58.1611 217.062 59.4189C217.624 60.6689 217.906 62.126 217.906 63.79V64.8682ZM215.667 63.7666C215.667 61.7432 215.261 60.1924 214.448 59.1143C213.636 58.0283 212.499 57.4854 211.038 57.4854C209.616 57.4854 208.495 58.0283 207.675 59.1143C206.863 60.1924 206.445 61.6924 206.421 63.6143V64.8682C206.421 66.8291 206.831 68.3721 207.652 69.4971C208.48 70.6143 209.616 71.1729 211.062 71.1729C212.515 71.1729 213.64 70.6455 214.437 69.5908C215.234 68.5283 215.644 67.0088 215.667 65.0322V63.7666Z" fill="black"/>
<rect x="122" y="800" width="134" height="5" rx="2.5" fill="black"/>
<path d="M44 85L31 98.5L44 112" stroke="black" stroke-width="5" stroke-linecap="round" stroke-linejoin="round"/>
<rect x="1" y="714" width="375" height="65" fill="#C4C4C4"/>
<path d="M173.461 768.484C173.461 768.252 173.424 768.047 173.352 767.869C173.283 767.687 173.16 767.523 172.982 767.377C172.809 767.231 172.568 767.092 172.258 766.96C171.952 766.828 171.565 766.693 171.096 766.557C170.604 766.411 170.159 766.249 169.763 766.071C169.366 765.889 169.027 765.682 168.744 765.449C168.462 765.217 168.245 764.95 168.095 764.649C167.944 764.349 167.869 764.005 167.869 763.617C167.869 763.23 167.949 762.872 168.108 762.544C168.268 762.216 168.496 761.931 168.792 761.689C169.093 761.443 169.451 761.252 169.865 761.115C170.28 760.979 170.743 760.91 171.253 760.91C172 760.91 172.634 761.054 173.153 761.341C173.677 761.623 174.076 761.995 174.35 762.455C174.623 762.911 174.76 763.398 174.76 763.918H173.447C173.447 763.544 173.368 763.214 173.208 762.927C173.049 762.635 172.807 762.407 172.483 762.243C172.16 762.075 171.75 761.99 171.253 761.99C170.784 761.99 170.396 762.061 170.091 762.202C169.785 762.343 169.558 762.535 169.407 762.776C169.261 763.018 169.188 763.294 169.188 763.604C169.188 763.813 169.232 764.005 169.318 764.178C169.41 764.346 169.549 764.504 169.735 764.649C169.927 764.795 170.168 764.93 170.46 765.053C170.756 765.176 171.109 765.294 171.52 765.408C172.085 765.568 172.572 765.745 172.982 765.941C173.393 766.137 173.73 766.358 173.994 766.604C174.263 766.846 174.461 767.122 174.589 767.432C174.721 767.737 174.787 768.083 174.787 768.471C174.787 768.876 174.705 769.243 174.541 769.571C174.377 769.899 174.142 770.18 173.837 770.412C173.532 770.645 173.165 770.825 172.736 770.952C172.312 771.075 171.839 771.137 171.314 771.137C170.854 771.137 170.401 771.073 169.954 770.945C169.512 770.818 169.109 770.626 168.744 770.371C168.384 770.116 168.095 769.801 167.876 769.428C167.662 769.049 167.555 768.612 167.555 768.115H168.867C168.867 768.457 168.933 768.751 169.065 768.997C169.198 769.239 169.378 769.439 169.605 769.599C169.838 769.758 170.1 769.877 170.392 769.954C170.688 770.027 170.995 770.063 171.314 770.063C171.775 770.063 172.164 770 172.483 769.872C172.802 769.744 173.044 769.562 173.208 769.325C173.377 769.088 173.461 768.808 173.461 768.484ZM179.347 771.137C178.832 771.137 178.365 771.05 177.945 770.877C177.531 770.699 177.173 770.451 176.872 770.132C176.576 769.813 176.348 769.435 176.188 768.997C176.029 768.56 175.949 768.081 175.949 767.562V767.274C175.949 766.673 176.038 766.137 176.216 765.668C176.394 765.194 176.635 764.793 176.94 764.465C177.246 764.137 177.592 763.888 177.979 763.72C178.367 763.551 178.768 763.467 179.183 763.467C179.711 763.467 180.167 763.558 180.55 763.74C180.937 763.923 181.254 764.178 181.5 764.506C181.746 764.829 181.928 765.212 182.047 765.654C182.165 766.092 182.225 766.57 182.225 767.09V767.657H176.701V766.625H180.96V766.529C180.942 766.201 180.873 765.882 180.755 765.572C180.641 765.262 180.459 765.007 180.208 764.807C179.957 764.606 179.616 764.506 179.183 764.506C178.896 764.506 178.631 764.567 178.39 764.69C178.148 764.809 177.941 764.987 177.768 765.224C177.594 765.461 177.46 765.75 177.364 766.092C177.269 766.434 177.221 766.828 177.221 767.274V767.562C177.221 767.912 177.269 768.243 177.364 768.553C177.465 768.858 177.608 769.127 177.795 769.359C177.986 769.592 178.216 769.774 178.485 769.906C178.759 770.038 179.069 770.104 179.415 770.104C179.862 770.104 180.24 770.013 180.55 769.831C180.86 769.649 181.131 769.405 181.363 769.1L182.129 769.708C181.969 769.95 181.767 770.18 181.521 770.398C181.274 770.617 180.971 770.795 180.611 770.932C180.256 771.068 179.834 771.137 179.347 771.137ZM188.062 769.735V765.928C188.062 765.636 188.003 765.383 187.885 765.169C187.771 764.95 187.598 764.782 187.365 764.663C187.133 764.545 186.846 764.485 186.504 764.485C186.185 764.485 185.905 764.54 185.663 764.649C185.426 764.759 185.239 764.902 185.103 765.08C184.97 765.258 184.904 765.449 184.904 765.654H183.64C183.64 765.39 183.708 765.128 183.845 764.868C183.981 764.608 184.177 764.374 184.433 764.164C184.692 763.95 185.002 763.781 185.362 763.658C185.727 763.531 186.132 763.467 186.579 763.467C187.117 763.467 187.591 763.558 188.001 763.74C188.416 763.923 188.739 764.198 188.972 764.567C189.209 764.932 189.327 765.39 189.327 765.941V769.387C189.327 769.633 189.348 769.895 189.389 770.173C189.434 770.451 189.5 770.69 189.587 770.891V771H188.268C188.204 770.854 188.154 770.66 188.117 770.419C188.081 770.173 188.062 769.945 188.062 769.735ZM188.281 766.516L188.295 767.404H187.017C186.657 767.404 186.335 767.434 186.053 767.493C185.77 767.548 185.533 767.632 185.342 767.746C185.15 767.86 185.005 768.004 184.904 768.177C184.804 768.345 184.754 768.544 184.754 768.771C184.754 769.004 184.806 769.216 184.911 769.407C185.016 769.599 185.173 769.751 185.383 769.865C185.597 769.975 185.859 770.029 186.169 770.029C186.556 770.029 186.898 769.947 187.194 769.783C187.491 769.619 187.725 769.419 187.898 769.182C188.076 768.945 188.172 768.715 188.186 768.491L188.726 769.1C188.694 769.291 188.607 769.503 188.466 769.735C188.325 769.968 188.135 770.191 187.898 770.405C187.666 770.615 187.388 770.79 187.064 770.932C186.745 771.068 186.385 771.137 185.984 771.137C185.483 771.137 185.043 771.039 184.665 770.843C184.291 770.647 184 770.385 183.79 770.057C183.585 769.724 183.482 769.353 183.482 768.942C183.482 768.546 183.56 768.197 183.715 767.896C183.87 767.591 184.093 767.338 184.385 767.138C184.676 766.933 185.027 766.778 185.438 766.673C185.848 766.568 186.306 766.516 186.812 766.516H188.281ZM192.581 764.766V771H191.316V763.604H192.547L192.581 764.766ZM194.892 763.562L194.885 764.738C194.78 764.715 194.68 764.702 194.584 764.697C194.493 764.688 194.388 764.684 194.27 764.684C193.978 764.684 193.72 764.729 193.497 764.82C193.274 764.911 193.085 765.039 192.93 765.203C192.775 765.367 192.652 765.563 192.561 765.791C192.474 766.014 192.417 766.26 192.39 766.529L192.034 766.734C192.034 766.288 192.077 765.868 192.164 765.477C192.255 765.085 192.394 764.738 192.581 764.438C192.768 764.132 193.005 763.895 193.292 763.727C193.584 763.553 193.93 763.467 194.331 763.467C194.422 763.467 194.527 763.478 194.646 763.501C194.764 763.519 194.846 763.54 194.892 763.562ZM198.884 770.098C199.185 770.098 199.463 770.036 199.718 769.913C199.973 769.79 200.183 769.621 200.347 769.407C200.511 769.188 200.604 768.94 200.627 768.662H201.83C201.807 769.1 201.659 769.507 201.386 769.886C201.117 770.259 200.764 770.562 200.326 770.795C199.889 771.023 199.408 771.137 198.884 771.137C198.328 771.137 197.842 771.039 197.428 770.843C197.018 770.647 196.676 770.378 196.402 770.036C196.133 769.694 195.931 769.302 195.794 768.86C195.662 768.414 195.596 767.942 195.596 767.445V767.158C195.596 766.661 195.662 766.192 195.794 765.75C195.931 765.303 196.133 764.909 196.402 764.567C196.676 764.226 197.018 763.957 197.428 763.761C197.842 763.565 198.328 763.467 198.884 763.467C199.463 763.467 199.968 763.585 200.401 763.822C200.834 764.055 201.174 764.374 201.42 764.779C201.671 765.18 201.807 765.636 201.83 766.146H200.627C200.604 765.841 200.518 765.565 200.367 765.319C200.221 765.073 200.021 764.877 199.766 764.731C199.515 764.581 199.221 764.506 198.884 764.506C198.496 764.506 198.171 764.583 197.906 764.738C197.646 764.889 197.439 765.094 197.284 765.354C197.134 765.609 197.024 765.894 196.956 766.208C196.892 766.518 196.86 766.835 196.86 767.158V767.445C196.86 767.769 196.892 768.088 196.956 768.402C197.02 768.717 197.127 769.002 197.277 769.257C197.432 769.512 197.64 769.717 197.899 769.872C198.164 770.022 198.492 770.098 198.884 770.098ZM204.517 760.5V771H203.252V760.5H204.517ZM204.216 767.021L203.689 767.001C203.694 766.495 203.769 766.028 203.915 765.6C204.061 765.167 204.266 764.791 204.53 764.472C204.795 764.153 205.109 763.907 205.474 763.733C205.843 763.556 206.251 763.467 206.697 763.467C207.062 763.467 207.39 763.517 207.682 763.617C207.973 763.713 208.222 763.868 208.427 764.082C208.636 764.296 208.796 764.574 208.905 764.916C209.015 765.253 209.069 765.666 209.069 766.153V771H207.798V766.14C207.798 765.752 207.741 765.442 207.627 765.21C207.513 764.973 207.347 764.802 207.128 764.697C206.909 764.588 206.64 764.533 206.321 764.533C206.007 764.533 205.72 764.599 205.46 764.731C205.205 764.864 204.984 765.046 204.797 765.278C204.615 765.511 204.471 765.777 204.366 766.078C204.266 766.374 204.216 766.689 204.216 767.021Z" fill="black"/>
<path d="M186.185 747.092C188.746 747.091 191.234 746.234 193.252 744.656L199.596 751L201.637 748.959L195.293 742.615C196.872 740.597 197.73 738.108 197.73 735.546C197.73 729.18 192.551 724 186.185 724C179.818 724 174.639 729.18 174.639 735.546C174.639 741.912 179.818 747.092 186.185 747.092ZM186.185 726.886C190.96 726.886 194.844 730.77 194.844 735.546C194.844 740.322 190.96 744.205 186.185 744.205C181.409 744.205 177.525 740.322 177.525 735.546C177.525 730.77 181.409 726.886 186.185 726.886Z" fill="black"/>
<path d="M188.222 733.505C188.769 734.054 189.071 734.778 189.071 735.546H191.957C191.959 734.787 191.81 734.036 191.519 733.336C191.228 732.635 190.801 731.999 190.263 731.465C188.078 729.282 184.29 729.282 182.106 731.465L184.144 733.508C185.241 732.414 187.131 732.417 188.222 733.505Z" fill="black"/>
<path d="M65.8164 765.326V766.399H60.4297V765.326H65.8164ZM60.6348 761.047V771H59.3154V761.047H60.6348ZM66.9648 761.047V771H65.6523V761.047H66.9648ZM68.7832 767.384V767.227C68.7832 766.693 68.8607 766.199 69.0156 765.743C69.1706 765.283 69.3939 764.884 69.6855 764.547C69.9772 764.205 70.3304 763.941 70.7451 763.754C71.1598 763.562 71.6247 763.467 72.1396 763.467C72.6592 763.467 73.1263 763.562 73.541 763.754C73.9603 763.941 74.3158 764.205 74.6074 764.547C74.9036 764.884 75.1292 765.283 75.2842 765.743C75.4391 766.199 75.5166 766.693 75.5166 767.227V767.384C75.5166 767.917 75.4391 768.411 75.2842 768.867C75.1292 769.323 74.9036 769.722 74.6074 770.063C74.3158 770.401 73.9626 770.665 73.5479 770.856C73.1377 771.043 72.6729 771.137 72.1533 771.137C71.6338 771.137 71.1667 771.043 70.752 770.856C70.3372 770.665 69.9818 770.401 69.6855 770.063C69.3939 769.722 69.1706 769.323 69.0156 768.867C68.8607 768.411 68.7832 767.917 68.7832 767.384ZM70.0479 767.227V767.384C70.0479 767.753 70.0911 768.102 70.1777 768.43C70.2643 768.753 70.3942 769.04 70.5674 769.291C70.7451 769.542 70.9661 769.74 71.2305 769.886C71.4948 770.027 71.8024 770.098 72.1533 770.098C72.4997 770.098 72.8027 770.027 73.0625 769.886C73.3268 769.74 73.5456 769.542 73.7188 769.291C73.8919 769.04 74.0218 768.753 74.1084 768.43C74.1995 768.102 74.2451 767.753 74.2451 767.384V767.227C74.2451 766.862 74.1995 766.518 74.1084 766.194C74.0218 765.866 73.8896 765.577 73.7119 765.326C73.5387 765.071 73.32 764.87 73.0557 764.725C72.7959 764.579 72.4906 764.506 72.1396 764.506C71.7933 764.506 71.488 764.579 71.2236 764.725C70.9639 764.87 70.7451 765.071 70.5674 765.326C70.3942 765.577 70.2643 765.866 70.1777 766.194C70.0911 766.518 70.0479 766.862 70.0479 767.227ZM78.3604 765.073V771H77.0889V763.604H78.292L78.3604 765.073ZM78.1006 767.021L77.5127 767.001C77.5173 766.495 77.5833 766.028 77.7109 765.6C77.8385 765.167 78.0277 764.791 78.2783 764.472C78.529 764.153 78.8411 763.907 79.2148 763.733C79.5885 763.556 80.0215 763.467 80.5137 763.467C80.86 763.467 81.179 763.517 81.4707 763.617C81.7624 763.713 82.0153 763.866 82.2295 764.075C82.4437 764.285 82.61 764.554 82.7285 764.882C82.847 765.21 82.9062 765.606 82.9062 766.071V771H81.6416V766.133C81.6416 765.745 81.5755 765.436 81.4434 765.203C81.3158 764.971 81.1335 764.802 80.8965 764.697C80.6595 764.588 80.3815 764.533 80.0625 764.533C79.6888 764.533 79.3766 764.599 79.126 764.731C78.8753 764.864 78.6748 765.046 78.5244 765.278C78.374 765.511 78.2646 765.777 78.1963 766.078C78.1325 766.374 78.1006 766.689 78.1006 767.021ZM82.8926 766.324L82.0449 766.584C82.0495 766.178 82.1156 765.789 82.2432 765.415C82.3753 765.041 82.5645 764.709 82.8105 764.417C83.0612 764.125 83.3688 763.895 83.7334 763.727C84.098 763.553 84.515 763.467 84.9844 763.467C85.3809 763.467 85.7318 763.519 86.0371 763.624C86.347 763.729 86.6068 763.891 86.8164 764.109C87.0306 764.324 87.1924 764.599 87.3018 764.937C87.4111 765.274 87.4658 765.675 87.4658 766.14V771H86.1943V766.126C86.1943 765.711 86.1283 765.39 85.9961 765.162C85.8685 764.93 85.6862 764.768 85.4492 764.677C85.2168 764.581 84.9388 764.533 84.6152 764.533C84.3372 764.533 84.0911 764.581 83.877 764.677C83.6628 764.772 83.4827 764.905 83.3369 765.073C83.1911 765.237 83.0794 765.426 83.002 765.641C82.929 765.855 82.8926 766.083 82.8926 766.324ZM92.4492 771.137C91.9342 771.137 91.4671 771.05 91.0479 770.877C90.6331 770.699 90.2754 770.451 89.9746 770.132C89.6784 769.813 89.4505 769.435 89.291 768.997C89.1315 768.56 89.0518 768.081 89.0518 767.562V767.274C89.0518 766.673 89.1406 766.137 89.3184 765.668C89.4961 765.194 89.7376 764.793 90.043 764.465C90.3483 764.137 90.6947 763.888 91.082 763.72C91.4694 763.551 91.8704 763.467 92.2852 763.467C92.8138 763.467 93.2695 763.558 93.6523 763.74C94.0397 763.923 94.3564 764.178 94.6025 764.506C94.8486 764.829 95.0309 765.212 95.1494 765.654C95.2679 766.092 95.3271 766.57 95.3271 767.09V767.657H89.8037V766.625H94.0625V766.529C94.0443 766.201 93.9759 765.882 93.8574 765.572C93.7435 765.262 93.5612 765.007 93.3105 764.807C93.0599 764.606 92.7181 764.506 92.2852 764.506C91.998 764.506 91.7337 764.567 91.4922 764.69C91.2507 764.809 91.0433 764.987 90.8701 765.224C90.6969 765.461 90.5625 765.75 90.4668 766.092C90.3711 766.434 90.3232 766.828 90.3232 767.274V767.562C90.3232 767.912 90.3711 768.243 90.4668 768.553C90.5671 768.858 90.7106 769.127 90.8975 769.359C91.0889 769.592 91.319 769.774 91.5879 769.906C91.8613 770.038 92.1712 770.104 92.5176 770.104C92.9642 770.104 93.3424 770.013 93.6523 769.831C93.9622 769.649 94.2334 769.405 94.4658 769.1L95.2314 769.708C95.0719 769.95 94.8691 770.18 94.623 770.398C94.377 770.617 94.0739 770.795 93.7139 770.932C93.3584 771.068 92.9368 771.137 92.4492 771.137Z" fill="black"/>
<path d="M91.5781 737.155L78.7062 724.293C78.6135 724.2 78.5035 724.126 78.3823 724.076C78.2611 724.026 78.1312 724 78 724C77.8688 724 77.7389 724.026 77.6177 724.076C77.4965 724.126 77.3864 724.2 77.2937 724.293L64.4219 737.155C64.0469 737.53 63.8344 738.04 63.8344 738.571C63.8344 739.674 64.7312 740.571 65.8344 740.571H67.1906V749.749C67.1906 750.302 67.6375 750.749 68.1906 750.749H76V743.749H79.5V750.749H87.8094C88.3625 750.749 88.8094 750.302 88.8094 749.749V740.571H90.1656C90.6968 740.571 91.2062 740.362 91.5812 739.984C92.3594 739.202 92.3594 737.937 91.5781 737.155Z" fill="black"/>
<path d="M274.9 761.047H276.179L279.439 769.161L282.693 761.047H283.979L279.932 771H278.934L274.9 761.047ZM274.483 761.047H275.611L275.796 767.117V771H274.483V761.047ZM283.261 761.047H284.389V771H283.076V767.117L283.261 761.047ZM288.593 770.234L290.65 763.604H292.004L289.037 772.142C288.969 772.324 288.878 772.52 288.764 772.729C288.654 772.944 288.513 773.146 288.34 773.338C288.167 773.529 287.957 773.684 287.711 773.803C287.469 773.926 287.18 773.987 286.843 773.987C286.743 773.987 286.615 773.974 286.46 773.946C286.305 773.919 286.196 773.896 286.132 773.878L286.125 772.853C286.161 772.857 286.218 772.862 286.296 772.866C286.378 772.875 286.435 772.88 286.467 772.88C286.754 772.88 286.998 772.841 287.198 772.764C287.399 772.691 287.567 772.565 287.704 772.388C287.845 772.215 287.966 771.975 288.066 771.67L288.593 770.234ZM287.082 763.604L289.003 769.346L289.331 770.679L288.422 771.144L285.701 763.604H287.082ZM300.48 767.097H297.821V766.023H300.48C300.995 766.023 301.412 765.941 301.731 765.777C302.05 765.613 302.283 765.385 302.429 765.094C302.579 764.802 302.654 764.469 302.654 764.096C302.654 763.754 302.579 763.433 302.429 763.132C302.283 762.831 302.05 762.59 301.731 762.407C301.412 762.22 300.995 762.127 300.48 762.127H298.129V771H296.81V761.047H300.48C301.232 761.047 301.868 761.177 302.388 761.437C302.907 761.696 303.301 762.056 303.57 762.517C303.839 762.972 303.974 763.494 303.974 764.082C303.974 764.72 303.839 765.265 303.57 765.716C303.301 766.167 302.907 766.511 302.388 766.748C301.868 766.98 301.232 767.097 300.48 767.097ZM306.715 764.766V771H305.45V763.604H306.681L306.715 764.766ZM309.025 763.562L309.019 764.738C308.914 764.715 308.813 764.702 308.718 764.697C308.627 764.688 308.522 764.684 308.403 764.684C308.112 764.684 307.854 764.729 307.631 764.82C307.408 764.911 307.218 765.039 307.063 765.203C306.909 765.367 306.785 765.563 306.694 765.791C306.608 766.014 306.551 766.26 306.523 766.529L306.168 766.734C306.168 766.288 306.211 765.868 306.298 765.477C306.389 765.085 306.528 764.738 306.715 764.438C306.902 764.132 307.139 763.895 307.426 763.727C307.717 763.553 308.064 763.467 308.465 763.467C308.556 763.467 308.661 763.478 308.779 763.501C308.898 763.519 308.98 763.54 309.025 763.562ZM309.723 767.384V767.227C309.723 766.693 309.8 766.199 309.955 765.743C310.11 765.283 310.333 764.884 310.625 764.547C310.917 764.205 311.27 763.941 311.685 763.754C312.099 763.562 312.564 763.467 313.079 763.467C313.599 763.467 314.066 763.562 314.48 763.754C314.9 763.941 315.255 764.205 315.547 764.547C315.843 764.884 316.069 765.283 316.224 765.743C316.379 766.199 316.456 766.693 316.456 767.227V767.384C316.456 767.917 316.379 768.411 316.224 768.867C316.069 769.323 315.843 769.722 315.547 770.063C315.255 770.401 314.902 770.665 314.487 770.856C314.077 771.043 313.612 771.137 313.093 771.137C312.573 771.137 312.106 771.043 311.691 770.856C311.277 770.665 310.921 770.401 310.625 770.063C310.333 769.722 310.11 769.323 309.955 768.867C309.8 768.411 309.723 767.917 309.723 767.384ZM310.987 767.227V767.384C310.987 767.753 311.031 768.102 311.117 768.43C311.204 768.753 311.334 769.04 311.507 769.291C311.685 769.542 311.906 769.74 312.17 769.886C312.434 770.027 312.742 770.098 313.093 770.098C313.439 770.098 313.742 770.027 314.002 769.886C314.266 769.74 314.485 769.542 314.658 769.291C314.831 769.04 314.961 768.753 315.048 768.43C315.139 768.102 315.185 767.753 315.185 767.384V767.227C315.185 766.862 315.139 766.518 315.048 766.194C314.961 765.866 314.829 765.577 314.651 765.326C314.478 765.071 314.259 764.87 313.995 764.725C313.735 764.579 313.43 764.506 313.079 764.506C312.733 764.506 312.427 764.579 312.163 764.725C311.903 764.87 311.685 765.071 311.507 765.326C311.334 765.577 311.204 765.866 311.117 766.194C311.031 766.518 310.987 766.862 310.987 767.227ZM319.73 771H318.466V762.961C318.466 762.4 318.575 761.926 318.794 761.539C319.013 761.152 319.325 760.858 319.73 760.657C320.136 760.457 320.617 760.356 321.173 760.356C321.501 760.356 321.822 760.397 322.137 760.479C322.451 760.557 322.775 760.655 323.107 760.773L322.896 761.84C322.686 761.758 322.442 761.68 322.164 761.607C321.891 761.53 321.59 761.491 321.262 761.491C320.719 761.491 320.327 761.614 320.086 761.86C319.849 762.102 319.73 762.469 319.73 762.961V771ZM321.241 763.604V764.574H317.297V763.604H321.241ZM323.729 763.604V771H322.465V763.604H323.729ZM327.182 760.5V771H325.91V760.5H327.182ZM332.281 771.137C331.766 771.137 331.299 771.05 330.88 770.877C330.465 770.699 330.107 770.451 329.807 770.132C329.51 769.813 329.283 769.435 329.123 768.997C328.964 768.56 328.884 768.081 328.884 767.562V767.274C328.884 766.673 328.973 766.137 329.15 765.668C329.328 765.194 329.57 764.793 329.875 764.465C330.18 764.137 330.527 763.888 330.914 763.72C331.301 763.551 331.702 763.467 332.117 763.467C332.646 763.467 333.102 763.558 333.484 763.74C333.872 763.923 334.188 764.178 334.435 764.506C334.681 764.829 334.863 765.212 334.981 765.654C335.1 766.092 335.159 766.57 335.159 767.09V767.657H329.636V766.625H333.895V766.529C333.876 766.201 333.808 765.882 333.689 765.572C333.576 765.262 333.393 765.007 333.143 764.807C332.892 764.606 332.55 764.506 332.117 764.506C331.83 764.506 331.566 764.567 331.324 764.69C331.083 764.809 330.875 764.987 330.702 765.224C330.529 765.461 330.395 765.75 330.299 766.092C330.203 766.434 330.155 766.828 330.155 767.274V767.562C330.155 767.912 330.203 768.243 330.299 768.553C330.399 768.858 330.543 769.127 330.729 769.359C330.921 769.592 331.151 769.774 331.42 769.906C331.693 770.038 332.003 770.104 332.35 770.104C332.796 770.104 333.174 770.013 333.484 769.831C333.794 769.649 334.065 769.405 334.298 769.1L335.063 769.708C334.904 769.95 334.701 770.18 334.455 770.398C334.209 770.617 333.906 770.795 333.546 770.932C333.19 771.068 332.769 771.137 332.281 771.137Z" fill="black"/>
<path d="M299.688 725.938C300.646 725.938 301.582 726.222 302.379 726.754C303.175 727.286 303.796 728.043 304.163 728.928C304.529 729.813 304.625 730.787 304.438 731.726C304.251 732.666 303.79 733.529 303.113 734.206C302.435 734.884 301.572 735.345 300.632 735.532C299.693 735.719 298.719 735.623 297.834 735.256C296.949 734.89 296.192 734.269 295.66 733.472C295.128 732.676 294.844 731.739 294.844 730.781C294.844 729.497 295.354 728.265 296.262 727.356C297.171 726.448 298.403 725.938 299.688 725.938ZM299.688 724C298.346 724 297.035 724.398 295.92 725.143C294.805 725.888 293.936 726.947 293.422 728.186C292.909 729.425 292.775 730.789 293.037 732.104C293.298 733.42 293.944 734.628 294.892 735.576C295.841 736.525 297.049 737.171 298.365 737.432C299.68 737.694 301.043 737.56 302.283 737.046C303.522 736.533 304.581 735.664 305.326 734.549C306.071 733.434 306.469 732.122 306.469 730.781C306.469 728.983 305.754 727.258 304.483 725.986C303.211 724.714 301.486 724 299.688 724Z" fill="black"/>
<path d="M309.375 751.125H307.438V746.281C307.438 744.997 306.927 743.765 306.019 742.856C305.11 741.948 303.878 741.438 302.594 741.438H296.781C295.497 741.438 294.265 741.948 293.356 742.856C292.448 743.765 291.938 744.997 291.938 746.281V751.125H290V746.281C290 744.483 290.714 742.758 291.986 741.486C293.258 740.214 294.983 739.5 296.781 739.5H302.594C304.392 739.5 306.117 740.214 307.389 741.486C308.661 742.758 309.375 744.483 309.375 746.281V751.125Z" fill="black"/>
<path d="M309.375 725.938H319.062V727.875H309.375V725.938Z" fill="black"/>
<path d="M309.375 730.781H319.062V732.719H309.375V730.781Z" fill="black"/>
<path d="M309.375 735.625H316.156V737.562H309.375V735.625Z" fill="black"/>
</g>
<rect x="0.5" y="0.5" width="376" height="813" stroke="black"/>
<defs>
<clipPath id="clip0_7_1444">
<rect x="1" y="1" width="375" height="812" fill="white"/>
</clipPath>
</defs>
</svg>
