<svg width="377" height="814" viewBox="0 0 377 814" fill="none" xmlns="http://www.w3.org/2000/svg">
<g clip-path="url(#clip0_7_1420)">
<rect x="1" y="1" width="375" height="812" fill="white"/>
<rect x="1" y="45" width="375" height="733" fill="black"/>
<path d="M38.2146 18.1675C35.9222 18.1675 34.2889 19.7349 34.2889 21.8809V21.8955C34.2889 23.9023 35.7098 25.3818 37.7386 25.3818C39.1888 25.3818 40.1116 24.6421 40.4998 23.8071H40.6463C40.6463 23.8877 40.639 23.9683 40.639 24.0488C40.5584 26.0703 39.8479 27.7109 38.1707 27.7109C37.2405 27.7109 36.5887 27.2275 36.3104 26.4878L36.2884 26.4146H34.428L34.4427 26.4951C34.7796 28.1138 36.2298 29.2637 38.1707 29.2637C40.8294 29.2637 42.4334 27.1543 42.4334 23.5947V23.5801C42.4334 19.7715 40.4705 18.1675 38.2146 18.1675ZM38.2073 23.9316C37.0062 23.9316 36.1346 23.0527 36.1346 21.8296V21.8149C36.1346 20.6357 37.0647 19.7056 38.2293 19.7056C39.4012 19.7056 40.3167 20.6504 40.3167 21.8589V21.8735C40.3167 23.0674 39.4012 23.9316 38.2073 23.9316ZM45.4586 22.1519C46.1324 22.1519 46.6231 21.6392 46.6231 20.9946C46.6231 20.3428 46.1324 19.8374 45.4586 19.8374C44.7921 19.8374 44.294 20.3428 44.294 20.9946C44.294 21.6392 44.7921 22.1519 45.4586 22.1519ZM45.4586 27.5864C46.1324 27.5864 46.6231 27.0811 46.6231 26.4292C46.6231 25.7773 46.1324 25.272 45.4586 25.272C44.7921 25.272 44.294 25.7773 44.294 26.4292C44.294 27.0811 44.7921 27.5864 45.4586 27.5864ZM53.6107 29H55.4198V26.9712H56.8407V25.4111H55.4198V18.4312H52.7465C51.3109 20.6138 49.8095 23.0454 48.4398 25.4258V26.9712H53.6107V29ZM50.1977 25.4551V25.3452C51.223 23.5508 52.4462 21.5952 53.5302 19.9399H53.64V25.4551H50.1977ZM60.9206 29H62.8103V18.4312H60.9279L58.1667 20.3721V22.1519L60.7961 20.2915H60.9206V29Z" fill="black"/>
<rect opacity="0.35" x="337.833" y="18.8335" width="21" height="10.3333" rx="2.16667" stroke="black"/>
<path opacity="0.4" d="M360.333 22V26C361.138 25.6612 361.661 24.8731 361.661 24C361.661 23.1269 361.138 22.3388 360.333 22" fill="black"/>
<rect x="339.333" y="20.3335" width="18" height="7.33333" rx="1.33333" fill="black"/>
<path fill-rule="evenodd" clip-rule="evenodd" d="M324.667 20.615C326.892 20.6151 329.031 21.4693 330.644 23.0008C330.765 23.1191 330.959 23.1176 331.079 22.9975L332.239 21.8272C332.3 21.7663 332.334 21.6837 332.333 21.5979C332.333 21.512 332.298 21.4299 332.237 21.3697C328.005 17.3175 321.329 17.3175 317.097 21.3697C317.035 21.4299 317.001 21.512 317 21.5978C316.999 21.6837 317.033 21.7662 317.094 21.8272L318.255 22.9975C318.374 23.1178 318.568 23.1193 318.69 23.0008C320.302 21.4692 322.442 20.615 324.667 20.615ZM324.667 24.4226C325.889 24.4226 327.068 24.8765 327.974 25.6963C328.097 25.8126 328.29 25.8101 328.409 25.6906L329.569 24.5203C329.63 24.4589 329.663 24.3756 329.663 24.2891C329.662 24.2025 329.626 24.12 329.564 24.0598C326.805 21.4954 322.532 21.4954 319.773 24.0598C319.71 24.12 319.675 24.2026 319.674 24.2891C319.673 24.3757 319.707 24.459 319.768 24.5203L320.927 25.6906C321.047 25.8101 321.24 25.8126 321.362 25.6963C322.268 24.877 323.446 24.4231 324.667 24.4226ZM326.989 26.9845C326.991 27.0712 326.957 27.1549 326.895 27.2157L324.89 29.2377C324.831 29.2971 324.751 29.3306 324.667 29.3306C324.583 29.3306 324.503 29.2971 324.445 29.2377L322.439 27.2157C322.377 27.1549 322.343 27.0712 322.345 26.9844C322.347 26.8976 322.384 26.8154 322.449 26.7573C323.729 25.675 325.605 25.675 326.886 26.7573C326.95 26.8155 326.988 26.8977 326.989 26.9845Z" fill="black"/>
<path fill-rule="evenodd" clip-rule="evenodd" d="M311 18.6665H310C309.448 18.6665 309 19.1142 309 19.6665V28.3332C309 28.8855 309.448 29.3332 310 29.3332H311C311.552 29.3332 312 28.8855 312 28.3332V19.6665C312 19.1142 311.552 18.6665 311 18.6665ZM305.333 20.9998H306.333C306.886 20.9998 307.333 21.4476 307.333 21.9998V28.3332C307.333 28.8855 306.886 29.3332 306.333 29.3332H305.333C304.781 29.3332 304.333 28.8855 304.333 28.3332V21.9998C304.333 21.4476 304.781 20.9998 305.333 20.9998ZM301.667 23.3332H300.667C300.114 23.3332 299.667 23.7809 299.667 24.3332V28.3332C299.667 28.8855 300.114 29.3332 300.667 29.3332H301.667C302.219 29.3332 302.667 28.8855 302.667 28.3332V24.3332C302.667 23.7809 302.219 23.3332 301.667 23.3332ZM297 25.3332H296C295.448 25.3332 295 25.7809 295 26.3332V28.3332C295 28.8855 295.448 29.3332 296 29.3332H297C297.552 29.3332 298 28.8855 298 28.3332V26.3332C298 25.7809 297.552 25.3332 297 25.3332Z" fill="black"/>
<rect x="1" y="778" width="375" height="35" fill="white"/>
<rect x="122" y="799" width="134" height="5" rx="2.5" fill="black"/>
<path d="M33.7555 402H39.0289L41.3727 394.715H51.8023L54.1656 402H59.4391L49.4391 373.816H43.7555L33.7555 402ZM46.4312 379.051H46.7633L50.5523 390.828H42.6422L46.4312 379.051ZM63.9828 402H68.5336V381.961H68.8656L76.6781 402H80.1156L87.9281 381.961H88.2797V402H92.8109V373.816H87.0297L78.5727 395.496H78.2406L69.7641 373.816H63.9828V402ZM97.3742 402H102.648L104.991 394.715H115.421L117.784 402H123.058L113.058 373.816H107.374L97.3742 402ZM110.05 379.051H110.382L114.171 390.828H106.261L110.05 379.051ZM126.82 402H148.246V397.762H133.109V397.41L147.875 377.176V373.816H127.23V378.055H141.645V378.406L126.82 398.641V402ZM165.231 402.703C173.454 402.703 178.552 396.98 178.552 387.918V387.879C178.552 378.797 173.434 373.113 165.231 373.113C157.048 373.113 151.891 378.797 151.891 387.879V387.918C151.891 396.98 156.97 402.703 165.231 402.703ZM165.231 398.348C160.153 398.348 157.028 394.246 157.028 387.918V387.879C157.028 381.512 160.231 377.469 165.231 377.469C170.231 377.469 173.415 381.512 173.415 387.879V387.918C173.415 394.246 170.251 398.348 165.231 398.348ZM184.033 402H188.896V382.586H189.209L203.056 402H207.412V373.816H202.568V393.23H202.255L188.408 373.816H184.033V402ZM224.448 402H229.487V392.684H235.698C241.421 392.684 245.288 388.895 245.288 383.27V383.23C245.288 377.586 241.421 373.816 235.698 373.816H224.448V402ZM234.468 377.938C238.081 377.938 240.191 379.871 240.191 383.25V383.289C240.191 386.668 238.081 388.621 234.468 388.621H229.487V377.938H234.468ZM250.555 402H255.594V391.395H261.18L266.707 402H272.469L266.316 390.633C269.656 389.422 271.629 386.336 271.629 382.605V382.566C271.629 377.195 267.996 373.816 261.941 373.816H250.555V402ZM255.594 387.527V377.898H261.316C264.52 377.898 266.453 379.734 266.453 382.684V382.723C266.453 385.75 264.598 387.527 261.414 387.527H255.594ZM277.442 402H282.481V373.816H277.442V402ZM289.134 402H293.685V381.961H294.017L301.83 402H305.267L313.08 381.961H313.431V402H317.962V373.816H312.181L303.724 395.496H303.392L294.916 373.816H289.134V402ZM324.616 402H342.858V397.762H329.655V389.695H342.135V385.691H329.655V378.055H342.858V373.816H324.616V402ZM137.979 450H143.877L153.623 421.816H148.057L141.084 444.18H140.752L133.78 421.816H128.233L137.979 450ZM158.187 450H163.226V421.816H158.187V450ZM169.879 450H180.445C188.883 450 193.707 444.824 193.707 435.801V435.762C193.707 426.934 188.824 421.816 180.445 421.816H169.879V450ZM174.918 445.762V426.055H179.781C185.309 426.055 188.57 429.648 188.57 435.84V435.879C188.57 442.207 185.387 445.762 179.781 445.762H174.918ZM199.188 450H217.43V445.762H204.227V437.695H216.708V433.691H204.227V426.055H217.43V421.816H199.188V450ZM235.529 450.703C243.752 450.703 248.849 444.98 248.849 435.918V435.879C248.849 426.797 243.732 421.113 235.529 421.113C227.345 421.113 222.189 426.797 222.189 435.879V435.918C222.189 444.98 227.267 450.703 235.529 450.703ZM235.529 446.348C230.451 446.348 227.326 442.246 227.326 435.918V435.879C227.326 429.512 230.529 425.469 235.529 425.469C240.529 425.469 243.712 429.512 243.712 435.879V435.918C243.712 442.246 240.548 446.348 235.529 446.348Z" fill="white"/>
<path d="M44 65L36 73.5L44 82" stroke="white" stroke-width="3" stroke-linecap="round" stroke-linejoin="round"/>
<path d="M57.0879 74.5635C55.9622 74.2399 55.1419 73.8434 54.627 73.374C54.1165 72.9001 53.8613 72.3167 53.8613 71.624C53.8613 70.8402 54.1735 70.193 54.7979 69.6826C55.4268 69.1676 56.2425 68.9102 57.2451 68.9102C57.9287 68.9102 58.5371 69.0423 59.0703 69.3066C59.6081 69.571 60.0228 69.9355 60.3145 70.4004C60.6107 70.8652 60.7588 71.3734 60.7588 71.9248H59.4395C59.4395 71.3232 59.248 70.8516 58.8652 70.5098C58.4824 70.1634 57.9424 69.9902 57.2451 69.9902C56.598 69.9902 56.0921 70.1338 55.7275 70.4209C55.3675 70.7035 55.1875 71.0977 55.1875 71.6035C55.1875 72.0091 55.3584 72.3532 55.7002 72.6357C56.0465 72.9137 56.6322 73.1689 57.457 73.4014C58.2865 73.6338 58.9336 73.8913 59.3984 74.1738C59.8678 74.4518 60.2142 74.7777 60.4375 75.1514C60.6654 75.5251 60.7793 75.9648 60.7793 76.4707C60.7793 77.2773 60.4648 77.9245 59.8359 78.4121C59.207 78.8952 58.3662 79.1367 57.3135 79.1367C56.6299 79.1367 55.9919 79.0068 55.3994 78.7471C54.807 78.4827 54.349 78.1227 54.0254 77.667C53.7064 77.2113 53.5469 76.694 53.5469 76.1152H54.8662C54.8662 76.7168 55.0872 77.193 55.5293 77.5439C55.9759 77.8903 56.5706 78.0635 57.3135 78.0635C58.0062 78.0635 58.5371 77.9222 58.9062 77.6396C59.2754 77.3571 59.46 76.972 59.46 76.4844C59.46 75.9967 59.2891 75.6208 58.9473 75.3564C58.6055 75.0876 57.9857 74.8232 57.0879 74.5635ZM63.9854 69.8125V71.6035H65.3662V72.5811H63.9854V77.168C63.9854 77.4642 64.0469 77.6875 64.1699 77.8379C64.293 77.9837 64.5026 78.0566 64.7988 78.0566C64.9447 78.0566 65.1452 78.0293 65.4004 77.9746V79C65.0677 79.0911 64.7441 79.1367 64.4297 79.1367C63.8646 79.1367 63.4385 78.9658 63.1514 78.624C62.8643 78.2822 62.7207 77.7969 62.7207 77.168V72.5811H61.374V71.6035H62.7207V69.8125H63.9854ZM70.4248 72.7383C70.2334 72.7064 70.026 72.6904 69.8027 72.6904C68.9733 72.6904 68.4105 73.0436 68.1143 73.75V79H66.8496V71.6035H68.0801L68.1006 72.458C68.5153 71.7972 69.1032 71.4668 69.8643 71.4668C70.1104 71.4668 70.2972 71.4987 70.4248 71.5625V72.7383ZM74.5264 79.1367C73.5238 79.1367 72.708 78.8086 72.0791 78.1523C71.4502 77.4915 71.1357 76.6097 71.1357 75.5068V75.2744C71.1357 74.5407 71.2747 73.8867 71.5527 73.3125C71.8353 72.7337 72.2272 72.2826 72.7285 71.959C73.2344 71.6309 73.7812 71.4668 74.3691 71.4668C75.3307 71.4668 76.0781 71.7835 76.6113 72.417C77.1445 73.0505 77.4111 73.9574 77.4111 75.1377V75.6641H72.4004C72.4186 76.3932 72.6305 76.9834 73.0361 77.4346C73.4463 77.8812 73.9658 78.1045 74.5947 78.1045C75.0413 78.1045 75.4196 78.0133 75.7295 77.8311C76.0394 77.6488 76.3105 77.4072 76.543 77.1064L77.3154 77.708C76.6956 78.6605 75.766 79.1367 74.5264 79.1367ZM74.3691 72.5059C73.8587 72.5059 73.4303 72.6927 73.084 73.0664C72.7376 73.4355 72.5234 73.9551 72.4414 74.625H76.1465V74.5293C76.11 73.8867 75.9368 73.39 75.627 73.0391C75.3171 72.6836 74.8978 72.5059 74.3691 72.5059ZM83.4473 79C83.3743 78.8542 83.3151 78.5944 83.2695 78.2207C82.6816 78.8314 81.9798 79.1367 81.1641 79.1367C80.4349 79.1367 79.8356 78.9316 79.3662 78.5215C78.9014 78.1068 78.6689 77.5827 78.6689 76.9492C78.6689 76.179 78.9606 75.582 79.5439 75.1582C80.1318 74.7298 80.9567 74.5156 82.0186 74.5156H83.249V73.9346C83.249 73.4925 83.1169 73.1416 82.8525 72.8818C82.5882 72.6175 82.1986 72.4854 81.6836 72.4854C81.2324 72.4854 80.8542 72.5993 80.5488 72.8271C80.2435 73.055 80.0908 73.3307 80.0908 73.6543H78.8193C78.8193 73.2852 78.9492 72.9297 79.209 72.5879C79.4733 72.2415 79.8288 71.9681 80.2754 71.7676C80.7266 71.5671 81.221 71.4668 81.7588 71.4668C82.611 71.4668 83.2786 71.681 83.7617 72.1094C84.2448 72.5332 84.4954 73.1188 84.5137 73.8662V77.2705C84.5137 77.9495 84.6003 78.4896 84.7734 78.8906V79H83.4473ZM81.3486 78.0361C81.7451 78.0361 82.1211 77.9336 82.4766 77.7285C82.832 77.5234 83.0895 77.2568 83.249 76.9287V75.4111H82.2578C80.7083 75.4111 79.9336 75.8646 79.9336 76.7715C79.9336 77.168 80.0658 77.4779 80.3301 77.7012C80.5944 77.9245 80.9339 78.0361 81.3486 78.0361ZM87.6855 71.6035L87.7197 72.4238C88.262 71.7858 88.9935 71.4668 89.9141 71.4668C90.9486 71.4668 91.6527 71.8633 92.0264 72.6562C92.2725 72.3008 92.5915 72.0137 92.9834 71.7949C93.3799 71.5762 93.847 71.4668 94.3848 71.4668C96.0072 71.4668 96.832 72.3258 96.8594 74.0439V79H95.5947V74.1191C95.5947 73.5905 95.474 73.1963 95.2324 72.9365C94.9909 72.6722 94.5853 72.54 94.0156 72.54C93.5462 72.54 93.1566 72.6813 92.8467 72.9639C92.5368 73.2419 92.3568 73.6178 92.3066 74.0918V79H91.0352V74.1533C91.0352 73.0778 90.5088 72.54 89.4561 72.54C88.6266 72.54 88.0592 72.8932 87.7539 73.5996V79H86.4893V71.6035H87.6855ZM102.267 77.2568L105.11 69.0469H106.546L102.854 79H101.692L98.0078 69.0469H99.4365L102.267 77.2568ZM112.062 78.2686C111.57 78.8473 110.848 79.1367 109.896 79.1367C109.107 79.1367 108.506 78.9089 108.091 78.4531C107.681 77.9928 107.473 77.3138 107.469 76.416V71.6035H108.733V76.3818C108.733 77.5029 109.189 78.0635 110.101 78.0635C111.067 78.0635 111.709 77.7035 112.028 76.9834V71.6035H113.293V79H112.09L112.062 78.2686Z" fill="white"/>
</g>
<rect x="0.5" y="0.5" width="376" height="813" stroke="black"/>
<defs>
<clipPath id="clip0_7_1420">
<rect x="1" y="1" width="375" height="812" fill="white"/>
</clipPath>
</defs>
</svg>
