<svg width="100" height="216" viewBox="0 0 100 216" fill="none" xmlns="http://www.w3.org/2000/svg">
<g clip-path="url(#clip0_870_3190)">
<path d="M99.8666 0.133057H0.133301V215.867H99.8666V0.133057Z" fill="white"/>
<path d="M3.23756 107.58V112.649H1.51562V99.7003H6.33167C7.76068 99.7003 8.87873 100.062 9.68586 100.785C10.499 101.509 10.9056 102.466 10.9056 103.658C10.9056 104.915 10.508 105.884 9.71279 106.566C8.92356 107.242 7.79052 107.58 6.31375 107.58H3.23756ZM3.23756 106.184H6.33167C7.25244 106.184 7.95793 105.97 8.44823 105.543C8.9385 105.111 9.18364 104.488 9.18364 103.676C9.18364 102.905 8.9385 102.288 8.44823 101.826C7.95793 101.363 7.28529 101.123 6.43031 101.106H3.23756V106.184ZM16.744 112.827C15.4287 112.827 14.3584 112.4 13.5333 111.547C12.7083 110.687 12.2957 109.539 12.2957 108.105V107.802C12.2957 106.848 12.478 105.997 12.8428 105.25C13.2135 104.497 13.7276 103.91 14.3853 103.489C15.049 103.062 15.7665 102.849 16.5377 102.849C17.7993 102.849 18.7799 103.261 19.4794 104.085C20.1789 104.909 20.5287 106.089 20.5287 107.624V108.309H13.9548C13.9788 109.258 14.2568 110.026 14.7889 110.613C15.327 111.194 16.0086 111.484 16.8337 111.484C17.4197 111.484 17.9159 111.366 18.3225 111.128C18.7291 110.891 19.0848 110.577 19.3897 110.186L20.4032 110.968C19.59 112.208 18.3703 112.827 16.744 112.827ZM16.5377 104.2C15.8681 104.2 15.3061 104.444 14.8517 104.93C14.3973 105.41 14.1163 106.086 14.0086 106.958H18.8695V106.833C18.8217 105.997 18.5945 105.351 18.188 104.894C17.7813 104.432 17.2313 104.2 16.5377 104.2ZM39.2367 112.827C37.9215 112.827 36.8511 112.4 36.0261 111.547C35.201 110.687 34.7885 109.539 34.7885 108.105V107.802C34.7885 106.848 34.9709 105.997 35.3357 105.25C35.7063 104.497 36.2205 103.91 36.8781 103.489C37.5418 103.062 38.2594 102.849 39.0306 102.849C40.2922 102.849 41.2727 103.261 41.9722 104.085C42.6717 104.909 43.0215 106.089 43.0215 107.624V108.309H36.4477C36.4717 109.258 36.7495 110.026 37.2818 110.613C37.8199 111.194 38.5015 111.484 39.3266 111.484C39.9125 111.484 40.4087 111.366 40.8151 111.128C41.2218 110.891 41.5775 110.577 41.8826 110.186L42.8959 110.968C42.0829 112.208 40.8631 112.827 39.2367 112.827ZM39.0306 104.2C38.361 104.2 37.7989 104.444 37.3445 104.93C36.8901 105.41 36.609 106.086 36.5015 106.958H41.3623V106.833C41.3146 105.997 41.0874 105.351 40.6807 104.894C40.2741 104.432 39.7242 104.2 39.0306 104.2ZM48.8421 111.484C49.4341 111.484 49.9511 111.306 50.3935 110.951C50.8359 110.595 51.0813 110.15 51.129 109.617H52.6983C52.6685 110.168 52.4773 110.693 52.1245 111.191C51.7717 111.689 51.2994 112.086 50.7074 112.382C50.1215 112.679 49.4997 112.827 48.8421 112.827C47.5207 112.827 46.4685 112.391 45.6853 111.52C44.9079 110.642 44.5191 109.445 44.5191 107.927V107.651C44.5191 106.714 44.6927 105.881 45.0394 105.152C45.3861 104.423 45.8826 103.857 46.5282 103.453C47.1799 103.05 47.9482 102.849 48.833 102.849C49.9213 102.849 50.8239 103.172 51.5415 103.818C52.265 104.464 52.6506 105.303 52.6983 106.335H51.129C51.0813 105.712 50.8421 105.202 50.4114 104.805C49.9871 104.402 49.4607 104.2 48.833 104.2C47.9901 104.2 47.3354 104.503 46.869 105.108C46.4087 105.707 46.1783 106.575 46.1783 107.713V108.025C46.1783 109.133 46.4087 109.987 46.869 110.586C47.3293 111.185 47.9871 111.484 48.8421 111.484ZM56.8149 100.697V103.027H58.6266V104.298H56.8149V110.266C56.8149 110.651 56.8957 110.942 57.057 111.137C57.2186 111.327 57.4935 111.422 57.8823 111.422C58.0735 111.422 58.3367 111.386 58.6714 111.315V112.649C58.2349 112.768 57.8106 112.827 57.3978 112.827C56.6565 112.827 56.0975 112.605 55.7207 112.16C55.3442 111.715 55.1559 111.084 55.1559 110.266V104.298H53.389V103.027H55.1559V100.697H56.8149ZM68.2135 106.664H62.5549V111.253H69.1287V112.649H60.8327V99.7003H69.0389V101.106H62.5549V105.268H68.2135V106.664ZM70.4293 107.758C70.4293 106.282 70.7818 105.096 71.4871 104.2C72.1925 103.299 73.1167 102.849 74.2589 102.849C75.3946 102.849 76.2946 103.234 76.9578 104.005V98.989H78.6173V112.649H77.0925L77.0122 111.618C76.3482 112.424 75.4247 112.827 74.2405 112.827C73.1167 112.827 72.1989 112.371 71.4871 111.457C70.7818 110.544 70.4293 109.353 70.4293 107.882V107.758ZM72.0879 107.944C72.0879 109.035 72.3157 109.889 72.7698 110.506C73.2245 111.123 73.8519 111.431 74.653 111.431C75.7053 111.431 76.4738 110.962 76.9578 110.026V105.606C76.4618 104.699 75.6997 104.245 74.6709 104.245C73.8578 104.245 73.2245 104.556 72.7698 105.179C72.3157 105.801 72.0879 106.723 72.0879 107.944ZM80.8055 107.758C80.8055 106.258 81.1557 105.066 81.8546 104.183C82.5541 103.293 83.4807 102.849 84.6351 102.849C85.8189 102.849 86.7423 103.264 87.4063 104.094L87.4871 103.027H89.0026V112.418C89.0026 113.663 88.6287 114.644 87.8813 115.362C87.1402 116.079 86.1415 116.438 84.8863 116.438C84.1869 116.438 83.5018 116.289 82.8322 115.993C82.1626 115.697 81.6517 115.291 81.2991 114.775L82.1599 113.788C82.8711 114.659 83.741 115.095 84.7698 115.095C85.5765 115.095 86.2047 114.87 86.653 114.419C87.1071 113.968 87.3349 113.334 87.3349 112.516V111.689C86.6709 112.448 85.7653 112.827 84.6173 112.827C83.4807 112.827 82.5605 112.374 81.8546 111.466C81.1557 110.559 80.8055 109.323 80.8055 107.758ZM82.4738 107.944C82.4738 109.03 82.6975 109.883 83.1461 110.506C83.5949 111.123 84.2226 111.431 85.0301 111.431C86.0759 111.431 86.8445 110.959 87.3349 110.017V105.624C86.8266 104.705 86.0637 104.245 85.0477 104.245C84.2405 104.245 83.6095 104.556 83.1557 105.179C82.7007 105.801 82.4738 106.723 82.4738 107.944ZM95.5407 112.827C94.225 112.827 93.1549 112.4 92.3298 111.547C91.505 110.687 91.0925 109.539 91.0925 108.105V107.802C91.0925 106.848 91.2749 105.997 91.6397 105.25C92.0101 104.497 92.5242 103.91 93.1818 103.489C93.8455 103.062 94.5631 102.849 95.3341 102.849C96.5957 102.849 97.5765 103.261 98.2762 104.085C98.9757 104.909 99.3253 106.089 99.3253 107.624V108.309H92.7511C92.7754 109.258 93.0535 110.026 93.5855 110.613C94.1237 111.194 94.8055 111.484 95.6301 111.484C96.2162 111.484 96.7122 111.366 97.1191 111.128C97.5255 110.891 97.8813 110.577 98.1861 110.186L99.1997 110.968C98.3863 112.208 97.1671 112.827 95.5407 112.827ZM95.3341 104.2C94.6645 104.2 94.1026 104.444 93.6485 104.93C93.1938 105.41 92.9133 106.086 92.8055 106.958H97.6663V106.833C97.6186 105.997 97.3909 105.351 96.9847 104.894C96.5778 104.432 96.0279 104.2 95.3341 104.2Z" fill="black"/>
<path d="M27.1475 104.503C26.8963 104.461 26.6244 104.441 26.3314 104.441C25.2432 104.441 24.5048 104.9 24.1162 105.819V112.649H22.457V103.026H24.0714L24.0982 104.138C24.6424 103.279 25.4136 102.849 26.4121 102.849C26.735 102.849 26.9801 102.89 27.1475 102.973V104.503ZM29.6409 112.649V104.298H28.1073V103.026H29.6409V102.039C29.6409 101.008 29.9187 100.21 30.4747 99.6471C31.0307 99.0839 31.8171 98.8022 32.8334 98.8022C33.2161 98.8022 33.5958 98.8525 33.9726 98.9533L33.8827 100.287C33.6017 100.234 33.303 100.207 32.9859 100.207C32.4478 100.207 32.0323 100.365 31.7393 100.679C31.4465 100.987 31.2998 101.432 31.2998 102.013V103.026H33.3715V104.298H31.2998V112.649H29.6409Z" fill="#BB0000"/>
<path d="M2.37878 114.395L1.52271 112.64H3.23486L2.37878 114.395Z" fill="black"/>
<path d="M21.376 99.8744C21.0238 99.8682 20.7333 100.146 20.7272 100.495L20.6273 106.187C20.6212 106.536 20.9016 106.824 21.2538 106.83C21.606 106.836 21.8965 106.558 21.9026 106.209L21.9914 101.15L27.0926 101.238C27.4448 101.244 27.7352 100.966 27.7414 100.617C27.7475 100.268 27.467 99.9794 27.115 99.9733L21.376 99.8744ZM38.0224 116.7L21.8236 100.067L20.9061 100.946L37.1051 117.579L38.0224 116.7Z" fill="white"/>
<path fill-rule="evenodd" clip-rule="evenodd" d="M0 0H100V216H0V0ZM0.266667 0.26601V215.734H99.7333V0.26601H0.266667Z" fill="black"/>
</g>
<defs>
<clipPath id="clip0_870_3190">
<rect width="100" height="216" fill="white"/>
</clipPath>
</defs>
</svg>
