<svg width="100" height="216" viewBox="0 0 100 216" fill="none" xmlns="http://www.w3.org/2000/svg">
<g clip-path="url(#clip0_875_4670)">
<mask id="mask0_875_4670" style="mask-type:luminance" maskUnits="userSpaceOnUse" x="0" y="0" width="100" height="216">
<path d="M99.7348 0.265137H0.265259V215.734H99.7348V0.265137Z" fill="white"/>
</mask>
<g mask="url(#mask0_875_4670)">
<path d="M99.7348 0.265137H0.265259V215.734H99.7348V0.265137Z" fill="white"/>
<path d="M99.7348 0.265137H0.265259V26.5354H99.7348V0.265137Z" fill="#BB0000"/>
<path d="M24.701 14.1209V17.1052H23.6962V9.4821H26.5066C27.3406 9.4821 27.9929 9.69502 28.4639 10.1208C28.9385 10.5467 29.1756 11.1103 29.1756 11.812C29.1756 12.5519 28.9438 13.1226 28.4796 13.524C28.0191 13.9219 27.3578 14.1209 26.4961 14.1209H24.701ZM24.701 13.2989H26.5066C27.0438 13.2989 27.4557 13.1732 27.7417 12.9219C28.0279 12.6671 28.1708 12.3006 28.1708 11.8224C28.1708 11.3687 28.0279 11.0057 27.7417 10.7334C27.4557 10.4612 27.0631 10.3198 26.5642 10.3093H24.701V13.2989ZM32.5828 17.2099C31.8151 17.2099 31.1907 16.9585 30.709 16.4559C30.2276 15.9498 29.987 15.2744 29.987 14.4298V14.2517C29.987 13.6898 30.0934 13.1889 30.3061 12.7491C30.5226 12.3059 30.8226 11.9603 31.2064 11.7125C31.5936 11.4612 32.0122 11.3355 32.4623 11.3355C33.1987 11.3355 33.7708 11.5781 34.1791 12.0632C34.5873 12.5484 34.7913 13.243 34.7913 14.147V14.5502H30.9552C30.969 15.1086 31.1313 15.5607 31.4419 15.9062C31.756 16.2483 32.1536 16.4193 32.635 16.4193C32.9769 16.4193 33.2666 16.3495 33.504 16.2099C33.7411 16.0703 33.9488 15.8852 34.1265 15.6549L34.718 16.1156C34.2435 16.8451 33.5318 17.2099 32.5828 17.2099ZM32.4623 12.1313C32.0716 12.1313 31.7435 12.2744 31.4785 12.5607C31.2133 12.8434 31.0493 13.2413 30.9865 13.7544H33.8231V13.6811C33.7952 13.1889 33.6626 12.8085 33.4255 12.5397C33.1881 12.2674 32.8671 12.1313 32.4623 12.1313ZM45.7085 17.2099C44.9409 17.2099 44.3165 16.9585 43.835 16.4559C43.3533 15.9498 43.1127 15.2744 43.1127 14.4298V14.2517C43.1127 13.6898 43.2191 13.1889 43.4318 12.7491C43.6483 12.3059 43.9483 11.9603 44.3321 11.7125C44.7194 11.4612 45.1379 11.3355 45.5881 11.3355C46.3244 11.3355 46.8966 11.5781 47.3048 12.0632C47.713 12.5484 47.917 13.243 47.917 14.147V14.5502H44.0809C44.095 15.1086 44.257 15.5607 44.5677 15.9062C44.8817 16.2483 45.2793 16.4193 45.761 16.4193C46.1029 16.4193 46.3923 16.3495 46.6297 16.2099C46.8669 16.0703 47.0745 15.8852 47.2525 15.6549L47.8438 16.1156C47.3692 16.8451 46.6576 17.2099 45.7085 17.2099ZM45.5881 12.1313C45.1974 12.1313 44.8695 12.2744 44.6043 12.5607C44.339 12.8434 44.1751 13.2413 44.1122 13.7544H46.9488V13.6811C46.921 13.1889 46.7883 12.8085 46.5512 12.5397C46.3138 12.2674 45.9929 12.1313 45.5881 12.1313ZM51.3138 16.4193C51.6592 16.4193 51.961 16.3146 52.2191 16.1052C52.4772 15.8958 52.6204 15.6339 52.6483 15.3198H53.5642C53.5467 15.6444 53.435 15.9533 53.2292 16.2465C53.0234 16.5397 52.7478 16.7736 52.4024 16.9481C52.0602 17.1226 51.6974 17.2099 51.3138 17.2099C50.5427 17.2099 49.9287 16.9533 49.4714 16.4402C49.0178 15.9237 48.791 15.2186 48.791 14.325V14.1627C48.791 13.6113 48.8923 13.1208 49.0947 12.6915C49.2971 12.2622 49.5868 11.9289 49.9634 11.6915C50.3438 11.4542 50.7921 11.3355 51.3085 11.3355C51.9435 11.3355 52.4703 11.5257 52.8889 11.9062C53.3112 12.2866 53.5361 12.7806 53.5642 13.3878H52.6483C52.6204 13.0214 52.4806 12.7212 52.2295 12.4874C51.982 12.25 51.6748 12.1313 51.3085 12.1313C50.8165 12.1313 50.4345 12.3094 50.1623 12.6654C49.8936 13.0179 49.7594 13.5292 49.7594 14.1994V14.3826C49.7594 15.0353 49.8936 15.538 50.1623 15.8905C50.431 16.243 50.8149 16.4193 51.3138 16.4193ZM55.9663 10.0685V11.4402H57.0236V12.1889H55.9663V15.702C55.9663 15.9289 56.0135 16.0999 56.1077 16.2151C56.2019 16.3268 56.3623 16.3827 56.5891 16.3827C56.7008 16.3827 56.8544 16.3617 57.0496 16.3198V17.1052C56.795 17.175 56.5472 17.2099 56.3066 17.2099C55.8738 17.2099 55.5478 17.079 55.3279 16.8172C55.108 16.5554 54.9982 16.1837 54.9982 15.702V12.1889H53.9671V11.4402H54.9982V10.0685H55.9663ZM62.6181 13.5816H59.3159V16.2832H63.152V17.1052H58.3109V9.4821H63.0997V10.3093H59.3159V12.7596H62.6181V13.5816ZM63.9109 14.2256C63.9109 13.3564 64.1167 12.6584 64.5284 12.1313C64.9401 11.6008 65.4793 11.3355 66.1459 11.3355C66.8088 11.3355 67.3337 11.5624 67.7207 12.0161V9.06323H68.6891V17.1052H67.7992L67.7525 16.4979C67.365 16.9725 66.826 17.2099 66.135 17.2099C65.4793 17.2099 64.9438 16.9411 64.5284 16.4036C64.1167 15.8661 63.9109 15.1645 63.9109 14.2989V14.2256ZM64.8791 14.3355C64.8791 14.9777 65.0119 15.4804 65.2769 15.8434C65.5422 16.2064 65.9085 16.3879 66.3759 16.3879C66.9899 16.3879 67.4382 16.1121 67.7207 15.5607V12.9586C67.4313 12.4245 66.9865 12.1575 66.3862 12.1575C65.9117 12.1575 65.5422 12.3407 65.2769 12.7072C65.0119 13.0737 64.8791 13.6165 64.8791 14.3355ZM69.9661 14.2256C69.9661 13.3425 70.1703 12.6409 70.5783 12.1209C70.9865 11.5973 71.5273 11.3355 72.2008 11.3355C72.8918 11.3355 73.4305 11.5798 73.8181 12.0685L73.8653 11.4402H74.7496V16.969C74.7496 17.702 74.5313 18.2797 74.0952 18.702C73.6629 19.1243 73.0801 19.3355 72.3475 19.3355C71.9393 19.3355 71.5395 19.2483 71.1488 19.0738C70.7581 18.8992 70.46 18.6602 70.2541 18.3565L70.7565 17.7753C71.1716 18.2884 71.6791 18.545 72.2796 18.545C72.7501 18.545 73.1167 18.4123 73.3785 18.147C73.6435 17.8818 73.7764 17.5083 73.7764 17.0267V16.5397C73.3889 16.9865 72.8605 17.2099 72.1905 17.2099C71.5273 17.2099 70.9902 16.9429 70.5783 16.4088C70.1703 15.8748 69.9661 15.147 69.9661 14.2256ZM70.9395 14.3355C70.9395 14.9743 71.0703 15.4769 71.3318 15.8434C71.5939 16.2064 71.9602 16.3879 72.4313 16.3879C73.0417 16.3879 73.4902 16.1104 73.7764 15.5554V12.969C73.4796 12.428 73.0345 12.1575 72.4417 12.1575C71.9706 12.1575 71.6024 12.3407 71.3374 12.7072C71.0722 13.0737 70.9395 13.6165 70.9395 14.3355ZM78.565 17.2099C77.7971 17.2099 77.1727 16.9585 76.691 16.4559C76.2098 15.9498 75.969 15.2744 75.969 14.4298V14.2517C75.969 13.6898 76.0756 13.1889 76.2883 12.7491C76.5045 12.3059 76.8045 11.9603 77.1883 11.7125C77.5756 11.4612 77.9944 11.3355 78.4443 11.3355C79.1804 11.3355 79.7528 11.5781 80.1613 12.0632C80.5695 12.5484 80.7735 13.243 80.7735 14.147V14.5502H76.9372C76.9512 15.1086 77.1135 15.5607 77.4239 15.9062C77.7379 16.2483 78.1358 16.4193 78.617 16.4193C78.9592 16.4193 79.2486 16.3495 79.486 16.2099C79.7231 16.0703 79.9308 15.8852 80.1088 15.6549L80.7 16.1156C80.2255 16.8451 79.5141 17.2099 78.565 17.2099ZM78.4443 12.1313C78.0536 12.1313 77.7257 12.2744 77.4608 12.5607C77.1955 12.8434 77.0316 13.2413 76.9687 13.7544H79.8053V13.6811C79.7775 13.1889 79.6446 12.8085 79.4074 12.5397C79.17 12.2674 78.8493 12.1313 78.4443 12.1313Z" fill="#DCDCDC"/>
<path d="M38.6536 12.3094C38.5072 12.285 38.3483 12.2728 38.1775 12.2728C37.5424 12.2728 37.1114 12.5433 36.8846 13.0843V17.1052H35.9164V11.4403H36.8586L36.8743 12.0948C37.1918 11.5886 37.6419 11.3356 38.2244 11.3356C38.413 11.3356 38.556 11.36 38.6536 11.4089V12.3094ZM40.1085 17.1052V12.189H39.2138V11.4403H40.1085V10.8592C40.1085 10.2518 40.2708 9.78234 40.5952 9.45075C40.9199 9.11916 41.3785 8.95337 41.9716 8.95337C42.195 8.95337 42.4167 8.98304 42.6363 9.04237L42.5841 9.82772C42.4202 9.7963 42.2456 9.78062 42.0607 9.78062C41.7467 9.78062 41.5042 9.87309 41.3332 10.0581C41.1623 10.2396 41.0769 10.5014 41.0769 10.8434V11.4403H42.2857V12.189H41.0769V17.1052H40.1085Z" fill="#666666"/>
<path d="M24.1999 18.1324L23.7003 17.0996H24.6995L24.1999 18.1324Z" fill="#DCDCDC"/>
<path d="M35.2857 9.58453C35.0801 9.58095 34.9106 9.74473 34.9072 9.9503L34.8488 13.3006C34.8451 13.5062 35.0088 13.6758 35.2143 13.6793C35.4199 13.6829 35.5894 13.5191 35.5931 13.3135L35.6448 10.3355L38.6218 10.3874C38.8271 10.3909 38.9968 10.2272 39.0003 10.0216C39.0037 9.816 38.8401 9.64644 38.6345 9.64286L35.2857 9.58453ZM44.9997 19.4899L35.547 9.69813L35.0114 10.2154L44.4645 20.0072L44.9997 19.4899Z" fill="#BB0000"/>
<path d="M31.8883 40.3279C31.795 41.1258 31.4997 41.7427 31.0024 42.1779C30.5085 42.6099 29.8504 42.8259 29.0286 42.8259C28.1374 42.8259 27.4225 42.5062 26.8838 41.8669C26.3484 41.2277 26.0807 40.3727 26.0807 39.3015V38.576C26.0807 37.8746 26.205 37.2579 26.4537 36.7256C26.7058 36.1936 27.0615 35.786 27.521 35.5026C27.9804 35.2158 28.5122 35.0725 29.1167 35.0725C29.9178 35.0725 30.5602 35.297 31.0438 35.7462C31.5273 36.192 31.8088 36.8103 31.8883 37.6016H30.8883C30.8021 37.0006 30.6138 36.5651 30.3236 36.2955C30.0371 36.0262 29.6347 35.8914 29.1167 35.8914C28.4812 35.8914 27.982 36.1262 27.6194 36.5961C27.2602 37.0661 27.0806 37.7345 27.0806 38.602V39.3328C27.0806 40.1514 27.2515 40.8028 27.5934 41.2866C27.9353 41.7703 28.4138 42.0121 29.0286 42.0121C29.5812 42.0121 30.0042 41.8876 30.2979 41.639C30.5947 41.3866 30.7918 40.9496 30.8883 40.3279H31.8883ZM34.0589 37.7934C34.4838 37.2717 35.0363 37.0109 35.7167 37.0109C36.9013 37.0109 37.4989 37.6793 37.5093 39.0165V42.7222H36.5509V39.0114C36.5475 38.607 36.4541 38.3082 36.2711 38.1148C36.0915 37.9213 35.8101 37.8245 35.4268 37.8245C35.1159 37.8245 34.843 37.9073 34.6082 38.0731C34.3732 38.239 34.1902 38.4568 34.0589 38.7262V42.7222H33.1005V34.7615H34.0589V37.7934ZM41.2706 42.8259C40.5106 42.8259 39.8926 42.577 39.4159 42.0795C38.9393 41.5785 38.7008 40.91 38.7008 40.0739V39.8974C38.7008 39.3413 38.8061 38.8456 39.017 38.4101C39.231 37.9712 39.5281 37.6292 39.908 37.384C40.2912 37.1351 40.7058 37.0109 41.1515 37.0109C41.8801 37.0109 42.4464 37.251 42.8507 37.7311C43.2546 38.2114 43.4568 38.8989 43.4568 39.794V40.193H39.6594C39.6732 40.7458 39.8337 41.1932 40.1411 41.5352C40.452 41.8738 40.8456 42.0431 41.3223 42.0431C41.6607 42.0431 41.9475 41.9741 42.1822 41.8359C42.4172 41.6976 42.6228 41.5145 42.7989 41.2866L43.3843 41.7427C42.9146 42.4648 42.2101 42.8259 41.2706 42.8259ZM41.1515 37.7985C40.7645 37.7985 40.4398 37.9402 40.1775 38.2236C39.9149 38.5035 39.7525 38.8973 39.6904 39.4052H42.4984V39.3328C42.4708 38.8456 42.3395 38.4688 42.1045 38.2029C41.8698 37.9333 41.552 37.7985 41.1515 37.7985ZM46.8191 42.0431C47.161 42.0431 47.4597 41.9396 47.7154 41.7324C47.9708 41.5249 48.1125 41.2659 48.1401 40.9549H49.0467C49.0294 41.2762 48.9188 41.5819 48.7151 41.8722C48.5114 42.1625 48.2385 42.3939 47.8966 42.5667C47.5581 42.7394 47.1989 42.8259 46.8191 42.8259C46.0557 42.8259 45.448 42.572 44.9955 42.0641C44.5464 41.5525 44.322 40.8546 44.322 39.9702V39.8093C44.322 39.2635 44.422 38.7782 44.6225 38.3531C44.8228 37.9282 45.1093 37.5981 45.4825 37.3633C45.8589 37.1282 46.3027 37.0109 46.8138 37.0109C47.4424 37.0109 47.9639 37.199 48.3785 37.5756C48.7963 37.9524 49.0191 38.4412 49.0467 39.0425H48.1401C48.1125 38.6797 47.9743 38.3825 47.7257 38.1509C47.4804 37.916 47.1764 37.7985 46.8138 37.7985C46.3268 37.7985 45.9488 37.9747 45.6793 38.3273C45.4133 38.6763 45.2804 39.1823 45.2804 39.8457V40.0272C45.2804 40.6733 45.4133 41.1709 45.6793 41.5198C45.9454 41.8688 46.3252 42.0431 46.8191 42.0431ZM51.6889 40.1257L51.0881 40.7527V42.7222H50.1294V34.7615H51.0881V39.5764L51.6008 38.9594L53.3467 37.1144H54.5125L52.3313 39.457L54.7663 42.7222H53.6419L51.6889 40.1257ZM64.0862 39.1927C64.0862 39.9322 63.9621 40.5783 63.7133 41.1311C63.4647 41.6804 63.1125 42.1002 62.6565 42.3905C62.2005 42.6808 61.6687 42.8259 61.0607 42.8259C60.4668 42.8259 59.9401 42.6808 59.4806 42.3905C59.0212 42.0967 58.6639 41.6804 58.4082 41.1414C58.1562 40.599 58.0265 39.9717 58.0196 39.2601V38.7158C58.0196 37.9903 58.1459 37.3495 58.3979 36.793C58.6501 36.2369 59.0058 35.8118 59.4653 35.5183C59.9279 35.2211 60.4565 35.0725 61.0504 35.0725C61.6549 35.0725 62.1867 35.2192 62.6462 35.513C63.109 35.8033 63.4647 36.2265 63.7133 36.7827C63.9621 37.3357 64.0862 37.98 64.0862 38.7158V39.1927ZM63.0968 38.7055C63.0968 37.8107 62.9172 37.1247 62.5581 36.6479C62.1989 36.1676 61.6963 35.9277 61.0504 35.9277C60.4218 35.9277 59.9263 36.1676 59.5637 36.6479C59.2045 37.1247 59.0196 37.7881 59.0093 38.6381V39.1927C59.0093 40.0598 59.1905 40.7423 59.5533 41.2399C59.9194 41.734 60.4218 41.981 61.0607 41.981C61.7032 41.981 62.2005 41.7478 62.5528 41.2813C62.905 40.8113 63.0865 40.1395 63.0968 39.2654V38.7055ZM68.8889 42.1676C68.5159 42.6065 67.9684 42.8259 67.2467 42.8259C66.6491 42.8259 66.1931 42.6532 65.8788 42.3077C65.5679 41.9585 65.4109 41.4437 65.4074 40.763V37.1144H66.3658V40.7373C66.3658 41.5872 66.7111 42.0121 67.4019 42.0121C68.1342 42.0121 68.6212 41.7393 68.8629 41.1932V37.1144H69.8215V42.7222H68.9095L68.8889 42.1676ZM72.5828 35.7566V37.1144H73.6292V37.8555H72.5828V41.3333C72.5828 41.5578 72.6292 41.7271 72.7225 41.8412C72.8159 41.9516 72.9748 42.007 73.1992 42.007C73.3098 42.007 73.4618 41.9863 73.6552 41.9447V42.7222C73.4029 42.7912 73.1578 42.8259 72.9194 42.8259C72.4912 42.8259 72.1682 42.6962 71.9507 42.4372C71.7332 42.1779 71.6241 41.8099 71.6241 41.3333V37.8555H70.6037V37.1144H71.6241V35.7566H72.5828Z" fill="black"/>
<path d="M99.7348 199.813H0.265259V215.735H99.7348V199.813Z" fill="#BB0000"/>
<path fill-rule="evenodd" clip-rule="evenodd" d="M21.4854 201.14V214.408H21.2202V201.14H21.4854Z" fill="#DCDCDC"/>
<path fill-rule="evenodd" clip-rule="evenodd" d="M78.5146 201.14V214.408H78.2493V201.14H78.5146Z" fill="#DCDCDC"/>
<path d="M84.7366 212.235L84.1125 213.953H83.8573L84.5761 212.068H84.7406L84.7366 212.235ZM85.26 213.953L84.6342 212.235L84.6305 212.068H84.795L85.5162 213.953H85.26ZM85.2276 213.255V213.46H84.1679V213.255H85.2276ZM86.2934 213.782C86.3504 213.782 86.4032 213.771 86.4515 213.747C86.4997 213.724 86.5395 213.692 86.5706 213.652C86.6016 213.61 86.6194 213.563 86.6236 213.51H86.8517C86.8472 213.593 86.8194 213.671 86.7674 213.742C86.7165 213.813 86.6496 213.871 86.5666 213.915C86.4838 213.958 86.3928 213.979 86.2934 213.979C86.1881 213.979 86.096 213.961 86.0175 213.924C85.9398 213.886 85.8751 213.836 85.8233 213.771C85.7724 213.706 85.734 213.632 85.708 213.548C85.683 213.463 85.6706 213.374 85.6706 213.28V213.225C85.6706 213.131 85.683 213.042 85.708 212.959C85.734 212.874 85.7724 212.799 85.8233 212.735C85.8751 212.67 85.9398 212.619 86.0175 212.582C86.096 212.545 86.1881 212.526 86.2934 212.526C86.4032 212.526 86.4989 212.549 86.5809 212.593C86.6629 212.637 86.7273 212.698 86.774 212.775C86.8215 212.851 86.8472 212.937 86.8517 213.034H86.6236C86.6194 212.976 86.6029 212.924 86.5745 212.877C86.547 212.83 86.5088 212.793 86.4605 212.766C86.413 212.737 86.3573 212.723 86.2934 212.723C86.2199 212.723 86.1584 212.738 86.1082 212.767C86.0589 212.795 86.0196 212.834 85.9905 212.884C85.9618 212.932 85.9411 212.986 85.9281 213.045C85.9162 213.104 85.9101 213.164 85.9101 213.225V213.28C85.9101 213.341 85.9162 213.402 85.9281 213.461C85.9403 213.521 85.9605 213.575 85.9891 213.623C86.0183 213.671 86.0578 213.71 86.1069 213.74C86.157 213.768 86.2191 213.782 86.2934 213.782ZM87.682 213.782C87.7387 213.782 87.7915 213.771 87.8398 213.747C87.8883 213.724 87.9279 213.692 87.9589 213.652C87.9902 213.61 88.0077 213.563 88.0122 213.51H88.2401C88.2358 213.593 88.2077 213.671 88.156 213.742C88.105 213.813 88.0379 213.871 87.9552 213.915C87.8722 213.958 87.7812 213.979 87.682 213.979C87.5764 213.979 87.4846 213.961 87.4061 213.924C87.3284 213.886 87.2634 213.836 87.2117 213.771C87.1607 213.706 87.1223 213.632 87.0966 213.548C87.0714 213.463 87.0589 213.374 87.0589 213.28V213.225C87.0589 213.131 87.0714 213.042 87.0966 212.959C87.1223 212.874 87.1607 212.799 87.2117 212.735C87.2634 212.67 87.3284 212.619 87.4061 212.582C87.4846 212.545 87.5764 212.526 87.682 212.526C87.7915 212.526 87.8873 212.549 87.9695 212.593C88.0515 212.637 88.1157 212.698 88.1623 212.775C88.2098 212.851 88.2358 212.937 88.2401 213.034H88.0122C88.0077 212.976 87.9915 212.924 87.9629 212.877C87.9353 212.83 87.8974 212.793 87.8488 212.766C87.8013 212.737 87.7456 212.723 87.682 212.723C87.6085 212.723 87.5467 212.738 87.4966 212.767C87.4475 212.795 87.4082 212.834 87.3788 212.884C87.3504 212.932 87.3294 212.986 87.3167 213.045C87.3045 213.104 87.2984 213.164 87.2984 213.225V213.28C87.2984 213.341 87.3045 213.402 87.3167 213.461C87.3287 213.521 87.3491 213.575 87.3775 213.623C87.4069 213.671 87.4462 213.71 87.4952 213.74C87.5454 213.768 87.6077 213.782 87.682 213.782ZM88.4459 213.268V213.238C88.4459 213.137 88.4607 213.044 88.4899 212.957C88.5194 212.87 88.5618 212.795 88.617 212.731C88.6722 212.666 88.7393 212.616 88.8178 212.581C88.8963 212.544 88.9844 212.526 89.082 212.526C89.1804 212.526 89.269 212.544 89.3475 212.581C89.4268 212.616 89.4942 212.666 89.5496 212.731C89.6056 212.795 89.6483 212.87 89.6777 212.957C89.7072 213.044 89.7218 213.137 89.7218 213.238V213.268C89.7218 213.369 89.7072 213.463 89.6777 213.549C89.6483 213.636 89.6056 213.711 89.5496 213.776C89.4942 213.84 89.4273 213.89 89.3488 213.926C89.2711 213.962 89.183 213.979 89.0846 213.979C88.9862 213.979 88.8976 213.962 88.8191 213.926C88.7403 213.89 88.6732 213.84 88.617 213.776C88.5618 213.711 88.5194 213.636 88.4899 213.549C88.4607 213.463 88.4459 213.369 88.4459 213.268ZM88.6857 213.238V213.268C88.6857 213.338 88.6939 213.404 88.7103 213.466C88.7265 213.528 88.7512 213.582 88.7841 213.63C88.8178 213.677 88.8597 213.715 88.9096 213.742C88.9597 213.769 89.018 213.782 89.0846 213.782C89.1501 213.782 89.2074 213.769 89.2568 213.742C89.3069 213.715 89.3483 213.677 89.3812 213.63C89.4138 213.582 89.4385 213.528 89.4549 213.466C89.4722 213.404 89.4809 213.338 89.4809 213.268V213.238C89.4809 213.169 89.4722 213.104 89.4549 213.043C89.4385 212.981 89.4135 212.926 89.3798 212.878C89.347 212.83 89.3056 212.792 89.2554 212.764C89.2064 212.737 89.1485 212.723 89.082 212.723C89.0162 212.723 88.9584 212.737 88.9085 212.764C88.8592 212.792 88.8178 212.83 88.7841 212.878C88.7512 212.926 88.7265 212.981 88.7103 213.043C88.6939 213.104 88.6857 213.169 88.6857 213.238ZM90.8796 213.63V212.552H91.1204V213.953H90.8913L90.8796 213.63ZM90.9249 213.334L91.0247 213.332C91.0247 213.425 91.0149 213.511 90.995 213.591C90.9759 213.669 90.9448 213.737 90.9016 213.795C90.8584 213.853 90.8019 213.899 90.7321 213.931C90.6621 213.963 90.5769 213.979 90.4769 213.979C90.4085 213.979 90.3459 213.969 90.2891 213.95C90.2329 213.93 90.1846 213.899 90.144 213.858C90.1035 213.816 90.0719 213.762 90.0493 213.696C90.0279 213.629 90.017 213.549 90.017 213.456V212.552H90.2568V213.459C90.2568 213.522 90.2637 213.574 90.2775 213.615C90.2921 213.656 90.3114 213.688 90.3356 213.712C90.3607 213.736 90.3883 213.752 90.4186 213.762C90.4496 213.771 90.4817 213.776 90.5143 213.776C90.6162 213.776 90.6971 213.756 90.7565 213.718C90.8162 213.678 90.8589 213.625 90.8849 213.558C90.9117 213.491 90.9249 213.416 90.9249 213.334ZM91.7255 212.851V213.953H91.4857V212.552H91.7125L91.7255 212.851ZM91.6684 213.199L91.5687 213.196C91.5695 213.1 91.5838 213.011 91.6114 212.93C91.639 212.848 91.678 212.777 91.7279 212.716C91.778 212.656 91.8377 212.61 91.9066 212.577C91.9767 212.543 92.0539 212.526 92.1385 212.526C92.2077 212.526 92.2698 212.536 92.3249 212.555C92.3804 212.573 92.4273 212.602 92.4663 212.643C92.5058 212.683 92.5361 212.736 92.5568 212.801C92.5777 212.864 92.5881 212.943 92.5881 213.035V213.953H92.347V213.033C92.347 212.959 92.3363 212.901 92.3146 212.856C92.2931 212.811 92.2615 212.779 92.2202 212.759C92.1788 212.738 92.1279 212.728 92.0674 212.728C92.0077 212.728 91.9533 212.741 91.9043 212.766C91.8557 212.791 91.8138 212.825 91.7785 212.869C91.744 212.913 91.7167 212.964 91.6968 213.021C91.678 213.077 91.6684 213.137 91.6684 213.199ZM93.5387 212.552V212.736H92.7809V212.552H93.5387ZM93.0374 212.211H93.2769V213.606C93.2769 213.654 93.2844 213.69 93.2989 213.714C93.3138 213.738 93.3326 213.754 93.356 213.762C93.3793 213.769 93.4042 213.773 93.431 213.773C93.4509 213.773 93.4716 213.772 93.4934 213.768C93.5157 213.764 93.5326 213.76 93.5438 213.758L93.5451 213.953C93.526 213.959 93.5011 213.965 93.47 213.97C93.4398 213.976 93.4032 213.979 93.36 213.979C93.3011 213.979 93.2472 213.968 93.1979 213.944C93.1488 213.921 93.1096 213.882 93.0801 213.828C93.0517 213.772 93.0374 213.698 93.0374 213.605V212.211Z" fill="#DCDCDC"/>
<path d="M89.1247 202.835C87.991 202.835 87.0711 203.755 87.0711 204.889C87.0711 206.023 87.991 206.943 89.1247 206.943C90.2584 206.943 91.1783 206.023 91.1783 204.889C91.1783 203.755 90.2584 202.835 89.1247 202.835ZM89.1247 205.916C88.5578 205.916 88.0979 205.456 88.0979 204.889C88.0979 204.322 88.5578 203.862 89.1247 203.862C89.6915 203.862 90.1515 204.322 90.1515 204.889C90.1515 205.456 89.6915 205.916 89.1247 205.916ZM89.1247 200.78C86.1942 200.78 83.8196 203.156 83.8196 206.087C83.8196 209.019 86.1942 211.395 89.1247 211.395C92.0552 211.395 94.4297 209.019 94.4297 206.087C94.4297 203.156 92.0552 200.78 89.1247 200.78ZM89.1247 210.367C88.0616 210.367 87.0905 209.976 86.3417 209.332C86.6605 208.839 87.2058 208.506 87.8305 208.486C88.2753 208.623 88.699 208.692 89.1247 208.692C89.5504 208.692 89.974 208.626 90.4188 208.486C91.0435 208.508 91.5889 208.839 91.9077 209.332C91.1589 209.976 90.1878 210.367 89.1247 210.367ZM92.6051 208.568C92.083 207.896 91.2767 207.457 90.3568 207.457C90.1387 207.457 89.8005 207.663 89.1247 207.663C88.4509 207.663 88.1106 207.457 87.8926 207.457C86.9748 207.457 86.1684 207.896 85.6443 208.568C85.1438 207.868 84.8464 207.012 84.8464 206.087C84.8464 203.727 86.7653 201.807 89.1247 201.807C91.4841 201.807 93.4029 203.727 93.4029 206.087C93.4029 207.012 93.1056 207.868 92.6051 208.568Z" fill="#DCDCDC"/>
<mask id="mask1_875_4670" style="mask-type:luminance" maskUnits="userSpaceOnUse" x="62" y="202" width="11" height="11">
<path d="M72.9443 202.997H62.3342V212.432H72.9443V202.997Z" fill="white"/>
</mask>
<g mask="url(#mask1_875_4670)">
<path d="M72.0623 208.55L72.9332 204.717C72.996 204.44 72.7857 204.177 72.5021 204.177H65.2669L65.0982 203.351C65.056 203.145 64.8748 202.997 64.665 202.997H62.7764C62.5321 202.997 62.3342 203.195 62.3342 203.44V203.734C62.3342 203.979 62.5321 204.177 62.7764 204.177H64.0637L65.3576 210.505C65.048 210.683 64.8393 211.017 64.8393 211.4C64.8393 211.97 65.3013 212.432 65.8708 212.432C66.4406 212.432 66.9024 211.97 66.9024 211.4C66.9024 211.111 66.7838 210.851 66.5926 210.663H70.4544C70.2631 210.851 70.1443 211.111 70.1443 211.4C70.1443 211.97 70.6064 212.432 71.1759 212.432C71.7456 212.432 72.2074 211.97 72.2074 211.4C72.2074 210.992 71.97 210.639 71.6257 210.471L71.7273 210.024C71.7902 209.747 71.5801 209.484 71.2963 209.484H66.352L66.2316 208.894H71.6313C71.8377 208.894 72.0167 208.751 72.0623 208.55Z" fill="#DCDCDC"/>
</g>
<mask id="mask2_875_4670" style="mask-type:luminance" maskUnits="userSpaceOnUse" x="5" y="202" width="12" height="12">
<path d="M16.1804 202.467H5.57031V213.081H16.1804V202.467Z" fill="white"/>
</mask>
<g mask="url(#mask2_875_4670)">
<path d="M16.0353 211.644L13.9693 209.578C13.876 209.484 13.7496 209.432 13.617 209.432H13.2792C13.8511 208.701 14.191 207.78 14.191 206.779C14.191 204.397 12.2617 202.467 9.88066 202.467C7.4996 202.467 5.57031 204.397 5.57031 206.779C5.57031 209.161 7.4996 211.091 9.88066 211.091C10.8816 211.091 11.8017 210.751 12.5332 210.179V210.517C12.5332 210.649 12.585 210.776 12.6782 210.869L14.7443 212.936C14.9391 213.131 15.2541 213.131 15.4468 212.936L16.0333 212.349C16.2281 212.154 16.2281 211.839 16.0353 211.644ZM9.88066 209.432C8.41556 209.432 7.22814 208.247 7.22814 206.779C7.22814 205.313 8.41347 204.125 9.88066 204.125C11.3458 204.125 12.5332 205.311 12.5332 206.779C12.5332 208.244 11.3478 209.432 9.88066 209.432Z" fill="#DCDCDC"/>
</g>
<path d="M27.1695 203.471H37.0215C37.2308 203.471 37.4005 203.302 37.4005 203.092V202.145C37.4005 201.935 37.2308 201.765 37.0215 201.765H27.1695C26.9602 201.765 26.7905 201.935 26.7905 202.145V203.092C26.7905 203.302 26.9602 203.471 27.1695 203.471ZM27.1695 207.262H37.0215C37.2308 207.262 37.4005 207.092 37.4005 206.883V205.935C37.4005 205.726 37.2308 205.556 37.0215 205.556H27.1695C26.9602 205.556 26.7905 205.726 26.7905 205.935V206.883C26.7905 207.092 26.9602 207.262 27.1695 207.262ZM27.1695 211.053H37.0215C37.2308 211.053 37.4005 210.883 37.4005 210.674V209.726C37.4005 209.517 37.2308 209.347 37.0215 209.347H27.1695C26.9602 209.347 26.7905 209.517 26.7905 209.726V210.674C26.7905 210.883 26.9602 211.053 27.1695 211.053Z" fill="#DCDCDC"/>
<path d="M26.8215 214.262H27.0703C27.0573 214.381 27.0231 214.488 26.9679 214.582C26.9128 214.676 26.8345 214.751 26.7334 214.806C26.6324 214.861 26.5064 214.888 26.3553 214.888C26.2448 214.888 26.1442 214.867 26.0535 214.826C25.9637 214.784 25.8864 214.726 25.8217 214.65C25.7569 214.573 25.7068 214.481 25.6714 214.374C25.6369 214.266 25.6196 214.146 25.6196 214.014V213.826C25.6196 213.694 25.6369 213.574 25.6714 213.467C25.7068 213.359 25.7573 213.267 25.823 213.19C25.8895 213.113 25.9693 213.054 26.0626 213.013C26.1558 212.971 26.2607 212.95 26.3773 212.95C26.5198 212.95 26.6403 212.977 26.7388 213.031C26.8372 213.084 26.9136 213.158 26.9679 213.253C27.0231 213.348 27.0573 213.457 27.0703 213.581H26.8215C26.8096 213.493 26.787 213.417 26.7541 213.354C26.7215 213.291 26.6748 213.241 26.6144 213.207C26.5539 213.172 26.4749 213.155 26.3773 213.155C26.2936 213.155 26.2197 213.171 26.1558 213.203C26.0928 213.235 26.0397 213.28 25.9965 213.339C25.9542 213.398 25.9223 213.468 25.9007 213.55C25.8791 213.632 25.8683 213.723 25.8683 213.823V214.014C25.8683 214.106 25.8778 214.193 25.8968 214.274C25.9167 214.355 25.9464 214.426 25.9862 214.488C26.0259 214.549 26.0764 214.597 26.1377 214.633C26.199 214.667 26.2715 214.684 26.3553 214.684C26.4615 214.684 26.5462 214.668 26.609 214.634C26.6722 214.6 26.7197 214.552 26.7518 214.489C26.7844 214.426 26.8077 214.35 26.8215 214.262ZM28.2008 214.622V213.901C28.2008 213.846 28.1897 213.798 28.1671 213.757C28.1457 213.716 28.1128 213.684 28.0687 213.661C28.0247 213.639 27.9703 213.628 27.9056 213.628C27.8451 213.628 27.7921 213.638 27.7464 213.659C27.7014 213.679 27.6661 213.707 27.6401 213.74C27.6151 213.774 27.6027 213.81 27.6027 213.849H27.3629C27.3629 213.799 27.3759 213.749 27.4019 213.7C27.4276 213.651 27.4647 213.606 27.5133 213.567C27.5624 213.526 27.6212 213.494 27.6894 213.471C27.7584 213.447 27.8353 213.435 27.9199 213.435C28.0218 213.435 28.1114 213.452 28.1892 213.487C28.2679 213.521 28.3292 213.573 28.3732 213.643C28.4181 213.712 28.4406 213.799 28.4406 213.904V214.556C28.4406 214.603 28.4443 214.653 28.4523 214.705C28.4608 214.758 28.4732 214.803 28.4897 214.841V214.862H28.2398C28.2276 214.834 28.2181 214.798 28.2112 214.752C28.2043 214.705 28.2008 214.662 28.2008 214.622ZM28.2425 214.012L28.2449 214.181H28.0027C27.9345 214.181 27.8738 214.186 27.8202 214.197C27.7666 214.208 27.7218 214.224 27.6854 214.245C27.6491 214.267 27.6215 214.294 27.6027 214.327C27.5836 214.359 27.574 214.397 27.574 214.44C27.574 214.484 27.5841 214.524 27.6037 214.56C27.6236 214.596 27.6536 214.625 27.6931 214.647C27.7337 214.668 27.7833 214.678 27.8422 214.678C27.9157 214.678 27.9804 214.662 28.0364 214.631C28.0926 214.6 28.1369 214.562 28.1698 214.518C28.2035 214.472 28.2218 214.429 28.2242 214.387L28.3266 214.502C28.3205 214.538 28.304 214.578 28.2772 214.622C28.2507 214.666 28.2146 214.709 28.1698 214.749C28.1258 214.789 28.0732 214.822 28.0117 214.849C27.9515 214.875 27.8831 214.888 27.8072 214.888C27.7122 214.888 27.6289 214.869 27.5573 214.832C27.4865 214.795 27.4311 214.745 27.3915 214.683C27.3525 214.62 27.3332 214.55 27.3332 214.472C27.3332 214.397 27.3478 214.331 27.3772 214.274C27.4067 214.216 27.4488 214.168 27.504 214.13C27.5594 214.091 27.6258 214.062 27.7035 214.042C27.7812 214.022 27.8679 214.012 27.964 214.012H28.2425ZM29.4043 213.461V213.645H28.6464V213.461H29.4043ZM28.9029 213.12H29.1425V214.515C29.1425 214.562 29.1499 214.598 29.1645 214.622C29.1793 214.646 29.1982 214.662 29.2215 214.67C29.2449 214.678 29.2698 214.682 29.2966 214.682C29.3165 214.682 29.3372 214.68 29.3589 214.677C29.3812 214.672 29.3982 214.669 29.4093 214.666L29.4106 214.862C29.3915 214.868 29.3666 214.874 29.3356 214.879C29.3053 214.885 29.2685 214.888 29.2255 214.888C29.1666 214.888 29.1128 214.876 29.0634 214.853C29.0144 214.829 28.9751 214.791 28.9457 214.736C28.9173 214.681 28.9029 214.607 28.9029 214.514V213.12ZM30.2666 214.888C30.1693 214.888 30.0807 214.871 30.0011 214.839C29.9226 214.805 29.8549 214.758 29.7979 214.697C29.7417 214.637 29.6987 214.565 29.6685 214.483C29.6382 214.4 29.6231 214.309 29.6231 214.21V214.156C29.6231 214.042 29.6398 213.941 29.6735 213.852C29.7072 213.762 29.7531 213.686 29.8109 213.624C29.8687 213.562 29.9342 213.515 30.0077 213.483C30.0812 213.451 30.1571 213.435 30.2356 213.435C30.3358 213.435 30.422 213.452 30.4947 213.487C30.5682 213.521 30.6281 213.569 30.6748 213.632C30.7212 213.693 30.756 213.765 30.7783 213.849C30.8008 213.932 30.812 214.023 30.812 214.121V214.229H29.7655V214.033H30.5724V214.015C30.569 213.953 30.556 213.892 30.5334 213.833C30.512 213.775 30.4775 213.727 30.43 213.689C30.3825 213.65 30.3178 213.632 30.2356 213.632C30.1812 213.632 30.1311 213.643 30.0854 213.667C30.0395 213.689 30.0003 213.723 29.9677 213.767C29.9348 213.813 29.9093 213.867 29.891 213.932C29.873 213.997 29.864 214.071 29.864 214.156V214.21C29.864 214.277 29.873 214.34 29.891 214.398C29.9101 214.456 29.9374 214.507 29.9727 214.551C30.009 214.595 30.0525 214.63 30.1035 214.655C30.1555 214.68 30.2141 214.692 30.2796 214.692C30.3642 214.692 30.4358 214.675 30.4947 214.64C30.5533 214.606 30.6048 214.56 30.6488 214.502L30.7939 214.617C30.7637 214.663 30.7252 214.706 30.6785 214.748C30.6319 214.789 30.5746 214.823 30.5064 214.849C30.439 214.875 30.3592 214.888 30.2666 214.888ZM31.9998 213.461H32.2173V214.832C32.2173 214.956 32.1923 215.061 32.1422 215.148C32.0921 215.235 32.022 215.301 31.9324 215.346C31.8433 215.392 31.7406 215.415 31.6242 215.415C31.5756 215.415 31.5189 215.407 31.4531 215.392C31.3884 215.377 31.3244 215.352 31.2613 215.315C31.1992 215.28 31.147 215.232 31.1048 215.171L31.2303 215.029C31.2892 215.1 31.3504 215.149 31.4144 215.177C31.4791 215.204 31.543 215.218 31.6059 215.218C31.682 215.218 31.7475 215.204 31.8027 215.175C31.8581 215.147 31.9008 215.105 31.9311 215.048C31.9621 214.993 31.9777 214.925 31.9777 214.844V213.769L31.9998 213.461ZM31.0348 214.177V214.15C31.0348 214.042 31.0472 213.945 31.0724 213.858C31.0982 213.77 31.135 213.694 31.1825 213.632C31.2308 213.568 31.2892 213.52 31.3573 213.487C31.4255 213.452 31.5024 213.435 31.5878 213.435C31.6759 213.435 31.7528 213.45 31.8183 213.481C31.8849 213.511 31.9409 213.556 31.9868 213.615C32.0334 213.672 32.0701 213.742 32.0968 213.824C32.1236 213.906 32.1422 213.999 32.1525 214.103V214.222C32.143 214.325 32.1244 214.417 32.0968 214.499C32.0701 214.581 32.0334 214.651 31.9868 214.709C31.9409 214.767 31.8849 214.811 31.8183 214.842C31.7518 214.873 31.674 214.888 31.5852 214.888C31.5014 214.888 31.4255 214.87 31.3573 214.835C31.2899 214.799 31.2321 214.75 31.1836 214.686C31.1353 214.622 31.0982 214.547 31.0724 214.461C31.0472 214.373 31.0348 214.279 31.0348 214.177ZM31.2743 214.15V214.177C31.2743 214.247 31.2812 214.312 31.295 214.374C31.3098 214.435 31.3319 214.489 31.361 214.536C31.3913 214.582 31.4297 214.619 31.4764 214.646C31.5231 214.672 31.5788 214.684 31.6435 214.684C31.7228 214.684 31.7886 214.668 31.8403 214.634C31.8921 214.6 31.9332 214.556 31.9634 214.501C31.9945 214.445 32.0186 214.385 32.0358 214.32V214.009C32.0266 213.961 32.0117 213.915 31.9918 213.871C31.973 213.826 31.9478 213.787 31.9167 213.752C31.8865 213.717 31.8491 213.689 31.804 213.668C31.7592 213.647 31.7067 213.637 31.6462 213.637C31.5804 213.637 31.5239 213.65 31.4764 213.678C31.4297 213.705 31.3913 213.742 31.361 213.789C31.3319 213.836 31.3098 213.891 31.295 213.953C31.2812 214.014 31.2743 214.08 31.2743 214.15ZM32.5178 214.177V214.147C32.5178 214.046 32.5324 213.952 32.5618 213.866C32.591 213.779 32.6334 213.703 32.6886 213.639C32.7441 213.575 32.8109 213.524 32.8894 213.489C32.9679 213.453 33.056 213.435 33.1536 213.435C33.252 213.435 33.3406 213.453 33.4191 213.489C33.4987 213.524 33.5661 213.575 33.6212 213.639C33.6775 213.703 33.7202 213.779 33.7494 213.866C33.7788 213.952 33.7934 214.046 33.7934 214.147V214.177C33.7934 214.278 33.7788 214.371 33.7494 214.458C33.7202 214.544 33.6775 214.62 33.6212 214.684C33.5661 214.748 33.499 214.798 33.4205 214.835C33.3427 214.87 33.2547 214.888 33.1563 214.888C33.0579 214.888 32.9693 214.87 32.8907 214.835C32.8122 214.798 32.7449 214.748 32.6886 214.684C32.6334 214.62 32.591 214.544 32.5618 214.458C32.5324 214.371 32.5178 214.278 32.5178 214.177ZM32.7573 214.147V214.177C32.7573 214.247 32.7655 214.313 32.782 214.375C32.7984 214.436 32.8231 214.491 32.8557 214.538C32.8894 214.586 32.9313 214.623 32.9815 214.651C33.0316 214.678 33.0897 214.691 33.1563 214.691C33.2218 214.691 33.2793 214.678 33.3284 214.651C33.3785 214.623 33.4199 214.586 33.4528 214.538C33.4857 214.491 33.5104 214.436 33.5268 214.375C33.5441 214.313 33.5525 214.247 33.5525 214.177V214.147C33.5525 214.078 33.5441 214.013 33.5268 213.952C33.5104 213.889 33.4852 213.835 33.4515 213.787C33.4189 213.739 33.3772 213.701 33.3273 213.673C33.278 213.645 33.2202 213.632 33.1536 213.632C33.0881 213.632 33.0303 213.645 32.9801 213.673C32.9308 213.701 32.8894 213.739 32.8557 213.787C32.8231 213.835 32.7984 213.889 32.782 213.952C32.7655 214.013 32.7573 214.078 32.7573 214.147ZM34.3337 213.681V214.862H34.0939V213.461H34.3271L34.3337 213.681ZM34.7714 213.453L34.7701 213.676C34.7502 213.671 34.7313 213.669 34.713 213.668C34.6958 213.666 34.6759 213.665 34.6536 213.665C34.5982 213.665 34.5494 213.674 34.5072 213.691C34.4647 213.708 34.4289 213.733 34.3998 213.764C34.3703 213.795 34.347 213.832 34.3297 213.875C34.3133 213.917 34.3024 213.964 34.2974 214.015L34.23 214.054C34.23 213.969 34.2382 213.89 34.2547 213.815C34.2719 213.741 34.2982 213.676 34.3337 213.619C34.369 213.561 34.4138 213.516 34.4682 213.484C34.5236 213.451 34.5892 213.435 34.6653 213.435C34.6825 213.435 34.7021 213.437 34.7247 213.441C34.7472 213.445 34.7626 213.449 34.7714 213.453ZM35.2531 213.461V214.862H35.0122V213.461H35.2531ZM34.9942 213.089C34.9942 213.05 35.0059 213.017 35.0292 212.991C35.0533 212.964 35.0886 212.95 35.1353 212.95C35.1809 212.95 35.2159 212.964 35.2401 212.991C35.2653 213.017 35.2777 213.05 35.2777 213.089C35.2777 213.126 35.2653 213.158 35.2401 213.185C35.2159 213.211 35.1809 213.224 35.1353 213.224C35.0886 213.224 35.0533 213.211 35.0292 213.185C35.0059 213.158 34.9942 213.126 34.9942 213.089ZM36.2194 214.888C36.1218 214.888 36.0332 214.871 35.9539 214.839C35.8754 214.805 35.8075 214.758 35.7504 214.697C35.6945 214.637 35.6512 214.565 35.621 214.483C35.5907 214.4 35.5756 214.309 35.5756 214.21V214.156C35.5756 214.042 35.5926 213.941 35.6263 213.852C35.66 213.762 35.7056 213.686 35.7634 213.624C35.8212 213.562 35.887 213.515 35.9602 213.483C36.0337 213.451 36.1096 213.435 36.1884 213.435C36.2884 213.435 36.3748 213.452 36.4472 213.487C36.5207 213.521 36.5807 213.569 36.6273 213.632C36.674 213.693 36.7085 213.765 36.7311 213.849C36.7533 213.932 36.7647 214.023 36.7647 214.121V214.229H35.7181V214.033H36.525V214.015C36.5215 213.953 36.5085 213.892 36.4862 213.833C36.4645 213.775 36.43 213.727 36.3825 213.689C36.335 213.65 36.2703 213.632 36.1884 213.632C36.134 213.632 36.0838 213.643 36.038 213.667C35.9923 213.689 35.9531 213.723 35.9202 213.767C35.8873 213.813 35.8618 213.867 35.8438 213.932C35.8255 213.997 35.8165 214.071 35.8165 214.156V214.21C35.8165 214.277 35.8255 214.34 35.8438 214.398C35.8626 214.456 35.8899 214.507 35.9252 214.551C35.9616 214.595 36.0053 214.63 36.0563 214.655C36.108 214.68 36.1666 214.692 36.2324 214.692C36.317 214.692 36.3886 214.675 36.4472 214.64C36.5061 214.606 36.5573 214.56 36.6014 214.502L36.7464 214.617C36.7162 214.663 36.6777 214.706 36.6313 214.748C36.5846 214.789 36.5271 214.823 36.4589 214.849C36.3915 214.875 36.3117 214.888 36.2194 214.888ZM37.8602 214.49C37.8602 214.456 37.8525 214.424 37.8372 214.394C37.8223 214.364 37.7918 214.337 37.7451 214.313C37.6992 214.288 37.6303 214.266 37.538 214.248C37.4602 214.232 37.3897 214.212 37.3268 214.19C37.2645 214.167 37.2114 214.14 37.1674 214.108C37.1242 214.076 37.091 214.039 37.0677 213.996C37.0443 213.952 37.0327 213.902 37.0327 213.844C37.0327 213.789 37.0449 213.736 37.069 213.687C37.0939 213.638 37.1289 213.594 37.174 213.556C37.2197 213.518 37.2746 213.489 37.3385 213.467C37.4024 213.445 37.4735 213.435 37.552 213.435C37.6642 213.435 37.7602 213.454 37.8395 213.494C37.9191 213.534 37.9799 213.587 38.0223 213.654C38.0645 213.719 38.0857 213.792 38.0857 213.872H37.8462C37.8462 213.833 37.8345 213.796 37.8112 213.76C37.7886 213.723 37.7555 213.692 37.7114 213.668C37.6682 213.644 37.6151 213.632 37.552 213.632C37.4857 213.632 37.4316 213.642 37.3902 213.663C37.3496 213.683 37.3199 213.708 37.3008 213.739C37.2828 213.77 37.2735 213.803 37.2735 213.837C37.2735 213.863 37.278 213.887 37.2865 213.907C37.2961 213.927 37.3125 213.946 37.3358 213.963C37.3592 213.98 37.3918 213.995 37.4342 214.01C37.4764 214.024 37.5305 214.039 37.596 214.054C37.7109 214.08 37.8056 214.111 37.8799 214.147C37.9541 214.183 38.0093 214.228 38.0457 214.28C38.0817 214.333 38.1 214.397 38.1 214.472C38.1 214.533 38.087 214.589 38.061 214.64C38.0361 214.691 37.9992 214.735 37.951 214.772C37.9035 214.809 37.8464 214.837 37.7801 214.858C37.7144 214.878 37.6406 214.888 37.5586 214.888C37.435 214.888 37.3305 214.866 37.2451 214.822C37.1597 214.778 37.095 214.721 37.051 214.651C37.0069 214.581 36.9849 214.507 36.9849 214.429H37.2258C37.2292 214.495 37.248 214.547 37.2828 214.586C37.3173 214.624 37.3594 214.651 37.4096 214.668C37.4597 214.683 37.5093 214.691 37.5586 214.691C37.6242 214.691 37.6791 214.682 37.7231 214.665C37.7679 214.648 37.8022 214.624 37.8255 214.594C37.8486 214.564 37.8602 214.529 37.8602 214.49Z" fill="#DCDCDC"/>
<path d="M50 211.356C55.4203 211.356 59.8143 206.96 59.8143 201.538C59.8143 196.115 55.4203 191.72 50 191.72C44.5797 191.72 40.1857 196.115 40.1857 201.538C40.1857 206.96 44.5797 211.356 50 211.356Z" fill="#BB0000"/>
<path fill-rule="evenodd" clip-rule="evenodd" d="M50 191.853C44.6529 191.853 40.3183 196.189 40.3183 201.538C40.3183 206.887 44.6529 211.224 50 211.224C55.347 211.224 59.6817 206.887 59.6817 201.538C59.6817 196.189 55.347 191.853 50 191.853ZM40.053 201.538C40.053 196.042 44.5064 191.587 50 191.587C55.4935 191.587 59.9469 196.042 59.9469 201.538C59.9469 207.034 55.4935 211.489 50 211.489C44.5064 211.489 40.053 207.034 40.053 201.538Z" fill="black"/>
<mask id="mask3_875_4670" style="mask-type:luminance" maskUnits="userSpaceOnUse" x="44" y="196" width="12" height="11">
<path d="M55.9682 196.364H44.0319V206.978H55.9682V196.364Z" fill="white"/>
</mask>
<g mask="url(#mask3_875_4670)">
<path d="M49.8419 199.437L46.0212 202.585V205.983C46.0212 206.071 46.0563 206.155 46.1183 206.217C46.1804 206.279 46.2647 206.314 46.3528 206.314L48.6751 206.308C48.7626 206.308 48.8464 206.273 48.9082 206.211C48.9703 206.149 49.0048 206.065 49.0048 205.977V203.993C49.0048 203.905 49.0398 203.82 49.1019 203.758C49.1642 203.696 49.2486 203.661 49.3364 203.661H50.6626C50.7507 203.661 50.835 203.696 50.8971 203.758C50.9594 203.82 50.9942 203.905 50.9942 203.993V205.975C50.9942 206.019 51.0027 206.062 51.0191 206.102C51.0358 206.143 51.0602 206.18 51.091 206.21C51.1218 206.241 51.1584 206.266 51.1987 206.283C51.239 206.299 51.2822 206.308 51.3258 206.308L53.6472 206.314C53.735 206.314 53.8194 206.279 53.8817 206.217C53.9438 206.155 53.9788 206.071 53.9788 205.983V202.583L50.1589 199.437C50.1141 199.401 50.0581 199.381 50.0003 199.381C49.9427 199.381 49.8868 199.401 49.8419 199.437ZM55.8769 201.577L54.1446 200.148V197.277C54.1446 197.211 54.1183 197.147 54.0716 197.101C54.0252 197.054 53.9618 197.028 53.8958 197.028H52.7353C52.6695 197.028 52.6061 197.054 52.5597 197.101C52.513 197.147 52.4868 197.211 52.4868 197.277V198.782L50.6313 197.255C50.4533 197.108 50.23 197.028 49.9995 197.028C49.7687 197.028 49.5454 197.108 49.3674 197.255L44.1218 201.577C44.0966 201.598 44.0759 201.623 44.0605 201.652C44.0451 201.681 44.0358 201.713 44.0326 201.745C44.0295 201.778 44.0329 201.811 44.0425 201.842C44.052 201.873 44.0677 201.902 44.0886 201.927L44.617 202.57C44.6379 202.595 44.6634 202.616 44.6923 202.631C44.721 202.647 44.7528 202.656 44.7852 202.659C44.8178 202.663 44.8507 202.659 44.882 202.65C44.9133 202.64 44.9422 202.624 44.9674 202.604L49.8419 198.587C49.8868 198.551 49.9427 198.531 50.0003 198.531C50.0581 198.531 50.1141 198.551 50.1589 198.587L55.0334 202.604C55.0586 202.624 55.0878 202.64 55.1191 202.65C55.1502 202.659 55.183 202.663 55.2157 202.66C55.248 202.657 55.2796 202.647 55.3085 202.632C55.3374 202.616 55.3629 202.596 55.3838 202.571L55.9122 201.928C55.9329 201.902 55.9486 201.873 55.9581 201.842C55.9677 201.811 55.9708 201.778 55.9677 201.745C55.9642 201.712 55.9547 201.681 55.939 201.652C55.9236 201.623 55.9024 201.598 55.8769 201.577Z" fill="#DCDCDC"/>
</g>
<path fill-rule="evenodd" clip-rule="evenodd" d="M10.3448 112.776H89.6552V122.595H10.3448V112.776ZM10.6101 113.042V122.329H89.3899V113.042H10.6101Z" fill="black"/>
<path d="M14.8497 119.145H14.5125V116.908L13.8361 117.157V116.852L14.7972 116.491H14.8497V119.145ZM17.5624 119.145H15.8325V118.904L16.7464 117.888C16.8818 117.734 16.9748 117.61 17.0256 117.514C17.0776 117.417 17.1036 117.317 17.1036 117.215C17.1036 117.077 17.0619 116.964 16.9785 116.875C16.8951 116.787 16.7839 116.743 16.6448 116.743C16.478 116.743 16.3481 116.791 16.255 116.886C16.1631 116.981 16.1172 117.112 16.1172 117.282H15.7817C15.7817 117.039 15.8597 116.842 16.0156 116.692C16.1728 116.542 16.3825 116.467 16.6448 116.467C16.8902 116.467 17.0843 116.532 17.2269 116.662C17.3695 116.79 17.4409 116.961 17.4409 117.175C17.4409 117.435 17.2752 117.744 16.944 118.103L16.2369 118.871H17.5624V119.145ZM18.4055 117.661H18.6576C18.8159 117.658 18.9404 117.617 19.0311 117.536C19.1217 117.455 19.1671 117.345 19.1671 117.207C19.1671 116.898 19.0129 116.743 18.7047 116.743C18.5596 116.743 18.4436 116.785 18.3565 116.868C18.2707 116.95 18.2278 117.06 18.2278 117.196H17.8924C17.8924 116.987 17.9685 116.814 18.1208 116.676C18.2743 116.537 18.469 116.467 18.7047 116.467C18.9537 116.467 19.1489 116.533 19.2904 116.665C19.4318 116.797 19.5025 116.98 19.5025 117.215C19.5025 117.33 19.465 117.441 19.3901 117.548C19.3164 117.656 19.2154 117.736 19.0873 117.79C19.2324 117.836 19.3442 117.912 19.4227 118.018C19.5025 118.125 19.5424 118.255 19.5424 118.408C19.5424 118.645 19.465 118.833 19.3103 118.973C19.1556 119.112 18.9543 119.181 18.7065 119.181C18.4587 119.181 18.2568 119.114 18.1009 118.98C17.9461 118.845 17.8688 118.668 17.8688 118.448H18.206C18.206 118.587 18.2514 118.698 18.342 118.782C18.4327 118.865 18.5542 118.907 18.7065 118.907C18.8685 118.907 18.9924 118.865 19.0782 118.78C19.164 118.695 19.207 118.574 19.207 118.416C19.207 118.262 19.1598 118.144 19.0655 118.062C18.9712 117.98 18.8352 117.937 18.6576 117.935H18.4055V117.661Z" fill="black"/>
<path fill-rule="evenodd" clip-rule="evenodd" d="M10.3448 69.5232H89.6552V79.3414H10.3448V69.5232ZM10.6101 69.7885V79.076H89.3899V69.7885H10.6101Z" fill="black"/>
<path d="M14.284 73.2506L15.1471 75.4056L16.0102 73.2506H16.4617V75.8917H16.1135V74.8632L16.1462 73.7529L15.2794 75.8917H15.0129L14.148 73.7585L14.1824 74.8632V75.8917H13.8343V73.2506H14.284ZM17.3882 75.8917H17.0528V73.9291H17.3882V75.8917ZM17.0256 73.4085C17.0256 73.3541 17.0419 73.3079 17.0746 73.2705C17.1084 73.2331 17.158 73.2143 17.2232 73.2143C17.2885 73.2143 17.3381 73.2331 17.3719 73.2705C17.4058 73.3079 17.4227 73.3541 17.4227 73.4085C17.4227 73.4629 17.4058 73.5083 17.3719 73.5444C17.3381 73.5807 17.2885 73.5988 17.2232 73.5988C17.158 73.5988 17.1084 73.5807 17.0746 73.5444C17.0419 73.5083 17.0256 73.4629 17.0256 73.4085ZM18.4744 74.9829L18.2641 75.2023V75.8917H17.9286V73.1055H18.2641V74.7907L18.4435 74.5747L19.0546 73.9291H19.4626L18.6992 74.7488L19.5515 75.8917H19.158L18.4744 74.9829ZM20.5868 75.9281C20.3209 75.9281 20.1045 75.841 19.9377 75.6667C19.7708 75.4916 19.6874 75.2575 19.6874 74.9648V74.903C19.6874 74.7085 19.7243 74.5349 19.7981 74.3824C19.873 74.229 19.977 74.1093 20.1099 74.0233C20.2441 73.9363 20.3892 73.8928 20.5451 73.8928C20.8002 73.8928 20.9984 73.9769 21.1399 74.1449C21.2813 74.3128 21.352 74.5535 21.352 74.8669V75.0065H20.0229C20.0277 75.1999 20.0839 75.3565 20.1915 75.4764C20.3003 75.5948 20.4381 75.654 20.605 75.654C20.7234 75.654 20.8237 75.6298 20.9059 75.5815C20.9881 75.5332 21.0601 75.469 21.1217 75.3891L21.3266 75.5489C21.1622 75.8015 20.9156 75.9281 20.5868 75.9281ZM20.5451 74.1685C20.4097 74.1685 20.2961 74.2181 20.2042 74.3171C20.1124 74.4153 20.0555 74.553 20.0338 74.7308H21.0165V74.7053C21.0069 74.5349 20.9609 74.4031 20.8787 74.3099C20.7965 74.2157 20.6853 74.1685 20.5451 74.1685ZM24.1734 75.2023H23.0673L22.8189 75.8917H22.4599L23.4681 73.2506H23.7727L24.7827 75.8917H24.4255L24.1734 75.2023ZM23.1725 74.9157H24.07L23.6204 73.6805L23.1725 74.9157ZM25.4028 73.9291L25.4137 74.1756C25.5636 73.987 25.7594 73.8928 26.0012 73.8928C26.4158 73.8928 26.6249 74.1268 26.6286 74.5946V75.8917H26.2931V74.5928C26.2919 74.4514 26.2592 74.3468 26.1952 74.2791C26.1323 74.2115 26.0338 74.1775 25.8996 74.1775C25.7908 74.1775 25.6953 74.2064 25.6131 74.2645C25.5309 74.3227 25.4669 74.3988 25.4209 74.493V75.8917H25.0855V73.9291H25.4028ZM27.0528 74.894C27.0528 74.5928 27.1241 74.3511 27.2668 74.1685C27.4095 73.9846 27.5963 73.8928 27.827 73.8928C28.0568 73.8928 28.2387 73.9713 28.3729 74.1284V73.1055H28.7082V75.8917H28.4L28.3838 75.6813C28.2496 75.8458 28.0629 75.9281 27.8236 75.9281C27.5963 75.9281 27.4106 75.8349 27.2668 75.6486C27.1241 75.4624 27.0528 75.2193 27.0528 74.9194V74.894ZM27.3883 74.9322C27.3883 75.1546 27.4342 75.3289 27.526 75.4547C27.618 75.5802 27.7448 75.6431 27.9069 75.6431C28.1196 75.6431 28.2751 75.5475 28.3729 75.3565V74.4551C28.2727 74.2701 28.1186 74.1775 27.9106 74.1775C27.7461 74.1775 27.618 74.2409 27.526 74.368C27.4342 74.4949 27.3883 74.683 27.3883 74.9322ZM30.0448 75.9281C29.7788 75.9281 29.5623 75.841 29.3955 75.6667C29.2286 75.4916 29.1454 75.2575 29.1454 74.9648V74.903C29.1454 74.7085 29.1822 74.5349 29.256 74.3824C29.3308 74.229 29.4347 74.1093 29.5679 74.0233C29.7021 73.9363 29.8469 73.8928 30.0029 73.8928C30.2581 73.8928 30.4562 73.9769 30.5979 74.1449C30.7392 74.3128 30.8098 74.5535 30.8098 74.8669V75.0065H29.4809C29.4857 75.1999 29.5419 75.3565 29.6493 75.4764C29.7581 75.5948 29.896 75.654 30.0629 75.654C30.1814 75.654 30.2817 75.6298 30.3639 75.5815C30.4461 75.5332 30.518 75.469 30.5796 75.3891L30.7846 75.5489C30.6202 75.8015 30.3735 75.9281 30.0448 75.9281ZM30.0029 74.1685C29.8676 74.1685 29.7541 74.2181 29.6621 74.3171C29.5703 74.4153 29.5135 74.553 29.4918 74.7308H30.4745V74.7053C30.4647 74.5349 30.4188 74.4031 30.3366 74.3099C30.2544 74.2157 30.1432 74.1685 30.0029 74.1685ZM32.148 74.2301C32.0973 74.2216 32.0422 74.2173 31.983 74.2173C31.7631 74.2173 31.6138 74.3112 31.5353 74.4986V75.8917H31.1997V73.9291H31.5263L31.5316 74.1558C31.6416 73.9804 31.7976 73.8928 31.9995 73.8928C32.0647 73.8928 32.1143 73.9013 32.148 73.918V74.2301ZM33.6005 75.3711C33.6005 75.2803 33.566 75.2103 33.4971 75.1607C33.4294 75.11 33.3103 75.0664 33.14 75.0301C32.9705 74.9937 32.8358 74.9502 32.7355 74.8995C32.6363 74.8486 32.5626 74.7881 32.5143 74.718C32.4671 74.648 32.4435 74.5644 32.4435 74.4678C32.4435 74.307 32.5114 74.1709 32.6467 74.0597C32.7833 73.9482 32.9573 73.8928 33.169 73.8928C33.3912 73.8928 33.5713 73.9501 33.7093 74.065C33.8483 74.1799 33.9178 74.3269 33.9178 74.5058H33.5806C33.5806 74.4139 33.5414 74.3346 33.4626 74.2683C33.3854 74.2017 33.2873 74.1685 33.169 74.1685C33.0469 74.1685 32.9515 74.195 32.8825 74.2484C32.8135 74.3014 32.779 74.3709 32.779 74.4569C32.779 74.5379 32.8111 74.5989 32.8751 74.64C32.9393 74.6812 33.0546 74.7204 33.2215 74.7581C33.3896 74.7955 33.5255 74.8401 33.6294 74.8921C33.7334 74.9441 33.8103 75.007 33.8597 75.0808C33.9106 75.1535 33.9358 75.2424 33.9358 75.3475C33.9358 75.5229 33.8658 75.6638 33.7257 75.7702C33.5854 75.8753 33.4034 75.9281 33.1798 75.9281C33.0225 75.9281 32.8835 75.9002 32.7629 75.8445C32.6419 75.789 32.5469 75.7115 32.478 75.6123C32.4103 75.512 32.3766 75.4037 32.3766 75.2878H32.7119C32.718 75.4 32.7629 75.4897 32.8461 75.556C32.9308 75.6213 33.0419 75.654 33.1798 75.654C33.3066 75.654 33.4082 75.6287 33.4843 75.5778C33.5618 75.5258 33.6005 75.4571 33.6005 75.3711ZM34.2841 74.8921C34.2841 74.7 34.3215 74.527 34.3965 74.3733C34.4727 74.22 34.5777 74.1013 34.7119 74.0178C34.8475 73.9344 35.0016 73.8928 35.1743 73.8928C35.4416 73.8928 35.6573 73.9851 35.8217 74.1703C35.9873 74.3553 36.07 74.6013 36.07 74.9086V74.9322C36.07 75.1232 36.0331 75.2949 35.9594 75.4472C35.887 75.5985 35.7825 75.7163 35.6459 75.801C35.5103 75.8856 35.3544 75.9281 35.178 75.9281C34.9119 75.9281 34.6963 75.8355 34.5308 75.6505C34.3663 75.4655 34.2841 75.2206 34.2841 74.9157V74.8921ZM34.6212 74.9322C34.6212 75.1498 34.6716 75.3246 34.7719 75.4563C34.8735 75.5881 35.0087 75.654 35.178 75.654C35.3485 75.654 35.4838 75.5876 35.5841 75.4547C35.6846 75.3204 35.7347 75.1328 35.7347 74.8921C35.7347 74.6769 35.6833 74.5028 35.5806 74.3699C35.479 74.2356 35.3435 74.1685 35.1743 74.1685C35.0087 74.1685 34.8751 74.2343 34.7737 74.3662C34.6721 74.4981 34.6212 74.6867 34.6212 74.9322ZM36.8082 73.9291L36.8191 74.1756C36.969 73.987 37.1647 73.8928 37.4064 73.8928C37.8212 73.8928 38.0302 74.1268 38.0339 74.5946V75.8917H37.6984V74.5928C37.6971 74.4514 37.6644 74.3468 37.6005 74.2791C37.5377 74.2115 37.4392 74.1775 37.305 74.1775C37.196 74.1775 37.1005 74.2064 37.0186 74.2645C36.9363 74.3227 36.8721 74.3988 36.8263 74.493V75.8917H36.4907V73.9291H36.8082Z" fill="black"/>
<path fill-rule="evenodd" clip-rule="evenodd" d="M10.3448 84.6484H89.6552V94.4666H10.3448V84.6484ZM10.6101 84.9138V94.2013H89.3899V84.9138H10.6101Z" fill="black"/>
<path d="M14.8497 91.017H14.5125V88.7804L13.8361 89.029V88.7241L14.7972 88.3632H14.8497V91.017ZM17.5624 91.017H15.8325V90.7758L16.7464 89.7601C16.8818 89.6064 16.9748 89.482 17.0256 89.3862C17.0776 89.2896 17.1036 89.1898 17.1036 89.0871C17.1036 88.9491 17.0619 88.8361 16.9785 88.7477C16.8951 88.6596 16.7839 88.6153 16.6448 88.6153C16.478 88.6153 16.3481 88.6631 16.255 88.7586C16.1631 88.8531 16.1172 88.9847 16.1172 89.154H15.7817C15.7817 88.9109 15.8597 88.7145 16.0156 88.5646C16.1728 88.4147 16.3825 88.3396 16.6448 88.3396C16.8902 88.3396 17.0843 88.4043 17.2269 88.5338C17.3695 88.662 17.4409 88.8332 17.4409 89.047C17.4409 89.3071 17.2752 89.6168 16.944 89.9758L16.2369 90.7432H17.5624V91.017ZM18.4055 89.5332H18.6576C18.8159 89.5308 18.9404 89.4891 19.0311 89.4082C19.1217 89.327 19.1671 89.2177 19.1671 89.0797C19.1671 88.7703 19.0129 88.6153 18.7047 88.6153C18.5596 88.6153 18.4436 88.657 18.3565 88.7405C18.2707 88.8228 18.2278 88.9321 18.2278 89.0688H17.8924C17.8924 88.8597 17.9685 88.6862 18.1208 88.5482C18.2743 88.4091 18.469 88.3396 18.7047 88.3396C18.9537 88.3396 19.1489 88.4057 19.2904 88.5373C19.4318 88.6692 19.5025 88.8523 19.5025 89.0871C19.5025 89.202 19.465 89.3132 19.3901 89.4207C19.3164 89.5284 19.2154 89.6088 19.0873 89.6621C19.2324 89.708 19.3442 89.7842 19.4227 89.8906C19.5025 89.997 19.5424 90.127 19.5424 90.2807C19.5424 90.5176 19.465 90.7055 19.3103 90.8448C19.1556 90.9839 18.9543 91.0534 18.7065 91.0534C18.4587 91.0534 18.2568 90.9863 18.1009 90.852C17.9461 90.7177 17.8688 90.5405 17.8688 90.3205H18.206C18.206 90.4595 18.2514 90.5707 18.342 90.6543C18.4327 90.7376 18.5542 90.7793 18.7065 90.7793C18.8685 90.7793 18.9924 90.7371 19.0782 90.6524C19.1641 90.5678 19.207 90.4463 19.207 90.2878C19.207 90.1342 19.1598 90.0164 19.0655 89.9341C18.9712 89.8519 18.8352 89.8097 18.6576 89.807H18.4055V89.5332ZM21.4191 90.13H21.7854V90.4038H21.4191V91.017H21.0818V90.4038H19.8797V90.2061L21.0619 88.376H21.4191V90.13ZM20.2604 90.13H21.0818V88.8348L21.042 88.9075L20.2604 90.13ZM23.1635 89.6929L23.2976 88.376H24.6503V88.6862H23.5823L23.5025 89.4063C23.6319 89.3302 23.7787 89.292 23.9432 89.292C24.1837 89.292 24.3747 89.3718 24.5161 89.5313C24.6576 89.6897 24.7283 89.9044 24.7283 90.1753C24.7283 90.4476 24.6546 90.662 24.5071 90.8194C24.3608 90.9754 24.1559 91.0534 23.8924 91.0534C23.6591 91.0534 23.4687 90.9886 23.3212 90.8592C23.1737 90.7299 23.0897 90.5508 23.0692 90.3223H23.3865C23.407 90.4733 23.4608 90.5877 23.5479 90.6652C23.6349 90.7413 23.7498 90.7793 23.8924 90.7793C24.0483 90.7793 24.1704 90.7262 24.2587 90.6198C24.3481 90.5134 24.3928 90.3664 24.3928 90.1791C24.3928 90.0023 24.3445 89.8609 24.2478 89.7545C24.1523 89.647 24.0247 89.5931 23.8652 89.5931C23.7189 89.5931 23.6041 89.6253 23.5207 89.6892L23.4318 89.7619L23.1635 89.6929ZM26.411 88.3741V88.6588H26.3493C26.0882 88.6639 25.8803 88.7411 25.7256 88.891C25.5708 89.0409 25.4814 89.2522 25.4572 89.5241C25.5962 89.3644 25.786 89.2848 26.0266 89.2848C26.2563 89.2848 26.4394 89.3657 26.5759 89.5279C26.7138 89.6897 26.7828 89.8991 26.7828 90.1554C26.7828 90.4274 26.7082 90.6453 26.5597 90.8085C26.4122 90.9717 26.2139 91.0534 25.9649 91.0534C25.7123 91.0534 25.5074 90.9565 25.3502 90.7631C25.1931 90.5683 25.1145 90.3181 25.1145 90.0121V89.8834C25.1145 89.3973 25.2179 89.0258 25.4246 88.7695C25.6325 88.5121 25.9413 88.3802 26.3512 88.3741H26.411ZM25.9704 89.5639C25.8555 89.5639 25.7498 89.5984 25.653 89.6674C25.5563 89.7364 25.4893 89.8229 25.4518 89.927V90.0501C25.4518 90.2679 25.5007 90.4433 25.5986 90.5763C25.6966 90.7092 25.8187 90.7758 25.9649 90.7758C26.116 90.7758 26.2345 90.7201 26.3203 90.6089C26.4074 90.4977 26.4509 90.3518 26.4509 90.1716C26.4509 89.9904 26.4068 89.8439 26.3185 89.7327C26.2315 89.6202 26.1154 89.5639 25.9704 89.5639ZM28.8844 88.5646L27.7907 91.017H27.439L28.5289 88.6517H27.1V88.376H28.8844V88.5646ZM30.8661 89.0653C30.8661 89.197 30.8311 89.3143 30.761 89.4172C30.6921 89.5199 30.5984 89.6003 30.4799 89.6584C30.6178 89.7176 30.7265 89.8041 30.8064 89.9177C30.8873 90.0315 30.9279 90.1602 30.9279 90.304C30.9279 90.5328 30.8504 90.7148 30.6958 90.8501C30.5422 90.9857 30.3398 91.0534 30.0883 91.0534C29.8345 91.0534 29.6308 90.9857 29.4772 90.8501C29.325 90.7135 29.2488 90.5314 29.2488 90.304C29.2488 90.1615 29.2873 90.0326 29.3647 89.9177C29.4433 89.8028 29.5515 89.7157 29.6894 89.6566C29.5722 89.5984 29.4796 89.518 29.412 89.4153C29.3443 89.3124 29.3104 89.1959 29.3104 89.0653C29.3104 88.8427 29.3817 88.6663 29.5244 88.5354C29.6669 88.4049 29.8549 88.3396 30.0883 88.3396C30.3204 88.3396 30.5077 88.4049 30.6504 88.5354C30.7942 88.6663 30.8661 88.8427 30.8661 89.0653ZM30.5923 90.2969C30.5923 90.1493 30.5451 90.0291 30.4509 89.936C30.3578 89.8428 30.2358 89.7961 30.0846 89.7961C29.9334 89.7961 29.812 89.8423 29.7202 89.9341C29.6295 90.0259 29.5841 90.1469 29.5841 90.2969C29.5841 90.4468 29.6284 90.5649 29.7165 90.6506C29.8059 90.7366 29.93 90.7793 30.0883 90.7793C30.2454 90.7793 30.3687 90.7366 30.4581 90.6506C30.5475 90.5635 30.5923 90.4457 30.5923 90.2969ZM30.0883 88.6153C29.9565 88.6153 29.8496 88.6564 29.7674 88.7387C29.6862 88.8196 29.6459 88.9303 29.6459 89.0707C29.6459 89.2049 29.6857 89.3137 29.7655 89.3973C29.8464 89.4793 29.9541 89.5204 30.0883 89.5204C30.2223 89.5204 30.3295 89.4793 30.4093 89.3973C30.4902 89.3137 30.5308 89.2049 30.5308 89.0707C30.5308 88.9364 30.4889 88.8271 30.4056 88.7424C30.322 88.6578 30.2165 88.6153 30.0883 88.6153ZM33.557 89.8561C33.4868 89.9394 33.4029 90.0066 33.3051 90.0575C33.2082 90.1082 33.1019 90.1337 32.9857 90.1337C32.8334 90.1337 32.7005 90.0963 32.587 90.0212C32.4746 89.9463 32.3876 89.841 32.3257 89.7057C32.2642 89.569 32.2334 89.4183 32.2334 89.2538C32.2334 89.0773 32.2666 88.9183 32.3332 88.7769C32.4008 88.6352 32.4963 88.5272 32.6196 88.4521C32.7427 88.377 32.8868 88.3396 33.0512 88.3396C33.3122 88.3396 33.5178 88.4375 33.6677 88.6336C33.8186 88.8281 33.8942 89.0943 33.8942 89.4315V89.5297C33.8942 90.0434 33.7926 90.4189 33.5897 90.6562C33.3865 90.8918 33.0801 91.0128 32.6703 91.0189H32.6051V90.7358H32.6759C32.9525 90.731 33.1653 90.6591 33.3141 90.52C33.4626 90.3797 33.5438 90.1584 33.557 89.8561ZM33.0403 89.8561C33.1525 89.8561 33.256 89.8216 33.3502 89.7526C33.4456 89.6839 33.5154 89.5984 33.5589 89.4968V89.3628C33.5589 89.1426 33.5112 88.9637 33.4157 88.8257C33.3202 88.688 33.1992 88.619 33.0528 88.619C32.9053 88.619 32.787 88.6758 32.6976 88.7894C32.608 88.9019 32.5634 89.0507 32.5634 89.2357C32.5634 89.4159 32.6061 89.5647 32.6921 89.682C32.7791 89.798 32.8952 89.8561 33.0403 89.8561ZM36.0122 89.8906C36.0122 90.2836 35.9451 90.5758 35.8109 90.7668C35.6767 90.9579 35.4669 91.0534 35.1817 91.0534C34.9 91.0534 34.6915 90.9603 34.556 90.774C34.4207 90.5866 34.3507 90.3072 34.3456 89.936V89.4878C34.3456 89.0996 34.4128 88.8114 34.547 88.6227C34.6812 88.4341 34.8915 88.3396 35.178 88.3396C35.4621 88.3396 35.6711 88.4309 35.8053 88.6134C35.9395 88.7949 36.0085 89.0754 36.0122 89.4552V89.8906ZM35.6767 89.4315C35.6767 89.1473 35.6369 88.9406 35.557 88.8114C35.4772 88.6806 35.3509 88.6153 35.178 88.6153C35.0064 88.6153 34.8812 88.6801 34.8027 88.8095C34.7242 88.9388 34.6836 89.1378 34.6812 89.4063V89.9431C34.6812 90.2287 34.7223 90.4396 34.8045 90.5763C34.8878 90.7116 35.0135 90.7793 35.1817 90.7793C35.3472 90.7793 35.47 90.7153 35.5496 90.5872C35.6308 90.459 35.673 90.2571 35.6767 89.9814V89.4315ZM37.5443 91.017H37.2072V88.7804L36.5308 89.029V88.7241L37.4918 88.3632H37.5443V91.017ZM40.257 91.017H38.5271V90.7758L39.4409 89.7601C39.5764 89.6064 39.6695 89.482 39.7202 89.3862C39.7722 89.2896 39.7982 89.1898 39.7982 89.0871C39.7982 88.9491 39.7565 88.8361 39.673 88.7477C39.5897 88.6596 39.4785 88.6153 39.3395 88.6153C39.1727 88.6153 39.0427 88.6631 38.9496 88.7586C38.8576 88.8531 38.8117 88.9847 38.8117 89.154H38.4764C38.4764 88.9109 38.5544 88.7145 38.7104 88.5646C38.8674 88.4147 39.0772 88.3396 39.3395 88.3396C39.5849 88.3396 39.7788 88.4043 39.9215 88.5338C40.0642 88.662 40.1356 88.8332 40.1356 89.047C40.1356 89.3071 39.9698 89.6168 39.6387 89.9758L38.9313 90.7432H40.257V91.017ZM42.0212 89.5332H42.2732C42.4316 89.5308 42.5563 89.4891 42.6467 89.4082C42.7374 89.327 42.7828 89.2177 42.7828 89.0797C42.7828 88.7703 42.6287 88.6153 42.3204 88.6153C42.1754 88.6153 42.0592 88.657 41.9722 88.7405C41.8865 88.8228 41.8435 88.9321 41.8435 89.0688H41.508C41.508 88.8597 41.5841 88.6862 41.7366 88.5482C41.8899 88.4091 42.0846 88.3396 42.3204 88.3396C42.5695 88.3396 42.7647 88.4057 42.9061 88.5373C43.0475 88.6692 43.1183 88.8523 43.1183 89.0871C43.1183 89.202 43.0807 89.3132 43.0059 89.4207C42.9321 89.5284 42.8311 89.6088 42.7029 89.6621C42.848 89.708 42.96 89.7842 43.0385 89.8906C43.1183 89.997 43.1581 90.127 43.1581 90.2807C43.1581 90.5176 43.0807 90.7055 42.926 90.8448C42.7714 90.9839 42.57 91.0534 42.3223 91.0534C42.0743 91.0534 41.8724 90.9863 41.7165 90.852C41.5618 90.7177 41.4844 90.5405 41.4844 90.3205H41.8218C41.8218 90.4595 41.8671 90.5707 41.9578 90.6543C42.0483 90.7376 42.1698 90.7793 42.3223 90.7793C42.4841 90.7793 42.608 90.7371 42.6939 90.6524C42.7799 90.5678 42.8226 90.4463 42.8226 90.2878C42.8226 90.1342 42.7756 90.0164 42.6812 89.9341C42.587 89.8519 42.4509 89.8097 42.2732 89.807H42.0212V89.5332ZM45.0348 90.13H45.4011V90.4038H45.0348V91.017H44.6976V90.4038H43.4955V90.2061L44.6777 88.376H45.0348V90.13ZM43.8761 90.13H44.6976V88.8348L44.6576 88.9075L43.8761 90.13ZM45.8581 89.6929L45.9923 88.376H47.3448V88.6862H46.2769L46.1971 89.4063C46.3265 89.3302 46.4732 89.292 46.6377 89.292C46.8783 89.292 47.0692 89.3718 47.2106 89.5313C47.3523 89.6897 47.4228 89.9044 47.4228 90.1753C47.4228 90.4476 47.3491 90.662 47.2016 90.8194C47.0555 90.9754 46.8504 91.0534 46.587 91.0534C46.3536 91.0534 46.1632 90.9886 46.0157 90.8592C45.8685 90.7299 45.7844 90.5508 45.7637 90.3223H46.0812C46.1016 90.4733 46.1555 90.5877 46.2425 90.6652C46.3295 90.7413 46.4443 90.7793 46.587 90.7793C46.743 90.7793 46.865 90.7262 46.9533 90.6198C47.0427 90.5134 47.0876 90.3664 47.0876 90.1791C47.0876 90.0023 47.039 89.8609 46.9425 89.7545C46.847 89.647 46.7194 89.5931 46.5597 89.5931C46.4135 89.5931 46.2987 89.6253 46.2151 89.6892L46.1263 89.7619L45.8581 89.6929ZM49.1056 88.3741V88.6588H49.044C48.7828 88.6639 48.5748 88.7411 48.4202 88.891C48.2655 89.0409 48.1759 89.2522 48.1517 89.5241C48.2907 89.3644 48.4807 89.2848 48.7212 89.2848C48.951 89.2848 49.134 89.3657 49.2706 89.5279C49.4085 89.6897 49.4772 89.8991 49.4772 90.1554C49.4772 90.4274 49.4029 90.6453 49.2541 90.8085C49.1067 90.9717 48.9085 91.0534 48.6594 91.0534C48.4069 91.0534 48.2019 90.9565 48.0448 90.7631C47.8876 90.5683 47.809 90.3181 47.809 90.0121V89.8834C47.809 89.3973 47.9125 89.0258 48.1191 88.7695C48.3271 88.5121 48.6358 88.3802 49.0456 88.3741H49.1056ZM48.665 89.5639C48.5502 89.5639 48.4443 89.5984 48.3478 89.6674C48.2509 89.7364 48.1838 89.8229 48.1464 89.927V90.0501C48.1464 90.2679 48.1952 90.4433 48.2931 90.5763C48.3913 90.7092 48.5133 90.7758 48.6594 90.7758C48.8106 90.7758 48.9292 90.7201 49.0149 90.6089C49.1019 90.4977 49.1454 90.3518 49.1454 90.1716C49.1454 89.9904 49.1014 89.8439 49.013 89.7327C48.926 89.6202 48.8101 89.5639 48.665 89.5639Z" fill="black"/>
<path d="M8.57306 52.5405V49.5221H9.55948C9.88688 49.5221 10.1328 49.5898 10.2972 49.7254C10.463 49.8607 10.5459 50.0611 10.5459 50.3264C10.5459 50.4676 10.5058 50.5926 10.4257 50.7016C10.3456 50.8096 10.2364 50.8932 10.0983 50.9526C10.2613 50.9983 10.3898 51.0853 10.4837 51.2138C10.579 51.3409 10.6267 51.4929 10.6267 51.6699C10.6267 51.9408 10.539 52.1536 10.3635 52.3084C10.1881 52.4631 9.94009 52.5405 9.61956 52.5405H8.57306ZM8.97094 51.1288V52.2149H9.62786C9.81298 52.2149 9.95874 52.1674 10.0651 52.0719C10.1729 51.9753 10.2267 51.8426 10.2267 51.6739C10.2267 51.3106 10.0292 51.1288 9.63407 51.1288H8.97094ZM8.97094 50.8096H9.57189C9.74598 50.8096 9.88481 50.7658 9.98842 50.6788C10.0934 50.5918 10.1459 50.4737 10.1459 50.3243C10.1459 50.1584 10.0976 50.0382 10.0009 49.9637C9.90415 49.8878 9.75704 49.8496 9.55948 49.8496H8.97094V50.8096ZM11.5737 52.5405H11.1904V50.2975H11.5737V52.5405ZM11.1593 49.7026C11.1593 49.6402 11.1779 49.5877 11.2152 49.5449C11.2539 49.5019 11.3105 49.4807 11.3852 49.4807C11.4597 49.4807 11.5164 49.5019 11.5551 49.5449C11.5937 49.5877 11.6131 49.6402 11.6131 49.7026C11.6131 49.7646 11.5937 49.8164 11.5551 49.8581C11.5164 49.8994 11.4597 49.9201 11.3852 49.9201C11.3105 49.9201 11.2539 49.8994 11.2152 49.8581C11.1779 49.8164 11.1593 49.7646 11.1593 49.7026ZM12.6057 52.5405H12.2223V49.3563H12.6057V52.5405ZM13.6377 52.5405H13.2544V49.3563H13.6377V52.5405ZM14.6697 52.5405H14.2863V50.2975H14.6697V52.5405ZM14.2553 49.7026C14.2553 49.6402 14.2739 49.5877 14.3112 49.5449C14.3499 49.5019 14.4065 49.4807 14.4811 49.4807C14.5557 49.4807 14.6124 49.5019 14.6511 49.5449C14.6897 49.5877 14.7091 49.6402 14.7091 49.7026C14.7091 49.7646 14.6897 49.8164 14.6511 49.8581C14.6124 49.8994 14.5557 49.9201 14.4811 49.9201C14.4065 49.9201 14.3499 49.8994 14.3112 49.8581C14.2739 49.8164 14.2553 49.7646 14.2553 49.7026ZM15.6478 50.2975L15.6603 50.5793C15.8316 50.3638 16.0554 50.2561 16.3317 50.2561C16.8056 50.2561 17.0445 50.5233 17.0487 51.0583V52.5405H16.6653V51.0561C16.6639 50.8945 16.6266 50.7749 16.5534 50.6976C16.4816 50.6202 16.369 50.5814 16.2156 50.5814C16.0913 50.5814 15.9822 50.6146 15.8882 50.6809C15.7943 50.7473 15.721 50.8343 15.6685 50.9423V52.5405H15.2852V50.2975H15.6478ZM17.5357 51.4003C17.5357 51.0506 17.6165 50.773 17.7781 50.5668C17.9398 50.3596 18.1539 50.2561 18.4205 50.2561C18.6941 50.2561 18.9075 50.3527 19.0609 50.5461L19.0795 50.2975H19.4297V52.4867C19.4297 52.777 19.3434 53.0057 19.1707 53.1729C18.9994 53.3401 18.7687 53.4236 18.4786 53.4236C18.3169 53.4236 18.1587 53.3891 18.004 53.3202C17.8493 53.2509 17.7312 53.1562 17.6497 53.036L17.8486 52.8059C18.013 53.0092 18.214 53.1105 18.4516 53.1105C18.6381 53.1105 18.7832 53.0582 18.8868 52.9532C18.9918 52.8481 19.0443 52.7003 19.0443 52.5095V52.3166C18.891 52.4936 18.6817 52.5819 18.4164 52.5819C18.1539 52.5819 17.9411 52.4763 17.7781 52.2648C17.6165 52.0533 17.5357 51.7652 17.5357 51.4003ZM17.9211 51.4438C17.9211 51.6967 17.9729 51.8957 18.0765 52.0409C18.1802 52.1847 18.3252 52.2566 18.5117 52.2566C18.7535 52.2566 18.931 52.1468 19.0443 51.927V50.9028C18.9269 50.6886 18.7507 50.5814 18.5159 50.5814C18.3294 50.5814 18.1836 50.6541 18.0786 50.7993C17.9736 50.9442 17.9211 51.1591 17.9211 51.4438ZM21.5497 52.5405H21.1518V49.5221H21.5497V52.5405ZM22.5817 50.2975L22.5941 50.5793C22.7654 50.3638 22.9892 50.2561 23.2655 50.2561C23.7394 50.2561 23.9784 50.5233 23.9826 51.0583V52.5405H23.5992V51.0561C23.5978 50.8945 23.5605 50.7749 23.4873 50.6976C23.4154 50.6202 23.3028 50.5814 23.1495 50.5814C23.0252 50.5814 22.916 50.6146 22.8221 50.6809C22.7281 50.7473 22.6549 50.8343 22.6024 50.9423V52.5405H22.219V50.2975H22.5817ZM24.7493 52.5405V50.5939H24.3949V50.2975H24.7493V50.0674C24.7493 49.8267 24.8135 49.641 24.942 49.5096C25.0705 49.3783 25.2522 49.3127 25.487 49.3127C25.5754 49.3127 25.6632 49.3244 25.7502 49.348L25.7295 49.659C25.6645 49.6466 25.5955 49.6402 25.5223 49.6402C25.3979 49.6402 25.3019 49.6768 25.2342 49.75C25.1665 49.822 25.1327 49.9257 25.1327 50.0611V50.2975H25.6114V50.5939H25.1327V52.5405H24.7493ZM25.9346 51.3982C25.9346 51.1785 25.9775 50.9808 26.0631 50.8054C26.1501 50.6297 26.2704 50.4944 26.4237 50.3991C26.5786 50.3036 26.7547 50.2561 26.952 50.2561C27.2573 50.2561 27.504 50.3617 27.6918 50.5732C27.8812 50.7847 27.9759 51.066 27.9759 51.417V51.4438C27.9759 51.6622 27.9337 51.8586 27.8494 52.0326C27.7666 52.2054 27.647 52.3402 27.491 52.4368C27.3361 52.5336 27.1579 52.5819 26.9563 52.5819C26.6523 52.5819 26.4057 52.4763 26.2165 52.2648C26.0286 52.0533 25.9346 51.7734 25.9346 51.4252V51.3982ZM26.3201 51.4438C26.3201 51.6927 26.3774 51.8923 26.4921 52.043C26.608 52.1937 26.7629 52.2691 26.9563 52.2691C27.151 52.2691 27.3059 52.1929 27.4205 52.0409C27.535 51.8875 27.5923 51.6734 27.5923 51.3982C27.5923 51.1522 27.5337 50.9532 27.4162 50.8011C27.3003 50.6478 27.1457 50.5711 26.952 50.5711C26.7629 50.5711 26.6101 50.6464 26.4941 50.7971C26.3781 50.9476 26.3201 51.1633 26.3201 51.4438ZM29.5404 50.6416C29.4823 50.6318 29.4194 50.6271 29.3518 50.6271C29.1003 50.6271 28.9297 50.7343 28.8401 50.9484V52.5405H28.4565V50.2975H28.8297L28.8358 50.5565C28.9616 50.3561 29.1398 50.2561 29.3706 50.2561C29.4451 50.2561 29.5016 50.2656 29.5404 50.285V50.6416ZM30.2552 50.2975L30.2658 50.5461C30.43 50.3527 30.6518 50.2561 30.9308 50.2561C31.2446 50.2561 31.4579 50.3763 31.5711 50.6167C31.6459 50.509 31.7425 50.4219 31.8613 50.3556C31.9815 50.2893 32.1231 50.2561 32.2862 50.2561C32.778 50.2561 33.0282 50.5164 33.0364 51.0376V52.5405H32.6531V51.0604C32.6531 50.9001 32.6165 50.7804 32.5433 50.7016C32.4698 50.6215 32.347 50.5814 32.1743 50.5814C32.0319 50.5814 31.9138 50.6244 31.8199 50.7101C31.726 50.7942 31.6714 50.9083 31.6563 51.0522V52.5405H31.2709V51.0707C31.2709 50.7446 31.1112 50.5814 30.7921 50.5814C30.5406 50.5814 30.3687 50.6886 30.2762 50.9028V52.5405H29.8926V50.2975H30.2552ZM35.0008 52.5405C34.9788 52.4962 34.9608 52.4174 34.947 52.3041C34.7687 52.4893 34.556 52.5819 34.3088 52.5819C34.0876 52.5819 33.9061 52.5198 33.7637 52.3954C33.6228 52.2696 33.5523 52.1107 33.5523 51.9185C33.5523 51.685 33.6409 51.5041 33.8175 51.3754C33.9958 51.2456 34.2459 51.1806 34.5677 51.1806H34.9409V51.0044C34.9409 50.8704 34.9008 50.764 34.8205 50.6852C34.7404 50.605 34.6223 50.565 34.4664 50.565C34.3295 50.565 34.2149 50.5995 34.1223 50.6685C34.0297 50.7377 33.9833 50.8213 33.9833 50.9195H33.5979C33.5979 50.8075 33.6372 50.6995 33.7159 50.596C33.7961 50.4909 33.904 50.4081 34.0393 50.3471C34.1762 50.2863 34.326 50.2561 34.4889 50.2561C34.7472 50.2561 34.9496 50.3208 35.0961 50.4509C35.2427 50.5793 35.3186 50.7571 35.3242 50.9837V52.0159C35.3242 52.2218 35.3504 52.3858 35.403 52.5074V52.5405H35.0008ZM34.3648 52.2481C34.4849 52.2481 34.599 52.2171 34.7067 52.155C34.8144 52.0926 34.8923 52.0119 34.9409 51.9124V51.452H34.6404C34.1706 51.452 33.9358 51.5898 33.9358 51.8647C33.9358 51.9849 33.9759 52.0788 34.056 52.1468C34.1361 52.2144 34.239 52.2481 34.3648 52.2481ZM36.4451 49.7543V50.2975H36.864V50.5939H36.4451V51.9849C36.4451 52.0748 36.464 52.1425 36.5011 52.1881C36.5385 52.2325 36.6022 52.2545 36.6918 52.2545C36.7361 52.2545 36.7969 52.2463 36.8743 52.2295V52.5405C36.7732 52.5681 36.6754 52.5819 36.5799 52.5819C36.4085 52.5819 36.2793 52.5302 36.1923 52.4264C36.1053 52.3229 36.0618 52.1757 36.0618 51.9849V50.5939H35.6536V50.2975H36.0618V49.7543H36.4451ZM37.73 52.5405H37.3467V50.2975H37.73V52.5405ZM37.3157 49.7026C37.3157 49.6402 37.3343 49.5877 37.3717 49.5449C37.4101 49.5019 37.4669 49.4807 37.5414 49.4807C37.616 49.4807 37.6727 49.5019 37.7114 49.5449C37.7502 49.5877 37.7695 49.6402 37.7695 49.7026C37.7695 49.7646 37.7502 49.8164 37.7114 49.8581C37.6727 49.8994 37.616 49.9201 37.5414 49.9201C37.4669 49.9201 37.4101 49.8994 37.3717 49.8581C37.3343 49.8164 37.3157 49.7646 37.3157 49.7026ZM38.2441 51.3982C38.2441 51.1785 38.2868 50.9808 38.3725 50.8054C38.4595 50.6297 38.5796 50.4944 38.7329 50.3991C38.8878 50.3036 39.064 50.2561 39.2616 50.2561C39.5669 50.2561 39.8133 50.3617 40.0014 50.5732C40.1905 50.7847 40.2852 51.066 40.2852 51.417V51.4438C40.2852 51.6622 40.243 51.8586 40.1587 52.0326C40.0759 52.2054 39.9563 52.3402 39.8003 52.4368C39.6457 52.5336 39.4674 52.5819 39.2656 52.5819C38.9616 52.5819 38.7152 52.4763 38.5258 52.2648C38.338 52.0533 38.2441 51.7734 38.2441 51.4252V51.3982ZM38.6295 51.4438C38.6295 51.6927 38.6868 51.8923 38.8014 52.043C38.9175 52.1937 39.0722 52.2691 39.2656 52.2691C39.4605 52.2691 39.6152 52.1929 39.7297 52.0409C39.8446 51.8875 39.9019 51.6734 39.9019 51.3982C39.9019 51.1522 39.843 50.9532 39.7258 50.8011C39.6096 50.6478 39.4549 50.5711 39.2616 50.5711C39.0722 50.5711 38.9197 50.6464 38.8035 50.7971C38.6876 50.9476 38.6295 51.1633 38.6295 51.4438ZM41.1287 50.2975L41.1412 50.5793C41.3122 50.3638 41.5361 50.2561 41.8125 50.2561C42.2862 50.2561 42.5252 50.5233 42.5295 51.0583V52.5405H42.1462V51.0561C42.1446 50.8945 42.1075 50.7749 42.0343 50.6976C41.9624 50.6202 41.8496 50.5814 41.6963 50.5814C41.5722 50.5814 41.4629 50.6146 41.369 50.6809C41.2751 50.7473 41.2019 50.8343 41.1494 50.9423V52.5405H40.7661V50.2975H41.1287Z" fill="black"/>
<path d="M73.2096 147.007H26.7905C24.3001 147.007 22.2812 149.027 22.2812 151.518V154.703C22.2812 157.194 24.3001 159.214 26.7905 159.214H73.2096C75.7 159.214 77.7189 157.194 77.7189 154.703V151.518C77.7189 149.027 75.7 147.007 73.2096 147.007Z" fill="#BB0000"/>
<path fill-rule="evenodd" clip-rule="evenodd" d="M26.7905 147.273C24.4466 147.273 22.5464 149.174 22.5464 151.518V154.703C22.5464 157.047 24.4466 158.948 26.7905 158.948H73.2096C75.5535 158.948 77.4536 157.047 77.4536 154.703V151.518C77.4536 149.174 75.5535 147.273 73.2096 147.273H26.7905ZM22.0159 151.518C22.0159 148.88 24.1536 146.742 26.7905 146.742H73.2096C75.8465 146.742 77.9841 148.88 77.9841 151.518V154.703C77.9841 157.341 75.8465 159.479 73.2096 159.479H26.7905C24.1536 159.479 22.0159 157.341 22.0159 154.703V151.518Z" fill="#666666"/>
<path d="M34.8605 153.383C34.3912 153.248 34.0493 153.083 33.8347 152.887C33.622 152.69 33.5156 152.447 33.5156 152.158C33.5156 151.831 33.6456 151.561 33.9058 151.348C34.1679 151.133 34.5079 151.026 34.926 151.026C35.2109 151.026 35.4644 151.081 35.6867 151.191C35.9109 151.302 36.0838 151.454 36.2053 151.647C36.3289 151.841 36.3904 152.053 36.3904 152.283H35.8406C35.8406 152.032 35.7607 151.835 35.6013 151.693C35.4416 151.549 35.2167 151.476 34.926 151.476C34.6562 151.476 34.4453 151.536 34.2934 151.656C34.1432 151.774 34.0684 151.938 34.0684 152.149C34.0684 152.318 34.1395 152.462 34.2819 152.58C34.4262 152.695 34.6705 152.802 35.0143 152.899C35.3599 152.996 35.6297 153.103 35.8236 153.221C36.0191 153.337 36.1636 153.473 36.2568 153.628C36.3517 153.784 36.3992 153.968 36.3992 154.179C36.3992 154.515 36.2679 154.785 36.0058 154.988C35.7438 155.19 35.3934 155.29 34.9544 155.29C34.6695 155.29 34.4034 155.236 34.1568 155.128C33.9098 155.018 33.7188 154.867 33.5838 154.677C33.4509 154.487 33.3843 154.272 33.3843 154.03H33.9345C33.9345 154.281 34.0265 154.48 34.2109 154.626C34.3968 154.771 34.6448 154.843 34.9544 154.843C35.2432 154.843 35.4644 154.784 35.6183 154.666C35.7721 154.548 35.8491 154.388 35.8491 154.184C35.8491 153.981 35.778 153.824 35.6355 153.714C35.4931 153.602 35.2347 153.492 34.8605 153.383ZM38.9236 154.928C38.7186 155.17 38.4175 155.29 38.0204 155.29C37.6918 155.29 37.4411 155.195 37.2682 155.005C37.0971 154.813 37.0109 154.53 37.0087 154.156V152.149H37.5361V154.142C37.5361 154.609 37.726 154.843 38.1058 154.843C38.5085 154.843 38.7764 154.693 38.9093 154.392V152.149H39.4366V155.233H38.935L38.9236 154.928ZM42.8501 153.725C42.8501 154.197 42.7419 154.576 42.5252 154.863C42.3087 155.148 42.018 155.29 41.6533 155.29C41.2639 155.29 40.9629 155.153 40.7501 154.877L40.7244 155.233H40.24V150.855H40.7671V152.488C40.9798 152.224 41.2735 152.092 41.6477 152.092C42.022 152.092 42.3154 152.234 42.5281 152.517C42.7427 152.8 42.8501 153.188 42.8501 153.68V153.725ZM42.3231 153.666C42.3231 153.306 42.2536 153.029 42.1148 152.833C41.9764 152.637 41.7769 152.54 41.5167 152.54C41.169 152.54 40.9191 152.701 40.7671 153.024V154.358C40.9286 154.681 41.1804 154.843 41.5223 154.843C41.7751 154.843 41.9716 154.745 42.1122 154.549C42.2528 154.353 42.3231 154.059 42.3231 153.666ZM44.0127 152.149L44.0268 152.491C44.253 152.225 44.5578 152.092 44.9416 152.092C45.3727 152.092 45.6663 152.257 45.822 152.588C45.9247 152.44 46.0575 152.32 46.2209 152.229C46.3862 152.138 46.5809 152.092 46.805 152.092C47.4814 152.092 47.8252 152.45 47.8366 153.167V155.233H47.3093V153.198C47.3093 152.978 47.2591 152.813 47.1583 152.705C47.0578 152.595 46.8886 152.54 46.6512 152.54C46.4554 152.54 46.2931 152.599 46.1639 152.716C46.0347 152.832 45.9597 152.989 45.9387 153.187V155.233H45.4087V153.212C45.4087 152.764 45.1894 152.54 44.7507 152.54C44.405 152.54 44.1684 152.687 44.0411 152.982V155.233H43.514V152.149H44.0127ZM49.2072 155.233H48.6798V152.149H49.2072V155.233ZM48.6371 151.331C48.6371 151.246 48.6629 151.173 48.714 151.115C48.7674 151.056 48.8451 151.026 48.9477 151.026C49.0504 151.026 49.1284 151.056 49.1814 151.115C49.2347 151.173 49.2613 151.246 49.2613 151.331C49.2613 151.416 49.2347 151.488 49.1814 151.545C49.1284 151.602 49.0504 151.63 48.9477 151.63C48.8451 151.63 48.7674 151.602 48.714 151.545C48.6629 151.488 48.6371 151.416 48.6371 151.331ZM50.7684 151.402V152.149H51.344V152.557H50.7684V154.469C50.7684 154.593 50.7942 154.686 50.8456 154.749C50.8968 154.81 50.9841 154.84 51.1077 154.84C51.1684 154.84 51.252 154.829 51.3583 154.806V155.233C51.2196 155.271 51.0849 155.29 50.9538 155.29C50.7183 155.29 50.5406 155.219 50.4209 155.077C50.3013 154.934 50.2414 154.732 50.2414 154.469V152.557H49.6801V152.149H50.2414V151.402H50.7684ZM56.6838 153.292C56.6838 153.699 56.6154 154.054 56.4788 154.358C56.3419 154.66 56.1483 154.891 55.8973 155.051C55.6467 155.211 55.3541 155.29 55.0199 155.29C54.6931 155.29 54.4034 155.211 54.1507 155.051C53.8981 154.889 53.7016 154.66 53.561 154.364C53.4223 154.066 53.3509 153.721 53.3472 153.329V153.03C53.3472 152.631 53.4167 152.278 53.5552 151.972C53.6939 151.666 53.8896 151.433 54.1422 151.271C54.3968 151.108 54.6875 151.026 55.014 151.026C55.3467 151.026 55.639 151.107 55.8918 151.268C56.1464 151.428 56.3419 151.661 56.4788 151.967C56.6154 152.271 56.6838 152.625 56.6838 153.03V153.292ZM56.1395 153.024C56.1395 152.532 56.0408 152.155 55.8432 151.893C55.6459 151.628 55.3695 151.496 55.014 151.496C54.6684 151.496 54.3957 151.628 54.1963 151.893C53.9989 152.155 53.8971 152.52 53.8915 152.987V153.292C53.8915 153.769 53.9912 154.144 54.1907 154.418C54.392 154.69 54.6684 154.826 55.0199 154.826C55.3732 154.826 55.6467 154.697 55.8406 154.441C56.0342 154.183 56.1339 153.813 56.1395 153.332V153.024ZM58.9122 152.622C58.8323 152.609 58.7459 152.602 58.6528 152.602C58.3072 152.602 58.0724 152.75 57.9491 153.044V155.233H57.4217V152.149H57.9347L57.9432 152.505C58.1162 152.23 58.3613 152.092 58.6785 152.092C58.7809 152.092 58.8589 152.105 58.9122 152.132V152.622ZM59.214 153.666C59.214 153.192 59.3262 152.812 59.5504 152.525C59.7745 152.236 60.0679 152.092 60.4308 152.092C60.7918 152.092 61.0777 152.216 61.2886 152.463V150.855H61.8156V155.233H61.3313L61.3056 154.903C61.0947 155.161 60.8013 155.29 60.4252 155.29C60.0679 155.29 59.7764 155.144 59.5504 154.852C59.3262 154.559 59.214 154.177 59.214 153.705V153.666ZM59.7414 153.725C59.7414 154.075 59.8135 154.349 59.9578 154.546C60.1021 154.744 60.3016 154.843 60.5562 154.843C60.8904 154.843 61.1347 154.693 61.2886 154.392V152.976C61.1308 152.685 60.8886 152.54 60.5618 152.54C60.3034 152.54 60.1021 152.639 59.9578 152.839C59.8135 153.039 59.7414 153.334 59.7414 153.725ZM63.9156 155.29C63.4976 155.29 63.1575 155.153 62.8955 154.88C62.6334 154.604 62.5024 154.237 62.5024 153.777V153.68C62.5024 153.374 62.5602 153.101 62.6761 152.862C62.7939 152.62 62.9573 152.432 63.1663 152.297C63.3772 152.161 63.605 152.092 63.8501 152.092C64.2509 152.092 64.5623 152.224 64.7846 152.488C65.0069 152.753 65.118 153.131 65.118 153.623V153.842H63.0294C63.0371 154.146 63.1255 154.392 63.2944 154.581C63.4655 154.767 63.682 154.86 63.944 154.86C64.1302 154.86 64.2881 154.822 64.4172 154.746C64.5464 154.67 64.6594 154.569 64.7562 154.444L65.0782 154.695C64.8199 155.092 64.4324 155.29 63.9156 155.29ZM63.8501 152.525C63.6374 152.525 63.4589 152.603 63.3143 152.759C63.17 152.913 63.0806 153.13 63.0467 153.409H64.591V153.369C64.5758 153.101 64.5034 152.894 64.3743 152.748C64.2451 152.599 64.0705 152.525 63.8501 152.525ZM67.2209 152.622C67.1411 152.609 67.0546 152.602 66.9615 152.602C66.6159 152.602 66.3812 152.75 66.2578 153.044V155.233H65.7308V152.149H66.2435L66.2522 152.505C66.4249 152.23 66.67 152.092 66.9873 152.092C67.0899 152.092 67.1676 152.105 67.2209 152.132V152.622Z" fill="#DCDCDC"/>
<path d="M44.1737 105.212C44.1737 105.337 44.0888 105.428 43.9674 105.428C43.8422 105.428 43.761 105.332 43.761 105.212C43.761 105.092 43.8422 104.996 43.9674 104.996C44.0888 104.996 44.1737 105.092 44.1737 105.212ZM38.4485 104.996C38.3178 104.996 38.2424 105.092 38.2424 105.212C38.2424 105.332 38.3178 105.428 38.4485 105.428C38.5684 105.428 38.6493 105.337 38.6493 105.212C38.6475 105.092 38.5684 104.996 38.4485 104.996ZM40.613 104.991C40.5135 104.991 40.4528 105.055 40.4379 105.151H40.7899C40.7732 105.046 40.7087 104.991 40.613 104.991ZM42.5987 104.996C42.4735 104.996 42.3979 105.092 42.3979 105.212C42.3979 105.332 42.4735 105.428 42.5987 105.428C42.7239 105.428 42.805 105.337 42.805 105.212C42.805 105.092 42.7239 104.996 42.5987 104.996ZM44.5493 105.477C44.5493 105.483 44.5549 105.487 44.5549 105.497C44.5549 105.503 44.5493 105.507 44.5493 105.518C44.544 105.523 44.544 105.527 44.5403 105.532C44.5347 105.538 44.531 105.542 44.5199 105.542C44.5143 105.547 44.5109 105.547 44.4997 105.547C44.4942 105.547 44.4904 105.547 44.4796 105.542C44.474 105.542 44.4703 105.536 44.4647 105.532C44.4591 105.527 44.4554 105.523 44.4554 105.518C44.4499 105.509 44.4499 105.503 44.4499 105.497C44.4499 105.488 44.4499 105.483 44.4554 105.477C44.4554 105.468 44.461 105.462 44.4647 105.457C44.4703 105.451 44.474 105.451 44.4796 105.448C44.4886 105.442 44.4942 105.442 44.4997 105.442C44.509 105.442 44.5143 105.442 44.5199 105.448C44.5292 105.453 44.5347 105.453 44.5403 105.457C44.5459 105.461 44.544 105.468 44.5493 105.477ZM44.509 105.503C44.518 105.503 44.518 105.497 44.5236 105.497C44.5292 105.492 44.5292 105.488 44.5292 105.483C44.5292 105.477 44.5292 105.474 44.5236 105.468C44.518 105.468 44.5143 105.462 44.5034 105.462H44.474V105.527H44.4886V105.501H44.4942L44.5143 105.527H44.5292L44.509 105.503ZM45.8886 99.1437V105.63C45.8886 106.119 45.4926 106.515 45.0045 106.515H36.1626C35.6745 106.515 35.2785 106.119 35.2785 105.63V99.1437C35.2785 98.6555 35.6745 98.2593 36.1626 98.2593H45.0045C45.4926 98.2593 45.8886 98.6555 45.8886 99.1437ZM36.4573 101.716C36.4573 103.126 37.6013 104.268 39.0087 104.268C39.5095 104.268 40.0016 104.117 40.4178 103.843C39.0751 102.75 39.0841 100.688 40.4178 99.5951C40.0016 99.3188 39.5095 99.1694 39.0087 99.1694C37.6013 99.1676 36.4573 100.312 36.4573 101.716ZM40.5835 103.721C41.8822 102.708 41.8766 100.732 40.5835 99.7132C39.2904 100.732 39.2849 102.709 40.5835 103.721ZM37.9623 105.127C37.9623 104.967 37.8573 104.862 37.6915 104.856C37.6069 104.856 37.5167 104.882 37.4557 104.976C37.4117 104.9 37.3361 104.856 37.231 104.856C37.161 104.856 37.091 104.882 37.0358 104.956V104.875H36.8849V105.551H37.0358C37.0358 105.203 36.9896 104.995 37.2016 104.995C37.3894 104.995 37.3525 105.182 37.3525 105.551H37.4981C37.4981 105.214 37.452 104.995 37.6639 104.995C37.8517 104.995 37.8151 105.179 37.8151 105.551H37.966V105.127H37.9623ZM38.7894 104.875H38.644V104.956C38.5942 104.895 38.5241 104.856 38.4284 104.856C38.2387 104.856 38.0931 105.007 38.0931 105.212C38.0931 105.418 38.2387 105.567 38.4284 105.567C38.5241 105.567 38.5942 105.532 38.644 105.468V105.553H38.7894V104.875ZM39.5355 105.346C39.5355 105.07 39.1135 105.195 39.1135 105.066C39.1135 104.961 39.3329 104.978 39.4544 105.046L39.5151 104.926C39.3419 104.814 38.9589 104.816 38.9589 105.077C38.9589 105.341 39.3806 105.23 39.3806 105.354C39.3806 105.47 39.1321 105.461 38.9995 105.368L38.935 105.485C39.1414 105.625 39.5355 105.595 39.5355 105.346ZM40.1875 105.518L40.1469 105.393C40.0769 105.431 39.9223 105.474 39.9223 105.317V105.011H40.1637V104.875H39.9223V104.668H39.7713V104.875H39.6313V105.009H39.7713V105.317C39.7713 105.641 40.0899 105.582 40.1875 105.518ZM40.4326 105.271H40.939C40.939 104.972 40.8026 104.854 40.6186 104.854C40.4233 104.854 40.2833 105 40.2833 105.21C40.2833 105.588 40.6997 105.651 40.9058 105.472L40.8358 105.361C40.6923 105.479 40.4748 105.468 40.4326 105.271ZM41.5212 104.875C41.4363 104.838 41.3074 104.841 41.2411 104.956V104.875H41.0902V105.551H41.2411V105.169C41.2411 104.956 41.4162 104.983 41.4769 105.015L41.5212 104.875ZM41.7164 105.212C41.7164 105.002 41.93 104.934 42.0976 105.057L42.1676 104.937C41.9541 104.77 41.5652 104.862 41.5652 105.214C41.5652 105.579 41.978 105.652 42.1676 105.49L42.0976 105.37C41.9281 105.49 41.7164 105.418 41.7164 105.212ZM42.9451 104.875H42.7939V104.956C42.6411 104.753 42.2432 104.867 42.2432 105.212C42.2432 105.566 42.656 105.667 42.7939 105.468V105.553H42.9451V104.875ZM43.5658 104.875C43.5215 104.853 43.3631 104.821 43.2859 104.956V104.875H43.1403V105.551H43.2859V105.169C43.2859 104.967 43.4517 104.98 43.5215 105.015L43.5658 104.875ZM44.3082 104.6H44.1626V104.956C44.0117 104.755 43.6119 104.862 43.6119 105.212C43.6119 105.569 44.0262 105.665 44.1626 105.468V105.553H44.3082V104.6ZM44.448 103.216V103.301H44.4629V103.216H44.4979V103.202H44.4133V103.216H44.448ZM44.5698 105.497C44.5698 105.488 44.5698 105.477 44.5642 105.468C44.5586 105.462 44.5549 105.453 44.5493 105.448C44.544 105.442 44.5347 105.438 44.5292 105.433C44.5199 105.433 44.509 105.428 44.4997 105.428C44.4942 105.428 44.4849 105.433 44.474 105.433C44.4647 105.438 44.4591 105.442 44.4536 105.448C44.4446 105.453 44.439 105.462 44.439 105.468C44.4334 105.477 44.4334 105.488 44.4334 105.497C44.4334 105.503 44.4334 105.512 44.439 105.523C44.439 105.529 44.4446 105.538 44.4536 105.544C44.4591 105.549 44.4629 105.553 44.474 105.558C44.483 105.564 44.4942 105.564 44.4997 105.564C44.509 105.564 44.5199 105.564 44.5292 105.558C44.5347 105.553 44.544 105.549 44.5493 105.544C44.5549 105.538 44.5586 105.529 44.5642 105.523C44.5698 105.512 44.5698 105.503 44.5698 105.497ZM44.6286 103.2H44.6029L44.5735 103.264L44.544 103.2H44.518V103.299H44.5329V103.224L44.5623 103.288H44.5825L44.6085 103.224V103.299H44.6286V103.2ZM44.7098 101.716C44.7098 100.312 43.5658 99.1676 42.1586 99.1676C41.6575 99.1676 41.1655 99.3188 40.7493 99.5932C42.0774 100.686 42.0976 102.754 40.7493 103.841C41.1655 104.117 41.6613 104.267 42.1586 104.267C43.5658 104.268 44.7098 103.126 44.7098 101.716Z" fill="black"/>
<path d="M28.9087 101.635C28.9087 101.952 28.7154 102.134 28.3745 102.134H27.927V101.136H28.3764C28.7154 101.136 28.9087 101.316 28.9087 101.635ZM29.7838 102.788C29.7838 102.941 29.9164 103.041 30.1244 103.041C30.3896 103.041 30.5886 102.873 30.5886 102.638V102.496L30.156 102.523C29.9109 102.54 29.7838 102.63 29.7838 102.788ZM33.9522 99.0661V105.553C33.9522 106.041 33.5562 106.437 33.0682 106.437H24.2263C23.7382 106.437 23.3422 106.041 23.3422 105.553V99.0661C23.3422 98.5778 23.7382 98.1816 24.2263 98.1816H33.0682C33.5562 98.1816 33.9522 98.5778 33.9522 99.0661ZM25.6963 101.244C25.851 101.257 26.0057 101.167 26.1034 101.053C26.1991 100.935 26.2618 100.776 26.2452 100.616C26.1089 100.621 25.9394 100.706 25.8418 100.824C25.7534 100.925 25.6779 101.089 25.6963 101.244ZM26.8125 102.617C26.8087 102.613 26.4515 102.477 26.4478 102.064C26.4441 101.72 26.7297 101.554 26.7424 101.545C26.5804 101.305 26.3299 101.279 26.2434 101.274C26.0186 101.261 25.8271 101.401 25.7202 101.401C25.6116 101.401 25.4494 101.279 25.2726 101.283C25.0423 101.287 24.8268 101.417 24.7108 101.626C24.4695 102.042 24.6482 102.658 24.8821 102.997C24.9963 103.164 25.1344 103.349 25.315 103.341C25.4863 103.334 25.5544 103.231 25.7608 103.231C25.9689 103.231 26.0278 103.341 26.2084 103.339C26.3962 103.336 26.5123 103.172 26.6284 103.004C26.7554 102.812 26.8087 102.628 26.8125 102.617ZM29.3066 101.633C29.3066 101.143 28.9658 100.808 28.4796 100.808H27.5366V103.321H27.927V102.462H28.4666C28.9605 102.462 29.3066 102.123 29.3066 101.633ZM30.9644 102.07C30.9644 101.707 30.6735 101.473 30.2276 101.473C29.8133 101.473 29.5074 101.711 29.4963 102.035H29.8483C29.8777 101.88 30.0215 101.779 30.2167 101.779C30.456 101.779 30.5886 101.889 30.5886 102.096V102.234L30.1024 102.263C29.6493 102.291 29.4042 102.477 29.4042 102.8C29.4042 103.126 29.6568 103.341 30.0196 103.341C30.2644 103.341 30.491 103.218 30.5942 103.021H30.6016V103.323H30.9626V102.07H30.9644ZM32.8469 101.497H32.4509L31.9923 102.982H31.9849L31.5262 101.497H31.1156L31.7769 103.327L31.7419 103.437C31.6827 103.625 31.5851 103.699 31.4122 103.699C31.3809 103.699 31.3217 103.695 31.2979 103.693V103.996C31.3199 104.003 31.4175 104.005 31.4472 104.005C31.8284 104.005 32.0072 103.859 32.1636 103.419L32.8469 101.497Z" fill="black"/>
<path d="M20.0652 101.913C20.0652 101.913 20.2052 102.599 20.2365 102.742H19.6213C19.6821 102.579 19.916 101.941 19.916 101.941C19.9123 101.946 19.9768 101.773 20.0136 101.666L20.0652 101.913ZM22.0159 99.1254V105.612C22.0159 106.1 21.6199 106.496 21.1317 106.496H12.29C11.8019 106.496 11.4058 106.1 11.4058 105.612V99.1254C11.4058 98.6369 11.8019 98.2407 12.29 98.2407H21.1317C21.6199 98.2407 22.0159 98.6369 22.0159 99.1254ZM14.2149 103.754L15.3791 100.894H14.5962L13.8723 102.848L13.7931 102.451L13.5352 101.136C13.4929 100.953 13.3621 100.902 13.2 100.894H12.0082L11.9953 100.951C12.2863 101.025 12.546 101.132 12.7726 101.267L13.4321 103.754H14.2149ZM15.9538 103.758L16.418 100.894H15.6775L15.2151 103.758H15.9538ZM18.5308 102.822C18.5345 102.496 18.3355 102.247 17.91 102.042C17.6503 101.912 17.4919 101.823 17.4919 101.688C17.4956 101.567 17.6264 101.442 17.9174 101.442C18.1587 101.436 18.3355 101.493 18.4682 101.55L18.5345 101.582L18.6358 100.962C18.4903 100.905 18.2582 100.841 17.9726 100.841C17.2414 100.841 16.7274 101.232 16.7238 101.788C16.7182 102.199 17.0922 102.428 17.3722 102.566C17.6577 102.706 17.7553 102.798 17.7553 102.921C17.7516 103.113 17.5232 103.202 17.3114 103.202C17.0166 103.202 16.8582 103.155 16.6169 103.048L16.5193 103.003L16.4161 103.646C16.5893 103.725 16.9098 103.795 17.2414 103.799C18.0187 103.8 18.5253 103.415 18.5308 102.822ZM21.1317 103.758L20.5349 100.894H19.962C19.7852 100.894 19.6507 100.946 19.5752 101.132L18.4755 103.758H19.2529C19.2529 103.758 19.38 103.404 19.4076 103.329H20.3581C20.3802 103.43 20.4465 103.758 20.4465 103.758H21.1317Z" fill="black"/>
<path fill-rule="evenodd" clip-rule="evenodd" d="M9.38594 3.10634L4.6969 7.79723L4.50934 7.60959L9.19838 2.9187L9.38594 3.10634Z" fill="#DCDCDC"/>
<path fill-rule="evenodd" clip-rule="evenodd" d="M9.1983 12.3006L4.50928 7.60975L4.69684 7.42212L9.38586 12.113L9.1983 12.3006Z" fill="#DCDCDC"/>
<path d="M26.982 131.818L27.9517 129.017H28.4414L27.1825 132.413H26.786L25.5295 129.017H26.0167L26.982 131.818ZM29.2992 132.413H28.8679V129.889H29.2992V132.413ZM28.8329 129.22C28.8329 129.15 28.8539 129.091 28.896 129.043C28.9395 128.994 29.0032 128.97 29.087 128.97C29.1711 128.97 29.2348 128.994 29.2783 129.043C29.3218 129.091 29.3435 129.15 29.3435 129.22C29.3435 129.29 29.3218 129.348 29.2783 129.395C29.2348 129.441 29.1711 129.465 29.087 129.465C29.0032 129.465 28.9395 129.441 28.896 129.395C28.8539 129.348 28.8329 129.29 28.8329 129.22ZM31.0385 132.459C30.6966 132.459 30.4183 132.347 30.2037 132.123C29.9894 131.898 29.882 131.597 29.882 131.221V131.142C29.882 130.891 29.9295 130.668 30.0241 130.472C30.1207 130.275 30.2544 130.121 30.4252 130.01C30.5979 129.898 30.7844 129.842 30.9846 129.842C31.3127 129.842 31.5676 129.951 31.7493 130.167C31.9313 130.383 32.0223 130.692 32.0223 131.095V131.275H30.3133C30.3196 131.523 30.3918 131.725 30.5302 131.878C30.67 132.031 30.8472 132.107 31.0618 132.107C31.2141 132.107 31.343 132.076 31.4488 132.014C31.5544 131.952 31.647 131.869 31.726 131.766L31.9897 131.972C31.7783 132.297 31.461 132.459 31.0385 132.459ZM30.9846 130.197C30.8106 130.197 30.6645 130.261 30.5464 130.388C30.4284 130.514 30.3552 130.692 30.3273 130.92H31.591V130.887C31.5785 130.668 31.5194 130.499 31.4138 130.379C31.308 130.258 31.165 130.197 30.9846 130.197ZM34.7568 131.818L35.2417 129.889H35.673L34.9387 132.413H34.5889L33.9759 130.5L33.3791 132.413H33.0295L32.2974 129.889H32.7263L33.2228 131.778L33.8104 129.889H34.1576L34.7568 131.818ZM37.1838 131.128C37.1838 130.88 37.2318 130.658 37.3284 130.461C37.4263 130.263 37.5613 130.111 37.734 130.003C37.908 129.896 38.1061 129.842 38.3284 129.842C38.6719 129.842 38.9493 129.962 39.1608 130.199C39.3735 130.437 39.4801 130.754 39.4801 131.148V131.179C39.4801 131.424 39.4326 131.645 39.3379 131.841C39.2446 132.036 39.1101 132.187 38.9345 132.296C38.7605 132.405 38.56 132.459 38.3332 132.459C37.9913 132.459 37.7138 132.34 37.5008 132.102C37.2894 131.865 37.1838 131.55 37.1838 131.158V131.128ZM37.6173 131.179C37.6173 131.459 37.682 131.683 37.8109 131.853C37.9414 132.022 38.1154 132.107 38.3332 132.107C38.5523 132.107 38.7263 132.021 38.8552 131.851C38.9844 131.678 39.0488 131.437 39.0488 131.128C39.0488 130.851 38.9828 130.627 38.8507 130.456C38.7202 130.283 38.5459 130.197 38.3284 130.197C38.1154 130.197 37.9438 130.282 37.8133 130.451C37.6825 130.621 37.6173 130.863 37.6173 131.179ZM41.5783 132.163C41.4104 132.361 41.1639 132.459 40.8393 132.459C40.5703 132.459 40.3653 132.382 40.2239 132.226C40.0838 132.069 40.0133 131.837 40.0117 131.531V129.889H40.443V131.519C40.443 131.902 40.5984 132.093 40.9093 132.093C41.2387 132.093 41.4578 131.97 41.5666 131.725V129.889H41.9979V132.413H41.5875L41.5783 132.163ZM43.8745 130.276C43.8093 130.265 43.7387 130.26 43.6623 130.26C43.3796 130.26 43.1875 130.381 43.0867 130.621V132.413H42.6554V129.889H43.0751L43.082 130.181C43.2234 129.955 43.4239 129.842 43.6836 129.842C43.7674 129.842 43.831 129.853 43.8745 129.875V130.276ZM45.9727 131.083V132.413H45.5252V129.017H46.7772C47.1486 129.017 47.4393 129.112 47.6491 129.301C47.8605 129.491 47.9661 129.742 47.9661 130.055C47.9661 130.384 47.8626 130.638 47.656 130.817C47.4509 130.995 47.1562 131.083 46.7724 131.083H45.9727ZM45.9727 130.717H46.7772C47.0165 130.717 47.1997 130.661 47.3273 130.549C47.4547 130.436 47.5186 130.273 47.5186 130.059C47.5186 129.857 47.4547 129.696 47.3273 129.574C47.1997 129.453 47.0249 129.39 46.8027 129.385H45.9727V130.717ZM49.6889 130.276C49.6236 130.265 49.5528 130.26 49.4767 130.26C49.1939 130.26 49.0019 130.381 48.9008 130.621V132.413H48.4695V129.889H48.8891L48.8963 130.181C49.0377 129.955 49.2382 129.842 49.4976 129.842C49.5817 129.842 49.6454 129.853 49.6889 129.875V130.276ZM50.5562 132.413H50.1249V129.889H50.5562V132.413ZM50.0899 129.22C50.0899 129.15 50.1109 129.091 50.1528 129.043C50.1963 128.994 50.26 128.97 50.344 128.97C50.4279 128.97 50.4918 128.994 50.5353 129.043C50.5788 129.091 50.6005 129.15 50.6005 129.22C50.6005 129.29 50.5788 129.348 50.5353 129.395C50.4918 129.441 50.4279 129.465 50.344 129.465C50.26 129.465 50.1963 129.441 50.1528 129.395C50.1109 129.348 50.0899 129.29 50.0899 129.22ZM52.0809 131.827L52.7056 129.889H53.1462L52.2417 132.413H51.913L50.9992 129.889H51.4398L52.0809 131.827ZM55.0812 132.413C55.0562 132.363 55.0361 132.274 55.0207 132.147C54.8202 132.355 54.5809 132.459 54.3027 132.459C54.0539 132.459 53.8496 132.389 53.6894 132.249C53.531 132.108 53.4517 131.929 53.4517 131.713C53.4517 131.45 53.5512 131.246 53.7501 131.102C53.9507 130.956 54.2318 130.883 54.5939 130.883H55.0135V130.684C55.0135 130.534 54.9684 130.414 54.8785 130.325C54.7883 130.235 54.6555 130.19 54.4799 130.19C54.326 130.19 54.1968 130.229 54.0928 130.306C53.9886 130.384 53.9366 130.478 53.9366 130.589H53.5029C53.5029 130.463 53.5472 130.342 53.6358 130.225C53.726 130.107 53.8472 130.014 53.9995 129.945C54.1533 129.877 54.322 129.842 54.5053 129.842C54.796 129.842 55.0236 129.916 55.1886 130.062C55.3533 130.206 55.4387 130.406 55.4448 130.661V131.822C55.4448 132.054 55.4745 132.239 55.5334 132.375V132.413H55.0812ZM54.3655 132.084C54.5008 132.084 54.6289 132.049 54.7501 131.979C54.8714 131.909 54.9592 131.818 55.0135 131.706V131.188H54.6756C54.1472 131.188 53.883 131.343 53.883 131.652C53.883 131.788 53.9281 131.893 54.018 131.969C54.1082 132.046 54.2241 132.084 54.3655 132.084ZM57.1329 132.107C57.2867 132.107 57.4212 132.061 57.5361 131.967C57.6512 131.874 57.7149 131.757 57.7273 131.617H58.1353C58.1276 131.762 58.0777 131.899 57.986 132.03C57.8944 132.161 57.7716 132.265 57.6178 132.343C57.4655 132.42 57.3037 132.459 57.1329 132.459C56.7894 132.459 56.5157 132.345 56.3122 132.116C56.1101 131.886 56.009 131.572 56.009 131.174V131.102C56.009 130.856 56.0541 130.638 56.1443 130.447C56.2345 130.255 56.3634 130.107 56.5313 130.001C56.7008 129.895 56.9005 129.842 57.1305 129.842C57.4133 129.842 57.648 129.927 57.8345 130.097C58.0226 130.266 58.1228 130.486 58.1353 130.757H57.7273C57.7149 130.594 57.6528 130.46 57.5409 130.356C57.4305 130.25 57.2936 130.197 57.1305 130.197C56.9114 130.197 56.7411 130.276 56.6199 130.435C56.5003 130.592 56.4403 130.82 56.4403 131.118V131.2C56.4403 131.491 56.5003 131.714 56.6199 131.872C56.7395 132.029 56.9106 132.107 57.1329 132.107ZM59.4454 131.781L60.0329 129.889H60.4944L59.4804 132.802C59.3234 133.222 59.074 133.432 58.7321 133.432L58.6504 133.425L58.4897 133.394V133.045L58.6061 133.054C58.7523 133.054 58.8658 133.025 58.9467 132.965C59.0289 132.906 59.0966 132.798 59.1493 132.641L59.2451 132.385L58.3451 129.889H58.8159L59.4454 131.781ZM62.5812 131.083V132.413H62.1334V129.017H63.3854C63.7568 129.017 64.0475 129.112 64.2573 129.301C64.4687 129.491 64.5743 129.742 64.5743 130.055C64.5743 130.384 64.4711 130.638 64.2642 130.817C64.0592 130.995 63.7647 131.083 63.3807 131.083H62.5812ZM62.5812 130.717H63.3854C63.6247 130.717 63.8082 130.661 63.9356 130.549C64.0631 130.436 64.1268 130.273 64.1268 130.059C64.1268 129.857 64.0631 129.696 63.9356 129.574C63.8082 129.453 63.6332 129.39 63.4112 129.385H62.5812V130.717ZM64.931 131.128C64.931 130.88 64.9793 130.658 65.0756 130.461C65.1735 130.263 65.3088 130.111 65.4812 130.003C65.6554 129.896 65.8536 129.842 66.0756 129.842C66.4191 129.842 66.6966 129.962 66.908 130.199C67.121 130.437 67.2273 130.754 67.2273 131.148V131.179C67.2273 131.424 67.1801 131.645 67.0852 131.841C66.9921 132.036 66.8576 132.187 66.682 132.296C66.5077 132.405 66.3074 132.459 66.0804 132.459C65.7385 132.459 65.461 132.34 65.248 132.102C65.0366 131.865 64.931 131.55 64.931 131.158V131.128ZM65.3647 131.179C65.3647 131.459 65.4292 131.683 65.5581 131.853C65.6886 132.022 65.8629 132.107 66.0804 132.107C66.2995 132.107 66.4735 132.021 66.6027 131.851C66.7316 131.678 66.796 131.437 66.796 131.128C66.796 130.851 66.73 130.627 66.5979 130.456C66.4674 130.283 66.2934 130.197 66.0756 130.197C65.8629 130.197 65.691 130.282 65.5605 130.451C65.43 130.621 65.3647 130.863 65.3647 131.179ZM68.2369 132.413H67.8056V128.83H68.2369V132.413ZM69.3979 132.413H68.9666V129.889H69.3979V132.413ZM68.9316 129.22C68.9316 129.15 68.9525 129.091 68.9944 129.043C69.0379 128.994 69.1019 128.97 69.1857 128.97C69.2695 128.97 69.3334 128.994 69.3769 129.043C69.4204 129.091 69.4422 129.15 69.4422 129.22C69.4422 129.29 69.4204 129.348 69.3769 129.395C69.3334 129.441 69.2695 129.465 69.1857 129.465C69.1019 129.465 69.0379 129.441 68.9944 129.395C68.9525 129.348 68.9316 129.29 68.9316 129.22ZM71.1021 132.107C71.256 132.107 71.3905 132.061 71.5053 131.967C71.6204 131.874 71.6841 131.757 71.6966 131.617H72.1045C72.0968 131.762 72.047 131.899 71.9552 132.03C71.8637 132.161 71.7409 132.265 71.587 132.343C71.4348 132.42 71.273 132.459 71.1021 132.459C70.7586 132.459 70.4852 132.345 70.2814 132.116C70.0793 131.886 69.9783 131.572 69.9783 131.174V131.102C69.9783 130.856 70.0234 130.638 70.1135 130.447C70.2037 130.255 70.3326 130.107 70.5005 130.001C70.67 129.895 70.8698 129.842 71.0997 129.842C71.3825 129.842 71.6173 129.927 71.8037 130.097C71.9918 130.266 72.0921 130.486 72.1045 130.757H71.6966C71.6841 130.594 71.622 130.46 71.5101 130.356C71.3997 130.25 71.2629 130.197 71.0997 130.197C70.8806 130.197 70.7104 130.276 70.5891 130.435C70.4695 130.592 70.4096 130.82 70.4096 131.118V131.2C70.4096 131.491 70.4695 131.714 70.5891 131.872C70.7088 132.029 70.8799 132.107 71.1021 132.107ZM73.4146 131.781L74.0021 129.889H74.4639L73.4496 132.802C73.2926 133.222 73.0433 133.432 72.7013 133.432L72.6196 133.425L72.4589 133.394V133.045L72.5753 133.054C72.7215 133.054 72.835 133.025 72.9159 132.965C72.9982 132.906 73.0658 132.798 73.1186 132.641L73.2143 132.385L72.3143 129.889H72.7852L73.4146 131.781Z" fill="black"/>
<path d="M45.1313 132.879H74.522V133.112H45.1313V132.879Z" fill="black"/>
</g>
<path fill-rule="evenodd" clip-rule="evenodd" d="M0 0H100V216H0V0ZM0.265252 0.265356V215.735H99.7347V0.265356H0.265252Z" fill="black"/>
</g>
<defs>
<clipPath id="clip0_875_4670">
<rect width="100" height="216" fill="white"/>
</clipPath>
</defs>
</svg>
