<svg width="100" height="216" viewBox="0 0 100 216" fill="none" xmlns="http://www.w3.org/2000/svg">
<g clip-path="url(#clip0_875_4194)">
<mask id="mask0_875_4194" style="mask-type:luminance" maskUnits="userSpaceOnUse" x="0" y="0" width="100" height="216">
<path d="M100 0H0V216H100V0Z" fill="white"/>
</mask>
<g mask="url(#mask0_875_4194)">
<path d="M100 0H0V216H100V0Z" fill="white"/>
<path d="M100 0H0V26.335H100V0Z" fill="#BB0000"/>
<path d="M33.6387 41.115L36.1176 47.2875L38.5968 41.115H39.8939V48.6798H38.8939V45.734L38.9875 42.5544L36.4979 48.6798H35.7323L33.248 42.5698L33.3469 45.734V48.6798H32.3469V41.115H33.6387ZM43.352 47.2718L44.6645 43.0582H45.6957L43.4301 49.5475C43.0795 50.4825 42.5221 50.9502 41.7584 50.9502L41.576 50.9347L41.2165 50.8672V50.0878L41.4771 50.1085C41.8035 50.1085 42.0571 50.0428 42.2376 49.9111C42.4216 49.7794 42.5725 49.5387 42.6907 49.1889L42.9043 48.6175L40.8939 43.0582H41.9459L43.352 47.2718ZM54.9355 46.2796C54.8416 47.0794 54.5448 47.6979 54.0448 48.1342C53.5483 48.5672 52.8869 48.7838 52.0605 48.7838C51.1645 48.7838 50.4459 48.4632 49.9043 47.8224C49.3659 47.1816 49.0968 46.3245 49.0968 45.2506V44.5234C49.0968 43.8203 49.2219 43.2021 49.472 42.6685C49.7253 42.1351 50.0829 41.7265 50.5448 41.4424C51.0067 41.1549 51.5413 41.0112 52.1491 41.0112C52.9544 41.0112 53.6003 41.2363 54.0864 41.6866C54.5725 42.1335 54.8555 42.7533 54.9355 43.5466H53.9301C53.8435 42.9441 53.6541 42.5075 53.3624 42.2373C53.0744 41.9673 52.6699 41.8321 52.1491 41.8321C51.5101 41.8321 51.0083 42.0676 50.6437 42.5387C50.2827 43.0098 50.1021 43.6798 50.1021 44.5494V45.282C50.1021 46.1027 50.2739 46.7557 50.6176 47.2406C50.9613 47.7256 51.4424 47.9679 52.0605 47.9679C52.616 47.9679 53.0413 47.8432 53.3365 47.5939C53.6352 47.3409 53.8331 46.9028 53.9301 46.2796H54.9355ZM59.6333 48.6798C59.5779 48.5688 59.5325 48.3715 59.4979 48.0874C59.0501 48.5515 58.5152 48.7838 57.8939 48.7838C57.3381 48.7838 56.8816 48.6279 56.524 48.3161C56.1699 48.0009 55.9928 47.6027 55.9928 47.1212C55.9928 46.5357 56.2149 46.0819 56.6595 45.7598C57.1072 45.4342 57.7357 45.2716 58.5448 45.2716H59.4824V44.8298C59.4824 44.4938 59.3816 44.2273 59.1803 44.0299C58.9789 43.8288 58.6819 43.7285 58.2896 43.7285C57.9459 43.7285 57.6576 43.815 57.4251 43.9881C57.1923 44.1613 57.076 44.3709 57.076 44.617H56.1072C56.1072 44.3364 56.2061 44.0661 56.4043 43.8065C56.6056 43.5431 56.8763 43.3354 57.2165 43.1829C57.5605 43.0305 57.9371 42.9544 58.3469 42.9544C58.9963 42.9544 59.5048 43.1172 59.8728 43.4426C60.2411 43.7647 60.432 44.21 60.4459 44.7779V47.3654C60.4459 47.8815 60.5117 48.2919 60.6437 48.5968V48.6798H59.6333ZM58.0344 47.9472C58.3365 47.9472 58.6229 47.8692 58.8939 47.7134C59.1645 47.5575 59.3608 47.355 59.4824 47.1055V45.9521H58.7272C57.5464 45.9521 56.9563 46.2968 56.9563 46.9861C56.9563 47.2875 57.0571 47.5229 57.2584 47.6926C57.4597 47.8623 57.7184 47.9472 58.0344 47.9472ZM64.6803 43.9206C64.5344 43.8964 64.3763 43.8844 64.2061 43.8844C63.5744 43.8844 63.1456 44.1528 62.9197 44.6896V48.6798H61.9563V43.0582H62.8939L62.9093 43.7078C63.2253 43.2055 63.6733 42.9544 64.2531 42.9544C64.4405 42.9544 64.5829 42.9786 64.6803 43.0271V43.9206ZM67.1387 41.697V43.0582H68.1907V43.8011H67.1387V47.2875C67.1387 47.5125 67.1853 47.6822 67.2792 47.7966C67.3728 47.9073 67.5325 47.9629 67.7584 47.9629C67.8693 47.9629 68.0221 47.9421 68.2165 47.9004V48.6798C67.9632 48.7489 67.7168 48.7838 67.4771 48.7838C67.0464 48.7838 66.7219 48.6537 66.5032 48.3941C66.2843 48.1342 66.1749 47.7652 66.1749 47.2875V43.8011H65.1491V43.0582H66.1749V41.697H67.1387Z" fill="black"/>
<path fill-rule="evenodd" clip-rule="evenodd" d="M12.8 106.404H28.5334V117.31H12.8V106.404ZM13.0667 106.67V117.044H28.2667V106.67H13.0667Z" fill="black"/>
<path d="M34.0696 112.172C34.0696 112.574 34.0056 112.921 33.8776 113.212C33.7496 113.502 33.5701 113.729 33.3389 113.892L34.0837 114.475L33.7085 114.821L32.8291 114.124C32.6917 114.158 32.5464 114.175 32.3939 114.175C32.0653 114.175 31.7741 114.095 31.52 113.935C31.2661 113.773 31.0685 113.544 30.9272 113.247C30.7877 112.948 30.716 112.602 30.7123 112.209V111.909C30.7123 111.509 30.7819 111.156 30.9213 110.849C31.0608 110.543 31.2573 110.308 31.5115 110.146C31.7675 109.982 32.0595 109.901 32.388 109.901C32.724 109.901 33.0192 109.982 33.2731 110.144C33.5291 110.305 33.7259 110.539 33.8632 110.843C34.0008 111.146 34.0696 111.501 34.0696 111.907V112.172ZM33.5195 111.904C33.5195 111.414 33.4211 111.037 33.2245 110.772C33.0296 110.505 32.7509 110.372 32.388 110.372C32.0424 110.372 31.7693 110.504 31.5688 110.769C31.3701 111.032 31.268 111.398 31.2621 111.866V112.172C31.2621 112.649 31.3616 113.024 31.5603 113.298C31.7608 113.572 32.0387 113.71 32.3939 113.71C32.7491 113.71 33.024 113.581 33.2187 113.324C33.4136 113.065 33.5139 112.694 33.5195 112.212V111.904ZM35.5533 110.278V111.026H36.132V111.435H35.5533V113.352C35.5533 113.476 35.5792 113.57 35.6307 113.632C35.6824 113.693 35.7701 113.724 35.8944 113.724C35.9555 113.724 36.0395 113.713 36.1464 113.69V114.118C36.0069 114.156 35.8715 114.175 35.7395 114.175C35.5027 114.175 35.3243 114.104 35.204 113.961C35.0835 113.818 35.0235 113.615 35.0235 113.352V111.435H34.4592V111.026H35.0235V110.278H35.5533ZM37.7677 113.344L38.4896 111.026H39.0568L37.8107 114.595C37.6179 115.11 37.3112 115.367 36.8912 115.367L36.7909 115.358L36.5933 115.321V114.893L36.7365 114.904C36.916 114.904 37.0555 114.868 37.1547 114.795C37.256 114.723 37.3389 114.591 37.404 114.398L37.5213 114.084L36.4157 111.026H36.9944L37.7677 113.344Z" fill="black"/>
<path d="M25.2003 113.054L23.9299 111.458L26.4703 111.458L25.2003 113.054Z" fill="black"/>
<path d="M19.155 113.852H18.6222V110.329L17.5537 110.721V110.24L19.0719 109.672H19.155V113.852Z" fill="black"/>
<path d="M44.2667 65.9705H8V94.6995H44.2667V65.9705Z" fill="#C4C4C4"/>
<path d="M53.6853 81.1429C53.6339 81.5829 53.4707 81.9231 53.1955 82.1631C52.9224 82.4012 52.5587 82.5203 52.1043 82.5203C51.6115 82.5203 51.2163 82.344 50.9181 81.9918C50.6221 81.6393 50.4741 81.1677 50.4741 80.5771V80.1771C50.4741 79.7903 50.5429 79.4503 50.6805 79.1569C50.82 78.8635 51.0165 78.6387 51.2707 78.4826C51.5245 78.3246 51.8187 78.2455 52.1528 78.2455C52.596 78.2455 52.9512 78.3692 53.2184 78.6169C53.4859 78.8627 53.6416 79.2037 53.6853 79.64H53.1325C53.0848 79.3085 52.9808 79.0683 52.8203 78.9199C52.6619 78.7712 52.4392 78.697 52.1528 78.697C51.8016 78.697 51.5256 78.8265 51.3251 79.0856C51.1264 79.3447 51.0272 79.7131 51.0272 80.1914V80.5944C51.0272 81.0458 51.1216 81.4049 51.3107 81.6715C51.4997 81.9383 51.7643 82.0716 52.1043 82.0716C52.4096 82.0716 52.6437 82.0032 52.8059 81.8659C52.9701 81.7268 53.0792 81.4858 53.1325 81.1429H53.6853ZM54.8856 79.7456C55.1205 79.458 55.4261 79.3141 55.8024 79.3141C56.4573 79.3141 56.7877 79.6828 56.7936 80.4199V82.4631H56.2635V80.4173C56.2616 80.1943 56.2101 80.0294 56.1088 79.9227C56.0096 79.8161 55.8539 79.7629 55.6419 79.7629C55.4701 79.7629 55.3192 79.8086 55.1893 79.8999C55.0595 79.9914 54.9581 80.1113 54.8856 80.26V82.4631H54.3557V78.074H54.8856V79.7456ZM59.0851 79.8456C59.0051 79.8323 58.9181 79.8256 58.8245 79.8256C58.4768 79.8256 58.2411 79.9733 58.1168 80.2686V82.4631H57.5869V79.3713H58.1027L58.1112 79.7286C58.2851 79.4522 58.5315 79.3141 58.8501 79.3141C58.9533 79.3141 59.0317 79.3274 59.0851 79.354V79.8456ZM60.1507 82.4631H59.6208V79.3713H60.1507V82.4631ZM59.5779 78.5512C59.5779 78.4655 59.6037 78.3932 59.6552 78.3341C59.7088 78.2751 59.7869 78.2455 59.8901 78.2455C59.9933 78.2455 60.0715 78.2751 60.1251 78.3341C60.1784 78.3932 60.2053 78.4655 60.2053 78.5512C60.2053 78.6369 60.1784 78.7084 60.1251 78.7656C60.0715 78.8225 59.9933 78.8513 59.8901 78.8513C59.7869 78.8513 59.7088 78.8225 59.6552 78.7656C59.6037 78.7084 59.5779 78.6369 59.5779 78.5512ZM62.9152 82.4631C62.8845 82.4022 62.8597 82.2937 62.8405 82.1373C62.5944 82.3926 62.3003 82.5203 61.9584 82.5203C61.6528 82.5203 61.4016 82.4347 61.2051 82.2631C61.0101 82.0897 60.9128 81.8707 60.9128 81.6058C60.9128 81.2839 61.0349 81.0344 61.2795 80.8572C61.5259 80.6782 61.8715 80.5886 62.3165 80.5886H62.832V80.3457C62.832 80.1608 62.7765 80.0142 62.6659 79.9057C62.5552 79.7951 62.3917 79.74 62.176 79.74C61.9869 79.74 61.8285 79.7876 61.7005 79.8828C61.5725 79.9781 61.5085 80.0933 61.5085 80.2287H60.9757C60.9757 80.0744 61.0301 79.9257 61.1389 79.7828C61.2499 79.6381 61.3987 79.5237 61.5859 79.4399C61.7749 79.3561 61.9821 79.3141 62.2075 79.3141C62.5648 79.3141 62.8445 79.4038 63.0469 79.5828C63.2493 79.7599 63.3544 80.0047 63.3619 80.3172V81.7401C63.3619 82.024 63.3981 82.2498 63.4709 82.4174V82.4631H62.9152ZM62.0357 82.0601C62.2019 82.0601 62.3595 82.0173 62.5083 81.9317C62.6573 81.846 62.7651 81.7345 62.832 81.5973V80.9628H62.4165C61.7675 80.9628 61.4427 81.1525 61.4427 81.5316C61.4427 81.6973 61.4981 81.8268 61.6088 81.9202C61.7197 82.0136 61.8619 82.0601 62.0357 82.0601ZM64.9117 78.6225V79.3713H65.4904V79.7799H64.9117V81.6973C64.9117 81.8213 64.9376 81.9146 64.9891 81.9774C65.0405 82.0383 65.1285 82.0689 65.2525 82.0689C65.3136 82.0689 65.3979 82.0575 65.5048 82.0346V82.4631C65.3653 82.5012 65.2296 82.5203 65.0979 82.5203C64.8611 82.5203 64.6827 82.4488 64.5621 82.3059C64.4419 82.1631 64.3819 81.9601 64.3819 81.6973V79.7799H63.8173V79.3713H64.3819V78.6225H64.9117ZM66.6104 79.3713L66.6248 79.7142C66.852 79.4474 67.1584 79.3141 67.5443 79.3141C67.9779 79.3141 68.2728 79.4798 68.4293 79.8113C68.5325 79.6629 68.6661 79.5426 68.8304 79.4514C68.9965 79.3599 69.1923 79.3141 69.4176 79.3141C70.0976 79.3141 70.4432 79.6732 70.4547 80.3915V82.4631H69.9248V80.4228C69.9248 80.2018 69.8741 80.0371 69.7728 79.9286C69.6717 79.8179 69.5019 79.7629 69.2629 79.7629C69.0664 79.7629 68.9029 79.8219 68.7731 79.94C68.6432 80.056 68.568 80.2132 68.5469 80.4114V82.4631H68.0141V80.4372C68.0141 79.9877 67.7936 79.7629 67.3523 79.7629C67.0048 79.7629 66.7669 79.9105 66.6389 80.2058V82.4631H66.1091V79.3713H66.6104ZM73.1704 82.4631C73.1397 82.4022 73.1149 82.2937 73.0957 82.1373C72.8496 82.3926 72.5555 82.5203 72.2136 82.5203C71.908 82.5203 71.6568 82.4347 71.4603 82.2631C71.2653 82.0897 71.168 81.8707 71.168 81.6058C71.168 81.2839 71.2901 81.0344 71.5347 80.8572C71.7811 80.6782 72.1267 80.5886 72.5717 80.5886H73.0872V80.3457C73.0872 80.1608 73.0317 80.0142 72.9211 79.9057C72.8104 79.7951 72.6469 79.74 72.4312 79.74C72.2421 79.74 72.0837 79.7876 71.9557 79.8828C71.8277 79.9781 71.7637 80.0933 71.7637 80.2287H71.2309C71.2309 80.0744 71.2853 79.9257 71.3944 79.7828C71.5051 79.6381 71.6539 79.5237 71.8411 79.4399C72.0301 79.3561 72.2373 79.3141 72.4627 79.3141C72.82 79.3141 73.0997 79.4038 73.3021 79.5828C73.5045 79.7599 73.6096 80.0047 73.6171 80.3172V81.7401C73.6171 82.024 73.6536 82.2498 73.7261 82.4174V82.4631H73.1704ZM72.2909 82.0601C72.4571 82.0601 72.6147 82.0173 72.7635 81.9317C72.9125 81.846 73.0203 81.7345 73.0872 81.5973V80.9628H72.672C72.0227 80.9628 71.6979 81.1525 71.6979 81.5316C71.6979 81.6973 71.7533 81.8268 71.864 81.9202C71.9749 82.0136 72.1171 82.0601 72.2909 82.0601ZM76.2525 81.643C76.2525 81.5002 76.1981 81.3898 76.0893 81.3116C75.9824 81.2315 75.7944 81.1629 75.5251 81.1057C75.2576 81.0488 75.0448 80.9801 74.8861 80.9001C74.7296 80.82 74.6131 80.7248 74.5368 80.6144C74.4621 80.5037 74.4251 80.3723 74.4251 80.2199C74.4251 79.9666 74.532 79.7522 74.7459 79.5769C74.9616 79.4019 75.2365 79.3141 75.5709 79.3141C75.9221 79.3141 76.2067 79.4046 76.4245 79.5857C76.644 79.7666 76.7539 79.998 76.7539 80.28H76.2211C76.2211 80.1353 76.1589 80.0105 76.0349 79.9057C75.9128 79.8009 75.7579 79.7485 75.5709 79.7485C75.3779 79.7485 75.2272 79.7903 75.1181 79.8743C75.0093 79.9581 74.9549 80.0675 74.9549 80.2028C74.9549 80.3305 75.0056 80.4266 75.1067 80.4915C75.208 80.5561 75.3904 80.6181 75.6539 80.6772C75.9195 80.7362 76.1341 80.8067 76.2984 80.8886C76.4627 80.9706 76.584 81.0695 76.6621 81.1858C76.7424 81.3001 76.7827 81.4401 76.7827 81.6058C76.7827 81.8822 76.6717 82.104 76.4501 82.2716C76.2288 82.4373 75.9413 82.5203 75.588 82.5203C75.3397 82.5203 75.1203 82.4764 74.9291 82.3889C74.7381 82.3011 74.5883 82.1793 74.4795 82.0232C74.3725 81.8649 74.3189 81.6944 74.3189 81.5116H74.8491C74.8584 81.6888 74.9291 81.8298 75.0611 81.9346C75.1947 82.0373 75.3704 82.0889 75.588 82.0889C75.7885 82.0889 75.9491 82.0487 76.0693 81.9689C76.1915 81.887 76.2525 81.7782 76.2525 81.643ZM79.0112 82.4631V78.3025H80.3747C80.8275 78.3025 81.1672 78.3958 81.3944 78.5826C81.6237 78.7693 81.7384 79.0454 81.7384 79.4112C81.7384 79.6057 81.6829 79.778 81.5723 79.9286C81.4613 80.077 81.3104 80.1925 81.1195 80.2741C81.3448 80.3372 81.5224 80.4572 81.6523 80.6343C81.784 80.8096 81.8501 81.0192 81.8501 81.2629C81.8501 81.6364 81.7288 81.9298 81.4861 82.1431C81.2437 82.3565 80.9008 82.4631 80.4579 82.4631H79.0112ZM79.5611 80.5173V82.0144H80.4693C80.7251 82.0144 80.9267 81.9487 81.0736 81.8173C81.2227 81.684 81.2971 81.501 81.2971 81.2688C81.2971 80.7676 81.024 80.5173 80.4779 80.5173H79.5611ZM79.5611 80.077H80.392C80.6325 80.077 80.8245 80.0172 80.9677 79.8972C81.1128 79.777 81.1853 79.6142 81.1853 79.4085C81.1853 79.1798 81.1187 79.0141 80.9848 78.9111C80.8512 78.8066 80.6477 78.7542 80.3747 78.7542H79.5611V80.077ZM84.4968 82.1575C84.2907 82.3993 83.988 82.5203 83.5888 82.5203C83.2584 82.5203 83.0064 82.4251 82.8325 82.2346C82.6608 82.042 82.5739 81.7582 82.572 81.3829V79.3713H83.1019V81.3688C83.1019 81.8372 83.2928 82.0716 83.6747 82.0716C84.0797 82.0716 84.3488 81.9213 84.4827 81.6202V79.3713H85.0125V82.4631H84.5083L84.4968 82.1575ZM86.3216 79.3713L86.3389 79.7599C86.5757 79.4628 86.8851 79.3141 87.2669 79.3141C87.9219 79.3141 88.2523 79.6828 88.2581 80.4199V82.4631H87.728V80.4173C87.7261 80.1943 87.6747 80.0294 87.5733 79.9227C87.4741 79.8161 87.3184 79.7629 87.1064 79.7629C86.9347 79.7629 86.7837 79.8086 86.6539 79.8999C86.524 79.9914 86.4229 80.1113 86.3501 80.26V82.4631H85.8203V79.3713H86.3216ZM88.9283 80.8916C88.9283 80.4173 89.0411 80.0361 89.2664 79.7485C89.4917 79.4588 89.7869 79.3141 90.1515 79.3141C90.5144 79.3141 90.8019 79.4381 91.0139 79.6857V78.074H91.5437V82.4631H91.0568L91.0309 82.1317C90.8189 82.3908 90.524 82.5203 90.1459 82.5203C89.7869 82.5203 89.4936 82.3735 89.2664 82.0804C89.0411 81.7869 88.9283 81.4039 88.9283 80.9315V80.8916ZM89.4584 80.9514C89.4584 81.302 89.5309 81.5763 89.676 81.7744C89.8211 81.9726 90.0216 82.0716 90.2776 82.0716C90.6136 82.0716 90.8592 81.9213 91.0139 81.6202V80.1999C90.8552 79.9084 90.6117 79.7629 90.2832 79.7629C90.0237 79.7629 89.8211 79.8629 89.676 80.0629C89.5309 80.263 89.4584 80.559 89.4584 80.9514ZM92.9445 82.4631H92.4147V78.074H92.9445V82.4631ZM95.0816 82.5203C94.6613 82.5203 94.3195 82.3831 94.056 82.1088C93.7925 81.8327 93.6608 81.464 93.6608 81.003V80.9059C93.6608 80.5992 93.7189 80.3258 93.8355 80.0855C93.9539 79.8437 94.1181 79.6551 94.328 79.52C94.54 79.3827 94.7693 79.3141 95.0157 79.3141C95.4187 79.3141 95.7317 79.4466 95.9552 79.7113C96.1787 79.9762 96.2904 80.3553 96.2904 80.8487V81.0687H94.1907C94.1981 81.3736 94.2869 81.6202 94.4571 81.8088C94.6288 81.9955 94.8467 82.0889 95.1101 82.0889C95.2973 82.0889 95.4557 82.0508 95.5856 81.9745C95.7155 81.8984 95.8291 81.7973 95.9267 81.6715L96.2501 81.9231C95.9907 82.3211 95.6011 82.5203 95.0816 82.5203ZM95.0157 79.7485C94.8019 79.7485 94.6221 79.8267 94.4771 79.9829C94.332 80.1371 94.2421 80.3542 94.2077 80.6343H95.7605V80.5944C95.7451 80.3257 95.6725 80.118 95.5427 79.9714C95.4128 79.8227 95.2371 79.7485 95.0157 79.7485Z" fill="black"/>
<path d="M65.3973 109.283V110.155H64.9677V109.283H65.3973ZM65.3459 113.95V114.712H64.9189V113.95H65.3459ZM65.9187 113.047C65.9187 112.932 65.8931 112.829 65.8413 112.738C65.7899 112.647 65.7048 112.563 65.5864 112.486C65.468 112.41 65.3096 112.34 65.1109 112.275C64.8704 112.201 64.6621 112.11 64.4864 112.004C64.3128 111.897 64.1781 111.765 64.0827 111.607C63.9891 111.448 63.9421 111.257 63.9421 111.032C63.9421 110.798 63.9928 110.596 64.0941 110.426C64.1952 110.257 64.3384 110.126 64.5237 110.035C64.7091 109.943 64.9267 109.898 65.1768 109.898C65.3717 109.898 65.5453 109.927 65.6981 109.986C65.8509 110.043 65.9797 110.129 66.0848 110.243C66.1917 110.358 66.2731 110.498 66.3283 110.664C66.3856 110.829 66.4144 111.021 66.4144 111.238H65.8872C65.8872 111.11 65.872 110.993 65.8413 110.886C65.8109 110.78 65.7651 110.687 65.704 110.609C65.6427 110.529 65.5683 110.468 65.4805 110.426C65.3925 110.382 65.2915 110.361 65.1768 110.361C65.0165 110.361 64.8837 110.388 64.7787 110.444C64.6755 110.499 64.5992 110.577 64.5496 110.678C64.4997 110.777 64.4749 110.892 64.4749 111.023C64.4749 111.146 64.4997 111.252 64.5496 111.343C64.5992 111.435 64.6832 111.518 64.8016 111.592C64.9219 111.665 65.0869 111.736 65.2971 111.807C65.5435 111.885 65.7525 111.977 65.9245 112.084C66.0963 112.188 66.2272 112.318 66.3168 112.472C66.4067 112.625 66.4515 112.814 66.4515 113.041C66.4515 113.287 66.3963 113.494 66.2853 113.664C66.1747 113.831 66.0189 113.959 65.8184 114.047C65.6179 114.134 65.3832 114.178 65.1139 114.178C64.9515 114.178 64.7909 114.156 64.6325 114.113C64.4741 114.069 64.3309 113.997 64.2029 113.898C64.0749 113.797 63.9728 113.665 63.8963 113.501C63.82 113.335 63.7819 113.132 63.7819 112.892H64.3147C64.3147 113.054 64.3376 113.188 64.3835 113.295C64.4312 113.4 64.4941 113.484 64.5723 113.547C64.6507 113.608 64.7365 113.651 64.8301 113.678C64.9256 113.703 65.0203 113.715 65.1139 113.715C65.2856 113.715 65.4309 113.689 65.5493 113.635C65.6696 113.58 65.7611 113.502 65.8243 113.401C65.8872 113.3 65.9187 113.182 65.9187 113.047ZM68.8549 109.935V114.118H68.3251V110.595L67.2565 110.984V110.506L68.772 109.935H68.8549ZM72.1549 109.935V114.118H71.6251V110.595L70.5565 110.984V110.506L72.072 109.935H72.1549ZM74.2403 113.675H74.2947C74.6003 113.675 74.8485 113.632 75.0395 113.547C75.2307 113.461 75.3776 113.346 75.4808 113.201C75.5837 113.056 75.6544 112.893 75.6928 112.712C75.7309 112.529 75.7499 112.342 75.7499 112.149V111.512C75.7499 111.323 75.728 111.156 75.684 111.009C75.6421 110.863 75.5829 110.74 75.5064 110.641C75.432 110.541 75.3469 110.466 75.2515 110.415C75.156 110.363 75.0549 110.338 74.948 110.338C74.8256 110.338 74.716 110.362 74.6184 110.412C74.5229 110.459 74.4419 110.527 74.3749 110.615C74.3101 110.703 74.2605 110.805 74.2261 110.923C74.1917 111.042 74.1744 111.17 74.1744 111.309C74.1744 111.433 74.1899 111.553 74.2203 111.669C74.2509 111.786 74.2976 111.89 74.3608 111.984C74.4237 112.077 74.5019 112.151 74.5955 112.206C74.6909 112.26 74.8027 112.286 74.9307 112.286C75.0491 112.286 75.16 112.264 75.2629 112.218C75.368 112.17 75.4608 112.107 75.5408 112.027C75.6229 111.945 75.688 111.852 75.7357 111.749C75.7853 111.646 75.8139 111.539 75.8216 111.426H76.0736C76.0736 111.584 76.0421 111.741 75.9792 111.895C75.9181 112.047 75.832 112.186 75.7213 112.312C75.6107 112.438 75.4808 112.539 75.3317 112.615C75.1829 112.689 75.0205 112.727 74.8448 112.727C74.6387 112.727 74.46 112.687 74.3091 112.606C74.1581 112.527 74.0341 112.42 73.9368 112.286C73.8413 112.153 73.7696 112.004 73.7219 111.841C73.676 111.675 73.6531 111.507 73.6531 111.338C73.6531 111.14 73.6808 110.954 73.7363 110.781C73.7915 110.607 73.8736 110.455 73.9827 110.323C74.0915 110.19 74.2261 110.086 74.3864 110.012C74.5488 109.938 74.736 109.901 74.948 109.901C75.1867 109.901 75.3901 109.948 75.5581 110.043C75.7261 110.139 75.8627 110.266 75.9677 110.426C76.0747 110.586 76.1531 110.766 76.2027 110.966C76.2523 111.166 76.2771 111.372 76.2771 111.584V111.775C76.2771 111.99 76.2627 112.209 76.2341 112.432C76.2075 112.653 76.1549 112.865 76.0765 113.067C76.0003 113.269 75.8885 113.449 75.7413 113.61C75.5944 113.768 75.4024 113.893 75.1656 113.987C74.9307 114.078 74.6405 114.124 74.2947 114.124H74.2403V113.675ZM77.0792 113.838C77.0792 113.749 77.1069 113.673 77.1621 113.613C77.2195 113.549 77.3016 113.518 77.4085 113.518C77.5155 113.518 77.5968 113.549 77.652 113.613C77.7093 113.673 77.7381 113.749 77.7381 113.838C77.7381 113.926 77.7093 114 77.652 114.061C77.5968 114.122 77.5155 114.153 77.4085 114.153C77.3016 114.153 77.2195 114.122 77.1621 114.061C77.1069 114 77.0792 113.926 77.0792 113.838ZM79.0872 113.675H79.1416C79.4472 113.675 79.6955 113.632 79.8864 113.547C80.0773 113.461 80.2245 113.346 80.3277 113.201C80.4307 113.056 80.5013 112.893 80.5395 112.712C80.5779 112.529 80.5968 112.342 80.5968 112.149V111.512C80.5968 111.323 80.5749 111.156 80.5309 111.009C80.4891 110.863 80.4299 110.74 80.3533 110.641C80.2789 110.541 80.1939 110.466 80.0984 110.415C80.0029 110.363 79.9019 110.338 79.7947 110.338C79.6725 110.338 79.5627 110.362 79.4653 110.412C79.3699 110.459 79.2888 110.527 79.2219 110.615C79.1571 110.703 79.1072 110.805 79.0728 110.923C79.0387 111.042 79.0213 111.17 79.0213 111.309C79.0213 111.433 79.0365 111.553 79.0672 111.669C79.0979 111.786 79.1445 111.89 79.2075 111.984C79.2707 112.077 79.3488 112.151 79.4424 112.206C79.5379 112.26 79.6496 112.286 79.7776 112.286C79.896 112.286 80.0067 112.264 80.1099 112.218C80.2149 112.17 80.3075 112.107 80.3877 112.027C80.4699 111.945 80.5349 111.852 80.5827 111.749C80.6323 111.646 80.6608 111.539 80.6685 111.426H80.9205C80.9205 111.584 80.8891 111.741 80.8261 111.895C80.7648 112.047 80.6789 112.186 80.5683 112.312C80.4573 112.438 80.3277 112.539 80.1787 112.615C80.0296 112.689 79.8675 112.727 79.6917 112.727C79.4853 112.727 79.3069 112.687 79.156 112.606C79.0051 112.527 78.8811 112.42 78.7835 112.286C78.688 112.153 78.6165 112.004 78.5688 111.841C78.5229 111.675 78.5 111.507 78.5 111.338C78.5 111.14 78.5277 110.954 78.5832 110.781C78.6384 110.607 78.7205 110.455 78.8293 110.323C78.9384 110.19 79.0728 110.086 79.2333 110.012C79.3957 109.938 79.5829 109.901 79.7947 109.901C80.0336 109.901 80.2368 109.948 80.4051 110.043C80.5731 110.139 80.7096 110.266 80.8147 110.426C80.9216 110.586 80.9997 110.766 81.0496 110.966C81.0992 111.166 81.124 111.372 81.124 111.584V111.775C81.124 111.99 81.1096 112.209 81.0811 112.432C81.0541 112.653 81.0019 112.865 80.9235 113.067C80.8469 113.269 80.7352 113.449 80.5883 113.61C80.4413 113.768 80.2493 113.893 80.0125 113.987C79.7776 114.078 79.4872 114.124 79.1416 114.124H79.0872V113.675ZM82.3872 113.675H82.4416C82.7472 113.675 82.9955 113.632 83.1864 113.547C83.3773 113.461 83.5245 113.346 83.6277 113.201C83.7307 113.056 83.8013 112.893 83.8395 112.712C83.8779 112.529 83.8968 112.342 83.8968 112.149V111.512C83.8968 111.323 83.8749 111.156 83.8309 111.009C83.7891 110.863 83.7299 110.74 83.6533 110.641C83.5789 110.541 83.4939 110.466 83.3984 110.415C83.3029 110.363 83.2019 110.338 83.0947 110.338C82.9725 110.338 82.8627 110.362 82.7653 110.412C82.6699 110.459 82.5888 110.527 82.5219 110.615C82.4571 110.703 82.4072 110.805 82.3728 110.923C82.3387 111.042 82.3213 111.17 82.3213 111.309C82.3213 111.433 82.3365 111.553 82.3672 111.669C82.3979 111.786 82.4445 111.89 82.5075 111.984C82.5707 112.077 82.6488 112.151 82.7424 112.206C82.8379 112.26 82.9496 112.286 83.0776 112.286C83.196 112.286 83.3067 112.264 83.4099 112.218C83.5149 112.17 83.6075 112.107 83.6877 112.027C83.7699 111.945 83.8349 111.852 83.8827 111.749C83.9323 111.646 83.9608 111.539 83.9685 111.426H84.2205C84.2205 111.584 84.1891 111.741 84.1261 111.895C84.0648 112.047 83.9789 112.186 83.8683 112.312C83.7573 112.438 83.6277 112.539 83.4787 112.615C83.3296 112.689 83.1675 112.727 82.9917 112.727C82.7853 112.727 82.6069 112.687 82.456 112.606C82.3051 112.527 82.1811 112.42 82.0835 112.286C81.988 112.153 81.9165 112.004 81.8688 111.841C81.8229 111.675 81.8 111.507 81.8 111.338C81.8 111.14 81.8277 110.954 81.8832 110.781C81.9384 110.607 82.0205 110.455 82.1293 110.323C82.2384 110.19 82.3728 110.086 82.5333 110.012C82.6957 109.938 82.8829 109.901 83.0947 109.901C83.3336 109.901 83.5368 109.948 83.7051 110.043C83.8731 110.139 84.0096 110.266 84.1147 110.426C84.2216 110.586 84.2997 110.766 84.3496 110.966C84.3992 111.166 84.424 111.372 84.424 111.584V111.775C84.424 111.99 84.4096 112.209 84.3811 112.432C84.3541 112.653 84.3019 112.865 84.2235 113.067C84.1469 113.269 84.0352 113.449 83.8883 113.61C83.7413 113.768 83.5493 113.893 83.3125 113.987C83.0776 114.078 82.7872 114.124 82.4416 114.124H82.3872V113.675Z" fill="black"/>
<path d="M74.1334 134.069H27.4667C24.6684 134.069 22.4 136.332 22.4 139.123V142.315C22.4 145.107 24.6684 147.369 27.4667 147.369H74.1334C76.9316 147.369 79.2 145.107 79.2 142.315V139.123C79.2 136.332 76.9316 134.069 74.1334 134.069Z" fill="#666666"/>
<path fill-rule="evenodd" clip-rule="evenodd" d="M27.4666 134.335C24.8157 134.335 22.6666 136.479 22.6666 139.123V142.315C22.6666 144.96 24.8157 147.103 27.4666 147.103H74.1333C76.7843 147.103 78.9333 144.96 78.9333 142.315V139.123C78.9333 136.479 76.7843 134.335 74.1333 134.335H27.4666ZM22.1333 139.123C22.1333 136.185 24.5211 133.803 27.4666 133.803H74.1333C77.0788 133.803 79.4666 136.185 79.4666 139.123V142.315C79.4666 145.254 77.0788 147.635 74.1333 147.635H27.4666C24.5211 147.635 22.1333 145.254 22.1333 142.315V139.123Z" fill="#BB0000"/>
<path d="M29.952 141.527C29.9006 141.967 29.7374 142.307 29.4622 142.547C29.1891 142.785 28.8254 142.904 28.371 142.904C27.8782 142.904 27.483 142.728 27.1848 142.376C26.8888 142.023 26.7408 141.552 26.7408 140.961V140.561C26.7408 140.174 26.8096 139.834 26.9472 139.541C27.0867 139.248 27.2832 139.023 27.5374 138.867C27.7912 138.709 28.0854 138.63 28.4195 138.63C28.8627 138.63 29.2179 138.753 29.4851 139.001C29.7526 139.247 29.9083 139.588 29.952 140.024H29.3992C29.3515 139.693 29.2475 139.452 29.087 139.304C28.9286 139.155 28.7059 139.081 28.4195 139.081C28.0683 139.081 27.7923 139.211 27.5918 139.47C27.3931 139.729 27.2939 140.097 27.2939 140.575V140.978C27.2939 141.43 27.3883 141.789 27.5774 142.056C27.7664 142.322 28.031 142.456 28.371 142.456C28.6763 142.456 28.9104 142.387 29.0726 142.25C29.2368 142.111 29.3459 141.87 29.3992 141.527H29.952ZM30.4822 141.273C30.4822 140.97 30.5414 140.697 30.6598 140.455C30.78 140.213 30.9462 140.027 31.1582 139.895C31.372 139.764 31.6155 139.698 31.8886 139.698C32.3107 139.698 32.6515 139.844 32.9112 140.135C33.1728 140.427 33.3038 140.815 33.3038 141.298V141.335C33.3038 141.637 33.2454 141.907 33.1288 142.147C33.0144 142.385 32.8491 142.571 32.6334 142.704C32.4195 142.838 32.1731 142.904 31.8944 142.904C31.4742 142.904 31.1334 142.759 30.8718 142.467C30.612 142.176 30.4822 141.79 30.4822 141.31V141.273ZM31.015 141.335C31.015 141.678 31.0942 141.954 31.2526 142.161C31.4131 142.369 31.627 142.473 31.8944 142.473C32.1635 142.473 32.3774 142.368 32.536 142.158C32.6944 141.947 32.7736 141.652 32.7736 141.273C32.7736 140.933 32.6926 140.659 32.5302 140.45C32.3699 140.238 32.156 140.133 31.8886 140.133C31.627 140.133 31.416 140.236 31.2555 140.444C31.095 140.652 31.015 140.949 31.015 141.335ZM34.4696 139.755L34.4867 140.144C34.7235 139.847 35.0328 139.698 35.415 139.698C36.0699 139.698 36.4003 140.067 36.4059 140.804V142.847H35.876V140.801C35.8742 140.578 35.8227 140.413 35.7214 140.307C35.6222 140.2 35.4664 140.147 35.2544 140.147C35.0827 140.147 34.9318 140.193 34.8019 140.284C34.672 140.375 34.5707 140.495 34.4982 140.644V142.847H33.9683V139.755H34.4696ZM37.9243 139.007V139.755H38.503V140.164H37.9243V142.081C37.9243 142.205 37.9499 142.299 38.0016 142.361C38.0531 142.422 38.1411 142.453 38.2651 142.453C38.3262 142.453 38.4102 142.441 38.5171 142.419V142.847C38.3779 142.885 38.2422 142.904 38.1104 142.904C37.8736 142.904 37.695 142.833 37.5747 142.69C37.4544 142.547 37.3944 142.344 37.3944 142.081V140.164H36.8299V139.755H37.3944V139.007H37.9243ZM39.7003 142.847H39.1704V139.755H39.7003V142.847ZM39.1275 138.935C39.1275 138.85 39.1531 138.777 39.2048 138.718C39.2582 138.659 39.3366 138.63 39.4395 138.63C39.5427 138.63 39.6211 138.659 39.6744 138.718C39.728 138.777 39.7547 138.85 39.7547 138.935C39.7547 139.021 39.728 139.092 39.6744 139.15C39.6211 139.207 39.5427 139.235 39.4395 139.235C39.3366 139.235 39.2582 139.207 39.2048 139.15C39.1531 139.092 39.1275 139.021 39.1275 138.935ZM41.0523 139.755L41.0696 140.144C41.3064 139.847 41.6158 139.698 41.9976 139.698C42.6528 139.698 42.9832 140.067 42.9888 140.804V142.847H42.459V140.801C42.4571 140.578 42.4054 140.413 42.3043 140.307C42.2048 140.2 42.0494 140.147 41.8374 140.147C41.6654 140.147 41.5144 140.193 41.3846 140.284C41.2547 140.375 41.1536 140.495 41.0811 140.644V142.847H40.551V139.755H41.0523ZM45.7016 142.542C45.4952 142.783 45.1926 142.904 44.7936 142.904C44.4632 142.904 44.211 142.809 44.0374 142.619C43.8654 142.426 43.7784 142.142 43.7766 141.767V139.755H44.3064V141.753C44.3064 142.221 44.4976 142.456 44.8795 142.456C45.2843 142.456 45.5536 142.305 45.6872 142.004V139.755H46.2171V142.847H45.7131L45.7016 142.542ZM48.3112 142.904C47.891 142.904 47.5494 142.767 47.2856 142.493C47.0222 142.217 46.8904 141.848 46.8904 141.387V141.29C46.8904 140.983 46.9486 140.71 47.0651 140.47C47.1835 140.228 47.3478 140.039 47.5579 139.904C47.7699 139.767 47.999 139.698 48.2454 139.698C48.6483 139.698 48.9614 139.831 49.1848 140.095C49.4083 140.36 49.52 140.739 49.52 141.233V141.453H47.4203C47.428 141.758 47.5168 142.004 47.6867 142.193C47.8587 142.38 48.0763 142.473 48.3398 142.473C48.527 142.473 48.6856 142.435 48.8155 142.359C48.9454 142.282 49.059 142.181 49.1563 142.056L49.48 142.307C49.2203 142.705 48.8307 142.904 48.3112 142.904ZM48.2454 140.133C48.0315 140.133 47.852 140.211 47.7067 140.367C47.5616 140.521 47.472 140.738 47.4376 141.018H48.9902V140.978C48.975 140.71 48.9022 140.502 48.7723 140.355C48.6427 140.207 48.467 140.133 48.2454 140.133ZM52.9032 140.993C52.4315 140.857 52.0878 140.692 51.872 140.495C51.6579 140.297 51.551 140.054 51.551 139.764C51.551 139.436 51.6819 139.166 51.9435 138.952C52.207 138.737 52.5488 138.63 52.9691 138.63C53.2555 138.63 53.5104 138.685 53.7339 138.795C53.9592 138.906 54.1331 139.058 54.2552 139.252C54.3795 139.447 54.4414 139.659 54.4414 139.89H53.8886C53.8886 139.638 53.8083 139.441 53.648 139.298C53.4875 139.153 53.2611 139.081 52.9691 139.081C52.6979 139.081 52.4859 139.141 52.3331 139.261C52.1822 139.379 52.1067 139.544 52.1067 139.755C52.1067 139.925 52.1784 140.069 52.3216 140.187C52.4667 140.303 52.7123 140.41 53.0579 140.507C53.4054 140.604 53.6766 140.712 53.8715 140.83C54.068 140.946 54.2131 141.082 54.3067 141.238C54.4022 141.394 54.4502 141.578 54.4502 141.79C54.4502 142.127 54.3182 142.398 54.0547 142.601C53.7912 142.803 53.439 142.904 52.9976 142.904C52.7112 142.904 52.4438 142.85 52.1955 142.742C51.9472 142.631 51.7555 142.48 51.6198 142.29C51.4862 142.099 51.4192 141.883 51.4192 141.641H51.9723C51.9723 141.893 52.0648 142.092 52.2502 142.239C52.4371 142.383 52.6864 142.456 52.9976 142.456C53.288 142.456 53.5104 142.397 53.6651 142.278C53.8198 142.16 53.8971 141.999 53.8971 141.796C53.8971 141.592 53.8256 141.435 53.6824 141.324C53.539 141.212 53.2795 141.101 52.9032 140.993ZM55.6046 140.13C55.8392 139.842 56.1448 139.698 56.5211 139.698C57.176 139.698 57.5064 140.067 57.5123 140.804V142.847H56.9824V140.801C56.9803 140.578 56.9288 140.413 56.8278 140.307C56.7283 140.2 56.5726 140.147 56.3608 140.147C56.1888 140.147 56.0379 140.193 55.908 140.284C55.7782 140.375 55.6771 140.495 55.6046 140.644V142.847H55.0744V138.458H55.6046V140.13ZM58.1654 141.273C58.1654 140.97 58.2246 140.697 58.343 140.455C58.4632 140.213 58.6294 140.027 58.8414 139.895C59.0552 139.764 59.2987 139.698 59.572 139.698C59.9939 139.698 60.335 139.844 60.5944 140.135C60.8563 140.427 60.987 140.815 60.987 141.298V141.335C60.987 141.637 60.9288 141.907 60.8123 142.147C60.6976 142.385 60.5326 142.571 60.3168 142.704C60.1027 142.838 59.8566 142.904 59.5776 142.904C59.1574 142.904 58.8166 142.759 58.555 142.467C58.2952 142.176 58.1654 141.79 58.1654 141.31V141.273ZM58.6982 141.335C58.6982 141.678 58.7774 141.954 58.936 142.161C59.0963 142.369 59.3102 142.473 59.5776 142.473C59.847 142.473 60.0608 142.368 60.2192 142.158C60.3779 141.947 60.4571 141.652 60.4571 141.273C60.4571 140.933 60.376 140.659 60.2136 140.45C60.0531 140.238 59.8392 140.133 59.572 140.133C59.3102 140.133 59.0992 140.236 58.939 140.444C58.7784 140.652 58.6982 140.949 58.6982 141.335ZM64.2699 141.335C64.2699 141.806 64.1619 142.185 63.9462 142.473C63.7304 142.76 63.4382 142.904 63.0696 142.904C62.6934 142.904 62.3974 142.785 62.1816 142.547V144.036H61.6515V139.755H62.1358L62.1614 140.098C62.3774 139.831 62.6771 139.698 63.0611 139.698C63.4334 139.698 63.7275 139.838 63.9432 140.118C64.1611 140.398 64.2699 140.788 64.2699 141.287V141.335ZM63.7398 141.276C63.7398 140.927 63.6654 140.652 63.5166 140.45C63.3675 140.248 63.1632 140.147 62.9035 140.147C62.5827 140.147 62.3419 140.289 62.1816 140.573V142.05C62.34 142.332 62.5827 142.473 62.9091 142.473C63.1632 142.473 63.3646 142.373 63.5136 142.173C63.6646 141.971 63.7398 141.672 63.7398 141.276ZM67.564 141.335C67.564 141.806 67.4563 142.185 67.2403 142.473C67.0246 142.76 66.7323 142.904 66.3638 142.904C65.9875 142.904 65.6915 142.785 65.4758 142.547V144.036H64.9459V139.755H65.4299L65.4558 140.098C65.6715 139.831 65.9715 139.698 66.3552 139.698C66.7278 139.698 67.0216 139.838 67.2376 140.118C67.4552 140.398 67.564 140.788 67.564 141.287V141.335ZM67.0342 141.276C67.0342 140.927 66.9598 140.652 66.8107 140.45C66.6616 140.248 66.4574 140.147 66.1976 140.147C65.8768 140.147 65.6363 140.289 65.4758 140.573V142.05C65.6344 142.332 65.8768 142.473 66.2035 142.473C66.4574 142.473 66.659 142.373 66.8078 142.173C66.9587 141.971 67.0342 141.672 67.0342 141.276ZM68.816 142.847H68.2859V139.755H68.816V142.847ZM68.243 138.935C68.243 138.85 68.2688 138.777 68.3203 138.718C68.3739 138.659 68.452 138.63 68.5552 138.63C68.6584 138.63 68.7366 138.659 68.7902 138.718C68.8435 138.777 68.8704 138.85 68.8704 138.935C68.8704 139.021 68.8435 139.092 68.7902 139.15C68.7366 139.207 68.6584 139.235 68.5552 139.235C68.452 139.235 68.3739 139.207 68.3203 139.15C68.2688 139.092 68.243 139.021 68.243 138.935ZM70.168 139.755L70.1851 140.144C70.4219 139.847 70.7315 139.698 71.1134 139.698C71.7683 139.698 72.0987 140.067 72.1046 140.804V142.847H71.5744V140.801C71.5726 140.578 71.5211 140.413 71.4198 140.307C71.3206 140.2 71.1648 140.147 70.9528 140.147C70.7811 140.147 70.6302 140.193 70.5003 140.284C70.3704 140.375 70.2691 140.495 70.1966 140.644V142.847H69.6667V139.755H70.168ZM72.7776 141.276C72.7776 140.794 72.8894 140.411 73.1128 140.127C73.3363 139.841 73.6323 139.698 74.0008 139.698C74.379 139.698 74.6739 139.831 74.8859 140.098L74.9118 139.755H75.3958V142.773C75.3958 143.173 75.2766 143.488 75.0379 143.719C74.8011 143.949 74.4822 144.064 74.0811 144.064C73.8576 144.064 73.639 144.017 73.4251 143.922C73.2112 143.826 73.0478 143.696 72.9352 143.53L73.2102 143.213C73.4374 143.493 73.7152 143.633 74.0438 143.633C74.3016 143.633 74.5022 143.561 74.6454 143.416C74.7904 143.271 74.863 143.067 74.863 142.804V142.539C74.651 142.783 74.3616 142.904 73.995 142.904C73.6323 142.904 73.3382 142.759 73.1128 142.467C72.8894 142.176 72.7776 141.778 72.7776 141.276ZM73.3104 141.335C73.3104 141.684 73.3822 141.958 73.5254 142.158C73.6686 142.357 73.8691 142.456 74.127 142.456C74.4611 142.456 74.7064 142.304 74.863 142.001V140.59C74.7008 140.295 74.4574 140.147 74.1326 140.147C73.8747 140.147 73.6734 140.247 73.528 140.447C73.383 140.647 73.3104 140.943 73.3104 141.335Z" fill="#DCDCDC"/>
<path d="M61.3333 162.532H38.6666C36.1629 162.532 34.1333 164.557 34.1333 167.054V170.246C34.1333 172.744 36.1629 174.768 38.6666 174.768H61.3333C63.837 174.768 65.8666 172.744 65.8666 170.246V167.054C65.8666 164.557 63.837 162.532 61.3333 162.532Z" fill="#666666"/>
<path fill-rule="evenodd" clip-rule="evenodd" d="M38.6667 162.798C36.3103 162.798 34.4 164.704 34.4 167.054V170.246C34.4 172.597 36.3103 174.503 38.6667 174.503H61.3334C63.6898 174.503 65.6 172.597 65.6 170.246V167.054C65.6 164.704 63.6898 162.798 61.3334 162.798H38.6667ZM33.8667 167.054C33.8667 164.41 36.0157 162.266 38.6667 162.266H61.3334C63.9843 162.266 66.1334 164.41 66.1334 167.054V170.246C66.1334 172.891 63.9843 175.035 61.3334 175.035H38.6667C36.0157 175.035 33.8667 172.891 33.8667 170.246V167.054Z" fill="#BB0000"/>
<path d="M39.8186 169.458C39.7672 169.898 39.604 170.238 39.3288 170.478C39.0557 170.716 38.692 170.836 38.2376 170.836C37.7448 170.836 37.3496 170.659 37.0514 170.307C36.7554 169.954 36.6074 169.483 36.6074 168.892V168.492C36.6074 168.105 36.6762 167.765 36.8138 167.472C36.9533 167.179 37.1498 166.954 37.404 166.798C37.6578 166.64 37.952 166.561 38.2861 166.561C38.7293 166.561 39.0845 166.684 39.3517 166.932C39.6192 167.178 39.7749 167.519 39.8186 167.955H39.2658C39.2181 167.624 39.1141 167.384 38.9536 167.235C38.7952 167.086 38.5725 167.012 38.2861 167.012C37.9349 167.012 37.6589 167.142 37.4584 167.401C37.2597 167.66 37.1605 168.028 37.1605 168.507V168.91C37.1605 169.361 37.2549 169.72 37.444 169.987C37.633 170.253 37.8976 170.387 38.2376 170.387C38.5429 170.387 38.777 170.318 38.9392 170.181C39.1034 170.042 39.2125 169.801 39.2658 169.458H39.8186ZM41.0189 168.061C41.2538 167.773 41.5594 167.629 41.9357 167.629C42.5906 167.629 42.921 167.998 42.9269 168.735V170.778H42.3968V168.732C42.3949 168.51 42.3434 168.345 42.2421 168.238C42.1429 168.131 41.9872 168.078 41.7752 168.078C41.6034 168.078 41.4525 168.124 41.3226 168.215C41.1928 168.307 41.0914 168.427 41.0189 168.575V170.778H40.489V166.389H41.0189V168.061ZM45.0064 170.836C44.5864 170.836 44.2445 170.698 43.981 170.424C43.7173 170.148 43.5856 169.779 43.5856 169.318V169.221C43.5856 168.914 43.644 168.641 43.7605 168.401C43.8789 168.159 44.0429 167.97 44.253 167.835C44.465 167.698 44.6944 167.629 44.9405 167.629C45.3434 167.629 45.6568 167.762 45.8802 168.026C46.1037 168.291 46.2154 168.67 46.2154 169.164V169.384H44.1157C44.1232 169.689 44.212 169.935 44.3821 170.124C44.5538 170.311 44.7717 170.404 45.0352 170.404C45.2224 170.404 45.3808 170.366 45.5106 170.29C45.6405 170.214 45.7541 170.112 45.8514 169.987L46.1752 170.238C45.9154 170.636 45.5258 170.836 45.0064 170.836ZM44.9405 168.064C44.7266 168.064 44.5472 168.142 44.4021 168.298C44.257 168.452 44.1672 168.669 44.1328 168.95H45.6853V168.91C45.6701 168.641 45.5976 168.433 45.4677 168.287C45.3378 168.138 45.1621 168.064 44.9405 168.064ZM48.0744 170.404C48.2634 170.404 48.4288 170.347 48.5701 170.232C48.7114 170.118 48.7896 169.975 48.805 169.804H49.3061C49.2968 169.981 49.2354 170.15 49.1229 170.31C49.0101 170.47 48.8594 170.597 48.6704 170.693C48.4832 170.788 48.2845 170.836 48.0744 170.836C47.6525 170.836 47.3162 170.695 47.0661 170.415C46.8178 170.134 46.6938 169.749 46.6938 169.261V169.172C46.6938 168.871 46.749 168.604 46.86 168.369C46.9706 168.135 47.129 167.953 47.3354 167.824C47.5434 167.694 47.789 167.629 48.0717 167.629C48.4192 167.629 48.7074 167.733 48.9368 167.941C49.1677 168.149 49.2909 168.418 49.3061 168.749H48.805C48.7896 168.549 48.7133 168.386 48.5757 168.258C48.4402 168.128 48.2722 168.064 48.0717 168.064C47.8024 168.064 47.5933 168.161 47.4442 168.355C47.2973 168.548 47.2237 168.827 47.2237 169.192V169.292C47.2237 169.649 47.2973 169.923 47.4442 170.115C47.5912 170.308 47.8013 170.404 48.0744 170.404ZM50.7672 169.347L50.4349 169.692V170.778H49.905V166.389H50.4349V169.044L50.7184 168.704L51.6837 167.686H52.3282L51.1224 168.978L52.4688 170.778H51.8472L50.7672 169.347ZM57.6221 168.832C57.6221 169.24 57.5533 169.596 57.416 169.901C57.2784 170.204 57.0834 170.435 56.8314 170.595C56.5794 170.755 56.2853 170.836 55.9493 170.836C55.6208 170.836 55.3296 170.755 55.0754 170.595C54.8216 170.434 54.624 170.204 54.4826 169.907C54.3432 169.608 54.2714 169.262 54.2677 168.869V168.569C54.2677 168.169 54.3373 167.816 54.4768 167.509C54.6162 167.203 54.813 166.968 55.0669 166.806C55.3229 166.642 55.6149 166.561 55.9434 166.561C56.2776 166.561 56.5717 166.642 56.8258 166.804C57.0816 166.963 57.2784 167.197 57.416 167.503C57.5533 167.808 57.6221 168.164 57.6221 168.569V168.832ZM57.0749 168.564C57.0749 168.07 56.9757 167.692 56.777 167.429C56.5784 167.165 56.3005 167.032 55.9434 167.032C55.596 167.032 55.3218 167.165 55.1213 167.429C54.9226 167.692 54.8205 168.058 54.8149 168.527V168.832C54.8149 169.31 54.9152 169.687 55.1157 169.961C55.3181 170.234 55.596 170.37 55.9493 170.37C56.3045 170.37 56.5794 170.241 56.7741 169.984C56.969 169.725 57.0693 169.354 57.0749 168.872V168.564ZM60.2776 170.473C60.0714 170.714 59.7685 170.836 59.3696 170.836C59.0392 170.836 58.7869 170.74 58.6133 170.55C58.4413 170.357 58.3544 170.073 58.3525 169.698V167.686H58.8826V169.684C58.8826 170.152 59.0736 170.387 59.4554 170.387C59.8602 170.387 60.1296 170.236 60.2632 169.935V167.686H60.7933V170.778H60.289L60.2776 170.473ZM62.32 166.938V167.686H62.8986V168.095H62.32V170.012C62.32 170.136 62.3458 170.23 62.3973 170.293C62.449 170.354 62.5368 170.384 62.661 170.384C62.7221 170.384 62.8061 170.373 62.913 170.35V170.778C62.7736 170.816 62.6381 170.836 62.5061 170.836C62.2693 170.836 62.0909 170.764 61.9706 170.621C61.8501 170.478 61.7901 170.275 61.7901 170.012V168.095H61.2258V167.686H61.7901V166.938H62.32Z" fill="#DCDCDC"/>
<path d="M100 200.039H0V216H100V200.039Z" fill="#BB0000"/>
<path fill-rule="evenodd" clip-rule="evenodd" d="M21.3333 201.369V214.67H21.0667V201.369H21.3333Z" fill="black"/>
<path fill-rule="evenodd" clip-rule="evenodd" d="M78.6667 201.369V214.67H78.4V201.369H78.6667Z" fill="black"/>
<path d="M85.2669 213.722H84.4725L84.2944 214.215H84.0365L84.7605 212.324H84.9792L85.7045 214.215H85.448L85.2669 213.722ZM84.5482 213.516H85.1928L84.8698 212.632L84.5482 213.516ZM86.4869 214.045C86.5728 214.045 86.648 214.019 86.7122 213.967C86.7765 213.915 86.812 213.85 86.8189 213.772H87.0469C87.0426 213.853 87.0146 213.929 86.9634 214.002C86.9122 214.075 86.8437 214.133 86.7578 214.176C86.6728 214.22 86.5824 214.241 86.4869 214.241C86.2952 214.241 86.1424 214.178 86.0285 214.05C85.9157 213.922 85.8594 213.747 85.8594 213.526V213.485C85.8594 213.348 85.8845 213.227 85.9349 213.12C85.9853 213.014 86.0573 212.931 86.1509 212.872C86.2456 212.813 86.3573 212.784 86.4856 212.784C86.6437 212.784 86.7746 212.831 86.8789 212.925C86.984 213.02 87.04 213.142 87.0469 213.293H86.8189C86.812 213.202 86.7773 213.128 86.7149 213.07C86.6533 213.011 86.5768 212.981 86.4856 212.981C86.3632 212.981 86.2682 213.025 86.2005 213.114C86.1336 213.201 86.1002 213.328 86.1002 213.494V213.54C86.1002 213.702 86.1336 213.826 86.2005 213.914C86.2674 214.001 86.3629 214.045 86.4869 214.045ZM87.8829 214.045C87.9688 214.045 88.0437 214.019 88.108 213.967C88.1722 213.915 88.208 213.85 88.2149 213.772H88.4426C88.4384 213.853 88.4106 213.929 88.3594 214.002C88.3082 214.075 88.2394 214.133 88.1536 214.176C88.0685 214.22 87.9784 214.241 87.8829 214.241C87.6909 214.241 87.5381 214.178 87.4245 214.05C87.3117 213.922 87.2552 213.747 87.2552 213.526V213.485C87.2552 213.348 87.2802 213.227 87.3306 213.12C87.381 213.014 87.453 212.931 87.5469 212.872C87.6416 212.813 87.753 212.784 87.8816 212.784C88.0394 212.784 88.1706 212.831 88.2746 212.925C88.3797 213.02 88.4357 213.142 88.4426 213.293H88.2149C88.208 213.202 88.173 213.128 88.1106 213.07C88.049 213.011 87.9725 212.981 87.8816 212.981C87.7592 212.981 87.664 213.025 87.5962 213.114C87.5296 213.201 87.496 213.328 87.496 213.494V213.54C87.496 213.702 87.5296 213.826 87.5962 213.914C87.6632 214.001 87.7586 214.045 87.8829 214.045ZM88.6498 213.499C88.6498 213.362 88.6765 213.238 88.7304 213.128C88.785 213.018 88.8608 212.933 88.957 212.873C89.0541 212.814 89.1648 212.784 89.289 212.784C89.4808 212.784 89.6357 212.85 89.7538 212.982C89.8728 213.115 89.9322 213.291 89.9322 213.511V213.528C89.9322 213.665 89.9058 213.788 89.8528 213.897C89.8008 214.005 89.7256 214.089 89.6277 214.15C89.5304 214.211 89.4184 214.241 89.2917 214.241C89.1008 214.241 88.9458 214.175 88.8269 214.042C88.7088 213.91 88.6498 213.735 88.6498 213.516V213.499ZM88.892 213.528C88.892 213.684 88.928 213.809 89 213.903C89.0728 213.998 89.1701 214.045 89.2917 214.045C89.4141 214.045 89.5112 213.997 89.5834 213.902C89.6554 213.806 89.6914 213.672 89.6914 213.499C89.6914 213.345 89.6544 213.221 89.5808 213.125C89.5077 213.029 89.4106 212.981 89.289 212.981C89.1701 212.981 89.0741 213.028 89.0013 213.123C88.9282 213.217 88.892 213.352 88.892 213.528ZM91.1042 214.076C91.0104 214.186 90.8728 214.241 90.6914 214.241C90.5413 214.241 90.4266 214.198 90.3477 214.111C90.2696 214.024 90.2301 213.895 90.229 213.724V212.81H90.4701V213.718C90.4701 213.931 90.5568 214.037 90.7304 214.037C90.9144 214.037 91.0368 213.969 91.0976 213.832V212.81H91.3386V214.215H91.1093L91.1042 214.076ZM91.9336 212.81L91.9413 212.986C92.049 212.851 92.1896 212.784 92.3632 212.784C92.661 212.784 92.8112 212.951 92.8138 213.286V214.215H92.5728V213.285C92.572 213.184 92.5485 213.109 92.5026 213.06C92.4573 213.012 92.3866 212.988 92.2904 212.988C92.2122 212.988 92.1437 213.008 92.0845 213.05C92.0256 213.092 91.9797 213.146 91.9466 213.214V214.215H91.7056V212.81H91.9336ZM93.504 212.469V212.81H93.7669V212.995H93.504V213.867C93.504 213.923 93.5157 213.966 93.5389 213.994C93.5624 214.022 93.6024 214.036 93.6589 214.036C93.6866 214.036 93.7248 214.031 93.7733 214.02V214.215C93.7101 214.232 93.6485 214.241 93.5885 214.241C93.4808 214.241 93.3997 214.209 93.345 214.144C93.2904 214.079 93.2629 213.987 93.2629 213.867V212.995H93.0064V212.81H93.2629V212.469H93.504Z" fill="#DCDCDC"/>
<path d="M89.3333 203.068C88.1936 203.068 87.2688 203.991 87.2688 205.128C87.2688 206.265 88.1936 207.187 89.3333 207.187C90.4731 207.187 91.3979 206.265 91.3979 205.128C91.3979 203.991 90.4731 203.068 89.3333 203.068ZM89.3333 206.158C88.7635 206.158 88.3011 205.696 88.3011 205.128C88.3011 204.559 88.7635 204.098 89.3333 204.098C89.9032 204.098 90.3656 204.559 90.3656 205.128C90.3656 205.696 89.9032 206.158 89.3333 206.158ZM89.3333 201.009C86.3872 201.009 84 203.39 84 206.329C84 209.268 86.3872 211.649 89.3333 211.649C92.2795 211.649 94.6667 209.268 94.6667 206.329C94.6667 203.39 92.2795 201.009 89.3333 201.009ZM89.3333 210.62C88.2645 210.62 87.2883 210.227 86.5355 209.581C86.856 209.088 87.4043 208.753 88.0323 208.734C88.4795 208.871 88.9053 208.94 89.3333 208.94C89.7613 208.94 90.1872 208.874 90.6344 208.734C91.2624 208.756 91.8107 209.088 92.1312 209.581C91.3784 210.227 90.4021 210.62 89.3333 210.62ZM92.8323 208.816C92.3075 208.142 91.4968 207.702 90.572 207.702C90.3528 207.702 90.0128 207.908 89.3333 207.908C88.656 207.908 88.3139 207.702 88.0947 207.702C87.172 207.702 86.3613 208.142 85.8344 208.816C85.3312 208.114 85.0323 207.256 85.0323 206.329C85.0323 203.963 86.9613 202.039 89.3333 202.039C91.7053 202.039 93.6344 203.963 93.6344 206.329C93.6344 207.256 93.3355 208.114 92.8323 208.816Z" fill="#DCDCDC"/>
<mask id="mask1_875_4194" style="mask-type:luminance" maskUnits="userSpaceOnUse" x="62" y="203" width="12" height="10">
<path d="M73.0667 203.231H62.4V212.69H73.0667V203.231Z" fill="white"/>
</mask>
<g mask="url(#mask1_875_4194)">
<path d="M72.18 208.798L73.0555 204.955C73.1187 204.678 72.9072 204.414 72.6222 204.414H65.3483L65.1787 203.586C65.1363 203.38 64.9542 203.231 64.7432 203.231H62.8446C62.599 203.231 62.4 203.43 62.4 203.675V203.97C62.4 204.215 62.599 204.414 62.8446 204.414H64.1387L65.4395 210.758C65.1283 210.936 64.9184 211.271 64.9184 211.655C64.9184 212.226 65.383 212.69 65.9555 212.69C66.5283 212.69 66.9926 212.226 66.9926 211.655C66.9926 211.365 66.8734 211.104 66.6811 210.916H70.5635C70.3712 211.104 70.2518 211.365 70.2518 211.655C70.2518 212.226 70.7163 212.69 71.2888 212.69C71.8616 212.69 72.3259 212.226 72.3259 211.655C72.3259 211.246 72.0872 210.891 71.7411 210.724L71.8432 210.275C71.9064 209.998 71.6952 209.734 71.4099 209.734H66.4392L66.3182 209.143H71.7467C71.9542 209.143 72.1342 209 72.18 208.798Z" fill="#DCDCDC"/>
</g>
<mask id="mask2_875_4194" style="mask-type:luminance" maskUnits="userSpaceOnUse" x="5" y="202" width="11" height="12">
<path d="M16 202.699H5.33337V213.34H16V202.699Z" fill="white"/>
</mask>
<g mask="url(#mask2_875_4194)">
<path d="M15.8542 211.9L13.7771 209.828C13.6834 209.734 13.5563 209.682 13.4229 209.682H13.0834C13.6584 208.949 14 208.026 14 207.022C14 204.634 12.0605 202.699 9.66671 202.699C7.27295 202.699 5.33337 204.634 5.33337 207.022C5.33337 209.41 7.27295 211.345 9.66671 211.345C10.6729 211.345 11.598 211.004 12.3334 210.43V210.769C12.3334 210.902 12.3855 211.029 12.4792 211.122L14.5563 213.194C14.7521 213.39 15.0688 213.39 15.2625 213.194L15.8521 212.606C16.048 212.411 16.048 212.095 15.8542 211.9ZM9.66671 209.682C8.1938 209.682 7.00004 208.493 7.00004 207.022C7.00004 205.553 8.19169 204.362 9.66671 204.362C11.1396 204.362 12.3334 205.551 12.3334 207.022C12.3334 208.491 11.1417 209.682 9.66671 209.682Z" fill="#DCDCDC"/>
</g>
<path d="M27.0477 203.707H36.9522C37.1626 203.707 37.3333 203.536 37.3333 203.326V202.376C37.3333 202.167 37.1626 201.996 36.9522 201.996H27.0477C26.8373 201.996 26.6666 202.167 26.6666 202.376V203.326C26.6666 203.536 26.8373 203.707 27.0477 203.707ZM27.0477 207.506H36.9522C37.1626 207.506 37.3333 207.336 37.3333 207.127V206.176C37.3333 205.967 37.1626 205.797 36.9522 205.797H27.0477C26.8373 205.797 26.6666 205.967 26.6666 206.176V207.127C26.6666 207.336 26.8373 207.506 27.0477 207.506ZM27.0477 211.307H36.9522C37.1626 211.307 37.3333 211.137 37.3333 210.927V209.977C37.3333 209.767 37.1626 209.597 36.9522 209.597H27.0477C26.8373 209.597 26.6666 209.767 26.6666 209.977V210.927C26.6666 211.137 26.8373 211.307 27.0477 211.307Z" fill="#DCDCDC"/>
<path d="M26.948 214.526C26.9245 214.726 26.8501 214.881 26.7253 214.99C26.6011 215.098 26.4357 215.152 26.2292 215.152C26.0052 215.152 25.8255 215.072 25.6901 214.912C25.5555 214.751 25.4883 214.537 25.4883 214.269V214.087C25.4883 213.911 25.5195 213.756 25.582 213.623C25.6454 213.49 25.7348 213.388 25.8503 213.317C25.9657 213.245 26.0994 213.209 26.2513 213.209C26.4527 213.209 26.6141 213.265 26.7357 213.378C26.8573 213.489 26.928 213.644 26.948 213.843H26.6965C26.6749 213.692 26.6276 213.583 26.5547 213.515C26.4826 213.448 26.3815 213.414 26.2513 213.414C26.0916 213.414 25.9661 213.473 25.875 213.591C25.7847 213.709 25.7396 213.876 25.7396 214.093V214.276C25.7396 214.482 25.7825 214.645 25.8685 214.766C25.9544 214.888 26.0746 214.948 26.2292 214.948C26.368 214.948 26.4744 214.917 26.5482 214.855C26.6228 214.791 26.6723 214.682 26.6965 214.526H26.948ZM28.1224 215.126C28.1085 215.098 28.0973 215.049 28.0885 214.978C27.9765 215.094 27.8429 215.152 27.6875 215.152C27.5485 215.152 27.4344 215.113 27.3451 215.035C27.2565 214.956 27.2123 214.857 27.2123 214.736C27.2123 214.59 27.2677 214.477 27.3789 214.396C27.4909 214.315 27.648 214.274 27.8501 214.274H28.0845V214.163C28.0845 214.079 28.0595 214.013 28.0091 213.963C27.9587 213.913 27.8845 213.888 27.7864 213.888C27.7005 213.888 27.6285 213.91 27.5704 213.953C27.5123 213.996 27.4832 214.049 27.4832 214.11H27.2408C27.2408 214.04 27.2656 213.972 27.3152 213.908C27.3653 213.842 27.4331 213.79 27.5181 213.752C27.6043 213.714 27.6984 213.694 27.8008 213.694C27.9632 213.694 28.0904 213.735 28.1824 213.817C28.2744 213.897 28.3221 214.009 28.3256 214.15V214.797C28.3256 214.926 28.3421 215.029 28.3749 215.105V215.126H28.1224ZM27.7227 214.943C27.7981 214.943 27.8699 214.923 27.9376 214.884C28.0053 214.846 28.0541 214.795 28.0845 214.732V214.444H27.8957C27.6008 214.444 27.4531 214.53 27.4531 214.703C27.4531 214.778 27.4784 214.837 27.5285 214.879C27.5789 214.922 27.6437 214.943 27.7227 214.943ZM29.0299 213.38V213.721H29.2931V213.906H29.0299V214.778C29.0299 214.834 29.0416 214.877 29.0651 214.905C29.0885 214.933 29.1285 214.947 29.1848 214.947C29.2128 214.947 29.2509 214.942 29.2995 214.931V215.126C29.236 215.143 29.1744 215.152 29.1147 215.152C29.0069 215.152 28.9259 215.119 28.8712 215.055C28.8165 214.99 28.7891 214.897 28.7891 214.778V213.906H28.5325V213.721H28.7891V213.38H29.0299ZM30.1603 215.152C29.9691 215.152 29.8139 215.09 29.6941 214.965C29.5741 214.839 29.5144 214.672 29.5144 214.462V214.418C29.5144 214.279 29.5408 214.154 29.5939 214.045C29.6475 213.935 29.7221 213.85 29.8176 213.788C29.9141 213.726 30.0181 213.694 30.1301 213.694C30.3133 213.694 30.4557 213.755 30.5573 213.875C30.6589 213.996 30.7096 214.168 30.7096 214.392V214.492H29.7552C29.7587 214.631 29.7989 214.743 29.8763 214.828C29.9544 214.913 30.0533 214.956 30.1731 214.956C30.2581 214.956 30.3304 214.939 30.3893 214.904C30.4483 214.869 30.5 214.823 30.5443 214.766L30.6915 214.881C30.5733 215.061 30.3963 215.152 30.1603 215.152ZM30.1301 213.892C30.0331 213.892 29.9515 213.927 29.8853 213.999C29.8195 214.069 29.7787 214.167 29.7629 214.295H30.4688V214.276C30.4619 214.154 30.4288 214.06 30.3699 213.993C30.3107 213.926 30.2309 213.892 30.1301 213.892ZM30.9323 214.412C30.9323 214.192 30.9832 214.018 31.0845 213.889C31.1861 213.76 31.3208 213.694 31.4883 213.694C31.6603 213.694 31.7944 213.755 31.8907 213.876L31.9024 213.721H32.1224V215.092C32.1224 215.274 32.0683 215.417 31.9597 215.522C31.852 215.627 31.7069 215.679 31.5248 215.679C31.4232 215.679 31.3237 215.658 31.2267 215.614C31.1293 215.571 31.0552 215.512 31.004 215.436L31.1288 215.292C31.2323 215.42 31.3584 215.483 31.5077 215.483C31.6251 215.483 31.7163 215.45 31.7813 215.384C31.8472 215.319 31.8803 215.226 31.8803 215.106V214.986C31.7837 215.097 31.6523 215.152 31.4856 215.152C31.3208 215.152 31.1869 215.086 31.0845 214.953C30.9832 214.821 30.9323 214.64 30.9323 214.412ZM31.1744 214.439C31.1744 214.597 31.2069 214.722 31.2723 214.813C31.3373 214.903 31.4283 214.948 31.5456 214.948C31.6976 214.948 31.8091 214.879 31.8803 214.741V214.1C31.8064 213.966 31.6957 213.898 31.5483 213.898C31.4309 213.898 31.3395 213.944 31.2733 214.035C31.2075 214.126 31.1744 214.261 31.1744 214.439ZM32.4232 214.41C32.4232 214.273 32.4501 214.149 32.504 214.039C32.5587 213.929 32.6341 213.844 32.7304 213.784C32.8277 213.725 32.9384 213.694 33.0624 213.694C33.2544 213.694 33.4093 213.761 33.5275 213.893C33.6464 214.026 33.7056 214.202 33.7056 214.422V214.439C33.7056 214.576 33.6792 214.699 33.6264 214.808C33.5741 214.916 33.4992 215 33.4011 215.061C33.3037 215.122 33.1917 215.152 33.0651 215.152C32.8741 215.152 32.7192 215.086 32.6003 214.953C32.4821 214.821 32.4232 214.645 32.4232 214.427V214.41ZM32.6653 214.439C32.6653 214.595 32.7013 214.72 32.7733 214.814C32.8464 214.909 32.9435 214.956 33.0651 214.956C33.1875 214.956 33.2848 214.908 33.3568 214.813C33.4288 214.717 33.4648 214.583 33.4648 214.41C33.4648 214.256 33.428 214.132 33.3541 214.036C33.2813 213.94 33.184 213.892 33.0624 213.892C32.9435 213.892 32.8477 213.939 32.7747 214.034C32.7019 214.128 32.6653 214.263 32.6653 214.439ZM34.6888 213.936C34.6523 213.93 34.6128 213.927 34.5704 213.927C34.4123 213.927 34.3051 213.994 34.2488 214.128V215.126H34.0077V213.721H34.2421L34.2461 213.883C34.3251 213.757 34.4371 213.694 34.5821 213.694C34.6288 213.694 34.6645 213.701 34.6888 213.713V213.936ZM35.1731 215.126H34.9323V213.721H35.1731V215.126ZM34.9128 213.348C34.9128 213.309 34.9245 213.276 34.948 213.249C34.9723 213.222 35.0077 213.209 35.0547 213.209C35.1016 213.209 35.1371 213.222 35.1613 213.249C35.1859 213.276 35.1979 213.309 35.1979 213.348C35.1979 213.387 35.1859 213.419 35.1613 213.445C35.1371 213.471 35.1016 213.484 35.0547 213.484C35.0077 213.484 34.9723 213.471 34.948 213.445C34.9245 213.419 34.9128 213.387 34.9128 213.348ZM36.1445 215.152C35.9536 215.152 35.7981 215.09 35.6784 214.965C35.5587 214.839 35.4987 214.672 35.4987 214.462V214.418C35.4987 214.279 35.5251 214.154 35.5781 214.045C35.632 213.935 35.7067 213.85 35.8021 213.788C35.8984 213.726 36.0027 213.694 36.1147 213.694C36.2979 213.694 36.44 213.755 36.5416 213.875C36.6432 213.996 36.6941 214.168 36.6941 214.392V214.492H35.7395C35.7429 214.631 35.7835 214.743 35.8608 214.828C35.9389 214.913 36.0379 214.956 36.1576 214.956C36.2427 214.956 36.3147 214.939 36.3736 214.904C36.4328 214.869 36.4843 214.823 36.5285 214.766L36.6757 214.881C36.5576 215.061 36.3805 215.152 36.1445 215.152ZM36.1147 213.892C36.0173 213.892 35.9357 213.927 35.8699 213.999C35.8037 214.069 35.7629 214.167 35.7475 214.295H36.4531V214.276C36.4461 214.154 36.4131 214.06 36.3541 213.993C36.2952 213.926 36.2152 213.892 36.1147 213.892ZM37.7944 214.753C37.7944 214.688 37.7696 214.638 37.72 214.603C37.6715 214.566 37.5859 214.535 37.4635 214.509C37.3421 214.483 37.2453 214.452 37.1731 214.415C37.1019 214.379 37.0491 214.336 37.0144 214.286C36.9805 214.235 36.9635 214.176 36.9635 214.106C36.9635 213.991 37.0123 213.894 37.1093 213.814C37.2075 213.734 37.3325 213.694 37.4843 213.694C37.644 213.694 37.7733 213.736 37.8723 213.818C37.9723 213.9 38.0221 214.005 38.0221 214.134H37.78C37.78 214.068 37.7517 214.011 37.6952 213.963C37.6397 213.916 37.5693 213.892 37.4843 213.892C37.3968 213.892 37.328 213.911 37.2787 213.949C37.2291 213.987 37.2045 214.037 37.2045 214.099C37.2045 214.157 37.2275 214.2 37.2733 214.23C37.3195 214.259 37.4024 214.287 37.5221 214.314C37.6427 214.341 37.7405 214.373 37.8152 214.41C37.8899 214.448 37.9448 214.492 37.9805 214.545C38.0168 214.597 38.0352 214.661 38.0352 214.736C38.0352 214.862 37.9848 214.963 37.884 215.039C37.7835 215.114 37.6528 215.152 37.4923 215.152C37.3795 215.152 37.2795 215.132 37.1928 215.092C37.1059 215.052 37.0379 214.997 36.9883 214.926C36.9397 214.854 36.9155 214.777 36.9155 214.693H37.1563C37.1605 214.774 37.1928 214.838 37.2525 214.886C37.3133 214.932 37.3933 214.956 37.4923 214.956C37.5835 214.956 37.6563 214.938 37.7109 214.901C37.7664 214.864 37.7944 214.815 37.7944 214.753Z" fill="#DCDCDC"/>
<path d="M50 211.611C55.4492 211.611 59.8666 207.204 59.8666 201.768C59.8666 196.333 55.4492 191.926 50 191.926C44.5508 191.926 40.1333 196.333 40.1333 201.768C40.1333 207.204 44.5508 211.611 50 211.611Z" fill="#BB0000"/>
<path fill-rule="evenodd" clip-rule="evenodd" d="M50 192.059C44.6244 192.059 40.2667 196.406 40.2667 201.769C40.2667 207.131 44.6244 211.478 50 211.478C55.3756 211.478 59.7333 207.131 59.7333 201.769C59.7333 196.406 55.3756 192.059 50 192.059ZM40 201.769C40 196.259 44.4772 191.793 50 191.793C55.5228 191.793 60 196.259 60 201.769C60 207.278 55.5228 211.744 50 211.744C44.4772 211.744 40 207.278 40 201.769Z" fill="black"/>
<mask id="mask3_875_4194" style="mask-type:luminance" maskUnits="userSpaceOnUse" x="44" y="196" width="12" height="12">
<path d="M56 196.581H44V207.222H56V196.581Z" fill="white"/>
</mask>
<g mask="url(#mask3_875_4194)">
<path d="M49.8411 199.662L46 202.818V206.224C46 206.312 46.0352 206.397 46.0976 206.459C46.1603 206.521 46.2448 206.557 46.3333 206.557L48.668 206.55C48.756 206.55 48.8403 206.515 48.9027 206.453C48.9648 206.39 48.9995 206.306 48.9995 206.218V204.229C48.9995 204.141 49.0347 204.056 49.0973 203.994C49.1597 203.932 49.2445 203.896 49.3328 203.896H50.6661C50.7547 203.896 50.8395 203.932 50.9019 203.994C50.9645 204.056 50.9995 204.141 50.9995 204.229V206.217C50.9995 206.26 51.008 206.304 51.0245 206.344C51.0413 206.385 51.0659 206.421 51.0968 206.452C51.1277 206.483 51.1645 206.508 51.2051 206.525C51.2456 206.541 51.2891 206.55 51.3328 206.55L53.6667 206.557C53.7552 206.557 53.8397 206.521 53.9024 206.459C53.9648 206.397 54 206.312 54 206.224V202.816L50.1597 199.662C50.1147 199.626 50.0584 199.606 50.0005 199.606C49.9424 199.606 49.8861 199.626 49.8411 199.662ZM55.9083 201.807L54.1667 200.375V197.497C54.1667 197.431 54.1403 197.367 54.0933 197.32C54.0467 197.274 53.9829 197.247 53.9165 197.247H52.7499C52.6837 197.247 52.62 197.274 52.5733 197.32C52.5264 197.367 52.5 197.431 52.5 197.497V199.006L50.6347 197.475C50.4557 197.328 50.2312 197.248 49.9995 197.248C49.7675 197.248 49.5429 197.328 49.364 197.475L44.0904 201.807C44.0651 201.828 44.0443 201.854 44.0288 201.883C44.0133 201.912 44.004 201.943 44.0008 201.976C43.9976 202.009 44.0011 202.042 44.0107 202.073C44.0203 202.104 44.0363 202.133 44.0571 202.158L44.5883 202.803C44.6093 202.828 44.6349 202.849 44.664 202.864C44.6931 202.88 44.7248 202.889 44.7573 202.893C44.7901 202.896 44.8232 202.892 44.8547 202.883C44.8861 202.873 44.9152 202.857 44.9405 202.837L49.8411 198.81C49.8861 198.774 49.9424 198.754 50.0005 198.754C50.0584 198.754 50.1147 198.774 50.1597 198.81L55.0605 202.837C55.0856 202.857 55.1149 202.873 55.1464 202.883C55.1776 202.893 55.2107 202.896 55.2435 202.893C55.276 202.89 55.3077 202.88 55.3368 202.865C55.3659 202.849 55.3915 202.829 55.4125 202.803L55.9437 202.159C55.9645 202.134 55.9803 202.104 55.9899 202.073C55.9995 202.042 56.0027 202.009 55.9995 201.976C55.996 201.943 55.9864 201.912 55.9707 201.883C55.9552 201.854 55.9339 201.828 55.9083 201.807Z" fill="#DCDCDC"/>
</g>
<path fill-rule="evenodd" clip-rule="evenodd" d="M9.16931 2.84825L4.45529 7.5507L4.26672 7.3626L8.98075 2.66016L9.16931 2.84825Z" fill="#DCDCDC"/>
<path fill-rule="evenodd" clip-rule="evenodd" d="M8.98075 12.0648L4.26672 7.36241L4.45529 7.17432L9.16931 11.8767L8.98075 12.0648Z" fill="#DCDCDC"/>
<path d="M24.566 13.8899V16.8816H23.5558V9.23972H26.3812C27.2197 9.23972 27.8754 9.45317 28.349 9.88003C28.8261 10.3069 29.0645 10.872 29.0645 11.5753C29.0645 12.3171 28.8314 12.8892 28.3647 13.2916C27.9018 13.6905 27.237 13.8899 26.3707 13.8899H24.566ZM24.566 13.0659H26.3812C26.9213 13.0659 27.3354 12.9399 27.6229 12.688C27.9106 12.4326 28.0543 12.0652 28.0543 11.5858C28.0543 11.1309 27.9106 10.767 27.6229 10.4941C27.3354 10.2212 26.9407 10.0795 26.4391 10.069H24.566V13.0659ZM32.4898 16.9865C31.7181 16.9865 31.0903 16.7346 30.6061 16.2307C30.1221 15.7234 29.8802 15.0463 29.8802 14.1996V14.0211C29.8802 13.4578 29.9871 12.9556 30.201 12.5148C30.4186 12.0704 30.7202 11.724 31.1061 11.4756C31.4954 11.2236 31.9162 11.0977 32.3687 11.0977C33.109 11.0977 33.6842 11.3409 34.0946 11.8272C34.505 12.3136 34.7101 13.0099 34.7101 13.9161V14.3203H30.8535C30.8674 14.8801 31.0306 15.3333 31.3429 15.6797C31.6583 16.0225 32.0583 16.194 32.5423 16.194C32.8861 16.194 33.1773 16.124 33.4157 15.9841C33.6543 15.8441 33.8631 15.6586 34.0418 15.4277L34.6365 15.8896C34.1594 16.6209 33.4439 16.9865 32.4898 16.9865ZM32.3687 11.8955C31.9759 11.8955 31.6461 12.0389 31.3797 12.3259C31.113 12.6093 30.9482 13.0082 30.885 13.5225H33.7367V13.449C33.7087 12.9556 33.5754 12.5743 33.337 12.3048C33.0983 12.0319 32.7757 11.8955 32.3687 11.8955ZM45.6855 16.9865C44.9138 16.9865 44.2861 16.7346 43.8021 16.2307C43.3178 15.7234 43.0759 15.0463 43.0759 14.1996V14.0211C43.0759 13.4578 43.1829 12.9556 43.3967 12.5148C43.6143 12.0704 43.9159 11.724 44.3018 11.4756C44.6911 11.2236 45.1119 11.0977 45.5645 11.0977C46.3047 11.0977 46.8799 11.3409 47.2903 11.8272C47.7007 12.3136 47.9058 13.0099 47.9058 13.9161V14.3203H44.0493C44.0634 14.8801 44.2263 15.3333 44.5386 15.6797C44.8543 16.0225 45.2541 16.194 45.7381 16.194C46.0818 16.194 46.373 16.124 46.6117 15.9841C46.8501 15.8441 47.0589 15.6586 47.2378 15.4277L47.8322 15.8896C47.3551 16.6209 46.6397 16.9865 45.6855 16.9865ZM45.5645 11.8955C45.1717 11.8955 44.8421 12.0389 44.5754 12.3259C44.3087 12.6093 44.1439 13.0082 44.0807 13.5225H46.9325V13.449C46.9045 12.9556 46.7711 12.5743 46.5327 12.3048C46.2941 12.0319 45.9714 11.8955 45.5645 11.8955ZM51.3207 16.194C51.6679 16.194 51.9711 16.089 52.2309 15.8791C52.4903 15.6692 52.6343 15.4067 52.6623 15.0918H53.5831C53.5655 15.4172 53.4533 15.7269 53.2463 16.0208C53.0394 16.3147 52.7624 16.5492 52.4152 16.7241C52.0712 16.8991 51.7063 16.9865 51.3207 16.9865C50.5455 16.9865 49.9282 16.7294 49.4685 16.215C49.0125 15.6972 48.7845 14.9903 48.7845 14.0946V13.9319C48.7845 13.379 48.8863 12.8874 49.0898 12.4571C49.2933 12.0267 49.5845 11.6925 49.9631 11.4546C50.3455 11.2167 50.7962 11.0977 51.3154 11.0977C51.9538 11.0977 52.4834 11.2884 52.9042 11.6698C53.3288 12.0512 53.5549 12.5463 53.5831 13.1551H52.6623C52.6343 12.7877 52.4938 12.4868 52.2413 12.2524C51.9922 12.0144 51.6837 11.8955 51.3154 11.8955C50.8207 11.8955 50.4367 12.0739 50.1631 12.4308C49.893 12.7842 49.7581 13.2968 49.7581 13.9686V14.1523C49.7581 14.8066 49.893 15.3105 50.1631 15.6639C50.4333 16.0173 50.8191 16.194 51.3207 16.194ZM55.9981 9.82755V11.2027H57.061V11.9532H55.9981V15.4749C55.9981 15.7024 56.0455 15.8738 56.1402 15.9893C56.2349 16.1013 56.3962 16.1573 56.6242 16.1573C56.7365 16.1573 56.8909 16.1363 57.0871 16.0943V16.8816C56.8311 16.9515 56.5821 16.9865 56.3399 16.9865C55.905 16.9865 55.577 16.8553 55.3562 16.5929C55.1351 16.3305 55.0247 15.9578 55.0247 15.4749V11.9532H53.9882V11.2027H55.0247V9.82755H55.9981ZM62.6853 13.3493H59.3653V16.0576H63.2221V16.8816H58.3551V9.23972H63.1695V10.069H59.3653V12.5253H62.6853V13.3493ZM63.985 13.9949C63.985 13.1236 64.192 12.4238 64.6058 11.8955C65.0197 11.3636 65.5618 11.0977 66.2319 11.0977C66.8981 11.0977 67.4261 11.3251 67.8152 11.78V8.81982H68.7888V16.8816H67.8941L67.8471 16.2728C67.4575 16.7486 66.9157 16.9865 66.221 16.9865C65.5618 16.9865 65.0234 16.7171 64.6058 16.1782C64.192 15.6394 63.985 14.9361 63.985 14.0684V13.9949ZM64.9583 14.1051C64.9583 14.7489 65.0917 15.2528 65.3581 15.6166C65.625 15.9805 65.993 16.1625 66.4631 16.1625C67.0805 16.1625 67.5312 15.8861 67.8152 15.3333V12.7247C67.5242 12.1894 67.077 11.9217 66.4735 11.9217C65.9965 11.9217 65.625 12.1054 65.3581 12.4728C65.0917 12.8402 64.9583 13.3843 64.9583 14.1051ZM70.0725 13.9949C70.0725 13.1096 70.2778 12.4063 70.6879 11.885C71.0983 11.3601 71.6421 11.0977 72.3191 11.0977C73.0135 11.0977 73.5554 11.3426 73.945 11.8325L73.9925 11.2027H74.8815V16.7451C74.8815 17.4799 74.6621 18.059 74.2237 18.4824C73.789 18.9057 73.2029 19.1174 72.4666 19.1174C72.0562 19.1174 71.6543 19.0299 71.2615 18.855C70.8687 18.6801 70.569 18.4404 70.3621 18.1359L70.8672 17.5534C71.2845 18.0677 71.7946 18.3249 72.3981 18.3249C72.8714 18.3249 73.2399 18.1919 73.5031 17.926C73.7695 17.6601 73.9031 17.2857 73.9031 16.8029V16.3147C73.5135 16.7626 72.9823 16.9865 72.3087 16.9865C71.6421 16.9865 71.1021 16.7189 70.6879 16.1835C70.2778 15.6482 70.0725 14.9186 70.0725 13.9949ZM71.0511 14.1051C71.0511 14.7454 71.1826 15.2493 71.4455 15.6166C71.709 15.9805 72.0773 16.1625 72.5509 16.1625C73.1645 16.1625 73.6154 15.8843 73.9031 15.328V12.7352C73.6047 12.1929 73.1573 11.9217 72.5613 11.9217C72.0877 11.9217 71.7175 12.1054 71.4511 12.4728C71.1845 12.8402 71.0511 13.3843 71.0511 14.1051ZM78.7173 16.9865C77.9453 16.9865 77.3175 16.7346 76.8333 16.2307C76.3495 15.7234 76.1074 15.0463 76.1074 14.1996V14.0211C76.1074 13.4578 76.2146 12.9556 76.4285 12.5148C76.6458 12.0704 76.9474 11.724 77.3333 11.4756C77.7226 11.2236 78.1437 11.0977 78.5959 11.0977C79.3359 11.0977 79.9114 11.3409 80.3218 11.8272C80.7325 12.3136 80.9375 13.0099 80.9375 13.9161V14.3203H77.0808C77.0949 14.8801 77.2581 15.3333 77.5701 15.6797C77.8858 16.0225 78.2858 16.194 78.7695 16.194C79.1135 16.194 79.4045 16.124 79.6431 15.9841C79.8815 15.8441 80.0904 15.6586 80.2693 15.4277L80.8637 15.8896C80.3866 16.6209 79.6714 16.9865 78.7173 16.9865ZM78.5959 11.8955C78.2031 11.8955 77.8736 12.0389 77.6072 12.3259C77.3405 12.6093 77.1757 13.0082 77.1125 13.5225H79.9642V13.449C79.9362 12.9556 79.8026 12.5743 79.5642 12.3048C79.3255 12.0319 79.0031 11.8955 78.5959 11.8955Z" fill="#DCDCDC"/>
<path d="M38.593 12.0738C38.4458 12.0493 38.2861 12.037 38.1144 12.037C37.476 12.037 37.0426 12.3082 36.8146 12.8506V16.8814H35.8413V11.2025H36.7885L36.8042 11.8586C37.1234 11.3512 37.576 11.0976 38.1618 11.0976C38.3512 11.0976 38.4949 11.1221 38.593 11.171V12.0738ZM40.056 16.8814V11.9531H39.1562V11.2025H40.056V10.62C40.056 10.0111 40.2189 9.54049 40.545 9.20808C40.8714 8.87568 41.3325 8.70947 41.929 8.70947C42.1533 8.70947 42.3762 8.73921 42.597 8.79869L42.5445 9.58598C42.3797 9.55448 42.2042 9.53876 42.0184 9.53876C41.7026 9.53876 41.4589 9.63146 41.2869 9.81693C41.1152 9.99888 41.0293 10.2613 41.0293 10.6042V11.2025H42.2445V11.9531H41.0293V16.8814H40.056Z" fill="#666666"/>
<path d="M24.0623 17.9114L23.5601 16.8757H24.5645L24.0623 17.9114Z" fill="#DCDCDC"/>
<path d="M35.2072 9.34234C35.0005 9.33875 34.8301 9.50293 34.8267 9.70901L34.768 13.0675C34.7643 13.2737 34.9288 13.4437 35.1355 13.4472C35.3421 13.4508 35.5125 13.2866 35.5163 13.0805L35.5683 10.0952L38.5611 10.1472C38.7675 10.1507 38.9381 9.98657 38.9416 9.78049C38.9451 9.57438 38.7805 9.4044 38.5739 9.40081L35.2072 9.34234ZM44.9731 19.2721L35.4699 9.45622L34.9315 9.97478L44.4349 19.7907L44.9731 19.2721Z" fill="#BB0000"/>
</g>
<path fill-rule="evenodd" clip-rule="evenodd" d="M0 0H100V216H0V0ZM0.266667 0.26601V215.734H99.7333V0.26601H0.266667Z" fill="black"/>
</g>
<defs>
<clipPath id="clip0_875_4194">
<rect width="100" height="216" fill="white"/>
</clipPath>
</defs>
</svg>
