<svg width="100" height="216" viewBox="0 0 100 216" fill="none" xmlns="http://www.w3.org/2000/svg">
<g clip-path="url(#clip0_875_4525)">
<mask id="mask0_875_4525" style="mask-type:luminance" maskUnits="userSpaceOnUse" x="0" y="0" width="100" height="216">
<path d="M100 0H0V216H100V0Z" fill="white"/>
</mask>
<g mask="url(#mask0_875_4525)">
<path d="M100 0H0V216H100V0Z" fill="white"/>
<path d="M100 0H0V25.6403H100V0Z" fill="#BB0000"/>
<path d="M31.7917 39.1018C31.6979 39.8806 31.4011 40.4828 30.9011 40.9075C30.4045 41.3292 29.7429 41.54 28.9168 41.54C28.0208 41.54 27.3021 41.2279 26.7605 40.604C26.2222 39.9801 25.9531 39.1456 25.9531 38.1001V37.392C25.9531 36.7074 26.0781 36.1055 26.3281 35.586C26.5816 35.0667 26.9392 34.6689 27.4011 34.3923C27.8629 34.1123 28.3976 33.9725 29.0053 33.9725C29.8107 33.9725 30.4565 34.1916 30.9427 34.6301C31.4288 35.0652 31.7117 35.6686 31.7917 36.4409H30.7864C30.6997 35.8543 30.5104 35.4293 30.2187 35.1662C29.9307 34.9033 29.5261 34.7717 29.0053 34.7717C28.3664 34.7717 27.8645 35.0009 27.5 35.4596C27.1389 35.9183 26.9584 36.5707 26.9584 37.4173V38.1306C26.9584 38.9296 27.1301 39.5654 27.4739 40.0376C27.8176 40.5097 28.2987 40.7457 28.9168 40.7457C29.4723 40.7457 29.8976 40.6242 30.1928 40.3815C30.4912 40.1352 30.6893 39.7087 30.7864 39.1018H31.7917ZM33.9739 36.6282C34.4011 36.119 34.9565 35.8644 35.6405 35.8644C36.8315 35.8644 37.4323 36.5168 37.4427 37.8219V41.4387H36.4792V37.817C36.4757 37.4223 36.3819 37.1306 36.1979 36.9418C36.0173 36.753 35.7344 36.6585 35.3491 36.6585C35.0365 36.6585 34.7621 36.7393 34.5261 36.9012C34.2899 37.063 34.1059 37.2757 33.9739 37.5386V41.4387H33.0104V33.6689H33.9739V36.6282ZM41.224 41.54C40.46 41.54 39.8387 41.2971 39.3595 40.8114C38.8803 40.3225 38.6405 39.6701 38.6405 38.854V38.6817C38.6405 38.1389 38.7464 37.6551 38.9584 37.2301C39.1736 36.8017 39.4723 36.4679 39.8541 36.2286C40.2395 35.9856 40.6563 35.8644 41.1043 35.8644C41.8368 35.8644 42.4061 36.0988 42.8125 36.5673C43.2187 37.0361 43.4219 37.7072 43.4219 38.5807V38.9703H39.6043C39.6181 39.5097 39.7795 39.9464 40.0885 40.2803C40.4011 40.6107 40.7968 40.776 41.276 40.776C41.6163 40.776 41.9045 40.7086 42.1405 40.5737C42.3768 40.4388 42.5835 40.2601 42.7605 40.0376L43.3491 40.4828C42.8768 41.1875 42.1685 41.54 41.224 41.54ZM41.1043 36.6331C40.7152 36.6331 40.3888 36.7714 40.1251 37.048C39.8611 37.3213 39.6979 37.7056 39.6355 38.2013H42.4584V38.1306C42.4307 37.6551 42.2987 37.2873 42.0624 37.0278C41.8264 36.7647 41.5069 36.6331 41.1043 36.6331ZM46.8021 40.776C47.1459 40.776 47.4461 40.675 47.7032 40.4727C47.96 40.2702 48.1024 40.0174 48.1301 39.7138H49.0416C49.0243 40.0275 48.9131 40.3258 48.7083 40.6092C48.5035 40.8925 48.2291 41.1184 47.8853 41.287C47.5451 41.4556 47.184 41.54 46.8021 41.54C46.0347 41.54 45.4237 41.2921 44.9688 40.7964C44.5173 40.2971 44.2917 39.6159 44.2917 38.7527V38.5958C44.2917 38.063 44.3923 37.5893 44.5939 37.1744C44.7952 36.7598 45.0832 36.4376 45.4584 36.2084C45.8368 35.9789 46.2829 35.8644 46.7968 35.8644C47.4288 35.8644 47.9531 36.0481 48.3699 36.4156C48.7899 36.7833 49.0139 37.2604 49.0416 37.8473H48.1301C48.1024 37.4932 47.9635 37.2032 47.7136 36.9771C47.4669 36.7479 47.1613 36.6331 46.7968 36.6331C46.3072 36.6331 45.9272 36.8051 45.6563 37.1493C45.3888 37.4899 45.2552 37.9838 45.2552 38.6312V38.8084C45.2552 39.439 45.3888 39.9247 45.6563 40.2652C45.9237 40.6058 46.3056 40.776 46.8021 40.776ZM51.6979 38.9045L51.0939 39.5165V41.4387H50.1301V33.6689H51.0939V38.3684L51.6093 37.7662L53.3645 35.9654H54.5365L52.3437 38.2518L54.7917 41.4387H53.6613L51.6979 38.9045ZM64.1613 37.9939C64.1613 38.7157 64.0365 39.3463 63.7864 39.8858C63.5365 40.4219 63.1824 40.8316 62.724 41.115C62.2656 41.3983 61.7309 41.54 61.1197 41.54C60.5227 41.54 59.9931 41.3983 59.5312 41.115C59.0693 40.8283 58.7101 40.4219 58.4531 39.8959C58.1997 39.3665 58.0693 38.7543 58.0624 38.0597V37.5285C58.0624 36.8204 58.1893 36.1949 58.4427 35.6518C58.6963 35.1089 59.0539 34.694 59.5157 34.4076C59.9808 34.1175 60.5123 33.9725 61.1093 33.9725C61.7171 33.9725 62.2517 34.1157 62.7136 34.4024C63.1789 34.6858 63.5365 35.0988 63.7864 35.6417C64.0365 36.1814 64.1613 36.8103 64.1613 37.5285V37.9939ZM63.1667 37.5184C63.1667 36.645 62.9861 35.9755 62.6251 35.5101C62.264 35.0413 61.7587 34.8072 61.1093 34.8072C60.4773 34.8072 59.9792 35.0413 59.6147 35.5101C59.2536 35.9755 59.0677 36.623 59.0573 37.4526V37.9939C59.0573 38.8403 59.2395 39.5064 59.6043 39.992C59.9723 40.4742 60.4773 40.7154 61.1197 40.7154C61.7656 40.7154 62.2656 40.4877 62.6197 40.0324C62.9739 39.5737 63.1563 38.918 63.1667 38.0648V37.5184ZM68.9896 40.8974C68.6147 41.3258 68.0643 41.54 67.3387 41.54C66.7379 41.54 66.2795 41.3714 65.9635 41.0342C65.6509 40.6933 65.4931 40.1909 65.4896 39.5266V35.9654H66.4531V39.5015C66.4531 40.331 66.8003 40.7457 67.4947 40.7457C68.2309 40.7457 68.7205 40.4794 68.9635 39.9464V35.9654H69.9272V41.4387H69.0104L68.9896 40.8974ZM72.7032 34.6402V35.9654H73.7552V36.6888H72.7032V40.0832C72.7032 40.3023 72.7499 40.4675 72.8437 40.5789C72.9376 40.6866 73.0973 40.7407 73.3229 40.7407C73.4341 40.7407 73.5869 40.7205 73.7813 40.6799V41.4387C73.5277 41.5061 73.2813 41.54 73.0416 41.54C72.6112 41.54 72.2864 41.4133 72.0677 41.1606C71.8491 40.9075 71.7395 40.5483 71.7395 40.0832V36.6888H70.7136V35.9654H71.7395V34.6402H72.7032Z" fill="black"/>
<path d="M100 200.46H0V216H100V200.46Z" fill="#BB0000"/>
<path fill-rule="evenodd" clip-rule="evenodd" d="M21.3333 201.755V214.705H21.0667V201.755H21.3333Z" fill="#DCDCDC"/>
<path fill-rule="evenodd" clip-rule="evenodd" d="M78.6667 201.755V214.705H78.4V201.755H78.6667Z" fill="#DCDCDC"/>
<path d="M85.2669 213.782H84.4725L84.2944 214.262H84.0365L84.7605 212.421H84.9792L85.7045 214.262H85.448L85.2669 213.782ZM84.5482 213.582H85.1928L84.8698 212.721L84.5482 213.582ZM86.4869 214.097C86.5728 214.097 86.648 214.071 86.7122 214.021C86.7765 213.97 86.812 213.907 86.8189 213.831H87.0469C87.0426 213.909 87.0146 213.984 86.9634 214.055C86.9122 214.126 86.8437 214.182 86.7578 214.224C86.6728 214.266 86.5824 214.287 86.4869 214.287C86.2952 214.287 86.1424 214.226 86.0285 214.101C85.9157 213.977 85.8594 213.807 85.8594 213.591V213.551C85.8594 213.418 85.8845 213.3 85.9349 213.196C85.9853 213.092 86.0573 213.012 86.1509 212.954C86.2456 212.897 86.3573 212.868 86.4856 212.868C86.6437 212.868 86.7746 212.915 86.8789 213.006C86.984 213.098 87.04 213.218 87.0469 213.364H86.8189C86.812 213.276 86.7773 213.203 86.7149 213.147C86.6533 213.089 86.5768 213.061 86.4856 213.061C86.3632 213.061 86.2682 213.104 86.2005 213.19C86.1336 213.275 86.1002 213.398 86.1002 213.56V213.604C86.1002 213.762 86.1336 213.884 86.2005 213.969C86.2674 214.054 86.3629 214.097 86.4869 214.097ZM87.8829 214.097C87.9688 214.097 88.0437 214.071 88.108 214.021C88.1722 213.97 88.208 213.907 88.2149 213.831H88.4426C88.4384 213.909 88.4106 213.984 88.3594 214.055C88.3082 214.126 88.2394 214.182 88.1536 214.224C88.0685 214.266 87.9784 214.287 87.8829 214.287C87.6909 214.287 87.5381 214.226 87.4245 214.101C87.3117 213.977 87.2552 213.807 87.2552 213.591V213.551C87.2552 213.418 87.2802 213.3 87.3306 213.196C87.381 213.092 87.453 213.012 87.5469 212.954C87.6416 212.897 87.753 212.868 87.8816 212.868C88.0394 212.868 88.1706 212.915 88.2746 213.006C88.3797 213.098 88.4357 213.218 88.4426 213.364H88.2149C88.208 213.276 88.173 213.203 88.1106 213.147C88.049 213.089 87.9725 213.061 87.8816 213.061C87.7592 213.061 87.664 213.104 87.5962 213.19C87.5296 213.275 87.496 213.398 87.496 213.56V213.604C87.496 213.762 87.5296 213.884 87.5962 213.969C87.6632 214.054 87.7586 214.097 87.8829 214.097ZM88.6498 213.565C88.6498 213.431 88.6765 213.311 88.7304 213.204C88.785 213.097 88.8608 213.014 88.957 212.956C89.0541 212.898 89.1648 212.868 89.289 212.868C89.4808 212.868 89.6357 212.933 89.7538 213.062C89.8728 213.191 89.9322 213.363 89.9322 213.577V213.593C89.9322 213.726 89.9058 213.846 89.8528 213.952C89.8008 214.058 89.7256 214.14 89.6277 214.199C89.5304 214.258 89.4184 214.287 89.2917 214.287C89.1008 214.287 88.9458 214.223 88.8269 214.094C88.7088 213.965 88.6498 213.794 88.6498 213.582V213.565ZM88.892 213.593C88.892 213.745 88.928 213.867 89 213.959C89.0728 214.05 89.1701 214.097 89.2917 214.097C89.4141 214.097 89.5112 214.05 89.5834 213.957C89.6554 213.864 89.6914 213.733 89.6914 213.565C89.6914 213.415 89.6544 213.294 89.5808 213.201C89.5077 213.107 89.4106 213.061 89.289 213.061C89.1701 213.061 89.0741 213.107 89.0013 213.199C88.9282 213.291 88.892 213.422 88.892 213.593ZM91.1042 214.127C91.0104 214.234 90.8728 214.287 90.6914 214.287C90.5413 214.287 90.4266 214.245 90.3477 214.161C90.2696 214.076 90.2301 213.95 90.229 213.784V212.894H90.4701V213.778C90.4701 213.985 90.5568 214.089 90.7304 214.089C90.9144 214.089 91.0368 214.022 91.0976 213.889V212.894H91.3386V214.262H91.1093L91.1042 214.127ZM91.9336 212.894L91.9413 213.066C92.049 212.934 92.1896 212.868 92.3632 212.868C92.661 212.868 92.8112 213.032 92.8138 213.358V214.262H92.5728V213.357C92.572 213.258 92.5485 213.185 92.5026 213.138C92.4573 213.091 92.3866 213.067 92.2904 213.067C92.2122 213.067 92.1437 213.087 92.0845 213.128C92.0256 213.168 91.9797 213.221 91.9466 213.287V214.262H91.7056V212.894H91.9336ZM93.504 212.563V212.894H93.7669V213.075H93.504V213.923C93.504 213.978 93.5157 214.019 93.5389 214.047C93.5624 214.074 93.6024 214.088 93.6589 214.088C93.6866 214.088 93.7248 214.083 93.7733 214.072V214.262C93.7101 214.279 93.6485 214.287 93.5885 214.287C93.4808 214.287 93.3997 214.256 93.345 214.193C93.2904 214.129 93.2629 214.04 93.2629 213.923V213.075H93.0064V212.894H93.2629V212.563H93.504Z" fill="#DCDCDC"/>
<path d="M89.3333 203.41C88.1936 203.41 87.2688 204.308 87.2688 205.415C87.2688 206.522 88.1936 207.42 89.3333 207.42C90.4731 207.42 91.3979 206.522 91.3979 205.415C91.3979 204.308 90.4731 203.41 89.3333 203.41ZM89.3333 206.417C88.7635 206.417 88.3011 205.968 88.3011 205.415C88.3011 204.861 88.7635 204.412 89.3333 204.412C89.9032 204.412 90.3656 204.861 90.3656 205.415C90.3656 205.968 89.9032 206.417 89.3333 206.417ZM89.3333 201.405C86.3872 201.405 84 203.723 84 206.584C84 209.446 86.3872 211.764 89.3333 211.764C92.2795 211.764 94.6667 209.446 94.6667 206.584C94.6667 203.723 92.2795 201.405 89.3333 201.405ZM89.3333 210.762C88.2645 210.762 87.2883 210.379 86.5355 209.751C86.856 209.27 87.4043 208.945 88.0323 208.926C88.4795 209.06 88.9053 209.126 89.3333 209.126C89.7613 209.126 90.1872 209.062 90.6344 208.926C91.2624 208.947 91.8107 209.27 92.1312 209.751C91.3784 210.379 90.4021 210.762 89.3333 210.762ZM92.8323 209.005C92.3075 208.349 91.4968 207.921 90.572 207.921C90.3528 207.921 90.0128 208.122 89.3333 208.122C88.656 208.122 88.3139 207.921 88.0947 207.921C87.172 207.921 86.3613 208.349 85.8344 209.005C85.3312 208.322 85.0323 207.487 85.0323 206.584C85.0323 204.281 86.9613 202.407 89.3333 202.407C91.7053 202.407 93.6344 204.281 93.6344 206.584C93.6344 207.487 93.3355 208.322 92.8323 209.005Z" fill="#DCDCDC"/>
<mask id="mask1_875_4525" style="mask-type:luminance" maskUnits="userSpaceOnUse" x="62" y="203" width="12" height="10">
<path d="M73.0667 203.568H62.4V212.777H73.0667V203.568Z" fill="white"/>
</mask>
<g mask="url(#mask1_875_4525)">
<path d="M72.18 208.988L73.0555 205.247C73.1187 204.977 72.9072 204.719 72.6222 204.719H65.3483L65.1787 203.914C65.1363 203.713 64.9542 203.568 64.7432 203.568H62.8446C62.599 203.568 62.4 203.762 62.4 204V204.288C62.4 204.526 62.599 204.719 62.8446 204.719H64.1387L65.4395 210.896C65.1283 211.07 64.9184 211.396 64.9184 211.77C64.9184 212.326 65.383 212.777 65.9555 212.777C66.5283 212.777 66.9926 212.326 66.9926 211.77C66.9926 211.488 66.8734 211.233 66.6811 211.05H70.5635C70.3712 211.233 70.2518 211.488 70.2518 211.77C70.2518 212.326 70.7163 212.777 71.2888 212.777C71.8616 212.777 72.3259 212.326 72.3259 211.77C72.3259 211.371 72.0872 211.026 71.7411 210.863L71.8432 210.426C71.9064 210.157 71.6952 209.899 71.4099 209.899H66.4392L66.3182 209.324H71.7467C71.9542 209.324 72.1342 209.184 72.18 208.988Z" fill="#DCDCDC"/>
</g>
<mask id="mask2_875_4525" style="mask-type:luminance" maskUnits="userSpaceOnUse" x="5" y="203" width="11" height="11">
<path d="M16 203.05H5.33331V213.41H16V203.05Z" fill="white"/>
</mask>
<g mask="url(#mask2_875_4525)">
<path d="M15.8541 212.008L13.7771 209.991C13.6833 209.899 13.5562 209.849 13.4229 209.849H13.0833C13.6583 209.135 14 208.236 14 207.259C14 204.934 12.0604 203.05 9.66665 203.05C7.27289 203.05 5.33331 204.934 5.33331 207.259C5.33331 209.584 7.27289 211.468 9.66665 211.468C10.6729 211.468 11.5979 211.136 12.3333 210.577V210.907C12.3333 211.037 12.3854 211.16 12.4792 211.251L14.5562 213.268C14.7521 213.458 15.0687 213.458 15.2625 213.268L15.8521 212.696C16.0479 212.506 16.0479 212.198 15.8541 212.008ZM9.66665 209.849C8.19374 209.849 6.99998 208.691 6.99998 207.259C6.99998 205.829 8.19163 204.669 9.66665 204.669C11.1396 204.669 12.3333 205.826 12.3333 207.259C12.3333 208.689 11.1416 209.849 9.66665 209.849Z" fill="#DCDCDC"/>
</g>
<path d="M27.0478 204.031H36.9523C37.1627 204.031 37.3334 203.865 37.3334 203.661V202.736C37.3334 202.531 37.1627 202.366 36.9523 202.366H27.0478C26.8374 202.366 26.6667 202.531 26.6667 202.736V203.661C26.6667 203.865 26.8374 204.031 27.0478 204.031ZM27.0478 207.73H36.9523C37.1627 207.73 37.3334 207.565 37.3334 207.361V206.436C37.3334 206.231 37.1627 206.066 36.9523 206.066H27.0478C26.8374 206.066 26.6667 206.231 26.6667 206.436V207.361C26.6667 207.565 26.8374 207.73 27.0478 207.73ZM27.0478 211.43H36.9523C37.1627 211.43 37.3334 211.265 37.3334 211.061V210.136C37.3334 209.931 37.1627 209.766 36.9523 209.766H27.0478C26.8374 209.766 26.6667 209.931 26.6667 210.136V211.061C26.6667 211.265 26.8374 211.43 27.0478 211.43Z" fill="#DCDCDC"/>
<path d="M26.948 214.565C26.9245 214.76 26.8501 214.91 26.7253 215.016C26.6011 215.122 26.4357 215.174 26.2292 215.174C26.0052 215.174 25.8255 215.096 25.6901 214.941C25.5555 214.784 25.4883 214.576 25.4883 214.315V214.137C25.4883 213.966 25.5195 213.816 25.582 213.686C25.6454 213.556 25.7348 213.457 25.8503 213.388C25.9657 213.317 26.0994 213.282 26.2513 213.282C26.4527 213.282 26.6141 213.337 26.7357 213.447C26.8573 213.556 26.928 213.707 26.948 213.9H26.6965C26.6749 213.753 26.6276 213.647 26.5547 213.581C26.4826 213.515 26.3815 213.482 26.2513 213.482C26.0916 213.482 25.9661 213.54 25.875 213.654C25.7847 213.769 25.7396 213.932 25.7396 214.144V214.322C25.7396 214.522 25.7825 214.681 25.8685 214.799C25.9544 214.917 26.0746 214.976 26.2292 214.976C26.368 214.976 26.4744 214.945 26.5482 214.885C26.6228 214.823 26.6723 214.717 26.6965 214.565H26.948ZM28.1224 215.149C28.1085 215.122 28.0973 215.074 28.0885 215.005C27.9765 215.118 27.8429 215.174 27.6875 215.174C27.5485 215.174 27.4344 215.137 27.3451 215.061C27.2565 214.984 27.2123 214.887 27.2123 214.77C27.2123 214.627 27.2677 214.517 27.3789 214.438C27.4909 214.359 27.648 214.319 27.8501 214.319H28.0845V214.212C28.0845 214.13 28.0595 214.065 28.0091 214.017C27.9587 213.968 27.8845 213.944 27.7864 213.944C27.7005 213.944 27.6285 213.965 27.5704 214.007C27.5123 214.049 27.4832 214.1 27.4832 214.16H27.2408C27.2408 214.092 27.2656 214.026 27.3152 213.963C27.3653 213.899 27.4331 213.848 27.5181 213.811C27.6043 213.774 27.6984 213.755 27.8008 213.755C27.9632 213.755 28.0904 213.795 28.1824 213.874C28.2744 213.953 28.3221 214.061 28.3256 214.199V214.829C28.3256 214.955 28.3421 215.055 28.3749 215.129V215.149H28.1224ZM27.7227 214.971C27.7981 214.971 27.8699 214.952 27.9376 214.914C28.0053 214.876 28.0541 214.827 28.0845 214.766V214.485H27.8957C27.6008 214.485 27.4531 214.569 27.4531 214.737C27.4531 214.81 27.4784 214.867 27.5285 214.909C27.5789 214.95 27.6437 214.971 27.7227 214.971ZM29.0299 213.45V213.781H29.2931V213.962H29.0299V214.81C29.0299 214.865 29.0416 214.906 29.0651 214.934C29.0885 214.961 29.1285 214.975 29.1848 214.975C29.2128 214.975 29.2509 214.97 29.2995 214.959V215.149C29.236 215.166 29.1744 215.174 29.1147 215.174C29.0069 215.174 28.9259 215.143 28.8712 215.08C28.8165 215.016 28.7891 214.927 28.7891 214.81V213.962H28.5325V213.781H28.7891V213.45H29.0299ZM30.1603 215.174C29.9691 215.174 29.8139 215.114 29.6941 214.992C29.5741 214.87 29.5144 214.707 29.5144 214.503V214.46C29.5144 214.324 29.5408 214.203 29.5939 214.097C29.6475 213.99 29.7221 213.906 29.8176 213.847C29.9141 213.786 30.0181 213.755 30.1301 213.755C30.3133 213.755 30.4557 213.814 30.5573 213.931C30.6589 214.049 30.7096 214.216 30.7096 214.435V214.532H29.7552C29.7587 214.667 29.7989 214.776 29.8763 214.859C29.9544 214.942 30.0533 214.984 30.1731 214.984C30.2581 214.984 30.3304 214.967 30.3893 214.933C30.4483 214.899 30.5 214.855 30.5443 214.799L30.6915 214.91C30.5733 215.086 30.3963 215.174 30.1603 215.174ZM30.1301 213.948C30.0331 213.948 29.9515 213.982 29.8853 214.051C29.8195 214.12 29.7787 214.216 29.7629 214.34H30.4688V214.322C30.4619 214.203 30.4288 214.111 30.3699 214.046C30.3107 213.981 30.2309 213.948 30.1301 213.948ZM30.9323 214.454C30.9323 214.24 30.9832 214.071 31.0845 213.945C31.1861 213.819 31.3208 213.755 31.4883 213.755C31.6603 213.755 31.7944 213.814 31.8907 213.933L31.9024 213.781H32.1224V215.116C32.1224 215.293 32.0683 215.433 31.9597 215.535C31.852 215.637 31.7069 215.688 31.5248 215.688C31.4232 215.688 31.3237 215.667 31.2267 215.625C31.1293 215.583 31.0552 215.525 31.004 215.451L31.1288 215.311C31.2323 215.435 31.3584 215.497 31.5077 215.497C31.6251 215.497 31.7163 215.465 31.7813 215.401C31.8472 215.337 31.8803 215.246 31.8803 215.13V215.013C31.7837 215.121 31.6523 215.174 31.4856 215.174C31.3208 215.174 31.1869 215.11 31.0845 214.981C30.9832 214.852 30.9323 214.676 30.9323 214.454ZM31.1744 214.48C31.1744 214.634 31.2069 214.756 31.2723 214.844C31.3373 214.932 31.4283 214.976 31.5456 214.976C31.6976 214.976 31.8091 214.909 31.8803 214.775V214.15C31.8064 214.019 31.6957 213.954 31.5483 213.954C31.4309 213.954 31.3395 213.998 31.2733 214.087C31.2075 214.175 31.1744 214.307 31.1744 214.48ZM32.4232 214.452C32.4232 214.318 32.4501 214.198 32.504 214.091C32.5587 213.984 32.6341 213.901 32.7304 213.843C32.8277 213.785 32.9384 213.755 33.0624 213.755C33.2544 213.755 33.4093 213.82 33.5275 213.949C33.6464 214.078 33.7056 214.25 33.7056 214.464V214.48C33.7056 214.613 33.6792 214.733 33.6264 214.839C33.5741 214.945 33.4992 215.027 33.4011 215.086C33.3037 215.145 33.1917 215.174 33.0651 215.174C32.8741 215.174 32.7192 215.11 32.6003 214.981C32.4821 214.852 32.4232 214.681 32.4232 214.469V214.452ZM32.6653 214.48C32.6653 214.632 32.7013 214.754 32.7733 214.845C32.8464 214.937 32.9435 214.984 33.0651 214.984C33.1875 214.984 33.2848 214.937 33.3568 214.844C33.4288 214.751 33.4648 214.62 33.4648 214.452C33.4648 214.302 33.428 214.181 33.3541 214.088C33.2813 213.994 33.184 213.948 33.0624 213.948C32.9435 213.948 32.8477 213.994 32.7747 214.086C32.7019 214.178 32.6653 214.309 32.6653 214.48ZM34.6888 213.991C34.6523 213.985 34.6128 213.982 34.5704 213.982C34.4123 213.982 34.3051 214.047 34.2488 214.178V215.149H34.0077V213.781H34.2421L34.2461 213.939C34.3251 213.817 34.4371 213.755 34.5821 213.755C34.6288 213.755 34.6645 213.761 34.6888 213.773V213.991ZM35.1731 215.149H34.9323V213.781H35.1731V215.149ZM34.9128 213.418C34.9128 213.38 34.9245 213.348 34.948 213.322C34.9723 213.296 35.0077 213.282 35.0547 213.282C35.1016 213.282 35.1371 213.296 35.1613 213.322C35.1859 213.348 35.1979 213.38 35.1979 213.418C35.1979 213.456 35.1859 213.487 35.1613 213.513C35.1371 213.538 35.1016 213.551 35.0547 213.551C35.0077 213.551 34.9723 213.538 34.948 213.513C34.9245 213.487 34.9128 213.456 34.9128 213.418ZM36.1445 215.174C35.9536 215.174 35.7981 215.114 35.6784 214.992C35.5587 214.87 35.4987 214.707 35.4987 214.503V214.46C35.4987 214.324 35.5251 214.203 35.5781 214.097C35.632 213.99 35.7067 213.906 35.8021 213.847C35.8984 213.786 36.0027 213.755 36.1147 213.755C36.2979 213.755 36.44 213.814 36.5416 213.931C36.6432 214.049 36.6941 214.216 36.6941 214.435V214.532H35.7395C35.7429 214.667 35.7835 214.776 35.8608 214.859C35.9389 214.942 36.0379 214.984 36.1576 214.984C36.2427 214.984 36.3147 214.967 36.3736 214.933C36.4328 214.899 36.4843 214.855 36.5285 214.799L36.6757 214.91C36.5576 215.086 36.3805 215.174 36.1445 215.174ZM36.1147 213.948C36.0173 213.948 35.9357 213.982 35.8699 214.051C35.8037 214.12 35.7629 214.216 35.7475 214.34H36.4531V214.322C36.4461 214.203 36.4131 214.111 36.3541 214.046C36.2952 213.981 36.2152 213.948 36.1147 213.948ZM37.7944 214.786C37.7944 214.723 37.7696 214.674 37.72 214.64C37.6715 214.604 37.5859 214.574 37.4635 214.548C37.3421 214.523 37.2453 214.493 37.1731 214.457C37.1019 214.422 37.0491 214.38 37.0144 214.331C36.9805 214.282 36.9635 214.224 36.9635 214.156C36.9635 214.044 37.0123 213.949 37.1093 213.872C37.2075 213.794 37.3325 213.755 37.4843 213.755C37.644 213.755 37.7733 213.796 37.8723 213.876C37.9723 213.956 38.0221 214.058 38.0221 214.183H37.78C37.78 214.119 37.7517 214.064 37.6952 214.017C37.6397 213.971 37.5693 213.948 37.4843 213.948C37.3968 213.948 37.328 213.966 37.2787 214.004C37.2291 214.041 37.2045 214.089 37.2045 214.149C37.2045 214.205 37.2275 214.248 37.2733 214.276C37.3195 214.305 37.4024 214.333 37.5221 214.359C37.6427 214.385 37.7405 214.416 37.8152 214.452C37.8899 214.489 37.9448 214.532 37.9805 214.584C38.0168 214.634 38.0352 214.696 38.0352 214.77C38.0352 214.892 37.9848 214.99 37.884 215.064C37.7835 215.138 37.6528 215.174 37.4923 215.174C37.3795 215.174 37.2795 215.155 37.1928 215.116C37.1059 215.078 37.0379 215.023 36.9883 214.954C36.9397 214.884 36.9155 214.809 36.9155 214.728H37.1563C37.1605 214.806 37.1928 214.869 37.2525 214.915C37.3133 214.961 37.3933 214.984 37.4923 214.984C37.5835 214.984 37.6563 214.966 37.7109 214.93C37.7664 214.894 37.7944 214.846 37.7944 214.786Z" fill="#DCDCDC"/>
<path d="M50 211.727C55.4492 211.727 59.8667 207.436 59.8667 202.144C59.8667 196.851 55.4492 192.561 50 192.561C44.5508 192.561 40.1334 196.851 40.1334 202.144C40.1334 207.436 44.5508 211.727 50 211.727Z" fill="#BB0000"/>
<path fill-rule="evenodd" clip-rule="evenodd" d="M50 192.691C44.6244 192.691 40.2667 196.923 40.2667 202.144C40.2667 207.365 44.6244 211.597 50 211.597C55.3756 211.597 59.7333 207.365 59.7333 202.144C59.7333 196.923 55.3756 192.691 50 192.691ZM40 202.144C40 196.78 44.4772 192.432 50 192.432C55.5228 192.432 60 196.78 60 202.144C60 207.508 55.5228 211.856 50 211.856C44.4772 211.856 40 207.508 40 202.144Z" fill="black"/>
<mask id="mask3_875_4525" style="mask-type:luminance" maskUnits="userSpaceOnUse" x="44" y="197" width="12" height="11">
<path d="M56 197.094H44V207.453H56V197.094Z" fill="white"/>
</mask>
<g mask="url(#mask3_875_4525)">
<path d="M49.8411 200.093L46 203.166V206.482C46 206.568 46.0352 206.65 46.0976 206.711C46.16 206.771 46.2448 206.806 46.3333 206.806L48.668 206.8C48.756 206.799 48.8403 206.765 48.9024 206.704C48.9648 206.644 48.9995 206.562 48.9995 206.476V204.539C48.9995 204.453 49.0347 204.371 49.0971 204.311C49.1597 204.25 49.2445 204.216 49.3328 204.216H50.6661C50.7547 204.216 50.8395 204.25 50.9019 204.311C50.9645 204.371 50.9995 204.453 50.9995 204.539V206.475C50.9995 206.517 51.008 206.559 51.0245 206.599C51.0413 206.638 51.0659 206.674 51.0968 206.704C51.1277 206.734 51.1645 206.758 51.2051 206.775C51.2456 206.791 51.2891 206.799 51.3328 206.799L53.6667 206.806C53.7549 206.806 53.8397 206.771 53.9024 206.711C53.9648 206.65 54 206.568 54 206.482V203.164L50.1597 200.093C50.1147 200.058 50.0584 200.039 50.0003 200.039C49.9424 200.039 49.8861 200.058 49.8411 200.093ZM55.9083 202.182L54.1667 200.787V197.985C54.1667 197.92 54.1403 197.858 54.0933 197.813C54.0467 197.768 53.9829 197.742 53.9165 197.742H52.7499C52.6837 197.742 52.62 197.768 52.5733 197.813C52.5264 197.858 52.5 197.92 52.5 197.985V199.454L50.6347 197.963C50.4557 197.82 50.2312 197.742 49.9995 197.742C49.7675 197.742 49.5429 197.82 49.364 197.963L44.0904 202.182C44.0651 202.202 44.0443 202.227 44.0288 202.255C44.0133 202.283 44.004 202.314 44.0008 202.346C43.9976 202.378 44.0011 202.41 44.0107 202.44C44.0203 202.471 44.036 202.499 44.0571 202.523L44.5883 203.151C44.6093 203.176 44.6349 203.196 44.664 203.211C44.6928 203.226 44.7248 203.235 44.7573 203.238C44.7901 203.241 44.8232 203.238 44.8547 203.229C44.8861 203.219 44.9152 203.204 44.9405 203.184L49.8411 199.264C49.8861 199.228 49.9424 199.209 50.0003 199.209C50.0584 199.209 50.1147 199.228 50.1597 199.264L55.0603 203.184C55.0856 203.204 55.1149 203.219 55.1464 203.229C55.1776 203.238 55.2107 203.241 55.2435 203.239C55.276 203.235 55.3077 203.226 55.3368 203.211C55.3659 203.196 55.3915 203.176 55.4125 203.152L55.9437 202.524C55.9645 202.499 55.9803 202.471 55.9899 202.44C55.9995 202.41 56.0027 202.378 55.9995 202.346C55.996 202.314 55.9864 202.283 55.9707 202.255C55.9552 202.227 55.9339 202.202 55.9083 202.182Z" fill="#DCDCDC"/>
</g>
<path fill-rule="evenodd" clip-rule="evenodd" d="M10.1334 109.813H89.8667V119.396H10.1334V109.813ZM10.4 110.072V119.137H89.6V110.072H10.4Z" fill="black"/>
<path d="M15.5938 115.211C15.561 115.484 15.4571 115.694 15.2821 115.843C15.1083 115.99 14.8768 116.064 14.5875 116.064C14.274 116.064 14.0224 115.955 13.8328 115.737C13.6445 115.518 13.5503 115.226 13.5503 114.86V114.612C13.5503 114.373 13.594 114.162 13.6815 113.98C13.7702 113.799 13.8954 113.659 14.0571 113.563C14.2187 113.464 14.4058 113.416 14.6185 113.416C14.9005 113.416 15.1265 113.492 15.2966 113.646C15.4668 113.798 15.5658 114.009 15.5938 114.28H15.2419C15.2116 114.074 15.1453 113.925 15.0433 113.833C14.9424 113.741 14.8008 113.695 14.6185 113.695C14.3949 113.695 14.2193 113.776 14.0917 113.936C13.9653 114.097 13.9021 114.325 13.9021 114.621V114.871C13.9021 115.151 13.9623 115.373 14.0826 115.538C14.2029 115.703 14.3712 115.786 14.5875 115.786C14.782 115.786 14.9309 115.744 15.0341 115.659C15.1387 115.573 15.2079 115.423 15.2419 115.211H15.5938ZM16.9518 115.577L17.7102 113.451H18.093L17.1086 116.029H16.7987L15.8162 113.451H16.1972L16.9518 115.577ZM19.3289 115.577L20.0873 113.451H20.4701L19.4857 116.029H19.1758L18.1933 113.451H18.5742L19.3289 115.577Z" fill="black"/>
<path fill-rule="evenodd" clip-rule="evenodd" d="M10.1334 67.5972H89.8667V77.1799H10.1334V67.5972ZM10.4 67.8562V76.9209H89.6V67.8562H10.4Z" fill="black"/>
<path d="M15.6813 73.8129H15.3294L13.9932 71.8265V73.8129H13.6414V71.2352H13.9932L15.3331 73.2305V71.2352H15.6813V73.8129ZM17.4677 73.8129C17.4483 73.7751 17.4325 73.7078 17.4203 73.6112C17.2636 73.7692 17.0764 73.8484 16.8589 73.8484C16.6644 73.8484 16.5046 73.7953 16.3794 73.6889C16.2555 73.5816 16.1935 73.4459 16.1935 73.2817C16.1935 73.0823 16.2713 72.9277 16.4268 72.8179C16.5836 72.707 16.8036 72.6516 17.0867 72.6516H17.4149V72.5011C17.4149 72.3867 17.3796 72.2957 17.3091 72.2284C17.2386 72.16 17.1347 72.1256 16.9974 72.1256C16.8771 72.1256 16.7762 72.1551 16.6948 72.2142C16.6134 72.2732 16.5727 72.3447 16.5727 72.4284H16.2336C16.2336 72.3328 16.2682 72.2408 16.3375 72.1523C16.408 72.0627 16.5028 71.9917 16.6219 71.9399C16.7422 71.8878 16.8741 71.8619 17.0174 71.8619C17.2447 71.8619 17.4228 71.9174 17.5516 72.0282C17.6804 72.138 17.7472 72.2898 17.7521 72.4833V73.3651C17.7521 73.541 17.7752 73.6808 17.8214 73.7847V73.8129H17.4677ZM16.9081 73.5633C17.0138 73.5633 17.1141 73.5368 17.2089 73.4838C17.3037 73.4304 17.3723 73.3615 17.4149 73.2766V72.8834H17.1505C16.7373 72.8834 16.5307 73.001 16.5307 73.2356C16.5307 73.3385 16.566 73.4187 16.6365 73.4765C16.7069 73.5343 16.7975 73.5633 16.9081 73.5633ZM18.5979 71.8974L18.607 72.1098C18.7517 71.9446 18.9467 71.8619 19.1922 71.8619C19.4681 71.8619 19.6558 71.9645 19.7555 72.1699C19.8211 72.0779 19.9062 72.0036 20.0107 71.9469C20.1164 71.8902 20.241 71.8619 20.3844 71.8619C20.817 71.8619 21.037 72.0844 21.0443 72.5294V73.8129H20.707V72.5488C20.707 72.4118 20.6748 72.3097 20.6104 72.2427C20.546 72.174 20.4378 72.1398 20.286 72.1398C20.1608 72.1398 20.0569 72.1764 19.9742 72.2496C19.8916 72.3216 19.8436 72.419 19.8302 72.5418V73.8129H19.4912V72.5576C19.4912 72.2792 19.3508 72.1398 19.0701 72.1398C18.8489 72.1398 18.6976 72.2313 18.6161 72.4144V73.8129H18.2789V71.8974H18.5979ZM22.3732 73.8484C22.1058 73.8484 21.8883 73.7635 21.7206 73.5933C21.5529 73.4224 21.469 73.1939 21.469 72.9083V72.8479C21.469 72.6581 21.5061 72.4887 21.5802 72.3398C21.6556 72.1901 21.7601 72.0733 21.8938 71.9894C22.0286 71.9044 22.1745 71.8619 22.3313 71.8619C22.5877 71.8619 22.787 71.944 22.9292 72.108C23.0714 72.2719 23.1425 72.5068 23.1425 72.8127V72.9489H21.8062C21.8111 73.1377 21.8676 73.2905 21.9758 73.4076C22.0852 73.5231 22.2237 73.5809 22.3914 73.5809C22.5105 73.5809 22.6114 73.5573 22.694 73.5102C22.7766 73.463 22.849 73.4004 22.9109 73.3224L23.1169 73.4783C22.9517 73.7249 22.7037 73.8484 22.3732 73.8484ZM22.3313 72.131C22.1952 72.131 22.0809 72.1795 21.9885 72.2761C21.8962 72.3719 21.8391 72.5063 21.8172 72.6798H22.8052V72.655C22.7955 72.4887 22.7493 72.36 22.6667 72.2691C22.584 72.1771 22.4722 72.131 22.3313 72.131ZM24.3711 72.8373C24.3711 72.6498 24.4088 72.4809 24.4841 72.331C24.5607 72.1813 24.6664 72.0655 24.8013 71.9839C24.9374 71.9026 25.0924 71.8619 25.2661 71.8619C25.5347 71.8619 25.7517 71.9521 25.9169 72.1328C26.0834 72.3134 26.1667 72.5535 26.1667 72.8534V72.8764C26.1667 73.0629 26.1296 73.2305 26.0555 73.3791C25.9826 73.5267 25.8774 73.6417 25.7401 73.7244C25.604 73.807 25.4472 73.8484 25.2698 73.8484C25.0024 73.8484 24.7855 73.758 24.619 73.5775C24.4537 73.397 24.3711 73.1579 24.3711 72.8604V72.8373ZM24.7102 72.8764C24.7102 73.0888 24.7606 73.2595 24.8615 73.3879C24.9636 73.5166 25.0997 73.5809 25.2698 73.5809C25.4412 73.5809 25.5773 73.5161 25.6781 73.3864C25.779 73.2553 25.8294 73.0722 25.8294 72.8373C25.8294 72.6273 25.7778 72.4574 25.6745 72.3276C25.5724 72.1966 25.4363 72.131 25.2661 72.131C25.0997 72.131 24.9654 72.1953 24.8633 72.324C24.7612 72.4527 24.7102 72.6368 24.7102 72.8764ZM26.9085 71.8974L26.9195 72.138C27.0701 71.9539 27.2672 71.8619 27.5101 71.8619C27.9269 71.8619 28.1373 72.0904 28.1408 72.547V73.8129H27.8037V72.5452C27.8024 72.4071 27.7696 72.3051 27.7053 72.239C27.6421 72.173 27.5429 72.1398 27.408 72.1398C27.2987 72.1398 27.2027 72.1681 27.12 72.2248C27.0373 72.2815 26.9731 72.3558 26.9269 72.4478V73.8129H26.5896V71.8974H26.9085ZM31.5808 72.995C31.548 73.2678 31.444 73.4783 31.2691 73.627C31.0952 73.7746 30.8637 73.8484 30.5744 73.8484C30.2611 73.8484 30.0093 73.7391 29.8197 73.5208C29.6315 73.3025 29.5373 73.0103 29.5373 72.6444V72.3965C29.5373 72.1569 29.5811 71.9464 29.6685 71.7646C29.7573 71.5827 29.8824 71.4434 30.044 71.3468C30.2056 71.2486 30.3928 71.1997 30.6056 71.1997C30.8875 71.1997 31.1133 71.2764 31.2835 71.4299C31.4536 71.5822 31.5528 71.7933 31.5808 72.0637H31.2288C31.1984 71.8583 31.1323 71.7097 31.0301 71.6175C30.9293 71.5255 30.7877 71.4794 30.6056 71.4794C30.3819 71.4794 30.2061 71.5597 30.0787 71.7203C29.9523 71.8808 29.8891 72.1093 29.8891 72.4053V72.655C29.8891 72.9347 29.9493 73.1572 30.0696 73.3224C30.1899 73.4876 30.3581 73.5703 30.5744 73.5703C30.7688 73.5703 30.9179 73.5278 31.0211 73.4428C31.1256 73.3568 31.1949 73.2074 31.2288 72.995H31.5808ZM33.2251 73.8129C33.2056 73.7751 33.1899 73.7078 33.1776 73.6112C33.0208 73.7692 32.8336 73.8484 32.6163 73.8484C32.4216 73.8484 32.2619 73.7953 32.1368 73.6889C32.0128 73.5816 31.9507 73.4459 31.9507 73.2817C31.9507 73.0823 32.0285 72.9277 32.184 72.8179C32.3408 72.707 32.5608 72.6516 32.844 72.6516H33.1723V72.5011C33.1723 72.3867 33.1368 72.2957 33.0664 72.2284C32.996 72.16 32.892 72.1256 32.7547 72.1256C32.6344 72.1256 32.5336 72.1551 32.452 72.2142C32.3707 72.2732 32.3299 72.3447 32.3299 72.4284H31.9909C31.9909 72.3328 32.0256 72.2408 32.0947 72.1523C32.1653 72.0627 32.26 71.9917 32.3792 71.9399C32.4995 71.8878 32.6315 71.8619 32.7747 71.8619C33.0019 71.8619 33.18 71.9174 33.3088 72.0282C33.4376 72.138 33.5045 72.2898 33.5093 72.4833V73.3651C33.5093 73.541 33.5325 73.6808 33.5787 73.7847V73.8129H33.2251ZM32.6653 73.5633C32.7712 73.5633 32.8715 73.5368 32.9661 73.4838C33.0611 73.4304 33.1296 73.3615 33.1723 73.2766V72.8834H32.9077C32.4947 72.8834 32.288 73.001 32.288 73.2356C32.288 73.3385 32.3232 73.4187 32.3939 73.4765C32.4643 73.5343 32.5547 73.5633 32.6653 73.5633ZM34.9915 72.1911C34.9403 72.1828 34.8851 72.1787 34.8256 72.1787C34.6043 72.1787 34.4541 72.2704 34.3752 72.4532V73.8129H34.0381V71.8974H34.3661L34.3717 72.1186C34.4821 71.9474 34.6389 71.8619 34.8419 71.8619C34.9075 71.8619 34.9573 71.8702 34.9915 71.8865V72.1911ZM35.1845 72.8391C35.1845 72.5452 35.2563 72.3092 35.3997 72.131C35.5432 71.9516 35.7309 71.8619 35.9629 71.8619C36.1939 71.8619 36.3768 71.9386 36.5117 72.0919V71.0935H36.8491V73.8129H36.5389L36.5227 73.6075C36.3877 73.7681 36.2 73.8484 35.9595 73.8484C35.7309 73.8484 35.5443 73.7575 35.3997 73.5757C35.2563 73.3939 35.1845 73.1566 35.1845 72.864V72.8391ZM35.5219 72.8764C35.5219 73.0934 35.568 73.2636 35.6605 73.3864C35.7528 73.5089 35.8803 73.5703 36.0432 73.5703C36.2571 73.5703 36.4133 73.477 36.5117 73.2905V72.4107C36.4109 72.2302 36.256 72.1398 36.0469 72.1398C35.8816 72.1398 35.7528 72.2017 35.6605 72.3258C35.568 72.4496 35.5219 72.6332 35.5219 72.8764Z" fill="black"/>
<path fill-rule="evenodd" clip-rule="evenodd" d="M10.1334 82.3596H89.8667V91.9424H10.1334V82.3596ZM10.4 82.6186V91.6834H89.6V82.6186H10.4Z" fill="black"/>
<path d="M15.5938 87.7577C15.561 88.0304 15.4571 88.241 15.2821 88.3897C15.1083 88.5373 14.8768 88.6111 14.5875 88.6111C14.274 88.6111 14.0224 88.5018 13.8328 88.2835C13.6445 88.0652 13.5503 87.773 13.5503 87.4071V87.1592C13.5503 86.9196 13.594 86.7091 13.6815 86.5273C13.7702 86.3454 13.8954 86.2061 14.0571 86.1095C14.2187 86.0113 14.4058 85.9624 14.6185 85.9624C14.9005 85.9624 15.1265 86.0391 15.2966 86.1926C15.4668 86.3449 15.5658 86.556 15.5938 86.8264H15.2419C15.2116 86.621 15.1453 86.4723 15.0433 86.3801C14.9424 86.2882 14.8008 86.2421 14.6185 86.2421C14.3949 86.2421 14.2193 86.3224 14.0917 86.483C13.9653 86.6435 13.9021 86.872 13.9021 87.168V87.4177C13.9021 87.6974 13.9623 87.9199 14.0826 88.0851C14.2029 88.2503 14.3712 88.3329 14.5875 88.3329C14.782 88.3329 14.9309 88.2905 15.0341 88.2055C15.1387 88.1195 15.2079 87.9701 15.2419 87.7577H15.5938ZM16.9737 86.9538C16.9227 86.9455 16.8674 86.9414 16.8078 86.9414C16.5867 86.9414 16.4366 87.0331 16.3576 87.2159V88.5756H16.0203V86.6601H16.3485L16.3539 86.8813C16.4645 86.7101 16.6213 86.6246 16.8242 86.6246C16.8899 86.6246 16.9397 86.6329 16.9737 86.6492V86.9538ZM18.0675 88.6111C17.8001 88.6111 17.5826 88.5262 17.4149 88.356C17.2472 88.1851 17.1633 87.9566 17.1633 87.671V87.6106C17.1633 87.4208 17.2004 87.2514 17.2745 87.1025C17.3498 86.9528 17.4544 86.836 17.5881 86.7521C17.7229 86.6671 17.8688 86.6246 18.0255 86.6246C18.282 86.6246 18.4813 86.7067 18.6235 86.8707C18.7657 87.0346 18.8367 87.2695 18.8367 87.5754V87.7116H17.5006C17.5054 87.9004 17.5619 88.0532 17.6701 88.1703C17.7795 88.2858 17.918 88.3436 18.0857 88.3436C18.2048 88.3436 18.3057 88.32 18.3883 88.2729C18.471 88.2257 18.5433 88.163 18.6052 88.0851L18.8112 88.241C18.6459 88.4876 18.398 88.6111 18.0675 88.6111ZM18.0255 86.8937C17.8894 86.8937 17.7752 86.9422 17.6828 87.0388C17.5905 87.1346 17.5334 87.269 17.5115 87.4425H18.4995V87.4177C18.4898 87.2514 18.4436 87.1227 18.361 87.0318C18.2783 86.9398 18.1665 86.8937 18.0255 86.8937ZM19.1466 87.6018C19.1466 87.3079 19.2183 87.0719 19.3617 86.8937C19.5051 86.7142 19.6929 86.6246 19.925 86.6246C20.1559 86.6246 20.3388 86.7013 20.4737 86.8546V85.8562H20.811V88.5756H20.5011L20.4847 88.3702C20.3498 88.5308 20.162 88.6111 19.9214 88.6111C19.6929 88.6111 19.5064 88.5202 19.3617 88.3384C19.2183 88.1566 19.1466 87.9193 19.1466 87.6267V87.6018ZM19.4839 87.6391C19.4839 87.8561 19.5301 88.0263 19.6224 88.1491C19.7148 88.2716 19.8424 88.3329 20.0052 88.3329C20.2191 88.3329 20.3753 88.2397 20.4737 88.0532V87.1734C20.3729 86.9929 20.2179 86.9025 20.0089 86.9025C19.8436 86.9025 19.7148 86.9644 19.6224 87.0885C19.5301 87.2123 19.4839 87.3959 19.4839 87.6391ZM21.7024 88.5756H21.3651V86.6601H21.7024V88.5756ZM21.3378 86.152C21.3378 86.0989 21.3542 86.0538 21.387 86.0173C21.421 85.9808 21.4709 85.9624 21.5365 85.9624C21.6021 85.9624 21.6519 85.9808 21.686 86.0173C21.72 86.0538 21.737 86.0989 21.737 86.152C21.737 86.2051 21.72 86.2494 21.686 86.2846C21.6519 86.3201 21.6021 86.3377 21.5365 86.3377C21.4709 86.3377 21.421 86.3201 21.387 86.2846C21.3542 86.2494 21.3378 86.2051 21.3378 86.152ZM22.7013 86.196V86.6601H23.0695V86.9131H22.7013V88.1012C22.7013 88.1778 22.7177 88.2358 22.7506 88.2747C22.7834 88.3125 22.8393 88.3314 22.9183 88.3314C22.9571 88.3314 23.0106 88.3241 23.0787 88.3102V88.5756C22.9899 88.5992 22.9037 88.6111 22.8198 88.6111C22.6691 88.6111 22.5555 88.5668 22.4789 88.4782C22.4024 88.3897 22.3641 88.2641 22.3641 88.1012V86.9131H22.005V86.6601H22.3641V86.196H22.7013ZM26.3964 87.7577C26.3636 88.0304 26.2597 88.241 26.0847 88.3897C25.9109 88.5373 25.6794 88.6111 25.3901 88.6111C25.0766 88.6111 24.825 88.5018 24.6354 88.2835C24.4471 88.0652 24.3529 87.773 24.3529 87.4071V87.1592C24.3529 86.9196 24.3966 86.7091 24.4841 86.5273C24.5729 86.3454 24.698 86.2061 24.8597 86.1095C25.0213 86.0113 25.2085 85.9624 25.4211 85.9624C25.7031 85.9624 25.9291 86.0391 26.0993 86.1926C26.2694 86.3449 26.3684 86.556 26.3964 86.8264H26.0446C26.0142 86.621 25.9479 86.4723 25.8459 86.3801C25.745 86.2882 25.6034 86.2421 25.4211 86.2421C25.1975 86.2421 25.0219 86.3224 24.8943 86.483C24.7679 86.6435 24.7047 86.872 24.7047 87.168V87.4177C24.7047 87.6974 24.7649 87.9199 24.8852 88.0851C25.0055 88.2503 25.1738 88.3329 25.3901 88.3329C25.5846 88.3329 25.7334 88.2905 25.8367 88.2055C25.9413 88.1195 26.0105 87.9701 26.0446 87.7577H26.3964ZM28.0406 88.5756C28.0211 88.5378 28.0054 88.4705 27.9934 88.3739C27.8366 88.5319 27.6494 88.6111 27.4318 88.6111C27.2374 88.6111 27.0776 88.558 26.9523 88.4516C26.8283 88.3443 26.7664 88.2086 26.7664 88.0444C26.7664 87.845 26.8443 87.6904 26.9998 87.5806C27.1566 87.4697 27.3766 87.4143 27.6598 87.4143H27.9878V87.2638C27.9878 87.1494 27.9526 87.0584 27.8822 86.9911C27.8115 86.9227 27.7078 86.8883 27.5704 86.8883C27.4502 86.8883 27.3491 86.9178 27.2678 86.9769C27.1864 87.0359 27.1456 87.1074 27.1456 87.191H26.8064C26.8064 87.0955 26.8411 87.0035 26.9104 86.915C26.9808 86.8254 27.0758 86.7544 27.1947 86.7026C27.3152 86.6505 27.447 86.6246 27.5904 86.6246C27.8176 86.6246 27.9958 86.6801 28.1246 86.7909C28.2534 86.9007 28.3203 87.0525 28.3251 87.246V88.1278C28.3251 88.3037 28.348 88.4435 28.3944 88.5474V88.5756H28.0406ZM27.4811 88.326C27.5867 88.326 27.687 88.2995 27.7819 88.2464C27.8766 88.1931 27.9454 88.1242 27.9878 88.0392V87.6461H27.7235C27.3102 87.6461 27.1038 87.7637 27.1038 87.9983C27.1038 88.1011 27.139 88.1814 27.2094 88.2392C27.2798 88.2969 27.3704 88.326 27.4811 88.326ZM29.807 86.9538C29.756 86.9455 29.7008 86.9414 29.6411 86.9414C29.42 86.9414 29.2699 87.0331 29.191 87.2159V88.5756H28.8536V86.6601H29.1819L29.1872 86.8813C29.2979 86.7101 29.4547 86.6246 29.6576 86.6246C29.7232 86.6246 29.7731 86.6329 29.807 86.6492V86.9538ZM30.0003 87.6018C30.0003 87.3079 30.072 87.0719 30.2155 86.8937C30.3587 86.7142 30.5464 86.6246 30.7787 86.6246C31.0096 86.6246 31.1926 86.7013 31.3275 86.8546V85.8562H31.6646V88.5756H31.3547L31.3384 88.3702C31.2035 88.5308 31.0158 88.6111 30.775 88.6111C30.5464 88.6111 30.36 88.5202 30.2155 88.3384C30.072 88.1566 30.0003 87.9193 30.0003 87.6267V87.6018ZM30.3376 87.6391C30.3376 87.8561 30.3838 88.0263 30.476 88.1491C30.5686 88.2716 30.696 88.3329 30.859 88.3329C31.0728 88.3329 31.2288 88.2397 31.3275 88.0532V87.1734C31.2264 86.9929 31.0715 86.9025 30.8624 86.9025C30.6974 86.9025 30.5686 86.9644 30.476 87.0885C30.3838 87.2123 30.3376 87.3959 30.3376 87.6391ZM33.4347 86.6601L33.4456 86.9007C33.5963 86.7166 33.7931 86.6246 34.0363 86.6246C34.4531 86.6246 34.6632 86.8531 34.667 87.3097V88.5756H34.3296V87.3079C34.3286 87.1698 34.2958 87.0678 34.2312 87.0017C34.168 86.9357 34.0691 86.9025 33.9342 86.9025C33.8248 86.9025 33.7288 86.9308 33.6462 86.9875C33.5635 87.0442 33.499 87.1185 33.4528 87.2105V88.5756H33.1158V86.6601H33.4347ZM36.3934 88.3863C36.2619 88.536 36.0694 88.6111 35.8155 88.6111C35.6051 88.6111 35.4448 88.5521 35.3342 88.434C35.2248 88.3148 35.1694 88.139 35.1683 87.9064V86.6601H35.5056V87.8976C35.5056 88.1879 35.627 88.3329 35.8702 88.3329C36.1278 88.3329 36.299 88.2397 36.384 88.0532V86.6601H36.7214V88.5756H36.4006L36.3934 88.3863ZM37.5526 86.6601L37.5616 86.8725C37.7064 86.7073 37.9014 86.6246 38.147 86.6246C38.4227 86.6246 38.6104 86.7272 38.7102 86.9326C38.7758 86.8406 38.8608 86.7663 38.9654 86.7096C39.0712 86.6529 39.1958 86.6246 39.339 86.6246C39.7718 86.6246 39.9918 86.8471 39.999 87.2921V88.5756H39.6616V87.3115C39.6616 87.1745 39.6296 87.0724 39.5651 87.0054C39.5008 86.9367 39.3926 86.9025 39.2406 86.9025C39.1155 86.9025 39.0115 86.939 38.9288 87.0123C38.8464 87.0843 38.7982 87.1817 38.7848 87.3045V88.5756H38.4459V87.3203C38.4459 87.0419 38.3056 86.9025 38.0248 86.9025C37.8035 86.9025 37.6523 86.994 37.571 87.1771V88.5756H37.2336V86.6601H37.5526ZM42.1792 87.6391C42.1792 87.9318 42.1099 88.1672 41.9715 88.3454C41.8328 88.5225 41.647 88.6111 41.4136 88.6111C41.1646 88.6111 40.9718 88.5254 40.8358 88.3544L40.8192 88.5756H40.5094V85.8562H40.8467V86.8707C40.9827 86.7067 41.1704 86.6246 41.4099 86.6246C41.6494 86.6246 41.8371 86.7124 41.9731 86.8883C42.1104 87.0641 42.1792 87.305 42.1792 87.6106V87.6391ZM41.8419 87.6018C41.8419 87.3788 41.7976 87.2066 41.7088 87.0849C41.6203 86.9634 41.4926 86.9025 41.3262 86.9025C41.1038 86.9025 40.9438 87.0028 40.8467 87.2035V88.032C40.9499 88.2327 41.111 88.3329 41.3296 88.3329C41.4912 88.3329 41.6171 88.2723 41.707 88.1506C41.7971 88.0292 41.8419 87.8463 41.8419 87.6018ZM43.4243 88.6111C43.1568 88.6111 42.9392 88.5262 42.7718 88.356C42.604 88.1851 42.52 87.9566 42.52 87.671V87.6106C42.52 87.4208 42.5571 87.2514 42.6312 87.1025C42.7067 86.9528 42.8112 86.836 42.9448 86.7521C43.0798 86.6671 43.2256 86.6246 43.3824 86.6246C43.6387 86.6246 43.8382 86.7067 43.9803 86.8707C44.1224 87.0346 44.1936 87.2695 44.1936 87.5754V87.7116H42.8574C42.8622 87.9004 42.9187 88.0532 43.027 88.1703C43.1363 88.2858 43.2747 88.3436 43.4424 88.3436C43.5616 88.3436 43.6624 88.32 43.7451 88.2729C43.8278 88.2257 43.9 88.163 43.9619 88.0851L44.168 88.241C44.0027 88.4876 43.7547 88.6111 43.4243 88.6111ZM43.3824 86.8937C43.2462 86.8937 43.132 86.9422 43.0395 87.0388C42.9472 87.1346 42.8902 87.269 42.8683 87.4425H43.8563V87.4177C43.8464 87.2514 43.8003 87.1227 43.7176 87.0318C43.6352 86.9398 43.5232 86.8937 43.3824 86.8937ZM45.539 86.9538C45.4878 86.9455 45.4326 86.9414 45.3728 86.9414C45.1518 86.9414 45.0016 87.0331 44.9227 87.2159V88.5756H44.5854V86.6601H44.9136L44.919 86.8813C45.0296 86.7101 45.1864 86.6246 45.3894 86.6246C45.455 86.6246 45.5048 86.6329 45.539 86.6492V86.9538Z" fill="black"/>
<path d="M8.35205 51.0215V48.0754H9.34373C9.67288 48.0754 9.9201 48.1415 10.0854 48.2738C10.2521 48.4059 10.3354 48.6015 10.3354 48.8604C10.3354 48.9982 10.2951 49.1202 10.2146 49.2267C10.134 49.3321 10.0243 49.4137 9.88538 49.4717C10.0493 49.5162 10.1785 49.6012 10.2729 49.7265C10.3687 49.8506 10.4166 49.999 10.4166 50.1717C10.4166 50.4362 10.3285 50.6439 10.1521 50.7949C9.97568 50.9459 9.72637 51.0215 9.40413 51.0215H8.35205ZM8.75205 49.6436V50.7037H9.41248C9.59858 50.7037 9.74512 50.6573 9.85205 50.5641C9.9604 50.4698 10.0146 50.3403 10.0146 50.1756C10.0146 49.821 9.81594 49.6436 9.41872 49.6436H8.75205ZM8.75205 49.3321H9.35621C9.53122 49.3321 9.6708 49.2893 9.77496 49.2044C9.88053 49.1194 9.9333 49.0042 9.9333 48.8584C9.9333 48.6965 9.88469 48.5792 9.78746 48.5064C9.69024 48.4323 9.54234 48.395 9.34373 48.395H8.75205V49.3321ZM11.3687 51.0215H10.9833V48.8322H11.3687V51.0215ZM10.9521 48.2516C10.9521 48.1907 10.9708 48.1394 11.0083 48.0977C11.0472 48.0558 11.1041 48.035 11.1791 48.035C11.2541 48.035 11.3111 48.0558 11.35 48.0977C11.3889 48.1394 11.4083 48.1907 11.4083 48.2516C11.4083 48.3122 11.3889 48.3627 11.35 48.4033C11.3111 48.4437 11.2541 48.4639 11.1791 48.4639C11.1041 48.4639 11.0472 48.4437 11.0083 48.4033C10.9708 48.3627 10.9521 48.3122 10.9521 48.2516ZM12.4062 51.0215H12.0208V47.9136H12.4062V51.0215ZM13.4437 51.0215H13.0583V47.9136H13.4437V51.0215ZM14.4812 51.0215H14.0958V48.8322H14.4812V51.0215ZM14.0646 48.2516C14.0646 48.1907 14.0833 48.1394 14.1208 48.0977C14.1597 48.0558 14.2166 48.035 14.2917 48.035C14.3666 48.035 14.4236 48.0558 14.4625 48.0977C14.5014 48.1394 14.5208 48.1907 14.5208 48.2516C14.5208 48.3122 14.5014 48.3627 14.4625 48.4033C14.4236 48.4437 14.3666 48.4639 14.2917 48.4639C14.2166 48.4639 14.1597 48.4437 14.1208 48.4033C14.0833 48.3627 14.0646 48.3122 14.0646 48.2516ZM15.4646 48.8322L15.4771 49.1073C15.6493 48.897 15.8743 48.7918 16.1521 48.7918C16.6285 48.7918 16.8687 49.0526 16.8729 49.5747V51.0215H16.4875V49.5727C16.4861 49.415 16.4486 49.2981 16.375 49.2228C16.3027 49.1471 16.1895 49.1093 16.0354 49.1093C15.9104 49.1093 15.8007 49.1417 15.7062 49.2065C15.6118 49.2712 15.5382 49.3562 15.4854 49.4616V51.0215H15.1V48.8322H15.4646ZM17.3625 49.9086C17.3625 49.5672 17.4437 49.2963 17.6062 49.0951C17.7687 48.8928 17.984 48.7918 18.2521 48.7918C18.5271 48.7918 18.7416 48.8861 18.8958 49.0749L18.9146 48.8322H19.2666V50.9689C19.2666 51.2522 19.1798 51.4755 19.0062 51.6387C18.834 51.8018 18.6021 51.8834 18.3104 51.8834C18.1479 51.8834 17.9889 51.8497 17.8333 51.7824C17.6778 51.7148 17.559 51.6223 17.4771 51.505L17.6771 51.2805C17.8423 51.4789 18.0444 51.5778 18.2833 51.5778C18.4708 51.5778 18.6166 51.5268 18.7208 51.4242C18.8264 51.3217 18.8791 51.1774 18.8791 50.9912V50.8029C18.725 50.9756 18.5146 51.0619 18.2479 51.0619C17.984 51.0619 17.7701 50.9588 17.6062 50.7524C17.4437 50.546 17.3625 50.2647 17.3625 49.9086ZM17.75 49.9511C17.75 50.1979 17.8021 50.3921 17.9062 50.5338C18.0104 50.6742 18.1562 50.7444 18.3437 50.7444C18.5868 50.7444 18.7653 50.6371 18.8791 50.4227V49.423C18.7611 49.214 18.584 49.1093 18.3479 49.1093C18.1604 49.1093 18.0139 49.1803 17.9083 49.322C17.8027 49.4634 17.75 49.6732 17.75 49.9511ZM21.3979 51.0215H20.9979V48.0754H21.3979V51.0215ZM22.4354 48.8322L22.4479 49.1073C22.6201 48.897 22.8451 48.7918 23.1229 48.7918C23.5993 48.7918 23.8395 49.0526 23.8437 49.5747V51.0215H23.4583V49.5727C23.4569 49.415 23.4194 49.2981 23.3458 49.2228C23.2736 49.1471 23.1604 49.1093 23.0062 49.1093C22.8812 49.1093 22.7715 49.1417 22.6771 49.2065C22.5826 49.2712 22.509 49.3562 22.4562 49.4616V51.0215H22.0708V48.8322H22.4354ZM24.6146 51.0215V49.1215H24.2583V48.8322H24.6146V48.6077C24.6146 48.3728 24.6791 48.1915 24.8083 48.0633C24.9375 47.9351 25.1201 47.8711 25.3562 47.8711C25.4451 47.8711 25.5333 47.8825 25.6208 47.9055L25.6 48.2091C25.5347 48.1969 25.4653 48.1907 25.3917 48.1907C25.2666 48.1907 25.1701 48.2264 25.102 48.2979C25.034 48.3681 25 48.4694 25 48.6015V48.8322H25.4812V49.1215H25V51.0215H24.6146ZM25.8062 49.9065C25.8062 49.6921 25.8493 49.4991 25.9354 49.3279C26.0229 49.1565 26.1437 49.0244 26.2979 48.9314C26.4534 48.8382 26.6305 48.7918 26.829 48.7918C27.136 48.7918 27.384 48.8949 27.5728 49.1013C27.7632 49.3077 27.8584 49.5823 27.8584 49.9249V49.9511C27.8584 50.1642 27.816 50.3559 27.7312 50.5258C27.648 50.6944 27.5277 50.8259 27.3709 50.9202C27.2152 51.0147 27.036 51.0619 26.8333 51.0619C26.5278 51.0619 26.2798 50.9588 26.0895 50.7524C25.9007 50.546 25.8062 50.2727 25.8062 49.9329V49.9065ZM26.1937 49.9511C26.1937 50.194 26.2514 50.3888 26.3666 50.5359C26.4833 50.683 26.6389 50.7565 26.8333 50.7565C27.029 50.7565 27.1848 50.6822 27.3 50.5338C27.4152 50.3841 27.4728 50.1751 27.4728 49.9065C27.4728 49.6664 27.4138 49.4722 27.2957 49.3238C27.1792 49.1741 27.0237 49.0992 26.829 49.0992C26.6389 49.0992 26.4854 49.1728 26.3687 49.3199C26.252 49.4667 26.1937 49.6773 26.1937 49.9511ZM29.4312 49.1681C29.3728 49.1585 29.3096 49.1539 29.2416 49.1539C28.9888 49.1539 28.8173 49.2585 28.7272 49.4675V51.0215H28.3416V48.8322H28.7168L28.7229 49.085C28.8493 48.8895 29.0285 48.7918 29.2605 48.7918C29.3354 48.7918 29.3922 48.8011 29.4312 48.82V49.1681ZM30.1498 48.8322L30.1605 49.0749C30.3256 48.8861 30.5485 48.7918 30.829 48.7918C31.1445 48.7918 31.3589 48.9091 31.4728 49.1438C31.548 49.0386 31.645 48.9537 31.7645 48.8889C31.8853 48.8242 32.0277 48.7918 32.1917 48.7918C32.6861 48.7918 32.9376 49.0459 32.9458 49.5545V51.0215H32.5605V49.5768C32.5605 49.4204 32.5237 49.3036 32.4501 49.2267C32.3762 49.1484 32.2528 49.1093 32.0792 49.1093C31.936 49.1093 31.8173 49.1513 31.7229 49.235C31.6285 49.3171 31.5736 49.4284 31.5584 49.5688V51.0215H31.1709V49.5869C31.1709 49.2686 31.0104 49.1093 30.6896 49.1093C30.4368 49.1093 30.264 49.214 30.1709 49.423V51.0215H29.7853V48.8322H30.1498ZM34.9208 51.0215C34.8986 50.9782 34.8805 50.9013 34.8666 50.7907C34.6874 50.9715 34.4736 51.0619 34.225 51.0619C34.0026 51.0619 33.8202 51.0013 33.677 50.8798C33.5354 50.7571 33.4645 50.6019 33.4645 50.4144C33.4645 50.1865 33.5536 50.0099 33.7312 49.8842C33.9104 49.7576 34.1618 49.6941 34.4853 49.6941H34.8605V49.5222C34.8605 49.3914 34.8202 49.2875 34.7394 49.2106C34.6589 49.1324 34.5402 49.0933 34.3834 49.0933C34.2458 49.0933 34.1306 49.127 34.0376 49.1943C33.9445 49.2619 33.8978 49.3435 33.8978 49.4393H33.5104C33.5104 49.33 33.5498 49.2246 33.629 49.1236C33.7096 49.021 33.8181 48.9402 33.9541 48.8806C34.0917 48.8213 34.2424 48.7918 34.4061 48.7918C34.6658 48.7918 34.8693 48.855 35.0165 48.9819C35.164 49.1073 35.2402 49.2808 35.2458 49.502V50.5095C35.2458 50.7104 35.2722 50.8705 35.325 50.9891V51.0215H34.9208ZM34.2813 50.7361C34.4021 50.7361 34.5168 50.7058 34.625 50.6452C34.7333 50.5843 34.8117 50.5056 34.8605 50.4084V49.9591H34.5584C34.0861 49.9591 33.8501 50.0935 33.8501 50.3618C33.8501 50.4792 33.8904 50.5708 33.9709 50.6371C34.0514 50.7032 34.1549 50.7361 34.2813 50.7361ZM36.3728 48.3021V48.8322H36.7938V49.1215H36.3728V50.4792C36.3728 50.567 36.3917 50.633 36.429 50.6775C36.4666 50.7208 36.5306 50.7423 36.6208 50.7423C36.6653 50.7423 36.7264 50.7343 36.8042 50.7179V51.0215C36.7026 51.0484 36.6042 51.0619 36.5082 51.0619C36.336 51.0619 36.2061 51.0114 36.1186 50.9101C36.0312 50.8091 35.9874 50.6654 35.9874 50.4792V49.1215H35.577V48.8322H35.9874V48.3021H36.3728ZM37.6645 51.0215H37.2792V48.8322H37.6645V51.0215ZM37.248 48.2516C37.248 48.1907 37.2666 48.1394 37.3042 48.0977C37.3429 48.0558 37.4 48.035 37.4749 48.035C37.5498 48.035 37.6069 48.0558 37.6458 48.0977C37.6848 48.1394 37.7042 48.1907 37.7042 48.2516C37.7042 48.3122 37.6848 48.3627 37.6458 48.4033C37.6069 48.4437 37.5498 48.4639 37.4749 48.4639C37.4 48.4639 37.3429 48.4437 37.3042 48.4033C37.2666 48.3627 37.248 48.3122 37.248 48.2516ZM38.1813 49.9065C38.1813 49.6921 38.2242 49.4991 38.3104 49.3279C38.3978 49.1565 38.5186 49.0244 38.6728 48.9314C38.8285 48.8382 39.0056 48.7918 39.2042 48.7918C39.5112 48.7918 39.7589 48.8949 39.948 49.1013C40.1381 49.3077 40.2333 49.5823 40.2333 49.9249V49.9511C40.2333 50.1642 40.1909 50.3559 40.1061 50.5258C40.0229 50.6944 39.9026 50.8259 39.7458 50.9202C39.5904 51.0147 39.4112 51.0619 39.2082 51.0619C38.9026 51.0619 38.6549 50.9588 38.4645 50.7524C38.2757 50.546 38.1813 50.2727 38.1813 49.9329V49.9065ZM38.5688 49.9511C38.5688 50.194 38.6264 50.3888 38.7416 50.5359C38.8584 50.683 39.0138 50.7565 39.2082 50.7565C39.4042 50.7565 39.5597 50.6822 39.6749 50.5338C39.7904 50.3841 39.848 50.1751 39.848 49.9065C39.848 49.6664 39.7888 49.4722 39.6709 49.3238C39.5541 49.1741 39.3986 49.0992 39.2042 49.0992C39.0138 49.0992 38.8605 49.1728 38.7437 49.3199C38.6272 49.4667 38.5688 49.6773 38.5688 49.9511ZM41.0813 48.8322L41.0938 49.1073C41.2658 48.897 41.4909 48.7918 41.7688 48.7918C42.245 48.7918 42.4853 49.0526 42.4896 49.5747V51.0215H42.1042V49.5727C42.1026 49.415 42.0653 49.2981 41.9917 49.2228C41.9194 49.1471 41.8061 49.1093 41.652 49.1093C41.5272 49.1093 41.4173 49.1417 41.3229 49.2065C41.2285 49.2712 41.1549 49.3562 41.1021 49.4616V51.0215H40.7168V48.8322H41.0813Z" fill="black"/>
<path d="M73.3334 143.223H26.6667C24.163 143.223 22.1334 145.194 22.1334 147.626V150.734C22.1334 153.166 24.163 155.137 26.6667 155.137H73.3334C75.8371 155.137 77.8667 153.166 77.8667 150.734V147.626C77.8667 145.194 75.8371 143.223 73.3334 143.223Z" fill="#BB0000"/>
<path fill-rule="evenodd" clip-rule="evenodd" d="M26.6666 143.482C24.3102 143.482 22.4 145.337 22.4 147.626V150.734C22.4 153.022 24.3102 154.878 26.6666 154.878H73.3333C75.6897 154.878 77.6 153.022 77.6 150.734V147.626C77.6 145.337 75.6897 143.482 73.3333 143.482H26.6666ZM21.8666 147.626C21.8666 145.051 24.0157 142.964 26.6666 142.964H73.3333C75.9843 142.964 78.1333 145.051 78.1333 147.626V150.734C78.1333 153.309 75.9843 155.396 73.3333 155.396H26.6666C24.0157 155.396 21.8666 153.309 21.8666 150.734V147.626Z" fill="#666666"/>
<path d="M34.7797 149.446C34.308 149.315 33.9642 149.153 33.7485 148.962C33.5346 148.769 33.4277 148.532 33.4277 148.25C33.4277 147.931 33.5584 147.667 33.82 147.46C34.0834 147.25 34.4253 147.146 34.8456 147.146C35.132 147.146 35.3869 147.199 35.6104 147.307C35.8357 147.414 36.0096 147.563 36.1317 147.752C36.256 147.941 36.3178 148.148 36.3178 148.372H35.765C35.765 148.128 35.6848 147.935 35.5245 147.796C35.364 147.656 35.1378 147.585 34.8456 147.585C34.5744 147.585 34.3624 147.643 34.2096 147.76C34.0586 147.875 33.9834 148.036 33.9834 148.242C33.9834 148.407 34.0549 148.547 34.1981 148.662C34.3432 148.775 34.5888 148.879 34.9344 148.973C35.2818 149.068 35.553 149.173 35.748 149.288C35.9445 149.401 36.0898 149.533 36.1834 149.686C36.2789 149.838 36.3266 150.017 36.3266 150.222C36.3266 150.551 36.1946 150.814 35.9312 151.013C35.6677 151.209 35.3154 151.308 34.8741 151.308C34.5877 151.308 34.3202 151.255 34.0722 151.149C33.824 151.041 33.632 150.895 33.4962 150.709C33.3626 150.524 33.2957 150.313 33.2957 150.078H33.8488C33.8488 150.323 33.9413 150.516 34.1266 150.659C34.3136 150.8 34.5629 150.871 34.8741 150.871C35.1645 150.871 35.3869 150.813 35.5416 150.698C35.6962 150.583 35.7736 150.426 35.7736 150.228C35.7736 150.03 35.7021 149.877 35.5589 149.769C35.4157 149.66 35.156 149.552 34.7797 149.446ZM38.8645 150.954C38.6584 151.19 38.3557 151.308 37.9565 151.308C37.6261 151.308 37.3741 151.215 37.2003 151.029C37.0283 150.842 36.9416 150.566 36.9394 150.2V148.242H37.4696V150.186C37.4696 150.642 37.6605 150.871 38.0424 150.871C38.4472 150.871 38.7165 150.724 38.8501 150.431V148.242H39.3802V151.252H38.876L38.8645 150.954ZM42.812 149.78C42.812 150.24 42.7032 150.61 42.4853 150.89C42.2677 151.169 41.9754 151.308 41.6088 151.308C41.2173 151.308 40.9146 151.173 40.7008 150.904L40.6749 151.252H40.188V146.979H40.7178V148.573C40.9317 148.315 41.2269 148.186 41.6032 148.186C41.9794 148.186 42.2744 148.324 42.4882 148.601C42.704 148.877 42.812 149.255 42.812 149.736V149.78ZM42.2821 149.722C42.2821 149.371 42.2122 149.1 42.0728 148.909C41.9336 148.718 41.733 148.623 41.4714 148.623C41.1218 148.623 40.8706 148.78 40.7178 149.096V150.398C40.8802 150.713 41.1333 150.871 41.477 150.871C41.7312 150.871 41.9288 150.775 42.0701 150.584C42.2114 150.393 42.2821 150.106 42.2821 149.722ZM43.9808 148.242L43.9949 148.575C44.2224 148.316 44.5288 148.186 44.9146 148.186C45.348 148.186 45.6432 148.347 45.7997 148.67C45.9029 148.525 46.0365 148.408 46.2008 148.32C46.3669 148.23 46.5626 148.186 46.788 148.186C47.468 148.186 47.8136 148.536 47.825 149.235V151.252H47.2949V149.265C47.2949 149.05 47.2445 148.89 47.1432 148.784C47.0421 148.676 46.872 148.623 46.6333 148.623C46.4365 148.623 46.2733 148.68 46.1434 148.795C46.0136 148.908 45.9381 149.061 45.917 149.254V151.252H45.3842V149.279C45.3842 148.842 45.1637 148.623 44.7226 148.623C44.3752 148.623 44.1373 148.767 44.0093 149.054V151.252H43.4794V148.242H43.9808ZM49.2029 151.252H48.6728V148.242H49.2029V151.252ZM48.6298 147.443C48.6298 147.36 48.6557 147.289 48.7072 147.232C48.7608 147.174 48.8389 147.146 48.9421 147.146C49.0453 147.146 49.1237 147.174 49.177 147.232C49.2306 147.289 49.2573 147.36 49.2573 147.443C49.2573 147.527 49.2306 147.596 49.177 147.652C49.1237 147.707 49.0453 147.735 48.9421 147.735C48.8389 147.735 48.7608 147.707 48.7072 147.652C48.6557 147.596 48.6298 147.527 48.6298 147.443ZM50.7725 147.513V148.242H51.3512V148.639H50.7725V150.506C50.7725 150.627 50.7984 150.718 50.8501 150.779C50.9016 150.838 50.9893 150.868 51.1136 150.868C51.1746 150.868 51.2586 150.857 51.3656 150.835V151.252C51.2261 151.289 51.0906 151.308 50.9589 151.308C50.7221 151.308 50.5434 151.238 50.4232 151.099C50.3029 150.96 50.2426 150.762 50.2426 150.506V148.639H49.6784V148.242H50.2426V147.513H50.7725ZM56.7194 149.357C56.7194 149.754 56.6506 150.101 56.5133 150.398C56.3757 150.693 56.181 150.918 55.9288 151.074C55.6768 151.23 55.3826 151.308 55.0466 151.308C54.7181 151.308 54.4269 151.23 54.1728 151.074C53.9189 150.916 53.7213 150.693 53.58 150.403C53.4405 150.112 53.3688 149.775 53.365 149.393V149.101C53.365 148.712 53.4349 148.368 53.5741 148.069C53.7136 147.771 53.9104 147.542 54.1642 147.385C54.4202 147.225 54.7125 147.146 55.0408 147.146C55.3752 147.146 55.669 147.224 55.9232 147.382C56.1792 147.538 56.3757 147.765 56.5133 148.063C56.6506 148.36 56.7194 148.706 56.7194 149.101V149.357ZM56.1722 149.096C56.1722 148.615 56.073 148.247 55.8744 147.991C55.676 147.733 55.3981 147.604 55.0408 147.604C54.6933 147.604 54.4192 147.733 54.2186 147.991C54.0202 148.247 53.9178 148.603 53.9122 149.06V149.357C53.9122 149.823 54.0125 150.189 54.213 150.456C54.4154 150.721 54.6933 150.854 55.0466 150.854C55.4018 150.854 55.6768 150.729 55.8717 150.479C56.0664 150.226 56.1666 149.866 56.1722 149.396V149.096ZM58.9597 148.703C58.8794 148.69 58.7925 148.684 58.6989 148.684C58.3514 148.684 58.1154 148.828 57.9914 149.115V151.252H57.4613V148.242H57.977L57.9856 148.589C58.1594 148.32 58.4058 148.186 58.7248 148.186C58.8277 148.186 58.9061 148.199 58.9597 148.225V148.703ZM59.2632 149.722C59.2632 149.26 59.376 148.889 59.6013 148.609C59.8266 148.327 60.1216 148.186 60.4864 148.186C60.8493 148.186 61.1368 148.307 61.3488 148.548V146.979H61.8786V151.252H61.3917L61.3658 150.929C61.1538 151.181 60.8589 151.308 60.4808 151.308C60.1216 151.308 59.8285 151.165 59.6013 150.879C59.376 150.594 59.2632 150.221 59.2632 149.761V149.722ZM59.7933 149.78C59.7933 150.121 59.8658 150.388 60.0109 150.581C60.156 150.774 60.3565 150.871 60.6125 150.871C60.9485 150.871 61.1941 150.724 61.3488 150.431V149.048C61.1901 148.765 60.9466 148.623 60.6181 148.623C60.3584 148.623 60.156 148.72 60.0109 148.915C59.8658 149.11 59.7933 149.398 59.7933 149.78ZM63.9898 151.308C63.5696 151.308 63.2277 151.174 62.9642 150.907C62.7008 150.638 62.569 150.279 62.569 149.83V149.736C62.569 149.437 62.6272 149.171 62.7437 148.937C62.8621 148.702 63.0264 148.518 63.2365 148.386C63.4485 148.253 63.6776 148.186 63.924 148.186C64.3269 148.186 64.64 148.315 64.8634 148.573C65.0869 148.831 65.1986 149.2 65.1986 149.68V149.894H63.0989C63.1066 150.191 63.1954 150.431 63.3653 150.615C63.5373 150.797 63.7549 150.887 64.0184 150.887C64.2056 150.887 64.3642 150.85 64.4941 150.776C64.624 150.702 64.7376 150.604 64.8349 150.481L65.1586 150.726C64.8989 151.114 64.5093 151.308 63.9898 151.308ZM63.924 148.609C63.7101 148.609 63.5306 148.685 63.3853 148.837C63.2402 148.987 63.1504 149.199 63.1162 149.471H64.6688V149.432C64.6536 149.171 64.5808 148.969 64.4509 148.826C64.321 148.681 64.1456 148.609 63.924 148.609ZM67.3128 148.703C67.2325 148.69 67.1456 148.684 67.052 148.684C66.7045 148.684 66.4685 148.828 66.3445 149.115V151.252H65.8146V148.242H66.3301L66.3389 148.589C66.5125 148.32 66.7589 148.186 67.0778 148.186C67.181 148.186 67.2592 148.199 67.3128 148.225V148.703Z" fill="#DCDCDC"/>
<path d="M44.1427 102.43C44.1427 102.552 44.0573 102.64 43.9352 102.64C43.8093 102.64 43.7277 102.547 43.7277 102.43C43.7277 102.313 43.8093 102.22 43.9352 102.22C44.0573 102.22 44.1427 102.313 44.1427 102.43ZM38.3869 102.22C38.2555 102.22 38.1797 102.313 38.1797 102.43C38.1797 102.547 38.2555 102.64 38.3869 102.64C38.5075 102.64 38.5888 102.552 38.5888 102.43C38.5869 102.313 38.5075 102.22 38.3869 102.22ZM40.5629 102.214C40.4629 102.214 40.4019 102.277 40.3869 102.371H40.7408C40.724 102.268 40.6592 102.214 40.5629 102.214ZM42.5592 102.22C42.4333 102.22 42.3573 102.313 42.3573 102.43C42.3573 102.547 42.4333 102.64 42.5592 102.64C42.6851 102.64 42.7667 102.552 42.7667 102.43C42.7667 102.313 42.6851 102.22 42.5592 102.22ZM44.5203 102.689C44.5203 102.694 44.5259 102.698 44.5259 102.709C44.5259 102.714 44.5203 102.718 44.5203 102.729C44.5149 102.734 44.5149 102.738 44.5112 102.743C44.5056 102.748 44.5019 102.752 44.4907 102.752C44.4851 102.757 44.4816 102.757 44.4704 102.757C44.4648 102.757 44.4611 102.757 44.4501 102.752C44.4445 102.752 44.4408 102.746 44.4352 102.743C44.4296 102.738 44.4259 102.734 44.4259 102.729C44.4203 102.719 44.4203 102.714 44.4203 102.709C44.4203 102.7 44.4203 102.694 44.4259 102.689C44.4259 102.68 44.4315 102.674 44.4352 102.669C44.4408 102.664 44.4445 102.664 44.4501 102.66C44.4592 102.655 44.4648 102.655 44.4704 102.655C44.4797 102.655 44.4851 102.655 44.4907 102.66C44.5 102.666 44.5056 102.666 44.5112 102.669C44.5168 102.673 44.5149 102.68 44.5203 102.689ZM44.4797 102.714C44.4888 102.714 44.4888 102.709 44.4944 102.709C44.5 102.703 44.5 102.7 44.5 102.694C44.5 102.689 44.5 102.685 44.4944 102.68C44.4888 102.68 44.4851 102.674 44.4741 102.674H44.4445V102.738H44.4592V102.712H44.4648L44.4851 102.738H44.5L44.4797 102.714ZM45.8667 96.5073V102.838C45.8667 103.315 45.4685 103.702 44.9779 103.702H36.0888C35.5981 103.702 35.2 103.315 35.2 102.838V96.5073C35.2 96.0307 35.5981 95.644 36.0888 95.644H44.9779C45.4685 95.644 45.8667 96.0307 45.8667 96.5073ZM36.3851 99.0179C36.3851 100.394 37.5352 101.509 38.9501 101.509C39.4536 101.509 39.9483 101.362 40.3667 101.094C39.0168 100.027 39.0259 98.0143 40.3667 96.9478C39.9483 96.6782 39.4536 96.5324 38.9501 96.5324C37.5352 96.5306 36.3851 97.6476 36.3851 99.0179ZM40.5333 100.975C41.8389 99.9858 41.8333 98.0576 40.5333 97.0631C39.2333 98.0576 39.2277 99.9874 40.5333 100.975ZM37.8981 102.347C37.8981 102.191 37.7925 102.088 37.6259 102.083C37.5408 102.083 37.4501 102.108 37.3888 102.2C37.3445 102.126 37.2685 102.083 37.1629 102.083C37.0925 102.083 37.0221 102.108 36.9667 102.18V102.101H36.8149V102.761H36.9667C36.9667 102.421 36.9203 102.218 37.1333 102.218C37.3221 102.218 37.2851 102.401 37.2851 102.761H37.4315C37.4315 102.432 37.3851 102.218 37.5981 102.218C37.7869 102.218 37.7501 102.398 37.7501 102.761H37.9019V102.347H37.8981ZM38.7296 102.101H38.5835V102.18C38.5333 102.121 38.4629 102.083 38.3667 102.083C38.176 102.083 38.0296 102.23 38.0296 102.43C38.0296 102.631 38.176 102.777 38.3667 102.777C38.4629 102.777 38.5333 102.743 38.5835 102.68V102.763H38.7296V102.101ZM39.4797 102.561C39.4797 102.291 39.0555 102.414 39.0555 102.288C39.0555 102.185 39.276 102.201 39.3981 102.268L39.4592 102.151C39.2851 102.041 38.9 102.043 38.9 102.299C38.9 102.556 39.324 102.448 39.324 102.568C39.324 102.682 39.0741 102.673 38.9408 102.583L38.876 102.696C39.0835 102.833 39.4797 102.804 39.4797 102.561ZM40.1352 102.729L40.0944 102.606C40.024 102.644 39.8685 102.685 39.8685 102.532V102.234H40.1112V102.101H39.8685V101.899H39.7168V102.101H39.576V102.232H39.7168V102.532C39.7168 102.849 40.0371 102.791 40.1352 102.729ZM40.3816 102.487H40.8907C40.8907 102.196 40.7536 102.081 40.5685 102.081C40.3723 102.081 40.2315 102.223 40.2315 102.428C40.2315 102.797 40.6501 102.858 40.8573 102.683L40.7869 102.576C40.6427 102.691 40.424 102.68 40.3816 102.487ZM41.476 102.101C41.3907 102.065 41.2611 102.068 41.1944 102.18V102.101H41.0427V102.761H41.1944V102.388C41.1944 102.18 41.3704 102.207 41.4315 102.237L41.476 102.101ZM41.6723 102.43C41.6723 102.225 41.8869 102.158 42.0555 102.279L42.1259 102.162C41.9112 101.998 41.5203 102.088 41.5203 102.432C41.5203 102.788 41.9352 102.86 42.1259 102.702L42.0555 102.585C41.8851 102.702 41.6723 102.631 41.6723 102.43ZM42.9075 102.101H42.7555V102.18C42.6019 101.982 42.2019 102.093 42.2019 102.43C42.2019 102.775 42.6168 102.874 42.7555 102.68V102.763H42.9075V102.101ZM43.5315 102.101C43.4869 102.079 43.3277 102.049 43.2501 102.18V102.101H43.1037V102.761H43.2501V102.388C43.2501 102.191 43.4168 102.203 43.4869 102.237L43.5315 102.101ZM44.2779 101.833H44.1315V102.18C43.9797 101.984 43.5779 102.088 43.5779 102.43C43.5779 102.779 43.9944 102.872 44.1315 102.68V102.763H44.2779V101.833ZM44.4184 100.482V100.565H44.4333V100.482H44.4685V100.468H44.3835V100.482H44.4184ZM44.5408 102.709C44.5408 102.7 44.5408 102.689 44.5352 102.68C44.5296 102.674 44.5259 102.666 44.5203 102.66C44.5149 102.655 44.5056 102.651 44.5 102.646C44.4907 102.646 44.4797 102.64 44.4704 102.64C44.4648 102.64 44.4555 102.646 44.4445 102.646C44.4352 102.651 44.4296 102.655 44.424 102.66C44.4149 102.666 44.4093 102.674 44.4093 102.68C44.4037 102.689 44.4037 102.7 44.4037 102.709C44.4037 102.714 44.4037 102.723 44.4093 102.734C44.4093 102.739 44.4149 102.748 44.424 102.754C44.4296 102.759 44.4333 102.763 44.4445 102.768C44.4536 102.773 44.4648 102.773 44.4704 102.773C44.4797 102.773 44.4907 102.773 44.5 102.768C44.5056 102.763 44.5149 102.759 44.5203 102.754C44.5259 102.748 44.5296 102.739 44.5352 102.734C44.5408 102.723 44.5408 102.714 44.5408 102.709ZM44.6 100.466H44.5741L44.5445 100.529L44.5149 100.466H44.4888V100.563H44.5037V100.489L44.5333 100.552H44.5536L44.5797 100.489V100.563H44.6V100.466ZM44.6816 99.0179C44.6816 97.6476 43.5315 96.5306 42.1168 96.5306C41.6131 96.5306 41.1184 96.6782 40.7 96.946C42.0352 98.0125 42.0555 100.031 40.7 101.092C41.1184 101.362 41.6168 101.507 42.1168 101.507C43.5315 101.509 44.6816 100.394 44.6816 99.0179Z" fill="black"/>
<path d="M28.7963 98.9389C28.7963 99.2481 28.6019 99.4263 28.2592 99.4263H27.8093V98.4515H28.2611C28.6019 98.4515 28.7963 98.6276 28.7963 98.9389ZM29.676 100.065C29.676 100.214 29.8093 100.311 30.0184 100.311C30.2851 100.311 30.4851 100.148 30.4851 99.9174V99.7788L30.0501 99.8057C29.8037 99.8221 29.676 99.9101 29.676 100.065ZM33.8667 96.4316V102.763C33.8667 103.239 33.4685 103.626 32.9779 103.626H24.0889C23.5982 103.626 23.2 103.239 23.2 102.763V96.4316C23.2 95.955 23.5982 95.5684 24.0889 95.5684H32.9779C33.4685 95.5684 33.8667 95.955 33.8667 96.4316ZM25.5667 98.5577C25.7222 98.5701 25.8778 98.482 25.9759 98.3704C26.0722 98.2554 26.1352 98.1008 26.1185 97.9444C25.9815 97.9495 25.8111 98.0324 25.713 98.1474C25.6241 98.2463 25.5482 98.4064 25.5667 98.5577ZM26.6888 99.8974C26.6851 99.8938 26.3259 99.7607 26.3222 99.3579C26.3185 99.0215 26.6056 98.8596 26.6185 98.8508C26.4556 98.617 26.2037 98.5918 26.1167 98.5864C25.8908 98.5737 25.6982 98.7105 25.5908 98.7105C25.4815 98.7105 25.3185 98.5918 25.1408 98.5952C24.9093 98.5988 24.6926 98.7265 24.5759 98.9298C24.3333 99.3364 24.513 99.937 24.7482 100.268C24.863 100.432 25.0019 100.611 25.1833 100.604C25.3556 100.597 25.4241 100.496 25.6315 100.496C25.8408 100.496 25.9 100.604 26.0815 100.602C26.2704 100.599 26.3871 100.439 26.5037 100.275C26.6315 100.088 26.6851 99.9083 26.6888 99.8974ZM29.1963 98.9371C29.1963 98.4587 28.8536 98.1314 28.3648 98.1314H27.4168V100.585H27.8093V99.7464H28.3517C28.8483 99.7464 29.1963 99.4154 29.1963 98.9371ZM30.8629 99.3634C30.8629 99.0091 30.5704 98.7807 30.1221 98.7807C29.7056 98.7807 29.3981 99.0127 29.3869 99.3292H29.7408C29.7704 99.1779 29.9149 99.0793 30.1112 99.0793C30.3517 99.0793 30.4851 99.187 30.4851 99.3885V99.5234L29.9963 99.5522C29.5408 99.5791 29.2944 99.7607 29.2944 100.076C29.2944 100.394 29.5483 100.604 29.9131 100.604C30.1592 100.604 30.3869 100.484 30.4907 100.291H30.4981V100.586H30.8611V99.3634H30.8629ZM32.7555 98.804H32.3573L31.8963 100.254H31.8888L31.4277 98.804H31.0149L31.6797 100.59L31.6445 100.698C31.5851 100.881 31.4869 100.953 31.3131 100.953C31.2816 100.953 31.2221 100.95 31.1981 100.948V101.243C31.2203 101.25 31.3184 101.252 31.3483 101.252C31.7315 101.252 31.9112 101.11 32.0685 100.68L32.7555 98.804Z" fill="black"/>
<path d="M19.9056 99.2102C19.9056 99.2102 20.0463 99.8794 20.0778 100.02H19.4593C19.5204 99.8595 19.7556 99.2374 19.7556 99.2374C19.7519 99.2426 19.8167 99.0737 19.8537 98.9693L19.9056 99.2102ZM21.8667 96.4892V102.82C21.8667 103.297 21.4685 103.683 20.9778 103.683H12.0889C11.5982 103.683 11.2 103.297 11.2 102.82V96.4892C11.2 96.0124 11.5982 95.6257 12.0889 95.6257H20.9778C21.4685 95.6257 21.8667 96.0124 21.8667 96.4892ZM14.0241 101.007L15.1945 98.2157H14.4074L13.6796 100.122L13.6 99.7354L13.3408 98.4513C13.2982 98.2732 13.1667 98.2229 13.0037 98.2157H11.8056L11.7926 98.2714C12.0852 98.3434 12.3463 98.4477 12.5741 98.579L13.2371 101.007H14.0241ZM15.7722 101.011L16.2389 98.2157H15.4945L15.0296 101.011H15.7722ZM18.363 100.097C18.3667 99.7787 18.1667 99.5358 17.7389 99.3363C17.4778 99.2086 17.3185 99.1221 17.3185 98.9908C17.3222 98.8722 17.4537 98.75 17.7463 98.75C17.9889 98.7445 18.1667 98.8002 18.3 98.8559L18.3667 98.8865L18.4685 98.2822C18.3222 98.2265 18.0889 98.1636 17.8019 98.1636C17.0667 98.1636 16.55 98.5448 16.5463 99.088C16.5408 99.4891 16.9167 99.7121 17.1982 99.8471C17.4852 99.9838 17.5833 100.074 17.5833 100.194C17.5796 100.381 17.35 100.468 17.1371 100.468C16.8408 100.468 16.6815 100.423 16.4389 100.318L16.3408 100.273L16.2371 100.901C16.4111 100.978 16.7333 101.047 17.0667 101.05C17.8482 101.052 18.3574 100.676 18.363 100.097ZM20.9778 101.011L20.3778 98.2157H19.8019C19.6241 98.2157 19.4889 98.2662 19.413 98.4477L18.3074 101.011H19.0889C19.0889 101.011 19.2167 100.665 19.2445 100.592H20.2C20.2222 100.691 20.2889 101.011 20.2889 101.011H20.9778Z" fill="black"/>
<path fill-rule="evenodd" clip-rule="evenodd" d="M9.16928 2.77298L4.45522 7.35138L4.26666 7.16824L8.98072 2.58984L9.16928 2.77298Z" fill="#DCDCDC"/>
<path fill-rule="evenodd" clip-rule="evenodd" d="M8.98075 11.7466L4.26672 7.16824L4.45529 6.98511L9.16931 11.5635L8.98075 11.7466Z" fill="#DCDCDC"/>
<path d="M24.7258 128.398L25.7008 125.664H26.193L24.9273 128.978H24.5289L23.2656 125.664H23.7555L24.7258 128.398ZM27.0555 128.978H26.6219V126.515H27.0555V128.978ZM26.5867 125.862C26.5867 125.794 26.6078 125.736 26.65 125.689C26.6939 125.642 26.7579 125.618 26.8421 125.618C26.9267 125.618 26.9907 125.642 27.0344 125.689C27.0781 125.736 27.1 125.794 27.1 125.862C27.1 125.93 27.0781 125.987 27.0344 126.033C26.9907 126.078 26.9267 126.101 26.8421 126.101C26.7579 126.101 26.6939 126.078 26.65 126.033C26.6078 125.987 26.5867 125.93 26.5867 125.862ZM28.804 129.024C28.4603 129.024 28.1805 128.915 27.9648 128.696C27.7493 128.476 27.6413 128.182 27.6413 127.815V127.738C27.6413 127.494 27.6891 127.276 27.7843 127.085C27.8813 126.892 28.0157 126.741 28.1875 126.634C28.3611 126.524 28.5485 126.47 28.7499 126.47C29.0797 126.47 29.336 126.575 29.5187 126.786C29.7016 126.997 29.7931 127.299 29.7931 127.692V127.868H28.0749C28.0813 128.11 28.1539 128.307 28.2931 128.457C28.4336 128.606 28.6117 128.68 28.8275 128.68C28.9805 128.68 29.1101 128.65 29.2165 128.589C29.3227 128.528 29.4157 128.448 29.4952 128.348L29.7603 128.548C29.5477 128.865 29.2288 129.024 28.804 129.024ZM28.7499 126.816C28.5749 126.816 28.428 126.878 28.3093 127.002C28.1907 127.126 28.1171 127.299 28.0891 127.522H29.3595V127.49C29.3469 127.276 29.2875 127.11 29.1813 126.993C29.0749 126.875 28.9312 126.816 28.7499 126.816ZM32.5421 128.398L33.0296 126.515H33.4632L32.7251 128.978H32.3733L31.7571 127.112L31.1571 128.978H30.8056L30.0696 126.515H30.5008L31 128.359L31.5907 126.515H31.9397L32.5421 128.398ZM34.9821 127.724C34.9821 127.483 35.0304 127.266 35.1275 127.073C35.2259 126.88 35.3616 126.732 35.5352 126.627C35.7101 126.522 35.9093 126.47 36.1328 126.47C36.4781 126.47 36.7571 126.586 36.9696 126.818C37.1835 127.05 37.2907 127.359 37.2907 127.744V127.774C37.2907 128.014 37.2429 128.229 37.1477 128.421C37.0539 128.61 36.9187 128.758 36.7421 128.865C36.5672 128.971 36.3656 129.024 36.1376 129.024C35.7939 129.024 35.5149 128.908 35.3008 128.676C35.0883 128.444 34.9821 128.136 34.9821 127.754V127.724ZM35.4179 127.774C35.4179 128.047 35.4829 128.267 35.6125 128.432C35.7437 128.597 35.9187 128.68 36.1376 128.68C36.3579 128.68 36.5328 128.597 36.6624 128.43C36.7923 128.261 36.8571 128.026 36.8571 127.724C36.8571 127.454 36.7907 127.236 36.6579 127.069C36.5267 126.9 36.3515 126.816 36.1328 126.816C35.9187 126.816 35.7461 126.899 35.6149 127.064C35.4835 127.229 35.4179 127.466 35.4179 127.774ZM39.4 128.735C39.2312 128.928 38.9835 129.024 38.6571 129.024C38.3867 129.024 38.1805 128.948 38.0384 128.796C37.8976 128.643 37.8267 128.417 37.8251 128.118V126.515H38.2587V128.107C38.2587 128.48 38.4149 128.667 38.7275 128.667C39.0587 128.667 39.2789 128.547 39.3883 128.307V126.515H39.8219V128.978H39.4093L39.4 128.735ZM41.7085 126.893C41.6429 126.883 41.572 126.877 41.4952 126.877C41.2109 126.877 41.0179 126.995 40.9165 127.23V128.978H40.4829V126.515H40.9048L40.9117 126.8C41.0539 126.58 41.2555 126.47 41.5165 126.47C41.6008 126.47 41.6648 126.48 41.7085 126.502V126.893ZM43.8179 127.681V128.978H43.368V125.664H44.6267C45 125.664 45.2923 125.757 45.5032 125.942C45.7157 126.127 45.8219 126.372 45.8219 126.677C45.8219 126.999 45.7179 127.247 45.5101 127.421C45.304 127.594 45.0077 127.681 44.6219 127.681H43.8179ZM43.8179 127.323H44.6267C44.8672 127.323 45.0515 127.269 45.1797 127.16C45.3077 127.049 45.372 126.89 45.372 126.682C45.372 126.484 45.3077 126.327 45.1797 126.208C45.0515 126.09 44.8757 126.028 44.6523 126.024H43.8179V127.323ZM47.5539 126.893C47.4883 126.883 47.4171 126.877 47.3405 126.877C47.0563 126.877 46.8632 126.995 46.7616 127.23V128.978H46.328V126.515H46.7499L46.7571 126.8C46.8992 126.58 47.1008 126.47 47.3616 126.47C47.4461 126.47 47.5101 126.48 47.5539 126.502V126.893ZM48.4259 128.978H47.9923V126.515H48.4259V128.978ZM47.9571 125.862C47.9571 125.794 47.9781 125.736 48.0203 125.689C48.064 125.642 48.128 125.618 48.2125 125.618C48.2968 125.618 48.3611 125.642 48.4048 125.689C48.4485 125.736 48.4704 125.794 48.4704 125.862C48.4704 125.93 48.4485 125.987 48.4048 126.033C48.3611 126.078 48.2968 126.101 48.2125 126.101C48.128 126.101 48.064 126.078 48.0203 126.033C47.9781 125.987 47.9571 125.93 47.9571 125.862ZM49.9587 128.407L50.5867 126.515H51.0296L50.1203 128.978H49.7899L48.8712 126.515H49.3141L49.9587 128.407ZM52.9749 128.978C52.9499 128.93 52.9296 128.843 52.9141 128.719C52.7125 128.922 52.472 129.024 52.1923 129.024C51.9421 129.024 51.7368 128.956 51.5757 128.819C51.4165 128.681 51.3368 128.506 51.3368 128.295C51.3368 128.039 51.4368 127.84 51.6368 127.699C51.8384 127.556 52.1211 127.485 52.4851 127.485H52.9069V127.292C52.9069 127.144 52.8616 127.028 52.7712 126.941C52.6805 126.853 52.5469 126.809 52.3704 126.809C52.2157 126.809 52.0859 126.847 51.9813 126.923C51.8765 126.999 51.8243 127.091 51.8243 127.198H51.3883C51.3883 127.075 51.4328 126.957 51.5219 126.843C51.6125 126.728 51.7344 126.637 51.8875 126.57C52.0421 126.503 52.2117 126.47 52.396 126.47C52.6883 126.47 52.9171 126.541 53.0829 126.684C53.2485 126.825 53.3344 127.02 53.3405 127.269V128.402C53.3405 128.628 53.3704 128.808 53.4296 128.942V128.978H52.9749ZM52.2555 128.657C52.3915 128.657 52.5203 128.623 52.6421 128.555C52.764 128.487 52.8523 128.398 52.9069 128.289V127.783H52.5672C52.036 127.783 51.7704 127.934 51.7704 128.236C51.7704 128.368 51.8157 128.471 51.9061 128.546C51.9968 128.62 52.1133 128.657 52.2555 128.657ZM55.0376 128.68C55.1923 128.68 55.3275 128.635 55.4429 128.543C55.5587 128.453 55.6227 128.339 55.6352 128.202H56.0453C56.0376 128.343 55.9875 128.477 55.8952 128.605C55.8032 128.733 55.6797 128.834 55.5251 128.91C55.372 128.986 55.2093 129.024 55.0376 129.024C54.6923 129.024 54.4171 128.912 54.2125 128.689C54.0093 128.465 53.9077 128.158 53.9077 127.77V127.699C53.9077 127.459 53.9531 127.246 54.0437 127.059C54.1344 126.873 54.264 126.728 54.4328 126.625C54.6032 126.522 54.804 126.47 55.0352 126.47C55.3195 126.47 55.5555 126.553 55.7429 126.718C55.932 126.883 56.0328 127.098 56.0453 127.362H55.6352C55.6227 127.203 55.5603 127.072 55.4477 126.971C55.3368 126.868 55.1992 126.816 55.0352 126.816C54.8149 126.816 54.6437 126.893 54.5219 127.048C54.4016 127.201 54.3413 127.424 54.3413 127.715V127.795C54.3413 128.078 54.4016 128.297 54.5219 128.45C54.6421 128.604 54.8141 128.68 55.0376 128.68ZM57.3624 128.361L57.9531 126.515H58.4171L57.3976 129.359C57.2397 129.768 56.9891 129.973 56.6453 129.973L56.5632 129.966L56.4016 129.937V129.595L56.5187 129.604C56.6656 129.604 56.7797 129.576 56.8611 129.518C56.9437 129.46 57.0117 129.355 57.0648 129.201L57.1611 128.951L56.2563 126.515H56.7296L57.3624 128.361ZM60.5149 127.681V128.978H60.0648V125.664H61.3235C61.6968 125.664 61.9891 125.757 62.2 125.942C62.4125 126.127 62.5187 126.372 62.5187 126.677C62.5187 126.999 62.4149 127.247 62.2069 127.421C62.0008 127.594 61.7048 127.681 61.3187 127.681H60.5149ZM60.5149 127.323H61.3235C61.564 127.323 61.7485 127.269 61.8765 127.16C62.0048 127.049 62.0688 126.89 62.0688 126.682C62.0688 126.484 62.0048 126.327 61.8765 126.208C61.7485 126.09 61.5725 126.028 61.3493 126.024H60.5149V127.323ZM62.8773 127.724C62.8773 127.483 62.9259 127.266 63.0227 127.073C63.1211 126.88 63.2571 126.732 63.4304 126.627C63.6056 126.522 63.8048 126.47 64.028 126.47C64.3733 126.47 64.6523 126.586 64.8648 126.818C65.0789 127.05 65.1859 127.359 65.1859 127.744V127.774C65.1859 128.014 65.1384 128.229 65.0429 128.421C64.9493 128.61 64.8141 128.758 64.6376 128.865C64.4624 128.971 64.2611 129.024 64.0328 129.024C63.6891 129.024 63.4101 128.908 63.196 128.676C62.9835 128.444 62.8773 128.136 62.8773 127.754V127.724ZM63.3133 127.774C63.3133 128.047 63.3781 128.267 63.5077 128.432C63.6389 128.597 63.8141 128.68 64.0328 128.68C64.2531 128.68 64.428 128.597 64.5579 128.43C64.6875 128.261 64.7523 128.026 64.7523 127.724C64.7523 127.454 64.6859 127.236 64.5531 127.069C64.4219 126.9 64.2469 126.816 64.028 126.816C63.8141 126.816 63.6413 126.899 63.5101 127.064C63.3789 127.229 63.3133 127.466 63.3133 127.774ZM66.2008 128.978H65.7672V125.482H66.2008V128.978ZM67.368 128.978H66.9344V126.515H67.368V128.978ZM66.8992 125.862C66.8992 125.794 66.9203 125.736 66.9624 125.689C67.0061 125.642 67.0704 125.618 67.1547 125.618C67.2389 125.618 67.3032 125.642 67.3469 125.689C67.3907 125.736 67.4125 125.794 67.4125 125.862C67.4125 125.93 67.3907 125.987 67.3469 126.033C67.3032 126.078 67.2389 126.101 67.1547 126.101C67.0704 126.101 67.0061 126.078 66.9624 126.033C66.9203 125.987 66.8992 125.93 66.8992 125.862ZM69.0813 128.68C69.236 128.68 69.3712 128.635 69.4867 128.543C69.6024 128.453 69.6664 128.339 69.6789 128.202H70.0891C70.0813 128.343 70.0312 128.477 69.9389 128.605C69.8469 128.733 69.7235 128.834 69.5688 128.91C69.4157 128.986 69.2531 129.024 69.0813 129.024C68.736 129.024 68.4611 128.912 68.2563 128.689C68.0531 128.465 67.9515 128.158 67.9515 127.77V127.699C67.9515 127.459 67.9968 127.246 68.0875 127.059C68.1781 126.873 68.3077 126.728 68.4765 126.625C68.6469 126.522 68.8477 126.47 69.0789 126.47C69.3632 126.47 69.5992 126.553 69.7867 126.718C69.9757 126.883 70.0765 127.098 70.0891 127.362H69.6789C69.6664 127.203 69.604 127.072 69.4915 126.971C69.3805 126.868 69.2429 126.816 69.0789 126.816C68.8587 126.816 68.6875 126.893 68.5656 127.048C68.4453 127.201 68.3851 127.424 68.3851 127.715V127.795C68.3851 128.078 68.4453 128.297 68.5656 128.45C68.6859 128.604 68.8579 128.68 69.0813 128.68ZM71.4061 128.361L71.9968 126.515H72.4611L71.4413 129.359C71.2835 129.768 71.0328 129.973 70.6891 129.973L70.6069 129.966L70.4453 129.937V129.595L70.5624 129.604C70.7093 129.604 70.8235 129.576 70.9048 129.518C70.9875 129.46 71.0555 129.355 71.1085 129.201L71.2048 128.951L70.3 126.515H70.7733L71.4061 128.361Z" fill="black"/>
<path d="M42.972 129.434H72.5194V129.661H42.972V129.434Z" fill="black"/>
<path d="M24.566 13.5235V16.4362H23.5558V8.99598H26.3813C27.2197 8.99598 27.8754 9.20379 28.349 9.6194C28.8261 10.035 29.0645 10.5852 29.0645 11.27C29.0645 11.9922 28.8314 12.5492 28.3648 12.9409C27.9018 13.3293 27.237 13.5235 26.3707 13.5235H24.566ZM24.566 12.7212H26.3813C26.9213 12.7212 27.3354 12.5986 27.6229 12.3533C27.9106 12.1046 28.0544 11.7469 28.0544 11.2802C28.0544 10.8373 27.9106 10.483 27.6229 10.2173C27.3354 9.95156 26.9408 9.81359 26.4391 9.80336H24.566V12.7212ZM32.4898 16.5384C31.7181 16.5384 31.0904 16.2931 30.6061 15.8026C30.1221 15.3086 29.8802 14.6494 29.8802 13.825V13.6512C29.8802 13.1028 29.9872 12.6139 30.201 12.1846C30.4186 11.752 30.7202 11.4147 31.1061 11.1729C31.4954 10.9276 31.9162 10.8049 32.3688 10.8049C33.109 10.8049 33.6842 11.0417 34.0946 11.5152C34.505 11.9888 34.7101 12.6667 34.7101 13.549V13.9425H30.8536C30.8674 14.4876 31.0306 14.9288 31.3429 15.266C31.6586 15.5999 32.0584 15.7668 32.5424 15.7668C32.8861 15.7668 33.1773 15.6987 33.416 15.5624C33.6544 15.4261 33.8632 15.2456 34.0418 15.0207L34.6365 15.4704C34.1594 16.1825 33.444 16.5384 32.4898 16.5384ZM32.3688 11.5817C31.976 11.5817 31.6461 11.7213 31.3797 12.0007C31.113 12.2766 30.9482 12.665 30.885 13.1658H33.7368V13.0943C33.7088 12.6139 33.5754 12.2426 33.337 11.9802C33.0984 11.7145 32.7757 11.5817 32.3688 11.5817ZM45.6856 16.5384C44.9138 16.5384 44.2861 16.2931 43.8021 15.8026C43.3178 15.3086 43.076 14.6494 43.076 13.825V13.6512C43.076 13.1028 43.1829 12.6139 43.3968 12.1846C43.6144 11.752 43.916 11.4147 44.3018 11.1729C44.6912 10.9276 45.112 10.8049 45.5645 10.8049C46.3048 10.8049 46.88 11.0417 47.2904 11.5152C47.7008 11.9888 47.9058 12.6667 47.9058 13.549V13.9425H44.0493C44.0634 14.4876 44.2264 14.9288 44.5386 15.266C44.8544 15.5999 45.2541 15.7668 45.7384 15.7668C46.0821 15.7668 46.373 15.6987 46.6117 15.5624C46.8501 15.4261 47.0589 15.2456 47.2378 15.0207L47.8322 15.4704C47.3552 16.1825 46.6397 16.5384 45.6856 16.5384ZM45.5645 11.5817C45.1717 11.5817 44.8421 11.7213 44.5754 12.0007C44.3088 12.2766 44.144 12.665 44.0808 13.1658H46.9325V13.0943C46.9045 12.6139 46.7712 12.2426 46.5328 11.9802C46.2941 11.7145 45.9714 11.5817 45.5645 11.5817ZM51.3208 15.7668C51.668 15.7668 51.9714 15.6646 52.2309 15.4602C52.4904 15.2558 52.6344 15.0003 52.6624 14.6937H53.5832C53.5656 15.0105 53.4533 15.312 53.2464 15.5982C53.0394 15.8843 52.7624 16.1126 52.4152 16.2829C52.0712 16.4533 51.7064 16.5384 51.3208 16.5384C50.5456 16.5384 49.9282 16.2881 49.4685 15.7873C49.0125 15.2831 48.7845 14.5949 48.7845 13.7228V13.5644C48.7845 13.0261 48.8864 12.5475 49.0898 12.1284C49.2933 11.7094 49.5845 11.3841 49.9632 11.1524C50.3456 10.9208 50.7962 10.8049 51.3154 10.8049C51.9538 10.8049 52.4834 10.9906 52.9042 11.3619C53.3288 11.7333 53.5549 12.2153 53.5832 12.8081H52.6624C52.6344 12.4504 52.4938 12.1574 52.2413 11.9292C51.9925 11.6975 51.6837 11.5817 51.3154 11.5817C50.8208 11.5817 50.4368 11.7554 50.1632 12.1029C49.893 12.447 49.7581 12.9461 49.7581 13.6001V13.779C49.7581 14.4161 49.893 14.9066 50.1632 15.2507C50.4333 15.5948 50.8192 15.7668 51.3208 15.7668ZM55.9981 9.5683V10.9071H57.061V11.6379H55.9981V15.0667C55.9981 15.2882 56.0456 15.4551 56.1402 15.5675C56.2349 15.6765 56.3962 15.7311 56.6242 15.7311C56.7365 15.7311 56.8909 15.7106 57.0872 15.6697V16.4362C56.8312 16.5044 56.5821 16.5384 56.3402 16.5384C55.905 16.5384 55.5773 16.4107 55.3562 16.1552C55.1352 15.8997 55.0248 15.5369 55.0248 15.0667V11.6379H53.9882V10.9071H55.0248V9.5683H55.9981ZM62.6853 12.9972H59.3656V15.634H63.2221V16.4362H58.3552V8.99598H63.1696V9.80336H59.3656V12.1949H62.6853V12.9972ZM63.985 13.6257C63.985 12.7774 64.192 12.0961 64.6058 11.5817C65.0197 11.0638 65.5618 10.8049 66.232 10.8049C66.8984 10.8049 67.4261 11.0264 67.8152 11.4692V8.58716H68.7888V16.4362H67.8941L67.8472 15.8435C67.4576 16.3068 66.9157 16.5384 66.221 16.5384C65.5618 16.5384 65.0234 16.2761 64.6058 15.7515C64.192 15.2269 63.985 14.5421 63.985 13.6972V13.6257ZM64.9584 13.733C64.9584 14.3598 65.092 14.8504 65.3584 15.2047C65.625 15.559 65.9933 15.7361 66.4632 15.7361C67.0805 15.7361 67.5312 15.467 67.8152 14.9288V12.3891C67.5242 11.8678 67.077 11.6072 66.4736 11.6072C65.9965 11.6072 65.625 11.7861 65.3584 12.1438C65.092 12.5015 64.9584 13.0312 64.9584 13.733ZM70.0725 13.6257C70.0725 12.7638 70.2778 12.0791 70.688 11.5715C71.0984 11.0604 71.6421 10.8049 72.3192 10.8049C73.0138 10.8049 73.5554 11.0434 73.945 11.5204L73.9925 10.9071H74.8816V16.3034C74.8816 17.0188 74.6621 17.5826 74.2237 17.9948C73.789 18.407 73.2032 18.6131 72.4666 18.6131C72.0562 18.6131 71.6544 18.5279 71.2616 18.3576C70.8688 18.1873 70.569 17.9539 70.3621 17.6575L70.8672 17.0903C71.2845 17.5911 71.7946 17.8415 72.3984 17.8415C72.8714 17.8415 73.24 17.712 73.5032 17.4531C73.7696 17.1942 73.9032 16.8297 73.9032 16.3596V15.8843C73.5136 16.3204 72.9824 16.5384 72.3088 16.5384C71.6421 16.5384 71.1021 16.2778 70.688 15.7566C70.2778 15.2354 70.0725 14.5251 70.0725 13.6257ZM71.0512 13.733C71.0512 14.3565 71.1826 14.847 71.4456 15.2047C71.709 15.559 72.0773 15.7361 72.5509 15.7361C73.1645 15.7361 73.6154 15.4653 73.9032 14.9236V12.3993C73.6048 11.8712 73.1573 11.6072 72.5613 11.6072C72.0877 11.6072 71.7176 11.7861 71.4512 12.1438C71.1845 12.5015 71.0512 13.0312 71.0512 13.733ZM78.7173 16.5384C77.9453 16.5384 77.3176 16.2931 76.8333 15.8026C76.3496 15.3086 76.1074 14.6494 76.1074 13.825V13.6512C76.1074 13.1028 76.2146 12.6139 76.4285 12.1846C76.6458 11.752 76.9474 11.4147 77.3333 11.1729C77.7226 10.9276 78.1437 10.8049 78.596 10.8049C79.336 10.8049 79.9114 11.0417 80.3221 11.5152C80.7325 11.9888 80.9376 12.6667 80.9376 13.549V13.9425H77.0808C77.0949 14.4876 77.2581 14.9288 77.5701 15.266C77.8858 15.5999 78.2858 15.7668 78.7696 15.7668C79.1136 15.7668 79.4045 15.6987 79.6432 15.5624C79.8816 15.4261 80.0904 15.2456 80.2693 15.0207L80.8637 15.4704C80.3866 16.1825 79.6714 16.5384 78.7173 16.5384ZM78.596 11.5817C78.2032 11.5817 77.8736 11.7213 77.6072 12.0007C77.3405 12.2766 77.1757 12.665 77.1125 13.1658H79.9642V13.0943C79.9362 12.6139 79.8026 12.2426 79.5642 11.9802C79.3256 11.7145 79.0032 11.5817 78.596 11.5817Z" fill="#DCDCDC"/>
<path d="M38.593 11.7553C38.4458 11.7314 38.2861 11.7195 38.1144 11.7195C37.476 11.7195 37.0426 11.9835 36.8146 12.5116V16.4361H35.8413V10.907H36.7885L36.8042 11.5458C37.1234 11.0518 37.576 10.8048 38.1616 10.8048C38.3512 10.8048 38.4949 10.8287 38.593 10.8764V11.7553ZM40.0557 16.4361V11.6378H39.1562V10.907H40.0557V10.3398C40.0557 9.74704 40.2189 9.28883 40.545 8.96519C40.8714 8.64156 41.3325 8.47974 41.9288 8.47974C42.1533 8.47974 42.3762 8.50869 42.597 8.5666L42.5445 9.33312C42.3797 9.30245 42.2042 9.28715 42.0184 9.28715C41.7026 9.28715 41.4589 9.37741 41.2869 9.55798C41.1152 9.73513 41.0293 9.99062 41.0293 10.3245V10.907H42.2445V11.6378H41.0293V16.4361H40.0557Z" fill="#666666"/>
<path d="M24.0622 17.4391L23.56 16.4307H24.5645L24.0622 17.4391Z" fill="#DCDCDC"/>
<path d="M35.2072 9.09576C35.0005 9.09226 34.8301 9.25211 34.8267 9.45276L34.768 12.7227C34.7643 12.9234 34.9288 13.0889 35.1355 13.0924C35.3421 13.0959 35.5125 12.936 35.5163 12.7353L35.5683 9.82874L38.5611 9.87934C38.7675 9.88284 38.9381 9.72299 38.9416 9.52235C38.9451 9.32168 38.7805 9.15618 38.5739 9.15269L35.2072 9.09576ZM44.9731 18.7636L35.4699 9.20663L34.9315 9.71152L44.4349 19.2685L44.9731 18.7636Z" fill="#BB0000"/>
</g>
<path fill-rule="evenodd" clip-rule="evenodd" d="M0 0H100V216H0V0ZM0.266667 0.258993V215.741H99.7333V0.258993H0.266667Z" fill="black"/>
</g>
<defs>
<clipPath id="clip0_875_4525">
<rect width="100" height="216" fill="white"/>
</clipPath>
</defs>
</svg>
