<svg width="100" height="216" viewBox="0 0 100 216" fill="none" xmlns="http://www.w3.org/2000/svg">
<g clip-path="url(#clip0_875_4789)">
<mask id="mask0_875_4789" style="mask-type:luminance" maskUnits="userSpaceOnUse" x="0" y="0" width="100" height="216">
<path d="M100 0H0V216H100V0Z" fill="white"/>
</mask>
<g mask="url(#mask0_875_4789)">
<path d="M100 0H0V216H100V0Z" fill="white"/>
<path d="M100 0H0V221.852H100V0Z" fill="black" fill-opacity="0.45"/>
<path d="M95.7333 54.2661H4V135.665H95.7333V54.2661Z" fill="#666666"/>
<path fill-rule="evenodd" clip-rule="evenodd" d="M3.73334 54H96V135.931H3.73334V54ZM4.26667 54.532V135.399H95.4667V54.532H4.26667Z" fill="#BB0000"/>
<path d="M13.6469 72.8066C13.6469 73.548 13.5219 74.1957 13.2719 74.7498C13.0219 75.3004 12.6677 75.7213 12.2094 76.0123C11.751 76.3033 11.2163 76.4488 10.6052 76.4488C10.008 76.4488 9.47847 76.3033 9.01666 76.0123C8.55485 75.7178 8.19549 75.3004 7.93853 74.7602C7.68506 74.2165 7.55485 73.5876 7.54791 72.8742V72.3286C7.54791 71.6013 7.67463 70.9589 7.92813 70.4011C8.18159 69.8435 8.53922 69.4174 9.00103 69.1232C9.46631 68.8252 9.99757 68.6763 10.5948 68.6763C11.2024 68.6763 11.7371 68.8234 12.199 69.1178C12.6642 69.4089 13.0219 69.8331 13.2719 70.3907C13.5219 70.9451 13.6469 71.5909 13.6469 72.3286V72.8066ZM12.6521 72.3182C12.6521 71.4212 12.4715 70.7336 12.1104 70.2556C11.7493 69.7741 11.2441 69.5336 10.5948 69.5336C9.96285 69.5336 9.46458 69.7741 9.09999 70.2556C8.73887 70.7336 8.55311 71.3986 8.54271 72.2506V72.8066C8.54271 73.6759 8.72501 74.3601 9.08957 74.8589C9.45762 75.3542 9.96285 75.6018 10.6052 75.6018C11.251 75.6018 11.751 75.368 12.1052 74.9004C12.4594 74.4293 12.6416 73.7557 12.6521 72.8795V72.3182ZM17.7198 71.5856C17.5739 71.5614 17.416 71.5494 17.2458 71.5494C16.6139 71.5494 16.1851 71.8178 15.9594 72.3546V76.3448H14.9958V70.7232H15.9333L15.949 71.3728C16.2649 70.8706 16.7128 70.6195 17.2927 70.6195C17.4802 70.6195 17.6226 70.6437 17.7198 70.6921V71.5856ZM18.2719 73.4873C18.2719 72.6249 18.4767 71.932 18.8864 71.409C19.2962 70.8826 19.8326 70.6195 20.4958 70.6195C21.1555 70.6195 21.6781 70.8445 22.0635 71.2949V68.3645H23.0271V76.3448H22.1416L22.0948 75.742C21.7094 76.2131 21.1729 76.4488 20.4854 76.4488C19.8326 76.4488 19.2996 76.182 18.8864 75.6486C18.4767 75.1153 18.2719 74.4189 18.2719 73.5599V73.4873ZM19.2354 73.5964C19.2354 74.2337 19.3674 74.7325 19.6312 75.0927C19.8951 75.4529 20.2597 75.633 20.725 75.633C21.3361 75.633 21.7823 75.3595 22.0635 74.8121V72.2299C21.7754 71.7 21.3326 71.4351 20.7354 71.4351C20.2632 71.4351 19.8951 71.617 19.6312 71.9806C19.3674 72.3443 19.2354 72.8829 19.2354 73.5964ZM26.8656 76.4488C26.1017 76.4488 25.4802 76.1993 25.001 75.7005C24.5219 75.1983 24.2823 74.5282 24.2823 73.69V73.5131C24.2823 72.9556 24.3882 72.4587 24.6 72.0221C24.8153 71.5822 25.1139 71.2393 25.4958 70.9935C25.8812 70.744 26.2979 70.6195 26.7459 70.6195C27.4784 70.6195 28.048 70.8602 28.4541 71.3414C28.8605 71.8229 29.0635 72.5121 29.0635 73.4094V73.8095H25.2458C25.2597 74.3636 25.4212 74.8121 25.7302 75.1549C26.0427 75.4944 26.4385 75.6641 26.9176 75.6641C27.2579 75.6641 27.5461 75.5949 27.7824 75.4563C28.0184 75.3177 28.2251 75.1342 28.4021 74.9057L28.9907 75.363C28.5184 76.0868 27.8101 76.4488 26.8656 76.4488ZM26.7459 71.409C26.3569 71.409 26.0306 71.551 25.7667 71.8351C25.5028 72.1158 25.3396 72.5105 25.2771 73.0197H28.1V72.9471C28.0723 72.4587 27.9403 72.0809 27.7043 71.8144C27.468 71.5441 27.1485 71.409 26.7459 71.409ZM32.9072 71.5856C32.7613 71.5614 32.6035 71.5494 32.4333 71.5494C31.8013 71.5494 31.3725 71.8178 31.1469 72.3546V76.3448H30.1835V70.7232H31.1208L31.1365 71.3728C31.4525 70.8706 31.9003 70.6195 32.4803 70.6195C32.6677 70.6195 32.8101 70.6437 32.9072 70.6921V71.5856ZM39.6989 74.2146H38.324L37.9072 76.3448H37.1624L37.5792 74.2146H36.3344V73.5028H37.7147L38.0739 71.6636H36.7301V70.9416H38.2147L38.6416 68.78H39.3864L38.9595 70.9416H40.3344L40.7613 68.78H41.5115L41.0843 70.9416H42.1469V71.6636H40.9437L40.5843 73.5028H41.7563V74.2146H40.4491L40.0323 76.3448H39.2824L39.6989 74.2146ZM38.4595 73.5028H39.8344L40.1939 71.6636H38.8187L38.4595 73.5028ZM48.7301 76.3448H47.7613V69.9387L45.8187 70.6506V69.7775L48.5792 68.7438H48.7301V76.3448ZM56.5219 76.3448H51.5531V75.6537L54.1781 72.7444C54.5669 72.3044 54.8344 71.9477 54.9803 71.6739C55.1296 71.397 55.2043 71.1113 55.2043 70.8168C55.2043 70.4218 55.0843 70.0981 54.8448 69.8451C54.6053 69.5924 54.2859 69.466 53.8864 69.466C53.4072 69.466 53.0341 69.6028 52.7667 69.8765C52.5027 70.1465 52.3709 70.524 52.3709 71.0089H51.4072C51.4072 70.3128 51.6312 69.7499 52.0792 69.3205C52.5307 68.8909 53.1331 68.6763 53.8864 68.6763C54.5912 68.6763 55.1485 68.8614 55.5584 69.2322C55.968 69.5993 56.1728 70.0893 56.1728 70.7025C56.1728 71.4473 55.6973 72.3339 54.7459 73.3626L52.7147 75.5603H56.5219V76.3448ZM58.9437 72.0948H59.6677C60.1227 72.0878 60.4803 71.9684 60.7405 71.7364C61.0011 71.5042 61.1312 71.1909 61.1312 70.7961C61.1312 69.9092 60.6885 69.466 59.8032 69.466C59.3864 69.466 59.0531 69.5855 58.8032 69.8244C58.5565 70.0601 58.4333 70.3734 58.4333 70.7647H57.4699C57.4699 70.1657 57.6885 69.6685 58.1261 69.2737C58.5669 68.8755 59.1261 68.6763 59.8032 68.6763C60.5184 68.6763 61.0792 68.8651 61.4853 69.2426C61.8917 69.6201 62.0947 70.1449 62.0947 70.8168C62.0947 71.1459 61.9872 71.4646 61.772 71.7726C61.56 72.0809 61.2701 72.3113 60.9021 72.4637C61.3187 72.5954 61.64 72.8135 61.8656 73.1184C62.0947 73.4232 62.2093 73.7956 62.2093 74.2353C62.2093 74.9142 61.9872 75.4529 61.5427 75.8513C61.0981 76.2496 60.5203 76.4488 59.8083 76.4488C59.0965 76.4488 58.5168 76.2565 58.0688 75.8721C57.6243 75.4874 57.4021 74.9802 57.4021 74.3497H58.3709C58.3709 74.7479 58.5011 75.0666 58.7613 75.3058C59.0219 75.5446 59.3709 75.6641 59.8083 75.6641C60.2736 75.6641 60.6296 75.543 60.876 75.3004C61.1227 75.0581 61.2459 74.7099 61.2459 74.2561C61.2459 73.8164 61.1104 73.4785 60.8395 73.2431C60.5688 73.0074 60.1781 72.8864 59.6677 72.8795H58.9437V72.0948ZM67.6 73.8041H68.652V74.5886H67.6V76.3448H66.6312V74.5886H63.1781V74.0225L66.5739 68.78H67.6V73.8041ZM64.272 73.8041H66.6312V70.0946L66.5168 70.3024L64.272 73.8041ZM69.9645 72.552L70.3499 68.78H74.2355V69.6685H71.1677L70.9387 71.7311C71.3101 71.513 71.732 71.4039 72.2043 71.4039C72.8952 71.4039 73.4437 71.6324 73.8501 72.0897C74.2563 72.5435 74.4595 73.1583 74.4595 73.9342C74.4595 74.7134 74.2475 75.3281 73.824 75.7785C73.4037 76.2254 72.8152 76.4488 72.0584 76.4488C71.3883 76.4488 70.8413 76.2634 70.4176 75.8928C69.9941 75.5223 69.7528 75.0094 69.6939 74.355H70.6053C70.6643 74.7878 70.8187 75.1153 71.0688 75.3369C71.3187 75.555 71.6485 75.6641 72.0584 75.6641C72.5061 75.6641 72.8571 75.5117 73.1104 75.2071C73.3675 74.9022 73.4957 74.4814 73.4957 73.9446C73.4957 73.4389 73.3571 73.0335 73.0792 72.7287C72.8048 72.4204 72.4387 72.2663 71.9803 72.2663C71.56 72.2663 71.2301 72.3581 70.9907 72.5417L70.7355 72.7494L69.9645 72.552ZM79.2928 68.775V69.5905H79.1157C78.3656 69.6044 77.7685 69.8262 77.324 70.2556C76.8795 70.6852 76.6227 71.2895 76.5531 72.069C76.9525 71.6117 77.4976 71.3832 78.1885 71.3832C78.8483 71.3832 79.3744 71.6151 79.7667 72.0793C80.1624 72.5435 80.3605 73.1426 80.3605 73.877C80.3605 74.6562 80.1469 75.2797 79.7197 75.7473C79.2963 76.215 78.7267 76.4488 78.0115 76.4488C77.2859 76.4488 76.6973 76.1716 76.2459 75.6175C75.7944 75.0597 75.5688 74.3428 75.5688 73.4666V73.0976C75.5688 71.7053 75.8656 70.6418 76.4595 69.9076C77.0565 69.1697 77.9437 68.7922 79.1208 68.775H79.2928ZM78.0272 72.1831C77.6973 72.1831 77.3933 72.282 77.1157 72.4794C76.8379 72.6768 76.6451 72.9244 76.5376 73.2224V73.5756C76.5376 74.1992 76.6781 74.7014 76.9595 75.0823C77.2405 75.4632 77.5912 75.6537 78.0115 75.6537C78.4456 75.6537 78.7859 75.4944 79.0323 75.1757C79.2824 74.8573 79.4072 74.4399 79.4072 73.9236C79.4072 73.4041 79.2805 72.9851 79.0272 72.6664C78.7771 72.3443 78.4437 72.1831 78.0272 72.1831ZM86.3968 69.3205L83.2563 76.3448H82.2459L85.376 69.5698H81.272V68.78H86.3968V69.3205ZM92.0896 70.7543C92.0896 71.1321 91.9888 71.468 91.7875 71.7622C91.5896 72.0567 91.3205 72.2871 90.9803 72.4533C91.376 72.6231 91.6885 72.8707 91.9176 73.1963C92.1504 73.5219 92.2667 73.8909 92.2667 74.3029C92.2667 74.9576 92.0445 75.4789 91.6 75.8668C91.1589 76.2546 90.5773 76.4488 89.8552 76.4488C89.1261 76.4488 88.5411 76.2546 88.1 75.8668C87.6624 75.4755 87.4437 74.9541 87.4437 74.3029C87.4437 73.8943 87.5549 73.5254 87.7771 73.1963C88.0027 72.8673 88.3136 72.618 88.7093 72.4483C88.3725 72.282 88.1069 72.0517 87.9125 71.7572C87.7181 71.4627 87.6208 71.1286 87.6208 70.7543C87.6208 70.1172 87.8256 69.6116 88.2355 69.2373C88.6451 68.8633 89.1851 68.6763 89.8552 68.6763C90.5219 68.6763 91.06 68.8633 91.4699 69.2373C91.8829 69.6116 92.0896 70.1172 92.0896 70.7543ZM91.3032 74.2822C91.3032 73.8597 91.1677 73.515 90.8968 73.2482C90.6296 72.9816 90.2789 72.8481 89.8448 72.8481C89.4107 72.8481 89.0619 72.9798 88.7979 73.2431C88.5376 73.5062 88.4072 73.8528 88.4072 74.2822C88.4072 74.7118 88.5341 75.0493 88.7875 75.2954C89.0445 75.5412 89.4003 75.6641 89.8552 75.6641C90.3067 75.6641 90.6608 75.5412 90.9176 75.2954C91.1747 75.0459 91.3032 74.7083 91.3032 74.2822ZM89.8552 69.466C89.4768 69.466 89.1693 69.5836 88.9333 69.8193C88.7008 70.0513 88.5843 70.3684 88.5843 70.77C88.5843 71.1544 88.6989 71.4662 88.928 71.7053C89.1608 71.9407 89.4699 72.0586 89.8552 72.0586C90.2405 72.0586 90.548 71.9407 90.7771 71.7053C91.0096 71.4662 91.1261 71.1544 91.1261 70.77C91.1261 70.3856 91.0061 70.072 90.7667 69.8297C90.5272 69.5871 90.2232 69.466 89.8552 69.466Z" fill="#DCDCDC"/>
<path d="M24.8159 41.6495C23.6367 41.3114 22.7773 40.897 22.2378 40.4065C21.7031 39.9112 21.4357 39.3015 21.4357 38.5777C21.4357 37.7586 21.7627 37.0821 22.4168 36.5488C23.0757 36.0107 23.9303 35.7415 24.9806 35.7415C25.6968 35.7415 26.3341 35.8798 26.8928 36.1559C27.456 36.432 27.8907 36.8132 28.196 37.2989C28.5064 37.7847 28.6616 38.3156 28.6616 38.8921H27.2795C27.2795 38.2632 27.079 37.7703 26.6779 37.4133C26.2768 37.0513 25.7111 36.8701 24.9806 36.8701C24.3027 36.8701 23.7727 37.0202 23.3908 37.3202C23.0136 37.6155 22.825 38.0275 22.825 38.5561C22.825 38.9801 23.004 39.3398 23.3621 39.635C23.725 39.9255 24.3385 40.1921 25.2026 40.4349C26.0715 40.6778 26.7496 40.947 27.2366 41.2423C27.7283 41.5328 28.091 41.8733 28.3251 42.2638C28.5638 42.6543 28.6832 43.1139 28.6832 43.6425C28.6832 44.4855 28.3536 45.1619 27.6947 45.6713C27.036 46.1762 26.1551 46.4287 25.0522 46.4287C24.3361 46.4287 23.6677 46.293 23.047 46.0214C22.4264 45.7453 21.9466 45.3692 21.6076 44.8927C21.2734 44.4166 21.1063 43.876 21.1063 43.2711H22.4884C22.4884 43.8997 22.72 44.3974 23.1831 44.7642C23.651 45.126 24.274 45.3072 25.0522 45.3072C25.7779 45.3072 26.3341 45.1595 26.7208 44.8643C27.1075 44.569 27.3008 44.1665 27.3008 43.6568C27.3008 43.1472 27.1219 42.7543 26.7638 42.4782C26.4058 42.1973 25.7564 41.9209 24.8159 41.6495ZM35.028 45.5213C34.5126 46.1262 33.7558 46.4287 32.7579 46.4287C31.932 46.4287 31.3019 46.1906 30.8672 45.7144C30.4376 45.2332 30.2203 44.5238 30.2158 43.5856V38.5561H31.5406V43.5496C31.5406 44.7214 32.0179 45.3072 32.9728 45.3072C33.9851 45.3072 34.6582 44.9308 34.9923 44.1785V38.5561H36.3171V46.2858H35.0568L35.028 45.5213ZM41.4448 45.35C41.9174 45.35 42.3304 45.2072 42.6838 44.9215C43.0371 44.6355 43.2328 44.2785 43.271 43.8497H44.5243C44.5003 44.2926 44.3475 44.7142 44.0659 45.1143C43.7843 45.5144 43.407 45.8333 42.9344 46.0714C42.4664 46.3098 41.9699 46.4287 41.4448 46.4287C40.3896 46.4287 39.5494 46.0786 38.924 45.3785C38.3032 44.6738 37.9931 43.7116 37.9931 42.4925V42.2709C37.9931 41.5184 38.1315 40.8494 38.4083 40.2636C38.6854 39.6779 39.0816 39.223 39.5971 38.899C40.1176 38.5753 40.731 38.4133 41.4376 38.4133C42.3067 38.4133 43.0275 38.6729 43.6003 39.1921C44.1782 39.7111 44.4862 40.3849 44.5243 41.2138H43.271C43.2328 40.7137 43.0419 40.3041 42.6982 39.9848C42.3592 39.6611 41.939 39.4991 41.4376 39.4991C40.7646 39.4991 40.2416 39.742 39.8694 40.228C39.5016 40.7089 39.3179 41.4067 39.3179 42.3209V42.571C39.3179 43.4616 39.5016 44.1474 39.8694 44.6286C40.2368 45.1095 40.7622 45.35 41.4448 45.35ZM49.1219 45.35C49.5944 45.35 50.0075 45.2072 50.3608 44.9215C50.7142 44.6355 50.9099 44.2785 50.948 43.8497H52.2014C52.1774 44.2926 52.0246 44.7142 51.743 45.1143C51.4614 45.5144 51.084 45.8333 50.6115 46.0714C50.1435 46.3098 49.647 46.4287 49.1219 46.4287C48.0667 46.4287 47.2264 46.0786 46.6011 45.3785C45.9803 44.6738 45.6702 43.7116 45.6702 42.4925V42.2709C45.6702 41.5184 45.8086 40.8494 46.0854 40.2636C46.3624 39.6779 46.7587 39.223 47.2742 38.899C47.7947 38.5753 48.408 38.4133 49.1147 38.4133C49.9838 38.4133 50.7046 38.6729 51.2776 39.1921C51.8552 39.7111 52.1632 40.3849 52.2014 41.2138H50.948C50.9099 40.7137 50.719 40.3041 50.3752 39.9848C50.0363 39.6611 49.616 39.4991 49.1147 39.4991C48.4416 39.4991 47.9187 39.742 47.5464 40.228C47.1787 40.7089 46.995 41.4067 46.995 42.3209V42.571C46.995 43.4616 47.1787 44.1474 47.5464 44.6286C47.9139 45.1095 48.4392 45.35 49.1219 45.35ZM56.9064 46.4287C55.856 46.4287 55.0014 46.0858 54.3427 45.4C53.6838 44.7094 53.3544 43.788 53.3544 42.6354V42.3925C53.3544 41.6256 53.5 40.9422 53.7912 40.3421C54.0872 39.7372 54.4979 39.2658 55.023 38.9277C55.5528 38.5848 56.1259 38.4133 56.7416 38.4133C57.7491 38.4133 58.532 38.7444 59.0907 39.4063C59.6494 40.0684 59.9285 41.0162 59.9285 42.2497V42.7998H54.6792C54.6982 43.5616 54.9203 44.1785 55.3451 44.6499C55.775 45.1167 56.3192 45.35 56.9779 45.35C57.4459 45.35 57.8422 45.2548 58.1667 45.0643C58.4915 44.8738 58.7755 44.6214 59.019 44.307L59.8283 44.9356C59.179 45.931 58.2051 46.4287 56.9064 46.4287ZM56.7416 39.4991C56.207 39.4991 55.7582 39.6944 55.3952 40.0849C55.0326 40.4708 54.808 41.0138 54.7222 41.7136H58.6038V41.6139C58.5654 40.9422 58.384 40.4232 58.0595 40.0564C57.7347 39.6851 57.2955 39.4991 56.7416 39.4991ZM65.98 44.2354C65.98 43.8784 65.844 43.602 65.5718 43.4068C65.3043 43.2068 64.8342 43.0354 64.1611 42.8926C63.4926 42.7498 62.9603 42.5782 62.564 42.3781C62.1726 42.1781 61.8814 41.94 61.6902 41.6639C61.504 41.3875 61.411 41.059 61.411 40.6778C61.411 40.0444 61.6784 39.5087 62.2131 39.0706C62.7526 38.6325 63.44 38.4133 64.2755 38.4133C65.1539 38.4133 65.8654 38.6396 66.4096 39.0921C66.9587 39.5443 67.2334 40.1232 67.2334 40.8278H65.9011C65.9011 40.4661 65.7462 40.154 65.4358 39.892C65.1302 39.6303 64.7435 39.4991 64.2755 39.4991C63.7934 39.4991 63.4163 39.6039 63.144 39.8135C62.872 40.0232 62.7358 40.2969 62.7358 40.635C62.7358 40.9542 62.8624 41.1947 63.1155 41.3567C63.3686 41.5184 63.8243 41.6732 64.4832 41.8208C65.147 41.9685 65.684 42.1448 66.0944 42.3497C66.5051 42.5542 66.8083 42.8019 67.004 43.0926C67.2046 43.3783 67.3048 43.7284 67.3048 44.1426C67.3048 44.8331 67.028 45.388 66.4742 45.8073C65.9203 46.2214 65.2019 46.4287 64.3184 46.4287C63.6979 46.4287 63.1488 46.3191 62.6715 46.1001C62.1939 45.881 61.8192 45.5761 61.5469 45.1856C61.2797 44.7903 61.1459 44.3642 61.1459 43.9069H62.471C62.4947 44.3498 62.6715 44.7023 63.0008 44.9643C63.335 45.2215 63.7742 45.35 64.3184 45.35C64.8198 45.35 65.2208 45.25 65.5216 45.0499C65.8272 44.8451 65.98 44.5738 65.98 44.2354ZM73.5424 44.2354C73.5424 43.8784 73.4064 43.602 73.1341 43.4068C72.8669 43.2068 72.3966 43.0354 71.7235 42.8926C71.055 42.7498 70.5227 42.5782 70.1264 42.3781C69.735 42.1781 69.4438 41.94 69.2528 41.6639C69.0667 41.3875 68.9733 41.059 68.9733 40.6778C68.9733 40.0444 69.2408 39.5087 69.7755 39.0706C70.3149 38.6325 71.0024 38.4133 71.8382 38.4133C72.7166 38.4133 73.4277 38.6396 73.9723 39.0921C74.5211 39.5443 74.7958 40.1232 74.7958 40.8278H73.4638C73.4638 40.4661 73.3086 40.154 72.9982 39.892C72.6926 39.6303 72.3059 39.4991 71.8382 39.4991C71.3558 39.4991 70.9787 39.6039 70.7064 39.8135C70.4344 40.0232 70.2984 40.2969 70.2984 40.635C70.2984 40.9542 70.4248 41.1947 70.6779 41.3567C70.9309 41.5184 71.3869 41.6732 72.0456 41.8208C72.7093 41.9685 73.2464 42.1448 73.6571 42.3497C74.0677 42.5542 74.3707 42.8019 74.5667 43.0926C74.767 43.3783 74.8672 43.7284 74.8672 44.1426C74.8672 44.8331 74.5904 45.388 74.0365 45.8073C73.4827 46.2214 72.7643 46.4287 71.8811 46.4287C71.2603 46.4287 70.7112 46.3191 70.2339 46.1001C69.7566 45.881 69.3816 45.5761 69.1096 45.1856C68.8422 44.7903 68.7086 44.3642 68.7086 43.9069H70.0334C70.0574 44.3498 70.2339 44.7023 70.5632 44.9643C70.8976 45.2215 71.3368 45.35 71.8811 45.35C72.3824 45.35 72.7835 45.25 73.084 45.0499C73.3896 44.8451 73.5424 44.5738 73.5424 44.2354ZM78.0757 43.3496H76.8798L76.7867 35.8843H78.176L78.0757 43.3496ZM76.7365 45.6213C76.7365 45.4072 76.8008 45.2284 76.9299 45.0856C77.0635 44.938 77.2592 44.8643 77.5171 44.8643C77.7749 44.8643 77.9707 44.938 78.1043 45.0856C78.2379 45.2284 78.3048 45.4072 78.3048 45.6213C78.3048 45.8357 78.2379 46.0142 78.1043 46.1573C77.9707 46.2954 77.7749 46.3643 77.5171 46.3643C77.2592 46.3643 77.0635 46.2954 76.9299 46.1573C76.8008 46.0142 76.7365 45.8357 76.7365 45.6213Z" fill="#DCDCDC"/>
<path d="M14.9732 94.0771H13.5435L13.2224 94.9655H12.7584L14.0615 91.5614H14.4552L15.7607 94.9655H15.299L14.9732 94.0771ZM13.6795 93.7076H14.8396L14.2584 92.1155L13.6795 93.7076ZM16.5623 92.4358L16.5763 92.7539C16.7701 92.5105 17.0232 92.389 17.3357 92.389C17.8716 92.389 18.1419 92.6906 18.1466 93.2939V94.9655H17.713V93.2915C17.7115 93.1091 17.6693 92.9745 17.5865 92.8872C17.5052 92.7997 17.3779 92.7561 17.2044 92.7561C17.0638 92.7561 16.9404 92.7936 16.8341 92.8683C16.7279 92.9431 16.6451 93.0415 16.5857 93.1631V94.9655H16.1521V92.4358H16.5623ZM21.0435 95.0124C20.6997 95.0124 20.4201 94.9001 20.2044 94.6756C19.9888 94.4497 19.881 94.1481 19.881 93.7709V93.6914C19.881 93.4405 19.9287 93.2168 20.024 93.0205C20.1208 92.8223 20.2552 92.668 20.4271 92.5573C20.6005 92.4451 20.788 92.389 20.9896 92.389C21.3193 92.389 21.5755 92.4975 21.7584 92.714C21.9412 92.9308 22.0326 93.241 22.0326 93.6445V93.8246H20.3146C20.3208 94.0739 20.3935 94.2758 20.5326 94.4301C20.6732 94.583 20.8513 94.6594 21.0669 94.6594C21.2201 94.6594 21.3497 94.628 21.456 94.5657C21.5623 94.5035 21.6552 94.4208 21.7349 94.3178L21.9997 94.5237C21.7872 94.8493 21.4685 95.0124 21.0435 95.0124ZM20.9896 92.7444C20.8146 92.7444 20.6677 92.8085 20.549 92.9362C20.4302 93.0625 20.3568 93.2402 20.3287 93.4692H21.599V93.4365C21.5865 93.2168 21.5271 93.0468 21.4208 92.9268C21.3146 92.8053 21.1708 92.7444 20.9896 92.7444ZM23.4388 93.6961H22.2951V93.3429H23.4388V93.6961ZM24.2708 92.4358L24.2826 92.7164C24.4685 92.4983 24.7193 92.389 25.0349 92.389C25.3896 92.389 25.631 92.5246 25.7591 92.796C25.8435 92.6744 25.9529 92.5762 26.0872 92.5012C26.2232 92.4265 26.3833 92.389 26.5677 92.389C27.124 92.389 27.4067 92.6829 27.4163 93.2705V94.9655H26.9827V93.2963C26.9827 93.1154 26.9411 92.9806 26.8584 92.8917C26.7755 92.8013 26.6365 92.7561 26.4412 92.7561C26.2802 92.7561 26.1466 92.8045 26.0404 92.901C25.9341 92.9963 25.8724 93.1248 25.8552 93.2868V94.9655H25.4193V93.308C25.4193 92.9401 25.2388 92.7561 24.8779 92.7561C24.5935 92.7561 24.399 92.8768 24.2943 93.1186V94.9655H23.8607V92.4358H24.2708ZM29.6381 94.9655C29.6131 94.9155 29.5928 94.8269 29.5771 94.699C29.3755 94.9078 29.1349 95.0124 28.8552 95.0124C28.6053 95.0124 28.3998 94.9421 28.239 94.8019C28.0795 94.6602 27.9997 94.4809 27.9997 94.2641C27.9997 94.0007 28.0997 93.7964 28.2997 93.6517C28.5013 93.5051 28.784 93.4317 29.1483 93.4317H29.5701V93.233C29.5701 93.0819 29.5248 92.962 29.4341 92.8731C29.3435 92.7827 29.2099 92.7374 29.0333 92.7374C28.8787 92.7374 28.7491 92.7765 28.6443 92.8542C28.5395 92.9322 28.4872 93.0266 28.4872 93.1373H28.0512C28.0512 93.0109 28.0957 92.8893 28.1848 92.7726C28.2755 92.6542 28.3974 92.5605 28.5504 92.4919C28.7054 92.4233 28.8747 92.389 29.0592 92.389C29.3512 92.389 29.5803 92.4624 29.7459 92.609C29.9115 92.7539 29.9973 92.954 30.0037 93.2096V94.3739C30.0037 94.6062 30.0333 94.791 30.0928 94.928V94.9655H29.6381ZM28.9184 94.6359C29.0544 94.6359 29.1835 94.6008 29.3053 94.5306C29.4272 94.4607 29.5155 94.3694 29.5701 94.2572V93.7382H29.2301C28.6989 93.7382 28.4333 93.8933 28.4333 94.2034C28.4333 94.3391 28.4787 94.445 28.5693 94.5213C28.66 94.5976 28.7763 94.6359 28.9184 94.6359ZM31.1544 94.9655H30.7208V92.4358H31.1544V94.9655ZM30.6856 91.7649C30.6856 91.6947 30.7067 91.6354 30.7491 91.5872C30.7928 91.5388 30.8568 91.5146 30.9411 91.5146C31.0256 91.5146 31.0896 91.5388 31.1334 91.5872C31.1771 91.6354 31.199 91.6947 31.199 91.7649C31.199 91.8349 31.1771 91.8934 31.1334 91.9402C31.0896 91.987 31.0256 92.0104 30.9411 92.0104C30.8568 92.0104 30.7928 91.987 30.7491 91.9402C30.7067 91.8934 30.6856 91.8349 30.6856 91.7649ZM32.3216 94.9655H31.888V91.3744H32.3216V94.9655ZM35.2256 94.6594C35.3803 94.6594 35.5155 94.6125 35.631 94.5189C35.7467 94.4255 35.8107 94.3085 35.8232 94.1683H36.2334C36.2256 94.3133 36.1755 94.4511 36.0832 94.5822C35.9912 94.7131 35.8677 94.8174 35.7131 94.8953C35.56 94.9733 35.3973 95.0124 35.2256 95.0124C34.8803 95.0124 34.6054 94.8977 34.4006 94.6687C34.1974 94.438 34.0957 94.1231 34.0957 93.7241V93.6517C34.0957 93.4054 34.1411 93.1865 34.2318 92.9947C34.3224 92.8029 34.452 92.6542 34.6208 92.548C34.7912 92.4422 34.992 92.389 35.2232 92.389C35.5075 92.389 35.7435 92.4741 35.931 92.6438C36.12 92.8138 36.2208 93.0343 36.2334 93.3056H35.8232C35.8107 93.142 35.7483 93.008 35.6358 92.9034C35.5248 92.7976 35.3872 92.7444 35.2232 92.7444C35.003 92.7444 34.8318 92.8239 34.7099 92.983C34.5896 93.1404 34.5294 93.3687 34.5294 93.6679V93.7499C34.5294 94.0412 34.5896 94.2657 34.7099 94.4231C34.8302 94.5806 35.0021 94.6594 35.2256 94.6594ZM36.6059 93.6773C36.6059 93.4296 36.6544 93.2067 36.7512 93.0088C36.8499 92.8106 36.9856 92.6579 37.1592 92.5504C37.3342 92.443 37.5334 92.389 37.7568 92.389C38.1022 92.389 38.3811 92.5084 38.5936 92.7468C38.8075 92.9854 38.9147 93.3024 38.9147 93.6983V93.7289C38.9147 93.9749 38.867 94.1962 38.7718 94.3928C38.6779 94.5875 38.5427 94.7394 38.3662 94.8488C38.1912 94.9578 37.9896 95.0124 37.7613 95.0124C37.4176 95.0124 37.139 94.8932 36.9248 94.6546C36.7123 94.4162 36.6059 94.1005 36.6059 93.7076V93.6773ZM37.0419 93.7289C37.0419 94.0092 37.1067 94.2345 37.2365 94.4045C37.3677 94.5742 37.5427 94.6594 37.7613 94.6594C37.9819 94.6594 38.1568 94.5734 38.2864 94.4021C38.4163 94.229 38.4811 93.9874 38.4811 93.6773C38.4811 93.3998 38.4147 93.1756 38.2819 93.004C38.1504 92.8311 37.9755 92.7444 37.7568 92.7444C37.5427 92.7444 37.3701 92.8295 37.2389 92.9992C37.1075 93.1692 37.0419 93.4123 37.0419 93.7289ZM39.8686 92.4358L39.8827 92.7539C40.0763 92.5105 40.3294 92.389 40.6419 92.389C41.1779 92.389 41.4483 92.6906 41.4528 93.2939V94.9655H41.0192V93.2915C41.0176 93.1091 40.9755 92.9745 40.8928 92.8872C40.8115 92.7997 40.684 92.7561 40.5107 92.7561C40.3701 92.7561 40.2467 92.7936 40.1403 92.8683C40.0342 92.9431 39.9512 93.0415 39.892 93.1631V94.9655H39.4584V92.4358H39.8686ZM42.252 94.9655V92.7702H41.8512V92.4358H42.252V92.2209C42.252 91.9386 42.3326 91.7189 42.4936 91.5614C42.656 91.4039 42.8848 91.3252 43.1803 91.3252C43.3552 91.3252 43.5763 91.3728 43.8435 91.468L43.771 91.8327C43.5755 91.7548 43.3896 91.7157 43.2131 91.7157C43.0272 91.7157 42.8928 91.7577 42.8099 91.8421C42.7286 91.9245 42.688 92.0493 42.688 92.2161V92.4358H43.2059V92.7702H42.688V94.9655H42.252ZM44.0592 94.9655H43.6232V92.4358H44.0592V94.9655ZM45.9904 92.8239C45.9248 92.813 45.8536 92.8077 45.7771 92.8077C45.4928 92.8077 45.2998 92.9284 45.1982 93.17V94.9655H44.7646V92.4358H45.1864L45.1936 92.7281C45.3358 92.502 45.5374 92.389 45.7982 92.389C45.8827 92.389 45.9467 92.3999 45.9904 92.422V92.8239ZM46.799 92.4358L46.8107 92.7164C46.9965 92.4983 47.2475 92.389 47.5629 92.389C47.9176 92.389 48.1592 92.5246 48.2872 92.796C48.3718 92.6744 48.4811 92.5762 48.6155 92.5012C48.7512 92.4265 48.9115 92.389 49.0957 92.389C49.652 92.389 49.935 92.6829 49.9443 93.2705V94.9655H49.5107V93.2963C49.5107 93.1154 49.4694 92.9806 49.3864 92.8917C49.3038 92.8013 49.1646 92.7561 48.9694 92.7561C48.8083 92.7561 48.6747 92.8045 48.5686 92.901C48.4622 92.9963 48.4006 93.1248 48.3835 93.2868V94.9655H47.9475V93.308C47.9475 92.9401 47.767 92.7561 47.4059 92.7561C47.1216 92.7561 46.9272 92.8768 46.8224 93.1186V94.9655H46.3888V92.4358H46.799ZM52.1662 94.9655C52.1411 94.9155 52.1208 94.8269 52.1054 94.699C51.9038 94.9078 51.663 95.0124 51.3835 95.0124C51.1334 95.0124 50.9278 94.9421 50.767 94.8019C50.6075 94.6602 50.5278 94.4809 50.5278 94.2641C50.5278 94.0007 50.6278 93.7964 50.8278 93.6517C51.0294 93.5051 51.3123 93.4317 51.6763 93.4317H52.0982V93.233C52.0982 93.0819 52.0528 92.962 51.9622 92.8731C51.8718 92.7827 51.7382 92.7374 51.5614 92.7374C51.4067 92.7374 51.2771 92.7765 51.1723 92.8542C51.0678 92.9322 51.0155 93.0266 51.0155 93.1373H50.5795C50.5795 93.0109 50.624 92.8893 50.7131 92.7726C50.8038 92.6542 50.9256 92.5605 51.0787 92.4919C51.2334 92.4233 51.403 92.389 51.5872 92.389C51.8795 92.389 52.1083 92.4624 52.2739 92.609C52.4395 92.7539 52.5256 92.954 52.5318 93.2096V94.3739C52.5318 94.6062 52.5614 94.791 52.6208 94.928V94.9655H52.1662ZM51.4467 94.6359C51.5827 94.6359 51.7115 94.6008 51.8334 94.5306C51.9552 94.4607 52.0435 94.3694 52.0982 94.2572V93.7382H51.7584C51.2272 93.7382 50.9614 93.8933 50.9614 94.2034C50.9614 94.3391 51.0067 94.445 51.0974 94.5213C51.188 94.5976 51.3046 94.6359 51.4467 94.6359ZM53.7997 91.8234V92.4358H54.2731V92.7702H53.7997V94.3391C53.7997 94.4402 53.8208 94.5165 53.8629 94.5681C53.9053 94.6179 53.9771 94.6429 54.0787 94.6429C54.1286 94.6429 54.1973 94.6336 54.2848 94.6149V94.9655C54.1709 94.9967 54.06 95.0124 53.952 95.0124C53.7584 95.0124 53.6123 94.9538 53.5139 94.8371C53.4155 94.72 53.3662 94.554 53.3662 94.3391V92.7702H52.9046V92.4358H53.3662V91.8234H53.7997ZM55.2528 94.9655H54.8192V92.4358H55.2528V94.9655ZM54.784 91.7649C54.784 91.6947 54.8054 91.6354 54.8475 91.5872C54.8912 91.5388 54.9552 91.5146 55.0395 91.5146C55.124 91.5146 55.188 91.5388 55.2318 91.5872C55.2755 91.6354 55.2974 91.6947 55.2974 91.7649C55.2974 91.8349 55.2755 91.8934 55.2318 91.9402C55.188 91.987 55.124 92.0104 55.0395 92.0104C54.9552 92.0104 54.8912 91.987 54.8475 91.9402C54.8054 91.8934 54.784 91.8349 54.784 91.7649ZM55.8342 93.6773C55.8342 93.4296 55.8827 93.2067 55.9795 93.0088C56.0779 92.8106 56.2139 92.6579 56.3872 92.5504C56.5622 92.443 56.7614 92.389 56.9848 92.389C57.3302 92.389 57.6091 92.5084 57.8216 92.7468C58.0358 92.9854 58.1427 93.3024 58.1427 93.6983V93.7289C58.1427 93.9749 58.095 94.1962 57.9998 94.3928C57.9059 94.5875 57.771 94.7394 57.5944 94.8488C57.4192 94.9578 57.2176 95.0124 56.9896 95.0124C56.6459 95.0124 56.367 94.8932 56.1528 94.6546C55.9403 94.4162 55.8342 94.1005 55.8342 93.7076V93.6773ZM56.2702 93.7289C56.2702 94.0092 56.335 94.2345 56.4646 94.4045C56.5958 94.5742 56.771 94.6594 56.9896 94.6594C57.2099 94.6594 57.3848 94.5734 57.5147 94.4021C57.6443 94.229 57.7091 93.9874 57.7091 93.6773C57.7091 93.3998 57.6427 93.1756 57.5099 93.004C57.3787 92.8311 57.2038 92.7444 56.9848 92.7444C56.771 92.7444 56.5982 92.8295 56.467 92.9992C56.3358 93.1692 56.2702 93.4123 56.2702 93.7289ZM59.0966 92.4358L59.1107 92.7539C59.3046 92.5105 59.5576 92.389 59.8702 92.389C60.4059 92.389 60.6763 92.6906 60.6811 93.2939V94.9655H60.2475V93.2915C60.2459 93.1091 60.2038 92.9745 60.1208 92.8872C60.0395 92.7997 59.9123 92.7561 59.739 92.7561C59.5982 92.7561 59.4747 92.7936 59.3686 92.8683C59.2622 92.9431 59.1795 93.0415 59.12 93.1631V94.9655H58.6864V92.4358H59.0966ZM64.771 94.3694L65.2584 92.4358H65.692L64.9536 94.9655H64.6022L63.9856 93.0484L63.3856 94.9655H63.0342L62.2982 92.4358H62.7294L63.2286 94.3295L63.8192 92.4358H64.1686L64.771 94.3694ZM67.7006 94.9655C67.6755 94.9155 67.6552 94.8269 67.6395 94.699C67.4382 94.9078 67.1974 95.0124 66.9176 95.0124C66.6678 95.0124 66.4622 94.9421 66.3014 94.8019C66.1419 94.6602 66.0622 94.4809 66.0622 94.2641C66.0622 94.0007 66.1622 93.7964 66.3622 93.6517C66.5638 93.5051 66.8467 93.4317 67.2107 93.4317H67.6326V93.233C67.6326 93.0819 67.5872 92.962 67.4966 92.8731C67.4059 92.7827 67.2723 92.7374 67.0958 92.7374C66.9411 92.7374 66.8115 92.7765 66.7067 92.8542C66.6022 92.9322 66.5499 93.0266 66.5499 93.1373H66.1139C66.1139 93.0109 66.1584 92.8893 66.2475 92.7726C66.3382 92.6542 66.46 92.5605 66.6131 92.4919C66.7678 92.4233 66.9374 92.389 67.1216 92.389C67.4139 92.389 67.6427 92.4624 67.8083 92.609C67.9739 92.7539 68.06 92.954 68.0662 93.2096V94.3739C68.0662 94.6062 68.0958 94.791 68.1552 94.928V94.9655H67.7006ZM66.9811 94.6359C67.1168 94.6359 67.2459 94.6008 67.3678 94.5306C67.4896 94.4607 67.5779 94.3694 67.6326 94.2572V93.7382H67.2928C66.7614 93.7382 66.4958 93.8933 66.4958 94.2034C66.4958 94.3391 66.5411 94.445 66.6318 94.5213C66.7224 94.5976 66.839 94.6359 66.9811 94.6359ZM70.2224 94.2947C70.2224 94.1776 70.1779 94.0872 70.0888 94.0233C70.0014 93.9579 69.8475 93.9018 69.6272 93.855C69.4083 93.8081 69.2342 93.752 69.1046 93.6866C68.9763 93.6211 68.8811 93.5432 68.8184 93.4527C68.7576 93.3626 68.7272 93.2548 68.7272 93.1303C68.7272 92.9229 68.8147 92.7475 68.9896 92.6042C69.1662 92.4608 69.3912 92.389 69.6646 92.389C69.952 92.389 70.1848 92.4632 70.363 92.6111C70.5427 92.7593 70.6326 92.9487 70.6326 93.1793H70.1966C70.1966 93.0609 70.1459 92.9588 70.0443 92.8731C69.9443 92.7875 69.8176 92.7444 69.6646 92.7444C69.5067 92.7444 69.3835 92.7787 69.2944 92.8473C69.2054 92.9159 69.1608 93.0056 69.1608 93.1162C69.1608 93.2205 69.2022 93.2993 69.2848 93.3525C69.3678 93.4054 69.5168 93.4559 69.7326 93.5043C69.9499 93.5525 70.1256 93.6102 70.26 93.6773C70.3944 93.7443 70.4936 93.8254 70.5576 93.9204C70.6232 94.014 70.656 94.1287 70.656 94.2641C70.656 94.4902 70.5654 94.6719 70.384 94.8089C70.203 94.9445 69.9678 95.0124 69.6787 95.0124C69.4755 95.0124 69.2958 94.9764 69.1395 94.9046C68.9835 94.8331 68.8608 94.7333 68.7718 94.6054C68.684 94.4761 68.6403 94.3367 68.6403 94.1869H69.0739C69.0819 94.3319 69.1395 94.4474 69.2475 94.533C69.3568 94.6171 69.5006 94.6594 69.6787 94.6594C69.8427 94.6594 69.9739 94.6266 70.0723 94.5609C70.1723 94.4942 70.2224 94.4053 70.2224 94.2947ZM73.888 94.2947C73.888 94.1776 73.8435 94.0872 73.7544 94.0233C73.667 93.9579 73.5131 93.9018 73.2928 93.855C73.0739 93.8081 72.8998 93.752 72.7702 93.6866C72.6419 93.6211 72.5467 93.5432 72.484 93.4527C72.4232 93.3626 72.3928 93.2548 72.3928 93.1303C72.3928 92.9229 72.4803 92.7475 72.6552 92.6042C72.8318 92.4608 73.0568 92.389 73.3302 92.389C73.6176 92.389 73.8504 92.4632 74.0286 92.6111C74.2083 92.7593 74.2982 92.9487 74.2982 93.1793H73.8622C73.8622 93.0609 73.8115 92.9588 73.7099 92.8731C73.6099 92.7875 73.4832 92.7444 73.3302 92.7444C73.1723 92.7444 73.0491 92.7787 72.96 92.8473C72.871 92.9159 72.8264 93.0056 72.8264 93.1162C72.8264 93.2205 72.8678 93.2993 72.9504 93.3525C73.0334 93.4054 73.1827 93.4559 73.3982 93.5043C73.6155 93.5525 73.7912 93.6102 73.9256 93.6773C74.06 93.7443 74.1592 93.8254 74.2232 93.9204C74.2888 94.014 74.3216 94.1287 74.3216 94.2641C74.3216 94.4902 74.231 94.6719 74.0499 94.8089C73.8686 94.9445 73.6333 95.0124 73.3443 95.0124C73.1411 95.0124 72.9613 94.9764 72.8053 94.9046C72.6491 94.8331 72.5264 94.7333 72.4374 94.6054C72.3499 94.4761 72.3059 94.3367 72.3059 94.1869H72.7395C72.7475 94.3319 72.8054 94.4474 72.9131 94.533C73.0224 94.6171 73.1661 94.6594 73.3443 94.6594C73.5083 94.6594 73.6395 94.6266 73.7382 94.5609C73.8382 94.4942 73.888 94.4053 73.888 94.2947ZM75.939 95.0124C75.595 95.0124 75.3155 94.9001 75.0998 94.6756C74.884 94.4497 74.7763 94.1481 74.7763 93.7709V93.6914C74.7763 93.4405 74.824 93.2168 74.9192 93.0205C75.0163 92.8223 75.1504 92.668 75.3224 92.5573C75.4958 92.4451 75.6832 92.389 75.8848 92.389C76.2147 92.389 76.4709 92.4975 76.6536 92.714C76.8365 92.9308 76.9278 93.241 76.9278 93.6445V93.8246H75.2099C75.2163 94.0739 75.2888 94.2758 75.4278 94.4301C75.5686 94.583 75.7467 94.6594 75.9622 94.6594C76.1155 94.6594 76.2451 94.628 76.3512 94.5657C76.4576 94.5035 76.5504 94.4208 76.6302 94.3178L76.8949 94.5237C76.6827 94.8493 76.3638 95.0124 75.939 95.0124ZM75.8848 92.7444C75.7099 92.7444 75.5629 92.8085 75.4443 92.9362C75.3256 93.0625 75.252 93.2402 75.224 93.4692H76.4944V93.4365C76.4819 93.2168 76.4224 93.0468 76.3163 92.9268C76.2099 92.8053 76.0662 92.7444 75.8848 92.7444ZM77.8419 92.4358L77.856 92.7539C78.0499 92.5105 78.303 92.389 78.6155 92.389C79.1512 92.389 79.4216 92.6906 79.4264 93.2939V94.9655H78.9928V93.2915C78.9912 93.1091 78.9491 92.9745 78.8661 92.8872C78.7848 92.7997 78.6576 92.7561 78.484 92.7561C78.3435 92.7561 78.22 92.7936 78.1139 92.8683C78.0075 92.9431 77.9248 93.0415 77.8654 93.1631V94.9655H77.4317V92.4358H77.8419ZM80.6686 91.8234V92.4358H81.1419V92.7702H80.6686V94.3391C80.6686 94.4402 80.6896 94.5165 80.7317 94.5681C80.7739 94.6179 80.8459 94.6429 80.9475 94.6429C80.9974 94.6429 81.0661 94.6336 81.1536 94.6149V94.9655C81.0395 94.9967 80.9286 95.0124 80.8208 95.0124C80.6272 95.0124 80.4811 94.9538 80.3827 94.8371C80.284 94.72 80.235 94.554 80.235 94.3391V92.7702H79.7731V92.4358H80.235V91.8234H80.6686ZM83.4293 91.8234V92.4358H83.9029V92.7702H83.4293V94.3391C83.4293 94.4402 83.4504 94.5165 83.4928 94.5681C83.5349 94.6179 83.6067 94.6429 83.7083 94.6429C83.7584 94.6429 83.8272 94.6336 83.9147 94.6149V94.9655C83.8005 94.9967 83.6896 95.0124 83.5819 95.0124C83.388 95.0124 83.2419 94.9538 83.1435 94.8371C83.0451 94.72 82.9958 94.554 82.9958 94.3391V92.7702H82.5341V92.4358H82.9958V91.8234H83.4293ZM84.2499 93.6773C84.2499 93.4296 84.2981 93.2067 84.3949 93.0088C84.4936 92.8106 84.6293 92.6579 84.8029 92.5504C84.9779 92.443 85.1771 92.389 85.4006 92.389C85.7459 92.389 86.0248 92.5084 86.2374 92.7468C86.4512 92.9854 86.5584 93.3024 86.5584 93.6983V93.7289C86.5584 93.9749 86.5107 94.1962 86.4155 94.3928C86.3216 94.5875 86.1864 94.7394 86.0099 94.8488C85.8349 94.9578 85.6333 95.0124 85.4053 95.0124C85.0613 95.0124 84.7827 94.8932 84.5685 94.6546C84.356 94.4162 84.2499 94.1005 84.2499 93.7076V93.6773ZM84.6856 93.7289C84.6856 94.0092 84.7504 94.2345 84.8803 94.4045C85.0115 94.5742 85.1864 94.6594 85.4053 94.6594C85.6256 94.6594 85.8006 94.5734 85.9302 94.4021C86.06 94.229 86.1248 93.9874 86.1248 93.6773C86.1248 93.3998 86.0584 93.1756 85.9256 93.004C85.7944 92.8311 85.6192 92.7444 85.4006 92.7444C85.1864 92.7444 85.0139 92.8295 84.8827 92.9992C84.7512 93.1692 84.6856 93.4123 84.6856 93.7289ZM29.7552 97.4096V98.022H30.2285V98.3564H29.7552V99.9253C29.7552 100.026 29.7763 100.103 29.8184 100.154C29.8608 100.204 29.9325 100.229 30.0341 100.229C30.084 100.229 30.1528 100.22 30.2403 100.201V100.552C30.1264 100.583 30.0155 100.599 29.9075 100.599C29.7139 100.599 29.5678 100.54 29.4694 100.423C29.371 100.306 29.3216 100.14 29.3216 99.9253V98.3564H28.86V98.022H29.3216V97.4096H29.7552ZM31.1709 98.3284C31.3629 98.093 31.6131 97.9752 31.9208 97.9752C32.4568 97.9752 32.7272 98.2768 32.7318 98.8801V100.552H32.2981V98.8777C32.2965 98.6953 32.2544 98.5607 32.1717 98.4734C32.0904 98.3859 31.963 98.3423 31.7896 98.3423C31.6491 98.3423 31.5256 98.3798 31.4192 98.4545C31.3131 98.5293 31.2301 98.6277 31.1709 98.7493V100.552H30.7374V96.9606H31.1709V98.3284ZM34.4334 100.599C34.0896 100.599 33.8099 100.486 33.5944 100.262C33.3787 100.036 33.2709 99.7343 33.2709 99.3571V99.2776C33.2709 99.0267 33.3184 98.803 33.4139 98.6067C33.5107 98.4085 33.6451 98.2542 33.8168 98.1436C33.9904 98.0313 34.1779 97.9752 34.3795 97.9752C34.7091 97.9752 34.9654 98.0837 35.1483 98.3002C35.331 98.517 35.4224 98.8272 35.4224 99.2307V99.4108H33.7046C33.7107 99.6601 33.7835 99.862 33.9224 100.016C34.063 100.169 34.2411 100.246 34.4568 100.246C34.6099 100.246 34.7395 100.214 34.8459 100.152C34.952 100.09 35.0451 100.007 35.1248 99.904L35.3896 100.11C35.1771 100.435 34.8584 100.599 34.4334 100.599ZM34.3795 98.3306C34.2046 98.3306 34.0576 98.3947 33.9389 98.5224C33.82 98.6487 33.7467 98.8264 33.7184 99.0554H34.9888V99.0227C34.9763 98.803 34.9168 98.633 34.8107 98.513C34.7045 98.3915 34.5608 98.3306 34.3795 98.3306ZM38.1693 100.599C37.8256 100.599 37.5459 100.486 37.3302 100.262C37.1147 100.036 37.0067 99.7343 37.0067 99.3571V99.2776C37.0067 99.0267 37.0544 98.803 37.1499 98.6067C37.2467 98.4085 37.3811 98.2542 37.5528 98.1436C37.7264 98.0313 37.9139 97.9752 38.1155 97.9752C38.4451 97.9752 38.7014 98.0837 38.884 98.3002C39.067 98.517 39.1584 98.8272 39.1584 99.2307V99.4108H37.4403C37.4467 99.6601 37.5192 99.862 37.6584 100.016C37.7989 100.169 37.9771 100.246 38.1928 100.246C38.3459 100.246 38.4755 100.214 38.5819 100.152C38.688 100.09 38.7811 100.007 38.8608 99.904L39.1256 100.11C38.9131 100.435 38.5944 100.599 38.1693 100.599ZM38.1155 98.3306C37.9403 98.3306 37.7936 98.3947 37.6747 98.5224C37.556 98.6487 37.4827 98.8264 37.4544 99.0554H38.7248V99.0227C38.7123 98.803 38.6528 98.633 38.5467 98.513C38.4403 98.3915 38.2966 98.3306 38.1155 98.3306ZM40.5646 99.2823H39.4208V98.9291H40.5646V99.2823ZM41.3966 98.022L41.4083 98.3026C41.5944 98.0845 41.8451 97.9752 42.1608 97.9752C42.5155 97.9752 42.7568 98.1108 42.8848 98.3822C42.9693 98.2606 43.0787 98.1624 43.2131 98.0874C43.3491 98.0127 43.5091 97.9752 43.6936 97.9752C44.2499 97.9752 44.5326 98.2691 44.5419 98.8567V100.552H44.1083V98.8825C44.1083 98.7016 44.067 98.5668 43.984 98.4779C43.9014 98.3875 43.7622 98.3423 43.567 98.3423C43.4059 98.3423 43.2723 98.3907 43.1662 98.4872C43.06 98.5825 42.9982 98.711 42.9811 98.873V100.552H42.5451V98.8942C42.5451 98.5264 42.3646 98.3423 42.0038 98.3423C41.7192 98.3423 41.5248 98.463 41.42 98.7048V100.552H40.9864V98.022H41.3966ZM46.7638 100.552C46.739 100.502 46.7184 100.413 46.703 100.285C46.5014 100.494 46.2608 100.599 45.9811 100.599C45.731 100.599 45.5256 100.528 45.3646 100.388C45.2054 100.246 45.1256 100.067 45.1256 99.8503C45.1256 99.5869 45.2256 99.3826 45.4256 99.2379C45.6272 99.0914 45.9099 99.0179 46.2739 99.0179H46.6957V98.8192C46.6957 98.6681 46.6504 98.5482 46.56 98.4593C46.4694 98.3689 46.3358 98.3236 46.1592 98.3236C46.0046 98.3236 45.8747 98.3627 45.7702 98.4404C45.6654 98.5184 45.6131 98.6128 45.6131 98.7235H45.1771C45.1771 98.5971 45.2216 98.4755 45.3107 98.3588C45.4013 98.2404 45.5232 98.1467 45.6763 98.0781C45.831 98.0095 46.0005 97.9752 46.1848 97.9752C46.4771 97.9752 46.7059 98.0486 46.8718 98.1952C47.0374 98.3401 47.1232 98.5402 47.1294 98.7958V99.9601C47.1294 100.192 47.1592 100.377 47.2184 100.514V100.552H46.7638ZM46.0443 100.222C46.1803 100.222 46.3091 100.187 46.431 100.117C46.5528 100.047 46.6411 99.9556 46.6957 99.8434V99.3244H46.356C45.8248 99.3244 45.5592 99.4795 45.5592 99.7896C45.5592 99.9253 45.6046 100.031 45.695 100.108C45.7856 100.184 45.9022 100.222 46.0443 100.222ZM48.2803 100.552H47.8467V98.022H48.2803V100.552ZM47.8115 97.3511C47.8115 97.2809 47.8326 97.2216 47.8747 97.1734C47.9184 97.125 47.9827 97.1008 48.067 97.1008C48.1512 97.1008 48.2155 97.125 48.2592 97.1734C48.303 97.2216 48.3248 97.2809 48.3248 97.3511C48.3248 97.4211 48.303 97.4796 48.2592 97.5264C48.2155 97.5732 48.1512 97.5966 48.067 97.5966C47.9827 97.5966 47.9184 97.5732 47.8747 97.5264C47.8326 97.4796 47.8115 97.4211 47.8115 97.3511ZM49.4475 100.552H49.0139V96.9606H49.4475V100.552ZM53.4763 99.3151C53.4763 99.7 53.388 100.01 53.2115 100.246C53.035 100.481 52.7958 100.599 52.4944 100.599C52.1864 100.599 51.9443 100.501 51.7678 100.306V101.524H51.3342V98.022H51.7302L51.7512 98.3026C51.9278 98.0845 52.1731 97.9752 52.4872 97.9752C52.792 97.9752 53.0326 98.0898 53.2091 98.3189C53.3872 98.5482 53.4763 98.8668 53.4763 99.2752V99.3151ZM53.0427 99.2659C53.0427 98.9807 52.9819 98.7554 52.86 98.5902C52.7382 98.425 52.571 98.3423 52.3584 98.3423C52.0958 98.3423 51.899 98.4585 51.7678 98.6907V99.8995C51.8974 100.13 52.0957 100.246 52.3629 100.246C52.5709 100.246 52.7358 100.164 52.8576 100C52.9811 99.8348 53.0427 99.5901 53.0427 99.2659ZM55.2552 98.4101C55.1896 98.3992 55.1184 98.3939 55.0419 98.3939C54.7576 98.3939 54.5645 98.5146 54.4629 98.7562V100.552H54.0294V98.022H54.4512L54.4584 98.3143C54.6006 98.0882 54.8021 97.9752 55.0629 97.9752C55.1475 97.9752 55.2115 97.9861 55.2552 98.0082V98.4101ZM55.4944 99.2635C55.4944 99.0158 55.5427 98.7929 55.6395 98.595C55.7382 98.3968 55.8739 98.2441 56.0475 98.1366C56.2224 98.0292 56.4216 97.9752 56.6451 97.9752C56.9904 97.9752 57.2694 98.0946 57.4819 98.333C57.6958 98.5716 57.803 98.8887 57.803 99.2845V99.3151C57.803 99.5611 57.7552 99.7824 57.66 99.979C57.5662 100.174 57.431 100.326 57.2544 100.435C57.0795 100.544 56.8779 100.599 56.6499 100.599C56.3059 100.599 56.0272 100.479 55.8131 100.241C55.6006 100.002 55.4944 99.6867 55.4944 99.2938V99.2635ZM55.9302 99.3151C55.9302 99.5954 55.995 99.8207 56.1248 99.9907C56.256 100.16 56.431 100.246 56.6499 100.246C56.8702 100.246 57.0451 100.16 57.1747 99.9883C57.3046 99.8152 57.3694 99.5736 57.3694 99.2635C57.3694 98.986 57.303 98.7618 57.1702 98.5902C57.039 98.4173 56.8638 98.3306 56.6451 98.3306C56.431 98.3306 56.2584 98.4157 56.1272 98.5854C55.9958 98.7554 55.9302 98.9985 55.9302 99.3151ZM59.1459 99.9649L59.7739 98.022H60.2168L59.3075 100.552H58.9771L58.0584 98.022H58.5014L59.1459 99.9649ZM61.1054 100.552H60.6718V98.022H61.1054V100.552ZM60.6366 97.3511C60.6366 97.2809 60.6576 97.2216 60.6998 97.1734C60.7435 97.125 60.8075 97.1008 60.892 97.1008C60.9763 97.1008 61.0403 97.125 61.084 97.1734C61.1278 97.2216 61.1499 97.2809 61.1499 97.3511C61.1499 97.4211 61.1278 97.4796 61.084 97.5264C61.0403 97.5732 60.9763 97.5966 60.892 97.5966C60.8075 97.5966 60.7435 97.5732 60.6998 97.5264C60.6576 97.4796 60.6366 97.4211 60.6366 97.3511ZM61.6958 99.2659C61.6958 98.8777 61.788 98.566 61.9723 98.3306C62.1568 98.0938 62.3982 97.9752 62.6966 97.9752C62.9936 97.9752 63.2286 98.0765 63.4022 98.2792V96.9606H63.8358V100.552H63.4374L63.4163 100.28C63.2427 100.492 63.0014 100.599 62.692 100.599C62.3982 100.599 62.1584 100.479 61.9723 100.238C61.788 99.9984 61.6958 99.6851 61.6958 99.2986V99.2659ZM62.1294 99.3151C62.1294 99.6018 62.1888 99.8261 62.3075 99.9883C62.4264 100.15 62.5904 100.231 62.7998 100.231C63.0747 100.231 63.2755 100.108 63.4022 99.862V98.7001C63.2723 98.4617 63.0731 98.3423 62.8046 98.3423C62.592 98.3423 62.4264 98.4242 62.3075 98.5878C62.1888 98.7514 62.1294 98.994 62.1294 99.3151ZM65.563 100.599C65.2192 100.599 64.9395 100.486 64.724 100.262C64.5083 100.036 64.4006 99.7343 64.4006 99.3571V99.2776C64.4006 99.0267 64.4483 98.803 64.5435 98.6067C64.6403 98.4085 64.7747 98.2542 64.9467 98.1436C65.12 98.0313 65.3075 97.9752 65.5091 97.9752C65.839 97.9752 66.095 98.0837 66.2779 98.3002C66.4608 98.517 66.552 98.8272 66.552 99.2307V99.4108H64.8342C64.8403 99.6601 64.9131 99.862 65.052 100.016C65.1928 100.169 65.371 100.246 65.5864 100.246C65.7395 100.246 65.8694 100.214 65.9755 100.152C66.0819 100.09 66.1747 100.007 66.2544 99.904L66.5192 100.11C66.3067 100.435 65.988 100.599 65.563 100.599ZM65.5091 98.3306C65.3342 98.3306 65.1872 98.3947 65.0686 98.5224C64.9499 98.6487 64.8763 98.8264 64.8483 99.0554H66.1184V99.0227C66.1059 98.803 66.0467 98.633 65.9403 98.513C65.8342 98.3915 65.6904 98.3306 65.5091 98.3306ZM66.9504 99.2659C66.9504 98.8777 67.0427 98.566 67.2272 98.3306C67.4115 98.0938 67.6528 97.9752 67.9512 97.9752C68.2483 97.9752 68.4832 98.0765 68.6568 98.2792V96.9606H69.0904V100.552H68.692L68.671 100.28C68.4974 100.492 68.256 100.599 67.9467 100.599C67.6528 100.599 67.4131 100.479 67.2272 100.238C67.0427 99.9984 66.9504 99.6851 66.9504 99.2986V99.2659ZM67.384 99.3151C67.384 99.6018 67.4435 99.8261 67.5622 99.9883C67.6811 100.15 67.8451 100.231 68.0544 100.231C68.3294 100.231 68.5302 100.108 68.6568 99.862V98.7001C68.5272 98.4617 68.3278 98.3423 68.0592 98.3423C67.8467 98.3423 67.6811 98.4242 67.5622 98.5878C67.4435 98.7514 67.384 98.994 67.384 99.3151ZM18.7771 115.615L19.6677 113.906H20.1787L19.0021 116.041V117.31H18.5521V116.041L17.3755 113.906H17.8912L18.7771 115.615ZM20.2818 116.022C20.2818 115.774 20.3302 115.552 20.4271 115.354C20.5255 115.155 20.6615 115.003 20.8349 114.895C21.0099 114.788 21.2091 114.734 21.4326 114.734C21.7779 114.734 22.0568 114.853 22.2693 115.092C22.4834 115.33 22.5904 115.647 22.5904 116.043V116.074C22.5904 116.32 22.5427 116.541 22.4474 116.738C22.3537 116.932 22.2185 117.084 22.0419 117.194C21.867 117.303 21.6654 117.357 21.4372 117.357C21.0935 117.357 20.8146 117.238 20.6005 116.999C20.388 116.761 20.2818 116.445 20.2818 116.052V116.022ZM20.7177 116.074C20.7177 116.354 20.7826 116.579 20.9123 116.749C21.0435 116.919 21.2185 117.004 21.4372 117.004C21.6576 117.004 21.8326 116.918 21.9623 116.747C22.0919 116.574 22.1568 116.332 22.1568 116.022C22.1568 115.745 22.0904 115.52 21.9576 115.349C21.8263 115.176 21.6513 115.089 21.4326 115.089C21.2185 115.089 21.0459 115.174 20.9146 115.344C20.7833 115.514 20.7177 115.757 20.7177 116.074ZM24.6997 117.06C24.531 117.258 24.2833 117.357 23.9568 117.357C23.6865 117.357 23.4802 117.279 23.338 117.123C23.1974 116.966 23.1263 116.734 23.1248 116.427V114.781H23.5584V116.415C23.5584 116.798 23.7146 116.99 24.0271 116.99C24.3584 116.99 24.5787 116.867 24.688 116.621V114.781H25.1216V117.31H24.7091L24.6997 117.06ZM27.9904 117.004C28.1451 117.004 28.2803 116.957 28.3957 116.864C28.5115 116.77 28.5755 116.653 28.588 116.513H28.9981C28.9904 116.658 28.9403 116.796 28.8483 116.927C28.756 117.058 28.6325 117.162 28.4779 117.24C28.3248 117.318 28.1621 117.357 27.9904 117.357C27.6451 117.357 27.3702 117.243 27.1654 117.014C26.9622 116.783 26.8608 116.468 26.8608 116.069V115.997C26.8608 115.75 26.9059 115.531 26.9965 115.34C27.0872 115.148 27.2168 114.999 27.3856 114.893C27.556 114.787 27.7568 114.734 27.988 114.734C28.2723 114.734 28.5083 114.819 28.6957 114.989C28.8848 115.159 28.9856 115.379 28.9981 115.65H28.588C28.5755 115.487 28.5131 115.353 28.4005 115.248C28.2896 115.142 28.152 115.089 27.988 115.089C27.7677 115.089 27.5965 115.169 27.4747 115.328C27.3544 115.485 27.2944 115.714 27.2944 116.013V116.095C27.2944 116.386 27.3544 116.61 27.4747 116.768C27.5949 116.925 27.7669 117.004 27.9904 117.004ZM31.0512 117.31C31.0264 117.26 31.0059 117.172 30.9904 117.044C30.7888 117.253 30.5483 117.357 30.2686 117.357C30.0184 117.357 29.8131 117.287 29.652 117.147C29.4928 117.005 29.4131 116.826 29.4131 116.609C29.4131 116.346 29.5131 116.141 29.7131 115.997C29.9147 115.85 30.1973 115.777 30.5613 115.777H30.9835V115.578C30.9835 115.427 30.9381 115.307 30.8475 115.218C30.7568 115.127 30.6232 115.082 30.4467 115.082C30.292 115.082 30.1622 115.121 30.0576 115.199C29.9528 115.277 29.9006 115.371 29.9006 115.482H29.4645C29.4645 115.356 29.5091 115.234 29.5981 115.117C29.6888 114.999 29.8107 114.905 29.9638 114.837C30.1184 114.768 30.288 114.734 30.4723 114.734C30.7645 114.734 30.9936 114.807 31.1592 114.954C31.3248 115.099 31.4107 115.299 31.4168 115.554V116.719C31.4168 116.951 31.4467 117.136 31.5059 117.273V117.31H31.0512ZM30.3318 116.981C30.4678 116.981 30.5966 116.946 30.7184 116.875C30.8403 116.805 30.9286 116.714 30.9835 116.602V116.083H30.6435C30.1123 116.083 29.8467 116.238 29.8467 116.548C29.8467 116.684 29.892 116.79 29.9827 116.866C30.0731 116.942 30.1896 116.981 30.3318 116.981ZM32.5067 114.781L32.5208 115.099C32.7147 114.855 32.9677 114.734 33.2803 114.734C33.8163 114.734 34.0864 115.035 34.0912 115.639V117.31H33.6576V115.636C33.656 115.454 33.6139 115.319 33.5309 115.232C33.4499 115.145 33.3224 115.101 33.1491 115.101C33.0083 115.101 32.8848 115.138 32.7787 115.213C32.6723 115.288 32.5896 115.386 32.5301 115.508V117.31H32.0966V114.781H32.5067ZM36.988 117.357C36.6443 117.357 36.3646 117.245 36.1491 117.02C35.9334 116.795 35.8256 116.493 35.8256 116.116V116.036C35.8256 115.785 35.8731 115.562 35.9686 115.365C36.0654 115.167 36.1998 115.013 36.3718 114.902C36.5451 114.79 36.7326 114.734 36.9342 114.734C37.2638 114.734 37.52 114.842 37.703 115.059C37.8856 115.276 37.9771 115.586 37.9771 115.989V116.169H36.2592C36.2654 116.419 36.3382 116.621 36.4771 116.775C36.6176 116.928 36.7958 117.004 37.0115 117.004C37.1646 117.004 37.2944 116.973 37.4006 116.911C37.5067 116.848 37.5998 116.766 37.6795 116.663L37.9443 116.869C37.7318 117.194 37.4131 117.357 36.988 117.357ZM36.9342 115.089C36.7592 115.089 36.6123 115.153 36.4936 115.281C36.3747 115.407 36.3014 115.585 36.2731 115.814H37.5435V115.781C37.5309 115.562 37.4717 115.392 37.3653 115.272C37.2592 115.15 37.1155 115.089 36.9342 115.089ZM39.3318 115.704L39.8944 114.781H40.4006L39.571 116.031L40.4264 117.31H39.9248L39.3389 116.363L38.7528 117.31H38.2491L39.1046 116.031L38.2747 114.781H38.7763L39.3318 115.704ZM43.0046 116.074C43.0046 116.459 42.9163 116.769 42.7395 117.004C42.5629 117.239 42.324 117.357 42.0224 117.357C41.7147 117.357 41.4723 117.26 41.2957 117.065V118.283H40.8622V114.781H41.2584L41.2795 115.061C41.456 114.843 41.7014 114.734 42.0155 114.734C42.32 114.734 42.5608 114.848 42.7374 115.077C42.9155 115.307 43.0046 115.625 43.0046 116.034V116.074ZM42.571 116.024C42.571 115.739 42.5099 115.514 42.388 115.349C42.2662 115.184 42.099 115.101 41.8864 115.101C41.624 115.101 41.4272 115.217 41.2957 115.449V116.658C41.4256 116.889 41.624 117.004 41.8912 117.004C42.0989 117.004 42.2638 116.922 42.3856 116.759C42.5091 116.593 42.571 116.349 42.571 116.024ZM44.6099 117.357C44.2662 117.357 43.9864 117.245 43.771 117.02C43.5552 116.795 43.4475 116.493 43.4475 116.116V116.036C43.4475 115.785 43.495 115.562 43.5904 115.365C43.6872 115.167 43.8216 115.013 43.9936 114.902C44.167 114.79 44.3544 114.734 44.556 114.734C44.8856 114.734 45.1419 114.842 45.3248 115.059C45.5075 115.276 45.599 115.586 45.599 115.989V116.169H43.8811C43.8872 116.419 43.96 116.621 44.099 116.775C44.2395 116.928 44.4176 117.004 44.6334 117.004C44.7864 117.004 44.9163 116.973 45.0224 116.911C45.1286 116.848 45.2216 116.766 45.3014 116.663L45.5662 116.869C45.3536 117.194 45.035 117.357 44.6099 117.357ZM44.556 115.089C44.3811 115.089 44.2342 115.153 44.1155 115.281C43.9966 115.407 43.9232 115.585 43.895 115.814H45.1653V115.781C45.1528 115.562 45.0936 115.392 44.9872 115.272C44.8811 115.15 44.7374 115.089 44.556 115.089ZM47.12 117.004C47.2747 117.004 47.4099 116.957 47.5256 116.864C47.6411 116.77 47.7053 116.653 47.7176 116.513H48.1278C48.12 116.658 48.0702 116.796 47.9779 116.927C47.8856 117.058 47.7622 117.162 47.6075 117.24C47.4544 117.318 47.292 117.357 47.12 117.357C46.7747 117.357 46.4998 117.243 46.295 117.014C46.092 116.783 45.9904 116.468 45.9904 116.069V115.997C45.9904 115.75 46.0358 115.531 46.1264 115.34C46.2168 115.148 46.3467 114.999 46.5155 114.893C46.6856 114.787 46.8864 114.734 47.1176 114.734C47.4021 114.734 47.6381 114.819 47.8256 114.989C48.0147 115.159 48.1155 115.379 48.1278 115.65H47.7176C47.7053 115.487 47.6427 115.353 47.5302 115.248C47.4192 115.142 47.2819 115.089 47.1176 115.089C46.8973 115.089 46.7264 115.169 46.6046 115.328C46.484 115.485 46.424 115.714 46.424 116.013V116.095C46.424 116.386 46.484 116.61 46.6046 116.768C46.7248 116.925 46.8966 117.004 47.12 117.004ZM49.2038 114.168V114.781H49.6771V115.115H49.2038V116.684C49.2038 116.785 49.2248 116.861 49.267 116.913C49.3091 116.963 49.3811 116.988 49.4827 116.988C49.5326 116.988 49.6013 116.978 49.6888 116.96V117.31C49.5747 117.341 49.4638 117.357 49.356 117.357C49.1622 117.357 49.0163 117.299 48.9176 117.182C48.8192 117.065 48.7702 116.899 48.7702 116.684V115.115H48.3083V114.781H48.7702V114.168H49.2038ZM51.9646 114.168V114.781H52.4382V115.115H51.9646V116.684C51.9646 116.785 51.9856 116.861 52.0278 116.913C52.0702 116.963 52.1419 116.988 52.2435 116.988C52.2936 116.988 52.3622 116.978 52.4499 116.96V117.31C52.3358 117.341 52.2248 117.357 52.1168 117.357C51.9232 117.357 51.7771 117.299 51.6787 117.182C51.5803 117.065 51.531 116.899 51.531 116.684V115.115H51.0694V114.781H51.531V114.168H51.9646ZM52.7848 116.022C52.7848 115.774 52.8334 115.552 52.9302 115.354C53.0286 115.155 53.1646 115.003 53.3382 114.895C53.5131 114.788 53.7123 114.734 53.9358 114.734C54.2811 114.734 54.56 114.853 54.7723 115.092C54.9864 115.33 55.0936 115.647 55.0936 116.043V116.074C55.0936 116.32 55.0459 116.541 54.9504 116.738C54.8568 116.932 54.7216 117.084 54.5451 117.194C54.3702 117.303 54.1686 117.357 53.9403 117.357C53.5966 117.357 53.3176 117.238 53.1038 116.999C52.8912 116.761 52.7848 116.445 52.7848 116.052V116.022ZM53.2208 116.074C53.2208 116.354 53.2856 116.579 53.4155 116.749C53.5467 116.919 53.7216 117.004 53.9403 117.004C54.1608 117.004 54.3358 116.918 54.4654 116.747C54.595 116.574 54.66 116.332 54.66 116.022C54.66 115.745 54.5936 115.52 54.4608 115.349C54.3294 115.176 54.1544 115.089 53.9358 115.089C53.7216 115.089 53.5491 115.174 53.4176 115.344C53.2864 115.514 53.2208 115.757 53.2208 116.074ZM58.0536 115.169C57.988 115.158 57.9168 115.152 57.8403 115.152C57.556 115.152 57.363 115.273 57.2614 115.515V117.31H56.8278V114.781H57.2499L57.2568 115.073C57.399 114.847 57.6006 114.734 57.8614 114.734C57.9459 114.734 58.0099 114.745 58.0536 114.767V115.169ZM59.46 117.357C59.1163 117.357 58.8366 117.245 58.6208 117.02C58.4054 116.795 58.2974 116.493 58.2974 116.116V116.036C58.2974 115.785 58.3451 115.562 58.4403 115.365C58.5374 115.167 58.6718 115.013 58.8435 114.902C59.0168 114.79 59.2046 114.734 59.4059 114.734C59.7358 114.734 59.992 114.842 60.1747 115.059C60.3576 115.276 60.4491 115.586 60.4491 115.989V116.169H58.731C58.7374 116.419 58.8099 116.621 58.9491 116.775C59.0896 116.928 59.2678 117.004 59.4832 117.004C59.6366 117.004 59.7662 116.973 59.8723 116.911C59.9787 116.848 60.0718 116.766 60.1512 116.663L60.4163 116.869C60.2038 117.194 59.8848 117.357 59.46 117.357ZM59.4059 115.089C59.231 115.089 59.084 115.153 58.9654 115.281C58.8467 115.407 58.7731 115.585 58.7451 115.814H60.0155V115.781C60.003 115.562 59.9435 115.392 59.8374 115.272C59.731 115.15 59.5872 115.089 59.4059 115.089ZM61.9702 117.004C62.1248 117.004 62.26 116.957 62.3755 116.864C62.4912 116.77 62.5552 116.653 62.5678 116.513H62.9779C62.9702 116.658 62.92 116.796 62.8278 116.927C62.7358 117.058 62.6123 117.162 62.4576 117.24C62.3046 117.318 62.1419 117.357 61.9702 117.357C61.6248 117.357 61.3499 117.243 61.1451 117.014C60.9419 116.783 60.8403 116.468 60.8403 116.069V115.997C60.8403 115.75 60.8856 115.531 60.9763 115.34C61.067 115.148 61.1966 114.999 61.3654 114.893C61.5358 114.787 61.7366 114.734 61.9678 114.734C62.252 114.734 62.488 114.819 62.6755 114.989C62.8646 115.159 62.9654 115.379 62.9779 115.65H62.5678C62.5552 115.487 62.4928 115.353 62.3803 115.248C62.2694 115.142 62.1318 115.089 61.9678 115.089C61.7475 115.089 61.5763 115.169 61.4544 115.328C61.3342 115.485 61.2739 115.714 61.2739 116.013V116.095C61.2739 116.386 61.3342 116.61 61.4544 116.768C61.5747 116.925 61.7467 117.004 61.9702 117.004ZM64.5176 117.357C64.1739 117.357 63.8944 117.245 63.6787 117.02C63.463 116.795 63.3552 116.493 63.3552 116.116V116.036C63.3552 115.785 63.403 115.562 63.4982 115.365C63.595 115.167 63.7294 115.013 63.9014 114.902C64.0747 114.79 64.2622 114.734 64.4638 114.734C64.7936 114.734 65.0499 114.842 65.2326 115.059C65.4155 115.276 65.5067 115.586 65.5067 115.989V116.169H63.7888C63.795 116.419 63.8678 116.621 64.0067 116.775C64.1475 116.928 64.3256 117.004 64.5411 117.004C64.6944 117.004 64.824 116.973 64.9302 116.911C65.0366 116.848 65.1294 116.766 65.2091 116.663L65.4739 116.869C65.2614 117.194 64.9427 117.357 64.5176 117.357ZM64.4638 115.089C64.2888 115.089 64.1419 115.153 64.0232 115.281C63.9046 115.407 63.831 115.585 63.803 115.814H65.0731V115.781C65.0608 115.562 65.0014 115.392 64.895 115.272C64.7888 115.15 64.6451 115.089 64.4638 115.089ZM66.4819 117.31H66.0483V114.781H66.4819V117.31ZM66.0131 114.11C66.0131 114.04 66.0342 113.98 66.0763 113.932C66.12 113.884 66.184 113.859 66.2686 113.859C66.3528 113.859 66.4168 113.884 66.4608 113.932C66.5046 113.98 66.5264 114.04 66.5264 114.11C66.5264 114.18 66.5046 114.238 66.4608 114.285C66.4168 114.332 66.3528 114.355 66.2686 114.355C66.184 114.355 66.12 114.332 66.0763 114.285C66.0342 114.238 66.0131 114.18 66.0131 114.11ZM68.0147 116.724L68.6427 114.781H69.0856L68.1763 117.31H67.8459L66.9272 114.781H67.3702L68.0147 116.724ZM70.5224 117.357C70.1787 117.357 69.899 117.245 69.6832 117.02C69.4678 116.795 69.36 116.493 69.36 116.116V116.036C69.36 115.785 69.4075 115.562 69.5029 115.365C69.5997 115.167 69.7342 115.013 69.9059 114.902C70.0795 114.79 70.2669 114.734 70.4685 114.734C70.7981 114.734 71.0544 114.842 71.2374 115.059C71.42 115.276 71.5115 115.586 71.5115 115.989V116.169H69.7936C69.7998 116.419 69.8723 116.621 70.0115 116.775C70.152 116.928 70.3302 117.004 70.5459 117.004C70.699 117.004 70.8286 116.973 70.935 116.911C71.0411 116.848 71.1342 116.766 71.2139 116.663L71.4787 116.869C71.2662 117.194 70.9475 117.357 70.5224 117.357ZM70.4685 115.089C70.2936 115.089 70.1467 115.153 70.0278 115.281C69.9091 115.407 69.8358 115.585 69.8075 115.814H71.0779V115.781C71.0654 115.562 71.0059 115.392 70.8998 115.272C70.7936 115.15 70.6499 115.089 70.4685 115.089ZM74.0358 116.677L74.6264 114.781H75.0904L74.071 117.701C73.9131 118.122 73.6622 118.332 73.3184 118.332L73.2366 118.325L73.0747 118.295V117.944L73.192 117.953C73.339 117.953 73.4528 117.924 73.5342 117.864C73.6168 117.805 73.6848 117.697 73.7382 117.539L73.8342 117.282L72.9293 114.781H73.4029L74.0358 116.677ZM75.3272 116.022C75.3272 115.774 75.3755 115.552 75.4723 115.354C75.571 115.155 75.7067 115.003 75.8803 114.895C76.0552 114.788 76.2544 114.734 76.4779 114.734C76.8232 114.734 77.1022 114.853 77.3147 115.092C77.5286 115.33 77.6358 115.647 77.6358 116.043V116.074C77.6358 116.32 77.588 116.541 77.4928 116.738C77.399 116.932 77.2638 117.084 77.0872 117.194C76.9123 117.303 76.7107 117.357 76.4827 117.357C76.139 117.357 75.86 117.238 75.6459 116.999C75.4334 116.761 75.3272 116.445 75.3272 116.052V116.022ZM75.763 116.074C75.763 116.354 75.8278 116.579 75.9576 116.749C76.0888 116.919 76.2638 117.004 76.4827 117.004C76.703 117.004 76.8779 116.918 77.0075 116.747C77.1374 116.574 77.2022 116.332 77.2022 116.022C77.2022 115.745 77.1357 115.52 77.0029 115.349C76.8717 115.176 76.6966 115.089 76.4779 115.089C76.2638 115.089 76.0912 115.174 75.96 115.344C75.8286 115.514 75.763 115.757 75.763 116.074ZM79.7451 117.06C79.5763 117.258 79.3286 117.357 79.0022 117.357C78.7318 117.357 78.5256 117.279 78.3835 117.123C78.2427 116.966 78.1718 116.734 78.1702 116.427V114.781H78.6038V116.415C78.6038 116.798 78.76 116.99 79.0723 116.99C79.4038 116.99 79.624 116.867 79.7334 116.621V114.781H80.167V117.31H79.7544L79.7451 117.06ZM82.0536 115.169C81.988 115.158 81.9168 115.152 81.8403 115.152C81.556 115.152 81.363 115.273 81.2614 115.515V117.31H80.8278V114.781H81.2499L81.2568 115.073C81.399 114.847 81.6006 114.734 81.8614 114.734C81.9459 114.734 82.0099 114.745 82.0536 114.767V115.169ZM16.2763 121.608C16.2763 121.361 16.3248 121.138 16.4216 120.94C16.5201 120.742 16.656 120.589 16.8295 120.481C17.0044 120.374 17.2037 120.32 17.4271 120.32C17.7724 120.32 18.0513 120.439 18.2638 120.678C18.4779 120.916 18.5849 121.233 18.5849 121.629V121.66C18.5849 121.906 18.5372 122.127 18.4419 122.324C18.3482 122.519 18.213 122.67 18.0365 122.78C17.8615 122.889 17.6599 122.943 17.4318 122.943C17.088 122.943 16.8091 122.824 16.5951 122.586C16.3826 122.347 16.2763 122.032 16.2763 121.639V121.608ZM16.7123 121.66C16.7123 121.94 16.7771 122.166 16.9068 122.336C17.038 122.505 17.213 122.59 17.4318 122.59C17.6521 122.59 17.8271 122.504 17.9568 122.333C18.0865 122.16 18.1513 121.918 18.1513 121.608C18.1513 121.331 18.0849 121.107 17.9521 120.935C17.8208 120.762 17.6459 120.675 17.4271 120.675C17.213 120.675 17.0404 120.761 16.9091 120.93C16.7779 121.1 16.7123 121.343 16.7123 121.66ZM20.3544 120.755C20.2888 120.744 20.2177 120.739 20.1412 120.739C19.8568 120.739 19.6638 120.859 19.5623 121.101V122.897H19.1287V120.367H19.5505L19.5576 120.659C19.6997 120.433 19.9013 120.32 20.1623 120.32C20.2466 120.32 20.3107 120.331 20.3544 120.353V120.755ZM20.6029 121.611C20.6029 121.223 20.6951 120.911 20.8795 120.675C21.0638 120.439 21.3052 120.32 21.6037 120.32C21.9005 120.32 22.1357 120.421 22.3091 120.624V119.305H22.7427V122.897H22.3443L22.3232 122.625C22.1497 122.837 21.9083 122.943 21.599 122.943C21.3052 122.943 21.0654 122.823 20.8795 122.583C20.6951 122.343 20.6029 122.03 20.6029 121.643V121.611ZM21.0365 121.66C21.0365 121.947 21.0959 122.171 21.2146 122.333C21.3333 122.495 21.4974 122.576 21.7068 122.576C21.9818 122.576 22.1826 122.453 22.3091 122.207V121.045C22.1795 120.807 21.9802 120.687 21.7115 120.687C21.499 120.687 21.3333 120.769 21.2146 120.933C21.0959 121.096 21.0365 121.339 21.0365 121.66ZM24.4701 122.943C24.1263 122.943 23.8466 122.831 23.631 122.607C23.4154 122.381 23.3076 122.079 23.3076 121.702V121.622C23.3076 121.372 23.3552 121.148 23.4505 120.952C23.5474 120.753 23.6818 120.599 23.8537 120.488C24.0271 120.376 24.2146 120.32 24.4161 120.32C24.7459 120.32 25.0021 120.429 25.1849 120.645C25.3677 120.862 25.4591 121.172 25.4591 121.576V121.756H23.7412C23.7474 122.005 23.8201 122.207 23.9591 122.361C24.0997 122.514 24.2779 122.59 24.4935 122.59C24.6466 122.59 24.7763 122.559 24.8826 122.497C24.9888 122.435 25.0818 122.352 25.1615 122.249L25.4263 122.455C25.2138 122.78 24.8951 122.943 24.4701 122.943ZM24.4161 120.675C24.2412 120.675 24.0943 120.74 23.9755 120.867C23.8568 120.994 23.7833 121.171 23.7552 121.4H25.0255V121.368C25.013 121.148 24.9537 120.978 24.8474 120.858C24.7412 120.736 24.5974 120.675 24.4161 120.675ZM27.1888 120.755C27.1232 120.744 27.052 120.739 26.9755 120.739C26.6912 120.739 26.4982 120.859 26.3966 121.101V122.897H25.963V120.367H26.3849L26.3919 120.659C26.5341 120.433 26.7357 120.32 26.9965 120.32C27.0811 120.32 27.1451 120.331 27.1888 120.353V120.755ZM31.0256 122.3L31.5131 120.367H31.9467L31.2083 122.897H30.8568L30.2403 120.979L29.6403 122.897H29.2888L28.5528 120.367H28.984L29.4832 122.261L30.0739 120.367H30.4232L31.0256 122.3ZM32.8608 122.897H32.4272V120.367H32.8608V122.897ZM32.392 119.696C32.392 119.626 32.4131 119.566 32.4552 119.518C32.499 119.47 32.5629 119.446 32.6475 119.446C32.7317 119.446 32.7957 119.47 32.8395 119.518C32.8832 119.566 32.9053 119.626 32.9053 119.696C32.9053 119.766 32.8832 119.824 32.8395 119.871C32.7957 119.918 32.7317 119.941 32.6475 119.941C32.5629 119.941 32.499 119.918 32.4552 119.871C32.4131 119.824 32.392 119.766 32.392 119.696ZM34.1451 119.754V120.367H34.6184V120.701H34.1451V122.27C34.1451 122.371 34.1662 122.448 34.2083 122.499C34.2504 122.549 34.3224 122.574 34.424 122.574C34.4739 122.574 34.5427 122.565 34.6302 122.546V122.897C34.5163 122.928 34.4054 122.943 34.2974 122.943C34.1038 122.943 33.9576 122.885 33.8592 122.768C33.7608 122.651 33.7115 122.485 33.7115 122.27V120.701H33.2499V120.367H33.7115V119.754H34.1451ZM35.5608 120.673C35.7528 120.438 36.0029 120.32 36.3107 120.32C36.8467 120.32 37.1168 120.622 37.1216 121.225V122.897H36.688V121.223C36.6864 121.04 36.6443 120.905 36.5613 120.818C36.4803 120.731 36.3528 120.687 36.1795 120.687C36.039 120.687 35.9155 120.725 35.8091 120.799C35.7029 120.874 35.62 120.973 35.5608 121.094V122.897H35.1272V119.305H35.5608V120.673ZM38.2419 122.897H37.8083V120.367H38.2419V122.897ZM37.7731 119.696C37.7731 119.626 37.7944 119.566 37.8365 119.518C37.8803 119.47 37.9443 119.446 38.0285 119.446C38.1131 119.446 38.1771 119.47 38.2208 119.518C38.2646 119.566 38.2864 119.626 38.2864 119.696C38.2864 119.766 38.2646 119.824 38.2208 119.871C38.1771 119.918 38.1131 119.941 38.0285 119.941C37.9443 119.941 37.8803 119.918 37.8365 119.871C37.7944 119.824 37.7731 119.766 37.7731 119.696ZM39.3483 120.367L39.3622 120.685C39.556 120.442 39.8091 120.32 40.1216 120.32C40.6576 120.32 40.9277 120.622 40.9325 121.225V122.897H40.499V121.223C40.4974 121.04 40.4552 120.905 40.3723 120.818C40.2912 120.731 40.1638 120.687 39.9904 120.687C39.8499 120.687 39.7264 120.725 39.62 120.799C39.5139 120.874 39.431 120.973 39.3718 121.094V122.897H38.9382V120.367H39.3483ZM44.9358 119.736L43.5224 122.897H43.0678L44.4763 119.848H42.6294V119.492H44.9358V119.736ZM46.3747 121.627H45.231V121.274H46.3747V121.627ZM48.1795 122.897H47.7435V120.014L46.8693 120.334V119.941L48.1115 119.476H48.1795V122.897ZM51.5896 121.445C51.5896 121.951 51.503 122.328 51.3294 122.574C51.156 122.82 50.8848 122.943 50.5163 122.943C50.152 122.943 49.8827 122.823 49.7075 122.583C49.5326 122.342 49.4419 121.982 49.4358 121.503V120.926C49.4358 120.425 49.5224 120.053 49.6957 119.81C49.8693 119.567 50.1411 119.446 50.5115 119.446C50.8787 119.446 51.1491 119.563 51.3224 119.799C51.4958 120.032 51.5848 120.394 51.5896 120.884V121.445ZM51.156 120.853C51.156 120.487 51.1046 120.22 51.0014 120.053C50.8982 119.885 50.735 119.801 50.5115 119.801C50.2896 119.801 50.1278 119.885 50.0264 120.051C49.9248 120.218 49.8723 120.475 49.8694 120.82V121.513C49.8694 121.88 49.9224 122.152 50.0286 122.328C50.1366 122.503 50.299 122.59 50.5163 122.59C50.7302 122.59 50.8888 122.508 50.992 122.342C51.0966 122.177 51.1512 121.917 51.156 121.561V120.853ZM55.5272 121.66C55.5272 122.046 55.4382 122.357 55.26 122.593C55.0819 122.826 54.8427 122.943 54.5427 122.943C54.2224 122.943 53.9747 122.83 53.7997 122.604L53.7787 122.897H53.3803V119.305H53.8139V120.645C53.9888 120.429 54.2302 120.32 54.5382 120.32C54.8459 120.32 55.0872 120.436 55.2622 120.668C55.439 120.901 55.5272 121.219 55.5272 121.622V121.66ZM55.0936 121.611C55.0936 121.316 55.0366 121.089 54.9224 120.928C54.8083 120.767 54.6443 120.687 54.4302 120.687C54.1443 120.687 53.939 120.82 53.8139 121.085V122.179C53.9467 122.444 54.1536 122.576 54.435 122.576C54.6427 122.576 54.8046 122.496 54.92 122.336C55.0358 122.175 55.0936 121.933 55.0936 121.611ZM57.6411 122.647C57.4723 122.844 57.2248 122.943 56.8982 122.943C56.6278 122.943 56.4216 122.865 56.2795 122.71C56.139 122.552 56.0678 122.32 56.0662 122.013V120.367H56.4998V122.001C56.4998 122.385 56.656 122.576 56.9686 122.576C57.2998 122.576 57.52 122.453 57.6294 122.207V120.367H58.0629V122.897H57.6504L57.6411 122.647ZM60.2006 122.226C60.2006 122.109 60.156 122.018 60.067 121.954C59.9795 121.889 59.8256 121.833 59.6054 121.786C59.3864 121.739 59.2123 121.683 59.0827 121.618C58.9544 121.552 58.8592 121.474 58.7966 121.384C58.7358 121.294 58.7054 121.186 58.7054 121.061C58.7054 120.854 58.7928 120.679 58.9678 120.535C59.1443 120.392 59.3694 120.32 59.6427 120.32C59.9302 120.32 60.163 120.394 60.3411 120.542C60.5208 120.69 60.6107 120.88 60.6107 121.11H60.1747C60.1747 120.992 60.124 120.89 60.0224 120.804C59.9224 120.718 59.7958 120.675 59.6427 120.675C59.4848 120.675 59.3614 120.71 59.2723 120.778C59.1835 120.847 59.139 120.937 59.139 121.047C59.139 121.152 59.1803 121.23 59.263 121.283C59.3459 121.336 59.495 121.387 59.7107 121.435C59.9278 121.484 60.1038 121.541 60.2382 121.608C60.3723 121.675 60.4718 121.756 60.5358 121.851C60.6014 121.945 60.6342 122.06 60.6342 122.195C60.6342 122.421 60.5435 122.603 60.3622 122.74C60.1811 122.876 59.9459 122.943 59.6568 122.943C59.4536 122.943 59.2739 122.907 59.1176 122.836C58.9614 122.764 58.839 122.664 58.7499 122.536C58.6622 122.407 58.6184 122.268 58.6184 122.118H59.052C59.06 122.263 59.1176 122.378 59.2256 122.464C59.335 122.548 59.4787 122.59 59.6568 122.59C59.8208 122.59 59.952 122.558 60.0504 122.492C60.1504 122.425 60.2006 122.336 60.2006 122.226ZM61.6702 122.897H61.2366V120.367H61.6702V122.897ZM61.2014 119.696C61.2014 119.626 61.2224 119.566 61.2646 119.518C61.3083 119.47 61.3723 119.446 61.4568 119.446C61.5411 119.446 61.6054 119.47 61.6491 119.518C61.6928 119.566 61.7147 119.626 61.7147 119.696C61.7147 119.766 61.6928 119.824 61.6491 119.871C61.6054 119.918 61.5411 119.941 61.4568 119.941C61.3723 119.941 61.3083 119.918 61.2646 119.871C61.2224 119.824 61.2014 119.766 61.2014 119.696ZM62.7763 120.367L62.7904 120.685C62.984 120.442 63.2374 120.32 63.5499 120.32C64.0856 120.32 64.356 120.622 64.3608 121.225V122.897H63.9272V121.223C63.9256 121.04 63.8832 120.905 63.8006 120.818C63.7192 120.731 63.592 120.687 63.4184 120.687C63.2779 120.687 63.1544 120.725 63.0483 120.799C62.9419 120.874 62.8592 120.973 62.7998 121.094V122.897H62.3662V120.367H62.7763ZM66.067 122.943C65.7232 122.943 65.4435 122.831 65.2278 122.607C65.0123 122.381 64.9046 122.079 64.9046 121.702V121.622C64.9046 121.372 64.952 121.148 65.0475 120.952C65.1443 120.753 65.2787 120.599 65.4504 120.488C65.624 120.376 65.8115 120.32 66.0131 120.32C66.3427 120.32 66.599 120.429 66.7819 120.645C66.9646 120.862 67.056 121.172 67.056 121.576V121.756H65.3382C65.3443 122.005 65.4168 122.207 65.556 122.361C65.6966 122.514 65.8747 122.59 66.0904 122.59C66.2435 122.59 66.3731 122.559 66.4795 122.497C66.5856 122.435 66.6787 122.352 66.7584 122.249L67.0232 122.455C66.8107 122.78 66.492 122.943 66.067 122.943ZM66.0131 120.675C65.8382 120.675 65.6912 120.74 65.5723 120.867C65.4536 120.994 65.3803 121.171 65.352 121.4H66.6224V121.368C66.6099 121.148 66.5504 120.978 66.4443 120.858C66.3382 120.736 66.1944 120.675 66.0131 120.675ZM69.0366 122.226C69.0366 122.109 68.992 122.018 68.9029 121.954C68.8155 121.889 68.6614 121.833 68.4411 121.786C68.2224 121.739 68.0483 121.683 67.9184 121.618C67.7904 121.552 67.695 121.474 67.6326 121.384C67.5718 121.294 67.5411 121.186 67.5411 121.061C67.5411 120.854 67.6286 120.679 67.8038 120.535C67.9803 120.392 68.2054 120.32 68.4787 120.32C68.7662 120.32 68.999 120.394 69.1771 120.542C69.3568 120.69 69.4467 120.88 69.4467 121.11H69.0107C69.0107 120.992 68.96 120.89 68.8584 120.804C68.7584 120.718 68.6318 120.675 68.4787 120.675C68.3208 120.675 68.1974 120.71 68.1083 120.778C68.0192 120.847 67.9747 120.937 67.9747 121.047C67.9747 121.152 68.0163 121.23 68.099 121.283C68.1819 121.336 68.3309 121.387 68.5467 121.435C68.7637 121.484 68.9395 121.541 69.0739 121.608C69.2083 121.675 69.3075 121.756 69.3718 121.851C69.4374 121.945 69.4702 122.06 69.4702 122.195C69.4702 122.421 69.3795 122.603 69.1982 122.74C69.0168 122.876 68.7819 122.943 68.4928 122.943C68.2896 122.943 68.1099 122.907 67.9536 122.836C67.7974 122.764 67.6747 122.664 67.5856 122.536C67.4982 122.407 67.4544 122.268 67.4544 122.118H67.888C67.8958 122.263 67.9536 122.378 68.0614 122.464C68.171 122.548 68.3147 122.59 68.4928 122.59C68.6568 122.59 68.788 122.558 68.8864 122.492C68.9864 122.425 69.0366 122.336 69.0366 122.226ZM71.5115 122.226C71.5115 122.109 71.467 122.018 71.3779 121.954C71.2904 121.889 71.1366 121.833 70.9163 121.786C70.6974 121.739 70.5232 121.683 70.3936 121.618C70.2654 121.552 70.1702 121.474 70.1075 121.384C70.0467 121.294 70.0163 121.186 70.0163 121.061C70.0163 120.854 70.1038 120.679 70.2787 120.535C70.4552 120.392 70.6803 120.32 70.9536 120.32C71.2411 120.32 71.4739 120.394 71.652 120.542C71.8318 120.69 71.9216 120.88 71.9216 121.11H71.4856C71.4856 120.992 71.435 120.89 71.3334 120.804C71.2334 120.718 71.1067 120.675 70.9536 120.675C70.7957 120.675 70.6723 120.71 70.5835 120.778C70.4944 120.847 70.4499 120.937 70.4499 121.047C70.4499 121.152 70.4912 121.23 70.5739 121.283C70.6568 121.336 70.8059 121.387 71.0216 121.435C71.239 121.484 71.4147 121.541 71.5491 121.608C71.6832 121.675 71.7827 121.756 71.8467 121.851C71.9123 121.945 71.9451 122.06 71.9451 122.195C71.9451 122.421 71.8544 122.603 71.6731 122.74C71.492 122.876 71.2568 122.943 70.9678 122.943C70.7646 122.943 70.5848 122.907 70.4286 122.836C70.2723 122.764 70.1499 122.664 70.0608 122.536C69.9731 122.407 69.9293 122.268 69.9293 122.118H70.363C70.371 122.263 70.4286 122.378 70.5366 122.464C70.6459 122.548 70.7896 122.59 70.9678 122.59C71.1318 122.59 71.263 122.558 71.3614 122.492C71.4614 122.425 71.5115 122.336 71.5115 122.226ZM73.5949 121.611C73.5949 121.223 73.6872 120.911 73.8718 120.675C74.056 120.439 74.2974 120.32 74.5958 120.32C74.8928 120.32 75.1278 120.421 75.3014 120.624V119.305H75.735V122.897H75.3366L75.3155 122.625C75.1419 122.837 74.9006 122.943 74.5912 122.943C74.2974 122.943 74.0576 122.823 73.8718 122.583C73.6872 122.343 73.5949 122.03 73.5949 121.643V121.611ZM74.0286 121.66C74.0286 121.947 74.088 122.171 74.2067 122.333C74.3256 122.495 74.4896 122.576 74.699 122.576C74.9739 122.576 75.1747 122.453 75.3014 122.207V121.045C75.1718 120.807 74.9723 120.687 74.7038 120.687C74.4912 120.687 74.3256 120.769 74.2067 120.933C74.088 121.096 74.0286 121.339 74.0286 121.66ZM77.9755 122.897C77.9504 122.847 77.9302 122.758 77.9147 122.63C77.7131 122.839 77.4723 122.943 77.1928 122.943C76.9427 122.943 76.7374 122.873 76.5763 122.733C76.4168 122.591 76.3374 122.412 76.3374 122.195C76.3374 121.932 76.4374 121.727 76.6374 121.583C76.839 121.436 77.1216 121.363 77.4856 121.363H77.9075V121.164C77.9075 121.013 77.8622 120.893 77.7718 120.804C77.6811 120.714 77.5475 120.668 77.371 120.668C77.2163 120.668 77.0864 120.708 76.9819 120.785C76.8771 120.863 76.8248 120.958 76.8248 121.068H76.3888C76.3888 120.942 76.4334 120.82 76.5224 120.704C76.6131 120.585 76.7349 120.492 76.888 120.423C77.0427 120.354 77.2123 120.32 77.3966 120.32C77.6888 120.32 77.9176 120.393 78.0832 120.54C78.2491 120.685 78.335 120.885 78.3411 121.141V122.305C78.3411 122.537 78.371 122.722 78.4302 122.859V122.897H77.9755ZM77.256 122.567C77.392 122.567 77.5208 122.532 77.6427 122.462C77.7646 122.392 77.8528 122.3 77.9075 122.188V121.669H77.5678C77.0366 121.669 76.771 121.824 76.771 122.134C76.771 122.27 76.8163 122.376 76.9067 122.452C76.9974 122.529 77.1139 122.567 77.256 122.567ZM79.8131 122.263L80.4038 120.367H80.8678L79.8483 123.287C79.6904 123.708 79.4395 123.918 79.0958 123.918L79.0139 123.911L78.852 123.881V123.53L78.9694 123.54C79.1163 123.54 79.2302 123.51 79.3115 123.451C79.3944 123.391 79.4622 123.283 79.5155 123.126L79.6115 122.869L78.7067 120.367H79.1803L79.8131 122.263ZM82.7333 122.226C82.7333 122.109 82.6888 122.018 82.5997 121.954C82.5123 121.889 82.3584 121.833 82.1382 121.786C81.9192 121.739 81.7451 121.683 81.6155 121.618C81.4872 121.552 81.392 121.474 81.3293 121.384C81.2685 121.294 81.2382 121.186 81.2382 121.061C81.2382 120.854 81.3256 120.679 81.5006 120.535C81.6771 120.392 81.9021 120.32 82.1755 120.32C82.4629 120.32 82.6958 120.394 82.8739 120.542C83.0536 120.69 83.1435 120.88 83.1435 121.11H82.7075C82.7075 120.992 82.6568 120.89 82.5552 120.804C82.4552 120.718 82.3285 120.675 82.1755 120.675C82.0176 120.675 81.8944 120.71 81.8053 120.778C81.7163 120.847 81.6718 120.937 81.6718 121.047C81.6718 121.152 81.7131 121.23 81.7958 121.283C81.8787 121.336 82.0277 121.387 82.2435 121.435C82.4608 121.484 82.6365 121.541 82.7709 121.608C82.9053 121.675 83.0045 121.756 83.0685 121.851C83.1341 121.945 83.167 122.06 83.167 122.195C83.167 122.421 83.0763 122.603 82.8949 122.74C82.7139 122.876 82.4787 122.943 82.1896 122.943C81.9864 122.943 81.8067 122.907 81.6504 122.836C81.4944 122.764 81.3717 122.664 81.2827 122.536C81.1949 122.407 81.1512 122.268 81.1512 122.118H81.5848C81.5928 122.263 81.6504 122.378 81.7584 122.464C81.8677 122.548 82.0115 122.59 82.1896 122.59C82.3536 122.59 82.4848 122.558 82.5835 122.492C82.6832 122.425 82.7333 122.336 82.7333 122.226Z" fill="#DCDCDC"/>
<path d="M73.3334 141.783H26.6667C24.163 141.783 22.1334 143.808 22.1334 146.305V149.497C22.1334 151.995 24.163 154.02 26.6667 154.02H73.3334C75.8371 154.02 77.8667 151.995 77.8667 149.497V146.305C77.8667 143.808 75.8371 141.783 73.3334 141.783Z" fill="#BB0000"/>
<path fill-rule="evenodd" clip-rule="evenodd" d="M26.6666 142.049C24.3102 142.049 22.4 143.955 22.4 146.306V149.498C22.4 151.848 24.3102 153.754 26.6666 153.754H73.3333C75.6897 153.754 77.6 151.848 77.6 149.498V146.306C77.6 143.955 75.6897 142.049 73.3333 142.049H26.6666ZM21.8666 146.306C21.8666 143.661 24.0157 141.517 26.6666 141.517H73.3333C75.9843 141.517 78.1333 143.661 78.1333 146.306V149.498C78.1333 152.142 75.9843 154.286 73.3333 154.286H26.6666C24.0157 154.286 21.8666 152.142 21.8666 149.498V146.306Z" fill="#666666"/>
<path d="M38.8896 150.03H38.3368V148.107H36.2342V150.03H35.684V145.869H36.2342V147.658H38.3368V145.869H38.8896V150.03ZM39.643 148.455C39.643 148.152 39.7022 147.88 39.8206 147.638C39.9408 147.396 40.107 147.209 40.319 147.078C40.5328 146.946 40.7763 146.881 41.0496 146.881C41.4715 146.881 41.8126 147.026 42.0723 147.318C42.3339 147.609 42.4646 147.997 42.4646 148.481V148.518C42.4646 148.819 42.4064 149.089 42.2899 149.329C42.1752 149.567 42.0102 149.753 41.7944 149.887C41.5803 150.02 41.3342 150.087 41.0552 150.087C40.6352 150.087 40.2942 149.941 40.0326 149.649C39.7728 149.358 39.643 148.972 39.643 148.492V148.455ZM40.1758 148.518C40.1758 148.861 40.255 149.136 40.4136 149.344C40.5739 149.551 40.7878 149.655 41.0552 149.655C41.3246 149.655 41.5384 149.55 41.6968 149.341C41.8555 149.129 41.9347 148.834 41.9347 148.455C41.9347 148.116 41.8536 147.842 41.6912 147.632C41.5307 147.421 41.3168 147.315 41.0496 147.315C40.7878 147.315 40.5768 147.419 40.4166 147.626C40.256 147.834 40.1758 148.131 40.1758 148.518ZM43.6278 146.938L43.6419 147.281C43.8691 147.014 44.1758 146.881 44.5614 146.881C44.995 146.881 45.2902 147.046 45.4467 147.378C45.5499 147.229 45.6835 147.109 45.8478 147.018C46.0139 146.926 46.2096 146.881 46.435 146.881C47.1147 146.881 47.4606 147.24 47.472 147.958V150.03H46.9419V147.989C46.9419 147.768 46.8912 147.604 46.7902 147.495C46.6888 147.384 46.519 147.329 46.2803 147.329C46.0835 147.329 45.9203 147.388 45.7904 147.506C45.6606 147.622 45.5851 147.78 45.564 147.978V150.03H45.0312V148.004C45.0312 147.554 44.8107 147.329 44.3696 147.329C44.0219 147.329 43.7843 147.477 43.6563 147.772V150.03H43.1264V146.938H43.6278ZM49.5603 150.087C49.14 150.087 48.7982 149.949 48.5347 149.675C48.2712 149.399 48.1392 149.03 48.1392 148.569V148.472C48.1392 148.166 48.1976 147.892 48.3142 147.652C48.4326 147.41 48.5968 147.222 48.8067 147.086C49.0187 146.949 49.248 146.881 49.4944 146.881C49.8974 146.881 50.2104 147.013 50.4339 147.278C50.6574 147.543 50.7691 147.922 50.7691 148.415V148.635H48.6694C48.6768 148.94 48.7656 149.187 48.9358 149.375C49.1075 149.562 49.3254 149.655 49.5888 149.655C49.776 149.655 49.9344 149.617 50.0643 149.541C50.1942 149.465 50.3078 149.364 50.4054 149.238L50.7288 149.49C50.4691 149.887 50.0798 150.087 49.5603 150.087ZM49.4944 147.315C49.2803 147.315 49.1008 147.393 48.9558 147.549C48.8107 147.704 48.7208 147.921 48.6864 148.201H50.239V148.161C50.2238 147.892 50.1512 147.684 50.0214 147.538C49.8915 147.389 49.7158 147.315 49.4944 147.315ZM53.4731 148.401V150.03H52.9232V145.869H54.4614C54.9179 145.869 55.275 145.985 55.5328 146.218C55.7926 146.45 55.9224 146.758 55.9224 147.141C55.9224 147.544 55.7955 147.856 55.5414 148.075C55.2894 148.292 54.9275 148.401 54.4558 148.401H53.4731ZM53.4731 147.952H54.4614C54.7555 147.952 54.9808 147.884 55.1376 147.746C55.2942 147.607 55.3723 147.407 55.3723 147.146C55.3723 146.899 55.2942 146.7 55.1376 146.552C54.9808 146.403 54.7662 146.326 54.4931 146.321H53.4731V147.952ZM58.4203 150.03C58.3899 149.969 58.3648 149.86 58.3459 149.704C58.0995 149.959 57.8054 150.087 57.4635 150.087C57.1579 150.087 56.907 150.001 56.7102 149.83C56.5155 149.656 56.4179 149.437 56.4179 149.172C56.4179 148.85 56.5403 148.601 56.7846 148.424C57.031 148.245 57.3766 148.155 57.8216 148.155H58.3374V147.912C58.3374 147.727 58.2819 147.581 58.1712 147.472C58.0603 147.361 57.8971 147.306 57.6814 147.306C57.4923 147.306 57.3336 147.354 57.2056 147.449C57.0779 147.544 57.0139 147.66 57.0139 147.795H56.4811C56.4811 147.641 56.5355 147.492 56.6443 147.349C56.755 147.205 56.904 147.09 57.0912 147.006C57.2803 146.923 57.4875 146.881 57.7128 146.881C58.0699 146.881 58.3496 146.97 58.552 147.149C58.7544 147.326 58.8595 147.571 58.8672 147.884V149.307C58.8672 149.59 58.9035 149.816 58.976 149.984V150.03H58.4203ZM57.5408 149.627C57.707 149.627 57.8646 149.584 58.0136 149.498C58.1624 149.412 58.2704 149.301 58.3374 149.164V148.529H57.9219C57.2726 148.529 56.948 148.719 56.948 149.098C56.948 149.264 57.0032 149.393 57.1142 149.487C57.2248 149.58 57.3672 149.627 57.5408 149.627ZM59.572 148.458C59.572 147.976 59.6835 147.593 59.907 147.309C60.1304 147.023 60.4264 146.881 60.795 146.881C61.1731 146.881 61.4683 147.014 61.6803 147.281L61.7059 146.938H62.1902V149.955C62.1902 150.355 62.0707 150.671 61.832 150.901C61.5952 151.132 61.2763 151.247 60.8752 151.247C60.6518 151.247 60.4331 151.199 60.2192 151.104C60.0054 151.009 59.8422 150.878 59.7294 150.712L60.0046 150.395C60.2318 150.675 60.5096 150.815 60.8382 150.815C61.0958 150.815 61.2963 150.743 61.4395 150.598C61.5848 150.453 61.6574 150.25 61.6574 149.987V149.721C61.4454 149.965 61.156 150.087 60.7894 150.087C60.4264 150.087 60.1323 149.941 59.907 149.649C59.6835 149.358 59.572 148.961 59.572 148.458ZM60.1048 148.518C60.1048 148.867 60.1763 149.141 60.3195 149.341C60.4627 149.539 60.6632 149.638 60.9211 149.638C61.2552 149.638 61.5008 149.487 61.6574 149.184V147.772C61.495 147.477 61.2515 147.329 60.927 147.329C60.6691 147.329 60.4675 147.429 60.3224 147.629C60.1774 147.829 60.1048 148.125 60.1048 148.518ZM64.2784 150.087C63.8582 150.087 63.5166 149.949 63.2528 149.675C62.9894 149.399 62.8576 149.03 62.8576 148.569V148.472C62.8576 148.166 62.9158 147.892 63.0323 147.652C63.1507 147.41 63.315 147.222 63.5251 147.086C63.7371 146.949 63.9662 146.881 64.2126 146.881C64.6155 146.881 64.9286 147.013 65.152 147.278C65.3755 147.543 65.4872 147.922 65.4872 148.415V148.635H63.3875C63.3952 148.94 63.484 149.187 63.6539 149.375C63.8259 149.562 64.0435 149.655 64.307 149.655C64.4942 149.655 64.6528 149.617 64.7827 149.541C64.9126 149.465 65.0262 149.364 65.1235 149.238L65.4472 149.49C65.1875 149.887 64.7979 150.087 64.2784 150.087ZM64.2126 147.315C63.9987 147.315 63.8192 147.393 63.6739 147.549C63.5288 147.704 63.439 147.921 63.4048 148.201H64.9574V148.161C64.9422 147.892 64.8694 147.684 64.7395 147.538C64.6096 147.389 64.4342 147.315 64.2126 147.315Z" fill="#DCDCDC"/>
</g>
<path fill-rule="evenodd" clip-rule="evenodd" d="M0 0H100V216H0V0ZM0.266667 0.26601V215.734H99.7333V0.26601H0.266667Z" fill="black"/>
</g>
<defs>
<clipPath id="clip0_875_4789">
<rect width="100" height="216" fill="white"/>
</clipPath>
</defs>
</svg>
