<svg width="375" height="812" viewBox="0 0 375 812" fill="none" xmlns="http://www.w3.org/2000/svg">
<g clip-path="url(#clip0_2_2)">
<rect width="375" height="812" fill="white"/>
<g clip-path="url(#clip1_2_2)">
<rect width="375" height="812" fill="white"/>
<path d="M37.2146 17.1675C34.9222 17.1675 33.2889 18.7349 33.2889 20.8809V20.8955C33.2889 22.9023 34.7098 24.3818 36.7386 24.3818C38.1888 24.3818 39.1116 23.6421 39.4998 22.8071H39.6463C39.6463 22.8877 39.639 22.9683 39.639 23.0488C39.5584 25.0703 38.8479 26.7109 37.1707 26.7109C36.2405 26.7109 35.5887 26.2275 35.3104 25.4878L35.2884 25.4146H33.428L33.4427 25.4951C33.7796 27.1138 35.2298 28.2637 37.1707 28.2637C39.8294 28.2637 41.4334 26.1543 41.4334 22.5947V22.5801C41.4334 18.7715 39.4705 17.1675 37.2146 17.1675ZM37.2073 22.9316C36.0062 22.9316 35.1346 22.0527 35.1346 20.8296V20.8149C35.1346 19.6357 36.0647 18.7056 37.2293 18.7056C38.4012 18.7056 39.3167 19.6504 39.3167 20.8589V20.8735C39.3167 22.0674 38.4012 22.9316 37.2073 22.9316ZM44.4586 21.1519C45.1324 21.1519 45.6231 20.6392 45.6231 19.9946C45.6231 19.3428 45.1324 18.8374 44.4586 18.8374C43.7921 18.8374 43.294 19.3428 43.294 19.9946C43.294 20.6392 43.7921 21.1519 44.4586 21.1519ZM44.4586 26.5864C45.1324 26.5864 45.6231 26.0811 45.6231 25.4292C45.6231 24.7773 45.1324 24.272 44.4586 24.272C43.7921 24.272 43.294 24.7773 43.294 25.4292C43.294 26.0811 43.7921 26.5864 44.4586 26.5864ZM52.6107 28H54.4198V25.9712H55.8407V24.4111H54.4198V17.4312H51.7465C50.3109 19.6138 48.8095 22.0454 47.4398 24.4258V25.9712H52.6107V28ZM49.1977 24.4551V24.3452C50.223 22.5508 51.4462 20.5952 52.5302 18.9399H52.64V24.4551H49.1977ZM59.9206 28H61.8103V17.4312H59.9279L57.1667 19.3721V21.1519L59.7961 19.2915H59.9206V28Z" fill="black"/>
<rect opacity="0.35" x="336.833" y="17.8333" width="21" height="10.3333" rx="2.16667" stroke="black"/>
<path opacity="0.4" d="M359.333 21V25C360.138 24.6612 360.661 23.8731 360.661 23C360.661 22.1269 360.138 21.3388 359.333 21Z" fill="black"/>
<rect x="338.333" y="19.3333" width="18" height="7.33333" rx="1.33333" fill="black"/>
<path fill-rule="evenodd" clip-rule="evenodd" d="M323.667 19.6152C325.892 19.6153 328.031 20.4694 329.644 22.001C329.765 22.1192 329.959 22.1177 330.079 21.9976L331.239 20.8273C331.3 20.7664 331.334 20.6839 331.333 20.598C331.333 20.5122 331.298 20.4301 331.237 20.3699C327.005 16.3176 320.329 16.3176 316.097 20.3699C316.035 20.43 316.001 20.5121 316 20.598C315.999 20.6838 316.033 20.7663 316.094 20.8273L317.255 21.9976C317.374 22.1179 317.568 22.1194 317.69 22.001C319.302 20.4693 321.442 19.6152 323.667 19.6152ZM323.667 23.4227C324.889 23.4227 326.068 23.8766 326.974 24.6964C327.097 24.8127 327.29 24.8102 327.409 24.6907L328.569 23.5204C328.63 23.459 328.663 23.3757 328.663 23.2892C328.662 23.2027 328.626 23.1201 328.564 23.0599C325.805 20.4955 321.532 20.4955 318.773 23.0599C318.71 23.1201 318.675 23.2027 318.674 23.2893C318.673 23.3758 318.707 23.4591 318.768 23.5204L319.927 24.6907C320.047 24.8102 320.24 24.8127 320.362 24.6964C321.268 23.8772 322.446 23.4233 323.667 23.4227ZM325.989 25.9846C325.991 26.0714 325.957 26.155 325.895 26.2158L323.89 28.2378C323.831 28.2972 323.751 28.3307 323.667 28.3307C323.583 28.3307 323.503 28.2972 323.445 28.2378L321.439 26.2158C321.377 26.155 321.343 26.0713 321.345 25.9845C321.347 25.8977 321.384 25.8156 321.449 25.7574C322.729 24.6751 324.605 24.6751 325.886 25.7574C325.95 25.8156 325.988 25.8978 325.989 25.9846Z" fill="black"/>
<path fill-rule="evenodd" clip-rule="evenodd" d="M310 17.6667H309C308.448 17.6667 308 18.1144 308 18.6667V27.3333C308 27.8856 308.448 28.3333 309 28.3333H310C310.552 28.3333 311 27.8856 311 27.3333V18.6667C311 18.1144 310.552 17.6667 310 17.6667ZM304.333 20H305.333C305.886 20 306.333 20.4477 306.333 21V27.3333C306.333 27.8856 305.886 28.3333 305.333 28.3333H304.333C303.781 28.3333 303.333 27.8856 303.333 27.3333V21C303.333 20.4477 303.781 20 304.333 20ZM300.667 22.3333H299.667C299.114 22.3333 298.667 22.781 298.667 23.3333V27.3333C298.667 27.8856 299.114 28.3333 299.667 28.3333H300.667C301.219 28.3333 301.667 27.8856 301.667 27.3333V23.3333C301.667 22.781 301.219 22.3333 300.667 22.3333ZM296 24.3333H295C294.448 24.3333 294 24.781 294 25.3333V27.3333C294 27.8856 294.448 28.3333 295 28.3333H296C296.552 28.3333 297 27.8856 297 27.3333V25.3333C297 24.781 296.552 24.3333 296 24.3333Z" fill="black"/>
<rect x="121" y="799" width="134" height="5" rx="2.5" fill="black"/>
</g>
<path d="M94.8703 423.797C102.417 423.797 107.363 419.859 107.363 413.531V413.508C107.363 408.633 104.573 405.797 97.5188 404.227L93.7688 403.383C89.175 402.375 87.3234 400.547 87.3234 397.852V397.828C87.3234 394.289 90.5813 392.297 94.8 392.273C99.2063 392.25 102.019 394.453 102.488 397.43L102.534 397.734H106.753L106.73 397.406C106.378 392.367 101.667 388.383 94.9172 388.383C87.9328 388.383 83.0344 392.344 83.0109 397.945V397.969C83.0109 402.867 85.9406 405.984 92.7141 407.484L96.4641 408.305C101.105 409.336 103.05 411.258 103.05 414.07V414.094C103.05 417.539 99.6984 419.906 95.1047 419.906C90.2297 419.906 86.7141 417.773 86.4094 414.398L86.3859 414.141H82.1672L82.1906 414.398C82.6828 419.906 87.4641 423.797 94.8703 423.797ZM122.555 423.188C123.352 423.188 124.125 423.094 124.922 422.953V419.484C124.172 419.555 123.773 419.578 123.047 419.578C120.422 419.578 119.391 418.383 119.391 415.406V401.109H124.922V397.734H119.391V391.195H115.172V397.734H111.188V401.109H115.172V416.438C115.172 421.266 117.352 423.188 122.555 423.188ZM130.716 423H134.794V407.344C134.794 403.641 137.559 401.18 141.45 401.18C142.341 401.18 143.114 401.273 143.958 401.414V397.453C143.559 397.383 142.692 397.289 141.919 397.289C138.497 397.289 136.13 398.836 135.169 401.484H134.794V397.734H130.716V423ZM158.306 423.445C164.259 423.445 167.869 420.07 168.736 416.648L168.783 416.461H164.705L164.611 416.672C163.931 418.195 161.822 419.812 158.4 419.812C153.9 419.812 151.017 416.766 150.9 411.539H169.088V409.945C169.088 402.398 164.916 397.289 158.048 397.289C151.181 397.289 146.728 402.633 146.728 410.438V410.461C146.728 418.383 151.088 423.445 158.306 423.445ZM158.025 400.922C161.752 400.922 164.517 403.289 164.939 408.281H150.97C151.416 403.477 154.275 400.922 158.025 400.922ZM182.053 423.445C185.452 423.445 188.1 421.969 189.694 419.273H190.069V423H194.147V405.703C194.147 400.453 190.702 397.289 184.538 397.289C179.147 397.289 175.303 399.961 174.647 403.922L174.623 404.062H178.702L178.725 403.992C179.381 402.023 181.373 400.898 184.397 400.898C188.17 400.898 190.069 402.586 190.069 405.703V408L182.827 408.445C176.944 408.797 173.616 411.398 173.616 415.898V415.945C173.616 420.539 177.248 423.445 182.053 423.445ZM177.788 415.852V415.805C177.788 413.297 179.475 411.938 183.319 411.703L190.069 411.281V413.578C190.069 417.188 187.045 419.906 182.897 419.906C179.967 419.906 177.788 418.406 177.788 415.852ZM201.3 423H205.378V407.344C205.378 403.781 207.886 400.898 211.191 400.898C214.378 400.898 216.441 402.844 216.441 405.844V423H220.519V406.758C220.519 403.547 222.839 400.898 226.355 400.898C229.917 400.898 231.628 402.75 231.628 406.477V423H235.706V405.539C235.706 400.242 232.823 397.289 227.667 397.289C224.175 397.289 221.292 399.047 219.933 401.719H219.558C218.386 399.094 215.995 397.289 212.573 397.289C209.269 397.289 206.878 398.859 205.753 401.578H205.378V397.734H201.3V423ZM250.711 423H254.883L267.352 389.18H262.922L252.984 417.539H252.609L242.672 389.18H238.242L250.711 423ZM279.755 423.445C283.458 423.445 286.012 421.922 287.255 419.227H287.63V423H291.708V397.734H287.63V412.688C287.63 417.117 285.262 419.836 280.809 419.836C276.778 419.836 275.137 417.656 275.137 413.109V397.734H271.059V414.094C271.059 420.07 274.012 423.445 279.755 423.445Z" fill="black"/>
<path d="M65 595C65 587.268 71.268 581 79 581H296C303.732 581 310 587.268 310 595V617C310 624.732 303.732 631 296 631H79C71.268 631 65 624.732 65 617V595Z" fill="#C4C4C4"/>
<path d="M65 595C65 587.268 71.268 581 79 581H296C303.732 581 310 587.268 310 595V617C310 624.732 303.732 631 296 631H79C71.268 631 65 624.732 65 617V595Z" stroke="black"/>
<path d="M127.324 615.398C131.648 615.398 134.508 612.633 134.508 608.461V606.398H127.652V608.25H132.398V608.66C132.398 611.52 130.359 613.453 127.336 613.453C123.938 613.453 121.816 610.805 121.816 606.551V606.527C121.816 602.332 123.973 599.637 127.324 599.637C129.844 599.637 131.543 600.832 132.234 603.012L132.27 603.129H134.402L134.379 603.012C133.711 599.801 131.074 597.691 127.324 597.691C122.695 597.691 119.66 601.195 119.66 606.527V606.551C119.66 611.953 122.648 615.398 127.324 615.398ZM143.145 615.223C146.121 615.223 147.926 613.535 148.359 611.824L148.383 611.73H146.344L146.297 611.836C145.957 612.598 144.902 613.406 143.191 613.406C140.941 613.406 139.5 611.883 139.441 609.27H148.535V608.473C148.535 604.699 146.449 602.145 143.016 602.145C139.582 602.145 137.355 604.816 137.355 608.719V608.73C137.355 612.691 139.535 615.223 143.145 615.223ZM143.004 603.961C144.867 603.961 146.25 605.145 146.461 607.641H139.477C139.699 605.238 141.129 603.961 143.004 603.961ZM156.188 615.094C156.586 615.094 156.973 615.047 157.371 614.977V613.242C156.996 613.277 156.797 613.289 156.434 613.289C155.121 613.289 154.605 612.691 154.605 611.203V604.055H157.371V602.367H154.605V599.098H152.496V602.367H150.504V604.055H152.496V611.719C152.496 614.133 153.586 615.094 156.188 615.094ZM172.969 615.398C176.742 615.398 179.215 613.43 179.215 610.266V610.254C179.215 607.816 177.82 606.398 174.293 605.613L172.418 605.191C170.121 604.688 169.195 603.773 169.195 602.426V602.414C169.195 600.645 170.824 599.648 172.934 599.637C175.137 599.625 176.543 600.727 176.777 602.215L176.801 602.367H178.91L178.898 602.203C178.723 599.684 176.367 597.691 172.992 597.691C169.5 597.691 167.051 599.672 167.039 602.473V602.484C167.039 604.934 168.504 606.492 171.891 607.242L173.766 607.652C176.086 608.168 177.059 609.129 177.059 610.535V610.547C177.059 612.27 175.383 613.453 173.086 613.453C170.648 613.453 168.891 612.387 168.738 610.699L168.727 610.57H166.617L166.629 610.699C166.875 613.453 169.266 615.398 172.969 615.398ZM186.961 615.094C187.359 615.094 187.746 615.047 188.145 614.977V613.242C187.77 613.277 187.57 613.289 187.207 613.289C185.895 613.289 185.379 612.691 185.379 611.203V604.055H188.145V602.367H185.379V599.098H183.27V602.367H181.277V604.055H183.27V611.719C183.27 614.133 184.359 615.094 186.961 615.094ZM194.66 615.223C196.359 615.223 197.684 614.484 198.48 613.137H198.668V615H200.707V606.352C200.707 603.727 198.984 602.145 195.902 602.145C193.207 602.145 191.285 603.48 190.957 605.461L190.945 605.531H192.984L192.996 605.496C193.324 604.512 194.32 603.949 195.832 603.949C197.719 603.949 198.668 604.793 198.668 606.352V607.5L195.047 607.723C192.105 607.898 190.441 609.199 190.441 611.449V611.473C190.441 613.77 192.258 615.223 194.66 615.223ZM192.527 611.426V611.402C192.527 610.148 193.371 609.469 195.293 609.352L198.668 609.141V610.289C198.668 612.094 197.156 613.453 195.082 613.453C193.617 613.453 192.527 612.703 192.527 611.426ZM204.434 615H206.473V607.172C206.473 605.32 207.855 604.09 209.801 604.09C210.246 604.09 210.633 604.137 211.055 604.207V602.227C210.855 602.191 210.422 602.145 210.035 602.145C208.324 602.145 207.141 602.918 206.66 604.242H206.473V602.367H204.434V615ZM218.766 615.094C219.164 615.094 219.551 615.047 219.949 614.977V613.242C219.574 613.277 219.375 613.289 219.012 613.289C217.699 613.289 217.184 612.691 217.184 611.203V604.055H219.949V602.367H217.184V599.098H215.074V602.367H213.082V604.055H215.074V611.719C215.074 614.133 216.164 615.094 218.766 615.094ZM227.965 615.223C230.941 615.223 232.746 613.535 233.18 611.824L233.203 611.73H231.164L231.117 611.836C230.777 612.598 229.723 613.406 228.012 613.406C225.762 613.406 224.32 611.883 224.262 609.27H233.355V608.473C233.355 604.699 231.27 602.145 227.836 602.145C224.402 602.145 222.176 604.816 222.176 608.719V608.73C222.176 612.691 224.355 615.223 227.965 615.223ZM227.824 603.961C229.688 603.961 231.07 605.145 231.281 607.641H224.297C224.52 605.238 225.949 603.961 227.824 603.961ZM241.184 615.223C242.941 615.223 244.348 614.391 245.121 612.984H245.309V615H247.348V597.352H245.309V604.359H245.121C244.43 603.012 242.918 602.145 241.184 602.145C237.973 602.145 235.887 604.711 235.887 608.672V608.695C235.887 612.633 237.984 615.223 241.184 615.223ZM241.652 613.418C239.344 613.418 237.973 611.637 237.973 608.695V608.672C237.973 605.73 239.344 603.949 241.652 603.949C243.949 603.949 245.355 605.754 245.355 608.672V608.695C245.355 611.613 243.949 613.418 241.652 613.418ZM252.117 609.375H254.062L254.262 598.078H251.918L252.117 609.375ZM253.102 615.211C254.051 615.211 254.719 614.531 254.719 613.582C254.719 612.621 254.051 611.941 253.102 611.941C252.152 611.941 251.473 612.621 251.473 613.582C251.473 614.531 252.152 615.211 253.102 615.211Z" fill="black"/>
</g>
<defs>
<clipPath id="clip0_2_2">
<rect width="375" height="812" fill="white"/>
</clipPath>
<clipPath id="clip1_2_2">
<rect width="375" height="812" fill="white"/>
</clipPath>
</defs>
</svg>
