<svg width="375" height="812" viewBox="0 0 375 812" fill="none" xmlns="http://www.w3.org/2000/svg">
<g clip-path="url(#clip0_5_3)">
<rect width="375" height="812" fill="white"/>
<g clip-path="url(#clip1_5_3)">
<path d="M37.2146 17.1675C34.9222 17.1675 33.2889 18.7349 33.2889 20.8809V20.8955C33.2889 22.9023 34.7098 24.3818 36.7386 24.3818C38.1888 24.3818 39.1116 23.6421 39.4998 22.8071H39.6463C39.6463 22.8877 39.639 22.9683 39.639 23.0488C39.5584 25.0703 38.8479 26.7109 37.1707 26.7109C36.2405 26.7109 35.5887 26.2275 35.3104 25.4878L35.2884 25.4146H33.428L33.4427 25.4951C33.7796 27.1138 35.2298 28.2637 37.1707 28.2637C39.8294 28.2637 41.4334 26.1543 41.4334 22.5947V22.5801C41.4334 18.7715 39.4705 17.1675 37.2146 17.1675ZM37.2073 22.9316C36.0062 22.9316 35.1346 22.0527 35.1346 20.8296V20.8149C35.1346 19.6357 36.0647 18.7056 37.2293 18.7056C38.4012 18.7056 39.3167 19.6504 39.3167 20.8589V20.8735C39.3167 22.0674 38.4012 22.9316 37.2073 22.9316ZM44.4586 21.1519C45.1324 21.1519 45.6231 20.6392 45.6231 19.9946C45.6231 19.3428 45.1324 18.8374 44.4586 18.8374C43.7921 18.8374 43.294 19.3428 43.294 19.9946C43.294 20.6392 43.7921 21.1519 44.4586 21.1519ZM44.4586 26.5864C45.1324 26.5864 45.6231 26.0811 45.6231 25.4292C45.6231 24.7773 45.1324 24.272 44.4586 24.272C43.7921 24.272 43.294 24.7773 43.294 25.4292C43.294 26.0811 43.7921 26.5864 44.4586 26.5864ZM52.6107 28H54.4198V25.9712H55.8407V24.4111H54.4198V17.4312H51.7465C50.3109 19.6138 48.8095 22.0454 47.4398 24.4258V25.9712H52.6107V28ZM49.1977 24.4551V24.3452C50.223 22.5508 51.4462 20.5952 52.5302 18.9399H52.64V24.4551H49.1977ZM59.9206 28H61.8103V17.4312H59.9279L57.1667 19.3721V21.1519L59.7961 19.2915H59.9206V28Z" fill="black"/>
<rect opacity="0.35" x="336.833" y="17.8333" width="21" height="10.3333" rx="2.16667" stroke="black"/>
<path opacity="0.4" d="M359.333 21V25C360.138 24.6612 360.661 23.8731 360.661 23C360.661 22.1269 360.138 21.3388 359.333 21" fill="black"/>
<rect x="338.333" y="19.3333" width="18" height="7.33333" rx="1.33333" fill="black"/>
<path fill-rule="evenodd" clip-rule="evenodd" d="M323.667 19.6152C325.892 19.6153 328.031 20.4694 329.644 22.001C329.765 22.1192 329.959 22.1177 330.079 21.9976L331.239 20.8273C331.3 20.7664 331.334 20.6839 331.333 20.598C331.333 20.5122 331.298 20.4301 331.237 20.3699C327.005 16.3176 320.329 16.3176 316.097 20.3699C316.035 20.43 316.001 20.5121 316 20.598C315.999 20.6838 316.033 20.7663 316.094 20.8273L317.255 21.9976C317.374 22.1179 317.568 22.1194 317.69 22.001C319.302 20.4693 321.442 19.6152 323.667 19.6152ZM323.667 23.4227C324.889 23.4227 326.068 23.8766 326.974 24.6964C327.097 24.8127 327.29 24.8102 327.409 24.6907L328.569 23.5204C328.63 23.459 328.663 23.3757 328.663 23.2892C328.662 23.2027 328.626 23.1201 328.564 23.0599C325.805 20.4955 321.532 20.4955 318.773 23.0599C318.71 23.1201 318.675 23.2027 318.674 23.2893C318.673 23.3758 318.707 23.4591 318.768 23.5204L319.927 24.6907C320.047 24.8102 320.24 24.8127 320.362 24.6964C321.268 23.8772 322.446 23.4233 323.667 23.4227ZM325.989 25.9846C325.991 26.0714 325.957 26.155 325.895 26.2158L323.89 28.2378C323.831 28.2972 323.751 28.3307 323.667 28.3307C323.583 28.3307 323.503 28.2972 323.445 28.2378L321.439 26.2158C321.377 26.155 321.343 26.0713 321.345 25.9845C321.347 25.8977 321.384 25.8156 321.449 25.7574C322.729 24.6751 324.605 24.6751 325.886 25.7574C325.95 25.8156 325.988 25.8978 325.989 25.9846Z" fill="black"/>
<path fill-rule="evenodd" clip-rule="evenodd" d="M310 17.6667H309C308.448 17.6667 308 18.1144 308 18.6667V27.3333C308 27.8856 308.448 28.3333 309 28.3333H310C310.552 28.3333 311 27.8856 311 27.3333V18.6667C311 18.1144 310.552 17.6667 310 17.6667ZM304.333 20H305.333C305.886 20 306.333 20.4477 306.333 21V27.3333C306.333 27.8856 305.886 28.3333 305.333 28.3333H304.333C303.781 28.3333 303.333 27.8856 303.333 27.3333V21C303.333 20.4477 303.781 20 304.333 20ZM300.667 22.3333H299.667C299.114 22.3333 298.667 22.781 298.667 23.3333V27.3333C298.667 27.8856 299.114 28.3333 299.667 28.3333H300.667C301.219 28.3333 301.667 27.8856 301.667 27.3333V23.3333C301.667 22.781 301.219 22.3333 300.667 22.3333ZM296 24.3333H295C294.448 24.3333 294 24.781 294 25.3333V27.3333C294 27.8856 294.448 28.3333 295 28.3333H296C296.552 28.3333 297 27.8856 297 27.3333V25.3333C297 24.781 296.552 24.3333 296 24.3333Z" fill="black"/>
<rect x="121" y="799" width="134" height="5" rx="2.5" fill="black"/>
</g>
<rect x="21" y="527" width="332" height="114" fill="white"/>
<path d="M95.318 566.332C98.316 566.332 100.543 564.662 101.011 562.084V562.064H99.234L99.2145 562.084C98.775 563.705 97.2809 564.711 95.318 564.711C92.6031 564.711 90.9039 562.494 90.9039 558.969V558.949C90.9039 555.424 92.6031 553.197 95.3082 553.197C97.2516 553.197 98.7555 554.34 99.2242 556.146L99.234 556.166H101.002L101.011 556.146C100.591 553.441 98.277 551.576 95.3082 551.576C91.4801 551.576 89.0973 554.408 89.0973 558.949V558.969C89.0973 563.5 91.4898 566.332 95.318 566.332ZM106.971 566.186C108.514 566.186 109.579 565.551 110.096 564.428H110.252V566H111.952V555.473H110.252V561.703C110.252 563.549 109.266 564.682 107.411 564.682C105.731 564.682 105.047 563.773 105.047 561.879V555.473H103.348V562.289C103.348 564.779 104.579 566.186 106.971 566.186ZM118.439 566.186C120.831 566.186 122.657 564.887 122.657 563.012V562.992C122.657 561.488 121.7 560.629 119.718 560.15L118.097 559.76C116.857 559.457 116.329 559.008 116.329 558.295V558.275C116.329 557.348 117.247 556.703 118.497 556.703C119.767 556.703 120.587 557.279 120.812 558.109H122.482C122.247 556.391 120.714 555.287 118.507 555.287C116.271 555.287 114.591 556.605 114.591 558.354V558.363C114.591 559.877 115.48 560.736 117.452 561.205L119.083 561.596C120.382 561.908 120.919 562.406 120.919 563.119V563.139C120.919 564.096 119.913 564.77 118.497 564.77C117.15 564.77 116.31 564.193 116.027 563.314H114.288C114.484 565.053 116.095 566.186 118.439 566.186ZM128.637 566.078C128.969 566.078 129.291 566.039 129.623 565.98V564.535C129.311 564.564 129.145 564.574 128.842 564.574C127.748 564.574 127.318 564.076 127.318 562.836V556.879H129.623V555.473H127.318V552.748H125.561V555.473H123.9V556.879H125.561V563.266C125.561 565.277 126.469 566.078 128.637 566.078ZM136.032 566.186C139.03 566.186 140.886 564.115 140.886 560.746V560.727C140.886 557.348 139.03 555.287 136.032 555.287C133.034 555.287 131.179 557.348 131.179 560.727V560.746C131.179 564.115 133.034 566.186 136.032 566.186ZM136.032 564.682C134.04 564.682 132.917 563.227 132.917 560.746V560.727C132.917 558.236 134.04 556.791 136.032 556.791C138.024 556.791 139.147 558.236 139.147 560.727V560.746C139.147 563.227 138.024 564.682 136.032 564.682ZM143.222 566H144.921V559.477C144.921 557.992 145.966 556.791 147.343 556.791C148.671 556.791 149.531 557.602 149.531 558.852V566H151.23V559.232C151.23 557.895 152.197 556.791 153.662 556.791C155.146 556.791 155.859 557.562 155.859 559.115V566H157.558V558.725C157.558 556.518 156.357 555.287 154.209 555.287C152.754 555.287 151.552 556.02 150.986 557.133H150.83C150.341 556.039 149.345 555.287 147.92 555.287C146.543 555.287 145.546 555.941 145.078 557.074H144.921V555.473H143.222V566ZM161.223 553.441C161.868 553.441 162.395 552.914 162.395 552.27C162.395 551.625 161.868 551.098 161.223 551.098C160.579 551.098 160.051 551.625 160.051 552.27C160.051 552.914 160.579 553.441 161.223 553.441ZM160.364 566H162.063V555.473H160.364V566ZM164.722 566H172.827V564.594H166.753V564.438L172.798 556.732V555.473H164.732V556.879H170.796V557.035L164.722 564.77V566ZM179.451 566.186C181.932 566.186 183.436 564.779 183.797 563.354L183.816 563.275H182.117L182.078 563.363C181.795 563.998 180.916 564.672 179.49 564.672C177.615 564.672 176.414 563.402 176.365 561.225H183.943V560.561C183.943 557.416 182.205 555.287 179.344 555.287C176.482 555.287 174.627 557.514 174.627 560.766V560.775C174.627 564.076 176.443 566.186 179.451 566.186ZM179.334 556.801C180.887 556.801 182.039 557.787 182.215 559.867H176.395C176.58 557.865 177.771 556.801 179.334 556.801ZM192.504 569.691C194.369 569.691 195.238 569.008 196.107 566.645L200.218 555.473H198.431L195.55 564.135H195.394L192.504 555.473H190.687L194.584 566.01L194.388 566.635C194.007 567.846 193.421 568.285 192.455 568.285C192.22 568.285 191.957 568.275 191.752 568.236V569.633C191.986 569.672 192.279 569.691 192.504 569.691ZM206.1 566.186C209.098 566.186 210.954 564.115 210.954 560.746V560.727C210.954 557.348 209.098 555.287 206.1 555.287C203.102 555.287 201.246 557.348 201.246 560.727V560.746C201.246 564.115 203.102 566.186 206.1 566.186ZM206.1 564.682C204.108 564.682 202.985 563.227 202.985 560.746V560.727C202.985 558.236 204.108 556.791 206.1 556.791C208.092 556.791 209.215 558.236 209.215 560.727V560.746C209.215 563.227 208.092 564.682 206.1 564.682ZM216.816 566.186C218.359 566.186 219.423 565.551 219.941 564.428H220.097V566H221.796V555.473H220.097V561.703C220.097 563.549 219.111 564.682 217.255 564.682C215.575 564.682 214.892 563.773 214.892 561.879V555.473H213.193V562.289C213.193 564.779 214.423 566.186 216.816 566.186ZM224.67 566H226.369V559.477C226.369 557.934 227.521 556.908 229.143 556.908C229.514 556.908 229.836 556.947 230.188 557.006V555.355C230.021 555.326 229.66 555.287 229.338 555.287C227.912 555.287 226.926 555.932 226.525 557.035H226.369V555.473H224.67V566ZM240.925 566.186C243.318 566.186 245.144 564.887 245.144 563.012V562.992C245.144 561.488 244.187 560.629 242.205 560.15L240.584 559.76C239.343 559.457 238.816 559.008 238.816 558.295V558.275C238.816 557.348 239.734 556.703 240.984 556.703C242.254 556.703 243.074 557.279 243.298 558.109H244.968C244.734 556.391 243.201 555.287 240.994 555.287C238.757 555.287 237.078 556.605 237.078 558.354V558.363C237.078 559.877 237.966 560.736 239.939 561.205L241.57 561.596C242.869 561.908 243.406 562.406 243.406 563.119V563.139C243.406 564.096 242.4 564.77 240.984 564.77C239.636 564.77 238.796 564.193 238.513 563.314H236.775C236.97 565.053 238.582 566.186 240.925 566.186ZM251.778 566.186C254.258 566.186 255.762 564.779 256.123 563.354L256.143 563.275H254.444L254.405 563.363C254.121 563.998 253.243 564.672 251.817 564.672C249.942 564.672 248.741 563.402 248.692 561.225H256.27V560.561C256.27 557.416 254.532 555.287 251.67 555.287C248.809 555.287 246.954 557.514 246.954 560.766V560.775C246.954 564.076 248.77 566.186 251.778 566.186ZM251.661 556.801C253.213 556.801 254.366 557.787 254.541 559.867H248.721C248.907 557.865 250.098 556.801 251.661 556.801ZM261.497 566.186C262.913 566.186 264.017 565.57 264.681 564.447H264.837V566H266.536V558.793C266.536 556.605 265.101 555.287 262.532 555.287C260.286 555.287 258.685 556.4 258.411 558.051L258.402 558.109H260.101L260.111 558.08C260.384 557.26 261.214 556.791 262.474 556.791C264.046 556.791 264.837 557.494 264.837 558.793V559.75L261.82 559.936C259.368 560.082 257.982 561.166 257.982 563.041V563.061C257.982 564.975 259.495 566.186 261.497 566.186ZM259.72 563.021V563.002C259.72 561.957 260.423 561.391 262.025 561.293L264.837 561.117V562.074C264.837 563.578 263.577 564.711 261.849 564.711C260.628 564.711 259.72 564.086 259.72 563.021ZM269.342 566H271.041V559.477C271.041 557.934 272.193 556.908 273.814 556.908C274.186 556.908 274.508 556.947 274.859 557.006V555.355C274.693 555.326 274.332 555.287 274.01 555.287C272.584 555.287 271.598 555.932 271.197 557.035H271.041V555.473H269.342V566ZM280.673 566.186C283.202 566.186 284.618 564.828 285.048 562.924L285.067 562.816L283.388 562.826L283.368 562.885C282.977 564.057 282.079 564.682 280.663 564.682C278.788 564.682 277.577 563.129 277.577 560.707V560.688C277.577 558.314 278.768 556.791 280.663 556.791C282.177 556.791 283.114 557.631 283.378 558.666L283.388 558.695H285.077L285.067 558.637C284.755 556.762 283.221 555.287 280.663 555.287C277.714 555.287 275.839 557.416 275.839 560.688V560.707C275.839 564.047 277.723 566.186 280.673 566.186ZM287.355 566H289.054V559.77C289.054 557.924 290.119 556.791 291.798 556.791C293.478 556.791 294.259 557.699 294.259 559.594V566H295.959V559.184C295.959 556.684 294.64 555.287 292.277 555.287C290.724 555.287 289.738 555.941 289.211 557.055H289.054V551.293H287.355V566ZM77.5977 590.186C80.0781 590.186 81.582 588.779 81.9434 587.354L81.9629 587.275H80.2637L80.2246 587.363C79.9414 587.998 79.0625 588.672 77.6367 588.672C75.7617 588.672 74.5605 587.402 74.5117 585.225H82.0898V584.561C82.0898 581.416 80.3516 579.287 77.4902 579.287C74.6289 579.287 72.7734 581.514 72.7734 584.766V584.775C72.7734 588.076 74.5898 590.186 77.5977 590.186ZM77.4805 580.801C79.0332 580.801 80.1855 581.787 80.3613 583.867H74.541C74.7266 581.865 75.918 580.801 77.4805 580.801ZM83.1961 590H85.1004L87.6004 586.025H87.7566L90.2469 590H92.2391L88.616 584.668L92.1902 579.473H90.2859L87.8152 583.389H87.659L85.159 579.473H83.157L86.7996 584.736L83.1961 590ZM94.2242 593.516H95.9234V588.34H96.0797C96.6559 589.463 97.9156 590.186 99.3609 590.186C102.037 590.186 103.775 588.047 103.775 584.746V584.727C103.775 581.445 102.027 579.287 99.3609 579.287C97.8961 579.287 96.7242 579.98 96.0797 581.152H95.9234V579.473H94.2242V593.516ZM98.9703 588.682C97.0563 588.682 95.8844 587.178 95.8844 584.746V584.727C95.8844 582.295 97.0563 580.791 98.9703 580.791C100.894 580.791 102.037 582.275 102.037 584.727V584.746C102.037 587.197 100.894 588.682 98.9703 588.682ZM110.428 590.186C112.909 590.186 114.412 588.779 114.774 587.354L114.793 587.275H113.094L113.055 587.363C112.772 587.998 111.893 588.672 110.467 588.672C108.592 588.672 107.391 587.402 107.342 585.225H114.92V584.561C114.92 581.416 113.182 579.287 110.321 579.287C107.459 579.287 105.604 581.514 105.604 584.766V584.775C105.604 588.076 107.42 590.186 110.428 590.186ZM110.311 580.801C111.864 580.801 113.016 581.787 113.192 583.867H107.371C107.557 581.865 108.748 580.801 110.311 580.801ZM117.257 590H118.956V583.477C118.956 581.934 120.109 580.908 121.73 580.908C122.101 580.908 122.423 580.947 122.775 581.006V579.355C122.609 579.326 122.247 579.287 121.925 579.287C120.499 579.287 119.513 579.932 119.112 581.035H118.956V579.473H117.257V590ZM125.473 577.441C126.117 577.441 126.645 576.914 126.645 576.27C126.645 575.625 126.117 575.098 125.473 575.098C124.828 575.098 124.301 575.625 124.301 576.27C124.301 576.914 124.828 577.441 125.473 577.441ZM124.613 590H126.312V579.473H124.613V590ZM133.512 590.186C135.993 590.186 137.497 588.779 137.858 587.354L137.878 587.275H136.179L136.139 587.363C135.856 587.998 134.977 588.672 133.552 588.672C131.677 588.672 130.475 587.402 130.427 585.225H138.005V584.561C138.005 581.416 136.266 579.287 133.405 579.287C130.544 579.287 128.688 581.514 128.688 584.766V584.775C128.688 588.076 130.505 590.186 133.512 590.186ZM133.395 580.801C134.948 580.801 136.1 581.787 136.276 583.867H130.456C130.641 581.865 131.833 580.801 133.395 580.801ZM140.341 590H142.041V583.77C142.041 581.924 143.105 580.791 144.785 580.791C146.464 580.791 147.246 581.699 147.246 583.594V590H148.945V583.184C148.945 580.684 147.627 579.287 145.263 579.287C143.711 579.287 142.724 579.941 142.197 581.055H142.041V579.473H140.341V590ZM156.028 590.186C158.557 590.186 159.973 588.828 160.403 586.924L160.422 586.816L158.743 586.826L158.723 586.885C158.332 588.057 157.434 588.682 156.018 588.682C154.143 588.682 152.932 587.129 152.932 584.707V584.688C152.932 582.314 154.123 580.791 156.018 580.791C157.532 580.791 158.469 581.631 158.733 582.666L158.743 582.695H160.432L160.422 582.637C160.11 580.762 158.577 579.287 156.018 579.287C153.069 579.287 151.194 581.416 151.194 584.688V584.707C151.194 588.047 153.079 590.186 156.028 590.186ZM166.909 590.186C169.39 590.186 170.894 588.779 171.255 587.354L171.275 587.275H169.575L169.536 587.363C169.253 587.998 168.374 588.672 166.948 588.672C165.073 588.672 163.872 587.402 163.823 585.225H171.402V584.561C171.402 581.416 169.663 579.287 166.802 579.287C163.941 579.287 162.085 581.514 162.085 584.766V584.775C162.085 588.076 163.902 590.186 166.909 590.186ZM166.792 580.801C168.345 580.801 169.497 581.787 169.673 583.867H163.853C164.038 581.865 165.23 580.801 166.792 580.801ZM184.298 590.186C186.964 590.186 188.712 588.027 188.712 584.746V584.727C188.712 581.426 186.973 579.287 184.298 579.287C182.852 579.287 181.593 580.01 181.016 581.133H180.86V575.293H179.161V590H180.86V588.32H181.016C181.661 589.492 182.833 590.186 184.298 590.186ZM183.907 588.682C181.993 588.682 180.821 587.178 180.821 584.746V584.727C180.821 582.295 181.993 580.791 183.907 580.791C185.831 580.791 186.973 582.275 186.973 584.727V584.746C186.973 587.197 185.831 588.682 183.907 588.682ZM191.556 593.691C193.421 593.691 194.291 593.008 195.16 590.645L199.271 579.473H197.484L194.603 588.135H194.447L191.556 579.473H189.74L193.636 590.01L193.441 590.635C193.06 591.846 192.474 592.285 191.507 592.285C191.273 592.285 191.009 592.275 190.804 592.236V593.633C191.039 593.672 191.332 593.691 191.556 593.691ZM209.433 590.186C210.849 590.186 211.952 589.57 212.616 588.447H212.773V590H214.472V582.793C214.472 580.605 213.036 579.287 210.468 579.287C208.222 579.287 206.62 580.4 206.347 582.051L206.337 582.109H208.036L208.046 582.08C208.32 581.26 209.15 580.791 210.409 580.791C211.982 580.791 212.773 581.494 212.773 582.793V583.75L209.755 583.936C207.304 584.082 205.917 585.166 205.917 587.041V587.061C205.917 588.975 207.431 590.186 209.433 590.186ZM207.655 587.021V587.002C207.655 585.957 208.359 585.391 209.96 585.293L212.773 585.117V586.074C212.773 587.578 211.513 588.711 209.784 588.711C208.564 588.711 207.655 588.086 207.655 587.021ZM221.164 590.186C222.629 590.186 223.801 589.492 224.445 588.32H224.602V590H226.301V575.293H224.602V581.133H224.445C223.869 580.01 222.609 579.287 221.164 579.287C218.488 579.287 216.75 581.426 216.75 584.727V584.746C216.75 588.027 218.498 590.186 221.164 590.186ZM221.555 588.682C219.631 588.682 218.488 587.197 218.488 584.746V584.727C218.488 582.275 219.631 580.791 221.555 580.791C223.469 580.791 224.641 582.295 224.641 584.727V584.746C224.641 587.178 223.469 588.682 221.555 588.682ZM233.149 590.186C234.614 590.186 235.786 589.492 236.43 588.32H236.587V590H238.286V575.293H236.587V581.133H236.43C235.854 580.01 234.595 579.287 233.149 579.287C230.473 579.287 228.735 581.426 228.735 584.727V584.746C228.735 588.027 230.483 590.186 233.149 590.186ZM233.54 588.682C231.616 588.682 230.473 587.197 230.473 584.746V584.727C230.473 582.275 231.616 580.791 233.54 580.791C235.454 580.791 236.626 582.295 236.626 584.727V584.746C236.626 587.178 235.454 588.682 233.54 588.682ZM242.146 577.441C242.791 577.441 243.318 576.914 243.318 576.27C243.318 575.625 242.791 575.098 242.146 575.098C241.502 575.098 240.974 575.625 240.974 576.27C240.974 576.914 241.502 577.441 242.146 577.441ZM241.287 590H242.986V579.473H241.287V590ZM245.889 590H247.588V583.77C247.588 581.924 248.653 580.791 250.332 580.791C252.012 580.791 252.793 581.699 252.793 583.594V590H254.493V583.184C254.493 580.684 253.174 579.287 250.811 579.287C249.258 579.287 248.272 579.941 247.745 581.055H247.588V579.473H245.889V590ZM261.605 593.711C264.476 593.711 266.292 592.207 266.292 589.854V579.473H264.593V581.211H264.476C263.831 580.02 262.679 579.287 261.195 579.287C258.441 579.287 256.741 581.426 256.741 584.375V584.395C256.741 587.344 258.431 589.453 261.155 589.453C262.601 589.453 263.792 588.799 264.456 587.637H264.613V589.766C264.613 591.318 263.489 592.207 261.605 592.207C260.091 592.207 259.154 591.641 258.968 590.84L258.958 590.83H257.2L257.181 590.84C257.445 592.568 259.066 593.711 261.605 593.711ZM261.527 587.949C259.573 587.949 258.48 586.484 258.48 584.395V584.375C258.48 582.285 259.573 580.791 261.527 580.791C263.47 580.791 264.652 582.285 264.652 584.375V584.395C264.652 586.484 263.48 587.949 261.527 587.949ZM275.38 593.691C277.245 593.691 278.114 593.008 278.983 590.645L283.095 579.473H281.307L278.427 588.135H278.27L275.38 579.473H273.563L277.46 590.01L277.264 590.635C276.884 591.846 276.298 592.285 275.331 592.285C275.096 592.285 274.833 592.275 274.628 592.236V593.633C274.862 593.672 275.155 593.691 275.38 593.691ZM288.976 590.186C291.974 590.186 293.83 588.115 293.83 584.746V584.727C293.83 581.348 291.974 579.287 288.976 579.287C285.978 579.287 284.123 581.348 284.123 584.727V584.746C284.123 588.115 285.978 590.186 288.976 590.186ZM288.976 588.682C286.984 588.682 285.861 587.227 285.861 584.746V584.727C285.861 582.236 286.984 580.791 288.976 580.791C290.968 580.791 292.091 582.236 292.091 584.727V584.746C292.091 587.227 290.968 588.682 288.976 588.682ZM299.692 590.186C301.235 590.186 302.299 589.551 302.817 588.428H302.973V590H304.672V579.473H302.973V585.703C302.973 587.549 301.987 588.682 300.131 588.682C298.452 588.682 297.768 587.773 297.768 585.879V579.473H296.069V586.289C296.069 588.779 297.299 590.186 299.692 590.186ZM307.546 590H309.245V583.477C309.245 581.934 310.398 580.908 312.019 580.908C312.39 580.908 312.712 580.947 313.064 581.006V579.355C312.898 579.326 312.536 579.287 312.214 579.287C310.788 579.287 309.802 579.932 309.402 581.035H309.245V579.473H307.546V590ZM133.161 614.186C135.554 614.186 137.38 612.887 137.38 611.012V610.992C137.38 609.488 136.423 608.629 134.44 608.15L132.819 607.76C131.579 607.457 131.052 607.008 131.052 606.295V606.275C131.052 605.348 131.97 604.703 133.22 604.703C134.489 604.703 135.309 605.279 135.534 606.109H137.204C136.97 604.391 135.436 603.287 133.229 603.287C130.993 603.287 129.313 604.605 129.313 606.354V606.363C129.313 607.877 130.202 608.736 132.175 609.205L133.805 609.596C135.104 609.908 135.641 610.406 135.641 611.119V611.139C135.641 612.096 134.636 612.77 133.22 612.77C131.872 612.77 131.032 612.193 130.749 611.314H129.011C129.206 613.053 130.817 614.186 133.161 614.186ZM143.242 614.186C144.785 614.186 145.849 613.551 146.367 612.428H146.523V614H148.222V603.473H146.523V609.703C146.523 611.549 145.537 612.682 143.681 612.682C142.002 612.682 141.318 611.773 141.318 609.879V603.473H139.619V610.289C139.619 612.779 140.849 614.186 143.242 614.186ZM156.33 614.186C158.996 614.186 160.745 612.027 160.745 608.746V608.727C160.745 605.426 159.006 603.287 156.33 603.287C154.885 603.287 153.625 604.01 153.049 605.133H152.893V599.293H151.194V614H152.893V612.32H153.049C153.694 613.492 154.866 614.186 156.33 614.186ZM155.94 612.682C154.026 612.682 152.854 611.178 152.854 608.746V608.727C152.854 606.295 154.026 604.791 155.94 604.791C157.864 604.791 159.006 606.275 159.006 608.727V608.746C159.006 611.197 157.864 612.682 155.94 612.682ZM166.695 614.186C169.087 614.186 170.913 612.887 170.913 611.012V610.992C170.913 609.488 169.956 608.629 167.974 608.15L166.353 607.76C165.112 607.457 164.585 607.008 164.585 606.295V606.275C164.585 605.348 165.503 604.703 166.753 604.703C168.023 604.703 168.843 605.279 169.068 606.109H170.737C170.503 604.391 168.97 603.287 166.763 603.287C164.527 603.287 162.847 604.605 162.847 606.354V606.363C162.847 607.877 163.736 608.736 165.708 609.205L167.339 609.596C168.638 609.908 169.175 610.406 169.175 611.119V611.139C169.175 612.096 168.169 612.77 166.753 612.77C165.405 612.77 164.566 612.193 164.282 611.314H162.544C162.739 613.053 164.351 614.186 166.695 614.186ZM177.557 614.186C180.086 614.186 181.502 612.828 181.932 610.924L181.951 610.816L180.271 610.826L180.252 610.885C179.861 612.057 178.963 612.682 177.547 612.682C175.672 612.682 174.461 611.129 174.461 608.707V608.688C174.461 606.314 175.652 604.791 177.547 604.791C179.061 604.791 179.998 605.631 180.262 606.666L180.271 606.695H181.961L181.951 606.637C181.639 604.762 180.105 603.287 177.547 603.287C174.598 603.287 172.723 605.416 172.723 608.688V608.707C172.723 612.047 174.607 614.186 177.557 614.186ZM184.141 614H185.841V607.477C185.841 605.934 186.993 604.908 188.614 604.908C188.985 604.908 189.307 604.947 189.659 605.006V603.355C189.493 603.326 189.132 603.287 188.809 603.287C187.384 603.287 186.397 603.932 185.997 605.035H185.841V603.473H184.141V614ZM192.357 601.441C193.002 601.441 193.529 600.914 193.529 600.27C193.529 599.625 193.002 599.098 192.357 599.098C191.712 599.098 191.185 599.625 191.185 600.27C191.185 600.914 191.712 601.441 192.357 601.441ZM191.498 614H193.197V603.473H191.498V614ZM196.1 617.516H197.799V612.34H197.955C198.532 613.463 199.791 614.186 201.237 614.186C203.913 614.186 205.651 612.047 205.651 608.746V608.727C205.651 605.445 203.903 603.287 201.237 603.287C199.772 603.287 198.6 603.98 197.955 605.152H197.799V603.473H196.1V617.516ZM200.846 612.682C198.932 612.682 197.76 611.178 197.76 608.746V608.727C197.76 606.295 198.932 604.791 200.846 604.791C202.77 604.791 203.913 606.275 203.913 608.727V608.746C203.913 611.197 202.77 612.682 200.846 612.682ZM211.747 614.078C212.079 614.078 212.402 614.039 212.734 613.98V612.535C212.421 612.564 212.255 612.574 211.952 612.574C210.859 612.574 210.429 612.076 210.429 610.836V604.879H212.734V603.473H210.429V600.748H208.671V603.473H207.011V604.879H208.671V611.266C208.671 613.277 209.579 614.078 211.747 614.078ZM215.871 601.441C216.516 601.441 217.043 600.914 217.043 600.27C217.043 599.625 216.516 599.098 215.871 599.098C215.227 599.098 214.699 599.625 214.699 600.27C214.699 600.914 215.227 601.441 215.871 601.441ZM215.012 614H216.711V603.473H215.012V614ZM223.94 614.186C226.938 614.186 228.794 612.115 228.794 608.746V608.727C228.794 605.348 226.938 603.287 223.94 603.287C220.942 603.287 219.087 605.348 219.087 608.727V608.746C219.087 612.115 220.942 614.186 223.94 614.186ZM223.94 612.682C221.948 612.682 220.825 611.227 220.825 608.746V608.727C220.825 606.236 221.948 604.791 223.94 604.791C225.932 604.791 227.055 606.236 227.055 608.727V608.746C227.055 611.227 225.932 612.682 223.94 612.682ZM231.13 614H232.83V607.77C232.83 605.924 233.894 604.791 235.574 604.791C237.254 604.791 238.035 605.699 238.035 607.594V614H239.734V607.184C239.734 604.684 238.416 603.287 236.052 603.287C234.5 603.287 233.513 603.941 232.986 605.055H232.83V603.473H231.13V614ZM246.123 614.186C248.516 614.186 250.342 612.887 250.342 611.012V610.992C250.342 609.488 249.385 608.629 247.403 608.15L245.782 607.76C244.541 607.457 244.014 607.008 244.014 606.295V606.275C244.014 605.348 244.932 604.703 246.182 604.703C247.452 604.703 248.272 605.279 248.496 606.109H250.166C249.932 604.391 248.399 603.287 246.192 603.287C243.955 603.287 242.276 604.605 242.276 606.354V606.363C242.276 607.877 243.164 608.736 245.137 609.205L246.768 609.596C248.067 609.908 248.604 610.406 248.604 611.119V611.139C248.604 612.096 247.598 612.77 246.182 612.77C244.834 612.77 243.995 612.193 243.711 611.314H241.973C242.168 613.053 243.78 614.186 246.123 614.186ZM254.066 614.098C254.769 614.098 255.335 613.521 255.335 612.828C255.335 612.125 254.769 611.559 254.066 611.559C253.372 611.559 252.796 612.125 252.796 612.828C252.796 613.521 253.372 614.098 254.066 614.098Z" fill="black"/>
<rect x="29" y="163" width="316" height="364" fill="#C4C4C4"/>
<line y1="-0.5" x2="482.029" y2="-0.5" transform="matrix(-0.655562 0.755141 -0.774066 -0.633105 345 163)" stroke="black"/>
<line y1="-0.5" x2="482.029" y2="-0.5" transform="matrix(0.655562 0.755141 -0.774066 0.633105 29 163)" stroke="black"/>
<circle cx="165.5" cy="675.5" r="7.5" fill="black"/>
<circle cx="210.5" cy="675.5" r="7.5" fill="black" fill-opacity="0.25"/>
<path d="M65 734C65 726.268 71.268 720 79 720H296C303.732 720 310 726.268 310 734V746C310 753.732 303.732 760 296 760H79C71.268 760 65 753.732 65 746V734Z" fill="#C4C4C4"/>
<path d="M65 734C65 726.268 71.268 720 79 720H296C303.732 720 310 726.268 310 734V746C310 753.732 303.732 760 296 760H79C71.268 760 65 753.732 65 746V734Z" stroke="black"/>
<path d="M145.582 748.398C149.18 748.398 151.852 746.395 152.414 743.301V743.277H150.281L150.258 743.301C149.73 745.246 147.938 746.453 145.582 746.453C142.324 746.453 140.285 743.793 140.285 739.562V739.539C140.285 735.309 142.324 732.637 145.57 732.637C147.902 732.637 149.707 734.008 150.27 736.176L150.281 736.199H152.402L152.414 736.176C151.91 732.93 149.133 730.691 145.57 730.691C140.977 730.691 138.117 734.09 138.117 739.539V739.562C138.117 745 140.988 748.398 145.582 748.398ZM160.887 748.223C164.484 748.223 166.711 745.738 166.711 741.695V741.672C166.711 737.617 164.484 735.145 160.887 735.145C157.289 735.145 155.062 737.617 155.062 741.672V741.695C155.062 745.738 157.289 748.223 160.887 748.223ZM160.887 746.418C158.496 746.418 157.148 744.672 157.148 741.695V741.672C157.148 738.684 158.496 736.949 160.887 736.949C163.277 736.949 164.625 738.684 164.625 741.672V741.695C164.625 744.672 163.277 746.418 160.887 746.418ZM169.875 748H171.914V740.523C171.914 738.309 173.191 736.949 175.207 736.949C177.223 736.949 178.16 738.039 178.16 740.312V748H180.199V739.82C180.199 736.82 178.617 735.145 175.781 735.145C173.918 735.145 172.734 735.93 172.102 737.266H171.914V735.367H169.875V748ZM188.379 748.094C188.777 748.094 189.164 748.047 189.562 747.977V746.242C189.188 746.277 188.988 746.289 188.625 746.289C187.312 746.289 186.797 745.691 186.797 744.203V737.055H189.562V735.367H186.797V732.098H184.688V735.367H182.695V737.055H184.688V744.719C184.688 747.133 185.777 748.094 188.379 748.094ZM193.688 732.93C194.461 732.93 195.094 732.297 195.094 731.523C195.094 730.75 194.461 730.117 193.688 730.117C192.914 730.117 192.281 730.75 192.281 731.523C192.281 732.297 192.914 732.93 193.688 732.93ZM192.656 748H194.695V735.367H192.656V748ZM198.539 748H200.578V740.523C200.578 738.309 201.855 736.949 203.871 736.949C205.887 736.949 206.824 738.039 206.824 740.312V748H208.863V739.82C208.863 736.82 207.281 735.145 204.445 735.145C202.582 735.145 201.398 735.93 200.766 737.266H200.578V735.367H198.539V748ZM216.785 748.223C218.637 748.223 219.914 747.461 220.535 746.113H220.723V748H222.762V735.367H220.723V742.844C220.723 745.059 219.539 746.418 217.312 746.418C215.297 746.418 214.477 745.328 214.477 743.055V735.367H212.438V743.547C212.438 746.535 213.914 748.223 216.785 748.223ZM231.727 748.223C234.703 748.223 236.508 746.535 236.941 744.824L236.965 744.73H234.926L234.879 744.836C234.539 745.598 233.484 746.406 231.773 746.406C229.523 746.406 228.082 744.883 228.023 742.27H237.117V741.473C237.117 737.699 235.031 735.145 231.598 735.145C228.164 735.145 225.938 737.816 225.938 741.719V741.73C225.938 745.691 228.117 748.223 231.727 748.223ZM231.586 736.961C233.449 736.961 234.832 738.145 235.043 740.641H228.059C228.281 738.238 229.711 736.961 231.586 736.961Z" fill="black"/>
<rect y="44" width="375" height="40" fill="#C4C4C4"/>
<path d="M161.442 70.0086H169.528V71.8485H159.18V54.786H161.442V70.0086ZM184.146 63.868C184.146 65.5399 183.865 67.0008 183.302 68.2508C182.74 69.493 181.943 70.4422 180.912 71.0985C179.88 71.7547 178.677 72.0829 177.302 72.0829C175.959 72.0829 174.767 71.7547 173.728 71.0985C172.689 70.4344 171.88 69.493 171.302 68.2743C170.732 67.0477 170.439 65.6297 170.423 64.0204V62.7899C170.423 61.1493 170.709 59.7 171.279 58.4422C171.849 57.1844 172.654 56.2235 173.693 55.5594C174.74 54.8875 175.935 54.5516 177.279 54.5516C178.646 54.5516 179.849 54.8836 180.888 55.5477C181.935 56.2039 182.74 57.161 183.302 58.4188C183.865 59.6688 184.146 61.1258 184.146 62.7899V63.868ZM181.908 62.7664C181.908 60.743 181.502 59.1922 180.689 58.1141C179.877 57.0282 178.74 56.4852 177.279 56.4852C175.857 56.4852 174.736 57.0282 173.916 58.1141C173.103 59.1922 172.685 60.6922 172.662 62.6141V63.868C172.662 65.8289 173.072 67.3719 173.892 68.4969C174.72 69.6141 175.857 70.1727 177.302 70.1727C178.755 70.1727 179.88 69.6454 180.677 68.5907C181.474 67.5282 181.884 66.0086 181.908 64.0321V62.7664ZM199.819 69.6102C199.241 70.4383 198.432 71.0594 197.393 71.4735C196.362 71.8797 195.159 72.0829 193.784 72.0829C192.393 72.0829 191.159 71.7586 190.08 71.1102C189.002 70.4539 188.166 69.5243 187.573 68.3211C186.987 67.118 186.686 65.7235 186.67 64.1375V62.6493C186.67 60.0789 187.268 58.0868 188.463 56.6727C189.666 55.2586 191.354 54.5516 193.526 54.5516C195.307 54.5516 196.741 55.0086 197.827 55.9227C198.912 56.8289 199.577 58.118 199.819 59.7899H197.569C197.147 57.5321 195.803 56.4032 193.537 56.4032C192.03 56.4032 190.885 56.9344 190.104 57.9969C189.33 59.0516 188.94 60.5829 188.932 62.5907V63.9852C188.932 65.8993 189.37 67.4227 190.245 68.5555C191.12 69.6805 192.303 70.243 193.795 70.243C194.639 70.243 195.377 70.1493 196.01 69.9618C196.643 69.7743 197.166 69.4579 197.58 69.0125V65.1805H193.631V63.3524H199.819V69.6102ZM216.405 63.868C216.405 65.5399 216.124 67.0008 215.562 68.2508C214.999 69.493 214.202 70.4422 213.171 71.0985C212.14 71.7547 210.937 72.0829 209.562 72.0829C208.218 72.0829 207.027 71.7547 205.987 71.0985C204.948 70.4344 204.14 69.493 203.562 68.2743C202.991 67.0477 202.698 65.6297 202.683 64.0204V62.7899C202.683 61.1493 202.968 59.7 203.538 58.4422C204.109 57.1844 204.913 56.2235 205.952 55.5594C206.999 54.8875 208.195 54.5516 209.538 54.5516C210.905 54.5516 212.109 54.8836 213.148 55.5477C214.195 56.2039 214.999 57.161 215.562 58.4188C216.124 59.6688 216.405 61.1258 216.405 62.7899V63.868ZM214.167 62.7664C214.167 60.743 213.761 59.1922 212.948 58.1141C212.136 57.0282 210.999 56.4852 209.538 56.4852C208.116 56.4852 206.995 57.0282 206.175 58.1141C205.362 59.1922 204.945 60.6922 204.921 62.6141V63.868C204.921 65.8289 205.331 67.3719 206.152 68.4969C206.98 69.6141 208.116 70.1727 209.562 70.1727C211.015 70.1727 212.14 69.6454 212.937 68.5907C213.734 67.5282 214.144 66.0086 214.167 64.0321V62.7664Z" fill="black"/>
<path fill-rule="evenodd" clip-rule="evenodd" d="M341.078 104.509L352.635 115.651C353.122 116.121 353.122 116.878 352.635 117.349L341.078 128.491C340.375 129.17 339.231 129.17 338.527 128.491C337.824 127.812 337.824 126.711 338.527 126.033L348.413 116.499L338.527 106.969C337.824 106.289 337.824 105.188 338.527 104.509C339.231 103.83 340.375 103.83 341.078 104.509Z" fill="black"/>
<path d="M301.72 118.563C300.594 118.24 299.774 117.843 299.259 117.374C298.748 116.9 298.493 116.317 298.493 115.624C298.493 114.84 298.805 114.193 299.43 113.683C300.059 113.168 300.874 112.91 301.877 112.91C302.561 112.91 303.169 113.042 303.702 113.307C304.24 113.571 304.655 113.936 304.946 114.4C305.243 114.865 305.391 115.373 305.391 115.925H304.071C304.071 115.323 303.88 114.852 303.497 114.51C303.114 114.163 302.574 113.99 301.877 113.99C301.23 113.99 300.724 114.134 300.359 114.421C299.999 114.703 299.819 115.098 299.819 115.604C299.819 116.009 299.99 116.353 300.332 116.636C300.678 116.914 301.264 117.169 302.089 117.401C302.918 117.634 303.565 117.891 304.03 118.174C304.5 118.452 304.846 118.778 305.069 119.151C305.297 119.525 305.411 119.965 305.411 120.471C305.411 121.277 305.097 121.924 304.468 122.412C303.839 122.895 302.998 123.137 301.945 123.137C301.262 123.137 300.624 123.007 300.031 122.747C299.439 122.483 298.981 122.123 298.657 121.667C298.338 121.211 298.179 120.694 298.179 120.115H299.498C299.498 120.717 299.719 121.193 300.161 121.544C300.608 121.89 301.202 122.063 301.945 122.063C302.638 122.063 303.169 121.922 303.538 121.64C303.907 121.357 304.092 120.972 304.092 120.484C304.092 119.997 303.921 119.621 303.579 119.356C303.237 119.088 302.618 118.823 301.72 118.563ZM309.629 118.372L308.412 119.637V123H307.1V113.047H308.412V117.969L312.835 113.047H314.421L310.504 117.442L314.729 123H313.156L309.629 118.372ZM317.285 123H315.973V113.047H317.285V123ZM321.004 119.104V123H319.691V113.047H323.362C324.451 113.047 325.304 113.325 325.919 113.881C326.539 114.437 326.849 115.173 326.849 116.089C326.849 117.055 326.546 117.8 325.939 118.324C325.338 118.844 324.474 119.104 323.349 119.104H321.004ZM321.004 118.03H323.362C324.064 118.03 324.602 117.866 324.976 117.538C325.349 117.205 325.536 116.727 325.536 116.103C325.536 115.51 325.349 115.036 324.976 114.681C324.602 114.325 324.089 114.141 323.438 114.127H321.004V118.03Z" fill="black"/>
</g>
<defs>
<clipPath id="clip0_5_3">
<rect width="375" height="812" fill="white"/>
</clipPath>
<clipPath id="clip1_5_3">
<rect width="375" height="812" fill="white"/>
</clipPath>
</defs>
</svg>
