<svg width="377" height="814" viewBox="0 0 377 814" fill="none" xmlns="http://www.w3.org/2000/svg">
<g clip-path="url(#clip0_1_67)">
<rect x="1" y="1" width="375" height="812" fill="white"/>
<g clip-path="url(#clip1_1_67)">
<rect width="375" height="812" transform="translate(1 1)" fill="white"/>
<path d="M38.2146 18.1675C35.9222 18.1675 34.2889 19.7349 34.2889 21.8809V21.8955C34.2889 23.9023 35.7098 25.3818 37.7386 25.3818C39.1888 25.3818 40.1116 24.6421 40.4998 23.8071H40.6463C40.6463 23.8877 40.639 23.9683 40.639 24.0488C40.5584 26.0703 39.8479 27.7109 38.1707 27.7109C37.2405 27.7109 36.5887 27.2275 36.3104 26.4878L36.2884 26.4146H34.428L34.4427 26.4951C34.7796 28.1138 36.2298 29.2637 38.1707 29.2637C40.8294 29.2637 42.4334 27.1543 42.4334 23.5947V23.5801C42.4334 19.7715 40.4705 18.1675 38.2146 18.1675ZM38.2073 23.9316C37.0062 23.9316 36.1346 23.0527 36.1346 21.8296V21.8149C36.1346 20.6357 37.0647 19.7056 38.2293 19.7056C39.4012 19.7056 40.3167 20.6504 40.3167 21.8589V21.8735C40.3167 23.0674 39.4012 23.9316 38.2073 23.9316ZM45.4586 22.1519C46.1324 22.1519 46.6231 21.6392 46.6231 20.9946C46.6231 20.3428 46.1324 19.8374 45.4586 19.8374C44.7921 19.8374 44.294 20.3428 44.294 20.9946C44.294 21.6392 44.7921 22.1519 45.4586 22.1519ZM45.4586 27.5864C46.1324 27.5864 46.6231 27.0811 46.6231 26.4292C46.6231 25.7773 46.1324 25.272 45.4586 25.272C44.7921 25.272 44.294 25.7773 44.294 26.4292C44.294 27.0811 44.7921 27.5864 45.4586 27.5864ZM53.6107 29H55.4198V26.9712H56.8407V25.4111H55.4198V18.4312H52.7465C51.3109 20.6138 49.8095 23.0454 48.4398 25.4258V26.9712H53.6107V29ZM50.1977 25.4551V25.3452C51.223 23.5508 52.4462 21.5952 53.5302 19.9399H53.64V25.4551H50.1977ZM60.9206 29H62.8103V18.4312H60.9279L58.1667 20.3721V22.1519L60.7961 20.2915H60.9206V29Z" fill="black"/>
<rect opacity="0.35" x="337.833" y="18.8333" width="21" height="10.3333" rx="2.16667" stroke="black"/>
<path opacity="0.4" d="M360.333 22V26C361.138 25.6612 361.661 24.8731 361.661 24C361.661 23.1269 361.138 22.3388 360.333 22Z" fill="black"/>
<rect x="339.333" y="20.3333" width="18" height="7.33333" rx="1.33333" fill="black"/>
<path fill-rule="evenodd" clip-rule="evenodd" d="M324.667 20.6152C326.892 20.6153 329.031 21.4694 330.644 23.001C330.765 23.1192 330.959 23.1177 331.079 22.9976L332.239 21.8273C332.3 21.7664 332.334 21.6839 332.333 21.598C332.333 21.5122 332.298 21.4301 332.237 21.3699C328.005 17.3176 321.329 17.3176 317.097 21.3699C317.035 21.43 317.001 21.5121 317 21.598C316.999 21.6838 317.033 21.7663 317.094 21.8273L318.255 22.9976C318.374 23.1179 318.568 23.1194 318.69 23.001C320.302 21.4693 322.442 20.6152 324.667 20.6152ZM324.667 24.4227C325.889 24.4227 327.068 24.8766 327.974 25.6964C328.097 25.8127 328.29 25.8102 328.409 25.6907L329.569 24.5204C329.63 24.459 329.663 24.3757 329.663 24.2892C329.662 24.2027 329.626 24.1201 329.564 24.0599C326.805 21.4955 322.532 21.4955 319.773 24.0599C319.71 24.1201 319.675 24.2027 319.674 24.2893C319.673 24.3758 319.707 24.4591 319.768 24.5204L320.927 25.6907C321.047 25.8102 321.24 25.8127 321.362 25.6964C322.268 24.8772 323.446 24.4233 324.667 24.4227ZM326.989 26.9846C326.991 27.0714 326.957 27.155 326.895 27.2158L324.89 29.2378C324.831 29.2972 324.751 29.3307 324.667 29.3307C324.583 29.3307 324.503 29.2972 324.445 29.2378L322.439 27.2158C322.377 27.155 322.343 27.0713 322.345 26.9845C322.347 26.8977 322.384 26.8156 322.449 26.7574C323.729 25.6751 325.605 25.6751 326.886 26.7574C326.95 26.8156 326.988 26.8978 326.989 26.9846Z" fill="black"/>
<path fill-rule="evenodd" clip-rule="evenodd" d="M311 18.6667H310C309.448 18.6667 309 19.1144 309 19.6667V28.3333C309 28.8856 309.448 29.3333 310 29.3333H311C311.552 29.3333 312 28.8856 312 28.3333V19.6667C312 19.1144 311.552 18.6667 311 18.6667ZM305.333 21H306.333C306.886 21 307.333 21.4477 307.333 22V28.3333C307.333 28.8856 306.886 29.3333 306.333 29.3333H305.333C304.781 29.3333 304.333 28.8856 304.333 28.3333V22C304.333 21.4477 304.781 21 305.333 21ZM301.667 23.3333H300.667C300.114 23.3333 299.667 23.781 299.667 24.3333V28.3333C299.667 28.8856 300.114 29.3333 300.667 29.3333H301.667C302.219 29.3333 302.667 28.8856 302.667 28.3333V24.3333C302.667 23.781 302.219 23.3333 301.667 23.3333ZM297 25.3333H296C295.448 25.3333 295 25.781 295 26.3333V28.3333C295 28.8856 295.448 29.3333 296 29.3333H297C297.552 29.3333 298 28.8856 298 28.3333V26.3333C298 25.781 297.552 25.3333 297 25.3333Z" fill="black"/>
<rect x="122" y="800" width="134" height="5" rx="2.5" fill="black"/>
</g>
<path d="M66 735C66 727.268 72.268 721 80 721H297C304.732 721 311 727.268 311 735V747C311 754.732 304.732 761 297 761H80C72.268 761 66 754.732 66 747V735Z" fill="#C4C4C4"/>
<path d="M66 735C66 727.268 72.268 721 80 721H297C304.732 721 311 727.268 311 735V747C311 754.732 304.732 761 297 761H80C72.268 761 66 754.732 66 747V735Z" stroke="black"/>
<path d="M146.582 749.398C150.18 749.398 152.852 747.395 153.414 744.301V744.277H151.281L151.258 744.301C150.73 746.246 148.938 747.453 146.582 747.453C143.324 747.453 141.285 744.793 141.285 740.562V740.539C141.285 736.309 143.324 733.637 146.57 733.637C148.902 733.637 150.707 735.008 151.27 737.176L151.281 737.199H153.402L153.414 737.176C152.91 733.93 150.133 731.691 146.57 731.691C141.977 731.691 139.117 735.09 139.117 740.539V740.562C139.117 746 141.988 749.398 146.582 749.398ZM161.887 749.223C165.484 749.223 167.711 746.738 167.711 742.695V742.672C167.711 738.617 165.484 736.145 161.887 736.145C158.289 736.145 156.062 738.617 156.062 742.672V742.695C156.062 746.738 158.289 749.223 161.887 749.223ZM161.887 747.418C159.496 747.418 158.148 745.672 158.148 742.695V742.672C158.148 739.684 159.496 737.949 161.887 737.949C164.277 737.949 165.625 739.684 165.625 742.672V742.695C165.625 745.672 164.277 747.418 161.887 747.418ZM170.875 749H172.914V741.523C172.914 739.309 174.191 737.949 176.207 737.949C178.223 737.949 179.16 739.039 179.16 741.312V749H181.199V740.82C181.199 737.82 179.617 736.145 176.781 736.145C174.918 736.145 173.734 736.93 173.102 738.266H172.914V736.367H170.875V749ZM189.379 749.094C189.777 749.094 190.164 749.047 190.562 748.977V747.242C190.188 747.277 189.988 747.289 189.625 747.289C188.312 747.289 187.797 746.691 187.797 745.203V738.055H190.562V736.367H187.797V733.098H185.688V736.367H183.695V738.055H185.688V745.719C185.688 748.133 186.777 749.094 189.379 749.094ZM194.688 733.93C195.461 733.93 196.094 733.297 196.094 732.523C196.094 731.75 195.461 731.117 194.688 731.117C193.914 731.117 193.281 731.75 193.281 732.523C193.281 733.297 193.914 733.93 194.688 733.93ZM193.656 749H195.695V736.367H193.656V749ZM199.539 749H201.578V741.523C201.578 739.309 202.855 737.949 204.871 737.949C206.887 737.949 207.824 739.039 207.824 741.312V749H209.863V740.82C209.863 737.82 208.281 736.145 205.445 736.145C203.582 736.145 202.398 736.93 201.766 738.266H201.578V736.367H199.539V749ZM217.785 749.223C219.637 749.223 220.914 748.461 221.535 747.113H221.723V749H223.762V736.367H221.723V743.844C221.723 746.059 220.539 747.418 218.312 747.418C216.297 747.418 215.477 746.328 215.477 744.055V736.367H213.438V744.547C213.438 747.535 214.914 749.223 217.785 749.223ZM232.727 749.223C235.703 749.223 237.508 747.535 237.941 745.824L237.965 745.73H235.926L235.879 745.836C235.539 746.598 234.484 747.406 232.773 747.406C230.523 747.406 229.082 745.883 229.023 743.27H238.117V742.473C238.117 738.699 236.031 736.145 232.598 736.145C229.164 736.145 226.938 738.816 226.938 742.719V742.73C226.938 746.691 229.117 749.223 232.727 749.223ZM232.586 737.961C234.449 737.961 235.832 739.145 236.043 741.641H229.059C229.281 739.238 230.711 737.961 232.586 737.961Z" fill="black"/>
<circle r="7.5" transform="matrix(-1 0 0 1 211.5 676.5)" fill="black"/>
<circle opacity="0.2" r="7.5" transform="matrix(-1 0 0 1 166.5 676.5)" fill="black"/>
<rect x="1" y="45" width="375" height="40" fill="#C4C4C4"/>
<path d="M170.493 71.0086V72.8485H161.962V71.0086H170.493ZM162.407 55.786V72.8485H160.145V55.786H162.407ZM185.146 63.7782V64.8563C185.146 66.1375 184.986 67.286 184.666 68.3016C184.345 69.3172 183.884 70.1805 183.283 70.8914C182.681 71.6024 181.959 72.1454 181.115 72.5204C180.279 72.8954 179.341 73.0829 178.302 73.0829C177.295 73.0829 176.369 72.8954 175.525 72.5204C174.689 72.1454 173.962 71.6024 173.345 70.8914C172.736 70.1805 172.263 69.3172 171.927 68.3016C171.591 67.286 171.423 66.1375 171.423 64.8563V63.7782C171.423 62.4969 171.587 61.3524 171.916 60.3446C172.252 59.3289 172.724 58.4657 173.334 57.7547C173.943 57.036 174.666 56.4891 175.502 56.1141C176.345 55.7391 177.271 55.5516 178.279 55.5516C179.318 55.5516 180.255 55.7391 181.091 56.1141C181.935 56.4891 182.658 57.036 183.259 57.7547C183.869 58.4657 184.334 59.3289 184.654 60.3446C184.982 61.3524 185.146 62.4969 185.146 63.7782ZM182.908 64.8563V63.7547C182.908 62.7391 182.802 61.8407 182.591 61.0594C182.388 60.2782 182.087 59.6219 181.689 59.0907C181.291 58.5594 180.802 58.1571 180.224 57.8836C179.654 57.6102 179.005 57.4735 178.279 57.4735C177.576 57.4735 176.939 57.6102 176.369 57.8836C175.806 58.1571 175.322 58.5594 174.916 59.0907C174.517 59.6219 174.209 60.2782 173.99 61.0594C173.771 61.8407 173.662 62.7391 173.662 63.7547V64.8563C173.662 65.8797 173.771 66.786 173.99 67.575C174.209 68.3563 174.521 69.0164 174.927 69.5555C175.341 70.0868 175.83 70.4891 176.392 70.7625C176.962 71.036 177.599 71.1727 178.302 71.1727C179.037 71.1727 179.689 71.036 180.259 70.7625C180.83 70.4891 181.31 70.0868 181.701 69.5555C182.099 69.0164 182.4 68.3563 182.603 67.575C182.806 66.786 182.908 65.8797 182.908 64.8563ZM200.842 64.3524V70.5985C200.631 70.911 200.295 71.2625 199.834 71.6532C199.373 72.036 198.737 72.3719 197.924 72.661C197.12 72.9422 196.08 73.0829 194.807 73.0829C193.768 73.0829 192.811 72.9032 191.936 72.5438C191.069 72.1766 190.315 71.6454 189.674 70.95C189.041 70.2469 188.549 69.3954 188.198 68.3954C187.854 67.3875 187.682 66.2469 187.682 64.9735V63.6493C187.682 62.3758 187.83 61.2391 188.127 60.2391C188.432 59.2391 188.877 58.3914 189.463 57.6961C190.049 56.993 190.768 56.4618 191.62 56.1024C192.471 55.7352 193.448 55.5516 194.549 55.5516C195.854 55.5516 196.944 55.7782 197.819 56.2313C198.702 56.6766 199.389 57.2938 199.881 58.0829C200.381 58.8719 200.702 59.7704 200.842 60.7782H198.58C198.479 60.161 198.276 59.5985 197.971 59.0907C197.674 58.5829 197.248 58.1766 196.694 57.8719C196.139 57.5594 195.424 57.4032 194.549 57.4032C193.76 57.4032 193.077 57.5477 192.498 57.8368C191.92 58.1258 191.444 58.5399 191.069 59.0789C190.694 59.618 190.412 60.2704 190.225 61.036C190.045 61.8016 189.955 62.6649 189.955 63.6258V64.9735C189.955 65.9579 190.069 66.8368 190.295 67.6102C190.53 68.3836 190.862 69.0438 191.291 69.5907C191.721 70.1297 192.233 70.5399 192.827 70.8211C193.428 71.1024 194.092 71.243 194.819 71.243C195.623 71.243 196.276 71.1766 196.776 71.0438C197.276 70.9032 197.666 70.7391 197.948 70.5516C198.229 70.3563 198.444 70.1727 198.592 70.0008V66.1805H194.643V64.3524H200.842ZM217.429 63.7782V64.8563C217.429 66.1375 217.269 67.286 216.948 68.3016C216.628 69.3172 216.167 70.1805 215.566 70.8914C214.964 71.6024 214.241 72.1454 213.398 72.5204C212.562 72.8954 211.624 73.0829 210.585 73.0829C209.577 73.0829 208.652 72.8954 207.808 72.5204C206.972 72.1454 206.245 71.6024 205.628 70.8914C205.019 70.1805 204.546 69.3172 204.21 68.3016C203.874 67.286 203.706 66.1375 203.706 64.8563V63.7782C203.706 62.4969 203.87 61.3524 204.198 60.3446C204.534 59.3289 205.007 58.4657 205.616 57.7547C206.226 57.036 206.948 56.4891 207.784 56.1141C208.628 55.7391 209.554 55.5516 210.562 55.5516C211.601 55.5516 212.538 55.7391 213.374 56.1141C214.218 56.4891 214.941 57.036 215.542 57.7547C216.152 58.4657 216.616 59.3289 216.937 60.3446C217.265 61.3524 217.429 62.4969 217.429 63.7782ZM215.191 64.8563V63.7547C215.191 62.7391 215.085 61.8407 214.874 61.0594C214.671 60.2782 214.37 59.6219 213.972 59.0907C213.573 58.5594 213.085 58.1571 212.507 57.8836C211.937 57.6102 211.288 57.4735 210.562 57.4735C209.859 57.4735 209.222 57.6102 208.652 57.8836C208.089 58.1571 207.605 58.5594 207.198 59.0907C206.8 59.6219 206.491 60.2782 206.273 61.0594C206.054 61.8407 205.945 62.7391 205.945 63.7547V64.8563C205.945 65.8797 206.054 66.786 206.273 67.575C206.491 68.3563 206.804 69.0164 207.21 69.5555C207.624 70.0868 208.112 70.4891 208.675 70.7625C209.245 71.036 209.882 71.1727 210.585 71.1727C211.32 71.1727 211.972 71.036 212.542 70.7625C213.112 70.4891 213.593 70.0868 213.984 69.5555C214.382 69.0164 214.683 68.3563 214.886 67.575C215.089 66.786 215.191 65.8797 215.191 64.8563Z" fill="black"/>
<path fill-rule="evenodd" clip-rule="evenodd" d="M342.078 105.509L353.635 116.651C354.122 117.121 354.122 117.878 353.635 118.349L342.078 129.491C341.375 130.17 340.231 130.17 339.527 129.491C338.824 128.812 338.824 127.711 339.527 127.033L349.413 117.499L339.527 107.969C338.824 107.289 338.824 106.188 339.527 105.509C340.231 104.83 341.375 104.83 342.078 105.509Z" fill="black"/>
<path d="M302.72 119.563C301.594 119.24 300.774 118.843 300.259 118.374C299.748 117.9 299.493 117.317 299.493 116.624C299.493 115.84 299.805 115.193 300.43 114.683C301.059 114.168 301.874 113.91 302.877 113.91C303.561 113.91 304.169 114.042 304.702 114.307C305.24 114.571 305.655 114.936 305.946 115.4C306.243 115.865 306.391 116.373 306.391 116.925H305.071C305.071 116.323 304.88 115.852 304.497 115.51C304.114 115.163 303.574 114.99 302.877 114.99C302.23 114.99 301.724 115.134 301.359 115.421C300.999 115.703 300.819 116.098 300.819 116.604C300.819 117.009 300.99 117.353 301.332 117.636C301.678 117.914 302.264 118.169 303.089 118.401C303.918 118.634 304.565 118.891 305.03 119.174C305.5 119.452 305.846 119.778 306.069 120.151C306.297 120.525 306.411 120.965 306.411 121.471C306.411 122.277 306.097 122.924 305.468 123.412C304.839 123.895 303.998 124.137 302.945 124.137C302.262 124.137 301.624 124.007 301.031 123.747C300.439 123.483 299.981 123.123 299.657 122.667C299.338 122.211 299.179 121.694 299.179 121.115H300.498C300.498 121.717 300.719 122.193 301.161 122.544C301.608 122.89 302.202 123.063 302.945 123.063C303.638 123.063 304.169 122.922 304.538 122.64C304.907 122.357 305.092 121.972 305.092 121.484C305.092 120.997 304.921 120.621 304.579 120.356C304.237 120.088 303.618 119.823 302.72 119.563ZM310.629 119.372L309.412 120.637V124H308.1V114.047H309.412V118.969L313.835 114.047H315.421L311.504 118.442L315.729 124H314.156L310.629 119.372ZM318.285 124H316.973V114.047H318.285V124ZM322.004 120.104V124H320.691V114.047H324.362C325.451 114.047 326.304 114.325 326.919 114.881C327.539 115.437 327.849 116.173 327.849 117.089C327.849 118.055 327.546 118.8 326.939 119.324C326.338 119.844 325.474 120.104 324.349 120.104H322.004ZM322.004 119.03H324.362C325.064 119.03 325.602 118.866 325.976 118.538C326.349 118.205 326.536 117.727 326.536 117.103C326.536 116.51 326.349 116.036 325.976 115.681C325.602 115.325 325.089 115.141 324.438 115.127H322.004V119.03Z" fill="black"/>
<path d="M66.759 567H68.4973V556.072H68.6535L76.3 567H78.009V552.908H76.2707V563.875H76.1145L68.468 552.908H66.759V567ZM85.4141 567.186C88.4121 567.186 90.2676 565.115 90.2676 561.746V561.727C90.2676 558.348 88.4121 556.287 85.4141 556.287C82.416 556.287 80.5606 558.348 80.5606 561.727V561.746C80.5606 565.115 82.416 567.186 85.4141 567.186ZM85.4141 565.682C83.4219 565.682 82.2988 564.227 82.2988 561.746V561.727C82.2988 559.236 83.4219 557.791 85.4141 557.791C87.4063 557.791 88.5293 559.236 88.5293 561.727V561.746C88.5293 564.227 87.4063 565.682 85.4141 565.682ZM96.3445 567.078C96.6766 567.078 96.9988 567.039 97.3309 566.98V565.535C97.0184 565.564 96.8523 565.574 96.5496 565.574C95.4559 565.574 95.0262 565.076 95.0262 563.836V557.879H97.3309V556.473H95.0262V553.748H93.2684V556.473H91.6082V557.879H93.2684V564.266C93.2684 566.277 94.1766 567.078 96.3445 567.078ZM108.508 567.186C110.901 567.186 112.727 565.887 112.727 564.012V563.992C112.727 562.488 111.77 561.629 109.788 561.15L108.166 560.76C106.926 560.457 106.399 560.008 106.399 559.295V559.275C106.399 558.348 107.317 557.703 108.567 557.703C109.836 557.703 110.657 558.279 110.881 559.109H112.551C112.317 557.391 110.784 556.287 108.577 556.287C106.34 556.287 104.661 557.605 104.661 559.354V559.363C104.661 560.877 105.549 561.736 107.522 562.205L109.153 562.596C110.452 562.908 110.989 563.406 110.989 564.119V564.139C110.989 565.096 109.983 565.77 108.567 565.77C107.219 565.77 106.379 565.193 106.096 564.314H104.358C104.553 566.053 106.164 567.186 108.508 567.186ZM118.589 567.186C120.132 567.186 121.196 566.551 121.714 565.428H121.87V567H123.57V556.473H121.87V562.703C121.87 564.549 120.884 565.682 119.029 565.682C117.349 565.682 116.665 564.773 116.665 562.879V556.473H114.966V563.289C114.966 565.779 116.196 567.186 118.589 567.186ZM126.443 567H128.143V560.477C128.143 558.934 129.295 557.908 130.916 557.908C131.287 557.908 131.609 557.947 131.961 558.006V556.355C131.795 556.326 131.434 556.287 131.111 556.287C129.686 556.287 128.699 556.932 128.299 558.035H128.143V556.473H126.443V567ZM137.764 567.186C140.245 567.186 141.749 565.779 142.11 564.354L142.13 564.275H140.43L140.391 564.363C140.108 564.998 139.229 565.672 137.804 565.672C135.929 565.672 134.727 564.402 134.679 562.225H142.257V561.561C142.257 558.416 140.518 556.287 137.657 556.287C134.796 556.287 132.94 558.514 132.94 561.766V561.775C132.94 565.076 134.757 567.186 137.764 567.186ZM137.647 557.801C139.2 557.801 140.352 558.787 140.528 560.867H134.708C134.893 558.865 136.085 557.801 137.647 557.801ZM151.95 567H153.649L155.993 558.855H156.149L158.502 567H160.211L163.161 556.473H161.471L159.401 564.891H159.245L156.891 556.473H155.28L152.926 564.891H152.77L150.7 556.473H149L151.95 567ZM165.204 567H166.904V560.77C166.904 558.924 167.968 557.791 169.648 557.791C171.327 557.791 172.109 558.699 172.109 560.594V567H173.808V560.184C173.808 557.684 172.489 556.287 170.126 556.287C168.573 556.287 167.587 556.941 167.06 558.055H166.904V552.293H165.204V567ZM177.482 554.441C178.127 554.441 178.654 553.914 178.654 553.27C178.654 552.625 178.127 552.098 177.482 552.098C176.838 552.098 176.311 552.625 176.311 553.27C176.311 553.914 176.838 554.441 177.482 554.441ZM176.623 567H178.322V556.473H176.623V567ZM185.532 567.186C188.061 567.186 189.477 565.828 189.907 563.924L189.927 563.816L188.247 563.826L188.227 563.885C187.837 565.057 186.938 565.682 185.522 565.682C183.647 565.682 182.436 564.129 182.436 561.707V561.688C182.436 559.314 183.628 557.791 185.522 557.791C187.036 557.791 187.973 558.631 188.237 559.666L188.247 559.695H189.936L189.927 559.637C189.614 557.762 188.081 556.287 185.522 556.287C182.573 556.287 180.698 558.416 180.698 561.688V561.707C180.698 565.047 182.583 567.186 185.532 567.186ZM192.214 567H193.914V560.77C193.914 558.924 194.978 557.791 196.658 557.791C198.337 557.791 199.119 558.699 199.119 560.594V567H200.818V560.184C200.818 557.684 199.5 556.287 197.136 556.287C195.584 556.287 194.597 556.941 194.07 558.055H193.914V552.293H192.214V567ZM208.919 570.516H210.618V565.34H210.775C211.351 566.463 212.611 567.186 214.056 567.186C216.732 567.186 218.47 565.047 218.47 561.746V561.727C218.47 558.445 216.722 556.287 214.056 556.287C212.591 556.287 211.419 556.98 210.775 558.152H210.618V556.473H208.919V570.516ZM213.665 565.682C211.751 565.682 210.579 564.178 210.579 561.746V561.727C210.579 559.295 211.751 557.791 213.665 557.791C215.589 557.791 216.732 559.275 216.732 561.727V561.746C216.732 564.197 215.589 565.682 213.665 565.682ZM220.924 567H222.623V552.293H220.924V567ZM228.475 567.186C229.891 567.186 230.995 566.57 231.659 565.447H231.815V567H233.514V559.793C233.514 557.605 232.079 556.287 229.511 556.287C227.264 556.287 225.663 557.4 225.389 559.051L225.38 559.109H227.079L227.089 559.08C227.362 558.26 228.192 557.791 229.452 557.791C231.024 557.791 231.815 558.494 231.815 559.793V560.75L228.798 560.936C226.346 561.082 224.96 562.166 224.96 564.041V564.061C224.96 565.975 226.473 567.186 228.475 567.186ZM226.698 564.021V564.002C226.698 562.957 227.401 562.391 229.003 562.293L231.815 562.117V563.074C231.815 564.578 230.555 565.711 228.827 565.711C227.606 565.711 226.698 565.086 226.698 564.021ZM240.06 567.078C240.392 567.078 240.714 567.039 241.046 566.98V565.535C240.734 565.564 240.568 565.574 240.265 565.574C239.171 565.574 238.742 565.076 238.742 563.836V557.879H241.046V556.473H238.742V553.748H236.984V556.473H235.324V557.879H236.984V564.266C236.984 566.277 237.892 567.078 240.06 567.078ZM243.989 567H245.688V557.879H248.08V556.473H245.688V555.35C245.688 554.197 246.176 553.602 247.387 553.602C247.69 553.602 247.973 553.611 248.178 553.65V552.293C247.827 552.225 247.455 552.195 247.045 552.195C245.043 552.195 243.989 553.201 243.989 555.301V556.473H242.241V557.879H243.989V567ZM254.109 567.186C257.107 567.186 258.962 565.115 258.962 561.746V561.727C258.962 558.348 257.107 556.287 254.109 556.287C251.111 556.287 249.255 558.348 249.255 561.727V561.746C249.255 565.115 251.111 567.186 254.109 567.186ZM254.109 565.682C252.116 565.682 250.993 564.227 250.993 561.746V561.727C250.993 559.236 252.116 557.791 254.109 557.791C256.101 557.791 257.224 559.236 257.224 561.727V561.746C257.224 564.227 256.101 565.682 254.109 565.682ZM261.299 567H262.998V560.477C262.998 558.934 264.15 557.908 265.771 557.908C266.143 557.908 266.465 557.947 266.816 558.006V556.355C266.65 556.326 266.289 556.287 265.967 556.287C264.541 556.287 263.555 556.932 263.154 558.035H262.998V556.473H261.299V567ZM268.811 567H270.511V560.477C270.511 558.992 271.555 557.791 272.932 557.791C274.261 557.791 275.12 558.602 275.12 559.852V567H276.819V560.232C276.819 558.895 277.786 557.791 279.251 557.791C280.735 557.791 281.448 558.562 281.448 560.115V567H283.147V559.725C283.147 557.518 281.946 556.287 279.798 556.287C278.343 556.287 277.141 557.02 276.575 558.133H276.419C275.93 557.039 274.934 556.287 273.509 556.287C272.132 556.287 271.136 556.941 270.667 558.074H270.511V556.473H268.811V567ZM291.336 567H293.036V560.77C293.036 558.924 294.1 557.791 295.78 557.791C297.459 557.791 298.241 558.699 298.241 560.594V567H299.94V560.184C299.94 557.684 298.621 556.287 296.258 556.287C294.705 556.287 293.719 556.941 293.192 558.055H293.036V552.293H291.336V567ZM305.607 567.186C307.023 567.186 308.126 566.57 308.79 565.447H308.946V567H310.646V559.793C310.646 557.605 309.21 556.287 306.642 556.287C304.396 556.287 302.794 557.4 302.521 559.051L302.511 559.109H304.21L304.22 559.08C304.493 558.26 305.323 557.791 306.583 557.791C308.155 557.791 308.946 558.494 308.946 559.793V560.75L305.929 560.936C303.478 561.082 302.091 562.166 302.091 564.041V564.061C302.091 565.975 303.605 567.186 305.607 567.186ZM303.829 564.021V564.002C303.829 562.957 304.532 562.391 306.134 562.293L308.946 562.117V563.074C308.946 564.578 307.687 565.711 305.958 565.711C304.738 565.711 303.829 565.086 303.829 564.021ZM317.064 567.186C319.457 567.186 321.283 565.887 321.283 564.012V563.992C321.283 562.488 320.326 561.629 318.344 561.15L316.723 560.76C315.482 560.457 314.955 560.008 314.955 559.295V559.275C314.955 558.348 315.873 557.703 317.123 557.703C318.393 557.703 319.213 558.279 319.438 559.109H321.107C320.873 557.391 319.34 556.287 317.133 556.287C314.896 556.287 313.217 557.605 313.217 559.354V559.363C313.217 560.877 314.105 561.736 316.078 562.205L317.709 562.596C319.008 562.908 319.545 563.406 319.545 564.119V564.139C319.545 565.096 318.539 565.77 317.123 565.77C315.775 565.77 314.936 565.193 314.652 564.314H312.914C313.109 566.053 314.721 567.186 317.064 567.186ZM62.5926 594.691C64.4578 594.691 65.327 594.008 66.1961 591.645L70.3074 580.473H68.5203L65.6395 589.135H65.4832L62.5926 580.473H60.7762L64.6727 591.01L64.4773 591.635C64.0965 592.846 63.5105 593.285 62.5437 593.285C62.3094 593.285 62.0457 593.275 61.8406 593.236V594.633C62.075 594.672 62.368 594.691 62.5926 594.691ZM76.1891 591.186C79.1871 591.186 81.0426 589.115 81.0426 585.746V585.727C81.0426 582.348 79.1871 580.287 76.1891 580.287C73.191 580.287 71.3355 582.348 71.3355 585.727V585.746C71.3355 589.115 73.191 591.186 76.1891 591.186ZM76.1891 589.682C74.1969 589.682 73.0738 588.227 73.0738 585.746V585.727C73.0738 583.236 74.1969 581.791 76.1891 581.791C78.1812 581.791 79.3043 583.236 79.3043 585.727V585.746C79.3043 588.227 78.1812 589.682 76.1891 589.682ZM86.9047 591.186C88.4477 591.186 89.5121 590.551 90.0297 589.428H90.1859V591H91.8852V580.473H90.1859V586.703C90.1859 588.549 89.1996 589.682 87.3441 589.682C85.6644 589.682 84.9809 588.773 84.9809 586.879V580.473H83.2816V587.289C83.2816 589.779 84.5121 591.186 86.9047 591.186ZM94.759 591H96.4582V584.477C96.4582 582.934 97.6105 581.908 99.2316 581.908C99.6027 581.908 99.925 581.947 100.277 582.006V580.355C100.111 580.326 99.7492 580.287 99.4269 580.287C98.0012 580.287 97.0148 580.932 96.6144 582.035H96.4582V580.473H94.759V591ZM107.401 591H109.1V584.477C109.1 582.992 110.145 581.791 111.522 581.791C112.85 581.791 113.71 582.602 113.71 583.852V591H115.409V584.232C115.409 582.895 116.376 581.791 117.841 581.791C119.325 581.791 120.038 582.562 120.038 584.115V591H121.737V583.725C121.737 581.518 120.536 580.287 118.387 580.287C116.932 580.287 115.731 581.02 115.165 582.133H115.009C114.52 581.039 113.524 580.287 112.098 580.287C110.721 580.287 109.725 580.941 109.257 582.074H109.1V580.473H107.401V591ZM128.83 591.186C131.828 591.186 133.683 589.115 133.683 585.746V585.727C133.683 582.348 131.828 580.287 128.83 580.287C125.832 580.287 123.976 582.348 123.976 585.727V585.746C123.976 589.115 125.832 591.186 128.83 591.186ZM128.83 589.682C126.837 589.682 125.714 588.227 125.714 585.746V585.727C125.714 583.236 126.837 581.791 128.83 581.791C130.822 581.791 131.945 583.236 131.945 585.727V585.746C131.945 588.227 130.822 589.682 128.83 589.682ZM138.608 591H140.327L144.223 580.473H142.426L139.545 589.145H139.389L136.508 580.473H134.711L138.608 591ZM147.068 578.441C147.712 578.441 148.239 577.914 148.239 577.27C148.239 576.625 147.712 576.098 147.068 576.098C146.423 576.098 145.896 576.625 145.896 577.27C145.896 577.914 146.423 578.441 147.068 578.441ZM146.208 591H147.907V580.473H146.208V591ZM155.107 591.186C157.588 591.186 159.092 589.779 159.453 588.354L159.473 588.275H157.773L157.734 588.363C157.451 588.998 156.572 589.672 155.146 589.672C153.271 589.672 152.07 588.402 152.021 586.225H159.6V585.561C159.6 582.416 157.861 580.287 155 580.287C152.139 580.287 150.283 582.514 150.283 585.766V585.775C150.283 589.076 152.1 591.186 155.107 591.186ZM154.99 581.801C156.543 581.801 157.695 582.787 157.871 584.867H152.051C152.236 582.865 153.428 581.801 154.99 581.801ZM171.587 591.186C174.586 591.186 176.441 589.115 176.441 585.746V585.727C176.441 582.348 174.586 580.287 171.587 580.287C168.589 580.287 166.734 582.348 166.734 585.727V585.746C166.734 589.115 168.589 591.186 171.587 591.186ZM171.587 589.682C169.595 589.682 168.472 588.227 168.472 585.746V585.727C168.472 583.236 169.595 581.791 171.587 581.791C173.58 581.791 174.703 583.236 174.703 585.727V585.746C174.703 588.227 173.58 589.682 171.587 589.682ZM178.778 591H180.477V584.477C180.477 582.934 181.629 581.908 183.25 581.908C183.621 581.908 183.944 581.947 184.295 582.006V580.355C184.129 580.326 183.768 580.287 183.446 580.287C182.02 580.287 181.034 580.932 180.633 582.035H180.477V580.473H178.778V591ZM195.033 591.186C197.426 591.186 199.252 589.887 199.252 588.012V587.992C199.252 586.488 198.295 585.629 196.312 585.15L194.691 584.76C193.451 584.457 192.924 584.008 192.924 583.295V583.275C192.924 582.348 193.842 581.703 195.092 581.703C196.361 581.703 197.182 582.279 197.406 583.109H199.076C198.842 581.391 197.309 580.287 195.102 580.287C192.865 580.287 191.186 581.605 191.186 583.354V583.363C191.186 584.877 192.074 585.736 194.047 586.205L195.678 586.596C196.977 586.908 197.514 587.406 197.514 588.119V588.139C197.514 589.096 196.508 589.77 195.092 589.77C193.744 589.77 192.904 589.193 192.621 588.314H190.883C191.078 590.053 192.689 591.186 195.033 591.186ZM201.686 591H203.386V584.77C203.386 582.924 204.45 581.791 206.13 581.791C207.809 581.791 208.591 582.699 208.591 584.594V591H210.29V584.184C210.29 581.684 208.971 580.287 206.608 580.287C205.055 580.287 204.069 580.941 203.542 582.055H203.386V576.293H201.686V591ZM217.392 591.186C220.39 591.186 222.246 589.115 222.246 585.746V585.727C222.246 582.348 220.39 580.287 217.392 580.287C214.394 580.287 212.539 582.348 212.539 585.727V585.746C212.539 589.115 214.394 591.186 217.392 591.186ZM217.392 589.682C215.4 589.682 214.277 588.227 214.277 585.746V585.727C214.277 583.236 215.4 581.791 217.392 581.791C219.384 581.791 220.507 583.236 220.507 585.727V585.746C220.507 588.227 219.384 589.682 217.392 589.682ZM226.223 591H227.922L230.266 582.855H230.422L232.776 591H234.485L237.434 580.473H235.745L233.674 588.891H233.518L231.164 580.473H229.553L227.2 588.891H227.043L224.973 580.473H223.274L226.223 591ZM241.636 586.645H243.345V586.01C243.345 584.984 243.696 584.438 244.937 583.705C246.187 582.953 246.978 581.869 246.978 580.346V580.326C246.978 578.324 245.298 576.801 242.837 576.801C240.093 576.801 238.687 578.48 238.579 580.58V580.6L240.239 580.59L240.259 580.58C240.357 579.193 241.294 578.324 242.769 578.324C244.224 578.324 245.161 579.213 245.161 580.414V580.434C245.161 581.469 244.722 582.084 243.589 582.777C242.251 583.578 241.626 584.457 241.636 585.746V586.645ZM242.622 591.176C243.413 591.176 243.97 590.609 243.97 589.818C243.97 589.018 243.413 588.451 242.622 588.451C241.831 588.451 241.265 589.018 241.265 589.818C241.265 590.609 241.831 591.176 242.622 591.176ZM257.891 591.332C260.499 591.332 262.042 589.75 262.042 587.084V576.908H260.284V587.064C260.284 588.783 259.444 589.711 257.882 589.711C256.485 589.711 255.792 588.822 255.684 587.758L255.675 587.66H253.917L253.927 587.797C254.073 589.818 255.45 591.332 257.891 591.332ZM268.646 591.186C270.189 591.186 271.254 590.551 271.771 589.428H271.927V591H273.627V580.473H271.927V586.703C271.927 588.549 270.941 589.682 269.086 589.682C267.406 589.682 266.722 588.773 266.722 586.879V580.473H265.023V587.289C265.023 589.779 266.254 591.186 268.646 591.186ZM280.114 591.186C282.506 591.186 284.332 589.887 284.332 588.012V587.992C284.332 586.488 283.375 585.629 281.393 585.15L279.772 584.76C278.532 584.457 278.004 584.008 278.004 583.295V583.275C278.004 582.348 278.922 581.703 280.172 581.703C281.442 581.703 282.262 582.279 282.487 583.109H284.157C283.922 581.391 282.389 580.287 280.182 580.287C277.946 580.287 276.266 581.605 276.266 583.354V583.363C276.266 584.877 277.155 585.736 279.127 586.205L280.758 586.596C282.057 586.908 282.594 587.406 282.594 588.119V588.139C282.594 589.096 281.588 589.77 280.172 589.77C278.825 589.77 277.985 589.193 277.702 588.314H275.963C276.159 590.053 277.77 591.186 280.114 591.186ZM290.312 591.078C290.644 591.078 290.966 591.039 291.298 590.98V589.535C290.986 589.564 290.82 589.574 290.517 589.574C289.423 589.574 288.993 589.076 288.993 587.836V581.879H291.298V580.473H288.993V577.748H287.236V580.473H285.575V581.879H287.236V588.266C287.236 590.277 288.144 591.078 290.312 591.078ZM302.602 591.078C302.934 591.078 303.257 591.039 303.589 590.98V589.535C303.276 589.564 303.11 589.574 302.807 589.574C301.714 589.574 301.284 589.076 301.284 587.836V581.879H303.589V580.473H301.284V577.748H299.526V580.473H297.866V581.879H299.526V588.266C299.526 590.277 300.434 591.078 302.602 591.078ZM308.718 591.186C310.134 591.186 311.238 590.57 311.902 589.447H312.058V591H313.757V583.793C313.757 581.605 312.322 580.287 309.754 580.287C307.507 580.287 305.906 581.4 305.632 583.051L305.623 583.109H307.322L307.332 583.08C307.605 582.26 308.435 581.791 309.695 581.791C311.267 581.791 312.058 582.494 312.058 583.793V584.75L309.041 584.936C306.589 585.082 305.203 586.166 305.203 588.041V588.061C305.203 589.975 306.716 591.186 308.718 591.186ZM306.941 588.021V588.002C306.941 586.957 307.644 586.391 309.246 586.293L312.058 586.117V587.074C312.058 588.578 310.798 589.711 309.07 589.711C307.849 589.711 306.941 589.086 306.941 588.021ZM316.563 594.516H318.262V589.34H318.418C318.995 590.463 320.254 591.186 321.7 591.186C324.375 591.186 326.114 589.047 326.114 585.746V585.727C326.114 582.445 324.366 580.287 321.7 580.287C320.235 580.287 319.063 580.98 318.418 582.152H318.262V580.473H316.563V594.516ZM321.309 589.682C319.395 589.682 318.223 588.178 318.223 585.746V585.727C318.223 583.295 319.395 581.791 321.309 581.791C323.233 581.791 324.375 583.275 324.375 585.727V585.746C324.375 588.197 323.233 589.682 321.309 589.682ZM62.4434 615.186C65.4414 615.186 67.2969 613.115 67.2969 609.746V609.727C67.2969 606.348 65.4414 604.287 62.4434 604.287C59.4453 604.287 57.5898 606.348 57.5898 609.727V609.746C57.5898 613.115 59.4453 615.186 62.4434 615.186ZM62.4434 613.682C60.4512 613.682 59.3281 612.227 59.3281 609.746V609.727C59.3281 607.236 60.4512 605.791 62.4434 605.791C64.4355 605.791 65.5586 607.236 65.5586 609.727V609.746C65.5586 612.227 64.4355 613.682 62.4434 613.682ZM69.6336 615H71.3328V608.77C71.3328 606.924 72.3973 605.791 74.077 605.791C75.7566 605.791 76.5379 606.699 76.5379 608.594V615H78.2371V608.184C78.2371 605.684 76.9187 604.287 74.5555 604.287C73.0027 604.287 72.0164 604.941 71.4891 606.055H71.3328V604.473H69.6336V615ZM91.1723 615.332C94.3168 615.332 96.3773 613.691 96.3773 611.055V611.045C96.3773 609.014 95.2152 607.832 92.2758 607.178L90.7133 606.826C88.7992 606.406 88.0277 605.645 88.0277 604.521V604.512C88.0277 603.037 89.3852 602.207 91.143 602.197C92.9789 602.188 94.1508 603.105 94.3461 604.346L94.3656 604.473H96.1234L96.1137 604.336C95.9672 602.236 94.0043 600.576 91.1918 600.576C88.2816 600.576 86.2406 602.227 86.2309 604.561V604.57C86.2309 606.611 87.4516 607.91 90.2738 608.535L91.8363 608.877C93.7699 609.307 94.5805 610.107 94.5805 611.279V611.289C94.5805 612.725 93.184 613.711 91.2699 613.711C89.2387 613.711 87.7738 612.822 87.6469 611.416L87.6371 611.309H85.8793L85.8891 611.416C86.0941 613.711 88.0863 615.332 91.1723 615.332ZM103.089 615.186C105.57 615.186 107.073 613.779 107.435 612.354L107.454 612.275H105.755L105.716 612.363C105.433 612.998 104.554 613.672 103.128 613.672C101.253 613.672 100.052 612.402 100.003 610.225H107.581V609.561C107.581 606.416 105.843 604.287 102.982 604.287C100.12 604.287 98.2648 606.514 98.2648 609.766V609.775C98.2648 613.076 100.081 615.186 103.089 615.186ZM102.972 605.801C104.525 605.801 105.677 606.787 105.853 608.867H100.032C100.218 606.865 101.409 605.801 102.972 605.801ZM112.809 615.186C114.225 615.186 115.328 614.57 115.992 613.447H116.148V615H117.848V607.793C117.848 605.605 116.412 604.287 113.844 604.287C111.598 604.287 109.996 605.4 109.723 607.051L109.713 607.109H111.412L111.422 607.08C111.695 606.26 112.525 605.791 113.785 605.791C115.357 605.791 116.148 606.494 116.148 607.793V608.75L113.131 608.936C110.68 609.082 109.293 610.166 109.293 612.041V612.061C109.293 613.975 110.807 615.186 112.809 615.186ZM111.031 612.021V612.002C111.031 610.957 111.734 610.391 113.336 610.293L116.148 610.117V611.074C116.148 612.578 114.889 613.711 113.16 613.711C111.939 613.711 111.031 613.086 111.031 612.021ZM120.653 615H122.352V608.477C122.352 606.934 123.505 605.908 125.126 605.908C125.497 605.908 125.819 605.947 126.171 606.006V604.355C126.005 604.326 125.643 604.287 125.321 604.287C123.895 604.287 122.909 604.932 122.509 606.035H122.352V604.473H120.653V615ZM131.984 615.186C134.513 615.186 135.929 613.828 136.359 611.924L136.379 611.816L134.699 611.826L134.679 611.885C134.289 613.057 133.39 613.682 131.974 613.682C130.099 613.682 128.888 612.129 128.888 609.707V609.688C128.888 607.314 130.08 605.791 131.974 605.791C133.488 605.791 134.425 606.631 134.689 607.666L134.699 607.695H136.388L136.379 607.637C136.066 605.762 134.533 604.287 131.974 604.287C129.025 604.287 127.15 606.416 127.15 609.688V609.707C127.15 613.047 129.035 615.186 131.984 615.186ZM138.666 615H140.366V608.77C140.366 606.924 141.43 605.791 143.11 605.791C144.789 605.791 145.571 606.699 145.571 608.594V615H147.27V608.184C147.27 605.684 145.952 604.287 143.588 604.287C142.036 604.287 141.049 604.941 140.522 606.055H140.366V600.293H138.666V615ZM151.433 615.098C152.136 615.098 152.702 614.521 152.702 613.828C152.702 613.125 152.136 612.559 151.433 612.559C150.739 612.559 150.163 613.125 150.163 613.828C150.163 614.521 150.739 615.098 151.433 615.098ZM165.1 615H166.858V608.936L171.858 600.908H169.856L166.057 607.168H165.901L162.102 600.908H160.1L165.1 608.936V615ZM176.48 615.186C179.478 615.186 181.334 613.115 181.334 609.746V609.727C181.334 606.348 179.478 604.287 176.48 604.287C173.482 604.287 171.627 606.348 171.627 609.727V609.746C171.627 613.115 173.482 615.186 176.48 615.186ZM176.48 613.682C174.488 613.682 173.365 612.227 173.365 609.746V609.727C173.365 607.236 174.488 605.791 176.48 605.791C178.472 605.791 179.595 607.236 179.595 609.727V609.746C179.595 612.227 178.472 613.682 176.48 613.682ZM187.196 615.186C188.739 615.186 189.803 614.551 190.321 613.428H190.477V615H192.176V604.473H190.477V610.703C190.477 612.549 189.491 613.682 187.635 613.682C185.955 613.682 185.272 612.773 185.272 610.879V604.473H183.573V611.289C183.573 613.779 184.803 615.186 187.196 615.186ZM195.04 606.465H196.3L197.833 600.908H195.89L195.04 606.465ZM200.785 615H202.484V600.293H200.785V615ZM205.544 615H207.243V600.293H205.544V615ZM215.627 615H217.327V608.77C217.327 606.924 218.391 605.791 220.071 605.791C221.75 605.791 222.532 606.699 222.532 608.594V615H224.231V608.184C224.231 605.684 222.913 604.287 220.549 604.287C218.996 604.287 218.01 604.941 217.483 606.055H217.327V600.293H215.627V615ZM229.898 615.186C231.314 615.186 232.417 614.57 233.081 613.447H233.238V615H234.937V607.793C234.937 605.605 233.501 604.287 230.933 604.287C228.687 604.287 227.085 605.4 226.812 607.051L226.802 607.109H228.501L228.511 607.08C228.784 606.26 229.614 605.791 230.874 605.791C232.446 605.791 233.238 606.494 233.238 607.793V608.75L230.22 608.936C227.769 609.082 226.382 610.166 226.382 612.041V612.061C226.382 613.975 227.896 615.186 229.898 615.186ZM228.12 612.021V612.002C228.12 610.957 228.823 610.391 230.425 610.293L233.238 610.117V611.074C233.238 612.578 231.978 613.711 230.249 613.711C229.029 613.711 228.12 613.086 228.12 612.021ZM240.33 615H242.049L245.945 604.473H244.148L241.268 613.145H241.111L238.23 604.473H236.434L240.33 615ZM251.798 615.186C254.278 615.186 255.782 613.779 256.143 612.354L256.163 612.275H254.464L254.425 612.363C254.141 612.998 253.262 613.672 251.837 613.672C249.962 613.672 248.761 612.402 248.712 610.225H256.29V609.561C256.29 606.416 254.552 604.287 251.69 604.287C248.829 604.287 246.973 606.514 246.973 609.766V609.775C246.973 613.076 248.79 615.186 251.798 615.186ZM251.68 605.801C253.233 605.801 254.386 606.787 254.561 608.867H248.741C248.927 606.865 250.118 605.801 251.68 605.801ZM268.278 615.186C271.276 615.186 273.131 613.115 273.131 609.746V609.727C273.131 606.348 271.276 604.287 268.278 604.287C265.28 604.287 263.424 606.348 263.424 609.727V609.746C263.424 613.115 265.28 615.186 268.278 615.186ZM268.278 613.682C266.286 613.682 265.163 612.227 265.163 609.746V609.727C265.163 607.236 266.286 605.791 268.278 605.791C270.27 605.791 271.393 607.236 271.393 609.727V609.746C271.393 612.227 270.27 613.682 268.278 613.682ZM275.468 618.516H277.167V613.34H277.323C277.9 614.463 279.159 615.186 280.605 615.186C283.28 615.186 285.019 613.047 285.019 609.746V609.727C285.019 606.445 283.271 604.287 280.605 604.287C279.14 604.287 277.968 604.98 277.323 606.152H277.167V604.473H275.468V618.516ZM280.214 613.682C278.3 613.682 277.128 612.178 277.128 609.746V609.727C277.128 607.295 278.3 605.791 280.214 605.791C282.138 605.791 283.28 607.275 283.28 609.727V609.746C283.28 612.197 282.138 613.682 280.214 613.682ZM291.115 615.078C291.447 615.078 291.77 615.039 292.102 614.98V613.535C291.789 613.564 291.623 613.574 291.32 613.574C290.227 613.574 289.797 613.076 289.797 611.836V605.879H292.102V604.473H289.797V601.748H288.039V604.473H286.379V605.879H288.039V612.266C288.039 614.277 288.947 615.078 291.115 615.078ZM295.239 602.441C295.884 602.441 296.411 601.914 296.411 601.27C296.411 600.625 295.884 600.098 295.239 600.098C294.595 600.098 294.067 600.625 294.067 601.27C294.067 601.914 294.595 602.441 295.239 602.441ZM294.38 615H296.079V604.473H294.38V615ZM303.308 615.186C306.306 615.186 308.162 613.115 308.162 609.746V609.727C308.162 606.348 306.306 604.287 303.308 604.287C300.31 604.287 298.455 606.348 298.455 609.727V609.746C298.455 613.115 300.31 615.186 303.308 615.186ZM303.308 613.682C301.316 613.682 300.193 612.227 300.193 609.746V609.727C300.193 607.236 301.316 605.791 303.308 605.791C305.3 605.791 306.423 607.236 306.423 609.727V609.746C306.423 612.227 305.3 613.682 303.308 613.682ZM310.498 615H312.198V608.77C312.198 606.924 313.262 605.791 314.942 605.791C316.621 605.791 317.403 606.699 317.403 608.594V615H319.102V608.184C319.102 605.684 317.784 604.287 315.42 604.287C313.868 604.287 312.881 604.941 312.354 606.055H312.198V604.473H310.498V615ZM325.491 615.186C327.884 615.186 329.71 613.887 329.71 612.012V611.992C329.71 610.488 328.753 609.629 326.771 609.15L325.15 608.76C323.909 608.457 323.382 608.008 323.382 607.295V607.275C323.382 606.348 324.3 605.703 325.55 605.703C326.82 605.703 327.64 606.279 327.864 607.109H329.534C329.3 605.391 327.767 604.287 325.56 604.287C323.323 604.287 321.644 605.605 321.644 607.354V607.363C321.644 608.877 322.532 609.736 324.505 610.205L326.136 610.596C327.435 610.908 327.972 611.406 327.972 612.119V612.139C327.972 613.096 326.966 613.77 325.55 613.77C324.202 613.77 323.362 613.193 323.079 612.314H321.341C321.536 614.053 323.148 615.186 325.491 615.186ZM85.8465 639.078C86.1785 639.078 86.5008 639.039 86.8328 638.98V637.535C86.5203 637.564 86.3543 637.574 86.0516 637.574C84.9578 637.574 84.5281 637.076 84.5281 635.836V629.879H86.8328V628.473H84.5281V625.748H82.7703V628.473H81.1102V629.879H82.7703V636.266C82.7703 638.277 83.6785 639.078 85.8465 639.078ZM93.2418 639.186C96.2398 639.186 98.0953 637.115 98.0953 633.746V633.727C98.0953 630.348 96.2398 628.287 93.2418 628.287C90.2437 628.287 88.3883 630.348 88.3883 633.727V633.746C88.3883 637.115 90.2437 639.186 93.2418 639.186ZM93.2418 637.682C91.2496 637.682 90.1266 636.227 90.1266 633.746V633.727C90.1266 631.236 91.2496 629.791 93.2418 629.791C95.234 629.791 96.357 631.236 96.357 633.727V633.746C96.357 636.227 95.234 637.682 93.2418 637.682ZM108.892 639H110.552L113.794 627.877H113.911L117.154 639H118.814L122.652 624.908H120.816L118.013 636.363H117.896L114.741 624.908H112.964L109.81 636.363H109.693L106.89 624.908H105.054L108.892 639ZM126.727 639.186C128.143 639.186 129.246 638.57 129.91 637.447H130.066V639H131.766V631.793C131.766 629.605 130.33 628.287 127.762 628.287C125.516 628.287 123.914 629.4 123.641 631.051L123.631 631.109H125.33L125.34 631.08C125.613 630.26 126.443 629.791 127.703 629.791C129.275 629.791 130.066 630.494 130.066 631.793V632.75L127.049 632.936C124.598 633.082 123.211 634.166 123.211 636.041V636.061C123.211 637.975 124.725 639.186 126.727 639.186ZM124.949 636.021V636.002C124.949 634.957 125.652 634.391 127.254 634.293L130.066 634.117V635.074C130.066 636.578 128.807 637.711 127.078 637.711C125.857 637.711 124.949 637.086 124.949 636.021ZM138.311 639.078C138.643 639.078 138.966 639.039 139.298 638.98V637.535C138.985 637.564 138.819 637.574 138.516 637.574C137.423 637.574 136.993 637.076 136.993 635.836V629.879H139.298V628.473H136.993V625.748H135.235V628.473H133.575V629.879H135.235V636.266C135.235 638.277 136.143 639.078 138.311 639.078ZM145.687 639.186C148.216 639.186 149.632 637.828 150.062 635.924L150.082 635.816L148.402 635.826L148.382 635.885C147.992 637.057 147.093 637.682 145.677 637.682C143.802 637.682 142.591 636.129 142.591 633.707V633.688C142.591 631.314 143.783 629.791 145.677 629.791C147.191 629.791 148.129 630.631 148.392 631.666L148.402 631.695H150.091L150.082 631.637C149.769 629.762 148.236 628.287 145.677 628.287C142.728 628.287 140.853 630.416 140.853 633.688V633.707C140.853 637.047 142.738 639.186 145.687 639.186ZM152.37 639H154.069V632.77C154.069 630.924 155.133 629.791 156.813 629.791C158.493 629.791 159.274 630.699 159.274 632.594V639H160.973V632.184C160.973 629.684 159.655 628.287 157.291 628.287C155.739 628.287 154.752 628.941 154.225 630.055H154.069V624.293H152.37V639ZM163.32 642.584H164.579L166.112 637.027H164.169L163.32 642.584ZM174.927 639H176.684V633.424H180.151L183.169 639H185.229L181.968 633.15C183.735 632.594 184.8 631.07 184.8 629.117V629.098C184.8 626.568 183.022 624.908 180.307 624.908H174.927V639ZM176.684 631.861V626.471H180.073C181.889 626.471 182.983 627.477 182.983 629.156V629.176C182.983 630.895 181.958 631.861 180.151 631.861H176.684ZM191.482 639.186C193.962 639.186 195.466 637.779 195.828 636.354L195.847 636.275H194.148L194.109 636.363C193.826 636.998 192.947 637.672 191.521 637.672C189.646 637.672 188.445 636.402 188.396 634.225H195.974V633.561C195.974 630.416 194.236 628.287 191.375 628.287C188.513 628.287 186.658 630.514 186.658 633.766V633.775C186.658 637.076 188.474 639.186 191.482 639.186ZM191.365 629.801C192.918 629.801 194.07 630.787 194.246 632.867H188.425C188.611 630.865 189.802 629.801 191.365 629.801ZM198.311 639H200.01V632.77C200.01 630.924 201.075 629.791 202.754 629.791C204.434 629.791 205.215 630.699 205.215 632.594V639H206.914V632.184C206.914 629.684 205.596 628.287 203.233 628.287C201.68 628.287 200.694 628.941 200.166 630.055H200.01V628.473H198.311V639ZM213.431 639.078C213.763 639.078 214.085 639.039 214.417 638.98V637.535C214.105 637.564 213.939 637.574 213.636 637.574C212.542 637.574 212.112 637.076 212.112 635.836V629.879H214.417V628.473H212.112V625.748H210.355V628.473H208.695V629.879H210.355V636.266C210.355 638.277 211.263 639.078 213.431 639.078ZM216.227 642.584H217.486L219.02 637.027H217.076L216.227 642.584ZM230.509 639.186C231.925 639.186 233.029 638.57 233.693 637.447H233.849V639H235.548V631.793C235.548 629.605 234.113 628.287 231.545 628.287C229.298 628.287 227.697 629.4 227.423 631.051L227.414 631.109H229.113L229.123 631.08C229.396 630.26 230.226 629.791 231.486 629.791C233.058 629.791 233.849 630.494 233.849 631.793V632.75L230.832 632.936C228.38 633.082 226.994 634.166 226.994 636.041V636.061C226.994 637.975 228.507 639.186 230.509 639.186ZM228.732 636.021V636.002C228.732 634.957 229.435 634.391 231.037 634.293L233.849 634.117V635.074C233.849 636.578 232.589 637.711 230.861 637.711C229.64 637.711 228.732 637.086 228.732 636.021ZM238.354 639H240.053V632.77C240.053 630.924 241.118 629.791 242.797 629.791C244.477 629.791 245.258 630.699 245.258 632.594V639H246.957V632.184C246.957 629.684 245.639 628.287 243.276 628.287C241.723 628.287 240.737 628.941 240.209 630.055H240.053V628.473H238.354V639ZM253.62 639.186C255.085 639.186 256.257 638.492 256.902 637.32H257.058V639H258.757V624.293H257.058V630.133H256.902C256.325 629.01 255.066 628.287 253.62 628.287C250.945 628.287 249.206 630.426 249.206 633.727V633.746C249.206 637.027 250.954 639.186 253.62 639.186ZM254.011 637.682C252.087 637.682 250.945 636.197 250.945 633.746V633.727C250.945 631.275 252.087 629.791 254.011 629.791C255.925 629.791 257.097 631.295 257.097 633.727V633.746C257.097 636.178 255.925 637.682 254.011 637.682ZM267.259 639H272.757C275.755 639 277.532 637.525 277.532 635.055V635.035C277.532 633.18 276.311 631.861 274.387 631.617V631.461C275.745 631.217 276.819 629.889 276.819 628.434V628.414C276.819 626.266 275.237 624.908 272.649 624.908H267.259V639ZM272.278 626.461C274.026 626.461 275.042 627.291 275.042 628.717V628.736C275.042 630.221 273.958 630.982 271.829 630.982H269.016V626.461H272.278ZM272.327 632.496C274.573 632.496 275.725 633.326 275.725 634.947V634.967C275.725 636.588 274.612 637.447 272.493 637.447H269.016V632.496H272.327ZM283.414 639.186C284.957 639.186 286.021 638.551 286.539 637.428H286.695V639H288.394V628.473H286.695V634.703C286.695 636.549 285.709 637.682 283.853 637.682C282.173 637.682 281.49 636.773 281.49 634.879V628.473H279.791V635.289C279.791 637.779 281.021 639.186 283.414 639.186ZM292.166 642.691C294.032 642.691 294.901 642.008 295.77 639.645L299.881 628.473H298.094L295.213 637.135H295.057L292.166 628.473H290.35L294.246 639.01L294.051 639.635C293.67 640.846 293.084 641.285 292.118 641.285C291.883 641.285 291.62 641.275 291.414 641.236V642.633C291.649 642.672 291.942 642.691 292.166 642.691ZM302.54 634.312H304.161L304.327 624.898H302.374L302.54 634.312ZM303.361 639.176C304.152 639.176 304.708 638.609 304.708 637.818C304.708 637.018 304.152 636.451 303.361 636.451C302.57 636.451 302.003 637.018 302.003 637.818C302.003 638.609 302.57 639.176 303.361 639.176Z" fill="black"/>
<rect x="30" y="164" width="316" height="364" fill="#C4C4C4"/>
<line y1="-0.5" x2="482.029" y2="-0.5" transform="matrix(-0.655562 0.755141 -0.774066 -0.633105 346 164)" stroke="black"/>
<line y1="-0.5" x2="482.029" y2="-0.5" transform="matrix(0.655562 0.755141 -0.774066 0.633105 30 164)" stroke="black"/>
</g>
<rect x="0.5" y="0.5" width="376" height="813" stroke="black"/>
<defs>
<clipPath id="clip0_1_67">
<rect x="1" y="1" width="375" height="812" fill="white"/>
</clipPath>
<clipPath id="clip1_1_67">
<rect width="375" height="812" fill="white" transform="translate(1 1)"/>
</clipPath>
</defs>
</svg>
